<?xml version="1.0" encoding="utf-8" standalone="no"?>
<!DOCTYPE svg PUBLIC "-//W3C//DTD SVG 1.1//EN"
  "http://www.w3.org/Graphics/SVG/1.1/DTD/svg11.dtd">
<!-- Created with matplotlib (https://matplotlib.org/) -->
<svg height="340.39pt" version="1.1" viewBox="0 0 340.2975 340.39" width="340.2975pt" xmlns="http://www.w3.org/2000/svg" xmlns:xlink="http://www.w3.org/1999/xlink">
 <metadata>
  <rdf:RDF xmlns:cc="http://creativecommons.org/ns#" xmlns:dc="http://purl.org/dc/elements/1.1/" xmlns:rdf="http://www.w3.org/1999/02/22-rdf-syntax-ns#">
   <cc:Work>
    <dc:type rdf:resource="http://purl.org/dc/dcmitype/StillImage"/>
    <dc:date>2021-12-14T13:25:57.042781</dc:date>
    <dc:format>image/svg+xml</dc:format>
    <dc:creator>
     <cc:Agent>
      <dc:title>Matplotlib v3.3.4, https://matplotlib.org/</dc:title>
     </cc:Agent>
    </dc:creator>
   </cc:Work>
  </rdf:RDF>
 </metadata>
 <defs>
  <style type="text/css">*{stroke-linecap:butt;stroke-linejoin:round;}</style>
 </defs>
 <g id="figure_1">
  <g id="patch_1">
   <path d="M 0 340.39 
L 340.2975 340.39 
L 340.2975 0 
L 0 0 
z
" style="fill:none;"/>
  </g>
  <g id="axes_1">
   <g id="patch_2">
    <path d="M 68.4075 288.64 
L 333.0975 288.64 
L 333.0975 7.2 
L 68.4075 7.2 
z
" style="fill:#ffffff;"/>
   </g>
   <g id="matplotlib.axis_1">
    <g id="xtick_1">
     <g id="line2d_1">
      <defs>
       <path d="M 0 0 
L 0 3.5 
" id="maceef1ef0a" style="stroke:#555555;stroke-width:0.8;"/>
      </defs>
      <g>
       <use style="fill:#555555;stroke:#555555;stroke-width:0.8;" x="94.8765" xlink:href="#maceef1ef0a" y="288.64"/>
      </g>
     </g>
     <g id="text_1">
      <!-- V1 -->
      <g style="fill:#555555;" transform="translate(85.0565 307.64)scale(0.16 -0.16)">
       <defs>
        <path d="M 65.09375 71.09375 
L 40.28125 0 
L 25.046875 0 
L 0.390625 71.09375 
L 16.609375 71.09375 
L 32.671875 17.671875 
L 48.78125 71.09375 
z
" id="Roboto-Bold-86"/>
        <path d="M 39.109375 71.1875 
L 39.109375 0 
L 25 0 
L 25 54.4375 
L 8.203125 49.21875 
L 8.203125 60.640625 
L 37.59375 71.1875 
z
" id="Roboto-Bold-49"/>
       </defs>
       <use xlink:href="#Roboto-Bold-86"/>
       <use x="65.380859" xlink:href="#Roboto-Bold-49"/>
      </g>
     </g>
    </g>
    <g id="xtick_2">
     <g id="line2d_2">
      <g>
       <use style="fill:#555555;stroke:#555555;stroke-width:0.8;" x="147.8145" xlink:href="#maceef1ef0a" y="288.64"/>
      </g>
     </g>
     <g id="text_2">
      <!-- LM -->
      <g style="fill:#555555;" transform="translate(136.4745 307.64)scale(0.16 -0.16)">
       <defs>
        <path d="M 52.09375 11.8125 
L 52.09375 0 
L 6.34375 0 
L 6.34375 71.09375 
L 21.046875 71.09375 
L 21.046875 11.8125 
z
" id="Roboto-Bold-76"/>
        <path d="M 43.75 19.53125 
L 61.96875 71.09375 
L 81.15625 71.09375 
L 81.15625 0 
L 66.453125 0 
L 66.453125 19.4375 
L 67.921875 52.828125 
L 48.78125 0 
L 38.71875 0 
L 19.578125 52.828125 
L 21.046875 19.4375 
L 21.046875 0 
L 6.34375 0 
L 6.34375 71.09375 
L 25.53125 71.09375 
z
" id="Roboto-Bold-77"/>
       </defs>
       <use xlink:href="#Roboto-Bold-76"/>
       <use x="54.150391" xlink:href="#Roboto-Bold-77"/>
      </g>
     </g>
    </g>
    <g id="xtick_3">
     <g id="line2d_3">
      <g>
       <use style="fill:#555555;stroke:#555555;stroke-width:0.8;" x="200.7525" xlink:href="#maceef1ef0a" y="288.64"/>
      </g>
     </g>
     <g id="text_3">
      <!-- AL -->
      <g style="fill:#555555;" transform="translate(191.03375 307.64)scale(0.16 -0.16)">
       <defs>
        <path d="M 0.390625 0 
L 26.859375 71.09375 
L 40.4375 71.09375 
L 67.046875 0 
L 51.421875 0 
L 46.53125 14.65625 
L 20.796875 14.65625 
L 15.921875 0 
z
M 24.75 26.515625 
L 42.578125 26.515625 
L 33.6875 53.21875 
z
" id="Roboto-Bold-65"/>
       </defs>
       <use xlink:href="#Roboto-Bold-65"/>
       <use x="67.333984" xlink:href="#Roboto-Bold-76"/>
      </g>
     </g>
    </g>
    <g id="xtick_4">
     <g id="line2d_4">
      <g>
       <use style="fill:#555555;stroke:#555555;stroke-width:0.8;" x="253.6905" xlink:href="#maceef1ef0a" y="288.64"/>
      </g>
     </g>
     <g id="text_4">
      <!-- PM -->
      <g style="fill:#555555;" transform="translate(241.51925 307.64)scale(0.16 -0.16)">
       <defs>
        <path d="M 21.046875 25.09375 
L 21.046875 0 
L 6.34375 0 
L 6.34375 71.09375 
L 34.125 71.09375 
Q 46.734375 71.09375 53.78125 64.453125 
Q 60.84375 57.8125 60.84375 47.609375 
Q 60.84375 37.3125 53.78125 31.203125 
Q 46.734375 25.09375 34.125 25.09375 
z
M 21.046875 59.234375 
L 21.046875 36.921875 
L 34.125 36.921875 
Q 40.4375 36.921875 43.21875 39.890625 
Q 46 42.875 46 47.515625 
Q 46 52.15625 43.21875 55.6875 
Q 40.4375 59.234375 34.125 59.234375 
z
" id="Roboto-Bold-80"/>
       </defs>
       <use xlink:href="#Roboto-Bold-80"/>
       <use x="64.550781" xlink:href="#Roboto-Bold-77"/>
      </g>
     </g>
    </g>
    <g id="xtick_5">
     <g id="line2d_5">
      <g>
       <use style="fill:#555555;stroke:#555555;stroke-width:0.8;" x="306.6285" xlink:href="#maceef1ef0a" y="288.64"/>
      </g>
     </g>
     <g id="text_5">
      <!-- AM -->
      <g style="fill:#555555;" transform="translate(294.23475 307.64)scale(0.16 -0.16)">
       <use xlink:href="#Roboto-Bold-65"/>
       <use x="67.333984" xlink:href="#Roboto-Bold-77"/>
      </g>
     </g>
    </g>
    <g id="text_6">
     <!-- area -->
     <g style="fill:#555555;" transform="translate(181.764 329.29)scale(0.192 -0.192)">
      <defs>
       <path d="M 36.03125 0 
Q 35.15625 1.859375 34.625 4.734375 
Q 29.5 -0.984375 21.296875 -0.984375 
Q 13.71875 -0.984375 8.546875 3.484375 
Q 3.375 7.953125 3.375 14.84375 
Q 3.375 23.140625 9.515625 27.703125 
Q 15.671875 32.28125 27.734375 32.28125 
L 34.03125 32.28125 
L 34.03125 35.359375 
Q 34.03125 39.015625 32.15625 41.1875 
Q 30.28125 43.359375 26.21875 43.359375 
Q 18.65625 43.359375 18.65625 37.015625 
L 4.546875 37.015625 
Q 4.546875 43.890625 10.640625 48.84375 
Q 16.75 53.8125 27 53.8125 
Q 36.140625 53.8125 42.15625 49.171875 
Q 48.1875 44.53125 48.1875 35.25 
L 48.1875 11.71875 
Q 48.296875 4.6875 50.296875 0.828125 
L 50.296875 0 
z
M 24.359375 9.8125 
Q 27.9375 9.8125 30.4375 11.390625 
Q 32.953125 12.984375 34.03125 14.890625 
L 34.03125 24.078125 
L 28.265625 24.078125 
Q 22.65625 24.078125 20.0625 21.703125 
Q 17.484375 19.34375 17.484375 15.875 
Q 17.484375 13.234375 19.3125 11.515625 
Q 21.140625 9.8125 24.359375 9.8125 
z
" id="Roboto-Bold-97"/>
       <path d="M 30.03125 40.046875 
Q 22.078125 40.046875 19.578125 34.625 
L 19.578125 0 
L 5.421875 0 
L 5.421875 52.828125 
L 18.75 52.828125 
L 19.1875 46.53125 
Q 23.34375 53.8125 30.953125 53.8125 
Q 33.640625 53.8125 35.296875 53.171875 
L 35.15625 39.65625 
z
" id="Roboto-Bold-114"/>
       <path d="M 50.390625 8.59375 
Q 47.859375 4.984375 42.671875 2 
Q 37.5 -0.984375 29.78125 -0.984375 
Q 17.484375 -0.984375 10.546875 6.46875 
Q 3.609375 13.921875 3.5625 24.46875 
L 3.5625 26.515625 
Q 3.5625 38.484375 10.21875 46.140625 
Q 16.890625 53.8125 28.21875 53.8125 
Q 39.59375 53.8125 45.546875 46.671875 
Q 51.515625 39.546875 51.515625 27.828125 
L 51.515625 21.828125 
L 17.875 21.828125 
Q 18.609375 16.703125 21.921875 13.546875 
Q 25.25 10.40625 30.671875 10.40625 
Q 38.71875 10.40625 43.40625 16.3125 
z
M 28.125 42.4375 
Q 23.640625 42.4375 21.1875 39.40625 
Q 18.75 36.375 18.015625 31.5 
L 37.640625 31.5 
L 37.640625 32.5625 
Q 37.546875 36.8125 35.28125 39.625 
Q 33.015625 42.4375 28.125 42.4375 
z
" id="Roboto-Bold-101"/>
      </defs>
      <use xlink:href="#Roboto-Bold-97"/>
      <use x="53.613281" xlink:href="#Roboto-Bold-114"/>
      <use x="90.136719" xlink:href="#Roboto-Bold-101"/>
      <use x="144.189453" xlink:href="#Roboto-Bold-97"/>
     </g>
    </g>
   </g>
   <g id="matplotlib.axis_2">
    <g id="ytick_1">
     <g id="line2d_6">
      <path clip-path="url(#p815b3d78bb)" d="M 68.4075 246.048292 
L 333.0975 246.048292 
" style="fill:none;stroke:#eeeeee;stroke-linecap:square;stroke-width:0.8;"/>
     </g>
     <g id="line2d_7">
      <defs>
       <path d="M 0 0 
L -3.5 0 
" id="mb2bf4eff19" style="stroke:#555555;stroke-width:0.8;"/>
      </defs>
      <g>
       <use style="fill:#555555;stroke:#555555;stroke-width:0.8;" x="68.4075" xlink:href="#mb2bf4eff19" y="246.048292"/>
      </g>
     </g>
     <g id="text_7">
      <!-- −0.3 -->
      <g style="fill:#555555;" transform="translate(29.5 252.048292)scale(0.16 -0.16)">
       <defs>
        <path d="M 49.359375 40.625 
L 49.359375 29.109375 
L 7.171875 29.109375 
L 7.171875 40.625 
z
" id="Roboto-Bold-8722"/>
        <path d="M 52.6875 29.4375 
Q 52.6875 13.375 46.09375 6.1875 
Q 39.5 -0.984375 28.75 -0.984375 
Q 18.015625 -0.984375 11.34375 6.1875 
Q 4.6875 13.375 4.6875 29.4375 
L 4.6875 41.796875 
Q 4.6875 57.8125 11.296875 64.9375 
Q 17.921875 72.078125 28.65625 72.078125 
Q 39.359375 72.078125 46 64.984375 
Q 52.640625 57.90625 52.6875 42.046875 
z
M 38.578125 43.75 
Q 38.578125 53.21875 35.984375 56.953125 
Q 33.40625 60.6875 28.65625 60.6875 
Q 24.03125 60.6875 21.4375 57.03125 
Q 18.84375 53.375 18.796875 44.140625 
L 18.796875 27.546875 
Q 18.796875 18.015625 21.40625 14.203125 
Q 24.03125 10.40625 28.765625 10.40625 
Q 33.40625 10.40625 35.96875 14.140625 
Q 38.53125 17.875 38.578125 27.15625 
z
" id="Roboto-Bold-48"/>
        <path d="M 6.15625 6.984375 
Q 6.15625 10.203125 8.328125 12.375 
Q 10.5 14.546875 14.15625 14.546875 
Q 17.828125 14.546875 19.96875 12.375 
Q 22.125 10.203125 22.125 6.984375 
Q 22.125 3.8125 19.96875 1.640625 
Q 17.828125 -0.53125 14.15625 -0.53125 
Q 10.5 -0.53125 8.328125 1.640625 
Q 6.15625 3.8125 6.15625 6.984375 
z
" id="Roboto-Bold-46"/>
        <path d="M 19.234375 30.765625 
L 19.234375 41.84375 
L 26.765625 41.84375 
Q 32.078125 41.84375 34.6875 44.5 
Q 37.3125 47.171875 37.3125 51.65625 
Q 37.3125 55.609375 34.9375 58.171875 
Q 32.5625 60.75 27.6875 60.75 
Q 23.828125 60.75 20.96875 58.59375 
Q 18.109375 56.453125 18.109375 52.6875 
L 4 52.6875 
Q 4 61.46875 10.78125 66.796875 
Q 17.578125 72.125 27.296875 72.125 
Q 38.09375 72.125 44.75 66.96875 
Q 51.421875 61.8125 51.421875 51.859375 
Q 51.421875 47.265625 48.578125 43.09375 
Q 45.75 38.921875 40.578125 36.53125 
Q 46.53125 34.421875 49.5 30.09375 
Q 52.484375 25.78125 52.484375 19.96875 
Q 52.484375 9.96875 45.28125 4.484375 
Q 38.09375 -0.984375 27.296875 -0.984375 
Q 21.296875 -0.984375 15.75 1.21875 
Q 10.203125 3.421875 6.65625 7.9375 
Q 3.125 12.453125 3.125 19.484375 
L 17.28125 19.484375 
Q 17.28125 15.53125 20.234375 12.96875 
Q 23.1875 10.40625 27.6875 10.40625 
Q 32.71875 10.40625 35.546875 13.078125 
Q 38.375 15.765625 38.375 20.171875 
Q 38.375 30.765625 26.65625 30.765625 
z
" id="Roboto-Bold-51"/>
       </defs>
       <use xlink:href="#Roboto-Bold-8722"/>
       <use x="55.566406" xlink:href="#Roboto-Bold-48"/>
       <use x="112.939453" xlink:href="#Roboto-Bold-46"/>
       <use x="142.041016" xlink:href="#Roboto-Bold-51"/>
      </g>
     </g>
    </g>
    <g id="ytick_2">
     <g id="line2d_8">
      <path clip-path="url(#p815b3d78bb)" d="M 68.4075 203.30483 
L 333.0975 203.30483 
" style="fill:none;stroke:#eeeeee;stroke-linecap:square;stroke-width:0.8;"/>
     </g>
     <g id="line2d_9">
      <g>
       <use style="fill:#555555;stroke:#555555;stroke-width:0.8;" x="68.4075" xlink:href="#mb2bf4eff19" y="203.30483"/>
      </g>
     </g>
     <g id="text_8">
      <!-- −0.2 -->
      <g style="fill:#555555;" transform="translate(29.5 209.30483)scale(0.16 -0.16)">
       <defs>
        <path d="M 53.5625 11.375 
L 53.5625 0 
L 4.890625 0 
L 4.890625 9.671875 
L 27.875 34.1875 
Q 33.0625 39.890625 35.078125 43.625 
Q 37.109375 47.359375 37.109375 50.53125 
Q 37.109375 55.28125 34.734375 58.015625 
Q 32.375 60.75 27.9375 60.75 
Q 22.90625 60.75 20.234375 57.328125 
Q 17.578125 53.90625 17.578125 48.734375 
L 3.46875 48.734375 
Q 3.46875 58.34375 10.078125 65.234375 
Q 16.703125 72.125 28.171875 72.125 
Q 39.359375 72.125 45.3125 66.71875 
Q 51.265625 61.328125 51.265625 51.953125 
Q 51.265625 44.921875 47.09375 38.59375 
Q 42.921875 32.28125 35.6875 24.703125 
L 23 11.375 
z
" id="Roboto-Bold-50"/>
       </defs>
       <use xlink:href="#Roboto-Bold-8722"/>
       <use x="55.566406" xlink:href="#Roboto-Bold-48"/>
       <use x="112.939453" xlink:href="#Roboto-Bold-46"/>
       <use x="142.041016" xlink:href="#Roboto-Bold-50"/>
      </g>
     </g>
    </g>
    <g id="ytick_3">
     <g id="line2d_10">
      <path clip-path="url(#p815b3d78bb)" d="M 68.4075 160.561369 
L 333.0975 160.561369 
" style="fill:none;stroke:#eeeeee;stroke-linecap:square;stroke-width:0.8;"/>
     </g>
     <g id="line2d_11">
      <g>
       <use style="fill:#555555;stroke:#555555;stroke-width:0.8;" x="68.4075" xlink:href="#mb2bf4eff19" y="160.561369"/>
      </g>
     </g>
     <g id="text_9">
      <!-- −0.1 -->
      <g style="fill:#555555;" transform="translate(29.5 166.561369)scale(0.16 -0.16)">
       <use xlink:href="#Roboto-Bold-8722"/>
       <use x="55.566406" xlink:href="#Roboto-Bold-48"/>
       <use x="112.939453" xlink:href="#Roboto-Bold-46"/>
       <use x="142.041016" xlink:href="#Roboto-Bold-49"/>
      </g>
     </g>
    </g>
    <g id="ytick_4">
     <g id="line2d_12">
      <path clip-path="url(#p815b3d78bb)" d="M 68.4075 117.817907 
L 333.0975 117.817907 
" style="fill:none;stroke:#eeeeee;stroke-linecap:square;stroke-width:0.8;"/>
     </g>
     <g id="line2d_13">
      <g>
       <use style="fill:#555555;stroke:#555555;stroke-width:0.8;" x="68.4075" xlink:href="#mb2bf4eff19" y="117.817907"/>
      </g>
     </g>
     <g id="text_10">
      <!-- 0.0 -->
      <g style="fill:#555555;" transform="translate(38.39 123.817907)scale(0.16 -0.16)">
       <use xlink:href="#Roboto-Bold-48"/>
       <use x="57.373047" xlink:href="#Roboto-Bold-46"/>
       <use x="86.474609" xlink:href="#Roboto-Bold-48"/>
      </g>
     </g>
    </g>
    <g id="ytick_5">
     <g id="line2d_14">
      <path clip-path="url(#p815b3d78bb)" d="M 68.4075 75.074446 
L 333.0975 75.074446 
" style="fill:none;stroke:#eeeeee;stroke-linecap:square;stroke-width:0.8;"/>
     </g>
     <g id="line2d_15">
      <g>
       <use style="fill:#555555;stroke:#555555;stroke-width:0.8;" x="68.4075" xlink:href="#mb2bf4eff19" y="75.074446"/>
      </g>
     </g>
     <g id="text_11">
      <!-- 0.1 -->
      <g style="fill:#555555;" transform="translate(38.39 81.074446)scale(0.16 -0.16)">
       <use xlink:href="#Roboto-Bold-48"/>
       <use x="57.373047" xlink:href="#Roboto-Bold-46"/>
       <use x="86.474609" xlink:href="#Roboto-Bold-49"/>
      </g>
     </g>
    </g>
    <g id="ytick_6">
     <g id="line2d_16">
      <path clip-path="url(#p815b3d78bb)" d="M 68.4075 32.330985 
L 333.0975 32.330985 
" style="fill:none;stroke:#eeeeee;stroke-linecap:square;stroke-width:0.8;"/>
     </g>
     <g id="line2d_17">
      <g>
       <use style="fill:#555555;stroke:#555555;stroke-width:0.8;" x="68.4075" xlink:href="#mb2bf4eff19" y="32.330985"/>
      </g>
     </g>
     <g id="text_12">
      <!-- 0.2 -->
      <g style="fill:#555555;" transform="translate(38.39 38.330985)scale(0.16 -0.16)">
       <use xlink:href="#Roboto-Bold-48"/>
       <use x="57.373047" xlink:href="#Roboto-Bold-46"/>
       <use x="86.474609" xlink:href="#Roboto-Bold-50"/>
      </g>
     </g>
    </g>
    <g id="text_13">
     <!-- difference -->
     <g style="fill:#555555;" transform="translate(21.6 192.221)rotate(-90)scale(0.192 -0.192)">
      <defs>
       <path d="M 38.09375 0 
L 37.40625 5.609375 
Q 32.171875 -0.984375 23.875 -0.984375 
Q 14.0625 -0.984375 8.640625 6.640625 
Q 3.21875 14.265625 3.21875 25.78125 
L 3.21875 26.8125 
Q 3.21875 38.875 8.640625 46.34375 
Q 14.0625 53.8125 23.96875 53.8125 
Q 31.6875 53.8125 36.671875 48.09375 
L 36.671875 75 
L 50.828125 75 
L 50.828125 0 
z
M 17.390625 25.78125 
Q 17.390625 19.4375 19.625 14.96875 
Q 21.875 10.5 27.4375 10.5 
Q 33.890625 10.5 36.671875 15.96875 
L 36.671875 36.921875 
Q 33.984375 42.390625 27.546875 42.390625 
Q 22.015625 42.390625 19.703125 37.890625 
Q 17.390625 33.40625 17.390625 25.78125 
z
" id="Roboto-Bold-100"/>
       <path d="M 5.328125 66.5 
Q 5.328125 69.671875 7.46875 71.75 
Q 9.625 73.828125 13.234375 73.828125 
Q 16.84375 73.828125 18.984375 71.75 
Q 21.140625 69.671875 21.140625 66.5 
Q 21.140625 63.375 18.984375 61.296875 
Q 16.84375 59.234375 13.234375 59.234375 
Q 9.625 59.234375 7.46875 61.296875 
Q 5.328125 63.375 5.328125 66.5 
z
M 20.359375 52.828125 
L 20.359375 0 
L 6.203125 0 
L 6.203125 52.828125 
z
" id="Roboto-Bold-105"/>
       <path d="M 33.9375 42.53125 
L 23.4375 42.53125 
L 23.4375 0 
L 9.28125 0 
L 9.28125 42.53125 
L 1.421875 42.53125 
L 1.421875 52.828125 
L 9.28125 52.828125 
L 9.28125 57.421875 
Q 9.28125 66.453125 14.5 71.234375 
Q 19.734375 76.03125 28.65625 76.03125 
Q 32.078125 76.03125 35.890625 75.046875 
L 35.75 64.109375 
Q 33.890625 64.546875 31.390625 64.546875 
Q 23.578125 64.546875 23.4375 57.671875 
L 23.4375 52.828125 
L 33.9375 52.828125 
z
" id="Roboto-Bold-102"/>
       <path d="M 28.21875 42.390625 
Q 22.21875 42.390625 19.28125 37.3125 
L 19.28125 0 
L 5.171875 0 
L 5.171875 52.828125 
L 18.40625 52.828125 
L 18.890625 46.78125 
Q 24.5625 53.8125 34.078125 53.8125 
Q 41.546875 53.8125 46.140625 49.359375 
Q 50.734375 44.921875 50.78125 33.890625 
L 50.78125 0 
L 36.625 0 
L 36.625 33.6875 
Q 36.625 38.765625 34.453125 40.578125 
Q 32.28125 42.390625 28.21875 42.390625 
z
" id="Roboto-Bold-110"/>
       <path d="M 27.390625 10.40625 
Q 31.25 10.40625 33.734375 12.53125 
Q 36.234375 14.65625 36.28125 18.265625 
L 49.5625 18.265625 
Q 49.46875 9.859375 43.140625 4.4375 
Q 36.8125 -0.984375 27.640625 -0.984375 
Q 15.375 -0.984375 9.296875 6.75 
Q 3.21875 14.5 3.21875 25.734375 
L 3.21875 27.09375 
Q 3.21875 38.28125 9.265625 46.046875 
Q 15.328125 53.8125 27.59375 53.8125 
Q 37.3125 53.8125 43.390625 48.234375 
Q 49.46875 42.671875 49.5625 33.15625 
L 36.28125 33.15625 
Q 36.234375 37.015625 33.9375 39.71875 
Q 31.640625 42.4375 27.34375 42.4375 
Q 21.1875 42.4375 19.28125 37.8125 
Q 17.390625 33.203125 17.390625 25.734375 
Q 17.390625 19.625 19.265625 15.015625 
Q 21.140625 10.40625 27.390625 10.40625 
z
" id="Roboto-Bold-99"/>
      </defs>
      <use xlink:href="#Roboto-Bold-100"/>
      <use x="56.396484" xlink:href="#Roboto-Bold-105"/>
      <use x="82.910156" xlink:href="#Roboto-Bold-102"/>
      <use x="118.75" xlink:href="#Roboto-Bold-102"/>
      <use x="154.589844" xlink:href="#Roboto-Bold-101"/>
      <use x="208.642578" xlink:href="#Roboto-Bold-114"/>
      <use x="245.166016" xlink:href="#Roboto-Bold-101"/>
      <use x="299.21875" xlink:href="#Roboto-Bold-110"/>
      <use x="355.224609" xlink:href="#Roboto-Bold-99"/>
      <use x="407.421875" xlink:href="#Roboto-Bold-101"/>
     </g>
    </g>
   </g>
   <g id="patch_3">
    <path clip-path="url(#p815b3d78bb)" d="M 84.2889 113.415239 
L 105.4641 113.415239 
L 105.4641 92.911606 
L 84.2889 92.911606 
L 84.2889 113.415239 
z
" style="fill:#d3d3d3;stroke:#7f7f7f;stroke-linejoin:miter;stroke-width:1.5;"/>
   </g>
   <g id="patch_4">
    <path clip-path="url(#p815b3d78bb)" d="M 137.2269 163.200639 
L 158.4021 163.200639 
L 158.4021 107.049752 
L 137.2269 107.049752 
L 137.2269 163.200639 
z
" style="fill:#d3d3d3;stroke:#7f7f7f;stroke-linejoin:miter;stroke-width:1.5;"/>
   </g>
   <g id="patch_5">
    <path clip-path="url(#p815b3d78bb)" d="M 190.1649 96.509425 
L 211.3401 96.509425 
L 211.3401 45.326762 
L 190.1649 45.326762 
L 190.1649 96.509425 
z
" style="fill:#d3d3d3;stroke:#7f7f7f;stroke-linejoin:miter;stroke-width:1.5;"/>
   </g>
   <g id="patch_6">
    <path clip-path="url(#p815b3d78bb)" d="M 243.1029 148.497393 
L 264.2781 148.497393 
L 264.2781 93.714322 
L 243.1029 93.714322 
L 243.1029 148.497393 
z
" style="fill:#d3d3d3;stroke:#7f7f7f;stroke-linejoin:miter;stroke-width:1.5;"/>
   </g>
   <g id="patch_7">
    <path clip-path="url(#p815b3d78bb)" d="M 296.0409 117.969523 
L 317.2161 117.969523 
L 317.2161 50.735811 
L 296.0409 50.735811 
L 296.0409 117.969523 
z
" style="fill:#d3d3d3;stroke:#7f7f7f;stroke-linejoin:miter;stroke-width:1.5;"/>
   </g>
   <g id="line2d_18">
    <path clip-path="url(#p815b3d78bb)" d="M 68.4075 117.817907 
L 333.0975 117.817907 
" style="fill:none;stroke:#999999;stroke-linecap:square;stroke-width:1.5;"/>
   </g>
   <g id="line2d_19">
    <path clip-path="url(#p815b3d78bb)" d="M 94.8765 113.415239 
L 94.8765 115.25732 
" style="fill:none;stroke:#7f7f7f;stroke-linecap:square;stroke-width:1.5;"/>
   </g>
   <g id="line2d_20">
    <path clip-path="url(#p815b3d78bb)" d="M 94.8765 92.911606 
L 94.8765 85.288838 
" style="fill:none;stroke:#7f7f7f;stroke-linecap:square;stroke-width:1.5;"/>
   </g>
   <g id="line2d_21">
    <path clip-path="url(#p815b3d78bb)" d="M 89.5827 115.25732 
L 100.1703 115.25732 
" style="fill:none;stroke:#7f7f7f;stroke-linecap:square;stroke-width:1.5;"/>
   </g>
   <g id="line2d_22">
    <path clip-path="url(#p815b3d78bb)" d="M 89.5827 85.288838 
L 100.1703 85.288838 
" style="fill:none;stroke:#7f7f7f;stroke-linecap:square;stroke-width:1.5;"/>
   </g>
   <g id="line2d_23">
    <defs>
     <path d="M -0 5.656854 
L 3.394113 0 
L 0 -5.656854 
L -3.394113 -0 
z
" id="mf92342b60a" style="stroke:#7f7f7f;stroke-linejoin:miter;"/>
    </defs>
    <g clip-path="url(#p815b3d78bb)">
     <use style="fill:#7f7f7f;stroke:#7f7f7f;stroke-linejoin:miter;" x="94.8765" xlink:href="#mf92342b60a" y="190.232659"/>
     <use style="fill:#7f7f7f;stroke:#7f7f7f;stroke-linejoin:miter;" x="94.8765" xlink:href="#mf92342b60a" y="19.992727"/>
    </g>
   </g>
   <g id="line2d_24">
    <path clip-path="url(#p815b3d78bb)" d="M 147.8145 163.200639 
L 147.8145 201.208487 
" style="fill:none;stroke:#7f7f7f;stroke-linecap:square;stroke-width:1.5;"/>
   </g>
   <g id="line2d_25">
    <path clip-path="url(#p815b3d78bb)" d="M 147.8145 107.049752 
L 147.8145 39.687176 
" style="fill:none;stroke:#7f7f7f;stroke-linecap:square;stroke-width:1.5;"/>
   </g>
   <g id="line2d_26">
    <path clip-path="url(#p815b3d78bb)" d="M 142.5207 201.208487 
L 153.1083 201.208487 
" style="fill:none;stroke:#7f7f7f;stroke-linecap:square;stroke-width:1.5;"/>
   </g>
   <g id="line2d_27">
    <path clip-path="url(#p815b3d78bb)" d="M 142.5207 39.687176 
L 153.1083 39.687176 
" style="fill:none;stroke:#7f7f7f;stroke-linecap:square;stroke-width:1.5;"/>
   </g>
   <g id="line2d_28"/>
   <g id="line2d_29">
    <path clip-path="url(#p815b3d78bb)" d="M 200.7525 96.509425 
L 200.7525 155.669121 
" style="fill:none;stroke:#7f7f7f;stroke-linecap:square;stroke-width:1.5;"/>
   </g>
   <g id="line2d_30">
    <path clip-path="url(#p815b3d78bb)" d="M 200.7525 45.326762 
L 200.7525 25.437634 
" style="fill:none;stroke:#7f7f7f;stroke-linecap:square;stroke-width:1.5;"/>
   </g>
   <g id="line2d_31">
    <path clip-path="url(#p815b3d78bb)" d="M 195.4587 155.669121 
L 206.0463 155.669121 
" style="fill:none;stroke:#7f7f7f;stroke-linecap:square;stroke-width:1.5;"/>
   </g>
   <g id="line2d_32">
    <path clip-path="url(#p815b3d78bb)" d="M 195.4587 25.437634 
L 206.0463 25.437634 
" style="fill:none;stroke:#7f7f7f;stroke-linecap:square;stroke-width:1.5;"/>
   </g>
   <g id="line2d_33"/>
   <g id="line2d_34">
    <path clip-path="url(#p815b3d78bb)" d="M 253.6905 148.497393 
L 253.6905 195.75394 
" style="fill:none;stroke:#7f7f7f;stroke-linecap:square;stroke-width:1.5;"/>
   </g>
   <g id="line2d_35">
    <path clip-path="url(#p815b3d78bb)" d="M 253.6905 93.714322 
L 253.6905 91.507867 
" style="fill:none;stroke:#7f7f7f;stroke-linecap:square;stroke-width:1.5;"/>
   </g>
   <g id="line2d_36">
    <path clip-path="url(#p815b3d78bb)" d="M 248.3967 195.75394 
L 258.9843 195.75394 
" style="fill:none;stroke:#7f7f7f;stroke-linecap:square;stroke-width:1.5;"/>
   </g>
   <g id="line2d_37">
    <path clip-path="url(#p815b3d78bb)" d="M 248.3967 91.507867 
L 258.9843 91.507867 
" style="fill:none;stroke:#7f7f7f;stroke-linecap:square;stroke-width:1.5;"/>
   </g>
   <g id="line2d_38">
    <g clip-path="url(#p815b3d78bb)">
     <use style="fill:#7f7f7f;stroke:#7f7f7f;stroke-linejoin:miter;" x="253.6905" xlink:href="#mf92342b60a" y="275.847273"/>
    </g>
   </g>
   <g id="line2d_39">
    <path clip-path="url(#p815b3d78bb)" d="M 306.6285 117.969523 
L 306.6285 175.647855 
" style="fill:none;stroke:#7f7f7f;stroke-linecap:square;stroke-width:1.5;"/>
   </g>
   <g id="line2d_40">
    <path clip-path="url(#p815b3d78bb)" d="M 306.6285 50.735811 
L 306.6285 26.570004 
" style="fill:none;stroke:#7f7f7f;stroke-linecap:square;stroke-width:1.5;"/>
   </g>
   <g id="line2d_41">
    <path clip-path="url(#p815b3d78bb)" d="M 301.3347 175.647855 
L 311.9223 175.647855 
" style="fill:none;stroke:#7f7f7f;stroke-linecap:square;stroke-width:1.5;"/>
   </g>
   <g id="line2d_42">
    <path clip-path="url(#p815b3d78bb)" d="M 301.3347 26.570004 
L 311.9223 26.570004 
" style="fill:none;stroke:#7f7f7f;stroke-linecap:square;stroke-width:1.5;"/>
   </g>
   <g id="line2d_43"/>
   <g id="line2d_44">
    <path clip-path="url(#p815b3d78bb)" d="M 84.2889 108.911403 
L 105.4641 108.911403 
" style="fill:none;stroke:#7f7f7f;stroke-linecap:square;stroke-width:1.5;"/>
   </g>
   <g id="line2d_45">
    <path clip-path="url(#p815b3d78bb)" d="M 137.2269 126.777134 
L 158.4021 126.777134 
" style="fill:none;stroke:#7f7f7f;stroke-linecap:square;stroke-width:1.5;"/>
   </g>
   <g id="line2d_46">
    <path clip-path="url(#p815b3d78bb)" d="M 190.1649 73.400528 
L 211.3401 73.400528 
" style="fill:none;stroke:#7f7f7f;stroke-linecap:square;stroke-width:1.5;"/>
   </g>
   <g id="line2d_47">
    <path clip-path="url(#p815b3d78bb)" d="M 243.1029 96.52712 
L 264.2781 96.52712 
" style="fill:none;stroke:#7f7f7f;stroke-linecap:square;stroke-width:1.5;"/>
   </g>
   <g id="line2d_48">
    <path clip-path="url(#p815b3d78bb)" d="M 296.0409 95.918324 
L 317.2161 95.918324 
" style="fill:none;stroke:#7f7f7f;stroke-linecap:square;stroke-width:1.5;"/>
   </g>
   <g id="patch_8">
    <path d="M 68.4075 288.64 
L 68.4075 7.2 
" style="fill:none;stroke:#555555;stroke-linecap:square;stroke-linejoin:miter;"/>
   </g>
   <g id="patch_9">
    <path d="M 68.4075 288.64 
L 333.0975 288.64 
" style="fill:none;stroke:#555555;stroke-linecap:square;stroke-linejoin:miter;"/>
   </g>
   <g id="PathCollection_1">
    <defs>
     <path d="M 0 3 
C 0.795609 3 1.55874 2.683901 2.12132 2.12132 
C 2.683901 1.55874 3 0.795609 3 -0 
C 3 -0.795609 2.683901 -1.55874 2.12132 -2.12132 
C 1.55874 -2.683901 0.795609 -3 0 -3 
C -0.795609 -3 -1.55874 -2.683901 -2.12132 -2.12132 
C -2.683901 -1.55874 -3 -0.795609 -3 0 
C -3 0.795609 -2.683901 1.55874 -2.12132 2.12132 
C -1.55874 2.683901 -0.795609 3 0 3 
z
" id="C0_0_3cec223cf4"/>
    </defs>
    <g clip-path="url(#p815b3d78bb)">
     <use style="fill:#333333;" x="94.8765" xlink:href="#C0_0_3cec223cf4" y="190.232659"/>
    </g>
    <g clip-path="url(#p815b3d78bb)">
     <use style="fill:#333333;" x="94.8765" xlink:href="#C0_0_3cec223cf4" y="115.25732"/>
    </g>
    <g clip-path="url(#p815b3d78bb)">
     <use style="fill:#333333;" x="89.190726" xlink:href="#C0_0_3cec223cf4" y="113.415239"/>
    </g>
    <g clip-path="url(#p815b3d78bb)">
     <use style="fill:#333333;" x="98.119632" xlink:href="#C0_0_3cec223cf4" y="110.238113"/>
    </g>
    <g clip-path="url(#p815b3d78bb)">
     <use style="fill:#333333;" x="103.94732" xlink:href="#C0_0_3cec223cf4" y="108.911403"/>
    </g>
    <g clip-path="url(#p815b3d78bb)">
     <use style="fill:#333333;" x="94.8765" xlink:href="#C0_0_3cec223cf4" y="103.868543"/>
    </g>
    <g clip-path="url(#p815b3d78bb)">
     <use style="fill:#333333;" x="94.8765" xlink:href="#C0_0_3cec223cf4" y="92.911606"/>
    </g>
    <g clip-path="url(#p815b3d78bb)">
     <use style="fill:#333333;" x="94.8765" xlink:href="#C0_0_3cec223cf4" y="85.288838"/>
    </g>
    <g clip-path="url(#p815b3d78bb)">
     <use style="fill:#333333;" x="94.8765" xlink:href="#C0_0_3cec223cf4" y="19.992727"/>
    </g>
   </g>
   <g id="PathCollection_2">
    <defs>
     <path d="M 0 3 
C 0.795609 3 1.55874 2.683901 2.12132 2.12132 
C 2.683901 1.55874 3 0.795609 3 -0 
C 3 -0.795609 2.683901 -1.55874 2.12132 -2.12132 
C 1.55874 -2.683901 0.795609 -3 0 -3 
C -0.795609 -3 -1.55874 -2.683901 -2.12132 -2.12132 
C -2.683901 -1.55874 -3 -0.795609 -3 0 
C -3 0.795609 -2.683901 1.55874 -2.12132 2.12132 
C -1.55874 2.683901 -0.795609 3 0 3 
z
" id="C1_0_849871e614"/>
    </defs>
    <g clip-path="url(#p815b3d78bb)">
     <use style="fill:#333333;" x="147.8145" xlink:href="#C1_0_849871e614" y="201.208487"/>
    </g>
    <g clip-path="url(#p815b3d78bb)">
     <use style="fill:#333333;" x="147.8145" xlink:href="#C1_0_849871e614" y="173.689898"/>
    </g>
    <g clip-path="url(#p815b3d78bb)">
     <use style="fill:#333333;" x="147.8145" xlink:href="#C1_0_849871e614" y="163.200639"/>
    </g>
    <g clip-path="url(#p815b3d78bb)">
     <use style="fill:#333333;" x="147.8145" xlink:href="#C1_0_849871e614" y="145.805211"/>
    </g>
    <g clip-path="url(#p815b3d78bb)">
     <use style="fill:#333333;" x="147.8145" xlink:href="#C1_0_849871e614" y="126.777134"/>
    </g>
    <g clip-path="url(#p815b3d78bb)">
     <use style="fill:#333333;" x="147.8145" xlink:href="#C1_0_849871e614" y="107.344113"/>
    </g>
    <g clip-path="url(#p815b3d78bb)">
     <use style="fill:#333333;" x="153.784114" xlink:href="#C1_0_849871e614" y="107.049752"/>
    </g>
    <g clip-path="url(#p815b3d78bb)">
     <use style="fill:#333333;" x="147.8145" xlink:href="#C1_0_849871e614" y="53.258772"/>
    </g>
    <g clip-path="url(#p815b3d78bb)">
     <use style="fill:#333333;" x="147.8145" xlink:href="#C1_0_849871e614" y="39.687176"/>
    </g>
   </g>
   <g id="PathCollection_3">
    <defs>
     <path d="M 0 3 
C 0.795609 3 1.55874 2.683901 2.12132 2.12132 
C 2.683901 1.55874 3 0.795609 3 -0 
C 3 -0.795609 2.683901 -1.55874 2.12132 -2.12132 
C 1.55874 -2.683901 0.795609 -3 0 -3 
C -0.795609 -3 -1.55874 -2.683901 -2.12132 -2.12132 
C -2.683901 -1.55874 -3 -0.795609 -3 0 
C -3 0.795609 -2.683901 1.55874 -2.12132 2.12132 
C -1.55874 2.683901 -0.795609 3 0 3 
z
" id="C2_0_cd32b0cdd2"/>
    </defs>
    <g clip-path="url(#p815b3d78bb)">
     <use style="fill:#333333;" x="200.7525" xlink:href="#C2_0_cd32b0cdd2" y="155.669121"/>
    </g>
    <g clip-path="url(#p815b3d78bb)">
     <use style="fill:#333333;" x="200.7525" xlink:href="#C2_0_cd32b0cdd2" y="115.107771"/>
    </g>
    <g clip-path="url(#p815b3d78bb)">
     <use style="fill:#333333;" x="200.7525" xlink:href="#C2_0_cd32b0cdd2" y="90.309976"/>
    </g>
    <g clip-path="url(#p815b3d78bb)">
     <use style="fill:#333333;" x="200.7525" xlink:href="#C2_0_cd32b0cdd2" y="79.254307"/>
    </g>
    <g clip-path="url(#p815b3d78bb)">
     <use style="fill:#333333;" x="200.7525" xlink:href="#C2_0_cd32b0cdd2" y="67.546748"/>
    </g>
    <g clip-path="url(#p815b3d78bb)">
     <use style="fill:#333333;" x="200.7525" xlink:href="#C2_0_cd32b0cdd2" y="45.949057"/>
    </g>
    <g clip-path="url(#p815b3d78bb)">
     <use style="fill:#333333;" x="195.318914" xlink:href="#C2_0_cd32b0cdd2" y="43.459876"/>
    </g>
    <g clip-path="url(#p815b3d78bb)">
     <use style="fill:#333333;" x="200.7525" xlink:href="#C2_0_cd32b0cdd2" y="25.437634"/>
    </g>
   </g>
   <g id="PathCollection_4">
    <defs>
     <path d="M 0 3 
C 0.795609 3 1.55874 2.683901 2.12132 2.12132 
C 2.683901 1.55874 3 0.795609 3 -0 
C 3 -0.795609 2.683901 -1.55874 2.12132 -2.12132 
C 1.55874 -2.683901 0.795609 -3 0 -3 
C -0.795609 -3 -1.55874 -2.683901 -2.12132 -2.12132 
C -2.683901 -1.55874 -3 -0.795609 -3 0 
C -3 0.795609 -2.683901 1.55874 -2.12132 2.12132 
C -1.55874 2.683901 -0.795609 3 0 3 
z
" id="C3_0_0b446ed374"/>
    </defs>
    <g clip-path="url(#p815b3d78bb)">
     <use style="fill:#333333;" x="253.6905" xlink:href="#C3_0_0b446ed374" y="275.847273"/>
    </g>
    <g clip-path="url(#p815b3d78bb)">
     <use style="fill:#333333;" x="253.6905" xlink:href="#C3_0_0b446ed374" y="195.75394"/>
    </g>
    <g clip-path="url(#p815b3d78bb)">
     <use style="fill:#333333;" x="253.6905" xlink:href="#C3_0_0b446ed374" y="148.497393"/>
    </g>
    <g clip-path="url(#p815b3d78bb)">
     <use style="fill:#333333;" x="253.6905" xlink:href="#C3_0_0b446ed374" y="138.048264"/>
    </g>
    <g clip-path="url(#p815b3d78bb)">
     <use style="fill:#333333;" x="253.6905" xlink:href="#C3_0_0b446ed374" y="96.52712"/>
    </g>
    <g clip-path="url(#p815b3d78bb)">
     <use style="fill:#333333;" x="247.91762" xlink:href="#C3_0_0b446ed374" y="94.979334"/>
    </g>
    <g clip-path="url(#p815b3d78bb)">
     <use style="fill:#333333;" x="258.963752" xlink:href="#C3_0_0b446ed374" y="93.714322"/>
    </g>
    <g clip-path="url(#p815b3d78bb)">
     <use style="fill:#333333;" x="242.703287" xlink:href="#C3_0_0b446ed374" y="92.058815"/>
    </g>
    <g clip-path="url(#p815b3d78bb)">
     <use style="fill:#333333;" x="264.518218" xlink:href="#C3_0_0b446ed374" y="91.507867"/>
    </g>
   </g>
   <g id="PathCollection_5">
    <defs>
     <path d="M 0 3 
C 0.795609 3 1.55874 2.683901 2.12132 2.12132 
C 2.683901 1.55874 3 0.795609 3 -0 
C 3 -0.795609 2.683901 -1.55874 2.12132 -2.12132 
C 1.55874 -2.683901 0.795609 -3 0 -3 
C -0.795609 -3 -1.55874 -2.683901 -2.12132 -2.12132 
C -2.683901 -1.55874 -3 -0.795609 -3 0 
C -3 0.795609 -2.683901 1.55874 -2.12132 2.12132 
C -1.55874 2.683901 -0.795609 3 0 3 
z
" id="C4_0_a47dbf29b9"/>
    </defs>
    <g clip-path="url(#p815b3d78bb)">
     <use style="fill:#333333;" x="306.6285" xlink:href="#C4_0_a47dbf29b9" y="175.647855"/>
    </g>
    <g clip-path="url(#p815b3d78bb)">
     <use style="fill:#333333;" x="306.6285" xlink:href="#C4_0_a47dbf29b9" y="146.546366"/>
    </g>
    <g clip-path="url(#p815b3d78bb)">
     <use style="fill:#333333;" x="306.6285" xlink:href="#C4_0_a47dbf29b9" y="117.969523"/>
    </g>
    <g clip-path="url(#p815b3d78bb)">
     <use style="fill:#333333;" x="306.6285" xlink:href="#C4_0_a47dbf29b9" y="108.711026"/>
    </g>
    <g clip-path="url(#p815b3d78bb)">
     <use style="fill:#333333;" x="306.6285" xlink:href="#C4_0_a47dbf29b9" y="95.918324"/>
    </g>
    <g clip-path="url(#p815b3d78bb)">
     <use style="fill:#333333;" x="306.6285" xlink:href="#C4_0_a47dbf29b9" y="62.190993"/>
    </g>
    <g clip-path="url(#p815b3d78bb)">
     <use style="fill:#333333;" x="306.6285" xlink:href="#C4_0_a47dbf29b9" y="50.735811"/>
    </g>
    <g clip-path="url(#p815b3d78bb)">
     <use style="fill:#333333;" x="306.6285" xlink:href="#C4_0_a47dbf29b9" y="36.568469"/>
    </g>
    <g clip-path="url(#p815b3d78bb)">
     <use style="fill:#333333;" x="306.6285" xlink:href="#C4_0_a47dbf29b9" y="26.570004"/>
    </g>
   </g>
  </g>
 </g>
 <defs>
  <clipPath id="p815b3d78bb">
   <rect height="281.44" width="264.69" x="68.4075" y="7.2"/>
  </clipPath>
 </defs>
</svg>
