<?xml version="1.0" encoding="utf-8" standalone="no"?>
<!DOCTYPE svg PUBLIC "-//W3C//DTD SVG 1.1//EN"
  "http://www.w3.org/Graphics/SVG/1.1/DTD/svg11.dtd">
<!-- Created with matplotlib (https://matplotlib.org/) -->
<svg height="340.588pt" version="1.1" viewBox="0 0 340.2975 340.588" width="340.2975pt" xmlns="http://www.w3.org/2000/svg" xmlns:xlink="http://www.w3.org/1999/xlink">
 <metadata>
  <rdf:RDF xmlns:cc="http://creativecommons.org/ns#" xmlns:dc="http://purl.org/dc/elements/1.1/" xmlns:rdf="http://www.w3.org/1999/02/22-rdf-syntax-ns#">
   <cc:Work>
    <dc:type rdf:resource="http://purl.org/dc/dcmitype/StillImage"/>
    <dc:date>2021-12-14T13:25:45.059298</dc:date>
    <dc:format>image/svg+xml</dc:format>
    <dc:creator>
     <cc:Agent>
      <dc:title>Matplotlib v3.3.4, https://matplotlib.org/</dc:title>
     </cc:Agent>
    </dc:creator>
   </cc:Work>
  </rdf:RDF>
 </metadata>
 <defs>
  <style type="text/css">*{stroke-linecap:butt;stroke-linejoin:round;}</style>
 </defs>
 <g id="figure_1">
  <g id="patch_1">
   <path d="M 0 340.588 
L 340.2975 340.588 
L 340.2975 0 
L 0 0 
z
" style="fill:none;"/>
  </g>
  <g id="axes_1">
   <g id="patch_2">
    <path d="M 68.4075 288.64 
L 333.0975 288.64 
L 333.0975 7.2 
L 68.4075 7.2 
z
" style="fill:#ffffff;"/>
   </g>
   <g id="matplotlib.axis_1">
    <g id="xtick_1">
     <g id="line2d_1">
      <defs>
       <path d="M 0 0 
L 0 3.5 
" id="m573835601f" style="stroke:#555555;stroke-width:0.8;"/>
      </defs>
      <g>
       <use style="fill:#555555;stroke:#555555;stroke-width:0.8;" x="112.5225" xlink:href="#m573835601f" y="288.64"/>
      </g>
     </g>
     <g id="text_1">
      <!-- L2/3 -->
      <g style="fill:#555555;" transform="translate(96.0175 307.64)scale(0.16 -0.16)">
       <defs>
        <path d="M 52.09375 11.8125 
L 52.09375 0 
L 6.34375 0 
L 6.34375 71.09375 
L 21.046875 71.09375 
L 21.046875 11.8125 
z
" id="Roboto-Bold-76"/>
        <path d="M 53.5625 11.375 
L 53.5625 0 
L 4.890625 0 
L 4.890625 9.671875 
L 27.875 34.1875 
Q 33.0625 39.890625 35.078125 43.625 
Q 37.109375 47.359375 37.109375 50.53125 
Q 37.109375 55.28125 34.734375 58.015625 
Q 32.375 60.75 27.9375 60.75 
Q 22.90625 60.75 20.234375 57.328125 
Q 17.578125 53.90625 17.578125 48.734375 
L 3.46875 48.734375 
Q 3.46875 58.34375 10.078125 65.234375 
Q 16.703125 72.125 28.171875 72.125 
Q 39.359375 72.125 45.3125 66.71875 
Q 51.265625 61.328125 51.265625 51.953125 
Q 51.265625 44.921875 47.09375 38.59375 
Q 42.921875 32.28125 35.6875 24.703125 
L 23 11.375 
z
" id="Roboto-Bold-50"/>
        <path d="M 36.03125 71.09375 
L 9.859375 -6.109375 
L -0.640625 -6.109375 
L 25.53125 71.09375 
z
" id="Roboto-Bold-47"/>
        <path d="M 19.234375 30.765625 
L 19.234375 41.84375 
L 26.765625 41.84375 
Q 32.078125 41.84375 34.6875 44.5 
Q 37.3125 47.171875 37.3125 51.65625 
Q 37.3125 55.609375 34.9375 58.171875 
Q 32.5625 60.75 27.6875 60.75 
Q 23.828125 60.75 20.96875 58.59375 
Q 18.109375 56.453125 18.109375 52.6875 
L 4 52.6875 
Q 4 61.46875 10.78125 66.796875 
Q 17.578125 72.125 27.296875 72.125 
Q 38.09375 72.125 44.75 66.96875 
Q 51.421875 61.8125 51.421875 51.859375 
Q 51.421875 47.265625 48.578125 43.09375 
Q 45.75 38.921875 40.578125 36.53125 
Q 46.53125 34.421875 49.5 30.09375 
Q 52.484375 25.78125 52.484375 19.96875 
Q 52.484375 9.96875 45.28125 4.484375 
Q 38.09375 -0.984375 27.296875 -0.984375 
Q 21.296875 -0.984375 15.75 1.21875 
Q 10.203125 3.421875 6.65625 7.9375 
Q 3.125 12.453125 3.125 19.484375 
L 17.28125 19.484375 
Q 17.28125 15.53125 20.234375 12.96875 
Q 23.1875 10.40625 27.6875 10.40625 
Q 32.71875 10.40625 35.546875 13.078125 
Q 38.375 15.765625 38.375 20.171875 
Q 38.375 30.765625 26.65625 30.765625 
z
" id="Roboto-Bold-51"/>
       </defs>
       <use xlink:href="#Roboto-Bold-76"/>
       <use x="54.150391" xlink:href="#Roboto-Bold-50"/>
       <use x="111.523438" xlink:href="#Roboto-Bold-47"/>
       <use x="148.925781" xlink:href="#Roboto-Bold-51"/>
      </g>
     </g>
    </g>
    <g id="xtick_2">
     <g id="line2d_2">
      <g>
       <use style="fill:#555555;stroke:#555555;stroke-width:0.8;" x="200.7525" xlink:href="#m573835601f" y="288.64"/>
      </g>
     </g>
     <g id="text_2">
      <!-- L4 -->
      <g style="fill:#555555;" transform="translate(191.83 307.64)scale(0.16 -0.16)">
       <defs>
        <path d="M 2.734375 24.265625 
L 32.375 71.09375 
L 46.625 71.09375 
L 46.625 26.765625 
L 54.6875 26.765625 
L 54.6875 15.375 
L 46.625 15.375 
L 46.625 0 
L 32.515625 0 
L 32.515625 15.375 
L 3.375 15.375 
z
M 16.75 26.765625 
L 32.515625 26.765625 
L 32.515625 52 
L 31.546875 50.296875 
z
" id="Roboto-Bold-52"/>
       </defs>
       <use xlink:href="#Roboto-Bold-76"/>
       <use x="54.150391" xlink:href="#Roboto-Bold-52"/>
      </g>
     </g>
    </g>
    <g id="xtick_3">
     <g id="line2d_3">
      <g>
       <use style="fill:#555555;stroke:#555555;stroke-width:0.8;" x="288.9825" xlink:href="#m573835601f" y="288.64"/>
      </g>
     </g>
     <g id="text_3">
      <!-- L5 -->
      <g style="fill:#555555;" transform="translate(280.06 307.64)scale(0.16 -0.16)">
       <defs>
        <path d="M 18.21875 32.234375 
L 6.984375 34.96875 
L 11.03125 71.09375 
L 50.875 71.09375 
L 50.875 59.375 
L 22.65625 59.375 
L 20.90625 44.046875 
Q 25.78125 46.734375 31.546875 46.734375 
Q 41.890625 46.734375 47.546875 40.421875 
Q 53.21875 34.125 53.21875 22.859375 
Q 53.21875 13.375 47.359375 6.1875 
Q 41.5 -0.984375 29.25 -0.984375 
Q 20.015625 -0.984375 12.71875 4.484375 
Q 5.421875 9.96875 5.171875 19.828125 
L 19.140625 19.828125 
Q 20.0625 10.40625 29.15625 10.40625 
Q 34.46875 10.40625 36.78125 14.234375 
Q 39.109375 18.0625 39.109375 23.640625 
Q 39.109375 29.25 36.328125 32.6875 
Q 33.546875 36.140625 27.6875 36.140625 
Q 23.828125 36.140625 21.71875 34.890625 
Q 19.625 33.640625 18.21875 32.234375 
z
" id="Roboto-Bold-53"/>
       </defs>
       <use xlink:href="#Roboto-Bold-76"/>
       <use x="54.150391" xlink:href="#Roboto-Bold-53"/>
      </g>
     </g>
    </g>
    <g id="text_4">
     <!-- layer -->
     <g style="fill:#555555;" transform="translate(179.541 329.29)scale(0.192 -0.192)">
      <defs>
       <path d="M 20.359375 75 
L 20.359375 0 
L 6.203125 0 
L 6.203125 75 
z
" id="Roboto-Bold-108"/>
       <path d="M 36.03125 0 
Q 35.15625 1.859375 34.625 4.734375 
Q 29.5 -0.984375 21.296875 -0.984375 
Q 13.71875 -0.984375 8.546875 3.484375 
Q 3.375 7.953125 3.375 14.84375 
Q 3.375 23.140625 9.515625 27.703125 
Q 15.671875 32.28125 27.734375 32.28125 
L 34.03125 32.28125 
L 34.03125 35.359375 
Q 34.03125 39.015625 32.15625 41.1875 
Q 30.28125 43.359375 26.21875 43.359375 
Q 18.65625 43.359375 18.65625 37.015625 
L 4.546875 37.015625 
Q 4.546875 43.890625 10.640625 48.84375 
Q 16.75 53.8125 27 53.8125 
Q 36.140625 53.8125 42.15625 49.171875 
Q 48.1875 44.53125 48.1875 35.25 
L 48.1875 11.71875 
Q 48.296875 4.6875 50.296875 0.828125 
L 50.296875 0 
z
M 24.359375 9.8125 
Q 27.9375 9.8125 30.4375 11.390625 
Q 32.953125 12.984375 34.03125 14.890625 
L 34.03125 24.078125 
L 28.265625 24.078125 
Q 22.65625 24.078125 20.0625 21.703125 
Q 17.484375 19.34375 17.484375 15.875 
Q 17.484375 13.234375 19.3125 11.515625 
Q 21.140625 9.8125 24.359375 9.8125 
z
" id="Roboto-Bold-97"/>
       <path d="M 12.015625 -21.34375 
Q 9.28125 -21.34375 5.765625 -20.40625 
L 5.765625 -9.71875 
L 7.953125 -9.765625 
Q 12.109375 -9.765625 14.109375 -8.421875 
Q 16.109375 -7.078125 17.140625 -4.15625 
L 18.703125 -0.09375 
L 0.203125 52.828125 
L 15.375 52.828125 
L 25.203125 19.921875 
L 34.96875 52.828125 
L 50.046875 52.828125 
L 28.90625 -7.90625 
Q 27.984375 -10.546875 26.171875 -13.6875 
Q 24.359375 -16.84375 20.96875 -19.09375 
Q 17.578125 -21.34375 12.015625 -21.34375 
z
" id="Roboto-Bold-121"/>
       <path d="M 50.390625 8.59375 
Q 47.859375 4.984375 42.671875 2 
Q 37.5 -0.984375 29.78125 -0.984375 
Q 17.484375 -0.984375 10.546875 6.46875 
Q 3.609375 13.921875 3.5625 24.46875 
L 3.5625 26.515625 
Q 3.5625 38.484375 10.21875 46.140625 
Q 16.890625 53.8125 28.21875 53.8125 
Q 39.59375 53.8125 45.546875 46.671875 
Q 51.515625 39.546875 51.515625 27.828125 
L 51.515625 21.828125 
L 17.875 21.828125 
Q 18.609375 16.703125 21.921875 13.546875 
Q 25.25 10.40625 30.671875 10.40625 
Q 38.71875 10.40625 43.40625 16.3125 
z
M 28.125 42.4375 
Q 23.640625 42.4375 21.1875 39.40625 
Q 18.75 36.375 18.015625 31.5 
L 37.640625 31.5 
L 37.640625 32.5625 
Q 37.546875 36.8125 35.28125 39.625 
Q 33.015625 42.4375 28.125 42.4375 
z
" id="Roboto-Bold-101"/>
       <path d="M 30.03125 40.046875 
Q 22.078125 40.046875 19.578125 34.625 
L 19.578125 0 
L 5.421875 0 
L 5.421875 52.828125 
L 18.75 52.828125 
L 19.1875 46.53125 
Q 23.34375 53.8125 30.953125 53.8125 
Q 33.640625 53.8125 35.296875 53.171875 
L 35.15625 39.65625 
z
" id="Roboto-Bold-114"/>
      </defs>
      <use xlink:href="#Roboto-Bold-108"/>
      <use x="26.513672" xlink:href="#Roboto-Bold-97"/>
      <use x="80.126953" xlink:href="#Roboto-Bold-121"/>
      <use x="130.371094" xlink:href="#Roboto-Bold-101"/>
      <use x="184.423828" xlink:href="#Roboto-Bold-114"/>
     </g>
    </g>
   </g>
   <g id="matplotlib.axis_2">
    <g id="ytick_1">
     <g id="line2d_4">
      <path clip-path="url(#p6d70a22c71)" d="M 68.4075 262.137031 
L 333.0975 262.137031 
" style="fill:none;stroke:#eeeeee;stroke-linecap:square;stroke-width:0.8;"/>
     </g>
     <g id="line2d_5">
      <defs>
       <path d="M 0 0 
L -3.5 0 
" id="mc320e6c928" style="stroke:#555555;stroke-width:0.8;"/>
      </defs>
      <g>
       <use style="fill:#555555;stroke:#555555;stroke-width:0.8;" x="68.4075" xlink:href="#mc320e6c928" y="262.137031"/>
      </g>
     </g>
     <g id="text_5">
      <!-- −0.4 -->
      <g style="fill:#555555;" transform="translate(29.5 268.137031)scale(0.16 -0.16)">
       <defs>
        <path d="M 49.359375 40.625 
L 49.359375 29.109375 
L 7.171875 29.109375 
L 7.171875 40.625 
z
" id="Roboto-Bold-8722"/>
        <path d="M 52.6875 29.4375 
Q 52.6875 13.375 46.09375 6.1875 
Q 39.5 -0.984375 28.75 -0.984375 
Q 18.015625 -0.984375 11.34375 6.1875 
Q 4.6875 13.375 4.6875 29.4375 
L 4.6875 41.796875 
Q 4.6875 57.8125 11.296875 64.9375 
Q 17.921875 72.078125 28.65625 72.078125 
Q 39.359375 72.078125 46 64.984375 
Q 52.640625 57.90625 52.6875 42.046875 
z
M 38.578125 43.75 
Q 38.578125 53.21875 35.984375 56.953125 
Q 33.40625 60.6875 28.65625 60.6875 
Q 24.03125 60.6875 21.4375 57.03125 
Q 18.84375 53.375 18.796875 44.140625 
L 18.796875 27.546875 
Q 18.796875 18.015625 21.40625 14.203125 
Q 24.03125 10.40625 28.765625 10.40625 
Q 33.40625 10.40625 35.96875 14.140625 
Q 38.53125 17.875 38.578125 27.15625 
z
" id="Roboto-Bold-48"/>
        <path d="M 6.15625 6.984375 
Q 6.15625 10.203125 8.328125 12.375 
Q 10.5 14.546875 14.15625 14.546875 
Q 17.828125 14.546875 19.96875 12.375 
Q 22.125 10.203125 22.125 6.984375 
Q 22.125 3.8125 19.96875 1.640625 
Q 17.828125 -0.53125 14.15625 -0.53125 
Q 10.5 -0.53125 8.328125 1.640625 
Q 6.15625 3.8125 6.15625 6.984375 
z
" id="Roboto-Bold-46"/>
       </defs>
       <use xlink:href="#Roboto-Bold-8722"/>
       <use x="55.566406" xlink:href="#Roboto-Bold-48"/>
       <use x="112.939453" xlink:href="#Roboto-Bold-46"/>
       <use x="142.041016" xlink:href="#Roboto-Bold-52"/>
      </g>
     </g>
    </g>
    <g id="ytick_2">
     <g id="line2d_6">
      <path clip-path="url(#p6d70a22c71)" d="M 68.4075 196.135602 
L 333.0975 196.135602 
" style="fill:none;stroke:#eeeeee;stroke-linecap:square;stroke-width:0.8;"/>
     </g>
     <g id="line2d_7">
      <g>
       <use style="fill:#555555;stroke:#555555;stroke-width:0.8;" x="68.4075" xlink:href="#mc320e6c928" y="196.135602"/>
      </g>
     </g>
     <g id="text_6">
      <!-- −0.2 -->
      <g style="fill:#555555;" transform="translate(29.5 202.135602)scale(0.16 -0.16)">
       <use xlink:href="#Roboto-Bold-8722"/>
       <use x="55.566406" xlink:href="#Roboto-Bold-48"/>
       <use x="112.939453" xlink:href="#Roboto-Bold-46"/>
       <use x="142.041016" xlink:href="#Roboto-Bold-50"/>
      </g>
     </g>
    </g>
    <g id="ytick_3">
     <g id="line2d_8">
      <path clip-path="url(#p6d70a22c71)" d="M 68.4075 130.134174 
L 333.0975 130.134174 
" style="fill:none;stroke:#eeeeee;stroke-linecap:square;stroke-width:0.8;"/>
     </g>
     <g id="line2d_9">
      <g>
       <use style="fill:#555555;stroke:#555555;stroke-width:0.8;" x="68.4075" xlink:href="#mc320e6c928" y="130.134174"/>
      </g>
     </g>
     <g id="text_7">
      <!-- 0.0 -->
      <g style="fill:#555555;" transform="translate(38.39 136.134174)scale(0.16 -0.16)">
       <use xlink:href="#Roboto-Bold-48"/>
       <use x="57.373047" xlink:href="#Roboto-Bold-46"/>
       <use x="86.474609" xlink:href="#Roboto-Bold-48"/>
      </g>
     </g>
    </g>
    <g id="ytick_4">
     <g id="line2d_10">
      <path clip-path="url(#p6d70a22c71)" d="M 68.4075 64.132745 
L 333.0975 64.132745 
" style="fill:none;stroke:#eeeeee;stroke-linecap:square;stroke-width:0.8;"/>
     </g>
     <g id="line2d_11">
      <g>
       <use style="fill:#555555;stroke:#555555;stroke-width:0.8;" x="68.4075" xlink:href="#mc320e6c928" y="64.132745"/>
      </g>
     </g>
     <g id="text_8">
      <!-- 0.2 -->
      <g style="fill:#555555;" transform="translate(38.39 70.132745)scale(0.16 -0.16)">
       <use xlink:href="#Roboto-Bold-48"/>
       <use x="57.373047" xlink:href="#Roboto-Bold-46"/>
       <use x="86.474609" xlink:href="#Roboto-Bold-50"/>
      </g>
     </g>
    </g>
    <g id="text_9">
     <!-- difference -->
     <g style="fill:#555555;" transform="translate(21.6 192.221)rotate(-90)scale(0.192 -0.192)">
      <defs>
       <path d="M 38.09375 0 
L 37.40625 5.609375 
Q 32.171875 -0.984375 23.875 -0.984375 
Q 14.0625 -0.984375 8.640625 6.640625 
Q 3.21875 14.265625 3.21875 25.78125 
L 3.21875 26.8125 
Q 3.21875 38.875 8.640625 46.34375 
Q 14.0625 53.8125 23.96875 53.8125 
Q 31.6875 53.8125 36.671875 48.09375 
L 36.671875 75 
L 50.828125 75 
L 50.828125 0 
z
M 17.390625 25.78125 
Q 17.390625 19.4375 19.625 14.96875 
Q 21.875 10.5 27.4375 10.5 
Q 33.890625 10.5 36.671875 15.96875 
L 36.671875 36.921875 
Q 33.984375 42.390625 27.546875 42.390625 
Q 22.015625 42.390625 19.703125 37.890625 
Q 17.390625 33.40625 17.390625 25.78125 
z
" id="Roboto-Bold-100"/>
       <path d="M 5.328125 66.5 
Q 5.328125 69.671875 7.46875 71.75 
Q 9.625 73.828125 13.234375 73.828125 
Q 16.84375 73.828125 18.984375 71.75 
Q 21.140625 69.671875 21.140625 66.5 
Q 21.140625 63.375 18.984375 61.296875 
Q 16.84375 59.234375 13.234375 59.234375 
Q 9.625 59.234375 7.46875 61.296875 
Q 5.328125 63.375 5.328125 66.5 
z
M 20.359375 52.828125 
L 20.359375 0 
L 6.203125 0 
L 6.203125 52.828125 
z
" id="Roboto-Bold-105"/>
       <path d="M 33.9375 42.53125 
L 23.4375 42.53125 
L 23.4375 0 
L 9.28125 0 
L 9.28125 42.53125 
L 1.421875 42.53125 
L 1.421875 52.828125 
L 9.28125 52.828125 
L 9.28125 57.421875 
Q 9.28125 66.453125 14.5 71.234375 
Q 19.734375 76.03125 28.65625 76.03125 
Q 32.078125 76.03125 35.890625 75.046875 
L 35.75 64.109375 
Q 33.890625 64.546875 31.390625 64.546875 
Q 23.578125 64.546875 23.4375 57.671875 
L 23.4375 52.828125 
L 33.9375 52.828125 
z
" id="Roboto-Bold-102"/>
       <path d="M 28.21875 42.390625 
Q 22.21875 42.390625 19.28125 37.3125 
L 19.28125 0 
L 5.171875 0 
L 5.171875 52.828125 
L 18.40625 52.828125 
L 18.890625 46.78125 
Q 24.5625 53.8125 34.078125 53.8125 
Q 41.546875 53.8125 46.140625 49.359375 
Q 50.734375 44.921875 50.78125 33.890625 
L 50.78125 0 
L 36.625 0 
L 36.625 33.6875 
Q 36.625 38.765625 34.453125 40.578125 
Q 32.28125 42.390625 28.21875 42.390625 
z
" id="Roboto-Bold-110"/>
       <path d="M 27.390625 10.40625 
Q 31.25 10.40625 33.734375 12.53125 
Q 36.234375 14.65625 36.28125 18.265625 
L 49.5625 18.265625 
Q 49.46875 9.859375 43.140625 4.4375 
Q 36.8125 -0.984375 27.640625 -0.984375 
Q 15.375 -0.984375 9.296875 6.75 
Q 3.21875 14.5 3.21875 25.734375 
L 3.21875 27.09375 
Q 3.21875 38.28125 9.265625 46.046875 
Q 15.328125 53.8125 27.59375 53.8125 
Q 37.3125 53.8125 43.390625 48.234375 
Q 49.46875 42.671875 49.5625 33.15625 
L 36.28125 33.15625 
Q 36.234375 37.015625 33.9375 39.71875 
Q 31.640625 42.4375 27.34375 42.4375 
Q 21.1875 42.4375 19.28125 37.8125 
Q 17.390625 33.203125 17.390625 25.734375 
Q 17.390625 19.625 19.265625 15.015625 
Q 21.140625 10.40625 27.390625 10.40625 
z
" id="Roboto-Bold-99"/>
      </defs>
      <use xlink:href="#Roboto-Bold-100"/>
      <use x="56.396484" xlink:href="#Roboto-Bold-105"/>
      <use x="82.910156" xlink:href="#Roboto-Bold-102"/>
      <use x="118.75" xlink:href="#Roboto-Bold-102"/>
      <use x="154.589844" xlink:href="#Roboto-Bold-101"/>
      <use x="208.642578" xlink:href="#Roboto-Bold-114"/>
      <use x="245.166016" xlink:href="#Roboto-Bold-101"/>
      <use x="299.21875" xlink:href="#Roboto-Bold-110"/>
      <use x="355.224609" xlink:href="#Roboto-Bold-99"/>
      <use x="407.421875" xlink:href="#Roboto-Bold-101"/>
     </g>
    </g>
   </g>
   <g id="patch_3">
    <path clip-path="url(#p6d70a22c71)" d="M 94.8765 109.983069 
L 130.1685 109.983069 
L 130.1685 49.489835 
L 94.8765 49.489835 
L 94.8765 109.983069 
z
" style="fill:#d3d3d3;stroke:#7f7f7f;stroke-linejoin:miter;stroke-width:1.5;"/>
   </g>
   <g id="patch_4">
    <path clip-path="url(#p6d70a22c71)" d="M 183.1065 154.805091 
L 218.3985 154.805091 
L 218.3985 112.514285 
L 183.1065 112.514285 
L 183.1065 154.805091 
z
" style="fill:#d3d3d3;stroke:#7f7f7f;stroke-linejoin:miter;stroke-width:1.5;"/>
   </g>
   <g id="patch_5">
    <path clip-path="url(#p6d70a22c71)" d="M 271.3365 158.00763 
L 306.6285 158.00763 
L 306.6285 115.374775 
L 271.3365 115.374775 
L 271.3365 158.00763 
z
" style="fill:#d3d3d3;stroke:#7f7f7f;stroke-linejoin:miter;stroke-width:1.5;"/>
   </g>
   <g id="line2d_12">
    <path clip-path="url(#p6d70a22c71)" d="M 68.4075 130.134174 
L 333.0975 130.134174 
" style="fill:none;stroke:#999999;stroke-linecap:square;stroke-width:1.5;"/>
   </g>
   <g id="line2d_13">
    <path clip-path="url(#p6d70a22c71)" d="M 112.5225 109.983069 
L 112.5225 186.398024 
" style="fill:none;stroke:#7f7f7f;stroke-linecap:square;stroke-width:1.5;"/>
   </g>
   <g id="line2d_14">
    <path clip-path="url(#p6d70a22c71)" d="M 112.5225 49.489835 
L 112.5225 28.031427 
" style="fill:none;stroke:#7f7f7f;stroke-linecap:square;stroke-width:1.5;"/>
   </g>
   <g id="line2d_15">
    <path clip-path="url(#p6d70a22c71)" d="M 103.6995 186.398024 
L 121.3455 186.398024 
" style="fill:none;stroke:#7f7f7f;stroke-linecap:square;stroke-width:1.5;"/>
   </g>
   <g id="line2d_16">
    <path clip-path="url(#p6d70a22c71)" d="M 103.6995 28.031427 
L 121.3455 28.031427 
" style="fill:none;stroke:#7f7f7f;stroke-linecap:square;stroke-width:1.5;"/>
   </g>
   <g id="line2d_17">
    <defs>
     <path d="M -0 5.656854 
L 3.394113 0 
L 0 -5.656854 
L -3.394113 -0 
z
" id="m4ad8c511e2" style="stroke:#7f7f7f;stroke-linejoin:miter;"/>
    </defs>
    <g clip-path="url(#p6d70a22c71)">
     <use style="fill:#7f7f7f;stroke:#7f7f7f;stroke-linejoin:miter;" x="112.5225" xlink:href="#m4ad8c511e2" y="218.006276"/>
    </g>
   </g>
   <g id="line2d_18">
    <path clip-path="url(#p6d70a22c71)" d="M 200.7525 154.805091 
L 200.7525 215.010389 
" style="fill:none;stroke:#7f7f7f;stroke-linecap:square;stroke-width:1.5;"/>
   </g>
   <g id="line2d_19">
    <path clip-path="url(#p6d70a22c71)" d="M 200.7525 112.514285 
L 200.7525 61.306465 
" style="fill:none;stroke:#7f7f7f;stroke-linecap:square;stroke-width:1.5;"/>
   </g>
   <g id="line2d_20">
    <path clip-path="url(#p6d70a22c71)" d="M 191.9295 215.010389 
L 209.5755 215.010389 
" style="fill:none;stroke:#7f7f7f;stroke-linecap:square;stroke-width:1.5;"/>
   </g>
   <g id="line2d_21">
    <path clip-path="url(#p6d70a22c71)" d="M 191.9295 61.306465 
L 209.5755 61.306465 
" style="fill:none;stroke:#7f7f7f;stroke-linecap:square;stroke-width:1.5;"/>
   </g>
   <g id="line2d_22">
    <g clip-path="url(#p6d70a22c71)">
     <use style="fill:#7f7f7f;stroke:#7f7f7f;stroke-linejoin:miter;" x="200.7525" xlink:href="#m4ad8c511e2" y="19.992727"/>
    </g>
   </g>
   <g id="line2d_23">
    <path clip-path="url(#p6d70a22c71)" d="M 288.9825 158.00763 
L 288.9825 199.581392 
" style="fill:none;stroke:#7f7f7f;stroke-linecap:square;stroke-width:1.5;"/>
   </g>
   <g id="line2d_24">
    <path clip-path="url(#p6d70a22c71)" d="M 288.9825 115.374775 
L 288.9825 74.789172 
" style="fill:none;stroke:#7f7f7f;stroke-linecap:square;stroke-width:1.5;"/>
   </g>
   <g id="line2d_25">
    <path clip-path="url(#p6d70a22c71)" d="M 280.1595 199.581392 
L 297.8055 199.581392 
" style="fill:none;stroke:#7f7f7f;stroke-linecap:square;stroke-width:1.5;"/>
   </g>
   <g id="line2d_26">
    <path clip-path="url(#p6d70a22c71)" d="M 280.1595 74.789172 
L 297.8055 74.789172 
" style="fill:none;stroke:#7f7f7f;stroke-linecap:square;stroke-width:1.5;"/>
   </g>
   <g id="line2d_27">
    <g clip-path="url(#p6d70a22c71)">
     <use style="fill:#7f7f7f;stroke:#7f7f7f;stroke-linejoin:miter;" x="288.9825" xlink:href="#m4ad8c511e2" y="275.847273"/>
    </g>
   </g>
   <g id="line2d_28">
    <path clip-path="url(#p6d70a22c71)" d="M 94.8765 78.112792 
L 130.1685 78.112792 
" style="fill:none;stroke:#7f7f7f;stroke-linecap:square;stroke-width:1.5;"/>
   </g>
   <g id="line2d_29">
    <path clip-path="url(#p6d70a22c71)" d="M 183.1065 131.091916 
L 218.3985 131.091916 
" style="fill:none;stroke:#7f7f7f;stroke-linecap:square;stroke-width:1.5;"/>
   </g>
   <g id="line2d_30">
    <path clip-path="url(#p6d70a22c71)" d="M 271.3365 126.252225 
L 306.6285 126.252225 
" style="fill:none;stroke:#7f7f7f;stroke-linecap:square;stroke-width:1.5;"/>
   </g>
   <g id="patch_6">
    <path d="M 68.4075 288.64 
L 68.4075 7.2 
" style="fill:none;stroke:#555555;stroke-linecap:square;stroke-linejoin:miter;"/>
   </g>
   <g id="patch_7">
    <path d="M 68.4075 288.64 
L 333.0975 288.64 
" style="fill:none;stroke:#555555;stroke-linecap:square;stroke-linejoin:miter;"/>
   </g>
   <g id="PathCollection_1">
    <defs>
     <path d="M 0 3 
C 0.795609 3 1.55874 2.683901 2.12132 2.12132 
C 2.683901 1.55874 3 0.795609 3 -0 
C 3 -0.795609 2.683901 -1.55874 2.12132 -2.12132 
C 1.55874 -2.683901 0.795609 -3 0 -3 
C -0.795609 -3 -1.55874 -2.683901 -2.12132 -2.12132 
C -2.683901 -1.55874 -3 -0.795609 -3 0 
C -3 0.795609 -2.683901 1.55874 -2.12132 2.12132 
C -1.55874 2.683901 -0.795609 3 0 3 
z
" id="C0_0_e9041d09b3"/>
    </defs>
    <g clip-path="url(#p6d70a22c71)">
     <use style="fill:#333333;" x="112.5225" xlink:href="#C0_0_e9041d09b3" y="218.006276"/>
    </g>
    <g clip-path="url(#p6d70a22c71)">
     <use style="fill:#333333;" x="112.5225" xlink:href="#C0_0_e9041d09b3" y="186.398024"/>
    </g>
    <g clip-path="url(#p6d70a22c71)">
     <use style="fill:#333333;" x="111.369714" xlink:href="#C0_0_e9041d09b3" y="180.53485"/>
    </g>
    <g clip-path="url(#p6d70a22c71)">
     <use style="fill:#333333;" x="112.5225" xlink:href="#C0_0_e9041d09b3" y="111.557301"/>
    </g>
    <g clip-path="url(#p6d70a22c71)">
     <use style="fill:#333333;" x="107.44262" xlink:href="#C0_0_e9041d09b3" y="108.408837"/>
    </g>
    <g clip-path="url(#p6d70a22c71)">
     <use style="fill:#333333;" x="112.5225" xlink:href="#C0_0_e9041d09b3" y="103.712773"/>
    </g>
    <g clip-path="url(#p6d70a22c71)">
     <use style="fill:#333333;" x="107.950877" xlink:href="#C0_0_e9041d09b3" y="99.863642"/>
    </g>
    <g clip-path="url(#p6d70a22c71)">
     <use style="fill:#333333;" x="112.5225" xlink:href="#C0_0_e9041d09b3" y="78.112792"/>
    </g>
    <g clip-path="url(#p6d70a22c71)">
     <use style="fill:#333333;" x="112.5225" xlink:href="#C0_0_e9041d09b3" y="62.995643"/>
    </g>
    <g clip-path="url(#p6d70a22c71)">
     <use style="fill:#333333;" x="112.5225" xlink:href="#C0_0_e9041d09b3" y="56.354622"/>
    </g>
    <g clip-path="url(#p6d70a22c71)">
     <use style="fill:#333333;" x="112.5225" xlink:href="#C0_0_e9041d09b3" y="49.514984"/>
    </g>
    <g clip-path="url(#p6d70a22c71)">
     <use style="fill:#333333;" x="106.545841" xlink:href="#C0_0_e9041d09b3" y="49.464686"/>
    </g>
    <g clip-path="url(#p6d70a22c71)">
     <use style="fill:#333333;" x="112.5225" xlink:href="#C0_0_e9041d09b3" y="29.962086"/>
    </g>
    <g clip-path="url(#p6d70a22c71)">
     <use style="fill:#333333;" x="106.74033" xlink:href="#C0_0_e9041d09b3" y="28.449359"/>
    </g>
    <g clip-path="url(#p6d70a22c71)">
     <use style="fill:#333333;" x="118.178795" xlink:href="#C0_0_e9041d09b3" y="28.031427"/>
    </g>
   </g>
   <g id="PathCollection_2">
    <defs>
     <path d="M 0 3 
C 0.795609 3 1.55874 2.683901 2.12132 2.12132 
C 2.683901 1.55874 3 0.795609 3 -0 
C 3 -0.795609 2.683901 -1.55874 2.12132 -2.12132 
C 1.55874 -2.683901 0.795609 -3 0 -3 
C -0.795609 -3 -1.55874 -2.683901 -2.12132 -2.12132 
C -2.683901 -1.55874 -3 -0.795609 -3 0 
C -3 0.795609 -2.683901 1.55874 -2.12132 2.12132 
C -1.55874 2.683901 -0.795609 3 0 3 
z
" id="C1_0_ce84e746f4"/>
    </defs>
    <g clip-path="url(#p6d70a22c71)">
     <use style="fill:#333333;" x="200.7525" xlink:href="#C1_0_ce84e746f4" y="215.010389"/>
    </g>
    <g clip-path="url(#p6d70a22c71)">
     <use style="fill:#333333;" x="200.7525" xlink:href="#C1_0_ce84e746f4" y="174.534711"/>
    </g>
    <g clip-path="url(#p6d70a22c71)">
     <use style="fill:#333333;" x="200.7525" xlink:href="#C1_0_ce84e746f4" y="163.812964"/>
    </g>
    <g clip-path="url(#p6d70a22c71)">
     <use style="fill:#333333;" x="200.7525" xlink:href="#C1_0_ce84e746f4" y="155.538175"/>
    </g>
    <g clip-path="url(#p6d70a22c71)">
     <use style="fill:#333333;" x="194.958342" xlink:href="#C1_0_ce84e746f4" y="154.072008"/>
    </g>
    <g clip-path="url(#p6d70a22c71)">
     <use style="fill:#333333;" x="206.287935" xlink:href="#C1_0_ce84e746f4" y="153.284424"/>
    </g>
    <g clip-path="url(#p6d70a22c71)">
     <use style="fill:#333333;" x="200.7525" xlink:href="#C1_0_ce84e746f4" y="140.520515"/>
    </g>
    <g clip-path="url(#p6d70a22c71)">
     <use style="fill:#333333;" x="200.7525" xlink:href="#C1_0_ce84e746f4" y="131.091916"/>
    </g>
    <g clip-path="url(#p6d70a22c71)">
     <use style="fill:#333333;" x="195.212293" xlink:href="#C1_0_ce84e746f4" y="128.849914"/>
    </g>
    <g clip-path="url(#p6d70a22c71)">
     <use style="fill:#333333;" x="203.811625" xlink:href="#C1_0_ce84e746f4" y="125.958543"/>
    </g>
    <g clip-path="url(#p6d70a22c71)">
     <use style="fill:#333333;" x="200.7525" xlink:href="#C1_0_ce84e746f4" y="115.47676"/>
    </g>
    <g clip-path="url(#p6d70a22c71)">
     <use style="fill:#333333;" x="199.977685" xlink:href="#C1_0_ce84e746f4" y="109.55181"/>
    </g>
    <g clip-path="url(#p6d70a22c71)">
     <use style="fill:#333333;" x="200.7525" xlink:href="#C1_0_ce84e746f4" y="75.321597"/>
    </g>
    <g clip-path="url(#p6d70a22c71)">
     <use style="fill:#333333;" x="200.7525" xlink:href="#C1_0_ce84e746f4" y="61.306465"/>
    </g>
    <g clip-path="url(#p6d70a22c71)">
     <use style="fill:#333333;" x="200.7525" xlink:href="#C1_0_ce84e746f4" y="19.992727"/>
    </g>
   </g>
   <g id="PathCollection_3">
    <defs>
     <path d="M 0 3 
C 0.795609 3 1.55874 2.683901 2.12132 2.12132 
C 2.683901 1.55874 3 0.795609 3 -0 
C 3 -0.795609 2.683901 -1.55874 2.12132 -2.12132 
C 1.55874 -2.683901 0.795609 -3 0 -3 
C -0.795609 -3 -1.55874 -2.683901 -2.12132 -2.12132 
C -2.683901 -1.55874 -3 -0.795609 -3 0 
C -3 0.795609 -2.683901 1.55874 -2.12132 2.12132 
C -1.55874 2.683901 -0.795609 3 0 3 
z
" id="C2_0_45c9180244"/>
    </defs>
    <g clip-path="url(#p6d70a22c71)">
     <use style="fill:#333333;" x="288.9825" xlink:href="#C2_0_45c9180244" y="275.847273"/>
    </g>
    <g clip-path="url(#p6d70a22c71)">
     <use style="fill:#333333;" x="288.9825" xlink:href="#C2_0_45c9180244" y="199.581392"/>
    </g>
    <g clip-path="url(#p6d70a22c71)">
     <use style="fill:#333333;" x="288.9825" xlink:href="#C2_0_45c9180244" y="178.127719"/>
    </g>
    <g clip-path="url(#p6d70a22c71)">
     <use style="fill:#333333;" x="288.9825" xlink:href="#C2_0_45c9180244" y="164.862297"/>
    </g>
    <g clip-path="url(#p6d70a22c71)">
     <use style="fill:#333333;" x="288.9825" xlink:href="#C2_0_45c9180244" y="137.443628"/>
    </g>
    <g clip-path="url(#p6d70a22c71)">
     <use style="fill:#333333;" x="284.231724" xlink:href="#C2_0_45c9180244" y="133.817817"/>
    </g>
    <g clip-path="url(#p6d70a22c71)">
     <use style="fill:#333333;" x="288.9825" xlink:href="#C2_0_45c9180244" y="127.9666"/>
    </g>
    <g clip-path="url(#p6d70a22c71)">
     <use style="fill:#333333;" x="284.087527" xlink:href="#C2_0_45c9180244" y="124.53785"/>
    </g>
    <g clip-path="url(#p6d70a22c71)">
     <use style="fill:#333333;" x="288.9825" xlink:href="#C2_0_45c9180244" y="121.223071"/>
    </g>
    <g clip-path="url(#p6d70a22c71)">
     <use style="fill:#333333;" x="284.889449" xlink:href="#C2_0_45c9180244" y="116.868716"/>
    </g>
    <g clip-path="url(#p6d70a22c71)">
     <use style="fill:#333333;" x="290.524451" xlink:href="#C2_0_45c9180244" y="114.876795"/>
    </g>
    <g clip-path="url(#p6d70a22c71)">
     <use style="fill:#333333;" x="296.480815" xlink:href="#C2_0_45c9180244" y="114.382226"/>
    </g>
    <g clip-path="url(#p6d70a22c71)">
     <use style="fill:#333333;" x="288.9825" xlink:href="#C2_0_45c9180244" y="101.220602"/>
    </g>
    <g clip-path="url(#p6d70a22c71)">
     <use style="fill:#333333;" x="288.9825" xlink:href="#C2_0_45c9180244" y="74.789172"/>
    </g>
   </g>
  </g>
 </g>
 <defs>
  <clipPath id="p6d70a22c71">
   <rect height="281.44" width="264.69" x="68.4075" y="7.2"/>
  </clipPath>
 </defs>
</svg>
