<?xml version="1.0" encoding="utf-8" standalone="no"?>
<!DOCTYPE svg PUBLIC "-//W3C//DTD SVG 1.1//EN"
  "http://www.w3.org/Graphics/SVG/1.1/DTD/svg11.dtd">
<!-- Created with matplotlib (https://matplotlib.org/) -->
<svg height="158.4pt" version="1.1" viewBox="0 0 388.47 158.4" width="388.47pt" xmlns="http://www.w3.org/2000/svg" xmlns:xlink="http://www.w3.org/1999/xlink">
 <metadata>
  <rdf:RDF xmlns:cc="http://creativecommons.org/ns#" xmlns:dc="http://purl.org/dc/elements/1.1/" xmlns:rdf="http://www.w3.org/1999/02/22-rdf-syntax-ns#">
   <cc:Work>
    <dc:type rdf:resource="http://purl.org/dc/dcmitype/StillImage"/>
    <dc:date>2021-05-03T16:10:41.121311</dc:date>
    <dc:format>image/svg+xml</dc:format>
    <dc:creator>
     <cc:Agent>
      <dc:title>Matplotlib v3.3.4, https://matplotlib.org/</dc:title>
     </cc:Agent>
    </dc:creator>
   </cc:Work>
  </rdf:RDF>
 </metadata>
 <defs>
  <style type="text/css">*{stroke-linecap:butt;stroke-linejoin:round;}</style>
 </defs>
 <g id="figure_1">
  <g id="patch_1">
   <path d="M 0 158.4 
L 388.47 158.4 
L 388.47 0 
L 0 0 
z
" style="fill:#ffffff;"/>
  </g>
  <g id="axes_1">
   <g id="patch_2">
    <path d="M 93.27 151.2 
L 381.27 151.2 
L 381.27 7.2 
L 93.27 7.2 
z
" style="fill:#ffffff;"/>
   </g>
   <g id="matplotlib.axis_1">
    <g id="ytick_1">
     <g id="line2d_1">
      <defs>
       <path d="M 0 0 
L -3.5 0 
" id="m8968152f11" style="stroke:#555555;stroke-width:0.8;"/>
      </defs>
      <g>
       <use style="fill:#555555;stroke:#555555;stroke-width:0.8;" x="93.27" xlink:href="#m8968152f11" y="31.2"/>
      </g>
     </g>
     <g id="text_1">
      <!-- Manhattan -->
      <g style="fill:#555555;" transform="translate(8.8275 37.2)scale(0.16 -0.16)">
       <defs>
        <path d="M 43.75 19.53125 
L 61.96875 71.09375 
L 81.15625 71.09375 
L 81.15625 0 
L 66.453125 0 
L 66.453125 19.4375 
L 67.921875 52.828125 
L 48.78125 0 
L 38.71875 0 
L 19.578125 52.828125 
L 21.046875 19.4375 
L 21.046875 0 
L 6.34375 0 
L 6.34375 71.09375 
L 25.53125 71.09375 
z
" id="Roboto-Bold-77"/>
        <path d="M 36.03125 0 
Q 35.15625 1.859375 34.625 4.734375 
Q 29.5 -0.984375 21.296875 -0.984375 
Q 13.71875 -0.984375 8.546875 3.484375 
Q 3.375 7.953125 3.375 14.84375 
Q 3.375 23.140625 9.515625 27.703125 
Q 15.671875 32.28125 27.734375 32.28125 
L 34.03125 32.28125 
L 34.03125 35.359375 
Q 34.03125 39.015625 32.15625 41.1875 
Q 30.28125 43.359375 26.21875 43.359375 
Q 18.65625 43.359375 18.65625 37.015625 
L 4.546875 37.015625 
Q 4.546875 43.890625 10.640625 48.84375 
Q 16.75 53.8125 27 53.8125 
Q 36.140625 53.8125 42.15625 49.171875 
Q 48.1875 44.53125 48.1875 35.25 
L 48.1875 11.71875 
Q 48.296875 4.6875 50.296875 0.828125 
L 50.296875 0 
z
M 24.359375 9.8125 
Q 27.9375 9.8125 30.4375 11.390625 
Q 32.953125 12.984375 34.03125 14.890625 
L 34.03125 24.078125 
L 28.265625 24.078125 
Q 22.65625 24.078125 20.0625 21.703125 
Q 17.484375 19.34375 17.484375 15.875 
Q 17.484375 13.234375 19.3125 11.515625 
Q 21.140625 9.8125 24.359375 9.8125 
z
" id="Roboto-Bold-97"/>
        <path d="M 28.21875 42.390625 
Q 22.21875 42.390625 19.28125 37.3125 
L 19.28125 0 
L 5.171875 0 
L 5.171875 52.828125 
L 18.40625 52.828125 
L 18.890625 46.78125 
Q 24.5625 53.8125 34.078125 53.8125 
Q 41.546875 53.8125 46.140625 49.359375 
Q 50.734375 44.921875 50.78125 33.890625 
L 50.78125 0 
L 36.625 0 
L 36.625 33.6875 
Q 36.625 38.765625 34.453125 40.578125 
Q 32.28125 42.390625 28.21875 42.390625 
z
" id="Roboto-Bold-110"/>
        <path d="M 28.171875 42.390625 
Q 22.015625 42.390625 19.234375 37.640625 
L 19.234375 0 
L 5.125 0 
L 5.125 75 
L 19.234375 75 
L 19.234375 47.125 
Q 24.75 53.8125 33.34375 53.8125 
Q 41.109375 53.8125 45.921875 49.21875 
Q 50.734375 44.625 50.78125 33.546875 
L 50.78125 0 
L 36.625 0 
L 36.625 33.40625 
Q 36.625 38.53125 34.421875 40.453125 
Q 32.234375 42.390625 28.171875 42.390625 
z
" id="Roboto-Bold-104"/>
        <path d="M 31.890625 0.34375 
Q 27.9375 -0.984375 23.390625 -0.984375 
Q 16.453125 -0.984375 12.34375 2.625 
Q 8.25 6.25 8.25 14.65625 
L 8.25 42.53125 
L 0.484375 42.53125 
L 0.484375 52.828125 
L 8.25 52.828125 
L 8.25 65.875 
L 22.359375 65.875 
L 22.359375 52.828125 
L 31.34375 52.828125 
L 31.34375 42.53125 
L 22.359375 42.53125 
L 22.359375 16.109375 
Q 22.359375 12.796875 23.71875 11.71875 
Q 25.09375 10.640625 27.78125 10.640625 
Q 29.9375 10.640625 31.890625 11.03125 
z
" id="Roboto-Bold-116"/>
       </defs>
       <use xlink:href="#Roboto-Bold-77"/>
       <use x="87.597656" xlink:href="#Roboto-Bold-97"/>
       <use x="141.210938" xlink:href="#Roboto-Bold-110"/>
       <use x="197.216797" xlink:href="#Roboto-Bold-104"/>
       <use x="253.222656" xlink:href="#Roboto-Bold-97"/>
       <use x="306.835938" xlink:href="#Roboto-Bold-116"/>
       <use x="340.625" xlink:href="#Roboto-Bold-116"/>
       <use x="374.414062" xlink:href="#Roboto-Bold-97"/>
       <use x="428.027344" xlink:href="#Roboto-Bold-110"/>
      </g>
     </g>
    </g>
    <g id="ytick_2">
     <g id="line2d_2">
      <g>
       <use style="fill:#555555;stroke:#555555;stroke-width:0.8;" x="93.27" xlink:href="#m8968152f11" y="79.2"/>
      </g>
     </g>
     <g id="text_2">
      <!-- Euclidean -->
      <g style="fill:#555555;" transform="translate(16.265 85.2)scale(0.16 -0.16)">
       <defs>
        <path d="M 6.34375 0 
L 6.34375 71.09375 
L 53.90625 71.09375 
L 53.90625 59.234375 
L 21.046875 59.234375 
L 21.046875 42.28125 
L 49.125 42.28125 
L 49.125 30.8125 
L 21.046875 30.8125 
L 21.046875 11.8125 
L 54.046875 11.8125 
L 54.046875 0 
z
" id="Roboto-Bold-69"/>
        <path d="M 37.5 0 
L 37.109375 5.421875 
Q 31.9375 -0.984375 22.65625 -0.984375 
Q 14.890625 -0.984375 10.03125 3.5625 
Q 5.171875 8.109375 5.125 18.453125 
L 5.125 52.828125 
L 19.234375 52.828125 
L 19.234375 18.5625 
Q 19.234375 14.15625 21.328125 12.328125 
Q 23.4375 10.5 26.703125 10.5 
Q 33.890625 10.5 36.625 15.53125 
L 36.625 52.828125 
L 50.78125 52.828125 
L 50.78125 0 
z
" id="Roboto-Bold-117"/>
        <path d="M 27.390625 10.40625 
Q 31.25 10.40625 33.734375 12.53125 
Q 36.234375 14.65625 36.28125 18.265625 
L 49.5625 18.265625 
Q 49.46875 9.859375 43.140625 4.4375 
Q 36.8125 -0.984375 27.640625 -0.984375 
Q 15.375 -0.984375 9.296875 6.75 
Q 3.21875 14.5 3.21875 25.734375 
L 3.21875 27.09375 
Q 3.21875 38.28125 9.265625 46.046875 
Q 15.328125 53.8125 27.59375 53.8125 
Q 37.3125 53.8125 43.390625 48.234375 
Q 49.46875 42.671875 49.5625 33.15625 
L 36.28125 33.15625 
Q 36.234375 37.015625 33.9375 39.71875 
Q 31.640625 42.4375 27.34375 42.4375 
Q 21.1875 42.4375 19.28125 37.8125 
Q 17.390625 33.203125 17.390625 25.734375 
Q 17.390625 19.625 19.265625 15.015625 
Q 21.140625 10.40625 27.390625 10.40625 
z
" id="Roboto-Bold-99"/>
        <path d="M 20.359375 75 
L 20.359375 0 
L 6.203125 0 
L 6.203125 75 
z
" id="Roboto-Bold-108"/>
        <path d="M 5.328125 66.5 
Q 5.328125 69.671875 7.46875 71.75 
Q 9.625 73.828125 13.234375 73.828125 
Q 16.84375 73.828125 18.984375 71.75 
Q 21.140625 69.671875 21.140625 66.5 
Q 21.140625 63.375 18.984375 61.296875 
Q 16.84375 59.234375 13.234375 59.234375 
Q 9.625 59.234375 7.46875 61.296875 
Q 5.328125 63.375 5.328125 66.5 
z
M 20.359375 52.828125 
L 20.359375 0 
L 6.203125 0 
L 6.203125 52.828125 
z
" id="Roboto-Bold-105"/>
        <path d="M 38.09375 0 
L 37.40625 5.609375 
Q 32.171875 -0.984375 23.875 -0.984375 
Q 14.0625 -0.984375 8.640625 6.640625 
Q 3.21875 14.265625 3.21875 25.78125 
L 3.21875 26.8125 
Q 3.21875 38.875 8.640625 46.34375 
Q 14.0625 53.8125 23.96875 53.8125 
Q 31.6875 53.8125 36.671875 48.09375 
L 36.671875 75 
L 50.828125 75 
L 50.828125 0 
z
M 17.390625 25.78125 
Q 17.390625 19.4375 19.625 14.96875 
Q 21.875 10.5 27.4375 10.5 
Q 33.890625 10.5 36.671875 15.96875 
L 36.671875 36.921875 
Q 33.984375 42.390625 27.546875 42.390625 
Q 22.015625 42.390625 19.703125 37.890625 
Q 17.390625 33.40625 17.390625 25.78125 
z
" id="Roboto-Bold-100"/>
        <path d="M 50.390625 8.59375 
Q 47.859375 4.984375 42.671875 2 
Q 37.5 -0.984375 29.78125 -0.984375 
Q 17.484375 -0.984375 10.546875 6.46875 
Q 3.609375 13.921875 3.5625 24.46875 
L 3.5625 26.515625 
Q 3.5625 38.484375 10.21875 46.140625 
Q 16.890625 53.8125 28.21875 53.8125 
Q 39.59375 53.8125 45.546875 46.671875 
Q 51.515625 39.546875 51.515625 27.828125 
L 51.515625 21.828125 
L 17.875 21.828125 
Q 18.609375 16.703125 21.921875 13.546875 
Q 25.25 10.40625 30.671875 10.40625 
Q 38.71875 10.40625 43.40625 16.3125 
z
M 28.125 42.4375 
Q 23.640625 42.4375 21.1875 39.40625 
Q 18.75 36.375 18.015625 31.5 
L 37.640625 31.5 
L 37.640625 32.5625 
Q 37.546875 36.8125 35.28125 39.625 
Q 33.015625 42.4375 28.125 42.4375 
z
" id="Roboto-Bold-101"/>
       </defs>
       <use xlink:href="#Roboto-Bold-69"/>
       <use x="56.25" xlink:href="#Roboto-Bold-117"/>
       <use x="112.255859" xlink:href="#Roboto-Bold-99"/>
       <use x="164.453125" xlink:href="#Roboto-Bold-108"/>
       <use x="190.966797" xlink:href="#Roboto-Bold-105"/>
       <use x="217.480469" xlink:href="#Roboto-Bold-100"/>
       <use x="273.876953" xlink:href="#Roboto-Bold-101"/>
       <use x="327.929688" xlink:href="#Roboto-Bold-97"/>
       <use x="381.542969" xlink:href="#Roboto-Bold-110"/>
      </g>
     </g>
    </g>
    <g id="ytick_3">
     <g id="line2d_3">
      <g>
       <use style="fill:#555555;stroke:#555555;stroke-width:0.8;" x="93.27" xlink:href="#m8968152f11" y="127.2"/>
      </g>
     </g>
     <g id="text_3">
      <!-- Chebyshev -->
      <g style="fill:#555555;" transform="translate(7.2 133.2)scale(0.16 -0.16)">
       <defs>
        <path d="M 47.5625 23.6875 
L 62.203125 23.6875 
Q 61.46875 12.84375 54.078125 5.921875 
Q 46.6875 -0.984375 33.59375 -0.984375 
Q 19.921875 -0.984375 12.0625 8.21875 
Q 4.203125 17.4375 4.203125 33.203125 
L 4.203125 37.84375 
Q 4.203125 53.609375 12.25 62.859375 
Q 20.3125 72.125 33.734375 72.125 
Q 47.078125 72.125 54.15625 65.015625 
Q 61.234375 57.90625 62.25 46.96875 
L 47.609375 46.96875 
Q 47.125 53.328125 44.0625 56.71875 
Q 41.015625 60.109375 33.734375 60.109375 
Q 19.484375 60.109375 19.09375 39.0625 
L 19.09375 33.203125 
Q 19.09375 22.171875 22.4375 16.59375 
Q 25.78125 11.03125 33.59375 11.03125 
Q 40.53125 11.03125 43.765625 14.171875 
Q 47.015625 17.328125 47.5625 23.6875 
z
" id="Roboto-Bold-67"/>
        <path d="M 53.03125 25.921875 
Q 53.03125 14.0625 47.921875 6.53125 
Q 42.828125 -0.984375 32.515625 -0.984375 
Q 23.921875 -0.984375 18.796875 5.609375 
L 18.171875 0 
L 5.421875 0 
L 5.421875 75 
L 19.578125 75 
L 19.578125 48.140625 
Q 24.515625 53.8125 32.421875 53.8125 
Q 42.828125 53.8125 47.921875 46.234375 
Q 53.03125 38.671875 53.03125 26.953125 
z
M 28.859375 42.390625 
Q 22.171875 42.390625 19.578125 36.859375 
L 19.578125 15.96875 
Q 22.171875 10.453125 28.953125 10.453125 
Q 34.859375 10.453125 36.890625 14.765625 
Q 38.921875 19.09375 38.921875 26.953125 
Q 38.921875 33.203125 36.890625 37.796875 
Q 34.859375 42.390625 28.859375 42.390625 
z
" id="Roboto-Bold-98"/>
        <path d="M 12.015625 -21.34375 
Q 9.28125 -21.34375 5.765625 -20.40625 
L 5.765625 -9.71875 
L 7.953125 -9.765625 
Q 12.109375 -9.765625 14.109375 -8.421875 
Q 16.109375 -7.078125 17.140625 -4.15625 
L 18.703125 -0.09375 
L 0.203125 52.828125 
L 15.375 52.828125 
L 25.203125 19.921875 
L 34.96875 52.828125 
L 50.046875 52.828125 
L 28.90625 -7.90625 
Q 27.984375 -10.546875 26.171875 -13.6875 
Q 24.359375 -16.84375 20.96875 -19.09375 
Q 17.578125 -21.34375 12.015625 -21.34375 
z
" id="Roboto-Bold-121"/>
        <path d="M 34.03125 14.65625 
Q 34.03125 16.890625 31.953125 18.421875 
Q 29.890625 19.96875 23.046875 21.4375 
Q 14.890625 23.1875 9.65625 26.890625 
Q 4.4375 30.609375 4.4375 37.40625 
Q 4.4375 44 10.03125 48.90625 
Q 15.625 53.8125 25.484375 53.8125 
Q 35.796875 53.8125 41.703125 48.96875 
Q 47.609375 44.140625 47.609375 36.765625 
L 33.5 36.765625 
Q 33.5 39.796875 31.546875 41.796875 
Q 29.59375 43.796875 25.4375 43.796875 
Q 21.921875 43.796875 19.9375 42.15625 
Q 17.96875 40.53125 17.96875 38.09375 
Q 17.96875 35.84375 20.0625 34.375 
Q 22.171875 32.90625 27.828125 31.78125 
Q 36.421875 30.078125 42.078125 26.5625 
Q 47.75 23.046875 47.75 15.1875 
Q 47.75 8.203125 41.75 3.609375 
Q 35.75 -0.984375 25.53125 -0.984375 
Q 14.453125 -0.984375 8.59375 4.703125 
Q 2.734375 10.40625 2.734375 16.84375 
L 16.15625 16.84375 
Q 16.359375 12.703125 19.21875 10.890625 
Q 22.078125 9.078125 25.828125 9.078125 
Q 34.03125 9.078125 34.03125 14.65625 
z
" id="Roboto-Bold-115"/>
        <path d="M 49.75 52.828125 
L 31.9375 0 
L 18.5 0 
L 0.640625 52.828125 
L 15.4375 52.828125 
L 25.25 17.328125 
L 35.015625 52.828125 
z
" id="Roboto-Bold-118"/>
       </defs>
       <use xlink:href="#Roboto-Bold-67"/>
       <use x="65.478516" xlink:href="#Roboto-Bold-104"/>
       <use x="121.484375" xlink:href="#Roboto-Bold-101"/>
       <use x="175.537109" xlink:href="#Roboto-Bold-98"/>
       <use x="231.835938" xlink:href="#Roboto-Bold-121"/>
       <use x="282.080078" xlink:href="#Roboto-Bold-115"/>
       <use x="333.544922" xlink:href="#Roboto-Bold-104"/>
       <use x="389.550781" xlink:href="#Roboto-Bold-101"/>
       <use x="443.603516" xlink:href="#Roboto-Bold-118"/>
      </g>
     </g>
    </g>
   </g>
   <g id="QuadMesh_1">
    <path clip-path="url(#pbae4097573)" d="M 93.27 7.2 
L 141.27 7.2 
L 141.27 55.2 
L 93.27 55.2 
L 93.27 7.2 
" style="fill:#0e0508;"/>
    <path clip-path="url(#pbae4097573)" d="M 141.27 7.2 
L 189.27 7.2 
L 189.27 55.2 
L 141.27 55.2 
L 141.27 7.2 
" style="fill:#0d0406;"/>
    <path clip-path="url(#pbae4097573)" d="M 189.27 7.2 
L 237.27 7.2 
L 237.27 55.2 
L 189.27 55.2 
L 189.27 7.2 
" style="fill:#0d0406;"/>
    <path clip-path="url(#pbae4097573)" d="M 237.27 7.2 
L 285.27 7.2 
L 285.27 55.2 
L 237.27 55.2 
L 237.27 7.2 
" style="fill:#0e0508;"/>
    <path clip-path="url(#pbae4097573)" d="M 285.27 7.2 
L 333.27 7.2 
L 333.27 55.2 
L 285.27 55.2 
L 285.27 7.2 
" style="fill:#0b0405;"/>
    <path clip-path="url(#pbae4097573)" d="M 333.27 7.2 
L 381.27 7.2 
L 381.27 55.2 
L 333.27 55.2 
L 333.27 7.2 
" style="fill:#0b0405;"/>
    <path clip-path="url(#pbae4097573)" d="M 93.27 55.2 
L 141.27 55.2 
L 141.27 103.2 
L 93.27 103.2 
L 93.27 55.2 
" style="fill:#0b0405;"/>
    <path clip-path="url(#pbae4097573)" d="M 141.27 55.2 
L 189.27 55.2 
L 189.27 103.2 
L 141.27 103.2 
L 141.27 55.2 
" style="fill:#0b0405;"/>
    <path clip-path="url(#pbae4097573)" d="M 189.27 55.2 
L 237.27 55.2 
L 237.27 103.2 
L 189.27 103.2 
L 189.27 55.2 
" style="fill:#0b0405;"/>
    <path clip-path="url(#pbae4097573)" d="M 237.27 55.2 
L 285.27 55.2 
L 285.27 103.2 
L 237.27 103.2 
L 237.27 55.2 
" style="fill:#0b0405;"/>
    <path clip-path="url(#pbae4097573)" d="M 285.27 55.2 
L 333.27 55.2 
L 333.27 103.2 
L 285.27 103.2 
L 285.27 55.2 
" style="fill:#0b0405;"/>
    <path clip-path="url(#pbae4097573)" d="M 333.27 55.2 
L 381.27 55.2 
L 381.27 103.2 
L 333.27 103.2 
L 333.27 55.2 
" style="fill:#0b0405;"/>
    <path clip-path="url(#pbae4097573)" d="M 93.27 103.2 
L 141.27 103.2 
L 141.27 151.2 
L 93.27 151.2 
L 93.27 103.2 
" style="fill:#0b0405;"/>
    <path clip-path="url(#pbae4097573)" d="M 141.27 103.2 
L 189.27 103.2 
L 189.27 151.2 
L 141.27 151.2 
L 141.27 103.2 
" style="fill:#0b0405;"/>
    <path clip-path="url(#pbae4097573)" d="M 189.27 103.2 
L 237.27 103.2 
L 237.27 151.2 
L 189.27 151.2 
L 189.27 103.2 
" style="fill:#0b0405;"/>
    <path clip-path="url(#pbae4097573)" d="M 237.27 103.2 
L 285.27 103.2 
L 285.27 151.2 
L 237.27 151.2 
L 237.27 103.2 
" style="fill:#0b0405;"/>
    <path clip-path="url(#pbae4097573)" d="M 285.27 103.2 
L 333.27 103.2 
L 333.27 151.2 
L 285.27 151.2 
L 285.27 103.2 
" style="fill:#0b0405;"/>
    <path clip-path="url(#pbae4097573)" d="M 333.27 103.2 
L 381.27 103.2 
L 381.27 151.2 
L 333.27 151.2 
L 333.27 103.2 
" style="fill:#0b0405;"/>
   </g>
   <g id="text_4">
    <!-- 0.008 -->
    <g style="fill:#ffffff;" transform="translate(100.460391 34.754688)scale(0.13 -0.13)">
     <defs>
      <path d="M 52.6875 29.4375 
Q 52.6875 13.375 46.09375 6.1875 
Q 39.5 -0.984375 28.75 -0.984375 
Q 18.015625 -0.984375 11.34375 6.1875 
Q 4.6875 13.375 4.6875 29.4375 
L 4.6875 41.796875 
Q 4.6875 57.8125 11.296875 64.9375 
Q 17.921875 72.078125 28.65625 72.078125 
Q 39.359375 72.078125 46 64.984375 
Q 52.640625 57.90625 52.6875 42.046875 
z
M 38.578125 43.75 
Q 38.578125 53.21875 35.984375 56.953125 
Q 33.40625 60.6875 28.65625 60.6875 
Q 24.03125 60.6875 21.4375 57.03125 
Q 18.84375 53.375 18.796875 44.140625 
L 18.796875 27.546875 
Q 18.796875 18.015625 21.40625 14.203125 
Q 24.03125 10.40625 28.765625 10.40625 
Q 33.40625 10.40625 35.96875 14.140625 
Q 38.53125 17.875 38.578125 27.15625 
z
" id="Roboto-Bold-48"/>
      <path d="M 6.15625 6.984375 
Q 6.15625 10.203125 8.328125 12.375 
Q 10.5 14.546875 14.15625 14.546875 
Q 17.828125 14.546875 19.96875 12.375 
Q 22.125 10.203125 22.125 6.984375 
Q 22.125 3.8125 19.96875 1.640625 
Q 17.828125 -0.53125 14.15625 -0.53125 
Q 10.5 -0.53125 8.328125 1.640625 
Q 6.15625 3.8125 6.15625 6.984375 
z
" id="Roboto-Bold-46"/>
      <path d="M 52.640625 19.484375 
Q 52.640625 9.421875 45.828125 4.21875 
Q 39.015625 -0.984375 28.703125 -0.984375 
Q 18.40625 -0.984375 11.5 4.21875 
Q 4.59375 9.421875 4.59375 19.484375 
Q 4.59375 25.390625 7.640625 29.8125 
Q 10.6875 34.234375 15.828125 36.671875 
Q 11.328125 39.015625 8.734375 43.046875 
Q 6.15625 47.078125 6.15625 52.203125 
Q 6.15625 61.859375 12.5 66.984375 
Q 18.84375 72.125 28.609375 72.125 
Q 38.53125 72.125 44.84375 66.984375 
Q 51.171875 61.859375 51.171875 52.203125 
Q 51.171875 47.015625 48.5625 43.015625 
Q 45.953125 39.015625 41.453125 36.625 
Q 46.578125 34.1875 49.609375 29.78125 
Q 52.640625 25.390625 52.640625 19.484375 
z
M 37.0625 51.515625 
Q 37.0625 55.671875 34.84375 58.203125 
Q 32.625 60.75 28.609375 60.75 
Q 24.703125 60.75 22.484375 58.28125 
Q 20.265625 55.8125 20.265625 51.515625 
Q 20.265625 47.3125 22.484375 44.71875 
Q 24.703125 42.140625 28.703125 42.140625 
Q 32.71875 42.140625 34.890625 44.71875 
Q 37.0625 47.3125 37.0625 51.515625 
z
M 38.53125 20.515625 
Q 38.53125 25.296875 35.796875 28.03125 
Q 33.0625 30.765625 28.609375 30.765625 
Q 24.171875 30.765625 21.453125 28.03125 
Q 18.75 25.296875 18.75 20.515625 
Q 18.75 15.765625 21.453125 13.078125 
Q 24.171875 10.40625 28.71875 10.40625 
Q 33.203125 10.40625 35.859375 13.078125 
Q 38.53125 15.765625 38.53125 20.515625 
z
" id="Roboto-Bold-56"/>
     </defs>
     <use xlink:href="#Roboto-Bold-48"/>
     <use x="57.373047" xlink:href="#Roboto-Bold-46"/>
     <use x="86.474609" xlink:href="#Roboto-Bold-48"/>
     <use x="143.847656" xlink:href="#Roboto-Bold-48"/>
     <use x="201.220703" xlink:href="#Roboto-Bold-56"/>
    </g>
   </g>
   <g id="text_5">
    <!-- 0.004 -->
    <g style="fill:#ffffff;" transform="translate(148.460391 34.754688)scale(0.13 -0.13)">
     <defs>
      <path d="M 2.734375 24.265625 
L 32.375 71.09375 
L 46.625 71.09375 
L 46.625 26.765625 
L 54.6875 26.765625 
L 54.6875 15.375 
L 46.625 15.375 
L 46.625 0 
L 32.515625 0 
L 32.515625 15.375 
L 3.375 15.375 
z
M 16.75 26.765625 
L 32.515625 26.765625 
L 32.515625 52 
L 31.546875 50.296875 
z
" id="Roboto-Bold-52"/>
     </defs>
     <use xlink:href="#Roboto-Bold-48"/>
     <use x="57.373047" xlink:href="#Roboto-Bold-46"/>
     <use x="86.474609" xlink:href="#Roboto-Bold-48"/>
     <use x="143.847656" xlink:href="#Roboto-Bold-48"/>
     <use x="201.220703" xlink:href="#Roboto-Bold-52"/>
    </g>
   </g>
   <g id="text_6">
    <!-- 0.005 -->
    <g style="fill:#ffffff;" transform="translate(196.460391 34.754688)scale(0.13 -0.13)">
     <defs>
      <path d="M 18.21875 32.234375 
L 6.984375 34.96875 
L 11.03125 71.09375 
L 50.875 71.09375 
L 50.875 59.375 
L 22.65625 59.375 
L 20.90625 44.046875 
Q 25.78125 46.734375 31.546875 46.734375 
Q 41.890625 46.734375 47.546875 40.421875 
Q 53.21875 34.125 53.21875 22.859375 
Q 53.21875 13.375 47.359375 6.1875 
Q 41.5 -0.984375 29.25 -0.984375 
Q 20.015625 -0.984375 12.71875 4.484375 
Q 5.421875 9.96875 5.171875 19.828125 
L 19.140625 19.828125 
Q 20.0625 10.40625 29.15625 10.40625 
Q 34.46875 10.40625 36.78125 14.234375 
Q 39.109375 18.0625 39.109375 23.640625 
Q 39.109375 29.25 36.328125 32.6875 
Q 33.546875 36.140625 27.6875 36.140625 
Q 23.828125 36.140625 21.71875 34.890625 
Q 19.625 33.640625 18.21875 32.234375 
z
" id="Roboto-Bold-53"/>
     </defs>
     <use xlink:href="#Roboto-Bold-48"/>
     <use x="57.373047" xlink:href="#Roboto-Bold-46"/>
     <use x="86.474609" xlink:href="#Roboto-Bold-48"/>
     <use x="143.847656" xlink:href="#Roboto-Bold-48"/>
     <use x="201.220703" xlink:href="#Roboto-Bold-53"/>
    </g>
   </g>
   <g id="text_7">
    <!-- 0.009 -->
    <g style="fill:#ffffff;" transform="translate(244.460391 34.754688)scale(0.13 -0.13)">
     <defs>
      <path d="M 52.203125 38.1875 
Q 52.203125 20.84375 43.328125 10.15625 
Q 34.46875 -0.53125 16.609375 -0.734375 
L 14.84375 -0.734375 
L 14.84375 11.078125 
L 16.015625 11.078125 
Q 26.609375 11.140625 31.859375 15.59375 
Q 37.109375 20.0625 37.9375 28.46875 
Q 32.28125 23 24.953125 23 
Q 14.9375 23 9.59375 29.859375 
Q 4.25 36.71875 4.25 46.96875 
Q 4.25 57.328125 10.71875 64.71875 
Q 17.1875 72.125 28.078125 72.125 
Q 39.0625 72.125 45.625 64.140625 
Q 52.203125 56.15625 52.203125 43.0625 
z
M 18.3125 47.125 
Q 18.3125 41.65625 20.796875 37.75 
Q 23.296875 33.84375 28.421875 33.84375 
Q 31.890625 33.84375 34.375 35.625 
Q 36.859375 37.40625 38.09375 39.9375 
L 38.09375 45.65625 
Q 38.09375 53.21875 35.203125 56.953125 
Q 32.328125 60.6875 28.03125 60.6875 
Q 23.390625 60.6875 20.84375 56.515625 
Q 18.3125 52.34375 18.3125 47.125 
z
" id="Roboto-Bold-57"/>
     </defs>
     <use xlink:href="#Roboto-Bold-48"/>
     <use x="57.373047" xlink:href="#Roboto-Bold-46"/>
     <use x="86.474609" xlink:href="#Roboto-Bold-48"/>
     <use x="143.847656" xlink:href="#Roboto-Bold-48"/>
     <use x="201.220703" xlink:href="#Roboto-Bold-57"/>
    </g>
   </g>
   <g id="text_8">
    <!-- 0.001 -->
    <g style="fill:#ffffff;" transform="translate(292.460391 34.754688)scale(0.13 -0.13)">
     <defs>
      <path d="M 39.109375 71.1875 
L 39.109375 0 
L 25 0 
L 25 54.4375 
L 8.203125 49.21875 
L 8.203125 60.640625 
L 37.59375 71.1875 
z
" id="Roboto-Bold-49"/>
     </defs>
     <use xlink:href="#Roboto-Bold-48"/>
     <use x="57.373047" xlink:href="#Roboto-Bold-46"/>
     <use x="86.474609" xlink:href="#Roboto-Bold-48"/>
     <use x="143.847656" xlink:href="#Roboto-Bold-48"/>
     <use x="201.220703" xlink:href="#Roboto-Bold-49"/>
    </g>
   </g>
   <g id="text_9">
    <!-- 0.000 -->
    <g style="fill:#ffffff;" transform="translate(340.460391 34.754688)scale(0.13 -0.13)">
     <use xlink:href="#Roboto-Bold-48"/>
     <use x="57.373047" xlink:href="#Roboto-Bold-46"/>
     <use x="86.474609" xlink:href="#Roboto-Bold-48"/>
     <use x="143.847656" xlink:href="#Roboto-Bold-48"/>
     <use x="201.220703" xlink:href="#Roboto-Bold-48"/>
    </g>
   </g>
   <g id="text_10">
    <!-- 0.003 -->
    <g style="fill:#ffffff;" transform="translate(100.460391 82.754687)scale(0.13 -0.13)">
     <defs>
      <path d="M 19.234375 30.765625 
L 19.234375 41.84375 
L 26.765625 41.84375 
Q 32.078125 41.84375 34.6875 44.5 
Q 37.3125 47.171875 37.3125 51.65625 
Q 37.3125 55.609375 34.9375 58.171875 
Q 32.5625 60.75 27.6875 60.75 
Q 23.828125 60.75 20.96875 58.59375 
Q 18.109375 56.453125 18.109375 52.6875 
L 4 52.6875 
Q 4 61.46875 10.78125 66.796875 
Q 17.578125 72.125 27.296875 72.125 
Q 38.09375 72.125 44.75 66.96875 
Q 51.421875 61.8125 51.421875 51.859375 
Q 51.421875 47.265625 48.578125 43.09375 
Q 45.75 38.921875 40.578125 36.53125 
Q 46.53125 34.421875 49.5 30.09375 
Q 52.484375 25.78125 52.484375 19.96875 
Q 52.484375 9.96875 45.28125 4.484375 
Q 38.09375 -0.984375 27.296875 -0.984375 
Q 21.296875 -0.984375 15.75 1.21875 
Q 10.203125 3.421875 6.65625 7.9375 
Q 3.125 12.453125 3.125 19.484375 
L 17.28125 19.484375 
Q 17.28125 15.53125 20.234375 12.96875 
Q 23.1875 10.40625 27.6875 10.40625 
Q 32.71875 10.40625 35.546875 13.078125 
Q 38.375 15.765625 38.375 20.171875 
Q 38.375 30.765625 26.65625 30.765625 
z
" id="Roboto-Bold-51"/>
     </defs>
     <use xlink:href="#Roboto-Bold-48"/>
     <use x="57.373047" xlink:href="#Roboto-Bold-46"/>
     <use x="86.474609" xlink:href="#Roboto-Bold-48"/>
     <use x="143.847656" xlink:href="#Roboto-Bold-48"/>
     <use x="201.220703" xlink:href="#Roboto-Bold-51"/>
    </g>
   </g>
   <g id="text_11">
    <!-- 0.002 -->
    <g style="fill:#ffffff;" transform="translate(148.460391 82.754687)scale(0.13 -0.13)">
     <defs>
      <path d="M 53.5625 11.375 
L 53.5625 0 
L 4.890625 0 
L 4.890625 9.671875 
L 27.875 34.1875 
Q 33.0625 39.890625 35.078125 43.625 
Q 37.109375 47.359375 37.109375 50.53125 
Q 37.109375 55.28125 34.734375 58.015625 
Q 32.375 60.75 27.9375 60.75 
Q 22.90625 60.75 20.234375 57.328125 
Q 17.578125 53.90625 17.578125 48.734375 
L 3.46875 48.734375 
Q 3.46875 58.34375 10.078125 65.234375 
Q 16.703125 72.125 28.171875 72.125 
Q 39.359375 72.125 45.3125 66.71875 
Q 51.265625 61.328125 51.265625 51.953125 
Q 51.265625 44.921875 47.09375 38.59375 
Q 42.921875 32.28125 35.6875 24.703125 
L 23 11.375 
z
" id="Roboto-Bold-50"/>
     </defs>
     <use xlink:href="#Roboto-Bold-48"/>
     <use x="57.373047" xlink:href="#Roboto-Bold-46"/>
     <use x="86.474609" xlink:href="#Roboto-Bold-48"/>
     <use x="143.847656" xlink:href="#Roboto-Bold-48"/>
     <use x="201.220703" xlink:href="#Roboto-Bold-50"/>
    </g>
   </g>
   <g id="text_12">
    <!-- 0.001 -->
    <g style="fill:#ffffff;" transform="translate(196.460391 82.754687)scale(0.13 -0.13)">
     <use xlink:href="#Roboto-Bold-48"/>
     <use x="57.373047" xlink:href="#Roboto-Bold-46"/>
     <use x="86.474609" xlink:href="#Roboto-Bold-48"/>
     <use x="143.847656" xlink:href="#Roboto-Bold-48"/>
     <use x="201.220703" xlink:href="#Roboto-Bold-49"/>
    </g>
   </g>
   <g id="text_13">
    <!-- 0.003 -->
    <g style="fill:#ffffff;" transform="translate(244.460391 82.754687)scale(0.13 -0.13)">
     <use xlink:href="#Roboto-Bold-48"/>
     <use x="57.373047" xlink:href="#Roboto-Bold-46"/>
     <use x="86.474609" xlink:href="#Roboto-Bold-48"/>
     <use x="143.847656" xlink:href="#Roboto-Bold-48"/>
     <use x="201.220703" xlink:href="#Roboto-Bold-51"/>
    </g>
   </g>
   <g id="text_14">
    <!-- 0.001 -->
    <g style="fill:#ffffff;" transform="translate(292.460391 82.754687)scale(0.13 -0.13)">
     <use xlink:href="#Roboto-Bold-48"/>
     <use x="57.373047" xlink:href="#Roboto-Bold-46"/>
     <use x="86.474609" xlink:href="#Roboto-Bold-48"/>
     <use x="143.847656" xlink:href="#Roboto-Bold-48"/>
     <use x="201.220703" xlink:href="#Roboto-Bold-49"/>
    </g>
   </g>
   <g id="text_15">
    <!-- 0.000 -->
    <g style="fill:#ffffff;" transform="translate(340.460391 82.754687)scale(0.13 -0.13)">
     <use xlink:href="#Roboto-Bold-48"/>
     <use x="57.373047" xlink:href="#Roboto-Bold-46"/>
     <use x="86.474609" xlink:href="#Roboto-Bold-48"/>
     <use x="143.847656" xlink:href="#Roboto-Bold-48"/>
     <use x="201.220703" xlink:href="#Roboto-Bold-48"/>
    </g>
   </g>
   <g id="text_16">
    <!-- 0.002 -->
    <g style="fill:#ffffff;" transform="translate(100.460391 130.754687)scale(0.13 -0.13)">
     <use xlink:href="#Roboto-Bold-48"/>
     <use x="57.373047" xlink:href="#Roboto-Bold-46"/>
     <use x="86.474609" xlink:href="#Roboto-Bold-48"/>
     <use x="143.847656" xlink:href="#Roboto-Bold-48"/>
     <use x="201.220703" xlink:href="#Roboto-Bold-50"/>
    </g>
   </g>
   <g id="text_17">
    <!-- 0.002 -->
    <g style="fill:#ffffff;" transform="translate(148.460391 130.754687)scale(0.13 -0.13)">
     <use xlink:href="#Roboto-Bold-48"/>
     <use x="57.373047" xlink:href="#Roboto-Bold-46"/>
     <use x="86.474609" xlink:href="#Roboto-Bold-48"/>
     <use x="143.847656" xlink:href="#Roboto-Bold-48"/>
     <use x="201.220703" xlink:href="#Roboto-Bold-50"/>
    </g>
   </g>
   <g id="text_18">
    <!-- 0.001 -->
    <g style="fill:#ffffff;" transform="translate(196.460391 130.754687)scale(0.13 -0.13)">
     <use xlink:href="#Roboto-Bold-48"/>
     <use x="57.373047" xlink:href="#Roboto-Bold-46"/>
     <use x="86.474609" xlink:href="#Roboto-Bold-48"/>
     <use x="143.847656" xlink:href="#Roboto-Bold-48"/>
     <use x="201.220703" xlink:href="#Roboto-Bold-49"/>
    </g>
   </g>
   <g id="text_19">
    <!-- 0.003 -->
    <g style="fill:#ffffff;" transform="translate(244.460391 130.754687)scale(0.13 -0.13)">
     <use xlink:href="#Roboto-Bold-48"/>
     <use x="57.373047" xlink:href="#Roboto-Bold-46"/>
     <use x="86.474609" xlink:href="#Roboto-Bold-48"/>
     <use x="143.847656" xlink:href="#Roboto-Bold-48"/>
     <use x="201.220703" xlink:href="#Roboto-Bold-51"/>
    </g>
   </g>
   <g id="text_20">
    <!-- 0.002 -->
    <g style="fill:#ffffff;" transform="translate(292.460391 130.754687)scale(0.13 -0.13)">
     <use xlink:href="#Roboto-Bold-48"/>
     <use x="57.373047" xlink:href="#Roboto-Bold-46"/>
     <use x="86.474609" xlink:href="#Roboto-Bold-48"/>
     <use x="143.847656" xlink:href="#Roboto-Bold-48"/>
     <use x="201.220703" xlink:href="#Roboto-Bold-50"/>
    </g>
   </g>
   <g id="text_21">
    <!-- 0.001 -->
    <g style="fill:#ffffff;" transform="translate(340.460391 130.754687)scale(0.13 -0.13)">
     <use xlink:href="#Roboto-Bold-48"/>
     <use x="57.373047" xlink:href="#Roboto-Bold-46"/>
     <use x="86.474609" xlink:href="#Roboto-Bold-48"/>
     <use x="143.847656" xlink:href="#Roboto-Bold-48"/>
     <use x="201.220703" xlink:href="#Roboto-Bold-49"/>
    </g>
   </g>
  </g>
 </g>
 <defs>
  <clipPath id="pbae4097573">
   <rect height="144" width="288" x="93.27" y="7.2"/>
  </clipPath>
 </defs>
</svg>
