<?xml version="1.0" encoding="utf-8" standalone="no"?>
<!DOCTYPE svg PUBLIC "-//W3C//DTD SVG 1.1//EN"
  "http://www.w3.org/Graphics/SVG/1.1/DTD/svg11.dtd">
<!-- Created with matplotlib (https://matplotlib.org/) -->
<svg height="628.24pt" version="1.1" viewBox="0 0 574.897003 628.24" width="574.897003pt" xmlns="http://www.w3.org/2000/svg" xmlns:xlink="http://www.w3.org/1999/xlink">
 <metadata>
  <rdf:RDF xmlns:cc="http://creativecommons.org/ns#" xmlns:dc="http://purl.org/dc/elements/1.1/" xmlns:rdf="http://www.w3.org/1999/02/22-rdf-syntax-ns#">
   <cc:Work>
    <dc:type rdf:resource="http://purl.org/dc/dcmitype/StillImage"/>
    <dc:date>2021-12-14T13:26:03.793987</dc:date>
    <dc:format>image/svg+xml</dc:format>
    <dc:creator>
     <cc:Agent>
      <dc:title>Matplotlib v3.3.4, https://matplotlib.org/</dc:title>
     </cc:Agent>
    </dc:creator>
   </cc:Work>
  </rdf:RDF>
 </metadata>
 <defs>
  <style type="text/css">*{stroke-linecap:butt;stroke-linejoin:round;}</style>
 </defs>
 <g id="figure_1">
  <g id="patch_1">
   <path d="M 0 628.24 
L 574.897003 628.24 
L 574.897003 0 
L 0 0 
z
" style="fill:none;"/>
  </g>
  <g id="axes_1">
   <g id="patch_2">
    <path d="M 77.5875 203.935294 
L 171.573457 203.935294 
L 171.573457 31.6 
L 77.5875 31.6 
z
" style="fill:#ffffff;"/>
   </g>
   <g id="matplotlib.axis_1"/>
   <g id="matplotlib.axis_2">
    <g id="ytick_1">
     <g id="line2d_1">
      <path clip-path="url(#pbf557e60d5)" d="M 77.5875 174.786895 
L 171.573457 174.786895 
" style="fill:none;stroke:#eeeeee;stroke-linecap:square;stroke-width:0.8;"/>
     </g>
     <g id="line2d_2">
      <defs>
       <path d="M 0 0 
L -3.5 0 
" id="mbb68fe25fc" style="stroke:#555555;stroke-width:0.8;"/>
      </defs>
      <g>
       <use style="fill:#555555;stroke:#555555;stroke-width:0.8;" x="77.5875" xlink:href="#mbb68fe25fc" y="174.786895"/>
      </g>
     </g>
     <g id="text_1">
      <!-- −0.05 -->
      <g style="fill:#555555;" transform="translate(29.5 180.786895)scale(0.16 -0.16)">
       <defs>
        <path d="M 49.359375 40.625 
L 49.359375 29.109375 
L 7.171875 29.109375 
L 7.171875 40.625 
z
" id="Roboto-Bold-8722"/>
        <path d="M 52.6875 29.4375 
Q 52.6875 13.375 46.09375 6.1875 
Q 39.5 -0.984375 28.75 -0.984375 
Q 18.015625 -0.984375 11.34375 6.1875 
Q 4.6875 13.375 4.6875 29.4375 
L 4.6875 41.796875 
Q 4.6875 57.8125 11.296875 64.9375 
Q 17.921875 72.078125 28.65625 72.078125 
Q 39.359375 72.078125 46 64.984375 
Q 52.640625 57.90625 52.6875 42.046875 
z
M 38.578125 43.75 
Q 38.578125 53.21875 35.984375 56.953125 
Q 33.40625 60.6875 28.65625 60.6875 
Q 24.03125 60.6875 21.4375 57.03125 
Q 18.84375 53.375 18.796875 44.140625 
L 18.796875 27.546875 
Q 18.796875 18.015625 21.40625 14.203125 
Q 24.03125 10.40625 28.765625 10.40625 
Q 33.40625 10.40625 35.96875 14.140625 
Q 38.53125 17.875 38.578125 27.15625 
z
" id="Roboto-Bold-48"/>
        <path d="M 6.15625 6.984375 
Q 6.15625 10.203125 8.328125 12.375 
Q 10.5 14.546875 14.15625 14.546875 
Q 17.828125 14.546875 19.96875 12.375 
Q 22.125 10.203125 22.125 6.984375 
Q 22.125 3.8125 19.96875 1.640625 
Q 17.828125 -0.53125 14.15625 -0.53125 
Q 10.5 -0.53125 8.328125 1.640625 
Q 6.15625 3.8125 6.15625 6.984375 
z
" id="Roboto-Bold-46"/>
        <path d="M 18.21875 32.234375 
L 6.984375 34.96875 
L 11.03125 71.09375 
L 50.875 71.09375 
L 50.875 59.375 
L 22.65625 59.375 
L 20.90625 44.046875 
Q 25.78125 46.734375 31.546875 46.734375 
Q 41.890625 46.734375 47.546875 40.421875 
Q 53.21875 34.125 53.21875 22.859375 
Q 53.21875 13.375 47.359375 6.1875 
Q 41.5 -0.984375 29.25 -0.984375 
Q 20.015625 -0.984375 12.71875 4.484375 
Q 5.421875 9.96875 5.171875 19.828125 
L 19.140625 19.828125 
Q 20.0625 10.40625 29.15625 10.40625 
Q 34.46875 10.40625 36.78125 14.234375 
Q 39.109375 18.0625 39.109375 23.640625 
Q 39.109375 29.25 36.328125 32.6875 
Q 33.546875 36.140625 27.6875 36.140625 
Q 23.828125 36.140625 21.71875 34.890625 
Q 19.625 33.640625 18.21875 32.234375 
z
" id="Roboto-Bold-53"/>
       </defs>
       <use xlink:href="#Roboto-Bold-8722"/>
       <use x="55.566406" xlink:href="#Roboto-Bold-48"/>
       <use x="112.939453" xlink:href="#Roboto-Bold-46"/>
       <use x="142.041016" xlink:href="#Roboto-Bold-48"/>
       <use x="199.414062" xlink:href="#Roboto-Bold-53"/>
      </g>
     </g>
    </g>
    <g id="ytick_2">
     <g id="line2d_3">
      <path clip-path="url(#pbf557e60d5)" d="M 77.5875 130.999717 
L 171.573457 130.999717 
" style="fill:none;stroke:#eeeeee;stroke-linecap:square;stroke-width:0.8;"/>
     </g>
     <g id="line2d_4">
      <g>
       <use style="fill:#555555;stroke:#555555;stroke-width:0.8;" x="77.5875" xlink:href="#mbb68fe25fc" y="130.999717"/>
      </g>
     </g>
     <g id="text_2">
      <!-- 0.00 -->
      <g style="fill:#555555;" transform="translate(38.39 136.999717)scale(0.16 -0.16)">
       <use xlink:href="#Roboto-Bold-48"/>
       <use x="57.373047" xlink:href="#Roboto-Bold-46"/>
       <use x="86.474609" xlink:href="#Roboto-Bold-48"/>
       <use x="143.847656" xlink:href="#Roboto-Bold-48"/>
      </g>
     </g>
    </g>
    <g id="ytick_3">
     <g id="line2d_5">
      <path clip-path="url(#pbf557e60d5)" d="M 77.5875 87.212539 
L 171.573457 87.212539 
" style="fill:none;stroke:#eeeeee;stroke-linecap:square;stroke-width:0.8;"/>
     </g>
     <g id="line2d_6">
      <g>
       <use style="fill:#555555;stroke:#555555;stroke-width:0.8;" x="77.5875" xlink:href="#mbb68fe25fc" y="87.212539"/>
      </g>
     </g>
     <g id="text_3">
      <!-- 0.05 -->
      <g style="fill:#555555;" transform="translate(38.39 93.212539)scale(0.16 -0.16)">
       <use xlink:href="#Roboto-Bold-48"/>
       <use x="57.373047" xlink:href="#Roboto-Bold-46"/>
       <use x="86.474609" xlink:href="#Roboto-Bold-48"/>
       <use x="143.847656" xlink:href="#Roboto-Bold-53"/>
      </g>
     </g>
    </g>
    <g id="ytick_4">
     <g id="line2d_7">
      <path clip-path="url(#pbf557e60d5)" d="M 77.5875 43.425361 
L 171.573457 43.425361 
" style="fill:none;stroke:#eeeeee;stroke-linecap:square;stroke-width:0.8;"/>
     </g>
     <g id="line2d_8">
      <g>
       <use style="fill:#555555;stroke:#555555;stroke-width:0.8;" x="77.5875" xlink:href="#mbb68fe25fc" y="43.425361"/>
      </g>
     </g>
     <g id="text_4">
      <!-- 0.10 -->
      <g style="fill:#555555;" transform="translate(38.39 49.425361)scale(0.16 -0.16)">
       <defs>
        <path d="M 39.109375 71.1875 
L 39.109375 0 
L 25 0 
L 25 54.4375 
L 8.203125 49.21875 
L 8.203125 60.640625 
L 37.59375 71.1875 
z
" id="Roboto-Bold-49"/>
       </defs>
       <use xlink:href="#Roboto-Bold-48"/>
       <use x="57.373047" xlink:href="#Roboto-Bold-46"/>
       <use x="86.474609" xlink:href="#Roboto-Bold-49"/>
       <use x="143.847656" xlink:href="#Roboto-Bold-48"/>
      </g>
     </g>
    </g>
    <g id="text_5">
     <!-- difference -->
     <g style="fill:#555555;" transform="translate(21.6 162.068647)rotate(-90)scale(0.192 -0.192)">
      <defs>
       <path d="M 38.09375 0 
L 37.40625 5.609375 
Q 32.171875 -0.984375 23.875 -0.984375 
Q 14.0625 -0.984375 8.640625 6.640625 
Q 3.21875 14.265625 3.21875 25.78125 
L 3.21875 26.8125 
Q 3.21875 38.875 8.640625 46.34375 
Q 14.0625 53.8125 23.96875 53.8125 
Q 31.6875 53.8125 36.671875 48.09375 
L 36.671875 75 
L 50.828125 75 
L 50.828125 0 
z
M 17.390625 25.78125 
Q 17.390625 19.4375 19.625 14.96875 
Q 21.875 10.5 27.4375 10.5 
Q 33.890625 10.5 36.671875 15.96875 
L 36.671875 36.921875 
Q 33.984375 42.390625 27.546875 42.390625 
Q 22.015625 42.390625 19.703125 37.890625 
Q 17.390625 33.40625 17.390625 25.78125 
z
" id="Roboto-Bold-100"/>
       <path d="M 5.328125 66.5 
Q 5.328125 69.671875 7.46875 71.75 
Q 9.625 73.828125 13.234375 73.828125 
Q 16.84375 73.828125 18.984375 71.75 
Q 21.140625 69.671875 21.140625 66.5 
Q 21.140625 63.375 18.984375 61.296875 
Q 16.84375 59.234375 13.234375 59.234375 
Q 9.625 59.234375 7.46875 61.296875 
Q 5.328125 63.375 5.328125 66.5 
z
M 20.359375 52.828125 
L 20.359375 0 
L 6.203125 0 
L 6.203125 52.828125 
z
" id="Roboto-Bold-105"/>
       <path d="M 33.9375 42.53125 
L 23.4375 42.53125 
L 23.4375 0 
L 9.28125 0 
L 9.28125 42.53125 
L 1.421875 42.53125 
L 1.421875 52.828125 
L 9.28125 52.828125 
L 9.28125 57.421875 
Q 9.28125 66.453125 14.5 71.234375 
Q 19.734375 76.03125 28.65625 76.03125 
Q 32.078125 76.03125 35.890625 75.046875 
L 35.75 64.109375 
Q 33.890625 64.546875 31.390625 64.546875 
Q 23.578125 64.546875 23.4375 57.671875 
L 23.4375 52.828125 
L 33.9375 52.828125 
z
" id="Roboto-Bold-102"/>
       <path d="M 50.390625 8.59375 
Q 47.859375 4.984375 42.671875 2 
Q 37.5 -0.984375 29.78125 -0.984375 
Q 17.484375 -0.984375 10.546875 6.46875 
Q 3.609375 13.921875 3.5625 24.46875 
L 3.5625 26.515625 
Q 3.5625 38.484375 10.21875 46.140625 
Q 16.890625 53.8125 28.21875 53.8125 
Q 39.59375 53.8125 45.546875 46.671875 
Q 51.515625 39.546875 51.515625 27.828125 
L 51.515625 21.828125 
L 17.875 21.828125 
Q 18.609375 16.703125 21.921875 13.546875 
Q 25.25 10.40625 30.671875 10.40625 
Q 38.71875 10.40625 43.40625 16.3125 
z
M 28.125 42.4375 
Q 23.640625 42.4375 21.1875 39.40625 
Q 18.75 36.375 18.015625 31.5 
L 37.640625 31.5 
L 37.640625 32.5625 
Q 37.546875 36.8125 35.28125 39.625 
Q 33.015625 42.4375 28.125 42.4375 
z
" id="Roboto-Bold-101"/>
       <path d="M 30.03125 40.046875 
Q 22.078125 40.046875 19.578125 34.625 
L 19.578125 0 
L 5.421875 0 
L 5.421875 52.828125 
L 18.75 52.828125 
L 19.1875 46.53125 
Q 23.34375 53.8125 30.953125 53.8125 
Q 33.640625 53.8125 35.296875 53.171875 
L 35.15625 39.65625 
z
" id="Roboto-Bold-114"/>
       <path d="M 28.21875 42.390625 
Q 22.21875 42.390625 19.28125 37.3125 
L 19.28125 0 
L 5.171875 0 
L 5.171875 52.828125 
L 18.40625 52.828125 
L 18.890625 46.78125 
Q 24.5625 53.8125 34.078125 53.8125 
Q 41.546875 53.8125 46.140625 49.359375 
Q 50.734375 44.921875 50.78125 33.890625 
L 50.78125 0 
L 36.625 0 
L 36.625 33.6875 
Q 36.625 38.765625 34.453125 40.578125 
Q 32.28125 42.390625 28.21875 42.390625 
z
" id="Roboto-Bold-110"/>
       <path d="M 27.390625 10.40625 
Q 31.25 10.40625 33.734375 12.53125 
Q 36.234375 14.65625 36.28125 18.265625 
L 49.5625 18.265625 
Q 49.46875 9.859375 43.140625 4.4375 
Q 36.8125 -0.984375 27.640625 -0.984375 
Q 15.375 -0.984375 9.296875 6.75 
Q 3.21875 14.5 3.21875 25.734375 
L 3.21875 27.09375 
Q 3.21875 38.28125 9.265625 46.046875 
Q 15.328125 53.8125 27.59375 53.8125 
Q 37.3125 53.8125 43.390625 48.234375 
Q 49.46875 42.671875 49.5625 33.15625 
L 36.28125 33.15625 
Q 36.234375 37.015625 33.9375 39.71875 
Q 31.640625 42.4375 27.34375 42.4375 
Q 21.1875 42.4375 19.28125 37.8125 
Q 17.390625 33.203125 17.390625 25.734375 
Q 17.390625 19.625 19.265625 15.015625 
Q 21.140625 10.40625 27.390625 10.40625 
z
" id="Roboto-Bold-99"/>
      </defs>
      <use xlink:href="#Roboto-Bold-100"/>
      <use x="56.396484" xlink:href="#Roboto-Bold-105"/>
      <use x="82.910156" xlink:href="#Roboto-Bold-102"/>
      <use x="118.75" xlink:href="#Roboto-Bold-102"/>
      <use x="154.589844" xlink:href="#Roboto-Bold-101"/>
      <use x="208.642578" xlink:href="#Roboto-Bold-114"/>
      <use x="245.166016" xlink:href="#Roboto-Bold-101"/>
      <use x="299.21875" xlink:href="#Roboto-Bold-110"/>
      <use x="355.224609" xlink:href="#Roboto-Bold-99"/>
      <use x="407.421875" xlink:href="#Roboto-Bold-101"/>
     </g>
    </g>
   </g>
   <g id="patch_3">
    <path clip-path="url(#pbf557e60d5)" d="M 86.986096 130.999717 
L 162.174861 130.999717 
L 162.174861 123.009189 
L 86.986096 123.009189 
z
" style="fill:#d3d3d3;"/>
   </g>
   <g id="line2d_9">
    <path clip-path="url(#pbf557e60d5)" d="M 77.5875 130.999717 
L 171.573457 130.999717 
" style="fill:none;stroke:#999999;stroke-linecap:square;stroke-width:1.5;"/>
   </g>
   <g id="patch_4">
    <path d="M 77.5875 203.935294 
L 77.5875 31.6 
" style="fill:none;stroke:#555555;stroke-linecap:square;stroke-linejoin:miter;"/>
   </g>
   <g id="patch_5">
    <path d="M 77.5875 203.935294 
L 171.573457 203.935294 
" style="fill:none;stroke:#555555;stroke-linecap:square;stroke-linejoin:miter;"/>
   </g>
   <g id="PathCollection_1">
    <defs>
     <path d="M 0 4 
C 1.060812 4 2.078319 3.578535 2.828427 2.828427 
C 3.578535 2.078319 4 1.060812 4 -0 
C 4 -1.060812 3.578535 -2.078319 2.828427 -2.828427 
C 2.078319 -3.578535 1.060812 -4 0 -4 
C -1.060812 -4 -2.078319 -3.578535 -2.828427 -2.828427 
C -3.578535 -2.078319 -4 -1.060812 -4 0 
C -4 1.060812 -3.578535 2.078319 -2.828427 2.828427 
C -2.078319 3.578535 -1.060812 4 0 4 
z
" id="C0_0_5111ce0b81"/>
    </defs>
    <g clip-path="url(#pbf557e60d5)">
     <use style="fill:#333333;" x="124.580478" xlink:href="#C0_0_5111ce0b81" y="166.039378"/>
    </g>
    <g clip-path="url(#pbf557e60d5)">
     <use style="fill:#333333;" x="124.580478" xlink:href="#C0_0_5111ce0b81" y="142.104434"/>
    </g>
    <g clip-path="url(#pbf557e60d5)">
     <use style="fill:#333333;" x="124.580478" xlink:href="#C0_0_5111ce0b81" y="60.883755"/>
    </g>
   </g>
   <g id="text_6">
    <!-- V1 -->
    <g style="fill:#555555;" transform="translate(112.796478 21.6)scale(0.192 -0.192)">
     <defs>
      <path d="M 65.09375 71.09375 
L 40.28125 0 
L 25.046875 0 
L 0.390625 71.09375 
L 16.609375 71.09375 
L 32.671875 17.671875 
L 48.78125 71.09375 
z
" id="Roboto-Bold-86"/>
     </defs>
     <use xlink:href="#Roboto-Bold-86"/>
     <use x="65.380859" xlink:href="#Roboto-Bold-49"/>
    </g>
   </g>
  </g>
  <g id="axes_2">
   <g id="patch_6">
    <path d="M 171.573457 203.935294 
L 265.559414 203.935294 
L 265.559414 31.6 
L 171.573457 31.6 
z
" style="fill:#ffffff;"/>
   </g>
   <g id="matplotlib.axis_3"/>
   <g id="matplotlib.axis_4">
    <g id="ytick_5">
     <g id="line2d_10">
      <path clip-path="url(#pfa2b326466)" d="M 171.573457 174.786895 
L 265.559414 174.786895 
" style="fill:none;stroke:#eeeeee;stroke-linecap:square;stroke-width:0.8;"/>
     </g>
    </g>
    <g id="ytick_6">
     <g id="line2d_11">
      <path clip-path="url(#pfa2b326466)" d="M 171.573457 130.999717 
L 265.559414 130.999717 
" style="fill:none;stroke:#eeeeee;stroke-linecap:square;stroke-width:0.8;"/>
     </g>
    </g>
    <g id="ytick_7">
     <g id="line2d_12">
      <path clip-path="url(#pfa2b326466)" d="M 171.573457 87.212539 
L 265.559414 87.212539 
" style="fill:none;stroke:#eeeeee;stroke-linecap:square;stroke-width:0.8;"/>
     </g>
    </g>
    <g id="ytick_8">
     <g id="line2d_13">
      <path clip-path="url(#pfa2b326466)" d="M 171.573457 43.425361 
L 265.559414 43.425361 
" style="fill:none;stroke:#eeeeee;stroke-linecap:square;stroke-width:0.8;"/>
     </g>
    </g>
   </g>
   <g id="patch_7">
    <path clip-path="url(#pfa2b326466)" d="M 180.972053 130.999717 
L 256.160818 130.999717 
L 256.160818 131.316341 
L 180.972053 131.316341 
z
" style="fill:#d3d3d3;"/>
   </g>
   <g id="line2d_14">
    <path clip-path="url(#pfa2b326466)" d="M 171.573457 130.999717 
L 265.559414 130.999717 
" style="fill:none;stroke:#999999;stroke-linecap:square;stroke-width:1.5;"/>
   </g>
   <g id="patch_8">
    <path d="M 171.573457 203.935294 
L 265.559414 203.935294 
" style="fill:none;stroke:#555555;stroke-linecap:square;stroke-linejoin:miter;"/>
   </g>
   <g id="PathCollection_2">
    <defs>
     <path d="M 0 4 
C 1.060812 4 2.078319 3.578535 2.828427 2.828427 
C 3.578535 2.078319 4 1.060812 4 -0 
C 4 -1.060812 3.578535 -2.078319 2.828427 -2.828427 
C 2.078319 -3.578535 1.060812 -4 0 -4 
C -1.060812 -4 -2.078319 -3.578535 -2.828427 -2.828427 
C -3.578535 -2.078319 -4 -1.060812 -4 0 
C -4 1.060812 -3.578535 2.078319 -2.828427 2.828427 
C -2.078319 3.578535 -1.060812 4 0 4 
z
" id="C1_0_b88d745702"/>
    </defs>
    <g clip-path="url(#pfa2b326466)">
     <use style="fill:#333333;" x="218.566435" xlink:href="#C1_0_b88d745702" y="146.768464"/>
    </g>
    <g clip-path="url(#pfa2b326466)">
     <use style="fill:#333333;" x="218.566435" xlink:href="#C1_0_b88d745702" y="139.131225"/>
    </g>
    <g clip-path="url(#pfa2b326466)">
     <use style="fill:#333333;" x="218.566435" xlink:href="#C1_0_b88d745702" y="108.049335"/>
    </g>
   </g>
   <g id="text_7">
    <!-- LM -->
    <g style="fill:#555555;" transform="translate(204.958435 21.6)scale(0.192 -0.192)">
     <defs>
      <path d="M 52.09375 11.8125 
L 52.09375 0 
L 6.34375 0 
L 6.34375 71.09375 
L 21.046875 71.09375 
L 21.046875 11.8125 
z
" id="Roboto-Bold-76"/>
      <path d="M 43.75 19.53125 
L 61.96875 71.09375 
L 81.15625 71.09375 
L 81.15625 0 
L 66.453125 0 
L 66.453125 19.4375 
L 67.921875 52.828125 
L 48.78125 0 
L 38.71875 0 
L 19.578125 52.828125 
L 21.046875 19.4375 
L 21.046875 0 
L 6.34375 0 
L 6.34375 71.09375 
L 25.53125 71.09375 
z
" id="Roboto-Bold-77"/>
     </defs>
     <use xlink:href="#Roboto-Bold-76"/>
     <use x="54.150391" xlink:href="#Roboto-Bold-77"/>
    </g>
   </g>
  </g>
  <g id="axes_3">
   <g id="patch_9">
    <path d="M 265.559414 203.935294 
L 359.54537 203.935294 
L 359.54537 31.6 
L 265.559414 31.6 
z
" style="fill:#ffffff;"/>
   </g>
   <g id="matplotlib.axis_5"/>
   <g id="matplotlib.axis_6">
    <g id="ytick_9">
     <g id="line2d_15">
      <path clip-path="url(#p4e1c770035)" d="M 265.559414 174.786895 
L 359.54537 174.786895 
" style="fill:none;stroke:#eeeeee;stroke-linecap:square;stroke-width:0.8;"/>
     </g>
    </g>
    <g id="ytick_10">
     <g id="line2d_16">
      <path clip-path="url(#p4e1c770035)" d="M 265.559414 130.999717 
L 359.54537 130.999717 
" style="fill:none;stroke:#eeeeee;stroke-linecap:square;stroke-width:0.8;"/>
     </g>
    </g>
    <g id="ytick_11">
     <g id="line2d_17">
      <path clip-path="url(#p4e1c770035)" d="M 265.559414 87.212539 
L 359.54537 87.212539 
" style="fill:none;stroke:#eeeeee;stroke-linecap:square;stroke-width:0.8;"/>
     </g>
    </g>
    <g id="ytick_12">
     <g id="line2d_18">
      <path clip-path="url(#p4e1c770035)" d="M 265.559414 43.425361 
L 359.54537 43.425361 
" style="fill:none;stroke:#eeeeee;stroke-linecap:square;stroke-width:0.8;"/>
     </g>
    </g>
   </g>
   <g id="patch_10">
    <path clip-path="url(#p4e1c770035)" d="M 274.958009 130.999717 
L 350.146775 130.999717 
L 350.146775 85.461232 
L 274.958009 85.461232 
z
" style="fill:#d3d3d3;"/>
   </g>
   <g id="line2d_19">
    <path clip-path="url(#p4e1c770035)" d="M 265.559414 130.999717 
L 359.54537 130.999717 
" style="fill:none;stroke:#999999;stroke-linecap:square;stroke-width:1.5;"/>
   </g>
   <g id="patch_11">
    <path d="M 265.559414 203.935294 
L 359.54537 203.935294 
" style="fill:none;stroke:#555555;stroke-linecap:square;stroke-linejoin:miter;"/>
   </g>
   <g id="PathCollection_3">
    <defs>
     <path d="M 0 4 
C 1.060812 4 2.078319 3.578535 2.828427 2.828427 
C 3.578535 2.078319 4 1.060812 4 -0 
C 4 -1.060812 3.578535 -2.078319 2.828427 -2.828427 
C 2.078319 -3.578535 1.060812 -4 0 -4 
C -1.060812 -4 -2.078319 -3.578535 -2.828427 -2.828427 
C -3.578535 -2.078319 -4 -1.060812 -4 0 
C -4 1.060812 -3.578535 2.078319 -2.828427 2.828427 
C -2.078319 3.578535 -1.060812 4 0 4 
z
" id="C2_0_aff13ba05b"/>
    </defs>
    <g clip-path="url(#p4e1c770035)">
     <use style="fill:#333333;" x="312.552392" xlink:href="#C2_0_aff13ba05b" y="113.14608"/>
    </g>
    <g clip-path="url(#p4e1c770035)">
     <use style="fill:#333333;" x="312.552392" xlink:href="#C2_0_aff13ba05b" y="82.268397"/>
    </g>
    <g clip-path="url(#p4e1c770035)">
     <use style="fill:#333333;" x="312.552392" xlink:href="#C2_0_aff13ba05b" y="60.96922"/>
    </g>
   </g>
   <g id="text_8">
    <!-- AL -->
    <g style="fill:#555555;" transform="translate(300.889892 21.6)scale(0.192 -0.192)">
     <defs>
      <path d="M 0.390625 0 
L 26.859375 71.09375 
L 40.4375 71.09375 
L 67.046875 0 
L 51.421875 0 
L 46.53125 14.65625 
L 20.796875 14.65625 
L 15.921875 0 
z
M 24.75 26.515625 
L 42.578125 26.515625 
L 33.6875 53.21875 
z
" id="Roboto-Bold-65"/>
     </defs>
     <use xlink:href="#Roboto-Bold-65"/>
     <use x="67.333984" xlink:href="#Roboto-Bold-76"/>
    </g>
   </g>
  </g>
  <g id="axes_4">
   <g id="patch_12">
    <path d="M 359.54537 203.935294 
L 453.531327 203.935294 
L 453.531327 31.6 
L 359.54537 31.6 
z
" style="fill:#ffffff;"/>
   </g>
   <g id="matplotlib.axis_7"/>
   <g id="matplotlib.axis_8">
    <g id="ytick_13">
     <g id="line2d_20">
      <path clip-path="url(#p5850e6466b)" d="M 359.54537 174.786895 
L 453.531327 174.786895 
" style="fill:none;stroke:#eeeeee;stroke-linecap:square;stroke-width:0.8;"/>
     </g>
    </g>
    <g id="ytick_14">
     <g id="line2d_21">
      <path clip-path="url(#p5850e6466b)" d="M 359.54537 130.999717 
L 453.531327 130.999717 
" style="fill:none;stroke:#eeeeee;stroke-linecap:square;stroke-width:0.8;"/>
     </g>
    </g>
    <g id="ytick_15">
     <g id="line2d_22">
      <path clip-path="url(#p5850e6466b)" d="M 359.54537 87.212539 
L 453.531327 87.212539 
" style="fill:none;stroke:#eeeeee;stroke-linecap:square;stroke-width:0.8;"/>
     </g>
    </g>
    <g id="ytick_16">
     <g id="line2d_23">
      <path clip-path="url(#p5850e6466b)" d="M 359.54537 43.425361 
L 453.531327 43.425361 
" style="fill:none;stroke:#eeeeee;stroke-linecap:square;stroke-width:0.8;"/>
     </g>
    </g>
   </g>
   <g id="patch_13">
    <path clip-path="url(#p5850e6466b)" d="M 368.943966 130.999717 
L 444.132732 130.999717 
L 444.132732 93.066551 
L 368.943966 93.066551 
z
" style="fill:#d3d3d3;"/>
   </g>
   <g id="line2d_24">
    <path clip-path="url(#p5850e6466b)" d="M 359.54537 130.999717 
L 453.531327 130.999717 
" style="fill:none;stroke:#999999;stroke-linecap:square;stroke-width:1.5;"/>
   </g>
   <g id="patch_14">
    <path d="M 359.54537 203.935294 
L 453.531327 203.935294 
" style="fill:none;stroke:#555555;stroke-linecap:square;stroke-linejoin:miter;"/>
   </g>
   <g id="PathCollection_4">
    <defs>
     <path d="M 0 4 
C 1.060812 4 2.078319 3.578535 2.828427 2.828427 
C 3.578535 2.078319 4 1.060812 4 -0 
C 4 -1.060812 3.578535 -2.078319 2.828427 -2.828427 
C 2.078319 -3.578535 1.060812 -4 0 -4 
C -1.060812 -4 -2.078319 -3.578535 -2.828427 -2.828427 
C -3.578535 -2.078319 -4 -1.060812 -4 0 
C -4 1.060812 -3.578535 2.078319 -2.828427 2.828427 
C -2.078319 3.578535 -1.060812 4 0 4 
z
" id="C3_0_b5b06593be"/>
    </defs>
    <g clip-path="url(#p5850e6466b)">
     <use style="fill:#333333;" x="406.538349" xlink:href="#C3_0_b5b06593be" y="163.072851"/>
    </g>
    <g clip-path="url(#p5850e6466b)">
     <use style="fill:#333333;" x="406.538349" xlink:href="#C3_0_b5b06593be" y="76.693379"/>
    </g>
    <g clip-path="url(#p5850e6466b)">
     <use style="fill:#333333;" x="406.538349" xlink:href="#C3_0_b5b06593be" y="39.433422"/>
    </g>
   </g>
   <g id="text_9">
    <!-- PM -->
    <g style="fill:#555555;" transform="translate(391.932849 21.6)scale(0.192 -0.192)">
     <defs>
      <path d="M 21.046875 25.09375 
L 21.046875 0 
L 6.34375 0 
L 6.34375 71.09375 
L 34.125 71.09375 
Q 46.734375 71.09375 53.78125 64.453125 
Q 60.84375 57.8125 60.84375 47.609375 
Q 60.84375 37.3125 53.78125 31.203125 
Q 46.734375 25.09375 34.125 25.09375 
z
M 21.046875 59.234375 
L 21.046875 36.921875 
L 34.125 36.921875 
Q 40.4375 36.921875 43.21875 39.890625 
Q 46 42.875 46 47.515625 
Q 46 52.15625 43.21875 55.6875 
Q 40.4375 59.234375 34.125 59.234375 
z
" id="Roboto-Bold-80"/>
     </defs>
     <use xlink:href="#Roboto-Bold-80"/>
     <use x="64.550781" xlink:href="#Roboto-Bold-77"/>
    </g>
   </g>
  </g>
  <g id="axes_5">
   <g id="patch_15">
    <path d="M 453.531327 203.935294 
L 547.517284 203.935294 
L 547.517284 31.6 
L 453.531327 31.6 
z
" style="fill:#ffffff;"/>
   </g>
   <g id="matplotlib.axis_9"/>
   <g id="matplotlib.axis_10">
    <g id="ytick_17">
     <g id="line2d_25">
      <path clip-path="url(#p0313fc9e6f)" d="M 453.531327 174.786895 
L 547.517284 174.786895 
" style="fill:none;stroke:#eeeeee;stroke-linecap:square;stroke-width:0.8;"/>
     </g>
    </g>
    <g id="ytick_18">
     <g id="line2d_26">
      <path clip-path="url(#p0313fc9e6f)" d="M 453.531327 130.999717 
L 547.517284 130.999717 
" style="fill:none;stroke:#eeeeee;stroke-linecap:square;stroke-width:0.8;"/>
     </g>
    </g>
    <g id="ytick_19">
     <g id="line2d_27">
      <path clip-path="url(#p0313fc9e6f)" d="M 453.531327 87.212539 
L 547.517284 87.212539 
" style="fill:none;stroke:#eeeeee;stroke-linecap:square;stroke-width:0.8;"/>
     </g>
    </g>
    <g id="ytick_20">
     <g id="line2d_28">
      <path clip-path="url(#p0313fc9e6f)" d="M 453.531327 43.425361 
L 547.517284 43.425361 
" style="fill:none;stroke:#eeeeee;stroke-linecap:square;stroke-width:0.8;"/>
     </g>
    </g>
   </g>
   <g id="patch_16">
    <path clip-path="url(#p0313fc9e6f)" d="M 462.929923 130.999717 
L 538.118688 130.999717 
L 538.118688 87.710909 
L 462.929923 87.710909 
z
" style="fill:#d3d3d3;"/>
   </g>
   <g id="line2d_29">
    <path clip-path="url(#p0313fc9e6f)" d="M 453.531327 130.999717 
L 547.517284 130.999717 
" style="fill:none;stroke:#999999;stroke-linecap:square;stroke-width:1.5;"/>
   </g>
   <g id="patch_17">
    <path d="M 453.531327 203.935294 
L 547.517284 203.935294 
" style="fill:none;stroke:#555555;stroke-linecap:square;stroke-linejoin:miter;"/>
   </g>
   <g id="PathCollection_5">
    <defs>
     <path d="M 0 4 
C 1.060812 4 2.078319 3.578535 2.828427 2.828427 
C 3.578535 2.078319 4 1.060812 4 -0 
C 4 -1.060812 3.578535 -2.078319 2.828427 -2.828427 
C 2.078319 -3.578535 1.060812 -4 0 -4 
C -1.060812 -4 -2.078319 -3.578535 -2.828427 -2.828427 
C -3.578535 -2.078319 -4 -1.060812 -4 0 
C -4 1.060812 -3.578535 2.078319 -2.828427 2.828427 
C -2.078319 3.578535 -1.060812 4 0 4 
z
" id="C4_0_ae4849b5a7"/>
    </defs>
    <g clip-path="url(#p0313fc9e6f)">
     <use style="fill:#333333;" x="500.524306" xlink:href="#C4_0_ae4849b5a7" y="117.232989"/>
    </g>
    <g clip-path="url(#p0313fc9e6f)">
     <use style="fill:#333333;" x="500.524306" xlink:href="#C4_0_ae4849b5a7" y="89.059763"/>
    </g>
    <g clip-path="url(#p0313fc9e6f)">
     <use style="fill:#333333;" x="500.524306" xlink:href="#C4_0_ae4849b5a7" y="56.839974"/>
    </g>
   </g>
   <g id="text_10">
    <!-- L2/3 -->
    <g style="fill:#555555;" transform="translate(553.297003 97.961647)rotate(-270)scale(0.192 -0.192)">
     <defs>
      <path d="M 53.5625 11.375 
L 53.5625 0 
L 4.890625 0 
L 4.890625 9.671875 
L 27.875 34.1875 
Q 33.0625 39.890625 35.078125 43.625 
Q 37.109375 47.359375 37.109375 50.53125 
Q 37.109375 55.28125 34.734375 58.015625 
Q 32.375 60.75 27.9375 60.75 
Q 22.90625 60.75 20.234375 57.328125 
Q 17.578125 53.90625 17.578125 48.734375 
L 3.46875 48.734375 
Q 3.46875 58.34375 10.078125 65.234375 
Q 16.703125 72.125 28.171875 72.125 
Q 39.359375 72.125 45.3125 66.71875 
Q 51.265625 61.328125 51.265625 51.953125 
Q 51.265625 44.921875 47.09375 38.59375 
Q 42.921875 32.28125 35.6875 24.703125 
L 23 11.375 
z
" id="Roboto-Bold-50"/>
      <path d="M 36.03125 71.09375 
L 9.859375 -6.109375 
L -0.640625 -6.109375 
L 25.53125 71.09375 
z
" id="Roboto-Bold-47"/>
      <path d="M 19.234375 30.765625 
L 19.234375 41.84375 
L 26.765625 41.84375 
Q 32.078125 41.84375 34.6875 44.5 
Q 37.3125 47.171875 37.3125 51.65625 
Q 37.3125 55.609375 34.9375 58.171875 
Q 32.5625 60.75 27.6875 60.75 
Q 23.828125 60.75 20.96875 58.59375 
Q 18.109375 56.453125 18.109375 52.6875 
L 4 52.6875 
Q 4 61.46875 10.78125 66.796875 
Q 17.578125 72.125 27.296875 72.125 
Q 38.09375 72.125 44.75 66.96875 
Q 51.421875 61.8125 51.421875 51.859375 
Q 51.421875 47.265625 48.578125 43.09375 
Q 45.75 38.921875 40.578125 36.53125 
Q 46.53125 34.421875 49.5 30.09375 
Q 52.484375 25.78125 52.484375 19.96875 
Q 52.484375 9.96875 45.28125 4.484375 
Q 38.09375 -0.984375 27.296875 -0.984375 
Q 21.296875 -0.984375 15.75 1.21875 
Q 10.203125 3.421875 6.65625 7.9375 
Q 3.125 12.453125 3.125 19.484375 
L 17.28125 19.484375 
Q 17.28125 15.53125 20.234375 12.96875 
Q 23.1875 10.40625 27.6875 10.40625 
Q 32.71875 10.40625 35.546875 13.078125 
Q 38.375 15.765625 38.375 20.171875 
Q 38.375 30.765625 26.65625 30.765625 
z
" id="Roboto-Bold-51"/>
     </defs>
     <use xlink:href="#Roboto-Bold-76"/>
     <use x="54.150391" xlink:href="#Roboto-Bold-50"/>
     <use x="111.523438" xlink:href="#Roboto-Bold-47"/>
     <use x="148.925781" xlink:href="#Roboto-Bold-51"/>
    </g>
   </g>
   <g id="text_11">
    <!-- AM -->
    <g style="fill:#555555;" transform="translate(485.651806 21.6)scale(0.192 -0.192)">
     <use xlink:href="#Roboto-Bold-65"/>
     <use x="67.333984" xlink:href="#Roboto-Bold-77"/>
    </g>
   </g>
  </g>
  <g id="axes_6">
   <g id="patch_18">
    <path d="M 77.5875 410.737647 
L 171.573457 410.737647 
L 171.573457 238.402353 
L 77.5875 238.402353 
z
" style="fill:#ffffff;"/>
   </g>
   <g id="matplotlib.axis_11"/>
   <g id="matplotlib.axis_12">
    <g id="ytick_21">
     <g id="line2d_30">
      <path clip-path="url(#p311d909263)" d="M 77.5875 381.589248 
L 171.573457 381.589248 
" style="fill:none;stroke:#eeeeee;stroke-linecap:square;stroke-width:0.8;"/>
     </g>
     <g id="line2d_31">
      <g>
       <use style="fill:#555555;stroke:#555555;stroke-width:0.8;" x="77.5875" xlink:href="#mbb68fe25fc" y="381.589248"/>
      </g>
     </g>
     <g id="text_12">
      <!-- −0.05 -->
      <g style="fill:#555555;" transform="translate(29.5 387.589248)scale(0.16 -0.16)">
       <use xlink:href="#Roboto-Bold-8722"/>
       <use x="55.566406" xlink:href="#Roboto-Bold-48"/>
       <use x="112.939453" xlink:href="#Roboto-Bold-46"/>
       <use x="142.041016" xlink:href="#Roboto-Bold-48"/>
       <use x="199.414062" xlink:href="#Roboto-Bold-53"/>
      </g>
     </g>
    </g>
    <g id="ytick_22">
     <g id="line2d_32">
      <path clip-path="url(#p311d909263)" d="M 77.5875 337.80207 
L 171.573457 337.80207 
" style="fill:none;stroke:#eeeeee;stroke-linecap:square;stroke-width:0.8;"/>
     </g>
     <g id="line2d_33">
      <g>
       <use style="fill:#555555;stroke:#555555;stroke-width:0.8;" x="77.5875" xlink:href="#mbb68fe25fc" y="337.80207"/>
      </g>
     </g>
     <g id="text_13">
      <!-- 0.00 -->
      <g style="fill:#555555;" transform="translate(38.39 343.80207)scale(0.16 -0.16)">
       <use xlink:href="#Roboto-Bold-48"/>
       <use x="57.373047" xlink:href="#Roboto-Bold-46"/>
       <use x="86.474609" xlink:href="#Roboto-Bold-48"/>
       <use x="143.847656" xlink:href="#Roboto-Bold-48"/>
      </g>
     </g>
    </g>
    <g id="ytick_23">
     <g id="line2d_34">
      <path clip-path="url(#p311d909263)" d="M 77.5875 294.014892 
L 171.573457 294.014892 
" style="fill:none;stroke:#eeeeee;stroke-linecap:square;stroke-width:0.8;"/>
     </g>
     <g id="line2d_35">
      <g>
       <use style="fill:#555555;stroke:#555555;stroke-width:0.8;" x="77.5875" xlink:href="#mbb68fe25fc" y="294.014892"/>
      </g>
     </g>
     <g id="text_14">
      <!-- 0.05 -->
      <g style="fill:#555555;" transform="translate(38.39 300.014892)scale(0.16 -0.16)">
       <use xlink:href="#Roboto-Bold-48"/>
       <use x="57.373047" xlink:href="#Roboto-Bold-46"/>
       <use x="86.474609" xlink:href="#Roboto-Bold-48"/>
       <use x="143.847656" xlink:href="#Roboto-Bold-53"/>
      </g>
     </g>
    </g>
    <g id="ytick_24">
     <g id="line2d_36">
      <path clip-path="url(#p311d909263)" d="M 77.5875 250.227713 
L 171.573457 250.227713 
" style="fill:none;stroke:#eeeeee;stroke-linecap:square;stroke-width:0.8;"/>
     </g>
     <g id="line2d_37">
      <g>
       <use style="fill:#555555;stroke:#555555;stroke-width:0.8;" x="77.5875" xlink:href="#mbb68fe25fc" y="250.227713"/>
      </g>
     </g>
     <g id="text_15">
      <!-- 0.10 -->
      <g style="fill:#555555;" transform="translate(38.39 256.227713)scale(0.16 -0.16)">
       <use xlink:href="#Roboto-Bold-48"/>
       <use x="57.373047" xlink:href="#Roboto-Bold-46"/>
       <use x="86.474609" xlink:href="#Roboto-Bold-49"/>
       <use x="143.847656" xlink:href="#Roboto-Bold-48"/>
      </g>
     </g>
    </g>
   </g>
   <g id="patch_19">
    <path clip-path="url(#p311d909263)" d="M 86.986096 337.80207 
L 162.174861 337.80207 
L 162.174861 345.586634 
L 86.986096 345.586634 
z
" style="fill:#d3d3d3;"/>
   </g>
   <g id="line2d_38">
    <path clip-path="url(#p311d909263)" d="M 77.5875 337.80207 
L 171.573457 337.80207 
" style="fill:none;stroke:#999999;stroke-linecap:square;stroke-width:1.5;"/>
   </g>
   <g id="patch_20">
    <path d="M 77.5875 410.737647 
L 77.5875 238.402353 
" style="fill:none;stroke:#555555;stroke-linecap:square;stroke-linejoin:miter;"/>
   </g>
   <g id="patch_21">
    <path d="M 77.5875 410.737647 
L 171.573457 410.737647 
" style="fill:none;stroke:#555555;stroke-linecap:square;stroke-linejoin:miter;"/>
   </g>
   <g id="PathCollection_6">
    <defs>
     <path d="M 0 4 
C 1.060812 4 2.078319 3.578535 2.828427 2.828427 
C 3.578535 2.078319 4 1.060812 4 -0 
C 4 -1.060812 3.578535 -2.078319 2.828427 -2.828427 
C 2.078319 -3.578535 1.060812 -4 0 -4 
C -1.060812 -4 -2.078319 -3.578535 -2.828427 -2.828427 
C -3.578535 -2.078319 -4 -1.060812 -4 0 
C -4 1.060812 -3.578535 2.078319 -2.828427 2.828427 
C -2.078319 3.578535 -1.060812 4 0 4 
z
" id="C5_0_b797604205"/>
    </defs>
    <g clip-path="url(#p311d909263)">
     <use style="fill:#333333;" x="124.580478" xlink:href="#C5_0_b797604205" y="361.05284"/>
    </g>
    <g clip-path="url(#p311d909263)">
     <use style="fill:#333333;" x="124.580478" xlink:href="#C5_0_b797604205" y="352.45975"/>
    </g>
    <g clip-path="url(#p311d909263)">
     <use style="fill:#333333;" x="124.580478" xlink:href="#C5_0_b797604205" y="323.247311"/>
    </g>
   </g>
  </g>
  <g id="axes_7">
   <g id="patch_22">
    <path d="M 171.573457 410.737647 
L 265.559414 410.737647 
L 265.559414 238.402353 
L 171.573457 238.402353 
z
" style="fill:#ffffff;"/>
   </g>
   <g id="matplotlib.axis_13"/>
   <g id="matplotlib.axis_14">
    <g id="ytick_25">
     <g id="line2d_39">
      <path clip-path="url(#p3f292fdd21)" d="M 171.573457 381.589248 
L 265.559414 381.589248 
" style="fill:none;stroke:#eeeeee;stroke-linecap:square;stroke-width:0.8;"/>
     </g>
    </g>
    <g id="ytick_26">
     <g id="line2d_40">
      <path clip-path="url(#p3f292fdd21)" d="M 171.573457 337.80207 
L 265.559414 337.80207 
" style="fill:none;stroke:#eeeeee;stroke-linecap:square;stroke-width:0.8;"/>
     </g>
    </g>
    <g id="ytick_27">
     <g id="line2d_41">
      <path clip-path="url(#p3f292fdd21)" d="M 171.573457 294.014892 
L 265.559414 294.014892 
" style="fill:none;stroke:#eeeeee;stroke-linecap:square;stroke-width:0.8;"/>
     </g>
    </g>
    <g id="ytick_28">
     <g id="line2d_42">
      <path clip-path="url(#p3f292fdd21)" d="M 171.573457 250.227713 
L 265.559414 250.227713 
" style="fill:none;stroke:#eeeeee;stroke-linecap:square;stroke-width:0.8;"/>
     </g>
    </g>
   </g>
   <g id="patch_23">
    <path clip-path="url(#p3f292fdd21)" d="M 180.972053 337.80207 
L 256.160818 337.80207 
L 256.160818 326.688577 
L 180.972053 326.688577 
z
" style="fill:#d3d3d3;"/>
   </g>
   <g id="line2d_43">
    <path clip-path="url(#p3f292fdd21)" d="M 171.573457 337.80207 
L 265.559414 337.80207 
" style="fill:none;stroke:#999999;stroke-linecap:square;stroke-width:1.5;"/>
   </g>
   <g id="patch_24">
    <path d="M 171.573457 410.737647 
L 265.559414 410.737647 
" style="fill:none;stroke:#555555;stroke-linecap:square;stroke-linejoin:miter;"/>
   </g>
   <g id="PathCollection_7">
    <defs>
     <path d="M 0 4 
C 1.060812 4 2.078319 3.578535 2.828427 2.828427 
C 3.578535 2.078319 4 1.060812 4 -0 
C 4 -1.060812 3.578535 -2.078319 2.828427 -2.828427 
C 2.078319 -3.578535 1.060812 -4 0 -4 
C -1.060812 -4 -2.078319 -3.578535 -2.828427 -2.828427 
C -3.578535 -2.078319 -4 -1.060812 -4 0 
C -4 1.060812 -3.578535 2.078319 -2.828427 2.828427 
C -2.078319 3.578535 -1.060812 4 0 4 
z
" id="C6_0_ef9fd46844"/>
    </defs>
    <g clip-path="url(#p3f292fdd21)">
     <use style="fill:#333333;" x="218.566435" xlink:href="#C6_0_ef9fd46844" y="369.84759"/>
    </g>
    <g clip-path="url(#p3f292fdd21)">
     <use style="fill:#333333;" x="218.566435" xlink:href="#C6_0_ef9fd46844" y="314.96294"/>
    </g>
    <g clip-path="url(#p3f292fdd21)">
     <use style="fill:#333333;" x="218.566435" xlink:href="#C6_0_ef9fd46844" y="295.255199"/>
    </g>
   </g>
  </g>
  <g id="axes_8">
   <g id="patch_25">
    <path d="M 265.559414 410.737647 
L 359.54537 410.737647 
L 359.54537 238.402353 
L 265.559414 238.402353 
z
" style="fill:#ffffff;"/>
   </g>
   <g id="matplotlib.axis_15"/>
   <g id="matplotlib.axis_16">
    <g id="ytick_29">
     <g id="line2d_44">
      <path clip-path="url(#pe31754d33a)" d="M 265.559414 381.589248 
L 359.54537 381.589248 
" style="fill:none;stroke:#eeeeee;stroke-linecap:square;stroke-width:0.8;"/>
     </g>
    </g>
    <g id="ytick_30">
     <g id="line2d_45">
      <path clip-path="url(#pe31754d33a)" d="M 265.559414 337.80207 
L 359.54537 337.80207 
" style="fill:none;stroke:#eeeeee;stroke-linecap:square;stroke-width:0.8;"/>
     </g>
    </g>
    <g id="ytick_31">
     <g id="line2d_46">
      <path clip-path="url(#pe31754d33a)" d="M 265.559414 294.014892 
L 359.54537 294.014892 
" style="fill:none;stroke:#eeeeee;stroke-linecap:square;stroke-width:0.8;"/>
     </g>
    </g>
    <g id="ytick_32">
     <g id="line2d_47">
      <path clip-path="url(#pe31754d33a)" d="M 265.559414 250.227713 
L 359.54537 250.227713 
" style="fill:none;stroke:#eeeeee;stroke-linecap:square;stroke-width:0.8;"/>
     </g>
    </g>
   </g>
   <g id="patch_26">
    <path clip-path="url(#pe31754d33a)" d="M 274.958009 337.80207 
L 350.146775 337.80207 
L 350.146775 335.338001 
L 274.958009 335.338001 
z
" style="fill:#d3d3d3;"/>
   </g>
   <g id="line2d_48">
    <path clip-path="url(#pe31754d33a)" d="M 265.559414 337.80207 
L 359.54537 337.80207 
" style="fill:none;stroke:#999999;stroke-linecap:square;stroke-width:1.5;"/>
   </g>
   <g id="patch_27">
    <path d="M 265.559414 410.737647 
L 359.54537 410.737647 
" style="fill:none;stroke:#555555;stroke-linecap:square;stroke-linejoin:miter;"/>
   </g>
   <g id="PathCollection_8">
    <defs>
     <path d="M 0 4 
C 1.060812 4 2.078319 3.578535 2.828427 2.828427 
C 3.578535 2.078319 4 1.060812 4 -0 
C 4 -1.060812 3.578535 -2.078319 2.828427 -2.828427 
C 2.078319 -3.578535 1.060812 -4 0 -4 
C -1.060812 -4 -2.078319 -3.578535 -2.828427 -2.828427 
C -3.578535 -2.078319 -4 -1.060812 -4 0 
C -4 1.060812 -3.578535 2.078319 -2.828427 2.828427 
C -2.078319 3.578535 -1.060812 4 0 4 
z
" id="C7_0_14bac47753"/>
    </defs>
    <g clip-path="url(#pe31754d33a)">
     <use style="fill:#333333;" x="312.552392" xlink:href="#C7_0_14bac47753" y="338.930231"/>
    </g>
    <g clip-path="url(#pe31754d33a)">
     <use style="fill:#333333;" x="302.932618" xlink:href="#C7_0_14bac47753" y="338.798987"/>
    </g>
    <g clip-path="url(#pe31754d33a)">
     <use style="fill:#333333;" x="312.552392" xlink:href="#C7_0_14bac47753" y="328.284784"/>
    </g>
   </g>
  </g>
  <g id="axes_9">
   <g id="patch_28">
    <path d="M 359.54537 410.737647 
L 453.531327 410.737647 
L 453.531327 238.402353 
L 359.54537 238.402353 
z
" style="fill:#ffffff;"/>
   </g>
   <g id="matplotlib.axis_17"/>
   <g id="matplotlib.axis_18">
    <g id="ytick_33">
     <g id="line2d_49">
      <path clip-path="url(#p455dc88d05)" d="M 359.54537 381.589248 
L 453.531327 381.589248 
" style="fill:none;stroke:#eeeeee;stroke-linecap:square;stroke-width:0.8;"/>
     </g>
    </g>
    <g id="ytick_34">
     <g id="line2d_50">
      <path clip-path="url(#p455dc88d05)" d="M 359.54537 337.80207 
L 453.531327 337.80207 
" style="fill:none;stroke:#eeeeee;stroke-linecap:square;stroke-width:0.8;"/>
     </g>
    </g>
    <g id="ytick_35">
     <g id="line2d_51">
      <path clip-path="url(#p455dc88d05)" d="M 359.54537 294.014892 
L 453.531327 294.014892 
" style="fill:none;stroke:#eeeeee;stroke-linecap:square;stroke-width:0.8;"/>
     </g>
    </g>
    <g id="ytick_36">
     <g id="line2d_52">
      <path clip-path="url(#p455dc88d05)" d="M 359.54537 250.227713 
L 453.531327 250.227713 
" style="fill:none;stroke:#eeeeee;stroke-linecap:square;stroke-width:0.8;"/>
     </g>
    </g>
   </g>
   <g id="patch_29">
    <path clip-path="url(#p455dc88d05)" d="M 368.943966 337.80207 
L 444.132732 337.80207 
L 444.132732 337.247707 
L 368.943966 337.247707 
z
" style="fill:#d3d3d3;"/>
   </g>
   <g id="line2d_53">
    <path clip-path="url(#p455dc88d05)" d="M 359.54537 337.80207 
L 453.531327 337.80207 
" style="fill:none;stroke:#999999;stroke-linecap:square;stroke-width:1.5;"/>
   </g>
   <g id="patch_30">
    <path d="M 359.54537 410.737647 
L 453.531327 410.737647 
" style="fill:none;stroke:#555555;stroke-linecap:square;stroke-linejoin:miter;"/>
   </g>
   <g id="PathCollection_9">
    <defs>
     <path d="M 0 4 
C 1.060812 4 2.078319 3.578535 2.828427 2.828427 
C 3.578535 2.078319 4 1.060812 4 -0 
C 4 -1.060812 3.578535 -2.078319 2.828427 -2.828427 
C 2.078319 -3.578535 1.060812 -4 0 -4 
C -1.060812 -4 -2.078319 -3.578535 -2.828427 -2.828427 
C -3.578535 -2.078319 -4 -1.060812 -4 0 
C -4 1.060812 -3.578535 2.078319 -2.828427 2.828427 
C -2.078319 3.578535 -1.060812 4 0 4 
z
" id="C8_0_8af7841010"/>
    </defs>
    <g clip-path="url(#p455dc88d05)">
     <use style="fill:#333333;" x="406.538349" xlink:href="#C8_0_8af7841010" y="341.66404"/>
    </g>
    <g clip-path="url(#p455dc88d05)">
     <use style="fill:#333333;" x="400.054743" xlink:href="#C8_0_8af7841010" y="336.922829"/>
    </g>
    <g clip-path="url(#p455dc88d05)">
     <use style="fill:#333333;" x="407.844524" xlink:href="#C8_0_8af7841010" y="333.15625"/>
    </g>
   </g>
  </g>
  <g id="axes_10">
   <g id="patch_31">
    <path d="M 453.531327 410.737647 
L 547.517284 410.737647 
L 547.517284 238.402353 
L 453.531327 238.402353 
z
" style="fill:#ffffff;"/>
   </g>
   <g id="matplotlib.axis_19"/>
   <g id="matplotlib.axis_20">
    <g id="ytick_37">
     <g id="line2d_54">
      <path clip-path="url(#pa8546cb7ee)" d="M 453.531327 381.589248 
L 547.517284 381.589248 
" style="fill:none;stroke:#eeeeee;stroke-linecap:square;stroke-width:0.8;"/>
     </g>
    </g>
    <g id="ytick_38">
     <g id="line2d_55">
      <path clip-path="url(#pa8546cb7ee)" d="M 453.531327 337.80207 
L 547.517284 337.80207 
" style="fill:none;stroke:#eeeeee;stroke-linecap:square;stroke-width:0.8;"/>
     </g>
    </g>
    <g id="ytick_39">
     <g id="line2d_56">
      <path clip-path="url(#pa8546cb7ee)" d="M 453.531327 294.014892 
L 547.517284 294.014892 
" style="fill:none;stroke:#eeeeee;stroke-linecap:square;stroke-width:0.8;"/>
     </g>
    </g>
    <g id="ytick_40">
     <g id="line2d_57">
      <path clip-path="url(#pa8546cb7ee)" d="M 453.531327 250.227713 
L 547.517284 250.227713 
" style="fill:none;stroke:#eeeeee;stroke-linecap:square;stroke-width:0.8;"/>
     </g>
    </g>
   </g>
   <g id="patch_32">
    <path clip-path="url(#pa8546cb7ee)" d="M 462.929923 337.80207 
L 538.118688 337.80207 
L 538.118688 298.479891 
L 462.929923 298.479891 
z
" style="fill:#d3d3d3;"/>
   </g>
   <g id="line2d_58">
    <path clip-path="url(#pa8546cb7ee)" d="M 453.531327 337.80207 
L 547.517284 337.80207 
" style="fill:none;stroke:#999999;stroke-linecap:square;stroke-width:1.5;"/>
   </g>
   <g id="patch_33">
    <path d="M 453.531327 410.737647 
L 547.517284 410.737647 
" style="fill:none;stroke:#555555;stroke-linecap:square;stroke-linejoin:miter;"/>
   </g>
   <g id="PathCollection_10">
    <defs>
     <path d="M 0 4 
C 1.060812 4 2.078319 3.578535 2.828427 2.828427 
C 3.578535 2.078319 4 1.060812 4 -0 
C 4 -1.060812 3.578535 -2.078319 2.828427 -2.828427 
C 2.078319 -3.578535 1.060812 -4 0 -4 
C -1.060812 -4 -2.078319 -3.578535 -2.828427 -2.828427 
C -3.578535 -2.078319 -4 -1.060812 -4 0 
C -4 1.060812 -3.578535 2.078319 -2.828427 2.828427 
C -2.078319 3.578535 -1.060812 4 0 4 
z
" id="C9_0_b08167cdbb"/>
    </defs>
    <g clip-path="url(#pa8546cb7ee)">
     <use style="fill:#333333;" x="500.524306" xlink:href="#C9_0_b08167cdbb" y="344.569551"/>
    </g>
    <g clip-path="url(#pa8546cb7ee)">
     <use style="fill:#333333;" x="500.524306" xlink:href="#C9_0_b08167cdbb" y="303.341208"/>
    </g>
    <g clip-path="url(#pa8546cb7ee)">
     <use style="fill:#333333;" x="500.524306" xlink:href="#C9_0_b08167cdbb" y="247.528913"/>
    </g>
   </g>
   <g id="text_16">
    <!-- L4 -->
    <g style="fill:#555555;" transform="translate(553.297003 313.863)rotate(-270)scale(0.192 -0.192)">
     <defs>
      <path d="M 2.734375 24.265625 
L 32.375 71.09375 
L 46.625 71.09375 
L 46.625 26.765625 
L 54.6875 26.765625 
L 54.6875 15.375 
L 46.625 15.375 
L 46.625 0 
L 32.515625 0 
L 32.515625 15.375 
L 3.375 15.375 
z
M 16.75 26.765625 
L 32.515625 26.765625 
L 32.515625 52 
L 31.546875 50.296875 
z
" id="Roboto-Bold-52"/>
     </defs>
     <use xlink:href="#Roboto-Bold-76"/>
     <use x="54.150391" xlink:href="#Roboto-Bold-52"/>
    </g>
   </g>
  </g>
  <g id="axes_11">
   <g id="patch_34">
    <path d="M 77.5875 617.54 
L 171.573457 617.54 
L 171.573457 445.204706 
L 77.5875 445.204706 
z
" style="fill:#ffffff;"/>
   </g>
   <g id="matplotlib.axis_21"/>
   <g id="matplotlib.axis_22">
    <g id="ytick_41">
     <g id="line2d_59">
      <path clip-path="url(#pda048ad792)" d="M 77.5875 588.391601 
L 171.573457 588.391601 
" style="fill:none;stroke:#eeeeee;stroke-linecap:square;stroke-width:0.8;"/>
     </g>
     <g id="line2d_60">
      <g>
       <use style="fill:#555555;stroke:#555555;stroke-width:0.8;" x="77.5875" xlink:href="#mbb68fe25fc" y="588.391601"/>
      </g>
     </g>
     <g id="text_17">
      <!-- −0.05 -->
      <g style="fill:#555555;" transform="translate(29.5 594.391601)scale(0.16 -0.16)">
       <use xlink:href="#Roboto-Bold-8722"/>
       <use x="55.566406" xlink:href="#Roboto-Bold-48"/>
       <use x="112.939453" xlink:href="#Roboto-Bold-46"/>
       <use x="142.041016" xlink:href="#Roboto-Bold-48"/>
       <use x="199.414062" xlink:href="#Roboto-Bold-53"/>
      </g>
     </g>
    </g>
    <g id="ytick_42">
     <g id="line2d_61">
      <path clip-path="url(#pda048ad792)" d="M 77.5875 544.604423 
L 171.573457 544.604423 
" style="fill:none;stroke:#eeeeee;stroke-linecap:square;stroke-width:0.8;"/>
     </g>
     <g id="line2d_62">
      <g>
       <use style="fill:#555555;stroke:#555555;stroke-width:0.8;" x="77.5875" xlink:href="#mbb68fe25fc" y="544.604423"/>
      </g>
     </g>
     <g id="text_18">
      <!-- 0.00 -->
      <g style="fill:#555555;" transform="translate(38.39 550.604423)scale(0.16 -0.16)">
       <use xlink:href="#Roboto-Bold-48"/>
       <use x="57.373047" xlink:href="#Roboto-Bold-46"/>
       <use x="86.474609" xlink:href="#Roboto-Bold-48"/>
       <use x="143.847656" xlink:href="#Roboto-Bold-48"/>
      </g>
     </g>
    </g>
    <g id="ytick_43">
     <g id="line2d_63">
      <path clip-path="url(#pda048ad792)" d="M 77.5875 500.817245 
L 171.573457 500.817245 
" style="fill:none;stroke:#eeeeee;stroke-linecap:square;stroke-width:0.8;"/>
     </g>
     <g id="line2d_64">
      <g>
       <use style="fill:#555555;stroke:#555555;stroke-width:0.8;" x="77.5875" xlink:href="#mbb68fe25fc" y="500.817245"/>
      </g>
     </g>
     <g id="text_19">
      <!-- 0.05 -->
      <g style="fill:#555555;" transform="translate(38.39 506.817245)scale(0.16 -0.16)">
       <use xlink:href="#Roboto-Bold-48"/>
       <use x="57.373047" xlink:href="#Roboto-Bold-46"/>
       <use x="86.474609" xlink:href="#Roboto-Bold-48"/>
       <use x="143.847656" xlink:href="#Roboto-Bold-53"/>
      </g>
     </g>
    </g>
    <g id="ytick_44">
     <g id="line2d_65">
      <path clip-path="url(#pda048ad792)" d="M 77.5875 457.030066 
L 171.573457 457.030066 
" style="fill:none;stroke:#eeeeee;stroke-linecap:square;stroke-width:0.8;"/>
     </g>
     <g id="line2d_66">
      <g>
       <use style="fill:#555555;stroke:#555555;stroke-width:0.8;" x="77.5875" xlink:href="#mbb68fe25fc" y="457.030066"/>
      </g>
     </g>
     <g id="text_20">
      <!-- 0.10 -->
      <g style="fill:#555555;" transform="translate(38.39 463.030066)scale(0.16 -0.16)">
       <use xlink:href="#Roboto-Bold-48"/>
       <use x="57.373047" xlink:href="#Roboto-Bold-46"/>
       <use x="86.474609" xlink:href="#Roboto-Bold-49"/>
       <use x="143.847656" xlink:href="#Roboto-Bold-48"/>
      </g>
     </g>
    </g>
   </g>
   <g id="patch_35">
    <path clip-path="url(#pda048ad792)" d="M 86.986096 544.604423 
L 162.174861 544.604423 
L 162.174861 536.312262 
L 86.986096 536.312262 
z
" style="fill:#d3d3d3;"/>
   </g>
   <g id="line2d_67">
    <path clip-path="url(#pda048ad792)" d="M 77.5875 544.604423 
L 171.573457 544.604423 
" style="fill:none;stroke:#999999;stroke-linecap:square;stroke-width:1.5;"/>
   </g>
   <g id="patch_36">
    <path d="M 77.5875 617.54 
L 77.5875 445.204706 
" style="fill:none;stroke:#555555;stroke-linecap:square;stroke-linejoin:miter;"/>
   </g>
   <g id="patch_37">
    <path d="M 77.5875 617.54 
L 171.573457 617.54 
" style="fill:none;stroke:#555555;stroke-linecap:square;stroke-linejoin:miter;"/>
   </g>
   <g id="PathCollection_11">
    <defs>
     <path d="M 0 4 
C 1.060812 4 2.078319 3.578535 2.828427 2.828427 
C 3.578535 2.078319 4 1.060812 4 -0 
C 4 -1.060812 3.578535 -2.078319 2.828427 -2.828427 
C 2.078319 -3.578535 1.060812 -4 0 -4 
C -1.060812 -4 -2.078319 -3.578535 -2.828427 -2.828427 
C -3.578535 -2.078319 -4 -1.060812 -4 0 
C -4 1.060812 -3.578535 2.078319 -2.828427 2.828427 
C -2.078319 3.578535 -1.060812 4 0 4 
z
" id="Ca_0_a83adc8270"/>
    </defs>
    <g clip-path="url(#pda048ad792)">
     <use style="fill:#333333;" x="124.580478" xlink:href="#Ca_0_a83adc8270" y="547.975461"/>
    </g>
    <g clip-path="url(#pda048ad792)">
     <use style="fill:#333333;" x="124.580478" xlink:href="#Ca_0_a83adc8270" y="530.497447"/>
    </g>
    <g clip-path="url(#pda048ad792)">
     <use style="fill:#333333;" x="114.958823" xlink:href="#Ca_0_a83adc8270" y="530.463877"/>
    </g>
   </g>
  </g>
  <g id="axes_12">
   <g id="patch_38">
    <path d="M 171.573457 617.54 
L 265.559414 617.54 
L 265.559414 445.204706 
L 171.573457 445.204706 
z
" style="fill:#ffffff;"/>
   </g>
   <g id="matplotlib.axis_23"/>
   <g id="matplotlib.axis_24">
    <g id="ytick_45">
     <g id="line2d_68">
      <path clip-path="url(#pc1c0d870e0)" d="M 171.573457 588.391601 
L 265.559414 588.391601 
" style="fill:none;stroke:#eeeeee;stroke-linecap:square;stroke-width:0.8;"/>
     </g>
    </g>
    <g id="ytick_46">
     <g id="line2d_69">
      <path clip-path="url(#pc1c0d870e0)" d="M 171.573457 544.604423 
L 265.559414 544.604423 
" style="fill:none;stroke:#eeeeee;stroke-linecap:square;stroke-width:0.8;"/>
     </g>
    </g>
    <g id="ytick_47">
     <g id="line2d_70">
      <path clip-path="url(#pc1c0d870e0)" d="M 171.573457 500.817245 
L 265.559414 500.817245 
" style="fill:none;stroke:#eeeeee;stroke-linecap:square;stroke-width:0.8;"/>
     </g>
    </g>
    <g id="ytick_48">
     <g id="line2d_71">
      <path clip-path="url(#pc1c0d870e0)" d="M 171.573457 457.030066 
L 265.559414 457.030066 
" style="fill:none;stroke:#eeeeee;stroke-linecap:square;stroke-width:0.8;"/>
     </g>
    </g>
   </g>
   <g id="patch_39">
    <path clip-path="url(#pc1c0d870e0)" d="M 180.972053 544.604423 
L 256.160818 544.604423 
L 256.160818 556.358467 
L 180.972053 556.358467 
z
" style="fill:#d3d3d3;"/>
   </g>
   <g id="line2d_72">
    <path clip-path="url(#pc1c0d870e0)" d="M 171.573457 544.604423 
L 265.559414 544.604423 
" style="fill:none;stroke:#999999;stroke-linecap:square;stroke-width:1.5;"/>
   </g>
   <g id="patch_40">
    <path d="M 171.573457 617.54 
L 265.559414 617.54 
" style="fill:none;stroke:#555555;stroke-linecap:square;stroke-linejoin:miter;"/>
   </g>
   <g id="PathCollection_12">
    <defs>
     <path d="M 0 4 
C 1.060812 4 2.078319 3.578535 2.828427 2.828427 
C 3.578535 2.078319 4 1.060812 4 -0 
C 4 -1.060812 3.578535 -2.078319 2.828427 -2.828427 
C 2.078319 -3.578535 1.060812 -4 0 -4 
C -1.060812 -4 -2.078319 -3.578535 -2.828427 -2.828427 
C -3.578535 -2.078319 -4 -1.060812 -4 0 
C -4 1.060812 -3.578535 2.078319 -2.828427 2.828427 
C -2.078319 3.578535 -1.060812 4 0 4 
z
" id="Cb_0_a1fda3b909"/>
    </defs>
    <g clip-path="url(#pc1c0d870e0)">
     <use style="fill:#333333;" x="218.566435" xlink:href="#Cb_0_a1fda3b909" y="578.753522"/>
    </g>
    <g clip-path="url(#pc1c0d870e0)">
     <use style="fill:#333333;" x="218.566435" xlink:href="#Cb_0_a1fda3b909" y="557.01613"/>
    </g>
    <g clip-path="url(#pc1c0d870e0)">
     <use style="fill:#333333;" x="218.566435" xlink:href="#Cb_0_a1fda3b909" y="533.305751"/>
    </g>
   </g>
  </g>
  <g id="axes_13">
   <g id="patch_41">
    <path d="M 265.559414 617.54 
L 359.54537 617.54 
L 359.54537 445.204706 
L 265.559414 445.204706 
z
" style="fill:#ffffff;"/>
   </g>
   <g id="matplotlib.axis_25"/>
   <g id="matplotlib.axis_26">
    <g id="ytick_49">
     <g id="line2d_73">
      <path clip-path="url(#p7ac827d014)" d="M 265.559414 588.391601 
L 359.54537 588.391601 
" style="fill:none;stroke:#eeeeee;stroke-linecap:square;stroke-width:0.8;"/>
     </g>
    </g>
    <g id="ytick_50">
     <g id="line2d_74">
      <path clip-path="url(#p7ac827d014)" d="M 265.559414 544.604423 
L 359.54537 544.604423 
" style="fill:none;stroke:#eeeeee;stroke-linecap:square;stroke-width:0.8;"/>
     </g>
    </g>
    <g id="ytick_51">
     <g id="line2d_75">
      <path clip-path="url(#p7ac827d014)" d="M 265.559414 500.817245 
L 359.54537 500.817245 
" style="fill:none;stroke:#eeeeee;stroke-linecap:square;stroke-width:0.8;"/>
     </g>
    </g>
    <g id="ytick_52">
     <g id="line2d_76">
      <path clip-path="url(#p7ac827d014)" d="M 265.559414 457.030066 
L 359.54537 457.030066 
" style="fill:none;stroke:#eeeeee;stroke-linecap:square;stroke-width:0.8;"/>
     </g>
    </g>
   </g>
   <g id="patch_42">
    <path clip-path="url(#p7ac827d014)" d="M 274.958009 544.604423 
L 350.146775 544.604423 
L 350.146775 532.47606 
L 274.958009 532.47606 
z
" style="fill:#d3d3d3;"/>
   </g>
   <g id="line2d_77">
    <path clip-path="url(#p7ac827d014)" d="M 265.559414 544.604423 
L 359.54537 544.604423 
" style="fill:none;stroke:#999999;stroke-linecap:square;stroke-width:1.5;"/>
   </g>
   <g id="patch_43">
    <path d="M 265.559414 617.54 
L 359.54537 617.54 
" style="fill:none;stroke:#555555;stroke-linecap:square;stroke-linejoin:miter;"/>
   </g>
   <g id="PathCollection_13">
    <defs>
     <path d="M 0 4 
C 1.060812 4 2.078319 3.578535 2.828427 2.828427 
C 3.578535 2.078319 4 1.060812 4 -0 
C 4 -1.060812 3.578535 -2.078319 2.828427 -2.828427 
C 2.078319 -3.578535 1.060812 -4 0 -4 
C -1.060812 -4 -2.078319 -3.578535 -2.828427 -2.828427 
C -3.578535 -2.078319 -4 -1.060812 -4 0 
C -4 1.060812 -3.578535 2.078319 -2.828427 2.828427 
C -2.078319 3.578535 -1.060812 4 0 4 
z
" id="Cc_0_5ee1cb0e6b"/>
    </defs>
    <g clip-path="url(#p7ac827d014)">
     <use style="fill:#333333;" x="312.552392" xlink:href="#Cc_0_5ee1cb0e6b" y="560.079989"/>
    </g>
    <g clip-path="url(#p7ac827d014)">
     <use style="fill:#333333;" x="312.552392" xlink:href="#Cc_0_5ee1cb0e6b" y="504.872131"/>
    </g>
   </g>
  </g>
  <g id="axes_14">
   <g id="patch_44">
    <path d="M 359.54537 617.54 
L 453.531327 617.54 
L 453.531327 445.204706 
L 359.54537 445.204706 
z
" style="fill:#ffffff;"/>
   </g>
   <g id="matplotlib.axis_27"/>
   <g id="matplotlib.axis_28">
    <g id="ytick_53">
     <g id="line2d_78">
      <path clip-path="url(#p1117e63c54)" d="M 359.54537 588.391601 
L 453.531327 588.391601 
" style="fill:none;stroke:#eeeeee;stroke-linecap:square;stroke-width:0.8;"/>
     </g>
    </g>
    <g id="ytick_54">
     <g id="line2d_79">
      <path clip-path="url(#p1117e63c54)" d="M 359.54537 544.604423 
L 453.531327 544.604423 
" style="fill:none;stroke:#eeeeee;stroke-linecap:square;stroke-width:0.8;"/>
     </g>
    </g>
    <g id="ytick_55">
     <g id="line2d_80">
      <path clip-path="url(#p1117e63c54)" d="M 359.54537 500.817245 
L 453.531327 500.817245 
" style="fill:none;stroke:#eeeeee;stroke-linecap:square;stroke-width:0.8;"/>
     </g>
    </g>
    <g id="ytick_56">
     <g id="line2d_81">
      <path clip-path="url(#p1117e63c54)" d="M 359.54537 457.030066 
L 453.531327 457.030066 
" style="fill:none;stroke:#eeeeee;stroke-linecap:square;stroke-width:0.8;"/>
     </g>
    </g>
   </g>
   <g id="patch_45">
    <path clip-path="url(#p1117e63c54)" d="M 368.943966 544.604423 
L 444.132732 544.604423 
L 444.132732 580.008437 
L 368.943966 580.008437 
z
" style="fill:#d3d3d3;"/>
   </g>
   <g id="line2d_82">
    <path clip-path="url(#p1117e63c54)" d="M 359.54537 544.604423 
L 453.531327 544.604423 
" style="fill:none;stroke:#999999;stroke-linecap:square;stroke-width:1.5;"/>
   </g>
   <g id="patch_46">
    <path d="M 359.54537 617.54 
L 453.531327 617.54 
" style="fill:none;stroke:#555555;stroke-linecap:square;stroke-linejoin:miter;"/>
   </g>
   <g id="PathCollection_14">
    <defs>
     <path d="M 0 4 
C 1.060812 4 2.078319 3.578535 2.828427 2.828427 
C 3.578535 2.078319 4 1.060812 4 -0 
C 4 -1.060812 3.578535 -2.078319 2.828427 -2.828427 
C 2.078319 -3.578535 1.060812 -4 0 -4 
C -1.060812 -4 -2.078319 -3.578535 -2.828427 -2.828427 
C -3.578535 -2.078319 -4 -1.060812 -4 0 
C -4 1.060812 -3.578535 2.078319 -2.828427 2.828427 
C -2.078319 3.578535 -1.060812 4 0 4 
z
" id="Cd_0_d8dfe2db76"/>
    </defs>
    <g clip-path="url(#p1117e63c54)">
     <use style="fill:#333333;" x="406.538349" xlink:href="#Cd_0_d8dfe2db76" y="609.706578"/>
    </g>
    <g clip-path="url(#p1117e63c54)">
     <use style="fill:#333333;" x="406.538349" xlink:href="#Cd_0_d8dfe2db76" y="591.45225"/>
    </g>
    <g clip-path="url(#p1117e63c54)">
     <use style="fill:#333333;" x="406.538349" xlink:href="#Cd_0_d8dfe2db76" y="538.866483"/>
    </g>
   </g>
  </g>
  <g id="axes_15">
   <g id="patch_47">
    <path d="M 453.531327 617.54 
L 547.517284 617.54 
L 547.517284 445.204706 
L 453.531327 445.204706 
z
" style="fill:#ffffff;"/>
   </g>
   <g id="matplotlib.axis_29"/>
   <g id="matplotlib.axis_30">
    <g id="ytick_57">
     <g id="line2d_83">
      <path clip-path="url(#p9c88c70cd3)" d="M 453.531327 588.391601 
L 547.517284 588.391601 
" style="fill:none;stroke:#eeeeee;stroke-linecap:square;stroke-width:0.8;"/>
     </g>
    </g>
    <g id="ytick_58">
     <g id="line2d_84">
      <path clip-path="url(#p9c88c70cd3)" d="M 453.531327 544.604423 
L 547.517284 544.604423 
" style="fill:none;stroke:#eeeeee;stroke-linecap:square;stroke-width:0.8;"/>
     </g>
    </g>
    <g id="ytick_59">
     <g id="line2d_85">
      <path clip-path="url(#p9c88c70cd3)" d="M 453.531327 500.817245 
L 547.517284 500.817245 
" style="fill:none;stroke:#eeeeee;stroke-linecap:square;stroke-width:0.8;"/>
     </g>
    </g>
    <g id="ytick_60">
     <g id="line2d_86">
      <path clip-path="url(#p9c88c70cd3)" d="M 453.531327 457.030066 
L 547.517284 457.030066 
" style="fill:none;stroke:#eeeeee;stroke-linecap:square;stroke-width:0.8;"/>
     </g>
    </g>
   </g>
   <g id="patch_48">
    <path clip-path="url(#p9c88c70cd3)" d="M 462.929923 544.604423 
L 538.118688 544.604423 
L 538.118688 537.469965 
L 462.929923 537.469965 
z
" style="fill:#d3d3d3;"/>
   </g>
   <g id="line2d_87">
    <path clip-path="url(#p9c88c70cd3)" d="M 453.531327 544.604423 
L 547.517284 544.604423 
" style="fill:none;stroke:#999999;stroke-linecap:square;stroke-width:1.5;"/>
   </g>
   <g id="patch_49">
    <path d="M 453.531327 617.54 
L 547.517284 617.54 
" style="fill:none;stroke:#555555;stroke-linecap:square;stroke-linejoin:miter;"/>
   </g>
   <g id="PathCollection_15">
    <defs>
     <path d="M 0 4 
C 1.060812 4 2.078319 3.578535 2.828427 2.828427 
C 3.578535 2.078319 4 1.060812 4 -0 
C 4 -1.060812 3.578535 -2.078319 2.828427 -2.828427 
C 2.078319 -3.578535 1.060812 -4 0 -4 
C -1.060812 -4 -2.078319 -3.578535 -2.828427 -2.828427 
C -3.578535 -2.078319 -4 -1.060812 -4 0 
C -4 1.060812 -3.578535 2.078319 -2.828427 2.828427 
C -2.078319 3.578535 -1.060812 4 0 4 
z
" id="Ce_0_b45b073ef9"/>
    </defs>
    <g clip-path="url(#p9c88c70cd3)">
     <use style="fill:#333333;" x="500.524306" xlink:href="#Ce_0_b45b073ef9" y="539.115065"/>
    </g>
    <g clip-path="url(#p9c88c70cd3)">
     <use style="fill:#333333;" x="490.90477" xlink:href="#Ce_0_b45b073ef9" y="538.943325"/>
    </g>
    <g clip-path="url(#p9c88c70cd3)">
     <use style="fill:#333333;" x="508.222409" xlink:href="#Ce_0_b45b073ef9" y="534.351507"/>
    </g>
   </g>
   <g id="text_21">
    <!-- L5 -->
    <g style="fill:#555555;" transform="translate(553.297003 520.665353)rotate(-270)scale(0.192 -0.192)">
     <use xlink:href="#Roboto-Bold-76"/>
     <use x="54.150391" xlink:href="#Roboto-Bold-53"/>
    </g>
   </g>
  </g>
 </g>
 <defs>
  <clipPath id="pbf557e60d5">
   <rect height="172.335294" width="93.985957" x="77.5875" y="31.6"/>
  </clipPath>
  <clipPath id="pfa2b326466">
   <rect height="172.335294" width="93.985957" x="171.573457" y="31.6"/>
  </clipPath>
  <clipPath id="p4e1c770035">
   <rect height="172.335294" width="93.985957" x="265.559414" y="31.6"/>
  </clipPath>
  <clipPath id="p5850e6466b">
   <rect height="172.335294" width="93.985957" x="359.54537" y="31.6"/>
  </clipPath>
  <clipPath id="p0313fc9e6f">
   <rect height="172.335294" width="93.985957" x="453.531327" y="31.6"/>
  </clipPath>
  <clipPath id="p311d909263">
   <rect height="172.335294" width="93.985957" x="77.5875" y="238.402353"/>
  </clipPath>
  <clipPath id="p3f292fdd21">
   <rect height="172.335294" width="93.985957" x="171.573457" y="238.402353"/>
  </clipPath>
  <clipPath id="pe31754d33a">
   <rect height="172.335294" width="93.985957" x="265.559414" y="238.402353"/>
  </clipPath>
  <clipPath id="p455dc88d05">
   <rect height="172.335294" width="93.985957" x="359.54537" y="238.402353"/>
  </clipPath>
  <clipPath id="pa8546cb7ee">
   <rect height="172.335294" width="93.985957" x="453.531327" y="238.402353"/>
  </clipPath>
  <clipPath id="pda048ad792">
   <rect height="172.335294" width="93.985957" x="77.5875" y="445.204706"/>
  </clipPath>
  <clipPath id="pc1c0d870e0">
   <rect height="172.335294" width="93.985957" x="171.573457" y="445.204706"/>
  </clipPath>
  <clipPath id="p7ac827d014">
   <rect height="172.335294" width="93.985957" x="265.559414" y="445.204706"/>
  </clipPath>
  <clipPath id="p1117e63c54">
   <rect height="172.335294" width="93.985957" x="359.54537" y="445.204706"/>
  </clipPath>
  <clipPath id="p9c88c70cd3">
   <rect height="172.335294" width="93.985957" x="453.531327" y="445.204706"/>
  </clipPath>
 </defs>
</svg>
