<?xml version="1.0" encoding="utf-8" standalone="no"?>
<!DOCTYPE svg PUBLIC "-//W3C//DTD SVG 1.1//EN"
  "http://www.w3.org/Graphics/SVG/1.1/DTD/svg11.dtd">
<!-- Created with matplotlib (https://matplotlib.org/) -->
<svg height="215.92875pt" version="1.1" viewBox="0 0 285.717187 215.92875" width="285.717187pt" xmlns="http://www.w3.org/2000/svg" xmlns:xlink="http://www.w3.org/1999/xlink">
 <metadata>
  <rdf:RDF xmlns:cc="http://creativecommons.org/ns#" xmlns:dc="http://purl.org/dc/elements/1.1/" xmlns:rdf="http://www.w3.org/1999/02/22-rdf-syntax-ns#">
   <cc:Work>
    <dc:type rdf:resource="http://purl.org/dc/dcmitype/StillImage"/>
    <dc:date>2021-12-14T13:33:23.394301</dc:date>
    <dc:format>image/svg+xml</dc:format>
    <dc:creator>
     <cc:Agent>
      <dc:title>Matplotlib v3.3.4, https://matplotlib.org/</dc:title>
     </cc:Agent>
    </dc:creator>
   </cc:Work>
  </rdf:RDF>
 </metadata>
 <defs>
  <style type="text/css">*{stroke-linecap:butt;stroke-linejoin:round;}</style>
 </defs>
 <g id="figure_1">
  <g id="patch_1">
   <path d="M 0 215.92875 
L 285.717187 215.92875 
L 285.717187 0 
L 0 0 
z
" style="fill:none;"/>
  </g>
  <g id="axes_1">
   <g id="patch_2">
    <path d="M 55.317188 176.76 
L 278.517187 176.76 
L 278.517187 7.2 
L 55.317188 7.2 
z
" style="fill:#ffffff;"/>
   </g>
   <g id="matplotlib.axis_1">
    <g id="xtick_1">
     <g id="line2d_1">
      <defs>
       <path d="M 0 0 
L 0 3.5 
" id="m78a2639d37" style="stroke:#555555;stroke-width:0.8;"/>
      </defs>
      <g>
       <use style="fill:#555555;stroke:#555555;stroke-width:0.8;" x="65.462642" xlink:href="#m78a2639d37" y="176.76"/>
      </g>
     </g>
     <g id="text_1">
      <!-- 0 -->
      <g style="fill:#555555;" transform="translate(62.593892 191.26)scale(0.1 -0.1)">
       <defs>
        <path d="M 52.6875 29.4375 
Q 52.6875 13.375 46.09375 6.1875 
Q 39.5 -0.984375 28.75 -0.984375 
Q 18.015625 -0.984375 11.34375 6.1875 
Q 4.6875 13.375 4.6875 29.4375 
L 4.6875 41.796875 
Q 4.6875 57.8125 11.296875 64.9375 
Q 17.921875 72.078125 28.65625 72.078125 
Q 39.359375 72.078125 46 64.984375 
Q 52.640625 57.90625 52.6875 42.046875 
z
M 38.578125 43.75 
Q 38.578125 53.21875 35.984375 56.953125 
Q 33.40625 60.6875 28.65625 60.6875 
Q 24.03125 60.6875 21.4375 57.03125 
Q 18.84375 53.375 18.796875 44.140625 
L 18.796875 27.546875 
Q 18.796875 18.015625 21.40625 14.203125 
Q 24.03125 10.40625 28.765625 10.40625 
Q 33.40625 10.40625 35.96875 14.140625 
Q 38.53125 17.875 38.578125 27.15625 
z
" id="Roboto-Bold-48"/>
       </defs>
       <use xlink:href="#Roboto-Bold-48"/>
      </g>
     </g>
    </g>
    <g id="xtick_2">
     <g id="line2d_2">
      <g>
       <use style="fill:#555555;stroke:#555555;stroke-width:0.8;" x="126.335369" xlink:href="#m78a2639d37" y="176.76"/>
      </g>
     </g>
     <g id="text_2">
      <!-- 1 -->
      <g style="fill:#555555;" transform="translate(123.466619 191.26)scale(0.1 -0.1)">
       <defs>
        <path d="M 39.109375 71.1875 
L 39.109375 0 
L 25 0 
L 25 54.4375 
L 8.203125 49.21875 
L 8.203125 60.640625 
L 37.59375 71.1875 
z
" id="Roboto-Bold-49"/>
       </defs>
       <use xlink:href="#Roboto-Bold-49"/>
      </g>
     </g>
    </g>
    <g id="xtick_3">
     <g id="line2d_3">
      <g>
       <use style="fill:#555555;stroke:#555555;stroke-width:0.8;" x="187.208097" xlink:href="#m78a2639d37" y="176.76"/>
      </g>
     </g>
     <g id="text_3">
      <!-- 2 -->
      <g style="fill:#555555;" transform="translate(184.339347 191.26)scale(0.1 -0.1)">
       <defs>
        <path d="M 53.5625 11.375 
L 53.5625 0 
L 4.890625 0 
L 4.890625 9.671875 
L 27.875 34.1875 
Q 33.0625 39.890625 35.078125 43.625 
Q 37.109375 47.359375 37.109375 50.53125 
Q 37.109375 55.28125 34.734375 58.015625 
Q 32.375 60.75 27.9375 60.75 
Q 22.90625 60.75 20.234375 57.328125 
Q 17.578125 53.90625 17.578125 48.734375 
L 3.46875 48.734375 
Q 3.46875 58.34375 10.078125 65.234375 
Q 16.703125 72.125 28.171875 72.125 
Q 39.359375 72.125 45.3125 66.71875 
Q 51.265625 61.328125 51.265625 51.953125 
Q 51.265625 44.921875 47.09375 38.59375 
Q 42.921875 32.28125 35.6875 24.703125 
L 23 11.375 
z
" id="Roboto-Bold-50"/>
       </defs>
       <use xlink:href="#Roboto-Bold-50"/>
      </g>
     </g>
    </g>
    <g id="xtick_4">
     <g id="line2d_4">
      <g>
       <use style="fill:#555555;stroke:#555555;stroke-width:0.8;" x="248.080824" xlink:href="#m78a2639d37" y="176.76"/>
      </g>
     </g>
     <g id="text_4">
      <!-- 3 -->
      <g style="fill:#555555;" transform="translate(245.212074 191.26)scale(0.1 -0.1)">
       <defs>
        <path d="M 19.234375 30.765625 
L 19.234375 41.84375 
L 26.765625 41.84375 
Q 32.078125 41.84375 34.6875 44.5 
Q 37.3125 47.171875 37.3125 51.65625 
Q 37.3125 55.609375 34.9375 58.171875 
Q 32.5625 60.75 27.6875 60.75 
Q 23.828125 60.75 20.96875 58.59375 
Q 18.109375 56.453125 18.109375 52.6875 
L 4 52.6875 
Q 4 61.46875 10.78125 66.796875 
Q 17.578125 72.125 27.296875 72.125 
Q 38.09375 72.125 44.75 66.96875 
Q 51.421875 61.8125 51.421875 51.859375 
Q 51.421875 47.265625 48.578125 43.09375 
Q 45.75 38.921875 40.578125 36.53125 
Q 46.53125 34.421875 49.5 30.09375 
Q 52.484375 25.78125 52.484375 19.96875 
Q 52.484375 9.96875 45.28125 4.484375 
Q 38.09375 -0.984375 27.296875 -0.984375 
Q 21.296875 -0.984375 15.75 1.21875 
Q 10.203125 3.421875 6.65625 7.9375 
Q 3.125 12.453125 3.125 19.484375 
L 17.28125 19.484375 
Q 17.28125 15.53125 20.234375 12.96875 
Q 23.1875 10.40625 27.6875 10.40625 
Q 32.71875 10.40625 35.546875 13.078125 
Q 38.375 15.765625 38.375 20.171875 
Q 38.375 30.765625 26.65625 30.765625 
z
" id="Roboto-Bold-51"/>
       </defs>
       <use xlink:href="#Roboto-Bold-51"/>
      </g>
     </g>
    </g>
    <g id="text_5">
     <!-- seconds -->
     <g style="fill:#555555;" transform="translate(144.229688 206.29125)scale(0.12 -0.12)">
      <defs>
       <path d="M 34.03125 14.65625 
Q 34.03125 16.890625 31.953125 18.421875 
Q 29.890625 19.96875 23.046875 21.4375 
Q 14.890625 23.1875 9.65625 26.890625 
Q 4.4375 30.609375 4.4375 37.40625 
Q 4.4375 44 10.03125 48.90625 
Q 15.625 53.8125 25.484375 53.8125 
Q 35.796875 53.8125 41.703125 48.96875 
Q 47.609375 44.140625 47.609375 36.765625 
L 33.5 36.765625 
Q 33.5 39.796875 31.546875 41.796875 
Q 29.59375 43.796875 25.4375 43.796875 
Q 21.921875 43.796875 19.9375 42.15625 
Q 17.96875 40.53125 17.96875 38.09375 
Q 17.96875 35.84375 20.0625 34.375 
Q 22.171875 32.90625 27.828125 31.78125 
Q 36.421875 30.078125 42.078125 26.5625 
Q 47.75 23.046875 47.75 15.1875 
Q 47.75 8.203125 41.75 3.609375 
Q 35.75 -0.984375 25.53125 -0.984375 
Q 14.453125 -0.984375 8.59375 4.703125 
Q 2.734375 10.40625 2.734375 16.84375 
L 16.15625 16.84375 
Q 16.359375 12.703125 19.21875 10.890625 
Q 22.078125 9.078125 25.828125 9.078125 
Q 34.03125 9.078125 34.03125 14.65625 
z
" id="Roboto-Bold-115"/>
       <path d="M 50.390625 8.59375 
Q 47.859375 4.984375 42.671875 2 
Q 37.5 -0.984375 29.78125 -0.984375 
Q 17.484375 -0.984375 10.546875 6.46875 
Q 3.609375 13.921875 3.5625 24.46875 
L 3.5625 26.515625 
Q 3.5625 38.484375 10.21875 46.140625 
Q 16.890625 53.8125 28.21875 53.8125 
Q 39.59375 53.8125 45.546875 46.671875 
Q 51.515625 39.546875 51.515625 27.828125 
L 51.515625 21.828125 
L 17.875 21.828125 
Q 18.609375 16.703125 21.921875 13.546875 
Q 25.25 10.40625 30.671875 10.40625 
Q 38.71875 10.40625 43.40625 16.3125 
z
M 28.125 42.4375 
Q 23.640625 42.4375 21.1875 39.40625 
Q 18.75 36.375 18.015625 31.5 
L 37.640625 31.5 
L 37.640625 32.5625 
Q 37.546875 36.8125 35.28125 39.625 
Q 33.015625 42.4375 28.125 42.4375 
z
" id="Roboto-Bold-101"/>
       <path d="M 27.390625 10.40625 
Q 31.25 10.40625 33.734375 12.53125 
Q 36.234375 14.65625 36.28125 18.265625 
L 49.5625 18.265625 
Q 49.46875 9.859375 43.140625 4.4375 
Q 36.8125 -0.984375 27.640625 -0.984375 
Q 15.375 -0.984375 9.296875 6.75 
Q 3.21875 14.5 3.21875 25.734375 
L 3.21875 27.09375 
Q 3.21875 38.28125 9.265625 46.046875 
Q 15.328125 53.8125 27.59375 53.8125 
Q 37.3125 53.8125 43.390625 48.234375 
Q 49.46875 42.671875 49.5625 33.15625 
L 36.28125 33.15625 
Q 36.234375 37.015625 33.9375 39.71875 
Q 31.640625 42.4375 27.34375 42.4375 
Q 21.1875 42.4375 19.28125 37.8125 
Q 17.390625 33.203125 17.390625 25.734375 
Q 17.390625 19.625 19.265625 15.015625 
Q 21.140625 10.40625 27.390625 10.40625 
z
" id="Roboto-Bold-99"/>
       <path d="M 3.21875 26.90625 
Q 3.21875 38.421875 9.765625 46.109375 
Q 16.3125 53.8125 28.21875 53.8125 
Q 40.28125 53.8125 46.765625 46.109375 
Q 53.265625 38.421875 53.265625 26.90625 
L 53.265625 25.875 
Q 53.265625 14.359375 46.765625 6.6875 
Q 40.28125 -0.984375 28.328125 -0.984375 
Q 16.453125 -0.984375 9.9375 6.484375 
Q 3.421875 13.96875 3.21875 25.25 
z
M 17.390625 25.875 
Q 17.390625 19.4375 19.84375 14.921875 
Q 22.3125 10.40625 28.328125 10.40625 
Q 34.234375 10.40625 36.6875 14.890625 
Q 39.15625 19.390625 39.15625 26.90625 
Q 39.15625 33.203125 36.6875 37.8125 
Q 34.234375 42.4375 28.21875 42.4375 
Q 22.265625 42.4375 19.828125 37.84375 
Q 17.390625 33.25 17.390625 25.875 
z
" id="Roboto-Bold-111"/>
       <path d="M 28.21875 42.390625 
Q 22.21875 42.390625 19.28125 37.3125 
L 19.28125 0 
L 5.171875 0 
L 5.171875 52.828125 
L 18.40625 52.828125 
L 18.890625 46.78125 
Q 24.5625 53.8125 34.078125 53.8125 
Q 41.546875 53.8125 46.140625 49.359375 
Q 50.734375 44.921875 50.78125 33.890625 
L 50.78125 0 
L 36.625 0 
L 36.625 33.6875 
Q 36.625 38.765625 34.453125 40.578125 
Q 32.28125 42.390625 28.21875 42.390625 
z
" id="Roboto-Bold-110"/>
       <path d="M 38.09375 0 
L 37.40625 5.609375 
Q 32.171875 -0.984375 23.875 -0.984375 
Q 14.0625 -0.984375 8.640625 6.640625 
Q 3.21875 14.265625 3.21875 25.78125 
L 3.21875 26.8125 
Q 3.21875 38.875 8.640625 46.34375 
Q 14.0625 53.8125 23.96875 53.8125 
Q 31.6875 53.8125 36.671875 48.09375 
L 36.671875 75 
L 50.828125 75 
L 50.828125 0 
z
M 17.390625 25.78125 
Q 17.390625 19.4375 19.625 14.96875 
Q 21.875 10.5 27.4375 10.5 
Q 33.890625 10.5 36.671875 15.96875 
L 36.671875 36.921875 
Q 33.984375 42.390625 27.546875 42.390625 
Q 22.015625 42.390625 19.703125 37.890625 
Q 17.390625 33.40625 17.390625 25.78125 
z
" id="Roboto-Bold-100"/>
      </defs>
      <use xlink:href="#Roboto-Bold-115"/>
      <use x="51.464844" xlink:href="#Roboto-Bold-101"/>
      <use x="105.517578" xlink:href="#Roboto-Bold-99"/>
      <use x="157.714844" xlink:href="#Roboto-Bold-111"/>
      <use x="214.257812" xlink:href="#Roboto-Bold-110"/>
      <use x="270.263672" xlink:href="#Roboto-Bold-100"/>
      <use x="326.660156" xlink:href="#Roboto-Bold-115"/>
     </g>
    </g>
   </g>
   <g id="matplotlib.axis_2">
    <g id="ytick_1">
     <g id="line2d_5">
      <path clip-path="url(#p5aa7ae53eb)" d="M 55.317188 156.808251 
L 278.517187 156.808251 
" style="fill:none;stroke:#eeeeee;stroke-linecap:square;stroke-width:0.8;"/>
     </g>
     <g id="line2d_6">
      <defs>
       <path d="M 0 0 
L -3.5 0 
" id="ma3ca0b19be" style="stroke:#555555;stroke-width:0.8;"/>
      </defs>
      <g>
       <use style="fill:#555555;stroke:#555555;stroke-width:0.8;" x="55.317188" xlink:href="#ma3ca0b19be" y="156.808251"/>
      </g>
     </g>
     <g id="text_6">
      <!-- −0.05 -->
      <g style="fill:#555555;" transform="translate(22.6375 160.558251)scale(0.1 -0.1)">
       <defs>
        <path d="M 49.359375 40.625 
L 49.359375 29.109375 
L 7.171875 29.109375 
L 7.171875 40.625 
z
" id="Roboto-Bold-8722"/>
        <path d="M 6.15625 6.984375 
Q 6.15625 10.203125 8.328125 12.375 
Q 10.5 14.546875 14.15625 14.546875 
Q 17.828125 14.546875 19.96875 12.375 
Q 22.125 10.203125 22.125 6.984375 
Q 22.125 3.8125 19.96875 1.640625 
Q 17.828125 -0.53125 14.15625 -0.53125 
Q 10.5 -0.53125 8.328125 1.640625 
Q 6.15625 3.8125 6.15625 6.984375 
z
" id="Roboto-Bold-46"/>
        <path d="M 18.21875 32.234375 
L 6.984375 34.96875 
L 11.03125 71.09375 
L 50.875 71.09375 
L 50.875 59.375 
L 22.65625 59.375 
L 20.90625 44.046875 
Q 25.78125 46.734375 31.546875 46.734375 
Q 41.890625 46.734375 47.546875 40.421875 
Q 53.21875 34.125 53.21875 22.859375 
Q 53.21875 13.375 47.359375 6.1875 
Q 41.5 -0.984375 29.25 -0.984375 
Q 20.015625 -0.984375 12.71875 4.484375 
Q 5.421875 9.96875 5.171875 19.828125 
L 19.140625 19.828125 
Q 20.0625 10.40625 29.15625 10.40625 
Q 34.46875 10.40625 36.78125 14.234375 
Q 39.109375 18.0625 39.109375 23.640625 
Q 39.109375 29.25 36.328125 32.6875 
Q 33.546875 36.140625 27.6875 36.140625 
Q 23.828125 36.140625 21.71875 34.890625 
Q 19.625 33.640625 18.21875 32.234375 
z
" id="Roboto-Bold-53"/>
       </defs>
       <use xlink:href="#Roboto-Bold-8722"/>
       <use x="55.566406" xlink:href="#Roboto-Bold-48"/>
       <use x="112.939453" xlink:href="#Roboto-Bold-46"/>
       <use x="142.041016" xlink:href="#Roboto-Bold-48"/>
       <use x="199.414062" xlink:href="#Roboto-Bold-53"/>
      </g>
     </g>
    </g>
    <g id="ytick_2">
     <g id="line2d_7">
      <path clip-path="url(#p5aa7ae53eb)" d="M 55.317188 130.472342 
L 278.517187 130.472342 
" style="fill:none;stroke:#eeeeee;stroke-linecap:square;stroke-width:0.8;"/>
     </g>
     <g id="line2d_8">
      <g>
       <use style="fill:#555555;stroke:#555555;stroke-width:0.8;" x="55.317188" xlink:href="#ma3ca0b19be" y="130.472342"/>
      </g>
     </g>
     <g id="text_7">
      <!-- 0.00 -->
      <g style="fill:#555555;" transform="translate(28.19375 134.222342)scale(0.1 -0.1)">
       <use xlink:href="#Roboto-Bold-48"/>
       <use x="57.373047" xlink:href="#Roboto-Bold-46"/>
       <use x="86.474609" xlink:href="#Roboto-Bold-48"/>
       <use x="143.847656" xlink:href="#Roboto-Bold-48"/>
      </g>
     </g>
    </g>
    <g id="ytick_3">
     <g id="line2d_9">
      <path clip-path="url(#p5aa7ae53eb)" d="M 55.317188 104.136433 
L 278.517187 104.136433 
" style="fill:none;stroke:#eeeeee;stroke-linecap:square;stroke-width:0.8;"/>
     </g>
     <g id="line2d_10">
      <g>
       <use style="fill:#555555;stroke:#555555;stroke-width:0.8;" x="55.317188" xlink:href="#ma3ca0b19be" y="104.136433"/>
      </g>
     </g>
     <g id="text_8">
      <!-- 0.05 -->
      <g style="fill:#555555;" transform="translate(28.19375 107.886433)scale(0.1 -0.1)">
       <use xlink:href="#Roboto-Bold-48"/>
       <use x="57.373047" xlink:href="#Roboto-Bold-46"/>
       <use x="86.474609" xlink:href="#Roboto-Bold-48"/>
       <use x="143.847656" xlink:href="#Roboto-Bold-53"/>
      </g>
     </g>
    </g>
    <g id="ytick_4">
     <g id="line2d_11">
      <path clip-path="url(#p5aa7ae53eb)" d="M 55.317188 77.800524 
L 278.517187 77.800524 
" style="fill:none;stroke:#eeeeee;stroke-linecap:square;stroke-width:0.8;"/>
     </g>
     <g id="line2d_12">
      <g>
       <use style="fill:#555555;stroke:#555555;stroke-width:0.8;" x="55.317188" xlink:href="#ma3ca0b19be" y="77.800524"/>
      </g>
     </g>
     <g id="text_9">
      <!-- 0.10 -->
      <g style="fill:#555555;" transform="translate(28.19375 81.550524)scale(0.1 -0.1)">
       <use xlink:href="#Roboto-Bold-48"/>
       <use x="57.373047" xlink:href="#Roboto-Bold-46"/>
       <use x="86.474609" xlink:href="#Roboto-Bold-49"/>
       <use x="143.847656" xlink:href="#Roboto-Bold-48"/>
      </g>
     </g>
    </g>
    <g id="ytick_5">
     <g id="line2d_13">
      <path clip-path="url(#p5aa7ae53eb)" d="M 55.317188 51.464615 
L 278.517187 51.464615 
" style="fill:none;stroke:#eeeeee;stroke-linecap:square;stroke-width:0.8;"/>
     </g>
     <g id="line2d_14">
      <g>
       <use style="fill:#555555;stroke:#555555;stroke-width:0.8;" x="55.317188" xlink:href="#ma3ca0b19be" y="51.464615"/>
      </g>
     </g>
     <g id="text_10">
      <!-- 0.15 -->
      <g style="fill:#555555;" transform="translate(28.19375 55.214615)scale(0.1 -0.1)">
       <use xlink:href="#Roboto-Bold-48"/>
       <use x="57.373047" xlink:href="#Roboto-Bold-46"/>
       <use x="86.474609" xlink:href="#Roboto-Bold-49"/>
       <use x="143.847656" xlink:href="#Roboto-Bold-53"/>
      </g>
     </g>
    </g>
    <g id="ytick_6">
     <g id="line2d_15">
      <path clip-path="url(#p5aa7ae53eb)" d="M 55.317188 25.128706 
L 278.517187 25.128706 
" style="fill:none;stroke:#eeeeee;stroke-linecap:square;stroke-width:0.8;"/>
     </g>
     <g id="line2d_16">
      <g>
       <use style="fill:#555555;stroke:#555555;stroke-width:0.8;" x="55.317188" xlink:href="#ma3ca0b19be" y="25.128706"/>
      </g>
     </g>
     <g id="text_11">
      <!-- 0.20 -->
      <g style="fill:#555555;" transform="translate(28.19375 28.878706)scale(0.1 -0.1)">
       <use xlink:href="#Roboto-Bold-48"/>
       <use x="57.373047" xlink:href="#Roboto-Bold-46"/>
       <use x="86.474609" xlink:href="#Roboto-Bold-50"/>
       <use x="143.847656" xlink:href="#Roboto-Bold-48"/>
      </g>
     </g>
    </g>
    <g id="text_12">
     <!-- dF/F -->
     <g style="fill:#555555;" transform="translate(16.2 104.187188)rotate(-90)scale(0.12 -0.12)">
      <defs>
       <path d="M 6.34375 0 
L 6.34375 71.09375 
L 52.6875 71.09375 
L 52.6875 59.234375 
L 21.046875 59.234375 
L 21.046875 40.875 
L 49.171875 40.875 
L 49.171875 29.046875 
L 21.046875 29.046875 
L 21.046875 0 
z
" id="Roboto-Bold-70"/>
       <path d="M 36.03125 71.09375 
L 9.859375 -6.109375 
L -0.640625 -6.109375 
L 25.53125 71.09375 
z
" id="Roboto-Bold-47"/>
      </defs>
      <use xlink:href="#Roboto-Bold-100"/>
      <use x="56.396484" xlink:href="#Roboto-Bold-70"/>
      <use x="111.230469" xlink:href="#Roboto-Bold-47"/>
      <use x="148.632812" xlink:href="#Roboto-Bold-70"/>
     </g>
    </g>
   </g>
   <g id="line2d_17">
    <defs>
     <path d="M 0 1.5 
C 0.397805 1.5 0.77937 1.341951 1.06066 1.06066 
C 1.341951 0.77937 1.5 0.397805 1.5 0 
C 1.5 -0.397805 1.341951 -0.77937 1.06066 -1.06066 
C 0.77937 -1.341951 0.397805 -1.5 0 -1.5 
C -0.397805 -1.5 -0.77937 -1.341951 -1.06066 -1.06066 
C -1.341951 -0.77937 -1.5 -0.397805 -1.5 0 
C -1.5 0.397805 -1.341951 0.77937 -1.06066 1.06066 
C -0.77937 1.341951 -0.397805 1.5 0 1.5 
z
" id="mcb0f361cb3" style="stroke:#000000;"/>
    </defs>
    <g clip-path="url(#p5aa7ae53eb)">
     <use style="stroke:#000000;" x="65.462642" xlink:href="#mcb0f361cb3" y="14.907273"/>
     <use style="stroke:#000000;" x="67.491733" xlink:href="#mcb0f361cb3" y="27.517935"/>
     <use style="stroke:#000000;" x="69.520824" xlink:href="#mcb0f361cb3" y="48.27345"/>
     <use style="stroke:#000000;" x="71.549915" xlink:href="#mcb0f361cb3" y="81.482452"/>
     <use style="stroke:#000000;" x="73.579006" xlink:href="#mcb0f361cb3" y="91.082676"/>
     <use style="stroke:#000000;" x="75.608097" xlink:href="#mcb0f361cb3" y="89.329086"/>
     <use style="stroke:#000000;" x="77.637187" xlink:href="#mcb0f361cb3" y="103.219909"/>
     <use style="stroke:#000000;" x="79.666278" xlink:href="#mcb0f361cb3" y="91.965925"/>
     <use style="stroke:#000000;" x="81.695369" xlink:href="#mcb0f361cb3" y="111.393316"/>
     <use style="stroke:#000000;" x="83.72446" xlink:href="#mcb0f361cb3" y="75.817117"/>
     <use style="stroke:#000000;" x="85.753551" xlink:href="#mcb0f361cb3" y="89.977513"/>
     <use style="stroke:#000000;" x="87.782642" xlink:href="#mcb0f361cb3" y="73.04979"/>
     <use style="stroke:#000000;" x="89.811733" xlink:href="#mcb0f361cb3" y="80.959022"/>
     <use style="stroke:#000000;" x="91.840824" xlink:href="#mcb0f361cb3" y="121.270724"/>
     <use style="stroke:#000000;" x="93.869915" xlink:href="#mcb0f361cb3" y="88.627799"/>
     <use style="stroke:#000000;" x="95.899006" xlink:href="#mcb0f361cb3" y="104.422325"/>
     <use style="stroke:#000000;" x="97.928097" xlink:href="#mcb0f361cb3" y="114.392877"/>
     <use style="stroke:#000000;" x="99.957188" xlink:href="#mcb0f361cb3" y="110.683415"/>
     <use style="stroke:#000000;" x="101.986278" xlink:href="#mcb0f361cb3" y="102.045776"/>
     <use style="stroke:#000000;" x="104.015369" xlink:href="#mcb0f361cb3" y="92.158991"/>
     <use style="stroke:#000000;" x="106.04446" xlink:href="#mcb0f361cb3" y="118.699469"/>
     <use style="stroke:#000000;" x="108.073551" xlink:href="#mcb0f361cb3" y="98.000022"/>
     <use style="stroke:#000000;" x="110.102642" xlink:href="#mcb0f361cb3" y="124.620538"/>
     <use style="stroke:#000000;" x="112.131733" xlink:href="#mcb0f361cb3" y="146.573314"/>
     <use style="stroke:#000000;" x="114.160824" xlink:href="#mcb0f361cb3" y="124.106799"/>
     <use style="stroke:#000000;" x="116.189915" xlink:href="#mcb0f361cb3" y="157.529814"/>
     <use style="stroke:#000000;" x="118.219006" xlink:href="#mcb0f361cb3" y="124.39547"/>
     <use style="stroke:#000000;" x="120.248097" xlink:href="#mcb0f361cb3" y="132.490614"/>
     <use style="stroke:#000000;" x="122.277187" xlink:href="#mcb0f361cb3" y="116.991491"/>
     <use style="stroke:#000000;" x="124.306278" xlink:href="#mcb0f361cb3" y="95.486647"/>
     <use style="stroke:#000000;" x="126.335369" xlink:href="#mcb0f361cb3" y="117.869711"/>
     <use style="stroke:#000000;" x="128.36446" xlink:href="#mcb0f361cb3" y="169.052727"/>
     <use style="stroke:#000000;" x="130.393551" xlink:href="#mcb0f361cb3" y="119.794953"/>
     <use style="stroke:#000000;" x="132.422642" xlink:href="#mcb0f361cb3" y="127.838227"/>
     <use style="stroke:#000000;" x="134.451733" xlink:href="#mcb0f361cb3" y="120.252014"/>
     <use style="stroke:#000000;" x="136.480824" xlink:href="#mcb0f361cb3" y="131.086755"/>
     <use style="stroke:#000000;" x="138.509915" xlink:href="#mcb0f361cb3" y="125.150834"/>
     <use style="stroke:#000000;" x="140.539006" xlink:href="#mcb0f361cb3" y="118.62848"/>
     <use style="stroke:#000000;" x="142.568097" xlink:href="#mcb0f361cb3" y="126.982919"/>
     <use style="stroke:#000000;" x="144.597188" xlink:href="#mcb0f361cb3" y="129.232573"/>
     <use style="stroke:#000000;" x="146.626278" xlink:href="#mcb0f361cb3" y="134.993653"/>
     <use style="stroke:#000000;" x="148.655369" xlink:href="#mcb0f361cb3" y="161.34365"/>
     <use style="stroke:#000000;" x="150.68446" xlink:href="#mcb0f361cb3" y="115.326842"/>
     <use style="stroke:#000000;" x="152.713551" xlink:href="#mcb0f361cb3" y="151.475692"/>
     <use style="stroke:#000000;" x="154.742642" xlink:href="#mcb0f361cb3" y="127.95474"/>
     <use style="stroke:#000000;" x="156.771733" xlink:href="#mcb0f361cb3" y="113.827531"/>
     <use style="stroke:#000000;" x="158.800824" xlink:href="#mcb0f361cb3" y="129.166222"/>
     <use style="stroke:#000000;" x="160.829915" xlink:href="#mcb0f361cb3" y="158.91308"/>
     <use style="stroke:#000000;" x="162.859006" xlink:href="#mcb0f361cb3" y="165.964852"/>
     <use style="stroke:#000000;" x="164.888097" xlink:href="#mcb0f361cb3" y="139.043377"/>
     <use style="stroke:#000000;" x="166.917188" xlink:href="#mcb0f361cb3" y="131.051743"/>
     <use style="stroke:#000000;" x="168.946278" xlink:href="#mcb0f361cb3" y="154.139226"/>
     <use style="stroke:#000000;" x="170.975369" xlink:href="#mcb0f361cb3" y="137.576995"/>
     <use style="stroke:#000000;" x="173.00446" xlink:href="#mcb0f361cb3" y="153.996647"/>
     <use style="stroke:#000000;" x="175.033551" xlink:href="#mcb0f361cb3" y="132.537113"/>
     <use style="stroke:#000000;" x="177.062642" xlink:href="#mcb0f361cb3" y="145.188325"/>
     <use style="stroke:#000000;" x="179.091733" xlink:href="#mcb0f361cb3" y="104.69717"/>
     <use style="stroke:#000000;" x="181.120824" xlink:href="#mcb0f361cb3" y="147.07929"/>
     <use style="stroke:#000000;" x="183.149915" xlink:href="#mcb0f361cb3" y="134.825215"/>
     <use style="stroke:#000000;" x="185.179006" xlink:href="#mcb0f361cb3" y="137.595227"/>
     <use style="stroke:#000000;" x="187.208097" xlink:href="#mcb0f361cb3" y="130.285554"/>
     <use style="stroke:#000000;" x="189.237188" xlink:href="#mcb0f361cb3" y="134.921442"/>
     <use style="stroke:#000000;" x="191.266278" xlink:href="#mcb0f361cb3" y="128.601735"/>
     <use style="stroke:#000000;" x="193.295369" xlink:href="#mcb0f361cb3" y="128.441849"/>
     <use style="stroke:#000000;" x="195.32446" xlink:href="#mcb0f361cb3" y="157.12328"/>
     <use style="stroke:#000000;" x="197.353551" xlink:href="#mcb0f361cb3" y="108.5469"/>
     <use style="stroke:#000000;" x="199.382642" xlink:href="#mcb0f361cb3" y="121.508526"/>
     <use style="stroke:#000000;" x="201.411733" xlink:href="#mcb0f361cb3" y="128.34711"/>
     <use style="stroke:#000000;" x="203.440824" xlink:href="#mcb0f361cb3" y="154.878927"/>
     <use style="stroke:#000000;" x="205.469915" xlink:href="#mcb0f361cb3" y="142.411571"/>
     <use style="stroke:#000000;" x="207.499006" xlink:href="#mcb0f361cb3" y="128.85174"/>
     <use style="stroke:#000000;" x="209.528097" xlink:href="#mcb0f361cb3" y="128.417242"/>
     <use style="stroke:#000000;" x="211.557187" xlink:href="#mcb0f361cb3" y="100.654859"/>
     <use style="stroke:#000000;" x="213.586278" xlink:href="#mcb0f361cb3" y="134.099089"/>
     <use style="stroke:#000000;" x="215.615369" xlink:href="#mcb0f361cb3" y="142.46623"/>
     <use style="stroke:#000000;" x="217.64446" xlink:href="#mcb0f361cb3" y="128.45489"/>
     <use style="stroke:#000000;" x="219.673551" xlink:href="#mcb0f361cb3" y="140.441736"/>
     <use style="stroke:#000000;" x="221.702642" xlink:href="#mcb0f361cb3" y="115.503396"/>
     <use style="stroke:#000000;" x="223.731733" xlink:href="#mcb0f361cb3" y="152.583155"/>
     <use style="stroke:#000000;" x="225.760824" xlink:href="#mcb0f361cb3" y="146.998357"/>
     <use style="stroke:#000000;" x="227.789915" xlink:href="#mcb0f361cb3" y="131.631243"/>
     <use style="stroke:#000000;" x="229.819006" xlink:href="#mcb0f361cb3" y="100.824339"/>
     <use style="stroke:#000000;" x="231.848097" xlink:href="#mcb0f361cb3" y="119.335618"/>
     <use style="stroke:#000000;" x="233.877187" xlink:href="#mcb0f361cb3" y="146.205607"/>
     <use style="stroke:#000000;" x="235.906278" xlink:href="#mcb0f361cb3" y="135.85911"/>
     <use style="stroke:#000000;" x="237.935369" xlink:href="#mcb0f361cb3" y="135.996177"/>
     <use style="stroke:#000000;" x="239.96446" xlink:href="#mcb0f361cb3" y="149.144195"/>
     <use style="stroke:#000000;" x="241.993551" xlink:href="#mcb0f361cb3" y="146.554206"/>
     <use style="stroke:#000000;" x="244.022642" xlink:href="#mcb0f361cb3" y="98.183638"/>
     <use style="stroke:#000000;" x="246.051733" xlink:href="#mcb0f361cb3" y="133.838081"/>
     <use style="stroke:#000000;" x="248.080824" xlink:href="#mcb0f361cb3" y="131.817977"/>
     <use style="stroke:#000000;" x="250.109915" xlink:href="#mcb0f361cb3" y="123.037602"/>
     <use style="stroke:#000000;" x="252.139006" xlink:href="#mcb0f361cb3" y="138.44023"/>
     <use style="stroke:#000000;" x="254.168097" xlink:href="#mcb0f361cb3" y="110.95249"/>
     <use style="stroke:#000000;" x="256.197188" xlink:href="#mcb0f361cb3" y="126.306111"/>
     <use style="stroke:#000000;" x="258.226278" xlink:href="#mcb0f361cb3" y="110.977931"/>
     <use style="stroke:#000000;" x="260.255369" xlink:href="#mcb0f361cb3" y="102.269371"/>
     <use style="stroke:#000000;" x="262.28446" xlink:href="#mcb0f361cb3" y="130.123347"/>
     <use style="stroke:#000000;" x="264.313551" xlink:href="#mcb0f361cb3" y="138.16197"/>
     <use style="stroke:#000000;" x="266.342642" xlink:href="#mcb0f361cb3" y="150.331227"/>
     <use style="stroke:#000000;" x="268.371733" xlink:href="#mcb0f361cb3" y="144.056515"/>
    </g>
   </g>
   <g id="line2d_18">
    <path clip-path="url(#p5aa7ae53eb)" d="M 65.462642 35.647206 
L 67.491733 44.64132 
L 69.520824 52.803671 
L 71.549915 60.21118 
L 73.579006 66.933654 
L 75.608097 73.034442 
L 77.637187 78.571039 
L 79.666278 83.595619 
L 81.695369 88.155534 
L 83.72446 92.293754 
L 85.753551 96.049277 
L 87.782642 99.457496 
L 89.811733 102.550527 
L 91.840824 105.357519 
L 93.869915 107.904924 
L 95.899006 110.21675 
L 97.928097 112.314781 
L 99.957188 114.218789 
L 101.986278 115.946717 
L 104.015369 117.514849 
L 106.04446 118.937962 
L 108.073551 120.229468 
L 110.102642 121.401537 
L 112.131733 122.465216 
L 114.160824 123.430526 
L 116.189915 124.306566 
L 118.219006 125.101592 
L 120.248097 125.823094 
L 122.277187 126.477873 
L 124.306278 127.072099 
L 126.335369 127.611372 
L 128.36446 128.100773 
L 130.393551 128.544916 
L 132.422642 128.947985 
L 134.451733 129.313778 
L 136.480824 129.645744 
L 138.509915 129.94701 
L 140.539006 130.220415 
L 142.568097 130.468536 
L 144.597188 130.693711 
L 146.626278 130.898063 
L 148.655369 131.083516 
L 150.68446 131.251819 
L 152.713551 131.404557 
L 154.742642 131.54317 
L 156.771733 131.668965 
L 158.800824 131.783126 
L 160.829915 131.88673 
L 162.859006 131.980753 
L 164.888097 132.06608 
L 166.917188 132.143517 
L 168.946278 132.213793 
L 170.975369 132.277569 
L 173.00446 132.335447 
L 175.033551 132.387973 
L 177.062642 132.435642 
L 179.091733 132.478902 
L 181.120824 132.518162 
L 183.149915 132.55379 
L 185.179006 132.586124 
L 187.208097 132.615468 
L 189.237188 132.642098 
L 191.266278 132.666266 
L 193.295369 132.688198 
L 195.32446 132.708102 
L 197.353551 132.726165 
L 199.382642 132.742558 
L 201.411733 132.757435 
L 203.440824 132.770937 
L 205.469915 132.783189 
L 207.499006 132.794309 
L 209.528097 132.8044 
L 211.557187 132.813558 
L 213.586278 132.821869 
L 215.615369 132.829411 
L 217.64446 132.836256 
L 219.673551 132.842468 
L 221.702642 132.848105 
L 223.731733 132.853222 
L 225.760824 132.857865 
L 227.789915 132.862078 
L 229.819006 132.865902 
L 231.848097 132.869372 
L 233.877187 132.872522 
L 235.906278 132.87538 
L 237.935369 132.877974 
L 239.96446 132.880328 
L 241.993551 132.882464 
L 244.022642 132.884403 
L 246.051733 132.886162 
L 248.080824 132.887759 
L 250.109915 132.889208 
L 252.139006 132.890523 
L 254.168097 132.891716 
L 256.197188 132.892799 
L 258.226278 132.893782 
L 260.255369 132.894674 
L 262.28446 132.895484 
L 264.313551 132.896218 
L 266.342642 132.896885 
L 268.371733 132.89749 
" style="fill:none;stroke:#ff0000;stroke-linecap:square;stroke-width:1.5;"/>
   </g>
   <g id="patch_3">
    <path d="M 55.317188 176.76 
L 55.317188 7.2 
" style="fill:none;stroke:#555555;stroke-linecap:square;stroke-linejoin:miter;"/>
   </g>
   <g id="patch_4">
    <path d="M 55.317187 176.76 
L 278.517187 176.76 
" style="fill:none;stroke:#555555;stroke-linecap:square;stroke-linejoin:miter;"/>
   </g>
   <g id="text_13">
    <!-- r^2 = 0.61 -->
    <g style="fill:#555555;" transform="translate(217.64446 38.020287)scale(0.1 -0.1)">
     <defs>
      <path d="M 30.03125 40.046875 
Q 22.078125 40.046875 19.578125 34.625 
L 19.578125 0 
L 5.421875 0 
L 5.421875 52.828125 
L 18.75 52.828125 
L 19.1875 46.53125 
Q 23.34375 53.8125 30.953125 53.8125 
Q 33.640625 53.8125 35.296875 53.171875 
L 35.15625 39.65625 
z
" id="Roboto-Bold-114"/>
      <path d="M 2.203125 35.59375 
L 16.796875 71.09375 
L 27.046875 71.09375 
L 41.609375 35.59375 
L 30.421875 35.59375 
L 21.921875 57.859375 
L 13.375 35.59375 
z
" id="Roboto-Bold-94"/>
      <path id="Roboto-Bold-32"/>
      <path d="M 50.34375 47.953125 
L 50.34375 36.421875 
L 6.6875 36.421875 
L 6.6875 47.953125 
z
M 50.34375 26.8125 
L 50.34375 15.328125 
L 6.6875 15.328125 
L 6.6875 26.8125 
z
" id="Roboto-Bold-61"/>
      <path d="M 53.90625 23.4375 
Q 53.90625 13.09375 47.390625 6.046875 
Q 40.875 -0.984375 29.9375 -0.984375 
Q 18.5625 -0.984375 11.75 6.921875 
Q 4.9375 14.84375 4.9375 27.34375 
L 4.9375 32.765625 
Q 4.9375 50 14.453125 60.90625 
Q 23.96875 71.828125 41.15625 71.828125 
L 43.171875 71.828125 
L 43.171875 60.203125 
L 41.75 60.203125 
Q 32.03125 60.0625 26.375 55.28125 
Q 20.515625 50.296875 19.34375 41.796875 
Q 25.046875 47.609375 33.6875 47.609375 
Q 43.75 47.609375 48.828125 40.453125 
Q 53.90625 33.296875 53.90625 23.4375 
z
M 19.046875 25.484375 
Q 19.046875 17.96875 22 14.203125 
Q 24.953125 10.453125 29.6875 10.453125 
Q 34.28125 10.453125 37.03125 14.078125 
Q 39.796875 17.71875 39.796875 23.296875 
Q 39.796875 28.953125 37.03125 32.609375 
Q 34.28125 36.28125 29.390625 36.28125 
Q 25.640625 36.28125 22.953125 34.34375 
Q 20.265625 32.421875 19.046875 29.734375 
z
" id="Roboto-Bold-54"/>
     </defs>
     <use xlink:href="#Roboto-Bold-114"/>
     <use x="36.523438" xlink:href="#Roboto-Bold-94"/>
     <use x="80.273438" xlink:href="#Roboto-Bold-50"/>
     <use x="137.646484" xlink:href="#Roboto-Bold-32"/>
     <use x="162.548828" xlink:href="#Roboto-Bold-61"/>
     <use x="219.775391" xlink:href="#Roboto-Bold-32"/>
     <use x="244.677734" xlink:href="#Roboto-Bold-48"/>
     <use x="302.050781" xlink:href="#Roboto-Bold-46"/>
     <use x="331.152344" xlink:href="#Roboto-Bold-54"/>
     <use x="388.525391" xlink:href="#Roboto-Bold-49"/>
    </g>
   </g>
  </g>
 </g>
 <defs>
  <clipPath id="p5aa7ae53eb">
   <rect height="169.56" width="223.2" x="55.317188" y="7.2"/>
  </clipPath>
 </defs>
</svg>
