<?xml version="1.0" encoding="utf-8" standalone="no"?>
<!DOCTYPE svg PUBLIC "-//W3C//DTD SVG 1.1//EN"
  "http://www.w3.org/Graphics/SVG/1.1/DTD/svg11.dtd">
<!-- Created with matplotlib (https://matplotlib.org/) -->
<svg height="628.09pt" version="1.1" viewBox="0 0 576.355859 628.09" width="576.355859pt" xmlns="http://www.w3.org/2000/svg" xmlns:xlink="http://www.w3.org/1999/xlink">
 <metadata>
  <rdf:RDF xmlns:cc="http://creativecommons.org/ns#" xmlns:dc="http://purl.org/dc/elements/1.1/" xmlns:rdf="http://www.w3.org/1999/02/22-rdf-syntax-ns#">
   <cc:Work>
    <dc:type rdf:resource="http://purl.org/dc/dcmitype/StillImage"/>
    <dc:date>2021-05-03T16:03:28.723540</dc:date>
    <dc:format>image/svg+xml</dc:format>
    <dc:creator>
     <cc:Agent>
      <dc:title>Matplotlib v3.3.4, https://matplotlib.org/</dc:title>
     </cc:Agent>
    </dc:creator>
   </cc:Work>
  </rdf:RDF>
 </metadata>
 <defs>
  <style type="text/css">*{stroke-linecap:butt;stroke-linejoin:round;}</style>
 </defs>
 <g id="figure_1">
  <g id="patch_1">
   <path d="M 0 628.09 
L 576.355859 628.09 
L 576.355859 0 
L 0 0 
z
" style="fill:#ffffff;"/>
  </g>
  <g id="axes_1">
   <g id="patch_2">
    <path d="M 68.8955 197.325714 
L 164.90354 197.325714 
L 164.90354 31.6 
L 68.8955 31.6 
z
" style="fill:#ffffff;"/>
   </g>
   <g id="matplotlib.axis_1"/>
   <g id="matplotlib.axis_2">
    <g id="ytick_1">
     <g id="line2d_1">
      <path clip-path="url(#pcbec4261b3)" d="M 68.8955 197.325714 
L 164.90354 197.325714 
" style="fill:none;stroke:#eeeeee;stroke-linecap:square;stroke-width:0.8;"/>
     </g>
     <g id="line2d_2">
      <defs>
       <path d="M 0 0 
L -3.5 0 
" id="m0ba28f1180" style="stroke:#555555;stroke-width:0.8;"/>
      </defs>
      <g>
       <use style="fill:#555555;stroke:#555555;stroke-width:0.8;" x="68.8955" xlink:href="#m0ba28f1180" y="197.325714"/>
      </g>
     </g>
     <g id="text_1">
      <!-- 0.00 -->
      <g style="fill:#555555;" transform="translate(29.698 203.325714)scale(0.16 -0.16)">
       <defs>
        <path d="M 52.6875 29.4375 
Q 52.6875 13.375 46.09375 6.1875 
Q 39.5 -0.984375 28.75 -0.984375 
Q 18.015625 -0.984375 11.34375 6.1875 
Q 4.6875 13.375 4.6875 29.4375 
L 4.6875 41.796875 
Q 4.6875 57.8125 11.296875 64.9375 
Q 17.921875 72.078125 28.65625 72.078125 
Q 39.359375 72.078125 46 64.984375 
Q 52.640625 57.90625 52.6875 42.046875 
z
M 38.578125 43.75 
Q 38.578125 53.21875 35.984375 56.953125 
Q 33.40625 60.6875 28.65625 60.6875 
Q 24.03125 60.6875 21.4375 57.03125 
Q 18.84375 53.375 18.796875 44.140625 
L 18.796875 27.546875 
Q 18.796875 18.015625 21.40625 14.203125 
Q 24.03125 10.40625 28.765625 10.40625 
Q 33.40625 10.40625 35.96875 14.140625 
Q 38.53125 17.875 38.578125 27.15625 
z
" id="Roboto-Bold-48"/>
        <path d="M 6.15625 6.984375 
Q 6.15625 10.203125 8.328125 12.375 
Q 10.5 14.546875 14.15625 14.546875 
Q 17.828125 14.546875 19.96875 12.375 
Q 22.125 10.203125 22.125 6.984375 
Q 22.125 3.8125 19.96875 1.640625 
Q 17.828125 -0.53125 14.15625 -0.53125 
Q 10.5 -0.53125 8.328125 1.640625 
Q 6.15625 3.8125 6.15625 6.984375 
z
" id="Roboto-Bold-46"/>
       </defs>
       <use xlink:href="#Roboto-Bold-48"/>
       <use x="57.373047" xlink:href="#Roboto-Bold-46"/>
       <use x="86.474609" xlink:href="#Roboto-Bold-48"/>
       <use x="143.847656" xlink:href="#Roboto-Bold-48"/>
      </g>
     </g>
    </g>
    <g id="ytick_2">
     <g id="line2d_3">
      <path clip-path="url(#pcbec4261b3)" d="M 68.8955 157.867211 
L 164.90354 157.867211 
" style="fill:none;stroke:#eeeeee;stroke-linecap:square;stroke-width:0.8;"/>
     </g>
     <g id="line2d_4">
      <g>
       <use style="fill:#555555;stroke:#555555;stroke-width:0.8;" x="68.8955" xlink:href="#m0ba28f1180" y="157.867211"/>
      </g>
     </g>
     <g id="text_2">
      <!-- 0.25 -->
      <g style="fill:#555555;" transform="translate(29.698 163.867211)scale(0.16 -0.16)">
       <defs>
        <path d="M 53.5625 11.375 
L 53.5625 0 
L 4.890625 0 
L 4.890625 9.671875 
L 27.875 34.1875 
Q 33.0625 39.890625 35.078125 43.625 
Q 37.109375 47.359375 37.109375 50.53125 
Q 37.109375 55.28125 34.734375 58.015625 
Q 32.375 60.75 27.9375 60.75 
Q 22.90625 60.75 20.234375 57.328125 
Q 17.578125 53.90625 17.578125 48.734375 
L 3.46875 48.734375 
Q 3.46875 58.34375 10.078125 65.234375 
Q 16.703125 72.125 28.171875 72.125 
Q 39.359375 72.125 45.3125 66.71875 
Q 51.265625 61.328125 51.265625 51.953125 
Q 51.265625 44.921875 47.09375 38.59375 
Q 42.921875 32.28125 35.6875 24.703125 
L 23 11.375 
z
" id="Roboto-Bold-50"/>
        <path d="M 18.21875 32.234375 
L 6.984375 34.96875 
L 11.03125 71.09375 
L 50.875 71.09375 
L 50.875 59.375 
L 22.65625 59.375 
L 20.90625 44.046875 
Q 25.78125 46.734375 31.546875 46.734375 
Q 41.890625 46.734375 47.546875 40.421875 
Q 53.21875 34.125 53.21875 22.859375 
Q 53.21875 13.375 47.359375 6.1875 
Q 41.5 -0.984375 29.25 -0.984375 
Q 20.015625 -0.984375 12.71875 4.484375 
Q 5.421875 9.96875 5.171875 19.828125 
L 19.140625 19.828125 
Q 20.0625 10.40625 29.15625 10.40625 
Q 34.46875 10.40625 36.78125 14.234375 
Q 39.109375 18.0625 39.109375 23.640625 
Q 39.109375 29.25 36.328125 32.6875 
Q 33.546875 36.140625 27.6875 36.140625 
Q 23.828125 36.140625 21.71875 34.890625 
Q 19.625 33.640625 18.21875 32.234375 
z
" id="Roboto-Bold-53"/>
       </defs>
       <use xlink:href="#Roboto-Bold-48"/>
       <use x="57.373047" xlink:href="#Roboto-Bold-46"/>
       <use x="86.474609" xlink:href="#Roboto-Bold-50"/>
       <use x="143.847656" xlink:href="#Roboto-Bold-53"/>
      </g>
     </g>
    </g>
    <g id="ytick_3">
     <g id="line2d_5">
      <path clip-path="url(#pcbec4261b3)" d="M 68.8955 118.408707 
L 164.90354 118.408707 
" style="fill:none;stroke:#eeeeee;stroke-linecap:square;stroke-width:0.8;"/>
     </g>
     <g id="line2d_6">
      <g>
       <use style="fill:#555555;stroke:#555555;stroke-width:0.8;" x="68.8955" xlink:href="#m0ba28f1180" y="118.408707"/>
      </g>
     </g>
     <g id="text_3">
      <!-- 0.50 -->
      <g style="fill:#555555;" transform="translate(29.698 124.408707)scale(0.16 -0.16)">
       <use xlink:href="#Roboto-Bold-48"/>
       <use x="57.373047" xlink:href="#Roboto-Bold-46"/>
       <use x="86.474609" xlink:href="#Roboto-Bold-53"/>
       <use x="143.847656" xlink:href="#Roboto-Bold-48"/>
      </g>
     </g>
    </g>
    <g id="ytick_4">
     <g id="line2d_7">
      <path clip-path="url(#pcbec4261b3)" d="M 68.8955 78.950204 
L 164.90354 78.950204 
" style="fill:none;stroke:#eeeeee;stroke-linecap:square;stroke-width:0.8;"/>
     </g>
     <g id="line2d_8">
      <g>
       <use style="fill:#555555;stroke:#555555;stroke-width:0.8;" x="68.8955" xlink:href="#m0ba28f1180" y="78.950204"/>
      </g>
     </g>
     <g id="text_4">
      <!-- 0.75 -->
      <g style="fill:#555555;" transform="translate(29.698 84.950204)scale(0.16 -0.16)">
       <defs>
        <path d="M 53.21875 71.09375 
L 53.21875 63.234375 
L 25.734375 0 
L 10.84375 0 
L 38.328125 59.71875 
L 2.984375 59.71875 
L 2.984375 71.09375 
z
" id="Roboto-Bold-55"/>
       </defs>
       <use xlink:href="#Roboto-Bold-48"/>
       <use x="57.373047" xlink:href="#Roboto-Bold-46"/>
       <use x="86.474609" xlink:href="#Roboto-Bold-55"/>
       <use x="143.847656" xlink:href="#Roboto-Bold-53"/>
      </g>
     </g>
    </g>
    <g id="ytick_5">
     <g id="line2d_9">
      <path clip-path="url(#pcbec4261b3)" d="M 68.8955 39.491701 
L 164.90354 39.491701 
" style="fill:none;stroke:#eeeeee;stroke-linecap:square;stroke-width:0.8;"/>
     </g>
     <g id="line2d_10">
      <g>
       <use style="fill:#555555;stroke:#555555;stroke-width:0.8;" x="68.8955" xlink:href="#m0ba28f1180" y="39.491701"/>
      </g>
     </g>
     <g id="text_5">
      <!-- 1.00 -->
      <g style="fill:#555555;" transform="translate(29.698 45.491701)scale(0.16 -0.16)">
       <defs>
        <path d="M 39.109375 71.1875 
L 39.109375 0 
L 25 0 
L 25 54.4375 
L 8.203125 49.21875 
L 8.203125 60.640625 
L 37.59375 71.1875 
z
" id="Roboto-Bold-49"/>
       </defs>
       <use xlink:href="#Roboto-Bold-49"/>
       <use x="57.373047" xlink:href="#Roboto-Bold-46"/>
       <use x="86.474609" xlink:href="#Roboto-Bold-48"/>
       <use x="143.847656" xlink:href="#Roboto-Bold-48"/>
      </g>
     </g>
    </g>
    <g id="text_6">
     <!-- performance -->
     <g style="fill:#555555;" transform="translate(21.798 169.973357)rotate(-90)scale(0.192 -0.192)">
      <defs>
       <path d="M 32.515625 -0.984375 
Q 24.609375 -0.984375 19.578125 4.640625 
L 19.578125 -20.3125 
L 5.421875 -20.3125 
L 5.421875 52.828125 
L 18.5625 52.828125 
L 19.09375 47.703125 
Q 24.125 53.8125 32.375 53.8125 
Q 42.4375 53.8125 47.734375 46.4375 
Q 53.03125 39.0625 53.03125 27 
L 53.03125 25.984375 
Q 53.03125 14.453125 47.734375 6.734375 
Q 42.4375 -0.984375 32.515625 -0.984375 
z
M 28.71875 42.390625 
Q 22.125 42.390625 19.578125 37.25 
L 19.578125 15.625 
Q 22.21875 10.40625 28.8125 10.40625 
Q 34.328125 10.40625 36.625 14.96875 
Q 38.921875 19.53125 38.921875 27 
Q 38.921875 33.546875 36.546875 37.96875 
Q 34.1875 42.390625 28.71875 42.390625 
z
" id="Roboto-Bold-112"/>
       <path d="M 50.390625 8.59375 
Q 47.859375 4.984375 42.671875 2 
Q 37.5 -0.984375 29.78125 -0.984375 
Q 17.484375 -0.984375 10.546875 6.46875 
Q 3.609375 13.921875 3.5625 24.46875 
L 3.5625 26.515625 
Q 3.5625 38.484375 10.21875 46.140625 
Q 16.890625 53.8125 28.21875 53.8125 
Q 39.59375 53.8125 45.546875 46.671875 
Q 51.515625 39.546875 51.515625 27.828125 
L 51.515625 21.828125 
L 17.875 21.828125 
Q 18.609375 16.703125 21.921875 13.546875 
Q 25.25 10.40625 30.671875 10.40625 
Q 38.71875 10.40625 43.40625 16.3125 
z
M 28.125 42.4375 
Q 23.640625 42.4375 21.1875 39.40625 
Q 18.75 36.375 18.015625 31.5 
L 37.640625 31.5 
L 37.640625 32.5625 
Q 37.546875 36.8125 35.28125 39.625 
Q 33.015625 42.4375 28.125 42.4375 
z
" id="Roboto-Bold-101"/>
       <path d="M 30.03125 40.046875 
Q 22.078125 40.046875 19.578125 34.625 
L 19.578125 0 
L 5.421875 0 
L 5.421875 52.828125 
L 18.75 52.828125 
L 19.1875 46.53125 
Q 23.34375 53.8125 30.953125 53.8125 
Q 33.640625 53.8125 35.296875 53.171875 
L 35.15625 39.65625 
z
" id="Roboto-Bold-114"/>
       <path d="M 33.9375 42.53125 
L 23.4375 42.53125 
L 23.4375 0 
L 9.28125 0 
L 9.28125 42.53125 
L 1.421875 42.53125 
L 1.421875 52.828125 
L 9.28125 52.828125 
L 9.28125 57.421875 
Q 9.28125 66.453125 14.5 71.234375 
Q 19.734375 76.03125 28.65625 76.03125 
Q 32.078125 76.03125 35.890625 75.046875 
L 35.75 64.109375 
Q 33.890625 64.546875 31.390625 64.546875 
Q 23.578125 64.546875 23.4375 57.671875 
L 23.4375 52.828125 
L 33.9375 52.828125 
z
" id="Roboto-Bold-102"/>
       <path d="M 3.21875 26.90625 
Q 3.21875 38.421875 9.765625 46.109375 
Q 16.3125 53.8125 28.21875 53.8125 
Q 40.28125 53.8125 46.765625 46.109375 
Q 53.265625 38.421875 53.265625 26.90625 
L 53.265625 25.875 
Q 53.265625 14.359375 46.765625 6.6875 
Q 40.28125 -0.984375 28.328125 -0.984375 
Q 16.453125 -0.984375 9.9375 6.484375 
Q 3.421875 13.96875 3.21875 25.25 
z
M 17.390625 25.875 
Q 17.390625 19.4375 19.84375 14.921875 
Q 22.3125 10.40625 28.328125 10.40625 
Q 34.234375 10.40625 36.6875 14.890625 
Q 39.15625 19.390625 39.15625 26.90625 
Q 39.15625 33.203125 36.6875 37.8125 
Q 34.234375 42.4375 28.21875 42.4375 
Q 22.265625 42.4375 19.828125 37.84375 
Q 17.390625 33.25 17.390625 25.875 
z
" id="Roboto-Bold-111"/>
       <path d="M 28.21875 42.390625 
Q 22.359375 42.390625 19.578125 37.40625 
L 19.578125 0 
L 5.421875 0 
L 5.421875 52.828125 
L 18.703125 52.828125 
L 19.1875 47.015625 
Q 24.703125 53.8125 34.328125 53.8125 
Q 44.53125 53.8125 48.34375 45.75 
Q 53.765625 53.8125 64.203125 53.8125 
Q 71.828125 53.8125 76.46875 49.3125 
Q 81.109375 44.828125 81.15625 33.890625 
L 81.15625 0 
L 67 0 
L 67 33.6875 
Q 67 38.96875 64.875 40.671875 
Q 62.75 42.390625 59.078125 42.390625 
Q 52.828125 42.390625 50.34375 36.46875 
L 50.34375 0 
L 36.234375 0 
L 36.234375 33.59375 
Q 36.234375 38.8125 34.078125 40.59375 
Q 31.9375 42.390625 28.21875 42.390625 
z
" id="Roboto-Bold-109"/>
       <path d="M 36.03125 0 
Q 35.15625 1.859375 34.625 4.734375 
Q 29.5 -0.984375 21.296875 -0.984375 
Q 13.71875 -0.984375 8.546875 3.484375 
Q 3.375 7.953125 3.375 14.84375 
Q 3.375 23.140625 9.515625 27.703125 
Q 15.671875 32.28125 27.734375 32.28125 
L 34.03125 32.28125 
L 34.03125 35.359375 
Q 34.03125 39.015625 32.15625 41.1875 
Q 30.28125 43.359375 26.21875 43.359375 
Q 18.65625 43.359375 18.65625 37.015625 
L 4.546875 37.015625 
Q 4.546875 43.890625 10.640625 48.84375 
Q 16.75 53.8125 27 53.8125 
Q 36.140625 53.8125 42.15625 49.171875 
Q 48.1875 44.53125 48.1875 35.25 
L 48.1875 11.71875 
Q 48.296875 4.6875 50.296875 0.828125 
L 50.296875 0 
z
M 24.359375 9.8125 
Q 27.9375 9.8125 30.4375 11.390625 
Q 32.953125 12.984375 34.03125 14.890625 
L 34.03125 24.078125 
L 28.265625 24.078125 
Q 22.65625 24.078125 20.0625 21.703125 
Q 17.484375 19.34375 17.484375 15.875 
Q 17.484375 13.234375 19.3125 11.515625 
Q 21.140625 9.8125 24.359375 9.8125 
z
" id="Roboto-Bold-97"/>
       <path d="M 28.21875 42.390625 
Q 22.21875 42.390625 19.28125 37.3125 
L 19.28125 0 
L 5.171875 0 
L 5.171875 52.828125 
L 18.40625 52.828125 
L 18.890625 46.78125 
Q 24.5625 53.8125 34.078125 53.8125 
Q 41.546875 53.8125 46.140625 49.359375 
Q 50.734375 44.921875 50.78125 33.890625 
L 50.78125 0 
L 36.625 0 
L 36.625 33.6875 
Q 36.625 38.765625 34.453125 40.578125 
Q 32.28125 42.390625 28.21875 42.390625 
z
" id="Roboto-Bold-110"/>
       <path d="M 27.390625 10.40625 
Q 31.25 10.40625 33.734375 12.53125 
Q 36.234375 14.65625 36.28125 18.265625 
L 49.5625 18.265625 
Q 49.46875 9.859375 43.140625 4.4375 
Q 36.8125 -0.984375 27.640625 -0.984375 
Q 15.375 -0.984375 9.296875 6.75 
Q 3.21875 14.5 3.21875 25.734375 
L 3.21875 27.09375 
Q 3.21875 38.28125 9.265625 46.046875 
Q 15.328125 53.8125 27.59375 53.8125 
Q 37.3125 53.8125 43.390625 48.234375 
Q 49.46875 42.671875 49.5625 33.15625 
L 36.28125 33.15625 
Q 36.234375 37.015625 33.9375 39.71875 
Q 31.640625 42.4375 27.34375 42.4375 
Q 21.1875 42.4375 19.28125 37.8125 
Q 17.390625 33.203125 17.390625 25.734375 
Q 17.390625 19.625 19.265625 15.015625 
Q 21.140625 10.40625 27.390625 10.40625 
z
" id="Roboto-Bold-99"/>
      </defs>
      <use xlink:href="#Roboto-Bold-112"/>
      <use x="56.298828" xlink:href="#Roboto-Bold-101"/>
      <use x="110.351562" xlink:href="#Roboto-Bold-114"/>
      <use x="146.875" xlink:href="#Roboto-Bold-102"/>
      <use x="182.714844" xlink:href="#Roboto-Bold-111"/>
      <use x="239.257812" xlink:href="#Roboto-Bold-114"/>
      <use x="275.78125" xlink:href="#Roboto-Bold-109"/>
      <use x="362.353516" xlink:href="#Roboto-Bold-97"/>
      <use x="415.966797" xlink:href="#Roboto-Bold-110"/>
      <use x="471.972656" xlink:href="#Roboto-Bold-99"/>
      <use x="524.169922" xlink:href="#Roboto-Bold-101"/>
     </g>
    </g>
   </g>
   <g id="patch_3">
    <path clip-path="url(#pcbec4261b3)" d="M 78.496304 197.325714 
L 155.302736 197.325714 
L 155.302736 44.314407 
L 78.496304 44.314407 
z
" style="fill:#d3d3d3;"/>
   </g>
   <g id="line2d_11">
    <path clip-path="url(#pcbec4261b3)" d="M 68.8955 184.17288 
L 164.90354 184.17288 
" style="fill:none;stroke:#808080;stroke-dasharray:5.55,2.4;stroke-dashoffset:0;stroke-width:1.5;"/>
   </g>
   <g id="patch_4">
    <path d="M 68.8955 197.325714 
L 68.8955 31.6 
" style="fill:none;stroke:#555555;stroke-linecap:square;stroke-linejoin:miter;"/>
   </g>
   <g id="patch_5">
    <path d="M 68.8955 197.325714 
L 164.90354 197.325714 
" style="fill:none;stroke:#555555;stroke-linecap:square;stroke-linejoin:miter;"/>
   </g>
   <g id="PathCollection_1">
    <defs>
     <path d="M 0 3.5 
C 0.928211 3.5 1.81853 3.131218 2.474874 2.474874 
C 3.131218 1.81853 3.5 0.928211 3.5 -0 
C 3.5 -0.928211 3.131218 -1.81853 2.474874 -2.474874 
C 1.81853 -3.131218 0.928211 -3.5 0 -3.5 
C -0.928211 -3.5 -1.81853 -3.131218 -2.474874 -2.474874 
C -3.131218 -1.81853 -3.5 -0.928211 -3.5 0 
C -3.5 0.928211 -3.131218 1.81853 -2.474874 2.474874 
C -1.81853 3.131218 -0.928211 3.5 0 3.5 
z
" id="C0_0_c545641389"/>
    </defs>
    <g clip-path="url(#pcbec4261b3)">
     <use x="116.89952" xlink:href="#C0_0_c545641389" y="47.383401"/>
    </g>
    <g clip-path="url(#pcbec4261b3)">
     <use x="116.89952" xlink:href="#C0_0_c545641389" y="43.437551"/>
    </g>
    <g clip-path="url(#pcbec4261b3)">
     <use x="116.89952" xlink:href="#C0_0_c545641389" y="42.122268"/>
    </g>
   </g>
   <g id="text_7">
    <!-- V1 -->
    <g style="fill:#555555;" transform="translate(105.11552 21.6)scale(0.192 -0.192)">
     <defs>
      <path d="M 65.09375 71.09375 
L 40.28125 0 
L 25.046875 0 
L 0.390625 71.09375 
L 16.609375 71.09375 
L 32.671875 17.671875 
L 48.78125 71.09375 
z
" id="Roboto-Bold-86"/>
     </defs>
     <use xlink:href="#Roboto-Bold-86"/>
     <use x="65.380859" xlink:href="#Roboto-Bold-49"/>
    </g>
   </g>
  </g>
  <g id="axes_2">
   <g id="patch_6">
    <path d="M 164.90354 197.325714 
L 260.911579 197.325714 
L 260.911579 31.6 
L 164.90354 31.6 
z
" style="fill:#ffffff;"/>
   </g>
   <g id="matplotlib.axis_3"/>
   <g id="matplotlib.axis_4">
    <g id="ytick_6">
     <g id="line2d_12">
      <path clip-path="url(#p48b7c72cf3)" d="M 164.90354 197.325714 
L 260.911579 197.325714 
" style="fill:none;stroke:#eeeeee;stroke-linecap:square;stroke-width:0.8;"/>
     </g>
    </g>
    <g id="ytick_7">
     <g id="line2d_13">
      <path clip-path="url(#p48b7c72cf3)" d="M 164.90354 157.867211 
L 260.911579 157.867211 
" style="fill:none;stroke:#eeeeee;stroke-linecap:square;stroke-width:0.8;"/>
     </g>
    </g>
    <g id="ytick_8">
     <g id="line2d_14">
      <path clip-path="url(#p48b7c72cf3)" d="M 164.90354 118.408707 
L 260.911579 118.408707 
" style="fill:none;stroke:#eeeeee;stroke-linecap:square;stroke-width:0.8;"/>
     </g>
    </g>
    <g id="ytick_9">
     <g id="line2d_15">
      <path clip-path="url(#p48b7c72cf3)" d="M 164.90354 78.950204 
L 260.911579 78.950204 
" style="fill:none;stroke:#eeeeee;stroke-linecap:square;stroke-width:0.8;"/>
     </g>
    </g>
    <g id="ytick_10">
     <g id="line2d_16">
      <path clip-path="url(#p48b7c72cf3)" d="M 164.90354 39.491701 
L 260.911579 39.491701 
" style="fill:none;stroke:#eeeeee;stroke-linecap:square;stroke-width:0.8;"/>
     </g>
    </g>
   </g>
   <g id="patch_7">
    <path clip-path="url(#p48b7c72cf3)" d="M 174.504344 197.325714 
L 251.310775 197.325714 
L 251.310775 43.875979 
L 174.504344 43.875979 
z
" style="fill:#d3d3d3;"/>
   </g>
   <g id="line2d_17">
    <path clip-path="url(#p48b7c72cf3)" d="M 164.90354 184.17288 
L 260.911579 184.17288 
" style="fill:none;stroke:#808080;stroke-dasharray:5.55,2.4;stroke-dashoffset:0;stroke-width:1.5;"/>
   </g>
   <g id="patch_8">
    <path d="M 164.90354 197.325714 
L 260.911579 197.325714 
" style="fill:none;stroke:#555555;stroke-linecap:square;stroke-linejoin:miter;"/>
   </g>
   <g id="PathCollection_2">
    <defs>
     <path d="M 0 3.5 
C 0.928211 3.5 1.81853 3.131218 2.474874 2.474874 
C 3.131218 1.81853 3.5 0.928211 3.5 -0 
C 3.5 -0.928211 3.131218 -1.81853 2.474874 -2.474874 
C 1.81853 -3.131218 0.928211 -3.5 0 -3.5 
C -0.928211 -3.5 -1.81853 -3.131218 -2.474874 -2.474874 
C -3.131218 -1.81853 -3.5 -0.928211 -3.5 0 
C -3.5 0.928211 -3.131218 1.81853 -2.474874 2.474874 
C -1.81853 3.131218 -0.928211 3.5 0 3.5 
z
" id="C1_0_2efb94aa92"/>
    </defs>
    <g clip-path="url(#p48b7c72cf3)">
     <use x="212.907559" xlink:href="#C1_0_2efb94aa92" y="48.698685"/>
    </g>
    <g clip-path="url(#p48b7c72cf3)">
     <use x="212.907559" xlink:href="#C1_0_2efb94aa92" y="43.437551"/>
    </g>
    <g clip-path="url(#p48b7c72cf3)">
     <use x="212.907559" xlink:href="#C1_0_2efb94aa92" y="39.491701"/>
    </g>
   </g>
   <g id="text_8">
    <!-- LM -->
    <g style="fill:#555555;" transform="translate(199.299559 21.6)scale(0.192 -0.192)">
     <defs>
      <path d="M 52.09375 11.8125 
L 52.09375 0 
L 6.34375 0 
L 6.34375 71.09375 
L 21.046875 71.09375 
L 21.046875 11.8125 
z
" id="Roboto-Bold-76"/>
      <path d="M 43.75 19.53125 
L 61.96875 71.09375 
L 81.15625 71.09375 
L 81.15625 0 
L 66.453125 0 
L 66.453125 19.4375 
L 67.921875 52.828125 
L 48.78125 0 
L 38.71875 0 
L 19.578125 52.828125 
L 21.046875 19.4375 
L 21.046875 0 
L 6.34375 0 
L 6.34375 71.09375 
L 25.53125 71.09375 
z
" id="Roboto-Bold-77"/>
     </defs>
     <use xlink:href="#Roboto-Bold-76"/>
     <use x="54.150391" xlink:href="#Roboto-Bold-77"/>
    </g>
   </g>
  </g>
  <g id="axes_3">
   <g id="patch_9">
    <path d="M 260.911579 197.325714 
L 356.919619 197.325714 
L 356.919619 31.6 
L 260.911579 31.6 
z
" style="fill:#ffffff;"/>
   </g>
   <g id="matplotlib.axis_5"/>
   <g id="matplotlib.axis_6">
    <g id="ytick_11">
     <g id="line2d_18">
      <path clip-path="url(#p99afa14e30)" d="M 260.911579 197.325714 
L 356.919619 197.325714 
" style="fill:none;stroke:#eeeeee;stroke-linecap:square;stroke-width:0.8;"/>
     </g>
    </g>
    <g id="ytick_12">
     <g id="line2d_19">
      <path clip-path="url(#p99afa14e30)" d="M 260.911579 157.867211 
L 356.919619 157.867211 
" style="fill:none;stroke:#eeeeee;stroke-linecap:square;stroke-width:0.8;"/>
     </g>
    </g>
    <g id="ytick_13">
     <g id="line2d_20">
      <path clip-path="url(#p99afa14e30)" d="M 260.911579 118.408707 
L 356.919619 118.408707 
" style="fill:none;stroke:#eeeeee;stroke-linecap:square;stroke-width:0.8;"/>
     </g>
    </g>
    <g id="ytick_14">
     <g id="line2d_21">
      <path clip-path="url(#p99afa14e30)" d="M 260.911579 78.950204 
L 356.919619 78.950204 
" style="fill:none;stroke:#eeeeee;stroke-linecap:square;stroke-width:0.8;"/>
     </g>
    </g>
    <g id="ytick_15">
     <g id="line2d_22">
      <path clip-path="url(#p99afa14e30)" d="M 260.911579 39.491701 
L 356.919619 39.491701 
" style="fill:none;stroke:#eeeeee;stroke-linecap:square;stroke-width:0.8;"/>
     </g>
    </g>
   </g>
   <g id="patch_10">
    <path clip-path="url(#p99afa14e30)" d="M 270.512383 197.325714 
L 347.318815 197.325714 
L 347.318815 50.890824 
L 270.512383 50.890824 
z
" style="fill:#d3d3d3;"/>
   </g>
   <g id="line2d_23">
    <path clip-path="url(#p99afa14e30)" d="M 260.911579 184.17288 
L 356.919619 184.17288 
" style="fill:none;stroke:#808080;stroke-dasharray:5.55,2.4;stroke-dashoffset:0;stroke-width:1.5;"/>
   </g>
   <g id="patch_11">
    <path d="M 260.911579 197.325714 
L 356.919619 197.325714 
" style="fill:none;stroke:#555555;stroke-linecap:square;stroke-linejoin:miter;"/>
   </g>
   <g id="PathCollection_3">
    <defs>
     <path d="M 0 3.5 
C 0.928211 3.5 1.81853 3.131218 2.474874 2.474874 
C 3.131218 1.81853 3.5 0.928211 3.5 -0 
C 3.5 -0.928211 3.131218 -1.81853 2.474874 -2.474874 
C 1.81853 -3.131218 0.928211 -3.5 0 -3.5 
C -0.928211 -3.5 -1.81853 -3.131218 -2.474874 -2.474874 
C -3.131218 -1.81853 -3.5 -0.928211 -3.5 0 
C -3.5 0.928211 -3.131218 1.81853 -2.474874 2.474874 
C -1.81853 3.131218 -0.928211 3.5 0 3.5 
z
" id="C2_0_e584fc2450"/>
    </defs>
    <g clip-path="url(#p99afa14e30)">
     <use x="308.915599" xlink:href="#C2_0_e584fc2450" y="65.79737"/>
    </g>
    <g clip-path="url(#p99afa14e30)">
     <use x="308.915599" xlink:href="#C2_0_e584fc2450" y="43.437551"/>
    </g>
    <g clip-path="url(#p99afa14e30)">
     <use x="300.307481" xlink:href="#C2_0_e584fc2450" y="43.437551"/>
    </g>
   </g>
   <g id="text_9">
    <!-- AL -->
    <g style="fill:#555555;" transform="translate(297.253099 21.6)scale(0.192 -0.192)">
     <defs>
      <path d="M 0.390625 0 
L 26.859375 71.09375 
L 40.4375 71.09375 
L 67.046875 0 
L 51.421875 0 
L 46.53125 14.65625 
L 20.796875 14.65625 
L 15.921875 0 
z
M 24.75 26.515625 
L 42.578125 26.515625 
L 33.6875 53.21875 
z
" id="Roboto-Bold-65"/>
     </defs>
     <use xlink:href="#Roboto-Bold-65"/>
     <use x="67.333984" xlink:href="#Roboto-Bold-76"/>
    </g>
   </g>
  </g>
  <g id="axes_4">
   <g id="patch_12">
    <path d="M 356.919619 197.325714 
L 452.927658 197.325714 
L 452.927658 31.6 
L 356.919619 31.6 
z
" style="fill:#ffffff;"/>
   </g>
   <g id="matplotlib.axis_7"/>
   <g id="matplotlib.axis_8">
    <g id="ytick_16">
     <g id="line2d_24">
      <path clip-path="url(#pc1ec57ded6)" d="M 356.919619 197.325714 
L 452.927658 197.325714 
" style="fill:none;stroke:#eeeeee;stroke-linecap:square;stroke-width:0.8;"/>
     </g>
    </g>
    <g id="ytick_17">
     <g id="line2d_25">
      <path clip-path="url(#pc1ec57ded6)" d="M 356.919619 157.867211 
L 452.927658 157.867211 
" style="fill:none;stroke:#eeeeee;stroke-linecap:square;stroke-width:0.8;"/>
     </g>
    </g>
    <g id="ytick_18">
     <g id="line2d_26">
      <path clip-path="url(#pc1ec57ded6)" d="M 356.919619 118.408707 
L 452.927658 118.408707 
" style="fill:none;stroke:#eeeeee;stroke-linecap:square;stroke-width:0.8;"/>
     </g>
    </g>
    <g id="ytick_19">
     <g id="line2d_27">
      <path clip-path="url(#pc1ec57ded6)" d="M 356.919619 78.950204 
L 452.927658 78.950204 
" style="fill:none;stroke:#eeeeee;stroke-linecap:square;stroke-width:0.8;"/>
     </g>
    </g>
    <g id="ytick_20">
     <g id="line2d_28">
      <path clip-path="url(#pc1ec57ded6)" d="M 356.919619 39.491701 
L 452.927658 39.491701 
" style="fill:none;stroke:#eeeeee;stroke-linecap:square;stroke-width:0.8;"/>
     </g>
    </g>
   </g>
   <g id="patch_13">
    <path clip-path="url(#pc1ec57ded6)" d="M 366.520423 197.325714 
L 443.326855 197.325714 
L 443.326855 42.122268 
L 366.520423 42.122268 
z
" style="fill:#d3d3d3;"/>
   </g>
   <g id="line2d_29">
    <path clip-path="url(#pc1ec57ded6)" d="M 356.919619 184.17288 
L 452.927658 184.17288 
" style="fill:none;stroke:#808080;stroke-dasharray:5.55,2.4;stroke-dashoffset:0;stroke-width:1.5;"/>
   </g>
   <g id="patch_14">
    <path d="M 356.919619 197.325714 
L 452.927658 197.325714 
" style="fill:none;stroke:#555555;stroke-linecap:square;stroke-linejoin:miter;"/>
   </g>
   <g id="PathCollection_4">
    <defs>
     <path d="M 0 3.5 
C 0.928211 3.5 1.81853 3.131218 2.474874 2.474874 
C 3.131218 1.81853 3.5 0.928211 3.5 -0 
C 3.5 -0.928211 3.131218 -1.81853 2.474874 -2.474874 
C 1.81853 -3.131218 0.928211 -3.5 0 -3.5 
C -0.928211 -3.5 -1.81853 -3.131218 -2.474874 -2.474874 
C -3.131218 -1.81853 -3.5 -0.928211 -3.5 0 
C -3.5 0.928211 -3.131218 1.81853 -2.474874 2.474874 
C -1.81853 3.131218 -0.928211 3.5 0 3.5 
z
" id="C3_0_276f7fadd4"/>
    </defs>
    <g clip-path="url(#pc1ec57ded6)">
     <use x="404.923639" xlink:href="#C3_0_276f7fadd4" y="43.437551"/>
    </g>
    <g clip-path="url(#pc1ec57ded6)">
     <use x="396.315521" xlink:href="#C3_0_276f7fadd4" y="43.437551"/>
    </g>
    <g clip-path="url(#pc1ec57ded6)">
     <use x="404.923639" xlink:href="#C3_0_276f7fadd4" y="39.491701"/>
    </g>
   </g>
   <g id="text_10">
    <!-- PM -->
    <g style="fill:#555555;" transform="translate(390.318139 21.6)scale(0.192 -0.192)">
     <defs>
      <path d="M 21.046875 25.09375 
L 21.046875 0 
L 6.34375 0 
L 6.34375 71.09375 
L 34.125 71.09375 
Q 46.734375 71.09375 53.78125 64.453125 
Q 60.84375 57.8125 60.84375 47.609375 
Q 60.84375 37.3125 53.78125 31.203125 
Q 46.734375 25.09375 34.125 25.09375 
z
M 21.046875 59.234375 
L 21.046875 36.921875 
L 34.125 36.921875 
Q 40.4375 36.921875 43.21875 39.890625 
Q 46 42.875 46 47.515625 
Q 46 52.15625 43.21875 55.6875 
Q 40.4375 59.234375 34.125 59.234375 
z
" id="Roboto-Bold-80"/>
     </defs>
     <use xlink:href="#Roboto-Bold-80"/>
     <use x="64.550781" xlink:href="#Roboto-Bold-77"/>
    </g>
   </g>
  </g>
  <g id="axes_5">
   <g id="patch_15">
    <path d="M 452.927658 197.325714 
L 548.935698 197.325714 
L 548.935698 31.6 
L 452.927658 31.6 
z
" style="fill:#ffffff;"/>
   </g>
   <g id="matplotlib.axis_9"/>
   <g id="matplotlib.axis_10">
    <g id="ytick_21">
     <g id="line2d_30">
      <path clip-path="url(#p3a9178e62b)" d="M 452.927658 197.325714 
L 548.935698 197.325714 
" style="fill:none;stroke:#eeeeee;stroke-linecap:square;stroke-width:0.8;"/>
     </g>
    </g>
    <g id="ytick_22">
     <g id="line2d_31">
      <path clip-path="url(#p3a9178e62b)" d="M 452.927658 157.867211 
L 548.935698 157.867211 
" style="fill:none;stroke:#eeeeee;stroke-linecap:square;stroke-width:0.8;"/>
     </g>
    </g>
    <g id="ytick_23">
     <g id="line2d_32">
      <path clip-path="url(#p3a9178e62b)" d="M 452.927658 118.408707 
L 548.935698 118.408707 
" style="fill:none;stroke:#eeeeee;stroke-linecap:square;stroke-width:0.8;"/>
     </g>
    </g>
    <g id="ytick_24">
     <g id="line2d_33">
      <path clip-path="url(#p3a9178e62b)" d="M 452.927658 78.950204 
L 548.935698 78.950204 
" style="fill:none;stroke:#eeeeee;stroke-linecap:square;stroke-width:0.8;"/>
     </g>
    </g>
    <g id="ytick_25">
     <g id="line2d_34">
      <path clip-path="url(#p3a9178e62b)" d="M 452.927658 39.491701 
L 548.935698 39.491701 
" style="fill:none;stroke:#eeeeee;stroke-linecap:square;stroke-width:0.8;"/>
     </g>
    </g>
   </g>
   <g id="patch_16">
    <path clip-path="url(#p3a9178e62b)" d="M 462.528462 197.325714 
L 539.334894 197.325714 
L 539.334894 46.068118 
L 462.528462 46.068118 
z
" style="fill:#d3d3d3;"/>
   </g>
   <g id="line2d_35">
    <path clip-path="url(#p3a9178e62b)" d="M 452.927658 184.17288 
L 548.935698 184.17288 
" style="fill:none;stroke:#808080;stroke-dasharray:5.55,2.4;stroke-dashoffset:0;stroke-width:1.5;"/>
   </g>
   <g id="patch_17">
    <path d="M 452.927658 197.325714 
L 548.935698 197.325714 
" style="fill:none;stroke:#555555;stroke-linecap:square;stroke-linejoin:miter;"/>
   </g>
   <g id="PathCollection_5">
    <defs>
     <path d="M 0 3.5 
C 0.928211 3.5 1.81853 3.131218 2.474874 2.474874 
C 3.131218 1.81853 3.5 0.928211 3.5 -0 
C 3.5 -0.928211 3.131218 -1.81853 2.474874 -2.474874 
C 1.81853 -3.131218 0.928211 -3.5 0 -3.5 
C -0.928211 -3.5 -1.81853 -3.131218 -2.474874 -2.474874 
C -3.131218 -1.81853 -3.5 -0.928211 -3.5 0 
C -3.5 0.928211 -3.131218 1.81853 -2.474874 2.474874 
C -1.81853 3.131218 -0.928211 3.5 0 3.5 
z
" id="C4_0_42d5f5ca02"/>
    </defs>
    <g clip-path="url(#p3a9178e62b)">
     <use x="500.931678" xlink:href="#C4_0_42d5f5ca02" y="47.383401"/>
    </g>
    <g clip-path="url(#p3a9178e62b)">
     <use x="500.931678" xlink:href="#C4_0_42d5f5ca02" y="46.068118"/>
    </g>
    <g clip-path="url(#p3a9178e62b)">
     <use x="500.931678" xlink:href="#C4_0_42d5f5ca02" y="44.752834"/>
    </g>
   </g>
   <g id="text_11">
    <!-- L2/3 -->
    <g style="fill:#555555;" transform="translate(554.755859 94.656857)rotate(-270)scale(0.192 -0.192)">
     <defs>
      <path d="M 36.03125 71.09375 
L 9.859375 -6.109375 
L -0.640625 -6.109375 
L 25.53125 71.09375 
z
" id="Roboto-Bold-47"/>
      <path d="M 19.234375 30.765625 
L 19.234375 41.84375 
L 26.765625 41.84375 
Q 32.078125 41.84375 34.6875 44.5 
Q 37.3125 47.171875 37.3125 51.65625 
Q 37.3125 55.609375 34.9375 58.171875 
Q 32.5625 60.75 27.6875 60.75 
Q 23.828125 60.75 20.96875 58.59375 
Q 18.109375 56.453125 18.109375 52.6875 
L 4 52.6875 
Q 4 61.46875 10.78125 66.796875 
Q 17.578125 72.125 27.296875 72.125 
Q 38.09375 72.125 44.75 66.96875 
Q 51.421875 61.8125 51.421875 51.859375 
Q 51.421875 47.265625 48.578125 43.09375 
Q 45.75 38.921875 40.578125 36.53125 
Q 46.53125 34.421875 49.5 30.09375 
Q 52.484375 25.78125 52.484375 19.96875 
Q 52.484375 9.96875 45.28125 4.484375 
Q 38.09375 -0.984375 27.296875 -0.984375 
Q 21.296875 -0.984375 15.75 1.21875 
Q 10.203125 3.421875 6.65625 7.9375 
Q 3.125 12.453125 3.125 19.484375 
L 17.28125 19.484375 
Q 17.28125 15.53125 20.234375 12.96875 
Q 23.1875 10.40625 27.6875 10.40625 
Q 32.71875 10.40625 35.546875 13.078125 
Q 38.375 15.765625 38.375 20.171875 
Q 38.375 30.765625 26.65625 30.765625 
z
" id="Roboto-Bold-51"/>
     </defs>
     <use xlink:href="#Roboto-Bold-76"/>
     <use x="54.150391" xlink:href="#Roboto-Bold-50"/>
     <use x="111.523438" xlink:href="#Roboto-Bold-47"/>
     <use x="148.925781" xlink:href="#Roboto-Bold-51"/>
    </g>
   </g>
   <g id="text_12">
    <!-- AM -->
    <g style="fill:#555555;" transform="translate(486.059178 21.6)scale(0.192 -0.192)">
     <use xlink:href="#Roboto-Bold-65"/>
     <use x="67.333984" xlink:href="#Roboto-Bold-77"/>
    </g>
   </g>
  </g>
  <g id="axes_6">
   <g id="patch_18">
    <path d="M 68.8955 404.482857 
L 164.90354 404.482857 
L 164.90354 238.757143 
L 68.8955 238.757143 
z
" style="fill:#ffffff;"/>
   </g>
   <g id="matplotlib.axis_11"/>
   <g id="matplotlib.axis_12">
    <g id="ytick_26">
     <g id="line2d_36">
      <path clip-path="url(#p888e27c58e)" d="M 68.8955 404.482857 
L 164.90354 404.482857 
" style="fill:none;stroke:#eeeeee;stroke-linecap:square;stroke-width:0.8;"/>
     </g>
     <g id="line2d_37">
      <g>
       <use style="fill:#555555;stroke:#555555;stroke-width:0.8;" x="68.8955" xlink:href="#m0ba28f1180" y="404.482857"/>
      </g>
     </g>
     <g id="text_13">
      <!-- 0.00 -->
      <g style="fill:#555555;" transform="translate(29.698 410.482857)scale(0.16 -0.16)">
       <use xlink:href="#Roboto-Bold-48"/>
       <use x="57.373047" xlink:href="#Roboto-Bold-46"/>
       <use x="86.474609" xlink:href="#Roboto-Bold-48"/>
       <use x="143.847656" xlink:href="#Roboto-Bold-48"/>
      </g>
     </g>
    </g>
    <g id="ytick_27">
     <g id="line2d_38">
      <path clip-path="url(#p888e27c58e)" d="M 68.8955 365.024354 
L 164.90354 365.024354 
" style="fill:none;stroke:#eeeeee;stroke-linecap:square;stroke-width:0.8;"/>
     </g>
     <g id="line2d_39">
      <g>
       <use style="fill:#555555;stroke:#555555;stroke-width:0.8;" x="68.8955" xlink:href="#m0ba28f1180" y="365.024354"/>
      </g>
     </g>
     <g id="text_14">
      <!-- 0.25 -->
      <g style="fill:#555555;" transform="translate(29.698 371.024354)scale(0.16 -0.16)">
       <use xlink:href="#Roboto-Bold-48"/>
       <use x="57.373047" xlink:href="#Roboto-Bold-46"/>
       <use x="86.474609" xlink:href="#Roboto-Bold-50"/>
       <use x="143.847656" xlink:href="#Roboto-Bold-53"/>
      </g>
     </g>
    </g>
    <g id="ytick_28">
     <g id="line2d_40">
      <path clip-path="url(#p888e27c58e)" d="M 68.8955 325.56585 
L 164.90354 325.56585 
" style="fill:none;stroke:#eeeeee;stroke-linecap:square;stroke-width:0.8;"/>
     </g>
     <g id="line2d_41">
      <g>
       <use style="fill:#555555;stroke:#555555;stroke-width:0.8;" x="68.8955" xlink:href="#m0ba28f1180" y="325.56585"/>
      </g>
     </g>
     <g id="text_15">
      <!-- 0.50 -->
      <g style="fill:#555555;" transform="translate(29.698 331.56585)scale(0.16 -0.16)">
       <use xlink:href="#Roboto-Bold-48"/>
       <use x="57.373047" xlink:href="#Roboto-Bold-46"/>
       <use x="86.474609" xlink:href="#Roboto-Bold-53"/>
       <use x="143.847656" xlink:href="#Roboto-Bold-48"/>
      </g>
     </g>
    </g>
    <g id="ytick_29">
     <g id="line2d_42">
      <path clip-path="url(#p888e27c58e)" d="M 68.8955 286.107347 
L 164.90354 286.107347 
" style="fill:none;stroke:#eeeeee;stroke-linecap:square;stroke-width:0.8;"/>
     </g>
     <g id="line2d_43">
      <g>
       <use style="fill:#555555;stroke:#555555;stroke-width:0.8;" x="68.8955" xlink:href="#m0ba28f1180" y="286.107347"/>
      </g>
     </g>
     <g id="text_16">
      <!-- 0.75 -->
      <g style="fill:#555555;" transform="translate(29.698 292.107347)scale(0.16 -0.16)">
       <use xlink:href="#Roboto-Bold-48"/>
       <use x="57.373047" xlink:href="#Roboto-Bold-46"/>
       <use x="86.474609" xlink:href="#Roboto-Bold-55"/>
       <use x="143.847656" xlink:href="#Roboto-Bold-53"/>
      </g>
     </g>
    </g>
    <g id="ytick_30">
     <g id="line2d_44">
      <path clip-path="url(#p888e27c58e)" d="M 68.8955 246.648844 
L 164.90354 246.648844 
" style="fill:none;stroke:#eeeeee;stroke-linecap:square;stroke-width:0.8;"/>
     </g>
     <g id="line2d_45">
      <g>
       <use style="fill:#555555;stroke:#555555;stroke-width:0.8;" x="68.8955" xlink:href="#m0ba28f1180" y="246.648844"/>
      </g>
     </g>
     <g id="text_17">
      <!-- 1.00 -->
      <g style="fill:#555555;" transform="translate(29.698 252.648844)scale(0.16 -0.16)">
       <use xlink:href="#Roboto-Bold-49"/>
       <use x="57.373047" xlink:href="#Roboto-Bold-46"/>
       <use x="86.474609" xlink:href="#Roboto-Bold-48"/>
       <use x="143.847656" xlink:href="#Roboto-Bold-48"/>
      </g>
     </g>
    </g>
   </g>
   <g id="patch_19">
    <path clip-path="url(#p888e27c58e)" d="M 78.496304 404.482857 
L 155.302736 404.482857 
L 155.302736 252.348405 
L 78.496304 252.348405 
z
" style="fill:#d3d3d3;"/>
   </g>
   <g id="line2d_46">
    <path clip-path="url(#p888e27c58e)" d="M 68.8955 391.330023 
L 164.90354 391.330023 
" style="fill:none;stroke:#808080;stroke-dasharray:5.55,2.4;stroke-dashoffset:0;stroke-width:1.5;"/>
   </g>
   <g id="patch_20">
    <path d="M 68.8955 404.482857 
L 68.8955 238.757143 
" style="fill:none;stroke:#555555;stroke-linecap:square;stroke-linejoin:miter;"/>
   </g>
   <g id="patch_21">
    <path d="M 68.8955 404.482857 
L 164.90354 404.482857 
" style="fill:none;stroke:#555555;stroke-linecap:square;stroke-linejoin:miter;"/>
   </g>
   <g id="PathCollection_6">
    <defs>
     <path d="M 0 3.5 
C 0.928211 3.5 1.81853 3.131218 2.474874 2.474874 
C 3.131218 1.81853 3.5 0.928211 3.5 -0 
C 3.5 -0.928211 3.131218 -1.81853 2.474874 -2.474874 
C 1.81853 -3.131218 0.928211 -3.5 0 -3.5 
C -0.928211 -3.5 -1.81853 -3.131218 -2.474874 -2.474874 
C -3.131218 -1.81853 -3.5 -0.928211 -3.5 0 
C -3.5 0.928211 -3.131218 1.81853 -2.474874 2.474874 
C -1.81853 3.131218 -0.928211 3.5 0 3.5 
z
" id="C5_0_1daed35527"/>
    </defs>
    <g clip-path="url(#p888e27c58e)">
     <use x="116.89952" xlink:href="#C5_0_1daed35527" y="257.171111"/>
    </g>
    <g clip-path="url(#p888e27c58e)">
     <use x="116.89952" xlink:href="#C5_0_1daed35527" y="251.909977"/>
    </g>
    <g clip-path="url(#p888e27c58e)">
     <use x="116.89952" xlink:href="#C5_0_1daed35527" y="247.964127"/>
    </g>
   </g>
  </g>
  <g id="axes_7">
   <g id="patch_22">
    <path d="M 164.90354 404.482857 
L 260.911579 404.482857 
L 260.911579 238.757143 
L 164.90354 238.757143 
z
" style="fill:#ffffff;"/>
   </g>
   <g id="matplotlib.axis_13"/>
   <g id="matplotlib.axis_14">
    <g id="ytick_31">
     <g id="line2d_47">
      <path clip-path="url(#p13f2fb1d98)" d="M 164.90354 404.482857 
L 260.911579 404.482857 
" style="fill:none;stroke:#eeeeee;stroke-linecap:square;stroke-width:0.8;"/>
     </g>
    </g>
    <g id="ytick_32">
     <g id="line2d_48">
      <path clip-path="url(#p13f2fb1d98)" d="M 164.90354 365.024354 
L 260.911579 365.024354 
" style="fill:none;stroke:#eeeeee;stroke-linecap:square;stroke-width:0.8;"/>
     </g>
    </g>
    <g id="ytick_33">
     <g id="line2d_49">
      <path clip-path="url(#p13f2fb1d98)" d="M 164.90354 325.56585 
L 260.911579 325.56585 
" style="fill:none;stroke:#eeeeee;stroke-linecap:square;stroke-width:0.8;"/>
     </g>
    </g>
    <g id="ytick_34">
     <g id="line2d_50">
      <path clip-path="url(#p13f2fb1d98)" d="M 164.90354 286.107347 
L 260.911579 286.107347 
" style="fill:none;stroke:#eeeeee;stroke-linecap:square;stroke-width:0.8;"/>
     </g>
    </g>
    <g id="ytick_35">
     <g id="line2d_51">
      <path clip-path="url(#p13f2fb1d98)" d="M 164.90354 246.648844 
L 260.911579 246.648844 
" style="fill:none;stroke:#eeeeee;stroke-linecap:square;stroke-width:0.8;"/>
     </g>
    </g>
   </g>
   <g id="patch_23">
    <path clip-path="url(#p13f2fb1d98)" d="M 174.504344 404.482857 
L 251.310775 404.482857 
L 251.310775 251.47155 
L 174.504344 251.47155 
z
" style="fill:#d3d3d3;"/>
   </g>
   <g id="line2d_52">
    <path clip-path="url(#p13f2fb1d98)" d="M 164.90354 391.330023 
L 260.911579 391.330023 
" style="fill:none;stroke:#808080;stroke-dasharray:5.55,2.4;stroke-dashoffset:0;stroke-width:1.5;"/>
   </g>
   <g id="patch_24">
    <path d="M 164.90354 404.482857 
L 260.911579 404.482857 
" style="fill:none;stroke:#555555;stroke-linecap:square;stroke-linejoin:miter;"/>
   </g>
   <g id="PathCollection_7">
    <defs>
     <path d="M 0 3.5 
C 0.928211 3.5 1.81853 3.131218 2.474874 2.474874 
C 3.131218 1.81853 3.5 0.928211 3.5 -0 
C 3.5 -0.928211 3.131218 -1.81853 2.474874 -2.474874 
C 1.81853 -3.131218 0.928211 -3.5 0 -3.5 
C -0.928211 -3.5 -1.81853 -3.131218 -2.474874 -2.474874 
C -3.131218 -1.81853 -3.5 -0.928211 -3.5 0 
C -3.5 0.928211 -3.131218 1.81853 -2.474874 2.474874 
C -1.81853 3.131218 -0.928211 3.5 0 3.5 
z
" id="C6_0_c949f57ed9"/>
    </defs>
    <g clip-path="url(#p13f2fb1d98)">
     <use x="212.907559" xlink:href="#C6_0_c949f57ed9" y="254.540544"/>
    </g>
    <g clip-path="url(#p13f2fb1d98)">
     <use x="212.907559" xlink:href="#C6_0_c949f57ed9" y="253.225261"/>
    </g>
    <g clip-path="url(#p13f2fb1d98)">
     <use x="212.907559" xlink:href="#C6_0_c949f57ed9" y="246.648844"/>
    </g>
   </g>
  </g>
  <g id="axes_8">
   <g id="patch_25">
    <path d="M 260.911579 404.482857 
L 356.919619 404.482857 
L 356.919619 238.757143 
L 260.911579 238.757143 
z
" style="fill:#ffffff;"/>
   </g>
   <g id="matplotlib.axis_15"/>
   <g id="matplotlib.axis_16">
    <g id="ytick_36">
     <g id="line2d_53">
      <path clip-path="url(#p6fee0c6747)" d="M 260.911579 404.482857 
L 356.919619 404.482857 
" style="fill:none;stroke:#eeeeee;stroke-linecap:square;stroke-width:0.8;"/>
     </g>
    </g>
    <g id="ytick_37">
     <g id="line2d_54">
      <path clip-path="url(#p6fee0c6747)" d="M 260.911579 365.024354 
L 356.919619 365.024354 
" style="fill:none;stroke:#eeeeee;stroke-linecap:square;stroke-width:0.8;"/>
     </g>
    </g>
    <g id="ytick_38">
     <g id="line2d_55">
      <path clip-path="url(#p6fee0c6747)" d="M 260.911579 325.56585 
L 356.919619 325.56585 
" style="fill:none;stroke:#eeeeee;stroke-linecap:square;stroke-width:0.8;"/>
     </g>
    </g>
    <g id="ytick_39">
     <g id="line2d_56">
      <path clip-path="url(#p6fee0c6747)" d="M 260.911579 286.107347 
L 356.919619 286.107347 
" style="fill:none;stroke:#eeeeee;stroke-linecap:square;stroke-width:0.8;"/>
     </g>
    </g>
    <g id="ytick_40">
     <g id="line2d_57">
      <path clip-path="url(#p6fee0c6747)" d="M 260.911579 246.648844 
L 356.919619 246.648844 
" style="fill:none;stroke:#eeeeee;stroke-linecap:square;stroke-width:0.8;"/>
     </g>
    </g>
   </g>
   <g id="patch_26">
    <path clip-path="url(#p6fee0c6747)" d="M 270.512383 404.482857 
L 347.318815 404.482857 
L 347.318815 255.855828 
L 270.512383 255.855828 
z
" style="fill:#d3d3d3;"/>
   </g>
   <g id="line2d_58">
    <path clip-path="url(#p6fee0c6747)" d="M 260.911579 391.330023 
L 356.919619 391.330023 
" style="fill:none;stroke:#808080;stroke-dasharray:5.55,2.4;stroke-dashoffset:0;stroke-width:1.5;"/>
   </g>
   <g id="patch_27">
    <path d="M 260.911579 404.482857 
L 356.919619 404.482857 
" style="fill:none;stroke:#555555;stroke-linecap:square;stroke-linejoin:miter;"/>
   </g>
   <g id="PathCollection_8">
    <defs>
     <path d="M 0 3.5 
C 0.928211 3.5 1.81853 3.131218 2.474874 2.474874 
C 3.131218 1.81853 3.5 0.928211 3.5 -0 
C 3.5 -0.928211 3.131218 -1.81853 2.474874 -2.474874 
C 1.81853 -3.131218 0.928211 -3.5 0 -3.5 
C -0.928211 -3.5 -1.81853 -3.131218 -2.474874 -2.474874 
C -3.131218 -1.81853 -3.5 -0.928211 -3.5 0 
C -3.5 0.928211 -3.131218 1.81853 -2.474874 2.474874 
C -1.81853 3.131218 -0.928211 3.5 0 3.5 
z
" id="C7_0_3ceba87afe"/>
    </defs>
    <g clip-path="url(#p6fee0c6747)">
     <use x="308.915599" xlink:href="#C7_0_3ceba87afe" y="259.801678"/>
    </g>
    <g clip-path="url(#p6fee0c6747)">
     <use x="300.307481" xlink:href="#C7_0_3ceba87afe" y="259.801678"/>
    </g>
    <g clip-path="url(#p6fee0c6747)">
     <use x="308.915599" xlink:href="#C7_0_3ceba87afe" y="247.964127"/>
    </g>
   </g>
  </g>
  <g id="axes_9">
   <g id="patch_28">
    <path d="M 356.919619 404.482857 
L 452.927658 404.482857 
L 452.927658 238.757143 
L 356.919619 238.757143 
z
" style="fill:#ffffff;"/>
   </g>
   <g id="matplotlib.axis_17"/>
   <g id="matplotlib.axis_18">
    <g id="ytick_41">
     <g id="line2d_59">
      <path clip-path="url(#p24ca7d0ddb)" d="M 356.919619 404.482857 
L 452.927658 404.482857 
" style="fill:none;stroke:#eeeeee;stroke-linecap:square;stroke-width:0.8;"/>
     </g>
    </g>
    <g id="ytick_42">
     <g id="line2d_60">
      <path clip-path="url(#p24ca7d0ddb)" d="M 356.919619 365.024354 
L 452.927658 365.024354 
" style="fill:none;stroke:#eeeeee;stroke-linecap:square;stroke-width:0.8;"/>
     </g>
    </g>
    <g id="ytick_43">
     <g id="line2d_61">
      <path clip-path="url(#p24ca7d0ddb)" d="M 356.919619 325.56585 
L 452.927658 325.56585 
" style="fill:none;stroke:#eeeeee;stroke-linecap:square;stroke-width:0.8;"/>
     </g>
    </g>
    <g id="ytick_44">
     <g id="line2d_62">
      <path clip-path="url(#p24ca7d0ddb)" d="M 356.919619 286.107347 
L 452.927658 286.107347 
" style="fill:none;stroke:#eeeeee;stroke-linecap:square;stroke-width:0.8;"/>
     </g>
    </g>
    <g id="ytick_45">
     <g id="line2d_63">
      <path clip-path="url(#p24ca7d0ddb)" d="M 356.919619 246.648844 
L 452.927658 246.648844 
" style="fill:none;stroke:#eeeeee;stroke-linecap:square;stroke-width:0.8;"/>
     </g>
    </g>
   </g>
   <g id="patch_29">
    <path clip-path="url(#p24ca7d0ddb)" d="M 366.520423 404.482857 
L 443.326855 404.482857 
L 443.326855 278.654074 
L 366.520423 278.654074 
z
" style="fill:#d3d3d3;"/>
   </g>
   <g id="line2d_64">
    <path clip-path="url(#p24ca7d0ddb)" d="M 356.919619 391.330023 
L 452.927658 391.330023 
" style="fill:none;stroke:#808080;stroke-dasharray:5.55,2.4;stroke-dashoffset:0;stroke-width:1.5;"/>
   </g>
   <g id="patch_30">
    <path d="M 356.919619 404.482857 
L 452.927658 404.482857 
" style="fill:none;stroke:#555555;stroke-linecap:square;stroke-linejoin:miter;"/>
   </g>
   <g id="PathCollection_9">
    <defs>
     <path d="M 0 3.5 
C 0.928211 3.5 1.81853 3.131218 2.474874 2.474874 
C 3.131218 1.81853 3.5 0.928211 3.5 -0 
C 3.5 -0.928211 3.131218 -1.81853 2.474874 -2.474874 
C 1.81853 -3.131218 0.928211 -3.5 0 -3.5 
C -0.928211 -3.5 -1.81853 -3.131218 -2.474874 -2.474874 
C -3.131218 -1.81853 -3.5 -0.928211 -3.5 0 
C -3.5 0.928211 -3.131218 1.81853 -2.474874 2.474874 
C -1.81853 3.131218 -0.928211 3.5 0 3.5 
z
" id="C8_0_6a60731c87"/>
    </defs>
    <g clip-path="url(#p24ca7d0ddb)">
     <use x="404.923639" xlink:href="#C8_0_6a60731c87" y="291.368481"/>
    </g>
    <g clip-path="url(#p24ca7d0ddb)">
     <use x="404.923639" xlink:href="#C8_0_6a60731c87" y="287.42263"/>
    </g>
    <g clip-path="url(#p24ca7d0ddb)">
     <use x="404.923639" xlink:href="#C8_0_6a60731c87" y="257.171111"/>
    </g>
   </g>
  </g>
  <g id="axes_10">
   <g id="patch_31">
    <path d="M 452.927658 404.482857 
L 548.935698 404.482857 
L 548.935698 238.757143 
L 452.927658 238.757143 
z
" style="fill:#ffffff;"/>
   </g>
   <g id="matplotlib.axis_19"/>
   <g id="matplotlib.axis_20">
    <g id="ytick_46">
     <g id="line2d_65">
      <path clip-path="url(#pff139c0460)" d="M 452.927658 404.482857 
L 548.935698 404.482857 
" style="fill:none;stroke:#eeeeee;stroke-linecap:square;stroke-width:0.8;"/>
     </g>
    </g>
    <g id="ytick_47">
     <g id="line2d_66">
      <path clip-path="url(#pff139c0460)" d="M 452.927658 365.024354 
L 548.935698 365.024354 
" style="fill:none;stroke:#eeeeee;stroke-linecap:square;stroke-width:0.8;"/>
     </g>
    </g>
    <g id="ytick_48">
     <g id="line2d_67">
      <path clip-path="url(#pff139c0460)" d="M 452.927658 325.56585 
L 548.935698 325.56585 
" style="fill:none;stroke:#eeeeee;stroke-linecap:square;stroke-width:0.8;"/>
     </g>
    </g>
    <g id="ytick_49">
     <g id="line2d_68">
      <path clip-path="url(#pff139c0460)" d="M 452.927658 286.107347 
L 548.935698 286.107347 
" style="fill:none;stroke:#eeeeee;stroke-linecap:square;stroke-width:0.8;"/>
     </g>
    </g>
    <g id="ytick_50">
     <g id="line2d_69">
      <path clip-path="url(#pff139c0460)" d="M 452.927658 246.648844 
L 548.935698 246.648844 
" style="fill:none;stroke:#eeeeee;stroke-linecap:square;stroke-width:0.8;"/>
     </g>
    </g>
   </g>
   <g id="patch_32">
    <path clip-path="url(#pff139c0460)" d="M 462.528462 404.482857 
L 539.334894 404.482857 
L 539.334894 323.373711 
L 462.528462 323.373711 
z
" style="fill:#d3d3d3;"/>
   </g>
   <g id="line2d_70">
    <path clip-path="url(#pff139c0460)" d="M 452.927658 391.330023 
L 548.935698 391.330023 
" style="fill:none;stroke:#808080;stroke-dasharray:5.55,2.4;stroke-dashoffset:0;stroke-width:1.5;"/>
   </g>
   <g id="patch_33">
    <path d="M 452.927658 404.482857 
L 548.935698 404.482857 
" style="fill:none;stroke:#555555;stroke-linecap:square;stroke-linejoin:miter;"/>
   </g>
   <g id="PathCollection_10">
    <defs>
     <path d="M 0 3.5 
C 0.928211 3.5 1.81853 3.131218 2.474874 2.474874 
C 3.131218 1.81853 3.5 0.928211 3.5 -0 
C 3.5 -0.928211 3.131218 -1.81853 2.474874 -2.474874 
C 1.81853 -3.131218 0.928211 -3.5 0 -3.5 
C -0.928211 -3.5 -1.81853 -3.131218 -2.474874 -2.474874 
C -3.131218 -1.81853 -3.5 -0.928211 -3.5 0 
C -3.5 0.928211 -3.131218 1.81853 -2.474874 2.474874 
C -1.81853 3.131218 -0.928211 3.5 0 3.5 
z
" id="C9_0_850a79b4a7"/>
    </defs>
    <g clip-path="url(#pff139c0460)">
     <use x="500.931678" xlink:href="#C9_0_850a79b4a7" y="347.925669"/>
    </g>
    <g clip-path="url(#pff139c0460)">
     <use x="500.931678" xlink:href="#C9_0_850a79b4a7" y="332.142268"/>
    </g>
    <g clip-path="url(#pff139c0460)">
     <use x="500.931678" xlink:href="#C9_0_850a79b4a7" y="290.053197"/>
    </g>
   </g>
   <g id="text_18">
    <!-- L4 -->
    <g style="fill:#555555;" transform="translate(554.755859 310.913)rotate(-270)scale(0.192 -0.192)">
     <defs>
      <path d="M 2.734375 24.265625 
L 32.375 71.09375 
L 46.625 71.09375 
L 46.625 26.765625 
L 54.6875 26.765625 
L 54.6875 15.375 
L 46.625 15.375 
L 46.625 0 
L 32.515625 0 
L 32.515625 15.375 
L 3.375 15.375 
z
M 16.75 26.765625 
L 32.515625 26.765625 
L 32.515625 52 
L 31.546875 50.296875 
z
" id="Roboto-Bold-52"/>
     </defs>
     <use xlink:href="#Roboto-Bold-76"/>
     <use x="54.150391" xlink:href="#Roboto-Bold-52"/>
    </g>
   </g>
  </g>
  <g id="axes_11">
   <g id="patch_34">
    <path d="M 68.8955 611.64 
L 164.90354 611.64 
L 164.90354 445.914286 
L 68.8955 445.914286 
z
" style="fill:#ffffff;"/>
   </g>
   <g id="matplotlib.axis_21"/>
   <g id="matplotlib.axis_22">
    <g id="ytick_51">
     <g id="line2d_71">
      <path clip-path="url(#p820c391bb1)" d="M 68.8955 611.64 
L 164.90354 611.64 
" style="fill:none;stroke:#eeeeee;stroke-linecap:square;stroke-width:0.8;"/>
     </g>
     <g id="line2d_72">
      <g>
       <use style="fill:#555555;stroke:#555555;stroke-width:0.8;" x="68.8955" xlink:href="#m0ba28f1180" y="611.64"/>
      </g>
     </g>
     <g id="text_19">
      <!-- 0.00 -->
      <g style="fill:#555555;" transform="translate(29.698 617.64)scale(0.16 -0.16)">
       <use xlink:href="#Roboto-Bold-48"/>
       <use x="57.373047" xlink:href="#Roboto-Bold-46"/>
       <use x="86.474609" xlink:href="#Roboto-Bold-48"/>
       <use x="143.847656" xlink:href="#Roboto-Bold-48"/>
      </g>
     </g>
    </g>
    <g id="ytick_52">
     <g id="line2d_73">
      <path clip-path="url(#p820c391bb1)" d="M 68.8955 572.181497 
L 164.90354 572.181497 
" style="fill:none;stroke:#eeeeee;stroke-linecap:square;stroke-width:0.8;"/>
     </g>
     <g id="line2d_74">
      <g>
       <use style="fill:#555555;stroke:#555555;stroke-width:0.8;" x="68.8955" xlink:href="#m0ba28f1180" y="572.181497"/>
      </g>
     </g>
     <g id="text_20">
      <!-- 0.25 -->
      <g style="fill:#555555;" transform="translate(29.698 578.181497)scale(0.16 -0.16)">
       <use xlink:href="#Roboto-Bold-48"/>
       <use x="57.373047" xlink:href="#Roboto-Bold-46"/>
       <use x="86.474609" xlink:href="#Roboto-Bold-50"/>
       <use x="143.847656" xlink:href="#Roboto-Bold-53"/>
      </g>
     </g>
    </g>
    <g id="ytick_53">
     <g id="line2d_75">
      <path clip-path="url(#p820c391bb1)" d="M 68.8955 532.722993 
L 164.90354 532.722993 
" style="fill:none;stroke:#eeeeee;stroke-linecap:square;stroke-width:0.8;"/>
     </g>
     <g id="line2d_76">
      <g>
       <use style="fill:#555555;stroke:#555555;stroke-width:0.8;" x="68.8955" xlink:href="#m0ba28f1180" y="532.722993"/>
      </g>
     </g>
     <g id="text_21">
      <!-- 0.50 -->
      <g style="fill:#555555;" transform="translate(29.698 538.722993)scale(0.16 -0.16)">
       <use xlink:href="#Roboto-Bold-48"/>
       <use x="57.373047" xlink:href="#Roboto-Bold-46"/>
       <use x="86.474609" xlink:href="#Roboto-Bold-53"/>
       <use x="143.847656" xlink:href="#Roboto-Bold-48"/>
      </g>
     </g>
    </g>
    <g id="ytick_54">
     <g id="line2d_77">
      <path clip-path="url(#p820c391bb1)" d="M 68.8955 493.26449 
L 164.90354 493.26449 
" style="fill:none;stroke:#eeeeee;stroke-linecap:square;stroke-width:0.8;"/>
     </g>
     <g id="line2d_78">
      <g>
       <use style="fill:#555555;stroke:#555555;stroke-width:0.8;" x="68.8955" xlink:href="#m0ba28f1180" y="493.26449"/>
      </g>
     </g>
     <g id="text_22">
      <!-- 0.75 -->
      <g style="fill:#555555;" transform="translate(29.698 499.26449)scale(0.16 -0.16)">
       <use xlink:href="#Roboto-Bold-48"/>
       <use x="57.373047" xlink:href="#Roboto-Bold-46"/>
       <use x="86.474609" xlink:href="#Roboto-Bold-55"/>
       <use x="143.847656" xlink:href="#Roboto-Bold-53"/>
      </g>
     </g>
    </g>
    <g id="ytick_55">
     <g id="line2d_79">
      <path clip-path="url(#p820c391bb1)" d="M 68.8955 453.805986 
L 164.90354 453.805986 
" style="fill:none;stroke:#eeeeee;stroke-linecap:square;stroke-width:0.8;"/>
     </g>
     <g id="line2d_80">
      <g>
       <use style="fill:#555555;stroke:#555555;stroke-width:0.8;" x="68.8955" xlink:href="#m0ba28f1180" y="453.805986"/>
      </g>
     </g>
     <g id="text_23">
      <!-- 1.00 -->
      <g style="fill:#555555;" transform="translate(29.698 459.805986)scale(0.16 -0.16)">
       <use xlink:href="#Roboto-Bold-49"/>
       <use x="57.373047" xlink:href="#Roboto-Bold-46"/>
       <use x="86.474609" xlink:href="#Roboto-Bold-48"/>
       <use x="143.847656" xlink:href="#Roboto-Bold-48"/>
      </g>
     </g>
    </g>
   </g>
   <g id="patch_35">
    <path clip-path="url(#p820c391bb1)" d="M 78.496304 611.64 
L 155.302736 611.64 
L 155.302736 465.20511 
L 78.496304 465.20511 
z
" style="fill:#d3d3d3;"/>
   </g>
   <g id="line2d_81">
    <path clip-path="url(#p820c391bb1)" d="M 68.8955 598.487166 
L 164.90354 598.487166 
" style="fill:none;stroke:#808080;stroke-dasharray:5.55,2.4;stroke-dashoffset:0;stroke-width:1.5;"/>
   </g>
   <g id="patch_36">
    <path d="M 68.8955 611.64 
L 68.8955 445.914286 
" style="fill:none;stroke:#555555;stroke-linecap:square;stroke-linejoin:miter;"/>
   </g>
   <g id="patch_37">
    <path d="M 68.8955 611.64 
L 164.90354 611.64 
" style="fill:none;stroke:#555555;stroke-linecap:square;stroke-linejoin:miter;"/>
   </g>
   <g id="PathCollection_11">
    <defs>
     <path d="M 0 3.5 
C 0.928211 3.5 1.81853 3.131218 2.474874 2.474874 
C 3.131218 1.81853 3.5 0.928211 3.5 -0 
C 3.5 -0.928211 3.131218 -1.81853 2.474874 -2.474874 
C 1.81853 -3.131218 0.928211 -3.5 0 -3.5 
C -0.928211 -3.5 -1.81853 -3.131218 -2.474874 -2.474874 
C -3.131218 -1.81853 -3.5 -0.928211 -3.5 0 
C -3.5 0.928211 -3.131218 1.81853 -2.474874 2.474874 
C -1.81853 3.131218 -0.928211 3.5 0 3.5 
z
" id="Ca_0_78a93c2938"/>
    </defs>
    <g clip-path="url(#p820c391bb1)">
     <use x="116.89952" xlink:href="#Ca_0_78a93c2938" y="472.219955"/>
    </g>
    <g clip-path="url(#p820c391bb1)">
     <use x="116.89952" xlink:href="#Ca_0_78a93c2938" y="465.643537"/>
    </g>
    <g clip-path="url(#p820c391bb1)">
     <use x="116.89952" xlink:href="#Ca_0_78a93c2938" y="457.751837"/>
    </g>
   </g>
  </g>
  <g id="axes_12">
   <g id="patch_38">
    <path d="M 164.90354 611.64 
L 260.911579 611.64 
L 260.911579 445.914286 
L 164.90354 445.914286 
z
" style="fill:#ffffff;"/>
   </g>
   <g id="matplotlib.axis_23"/>
   <g id="matplotlib.axis_24">
    <g id="ytick_56">
     <g id="line2d_82">
      <path clip-path="url(#p122ecea451)" d="M 164.90354 611.64 
L 260.911579 611.64 
" style="fill:none;stroke:#eeeeee;stroke-linecap:square;stroke-width:0.8;"/>
     </g>
    </g>
    <g id="ytick_57">
     <g id="line2d_83">
      <path clip-path="url(#p122ecea451)" d="M 164.90354 572.181497 
L 260.911579 572.181497 
" style="fill:none;stroke:#eeeeee;stroke-linecap:square;stroke-width:0.8;"/>
     </g>
    </g>
    <g id="ytick_58">
     <g id="line2d_84">
      <path clip-path="url(#p122ecea451)" d="M 164.90354 532.722993 
L 260.911579 532.722993 
" style="fill:none;stroke:#eeeeee;stroke-linecap:square;stroke-width:0.8;"/>
     </g>
    </g>
    <g id="ytick_59">
     <g id="line2d_85">
      <path clip-path="url(#p122ecea451)" d="M 164.90354 493.26449 
L 260.911579 493.26449 
" style="fill:none;stroke:#eeeeee;stroke-linecap:square;stroke-width:0.8;"/>
     </g>
    </g>
    <g id="ytick_60">
     <g id="line2d_86">
      <path clip-path="url(#p122ecea451)" d="M 164.90354 453.805986 
L 260.911579 453.805986 
" style="fill:none;stroke:#eeeeee;stroke-linecap:square;stroke-width:0.8;"/>
     </g>
    </g>
   </g>
   <g id="patch_39">
    <path clip-path="url(#p122ecea451)" d="M 174.504344 611.64 
L 251.310775 611.64 
L 251.310775 466.958821 
L 174.504344 466.958821 
z
" style="fill:#d3d3d3;"/>
   </g>
   <g id="line2d_87">
    <path clip-path="url(#p122ecea451)" d="M 164.90354 598.487166 
L 260.911579 598.487166 
" style="fill:none;stroke:#808080;stroke-dasharray:5.55,2.4;stroke-dashoffset:0;stroke-width:1.5;"/>
   </g>
   <g id="patch_40">
    <path d="M 164.90354 611.64 
L 260.911579 611.64 
" style="fill:none;stroke:#555555;stroke-linecap:square;stroke-linejoin:miter;"/>
   </g>
   <g id="PathCollection_12">
    <defs>
     <path d="M 0 3.5 
C 0.928211 3.5 1.81853 3.131218 2.474874 2.474874 
C 3.131218 1.81853 3.5 0.928211 3.5 -0 
C 3.5 -0.928211 3.131218 -1.81853 2.474874 -2.474874 
C 1.81853 -3.131218 0.928211 -3.5 0 -3.5 
C -0.928211 -3.5 -1.81853 -3.131218 -2.474874 -2.474874 
C -3.131218 -1.81853 -3.5 -0.928211 -3.5 0 
C -3.5 0.928211 -3.131218 1.81853 -2.474874 2.474874 
C -1.81853 3.131218 -0.928211 3.5 0 3.5 
z
" id="Cb_0_de6c9efa86"/>
    </defs>
    <g clip-path="url(#p122ecea451)">
     <use x="212.907559" xlink:href="#Cb_0_de6c9efa86" y="485.372789"/>
    </g>
    <g clip-path="url(#p122ecea451)">
     <use x="212.907559" xlink:href="#Cb_0_de6c9efa86" y="460.382404"/>
    </g>
    <g clip-path="url(#p122ecea451)">
     <use x="212.907559" xlink:href="#Cb_0_de6c9efa86" y="455.12127"/>
    </g>
   </g>
  </g>
  <g id="axes_13">
   <g id="patch_41">
    <path d="M 260.911579 611.64 
L 356.919619 611.64 
L 356.919619 445.914286 
L 260.911579 445.914286 
z
" style="fill:#ffffff;"/>
   </g>
   <g id="matplotlib.axis_25"/>
   <g id="matplotlib.axis_26">
    <g id="ytick_61">
     <g id="line2d_88">
      <path clip-path="url(#pb323a914e0)" d="M 260.911579 611.64 
L 356.919619 611.64 
" style="fill:none;stroke:#eeeeee;stroke-linecap:square;stroke-width:0.8;"/>
     </g>
    </g>
    <g id="ytick_62">
     <g id="line2d_89">
      <path clip-path="url(#pb323a914e0)" d="M 260.911579 572.181497 
L 356.919619 572.181497 
" style="fill:none;stroke:#eeeeee;stroke-linecap:square;stroke-width:0.8;"/>
     </g>
    </g>
    <g id="ytick_63">
     <g id="line2d_90">
      <path clip-path="url(#pb323a914e0)" d="M 260.911579 532.722993 
L 356.919619 532.722993 
" style="fill:none;stroke:#eeeeee;stroke-linecap:square;stroke-width:0.8;"/>
     </g>
    </g>
    <g id="ytick_64">
     <g id="line2d_91">
      <path clip-path="url(#pb323a914e0)" d="M 260.911579 493.26449 
L 356.919619 493.26449 
" style="fill:none;stroke:#eeeeee;stroke-linecap:square;stroke-width:0.8;"/>
     </g>
    </g>
    <g id="ytick_65">
     <g id="line2d_92">
      <path clip-path="url(#pb323a914e0)" d="M 260.911579 453.805986 
L 356.919619 453.805986 
" style="fill:none;stroke:#eeeeee;stroke-linecap:square;stroke-width:0.8;"/>
     </g>
    </g>
   </g>
   <g id="patch_42">
    <path clip-path="url(#pb323a914e0)" d="M 270.512383 611.64 
L 347.318815 611.64 
L 347.318815 469.589388 
L 270.512383 469.589388 
z
" style="fill:#d3d3d3;"/>
   </g>
   <g id="line2d_93">
    <path clip-path="url(#pb323a914e0)" d="M 260.911579 598.487166 
L 356.919619 598.487166 
" style="fill:none;stroke:#808080;stroke-dasharray:5.55,2.4;stroke-dashoffset:0;stroke-width:1.5;"/>
   </g>
   <g id="patch_43">
    <path d="M 260.911579 611.64 
L 356.919619 611.64 
" style="fill:none;stroke:#555555;stroke-linecap:square;stroke-linejoin:miter;"/>
   </g>
   <g id="PathCollection_13">
    <defs>
     <path d="M 0 3.5 
C 0.928211 3.5 1.81853 3.131218 2.474874 2.474874 
C 3.131218 1.81853 3.5 0.928211 3.5 -0 
C 3.5 -0.928211 3.131218 -1.81853 2.474874 -2.474874 
C 1.81853 -3.131218 0.928211 -3.5 0 -3.5 
C -0.928211 -3.5 -1.81853 -3.131218 -2.474874 -2.474874 
C -3.131218 -1.81853 -3.5 -0.928211 -3.5 0 
C -3.5 0.928211 -3.131218 1.81853 -2.474874 2.474874 
C -1.81853 3.131218 -0.928211 3.5 0 3.5 
z
" id="Cc_0_1439ab368c"/>
    </defs>
    <g clip-path="url(#pb323a914e0)">
     <use x="308.915599" xlink:href="#Cc_0_1439ab368c" y="469.589388"/>
    </g>
    <g clip-path="url(#pb323a914e0)">
     <use x="300.307481" xlink:href="#Cc_0_1439ab368c" y="469.589388"/>
    </g>
   </g>
  </g>
  <g id="axes_14">
   <g id="patch_44">
    <path d="M 356.919619 611.64 
L 452.927658 611.64 
L 452.927658 445.914286 
L 356.919619 445.914286 
z
" style="fill:#ffffff;"/>
   </g>
   <g id="matplotlib.axis_27"/>
   <g id="matplotlib.axis_28">
    <g id="ytick_66">
     <g id="line2d_94">
      <path clip-path="url(#pad2c5115d7)" d="M 356.919619 611.64 
L 452.927658 611.64 
" style="fill:none;stroke:#eeeeee;stroke-linecap:square;stroke-width:0.8;"/>
     </g>
    </g>
    <g id="ytick_67">
     <g id="line2d_95">
      <path clip-path="url(#pad2c5115d7)" d="M 356.919619 572.181497 
L 452.927658 572.181497 
" style="fill:none;stroke:#eeeeee;stroke-linecap:square;stroke-width:0.8;"/>
     </g>
    </g>
    <g id="ytick_68">
     <g id="line2d_96">
      <path clip-path="url(#pad2c5115d7)" d="M 356.919619 532.722993 
L 452.927658 532.722993 
" style="fill:none;stroke:#eeeeee;stroke-linecap:square;stroke-width:0.8;"/>
     </g>
    </g>
    <g id="ytick_69">
     <g id="line2d_97">
      <path clip-path="url(#pad2c5115d7)" d="M 356.919619 493.26449 
L 452.927658 493.26449 
" style="fill:none;stroke:#eeeeee;stroke-linecap:square;stroke-width:0.8;"/>
     </g>
    </g>
    <g id="ytick_70">
     <g id="line2d_98">
      <path clip-path="url(#pad2c5115d7)" d="M 356.919619 453.805986 
L 452.927658 453.805986 
" style="fill:none;stroke:#eeeeee;stroke-linecap:square;stroke-width:0.8;"/>
     </g>
    </g>
   </g>
   <g id="patch_45">
    <path clip-path="url(#pad2c5115d7)" d="M 366.520423 611.64 
L 443.326855 611.64 
L 443.326855 475.288949 
L 366.520423 475.288949 
z
" style="fill:#d3d3d3;"/>
   </g>
   <g id="line2d_99">
    <path clip-path="url(#pad2c5115d7)" d="M 356.919619 598.487166 
L 452.927658 598.487166 
" style="fill:none;stroke:#808080;stroke-dasharray:5.55,2.4;stroke-dashoffset:0;stroke-width:1.5;"/>
   </g>
   <g id="patch_46">
    <path d="M 356.919619 611.64 
L 452.927658 611.64 
" style="fill:none;stroke:#555555;stroke-linecap:square;stroke-linejoin:miter;"/>
   </g>
   <g id="PathCollection_14">
    <defs>
     <path d="M 0 3.5 
C 0.928211 3.5 1.81853 3.131218 2.474874 2.474874 
C 3.131218 1.81853 3.5 0.928211 3.5 -0 
C 3.5 -0.928211 3.131218 -1.81853 2.474874 -2.474874 
C 1.81853 -3.131218 0.928211 -3.5 0 -3.5 
C -0.928211 -3.5 -1.81853 -3.131218 -2.474874 -2.474874 
C -3.131218 -1.81853 -3.5 -0.928211 -3.5 0 
C -3.5 0.928211 -3.131218 1.81853 -2.474874 2.474874 
C -1.81853 3.131218 -0.928211 3.5 0 3.5 
z
" id="Cd_0_f42926153f"/>
    </defs>
    <g clip-path="url(#pad2c5115d7)">
     <use x="404.923639" xlink:href="#Cd_0_f42926153f" y="490.633923"/>
    </g>
    <g clip-path="url(#pad2c5115d7)">
     <use x="404.923639" xlink:href="#Cd_0_f42926153f" y="470.904671"/>
    </g>
    <g clip-path="url(#pad2c5115d7)">
     <use x="404.923639" xlink:href="#Cd_0_f42926153f" y="464.328254"/>
    </g>
   </g>
  </g>
  <g id="axes_15">
   <g id="patch_47">
    <path d="M 452.927658 611.64 
L 548.935698 611.64 
L 548.935698 445.914286 
L 452.927658 445.914286 
z
" style="fill:#ffffff;"/>
   </g>
   <g id="matplotlib.axis_29"/>
   <g id="matplotlib.axis_30">
    <g id="ytick_71">
     <g id="line2d_100">
      <path clip-path="url(#pcdd4684ecb)" d="M 452.927658 611.64 
L 548.935698 611.64 
" style="fill:none;stroke:#eeeeee;stroke-linecap:square;stroke-width:0.8;"/>
     </g>
    </g>
    <g id="ytick_72">
     <g id="line2d_101">
      <path clip-path="url(#pcdd4684ecb)" d="M 452.927658 572.181497 
L 548.935698 572.181497 
" style="fill:none;stroke:#eeeeee;stroke-linecap:square;stroke-width:0.8;"/>
     </g>
    </g>
    <g id="ytick_73">
     <g id="line2d_102">
      <path clip-path="url(#pcdd4684ecb)" d="M 452.927658 532.722993 
L 548.935698 532.722993 
" style="fill:none;stroke:#eeeeee;stroke-linecap:square;stroke-width:0.8;"/>
     </g>
    </g>
    <g id="ytick_74">
     <g id="line2d_103">
      <path clip-path="url(#pcdd4684ecb)" d="M 452.927658 493.26449 
L 548.935698 493.26449 
" style="fill:none;stroke:#eeeeee;stroke-linecap:square;stroke-width:0.8;"/>
     </g>
    </g>
    <g id="ytick_75">
     <g id="line2d_104">
      <path clip-path="url(#pcdd4684ecb)" d="M 452.927658 453.805986 
L 548.935698 453.805986 
" style="fill:none;stroke:#eeeeee;stroke-linecap:square;stroke-width:0.8;"/>
     </g>
    </g>
   </g>
   <g id="patch_48">
    <path clip-path="url(#pcdd4684ecb)" d="M 462.528462 611.64 
L 539.334894 611.64 
L 539.334894 470.027816 
L 462.528462 470.027816 
z
" style="fill:#d3d3d3;"/>
   </g>
   <g id="line2d_105">
    <path clip-path="url(#pcdd4684ecb)" d="M 452.927658 598.487166 
L 548.935698 598.487166 
" style="fill:none;stroke:#808080;stroke-dasharray:5.55,2.4;stroke-dashoffset:0;stroke-width:1.5;"/>
   </g>
   <g id="patch_49">
    <path d="M 452.927658 611.64 
L 548.935698 611.64 
" style="fill:none;stroke:#555555;stroke-linecap:square;stroke-linejoin:miter;"/>
   </g>
   <g id="PathCollection_15">
    <defs>
     <path d="M 0 3.5 
C 0.928211 3.5 1.81853 3.131218 2.474874 2.474874 
C 3.131218 1.81853 3.5 0.928211 3.5 -0 
C 3.5 -0.928211 3.131218 -1.81853 2.474874 -2.474874 
C 1.81853 -3.131218 0.928211 -3.5 0 -3.5 
C -0.928211 -3.5 -1.81853 -3.131218 -2.474874 -2.474874 
C -3.131218 -1.81853 -3.5 -0.928211 -3.5 0 
C -3.5 0.928211 -3.131218 1.81853 -2.474874 2.474874 
C -1.81853 3.131218 -0.928211 3.5 0 3.5 
z
" id="Ce_0_047c31824b"/>
    </defs>
    <g clip-path="url(#pcdd4684ecb)">
     <use x="500.931678" xlink:href="#Ce_0_047c31824b" y="474.850522"/>
    </g>
    <g clip-path="url(#pcdd4684ecb)">
     <use x="500.931678" xlink:href="#Ce_0_047c31824b" y="469.589388"/>
    </g>
    <g clip-path="url(#pcdd4684ecb)">
     <use x="496.749956" xlink:href="#Ce_0_047c31824b" y="465.643537"/>
    </g>
   </g>
   <g id="text_24">
    <!-- L5 -->
    <g style="fill:#555555;" transform="translate(554.755859 518.070143)rotate(-270)scale(0.192 -0.192)">
     <use xlink:href="#Roboto-Bold-76"/>
     <use x="54.150391" xlink:href="#Roboto-Bold-53"/>
    </g>
   </g>
  </g>
 </g>
 <defs>
  <clipPath id="pcbec4261b3">
   <rect height="165.725714" width="96.00804" x="68.8955" y="31.6"/>
  </clipPath>
  <clipPath id="p48b7c72cf3">
   <rect height="165.725714" width="96.00804" x="164.90354" y="31.6"/>
  </clipPath>
  <clipPath id="p99afa14e30">
   <rect height="165.725714" width="96.00804" x="260.911579" y="31.6"/>
  </clipPath>
  <clipPath id="pc1ec57ded6">
   <rect height="165.725714" width="96.00804" x="356.919619" y="31.6"/>
  </clipPath>
  <clipPath id="p3a9178e62b">
   <rect height="165.725714" width="96.00804" x="452.927658" y="31.6"/>
  </clipPath>
  <clipPath id="p888e27c58e">
   <rect height="165.725714" width="96.00804" x="68.8955" y="238.757143"/>
  </clipPath>
  <clipPath id="p13f2fb1d98">
   <rect height="165.725714" width="96.00804" x="164.90354" y="238.757143"/>
  </clipPath>
  <clipPath id="p6fee0c6747">
   <rect height="165.725714" width="96.00804" x="260.911579" y="238.757143"/>
  </clipPath>
  <clipPath id="p24ca7d0ddb">
   <rect height="165.725714" width="96.00804" x="356.919619" y="238.757143"/>
  </clipPath>
  <clipPath id="pff139c0460">
   <rect height="165.725714" width="96.00804" x="452.927658" y="238.757143"/>
  </clipPath>
  <clipPath id="p820c391bb1">
   <rect height="165.725714" width="96.00804" x="68.8955" y="445.914286"/>
  </clipPath>
  <clipPath id="p122ecea451">
   <rect height="165.725714" width="96.00804" x="164.90354" y="445.914286"/>
  </clipPath>
  <clipPath id="pb323a914e0">
   <rect height="165.725714" width="96.00804" x="260.911579" y="445.914286"/>
  </clipPath>
  <clipPath id="pad2c5115d7">
   <rect height="165.725714" width="96.00804" x="356.919619" y="445.914286"/>
  </clipPath>
  <clipPath id="pcdd4684ecb">
   <rect height="165.725714" width="96.00804" x="452.927658" y="445.914286"/>
  </clipPath>
 </defs>
</svg>
