<?xml version="1.0" encoding="utf-8" standalone="no"?>
<!DOCTYPE svg PUBLIC "-//W3C//DTD SVG 1.1//EN"
  "http://www.w3.org/Graphics/SVG/1.1/DTD/svg11.dtd">
<!-- Created with matplotlib (https://matplotlib.org/) -->
<svg height="565.67pt" version="1.1" viewBox="0 0 680.7775 565.67" width="680.7775pt" xmlns="http://www.w3.org/2000/svg" xmlns:xlink="http://www.w3.org/1999/xlink">
 <metadata>
  <rdf:RDF xmlns:cc="http://creativecommons.org/ns#" xmlns:dc="http://purl.org/dc/elements/1.1/" xmlns:rdf="http://www.w3.org/1999/02/22-rdf-syntax-ns#">
   <cc:Work>
    <dc:type rdf:resource="http://purl.org/dc/dcmitype/StillImage"/>
    <dc:date>2021-12-14T14:37:27.281294</dc:date>
    <dc:format>image/svg+xml</dc:format>
    <dc:creator>
     <cc:Agent>
      <dc:title>Matplotlib v3.3.4, https://matplotlib.org/</dc:title>
     </cc:Agent>
    </dc:creator>
   </cc:Work>
  </rdf:RDF>
 </metadata>
 <defs>
  <style type="text/css">*{stroke-linecap:butt;stroke-linejoin:round;}</style>
 </defs>
 <g id="figure_1">
  <g id="patch_1">
   <path d="M 0 565.67 
L 680.7775 565.67 
L 680.7775 0 
L 0 0 
z
" style="fill:none;"/>
  </g>
  <g id="axes_1">
   <g id="patch_2">
    <path d="M 68.4075 219.516735 
L 281.704091 219.516735 
L 281.704091 16.48 
L 68.4075 16.48 
z
" style="fill:#ffffff;"/>
   </g>
   <g id="matplotlib.axis_1">
    <g id="xtick_1">
     <g id="line2d_1">
      <defs>
       <path d="M 0 0 
L 0 3.5 
" id="m102c4c6406" style="stroke:#555555;stroke-width:0.8;"/>
      </defs>
      <g>
       <use style="fill:#555555;stroke:#555555;stroke-width:0.8;" x="68.4075" xlink:href="#m102c4c6406" y="219.516735"/>
      </g>
     </g>
     <g id="text_1">
      <!-- 0.0 -->
      <g style="fill:#555555;" transform="translate(56.89875 238.516735)scale(0.16 -0.16)">
       <defs>
        <path d="M 52.6875 29.4375 
Q 52.6875 13.375 46.09375 6.1875 
Q 39.5 -0.984375 28.75 -0.984375 
Q 18.015625 -0.984375 11.34375 6.1875 
Q 4.6875 13.375 4.6875 29.4375 
L 4.6875 41.796875 
Q 4.6875 57.8125 11.296875 64.9375 
Q 17.921875 72.078125 28.65625 72.078125 
Q 39.359375 72.078125 46 64.984375 
Q 52.640625 57.90625 52.6875 42.046875 
z
M 38.578125 43.75 
Q 38.578125 53.21875 35.984375 56.953125 
Q 33.40625 60.6875 28.65625 60.6875 
Q 24.03125 60.6875 21.4375 57.03125 
Q 18.84375 53.375 18.796875 44.140625 
L 18.796875 27.546875 
Q 18.796875 18.015625 21.40625 14.203125 
Q 24.03125 10.40625 28.765625 10.40625 
Q 33.40625 10.40625 35.96875 14.140625 
Q 38.53125 17.875 38.578125 27.15625 
z
" id="Roboto-Bold-48"/>
        <path d="M 6.15625 6.984375 
Q 6.15625 10.203125 8.328125 12.375 
Q 10.5 14.546875 14.15625 14.546875 
Q 17.828125 14.546875 19.96875 12.375 
Q 22.125 10.203125 22.125 6.984375 
Q 22.125 3.8125 19.96875 1.640625 
Q 17.828125 -0.53125 14.15625 -0.53125 
Q 10.5 -0.53125 8.328125 1.640625 
Q 6.15625 3.8125 6.15625 6.984375 
z
" id="Roboto-Bold-46"/>
       </defs>
       <use xlink:href="#Roboto-Bold-48"/>
       <use x="57.373047" xlink:href="#Roboto-Bold-46"/>
       <use x="86.474609" xlink:href="#Roboto-Bold-48"/>
      </g>
     </g>
    </g>
    <g id="xtick_2">
     <g id="line2d_2">
      <g>
       <use style="fill:#555555;stroke:#555555;stroke-width:0.8;" x="175.055795" xlink:href="#m102c4c6406" y="219.516735"/>
      </g>
     </g>
     <g id="text_2">
      <!-- 0.1 -->
      <g style="fill:#555555;" transform="translate(163.547045 238.516735)scale(0.16 -0.16)">
       <defs>
        <path d="M 39.109375 71.1875 
L 39.109375 0 
L 25 0 
L 25 54.4375 
L 8.203125 49.21875 
L 8.203125 60.640625 
L 37.59375 71.1875 
z
" id="Roboto-Bold-49"/>
       </defs>
       <use xlink:href="#Roboto-Bold-48"/>
       <use x="57.373047" xlink:href="#Roboto-Bold-46"/>
       <use x="86.474609" xlink:href="#Roboto-Bold-49"/>
      </g>
     </g>
    </g>
    <g id="xtick_3">
     <g id="line2d_3">
      <g>
       <use style="fill:#555555;stroke:#555555;stroke-width:0.8;" x="281.704091" xlink:href="#m102c4c6406" y="219.516735"/>
      </g>
     </g>
     <g id="text_3">
      <!-- 0.2 -->
      <g style="fill:#555555;" transform="translate(270.195341 238.516735)scale(0.16 -0.16)">
       <defs>
        <path d="M 53.5625 11.375 
L 53.5625 0 
L 4.890625 0 
L 4.890625 9.671875 
L 27.875 34.1875 
Q 33.0625 39.890625 35.078125 43.625 
Q 37.109375 47.359375 37.109375 50.53125 
Q 37.109375 55.28125 34.734375 58.015625 
Q 32.375 60.75 27.9375 60.75 
Q 22.90625 60.75 20.234375 57.328125 
Q 17.578125 53.90625 17.578125 48.734375 
L 3.46875 48.734375 
Q 3.46875 58.34375 10.078125 65.234375 
Q 16.703125 72.125 28.171875 72.125 
Q 39.359375 72.125 45.3125 66.71875 
Q 51.265625 61.328125 51.265625 51.953125 
Q 51.265625 44.921875 47.09375 38.59375 
Q 42.921875 32.28125 35.6875 24.703125 
L 23 11.375 
z
" id="Roboto-Bold-50"/>
       </defs>
       <use xlink:href="#Roboto-Bold-48"/>
       <use x="57.373047" xlink:href="#Roboto-Bold-46"/>
       <use x="86.474609" xlink:href="#Roboto-Bold-50"/>
      </g>
     </g>
    </g>
   </g>
   <g id="matplotlib.axis_2">
    <g id="ytick_1">
     <g id="line2d_4">
      <path clip-path="url(#p516c533d54)" d="M 68.4075 180.186415 
L 281.704091 180.186415 
" style="fill:none;stroke:#eeeeee;stroke-linecap:square;stroke-width:0.8;"/>
     </g>
     <g id="line2d_5">
      <defs>
       <path d="M 0 0 
L -3.5 0 
" id="m4be147475e" style="stroke:#555555;stroke-width:0.8;"/>
      </defs>
      <g>
       <use style="fill:#555555;stroke:#555555;stroke-width:0.8;" x="68.4075" xlink:href="#m4be147475e" y="180.186415"/>
      </g>
     </g>
     <g id="text_4">
      <!-- −0.5 -->
      <g style="fill:#555555;" transform="translate(29.5 186.186415)scale(0.16 -0.16)">
       <defs>
        <path d="M 49.359375 40.625 
L 49.359375 29.109375 
L 7.171875 29.109375 
L 7.171875 40.625 
z
" id="Roboto-Bold-8722"/>
        <path d="M 18.21875 32.234375 
L 6.984375 34.96875 
L 11.03125 71.09375 
L 50.875 71.09375 
L 50.875 59.375 
L 22.65625 59.375 
L 20.90625 44.046875 
Q 25.78125 46.734375 31.546875 46.734375 
Q 41.890625 46.734375 47.546875 40.421875 
Q 53.21875 34.125 53.21875 22.859375 
Q 53.21875 13.375 47.359375 6.1875 
Q 41.5 -0.984375 29.25 -0.984375 
Q 20.015625 -0.984375 12.71875 4.484375 
Q 5.421875 9.96875 5.171875 19.828125 
L 19.140625 19.828125 
Q 20.0625 10.40625 29.15625 10.40625 
Q 34.46875 10.40625 36.78125 14.234375 
Q 39.109375 18.0625 39.109375 23.640625 
Q 39.109375 29.25 36.328125 32.6875 
Q 33.546875 36.140625 27.6875 36.140625 
Q 23.828125 36.140625 21.71875 34.890625 
Q 19.625 33.640625 18.21875 32.234375 
z
" id="Roboto-Bold-53"/>
       </defs>
       <use xlink:href="#Roboto-Bold-8722"/>
       <use x="55.566406" xlink:href="#Roboto-Bold-48"/>
       <use x="112.939453" xlink:href="#Roboto-Bold-46"/>
       <use x="142.041016" xlink:href="#Roboto-Bold-53"/>
      </g>
     </g>
    </g>
    <g id="ytick_2">
     <g id="line2d_6">
      <path clip-path="url(#p516c533d54)" d="M 68.4075 136.242501 
L 281.704091 136.242501 
" style="fill:none;stroke:#eeeeee;stroke-linecap:square;stroke-width:0.8;"/>
     </g>
     <g id="line2d_7">
      <g>
       <use style="fill:#555555;stroke:#555555;stroke-width:0.8;" x="68.4075" xlink:href="#m4be147475e" y="136.242501"/>
      </g>
     </g>
     <g id="text_5">
      <!-- 0.0 -->
      <g style="fill:#555555;" transform="translate(38.39 142.242501)scale(0.16 -0.16)">
       <use xlink:href="#Roboto-Bold-48"/>
       <use x="57.373047" xlink:href="#Roboto-Bold-46"/>
       <use x="86.474609" xlink:href="#Roboto-Bold-48"/>
      </g>
     </g>
    </g>
    <g id="ytick_3">
     <g id="line2d_8">
      <path clip-path="url(#p516c533d54)" d="M 68.4075 92.298587 
L 281.704091 92.298587 
" style="fill:none;stroke:#eeeeee;stroke-linecap:square;stroke-width:0.8;"/>
     </g>
     <g id="line2d_9">
      <g>
       <use style="fill:#555555;stroke:#555555;stroke-width:0.8;" x="68.4075" xlink:href="#m4be147475e" y="92.298587"/>
      </g>
     </g>
     <g id="text_6">
      <!-- 0.5 -->
      <g style="fill:#555555;" transform="translate(38.39 98.298587)scale(0.16 -0.16)">
       <use xlink:href="#Roboto-Bold-48"/>
       <use x="57.373047" xlink:href="#Roboto-Bold-46"/>
       <use x="86.474609" xlink:href="#Roboto-Bold-53"/>
      </g>
     </g>
    </g>
    <g id="ytick_4">
     <g id="line2d_10">
      <path clip-path="url(#p516c533d54)" d="M 68.4075 48.354673 
L 281.704091 48.354673 
" style="fill:none;stroke:#eeeeee;stroke-linecap:square;stroke-width:0.8;"/>
     </g>
     <g id="line2d_11">
      <g>
       <use style="fill:#555555;stroke:#555555;stroke-width:0.8;" x="68.4075" xlink:href="#m4be147475e" y="48.354673"/>
      </g>
     </g>
     <g id="text_7">
      <!-- 1.0 -->
      <g style="fill:#555555;" transform="translate(38.39 54.354673)scale(0.16 -0.16)">
       <use xlink:href="#Roboto-Bold-49"/>
       <use x="57.373047" xlink:href="#Roboto-Bold-46"/>
       <use x="86.474609" xlink:href="#Roboto-Bold-48"/>
      </g>
     </g>
    </g>
    <g id="text_8">
     <!-- Cohen's d -->
     <g style="fill:#555555;" transform="translate(21.6 159.956367)rotate(-90)scale(0.192 -0.192)">
      <defs>
       <path d="M 47.5625 23.6875 
L 62.203125 23.6875 
Q 61.46875 12.84375 54.078125 5.921875 
Q 46.6875 -0.984375 33.59375 -0.984375 
Q 19.921875 -0.984375 12.0625 8.21875 
Q 4.203125 17.4375 4.203125 33.203125 
L 4.203125 37.84375 
Q 4.203125 53.609375 12.25 62.859375 
Q 20.3125 72.125 33.734375 72.125 
Q 47.078125 72.125 54.15625 65.015625 
Q 61.234375 57.90625 62.25 46.96875 
L 47.609375 46.96875 
Q 47.125 53.328125 44.0625 56.71875 
Q 41.015625 60.109375 33.734375 60.109375 
Q 19.484375 60.109375 19.09375 39.0625 
L 19.09375 33.203125 
Q 19.09375 22.171875 22.4375 16.59375 
Q 25.78125 11.03125 33.59375 11.03125 
Q 40.53125 11.03125 43.765625 14.171875 
Q 47.015625 17.328125 47.5625 23.6875 
z
" id="Roboto-Bold-67"/>
       <path d="M 3.21875 26.90625 
Q 3.21875 38.421875 9.765625 46.109375 
Q 16.3125 53.8125 28.21875 53.8125 
Q 40.28125 53.8125 46.765625 46.109375 
Q 53.265625 38.421875 53.265625 26.90625 
L 53.265625 25.875 
Q 53.265625 14.359375 46.765625 6.6875 
Q 40.28125 -0.984375 28.328125 -0.984375 
Q 16.453125 -0.984375 9.9375 6.484375 
Q 3.421875 13.96875 3.21875 25.25 
z
M 17.390625 25.875 
Q 17.390625 19.4375 19.84375 14.921875 
Q 22.3125 10.40625 28.328125 10.40625 
Q 34.234375 10.40625 36.6875 14.890625 
Q 39.15625 19.390625 39.15625 26.90625 
Q 39.15625 33.203125 36.6875 37.8125 
Q 34.234375 42.4375 28.21875 42.4375 
Q 22.265625 42.4375 19.828125 37.84375 
Q 17.390625 33.25 17.390625 25.875 
z
" id="Roboto-Bold-111"/>
       <path d="M 28.171875 42.390625 
Q 22.015625 42.390625 19.234375 37.640625 
L 19.234375 0 
L 5.125 0 
L 5.125 75 
L 19.234375 75 
L 19.234375 47.125 
Q 24.75 53.8125 33.34375 53.8125 
Q 41.109375 53.8125 45.921875 49.21875 
Q 50.734375 44.625 50.78125 33.546875 
L 50.78125 0 
L 36.625 0 
L 36.625 33.40625 
Q 36.625 38.53125 34.421875 40.453125 
Q 32.234375 42.390625 28.171875 42.390625 
z
" id="Roboto-Bold-104"/>
       <path d="M 50.390625 8.59375 
Q 47.859375 4.984375 42.671875 2 
Q 37.5 -0.984375 29.78125 -0.984375 
Q 17.484375 -0.984375 10.546875 6.46875 
Q 3.609375 13.921875 3.5625 24.46875 
L 3.5625 26.515625 
Q 3.5625 38.484375 10.21875 46.140625 
Q 16.890625 53.8125 28.21875 53.8125 
Q 39.59375 53.8125 45.546875 46.671875 
Q 51.515625 39.546875 51.515625 27.828125 
L 51.515625 21.828125 
L 17.875 21.828125 
Q 18.609375 16.703125 21.921875 13.546875 
Q 25.25 10.40625 30.671875 10.40625 
Q 38.71875 10.40625 43.40625 16.3125 
z
M 28.125 42.4375 
Q 23.640625 42.4375 21.1875 39.40625 
Q 18.75 36.375 18.015625 31.5 
L 37.640625 31.5 
L 37.640625 32.5625 
Q 37.546875 36.8125 35.28125 39.625 
Q 33.015625 42.4375 28.125 42.4375 
z
" id="Roboto-Bold-101"/>
       <path d="M 28.21875 42.390625 
Q 22.21875 42.390625 19.28125 37.3125 
L 19.28125 0 
L 5.171875 0 
L 5.171875 52.828125 
L 18.40625 52.828125 
L 18.890625 46.78125 
Q 24.5625 53.8125 34.078125 53.8125 
Q 41.546875 53.8125 46.140625 49.359375 
Q 50.734375 44.921875 50.78125 33.890625 
L 50.78125 0 
L 36.625 0 
L 36.625 33.6875 
Q 36.625 38.765625 34.453125 40.578125 
Q 32.28125 42.390625 28.21875 42.390625 
z
" id="Roboto-Bold-110"/>
       <path d="M 13.421875 67.828125 
L 12.015625 48.140625 
L 3.125 48.140625 
L 3.125 75 
L 13.421875 75 
z
" id="Roboto-Bold-39"/>
       <path d="M 34.03125 14.65625 
Q 34.03125 16.890625 31.953125 18.421875 
Q 29.890625 19.96875 23.046875 21.4375 
Q 14.890625 23.1875 9.65625 26.890625 
Q 4.4375 30.609375 4.4375 37.40625 
Q 4.4375 44 10.03125 48.90625 
Q 15.625 53.8125 25.484375 53.8125 
Q 35.796875 53.8125 41.703125 48.96875 
Q 47.609375 44.140625 47.609375 36.765625 
L 33.5 36.765625 
Q 33.5 39.796875 31.546875 41.796875 
Q 29.59375 43.796875 25.4375 43.796875 
Q 21.921875 43.796875 19.9375 42.15625 
Q 17.96875 40.53125 17.96875 38.09375 
Q 17.96875 35.84375 20.0625 34.375 
Q 22.171875 32.90625 27.828125 31.78125 
Q 36.421875 30.078125 42.078125 26.5625 
Q 47.75 23.046875 47.75 15.1875 
Q 47.75 8.203125 41.75 3.609375 
Q 35.75 -0.984375 25.53125 -0.984375 
Q 14.453125 -0.984375 8.59375 4.703125 
Q 2.734375 10.40625 2.734375 16.84375 
L 16.15625 16.84375 
Q 16.359375 12.703125 19.21875 10.890625 
Q 22.078125 9.078125 25.828125 9.078125 
Q 34.03125 9.078125 34.03125 14.65625 
z
" id="Roboto-Bold-115"/>
       <path id="Roboto-Bold-32"/>
       <path d="M 38.09375 0 
L 37.40625 5.609375 
Q 32.171875 -0.984375 23.875 -0.984375 
Q 14.0625 -0.984375 8.640625 6.640625 
Q 3.21875 14.265625 3.21875 25.78125 
L 3.21875 26.8125 
Q 3.21875 38.875 8.640625 46.34375 
Q 14.0625 53.8125 23.96875 53.8125 
Q 31.6875 53.8125 36.671875 48.09375 
L 36.671875 75 
L 50.828125 75 
L 50.828125 0 
z
M 17.390625 25.78125 
Q 17.390625 19.4375 19.625 14.96875 
Q 21.875 10.5 27.4375 10.5 
Q 33.890625 10.5 36.671875 15.96875 
L 36.671875 36.921875 
Q 33.984375 42.390625 27.546875 42.390625 
Q 22.015625 42.390625 19.703125 37.890625 
Q 17.390625 33.40625 17.390625 25.78125 
z
" id="Roboto-Bold-100"/>
      </defs>
      <use xlink:href="#Roboto-Bold-67"/>
      <use x="65.478516" xlink:href="#Roboto-Bold-111"/>
      <use x="122.021484" xlink:href="#Roboto-Bold-104"/>
      <use x="178.027344" xlink:href="#Roboto-Bold-101"/>
      <use x="232.080078" xlink:href="#Roboto-Bold-110"/>
      <use x="288.085938" xlink:href="#Roboto-Bold-39"/>
      <use x="304.296875" xlink:href="#Roboto-Bold-115"/>
      <use x="355.761719" xlink:href="#Roboto-Bold-32"/>
      <use x="380.664062" xlink:href="#Roboto-Bold-100"/>
     </g>
    </g>
   </g>
   <g id="PathCollection_1">
    <path clip-path="url(#p516c533d54)" d="M 203.361393 65.423915 
C 204.687409 65.423915 205.959292 64.897083 206.896927 63.959449 
C 207.834561 63.021814 208.361393 61.74993 208.361393 60.423915 
C 208.361393 59.097899 207.834561 57.826015 206.896927 56.888381 
C 205.959292 55.950746 204.687409 55.423915 203.361393 55.423915 
C 202.035378 55.423915 200.763494 55.950746 199.825859 56.888381 
C 198.888225 57.826015 198.361393 59.097899 198.361393 60.423915 
C 198.361393 61.74993 198.888225 63.021814 199.825859 63.959449 
C 200.763494 64.897083 202.035378 65.423915 203.361393 65.423915 
z
" style="fill:#1f77b3;fill-opacity:0.75;stroke:#1f77b3;stroke-opacity:0.75;stroke-width:0.8;"/>
    <path clip-path="url(#p516c533d54)" d="M 184.462634 88.476797 
C 185.78865 88.476797 187.060534 87.949966 187.998168 87.012331 
C 188.935803 86.074697 189.462634 84.802813 189.462634 83.476797 
C 189.462634 82.150782 188.935803 80.878898 187.998168 79.941263 
C 187.060534 79.003629 185.78865 78.476797 184.462634 78.476797 
C 183.136619 78.476797 181.864735 79.003629 180.9271 79.941263 
C 179.989466 80.878898 179.462634 82.150782 179.462634 83.476797 
C 179.462634 84.802813 179.989466 86.074697 180.9271 87.012331 
C 181.864735 87.949966 183.136619 88.476797 184.462634 88.476797 
z
" style="fill:#1f77b3;fill-opacity:0.75;stroke:#1f77b3;stroke-opacity:0.75;stroke-width:0.8;"/>
    <path clip-path="url(#p516c533d54)" d="M 204.397401 71.78911 
C 205.723416 71.78911 206.9953 71.262278 207.932935 70.324644 
C 208.870569 69.387009 209.397401 68.115125 209.397401 66.78911 
C 209.397401 65.463094 208.870569 64.191211 207.932935 63.253576 
C 206.9953 62.315941 205.723416 61.78911 204.397401 61.78911 
C 203.071385 61.78911 201.799501 62.315941 200.861867 63.253576 
C 199.924232 64.191211 199.397401 65.463094 199.397401 66.78911 
C 199.397401 68.115125 199.924232 69.387009 200.861867 70.324644 
C 201.799501 71.262278 203.071385 71.78911 204.397401 71.78911 
z
" style="fill:#d62628;fill-opacity:0.75;stroke:#d62628;stroke-opacity:0.75;stroke-width:0.8;"/>
    <path clip-path="url(#p516c533d54)" d="M 145.280278 91.105745 
C 146.606293 91.105745 147.878177 90.578914 148.815812 89.641279 
C 149.753446 88.703645 150.280278 87.431761 150.280278 86.105745 
C 150.280278 84.77973 149.753446 83.507846 148.815812 82.570211 
C 147.878177 81.632577 146.606293 81.105745 145.280278 81.105745 
C 143.954262 81.105745 142.682378 81.632577 141.744744 82.570211 
C 140.807109 83.507846 140.280278 84.77973 140.280278 86.105745 
C 140.280278 87.431761 140.807109 88.703645 141.744744 89.641279 
C 142.682378 90.578914 143.954262 91.105745 145.280278 91.105745 
z
" style="fill:#d62628;fill-opacity:0.75;stroke:#d62628;stroke-opacity:0.75;stroke-width:0.8;"/>
    <path clip-path="url(#p516c533d54)" d="M 225.32463 70.436227 
C 226.650645 70.436227 227.922529 69.909396 228.860164 68.971761 
C 229.797798 68.034126 230.32463 66.762243 230.32463 65.436227 
C 230.32463 64.110212 229.797798 62.838328 228.860164 61.900693 
C 227.922529 60.963059 226.650645 60.436227 225.32463 60.436227 
C 223.998614 60.436227 222.726731 60.963059 221.789096 61.900693 
C 220.851461 62.838328 220.32463 64.110212 220.32463 65.436227 
C 220.32463 66.762243 220.851461 68.034126 221.789096 68.971761 
C 222.726731 69.909396 223.998614 70.436227 225.32463 70.436227 
z
" style="fill:#d62628;fill-opacity:0.75;stroke:#d62628;stroke-opacity:0.75;stroke-width:0.8;"/>
    <path clip-path="url(#p516c533d54)" d="M 255.99922 30.708942 
C 257.325236 30.708942 258.59712 30.182111 259.534754 29.244476 
C 260.472389 28.306842 260.99922 27.034958 260.99922 25.708942 
C 260.99922 24.382927 260.472389 23.111043 259.534754 22.173409 
C 258.59712 21.235774 257.325236 20.708942 255.99922 20.708942 
C 254.673205 20.708942 253.401321 21.235774 252.463686 22.173409 
C 251.526052 23.111043 250.99922 24.382927 250.99922 25.708942 
C 250.99922 27.034958 251.526052 28.306842 252.463686 29.244476 
C 253.401321 30.182111 254.673205 30.708942 255.99922 30.708942 
z
" style="fill:#1f77b3;fill-opacity:0.75;stroke:#1f77b3;stroke-opacity:0.75;stroke-width:0.8;"/>
   </g>
   <g id="PathCollection_2"/>
   <g id="PathCollection_3"/>
   <g id="PathCollection_4"/>
   <g id="PathCollection_5"/>
   <g id="PathCollection_6"/>
   <g id="PathCollection_7"/>
   <g id="PathCollection_8"/>
   <g id="PathCollection_9"/>
   <g id="line2d_12">
    <path clip-path="url(#p516c533d54)" d="M 145.280278 94.745313 
L 146.398651 94.163706 
L 147.517024 93.582099 
L 148.635397 93.000493 
L 149.75377 92.418886 
L 150.872143 91.83728 
L 151.990517 91.255673 
L 153.10889 90.674066 
L 154.227263 90.09246 
L 155.345636 89.510853 
L 156.464009 88.929246 
L 157.582382 88.34764 
L 158.700756 87.766033 
L 159.819129 87.184427 
L 160.937502 86.60282 
L 162.055875 86.021213 
L 163.174248 85.439607 
L 164.292621 84.858 
L 165.410995 84.276394 
L 166.529368 83.694787 
L 167.647741 83.11318 
L 168.766114 82.531574 
L 169.884487 81.949967 
L 171.00286 81.368361 
L 172.121233 80.786754 
L 173.239607 80.205147 
L 174.35798 79.623541 
L 175.476353 79.041934 
L 176.594726 78.460328 
L 177.713099 77.878721 
L 178.831472 77.297114 
L 179.949846 76.715508 
L 181.068219 76.133901 
L 182.186592 75.552295 
L 183.304965 74.970688 
L 184.423338 74.389081 
L 185.541711 73.807475 
L 186.660085 73.225868 
L 187.778458 72.644262 
L 188.896831 72.062655 
L 190.015204 71.481048 
L 191.133577 70.899442 
L 192.25195 70.317835 
L 193.370323 69.736229 
L 194.488697 69.154622 
L 195.60707 68.573015 
L 196.725443 67.991409 
L 197.843816 67.409802 
L 198.962189 66.828195 
L 200.080562 66.246589 
L 201.198936 65.664982 
L 202.317309 65.083376 
L 203.435682 64.501769 
L 204.554055 63.920162 
L 205.672428 63.338556 
L 206.790801 62.756949 
L 207.909175 62.175343 
L 209.027548 61.593736 
L 210.145921 61.012129 
L 211.264294 60.430523 
L 212.382667 59.848916 
L 213.50104 59.26731 
L 214.619413 58.685703 
L 215.737787 58.104096 
L 216.85616 57.52249 
L 217.974533 56.940883 
L 219.092906 56.359277 
L 220.211279 55.77767 
L 221.329652 55.196063 
L 222.448026 54.614457 
L 223.566399 54.03285 
L 224.684772 53.451244 
L 225.803145 52.869637 
L 226.921518 52.28803 
L 228.039891 51.706424 
L 229.158265 51.124817 
L 230.276638 50.543211 
L 231.395011 49.961604 
L 232.513384 49.379997 
L 233.631757 48.798391 
L 234.75013 48.216784 
L 235.868503 47.635178 
L 236.986877 47.053571 
L 238.10525 46.471964 
L 239.223623 45.890358 
L 240.341996 45.308751 
L 241.460369 44.727145 
L 242.578742 44.145538 
L 243.697116 43.563931 
L 244.815489 42.982325 
L 245.933862 42.400718 
L 247.052235 41.819111 
L 248.170608 41.237505 
L 249.288981 40.655898 
L 250.407355 40.074292 
L 251.525728 39.492685 
L 252.644101 38.911078 
L 253.762474 38.329472 
L 254.880847 37.747865 
L 255.99922 37.166259 
" style="fill:none;stroke:#808080;stroke-linecap:square;stroke-width:2.25;"/>
   </g>
   <g id="patch_3">
    <path d="M 68.4075 219.516735 
L 68.4075 16.48 
" style="fill:none;stroke:#555555;stroke-linecap:square;stroke-linejoin:miter;"/>
   </g>
   <g id="patch_4">
    <path d="M 68.4075 219.516735 
L 281.704091 219.516735 
" style="fill:none;stroke:#555555;stroke-linecap:square;stroke-linejoin:miter;"/>
   </g>
  </g>
  <g id="axes_2">
   <g id="patch_5">
    <path d="M 324.363409 219.516735 
L 537.66 219.516735 
L 537.66 16.48 
L 324.363409 16.48 
z
" style="fill:#ffffff;"/>
   </g>
   <g id="matplotlib.axis_3">
    <g id="xtick_4">
     <g id="line2d_13">
      <g>
       <use style="fill:#555555;stroke:#555555;stroke-width:0.8;" x="367.022727" xlink:href="#m102c4c6406" y="219.516735"/>
      </g>
     </g>
     <g id="text_9">
      <!-- 0.4 -->
      <g style="fill:#555555;" transform="translate(355.513977 238.516735)scale(0.16 -0.16)">
       <defs>
        <path d="M 2.734375 24.265625 
L 32.375 71.09375 
L 46.625 71.09375 
L 46.625 26.765625 
L 54.6875 26.765625 
L 54.6875 15.375 
L 46.625 15.375 
L 46.625 0 
L 32.515625 0 
L 32.515625 15.375 
L 3.375 15.375 
z
M 16.75 26.765625 
L 32.515625 26.765625 
L 32.515625 52 
L 31.546875 50.296875 
z
" id="Roboto-Bold-52"/>
       </defs>
       <use xlink:href="#Roboto-Bold-48"/>
       <use x="57.373047" xlink:href="#Roboto-Bold-46"/>
       <use x="86.474609" xlink:href="#Roboto-Bold-52"/>
      </g>
     </g>
    </g>
    <g id="xtick_5">
     <g id="line2d_14">
      <g>
       <use style="fill:#555555;stroke:#555555;stroke-width:0.8;" x="452.341364" xlink:href="#m102c4c6406" y="219.516735"/>
      </g>
     </g>
     <g id="text_10">
      <!-- 0.5 -->
      <g style="fill:#555555;" transform="translate(440.832614 238.516735)scale(0.16 -0.16)">
       <use xlink:href="#Roboto-Bold-48"/>
       <use x="57.373047" xlink:href="#Roboto-Bold-46"/>
       <use x="86.474609" xlink:href="#Roboto-Bold-53"/>
      </g>
     </g>
    </g>
    <g id="xtick_6">
     <g id="line2d_15">
      <g>
       <use style="fill:#555555;stroke:#555555;stroke-width:0.8;" x="537.66" xlink:href="#m102c4c6406" y="219.516735"/>
      </g>
     </g>
     <g id="text_11">
      <!-- 0.6 -->
      <g style="fill:#555555;" transform="translate(526.15125 238.516735)scale(0.16 -0.16)">
       <defs>
        <path d="M 53.90625 23.4375 
Q 53.90625 13.09375 47.390625 6.046875 
Q 40.875 -0.984375 29.9375 -0.984375 
Q 18.5625 -0.984375 11.75 6.921875 
Q 4.9375 14.84375 4.9375 27.34375 
L 4.9375 32.765625 
Q 4.9375 50 14.453125 60.90625 
Q 23.96875 71.828125 41.15625 71.828125 
L 43.171875 71.828125 
L 43.171875 60.203125 
L 41.75 60.203125 
Q 32.03125 60.0625 26.375 55.28125 
Q 20.515625 50.296875 19.34375 41.796875 
Q 25.046875 47.609375 33.6875 47.609375 
Q 43.75 47.609375 48.828125 40.453125 
Q 53.90625 33.296875 53.90625 23.4375 
z
M 19.046875 25.484375 
Q 19.046875 17.96875 22 14.203125 
Q 24.953125 10.453125 29.6875 10.453125 
Q 34.28125 10.453125 37.03125 14.078125 
Q 39.796875 17.71875 39.796875 23.296875 
Q 39.796875 28.953125 37.03125 32.609375 
Q 34.28125 36.28125 29.390625 36.28125 
Q 25.640625 36.28125 22.953125 34.34375 
Q 20.265625 32.421875 19.046875 29.734375 
z
" id="Roboto-Bold-54"/>
       </defs>
       <use xlink:href="#Roboto-Bold-48"/>
       <use x="57.373047" xlink:href="#Roboto-Bold-46"/>
       <use x="86.474609" xlink:href="#Roboto-Bold-54"/>
      </g>
     </g>
    </g>
   </g>
   <g id="matplotlib.axis_4">
    <g id="ytick_5">
     <g id="line2d_16">
      <path clip-path="url(#p7bb53de9df)" d="M 324.363409 180.186415 
L 537.66 180.186415 
" style="fill:none;stroke:#eeeeee;stroke-linecap:square;stroke-width:0.8;"/>
     </g>
     <g id="line2d_17">
      <g>
       <use style="fill:#555555;stroke:#555555;stroke-width:0.8;" x="324.363409" xlink:href="#m4be147475e" y="180.186415"/>
      </g>
     </g>
    </g>
    <g id="ytick_6">
     <g id="line2d_18">
      <path clip-path="url(#p7bb53de9df)" d="M 324.363409 136.242501 
L 537.66 136.242501 
" style="fill:none;stroke:#eeeeee;stroke-linecap:square;stroke-width:0.8;"/>
     </g>
     <g id="line2d_19">
      <g>
       <use style="fill:#555555;stroke:#555555;stroke-width:0.8;" x="324.363409" xlink:href="#m4be147475e" y="136.242501"/>
      </g>
     </g>
    </g>
    <g id="ytick_7">
     <g id="line2d_20">
      <path clip-path="url(#p7bb53de9df)" d="M 324.363409 92.298587 
L 537.66 92.298587 
" style="fill:none;stroke:#eeeeee;stroke-linecap:square;stroke-width:0.8;"/>
     </g>
     <g id="line2d_21">
      <g>
       <use style="fill:#555555;stroke:#555555;stroke-width:0.8;" x="324.363409" xlink:href="#m4be147475e" y="92.298587"/>
      </g>
     </g>
    </g>
    <g id="ytick_8">
     <g id="line2d_22">
      <path clip-path="url(#p7bb53de9df)" d="M 324.363409 48.354673 
L 537.66 48.354673 
" style="fill:none;stroke:#eeeeee;stroke-linecap:square;stroke-width:0.8;"/>
     </g>
     <g id="line2d_23">
      <g>
       <use style="fill:#555555;stroke:#555555;stroke-width:0.8;" x="324.363409" xlink:href="#m4be147475e" y="48.354673"/>
      </g>
     </g>
    </g>
   </g>
   <g id="PathCollection_10">
    <path clip-path="url(#p7bb53de9df)" d="M 414.998954 65.423915 
C 416.32497 65.423915 417.596854 64.897083 418.534488 63.959449 
C 419.472123 63.021814 419.998954 61.74993 419.998954 60.423915 
C 419.998954 59.097899 419.472123 57.826015 418.534488 56.888381 
C 417.596854 55.950746 416.32497 55.423915 414.998954 55.423915 
C 413.672939 55.423915 412.401055 55.950746 411.46342 56.888381 
C 410.525786 57.826015 409.998954 59.097899 409.998954 60.423915 
C 409.998954 61.74993 410.525786 63.021814 411.46342 63.959449 
C 412.401055 64.897083 413.672939 65.423915 414.998954 65.423915 
z
" style="fill:#1f77b3;fill-opacity:0.75;stroke:#1f77b3;stroke-opacity:0.75;stroke-width:0.8;"/>
    <path clip-path="url(#p7bb53de9df)" d="M 426.521001 88.476797 
C 427.847017 88.476797 429.118901 87.949966 430.056535 87.012331 
C 430.99417 86.074697 431.521001 84.802813 431.521001 83.476797 
C 431.521001 82.150782 430.99417 80.878898 430.056535 79.941263 
C 429.118901 79.003629 427.847017 78.476797 426.521001 78.476797 
C 425.194986 78.476797 423.923102 79.003629 422.985467 79.941263 
C 422.047833 80.878898 421.521001 82.150782 421.521001 83.476797 
C 421.521001 84.802813 422.047833 86.074697 422.985467 87.012331 
C 423.923102 87.949966 425.194986 88.476797 426.521001 88.476797 
z
" style="fill:#1f77b3;fill-opacity:0.75;stroke:#1f77b3;stroke-opacity:0.75;stroke-width:0.8;"/>
    <path clip-path="url(#p7bb53de9df)" d="M 450.23377 71.78911 
C 451.559785 71.78911 452.831669 71.262278 453.769304 70.324644 
C 454.706938 69.387009 455.23377 68.115125 455.23377 66.78911 
C 455.23377 65.463094 454.706938 64.191211 453.769304 63.253576 
C 452.831669 62.315941 451.559785 61.78911 450.23377 61.78911 
C 448.907754 61.78911 447.63587 62.315941 446.698236 63.253576 
C 445.760601 64.191211 445.23377 65.463094 445.23377 66.78911 
C 445.23377 68.115125 445.760601 69.387009 446.698236 70.324644 
C 447.63587 71.262278 448.907754 71.78911 450.23377 71.78911 
z
" style="fill:#d62628;fill-opacity:0.75;stroke:#d62628;stroke-opacity:0.75;stroke-width:0.8;"/>
    <path clip-path="url(#p7bb53de9df)" d="M 360.103028 91.105745 
C 361.429044 91.105745 362.700928 90.578914 363.638562 89.641279 
C 364.576197 88.703645 365.103028 87.431761 365.103028 86.105745 
C 365.103028 84.77973 364.576197 83.507846 363.638562 82.570211 
C 362.700928 81.632577 361.429044 81.105745 360.103028 81.105745 
C 358.777013 81.105745 357.505129 81.632577 356.567494 82.570211 
C 355.62986 83.507846 355.103028 84.77973 355.103028 86.105745 
C 355.103028 87.431761 355.62986 88.703645 356.567494 89.641279 
C 357.505129 90.578914 358.777013 91.105745 360.103028 91.105745 
z
" style="fill:#d62628;fill-opacity:0.75;stroke:#d62628;stroke-opacity:0.75;stroke-width:0.8;"/>
    <path clip-path="url(#p7bb53de9df)" d="M 460.481014 70.436227 
C 461.807029 70.436227 463.078913 69.909396 464.016548 68.971761 
C 464.954182 68.034126 465.481014 66.762243 465.481014 65.436227 
C 465.481014 64.110212 464.954182 62.838328 464.016548 61.900693 
C 463.078913 60.963059 461.807029 60.436227 460.481014 60.436227 
C 459.154998 60.436227 457.883114 60.963059 456.94548 61.900693 
C 456.007845 62.838328 455.481014 64.110212 455.481014 65.436227 
C 455.481014 66.762243 456.007845 68.034126 456.94548 68.971761 
C 457.883114 69.909396 459.154998 70.436227 460.481014 70.436227 
z
" style="fill:#d62628;fill-opacity:0.75;stroke:#d62628;stroke-opacity:0.75;stroke-width:0.8;"/>
    <path clip-path="url(#p7bb53de9df)" d="M 475.606328 30.708942 
C 476.932343 30.708942 478.204227 30.182111 479.141862 29.244476 
C 480.079496 28.306842 480.606328 27.034958 480.606328 25.708942 
C 480.606328 24.382927 480.079496 23.111043 479.141862 22.173409 
C 478.204227 21.235774 476.932343 20.708942 475.606328 20.708942 
C 474.280312 20.708942 473.008428 21.235774 472.070794 22.173409 
C 471.133159 23.111043 470.606328 24.382927 470.606328 25.708942 
C 470.606328 27.034958 471.133159 28.306842 472.070794 29.244476 
C 473.008428 30.182111 474.280312 30.708942 475.606328 30.708942 
z
" style="fill:#1f77b3;fill-opacity:0.75;stroke:#1f77b3;stroke-opacity:0.75;stroke-width:0.8;"/>
   </g>
   <g id="PathCollection_11"/>
   <g id="PathCollection_12"/>
   <g id="PathCollection_13"/>
   <g id="PathCollection_14"/>
   <g id="PathCollection_15"/>
   <g id="PathCollection_16"/>
   <g id="PathCollection_17"/>
   <g id="PathCollection_18"/>
   <g id="line2d_24">
    <path clip-path="url(#p7bb53de9df)" d="M 360.103028 91.461259 
L 361.269728 91.022164 
L 362.436428 90.583069 
L 363.603128 90.143974 
L 364.769828 89.704879 
L 365.936528 89.265784 
L 367.103228 88.826689 
L 368.269928 88.387594 
L 369.436628 87.948499 
L 370.603328 87.509404 
L 371.770028 87.07031 
L 372.936728 86.631215 
L 374.103428 86.19212 
L 375.270128 85.753025 
L 376.436828 85.31393 
L 377.603528 84.874835 
L 378.770228 84.43574 
L 379.936928 83.996645 
L 381.103628 83.55755 
L 382.270328 83.118455 
L 383.437028 82.67936 
L 384.603728 82.240265 
L 385.770428 81.80117 
L 386.937128 81.362076 
L 388.103828 80.922981 
L 389.270528 80.483886 
L 390.437228 80.044791 
L 391.603928 79.605696 
L 392.770628 79.166601 
L 393.937328 78.727506 
L 395.104028 78.288411 
L 396.270728 77.849316 
L 397.437428 77.410221 
L 398.604128 76.971126 
L 399.770828 76.532031 
L 400.937528 76.092936 
L 402.104228 75.653841 
L 403.270928 75.214747 
L 404.437628 74.775652 
L 405.604328 74.336557 
L 406.771028 73.897462 
L 407.937728 73.458367 
L 409.104428 73.019272 
L 410.271128 72.580177 
L 411.437828 72.141082 
L 412.604528 71.701987 
L 413.771228 71.262892 
L 414.937928 70.823797 
L 416.104628 70.384702 
L 417.271328 69.945607 
L 418.438028 69.506513 
L 419.604728 69.067418 
L 420.771428 68.628323 
L 421.938128 68.189228 
L 423.104828 67.750133 
L 424.271528 67.311038 
L 425.438228 66.871943 
L 426.604928 66.432848 
L 427.771628 65.993753 
L 428.938328 65.554658 
L 430.105028 65.115563 
L 431.271728 64.676468 
L 432.438428 64.237373 
L 433.605128 63.798279 
L 434.771828 63.359184 
L 435.938528 62.920089 
L 437.105228 62.480994 
L 438.271928 62.041899 
L 439.438628 61.602804 
L 440.605328 61.163709 
L 441.772028 60.724614 
L 442.938728 60.285519 
L 444.105428 59.846424 
L 445.272128 59.407329 
L 446.438828 58.968234 
L 447.605528 58.529139 
L 448.772228 58.090045 
L 449.938928 57.65095 
L 451.105628 57.211855 
L 452.272328 56.77276 
L 453.439028 56.333665 
L 454.605728 55.89457 
L 455.772428 55.455475 
L 456.939128 55.01638 
L 458.105828 54.577285 
L 459.272528 54.13819 
L 460.439228 53.699095 
L 461.605928 53.26 
L 462.772628 52.820905 
L 463.939328 52.38181 
L 465.106028 51.942716 
L 466.272728 51.503621 
L 467.439428 51.064526 
L 468.606128 50.625431 
L 469.772828 50.186336 
L 470.939528 49.747241 
L 472.106228 49.308146 
L 473.272928 48.869051 
L 474.439628 48.429956 
L 475.606328 47.990861 
" style="fill:none;stroke:#808080;stroke-linecap:square;stroke-width:2.25;"/>
   </g>
   <g id="patch_6">
    <path d="M 324.363409 219.516735 
L 324.363409 16.48 
" style="fill:none;stroke:#555555;stroke-linecap:square;stroke-linejoin:miter;"/>
   </g>
   <g id="patch_7">
    <path d="M 324.363409 219.516735 
L 537.66 219.516735 
" style="fill:none;stroke:#555555;stroke-linecap:square;stroke-linejoin:miter;"/>
   </g>
  </g>
  <g id="axes_3">
   <g id="patch_8">
    <path d="M 68.4075 513.92 
L 281.704091 513.92 
L 281.704091 310.883265 
L 68.4075 310.883265 
z
" style="fill:#ffffff;"/>
   </g>
   <g id="matplotlib.axis_5">
    <g id="xtick_7">
     <g id="line2d_25">
      <g>
       <use style="fill:#555555;stroke:#555555;stroke-width:0.8;" x="68.4075" xlink:href="#m102c4c6406" y="513.92"/>
      </g>
     </g>
     <g id="text_12">
      <!-- 0.0 -->
      <g style="fill:#555555;" transform="translate(56.89875 532.92)scale(0.16 -0.16)">
       <use xlink:href="#Roboto-Bold-48"/>
       <use x="57.373047" xlink:href="#Roboto-Bold-46"/>
       <use x="86.474609" xlink:href="#Roboto-Bold-48"/>
      </g>
     </g>
    </g>
    <g id="xtick_8">
     <g id="line2d_26">
      <g>
       <use style="fill:#555555;stroke:#555555;stroke-width:0.8;" x="134.03722" xlink:href="#m102c4c6406" y="513.92"/>
      </g>
     </g>
     <g id="text_13">
      <!-- 0.2 -->
      <g style="fill:#555555;" transform="translate(122.52847 532.92)scale(0.16 -0.16)">
       <use xlink:href="#Roboto-Bold-48"/>
       <use x="57.373047" xlink:href="#Roboto-Bold-46"/>
       <use x="86.474609" xlink:href="#Roboto-Bold-50"/>
      </g>
     </g>
    </g>
    <g id="xtick_9">
     <g id="line2d_27">
      <g>
       <use style="fill:#555555;stroke:#555555;stroke-width:0.8;" x="199.666941" xlink:href="#m102c4c6406" y="513.92"/>
      </g>
     </g>
     <g id="text_14">
      <!-- 0.4 -->
      <g style="fill:#555555;" transform="translate(188.158191 532.92)scale(0.16 -0.16)">
       <use xlink:href="#Roboto-Bold-48"/>
       <use x="57.373047" xlink:href="#Roboto-Bold-46"/>
       <use x="86.474609" xlink:href="#Roboto-Bold-52"/>
      </g>
     </g>
    </g>
    <g id="xtick_10">
     <g id="line2d_28">
      <g>
       <use style="fill:#555555;stroke:#555555;stroke-width:0.8;" x="265.296661" xlink:href="#m102c4c6406" y="513.92"/>
      </g>
     </g>
     <g id="text_15">
      <!-- 0.6 -->
      <g style="fill:#555555;" transform="translate(253.787911 532.92)scale(0.16 -0.16)">
       <use xlink:href="#Roboto-Bold-48"/>
       <use x="57.373047" xlink:href="#Roboto-Bold-46"/>
       <use x="86.474609" xlink:href="#Roboto-Bold-54"/>
      </g>
     </g>
    </g>
    <g id="text_16">
     <!-- locomotion fraction -->
     <g style="fill:#555555;" transform="translate(90.215795 554.57)scale(0.192 -0.192)">
      <defs>
       <path d="M 20.359375 75 
L 20.359375 0 
L 6.203125 0 
L 6.203125 75 
z
" id="Roboto-Bold-108"/>
       <path d="M 27.390625 10.40625 
Q 31.25 10.40625 33.734375 12.53125 
Q 36.234375 14.65625 36.28125 18.265625 
L 49.5625 18.265625 
Q 49.46875 9.859375 43.140625 4.4375 
Q 36.8125 -0.984375 27.640625 -0.984375 
Q 15.375 -0.984375 9.296875 6.75 
Q 3.21875 14.5 3.21875 25.734375 
L 3.21875 27.09375 
Q 3.21875 38.28125 9.265625 46.046875 
Q 15.328125 53.8125 27.59375 53.8125 
Q 37.3125 53.8125 43.390625 48.234375 
Q 49.46875 42.671875 49.5625 33.15625 
L 36.28125 33.15625 
Q 36.234375 37.015625 33.9375 39.71875 
Q 31.640625 42.4375 27.34375 42.4375 
Q 21.1875 42.4375 19.28125 37.8125 
Q 17.390625 33.203125 17.390625 25.734375 
Q 17.390625 19.625 19.265625 15.015625 
Q 21.140625 10.40625 27.390625 10.40625 
z
" id="Roboto-Bold-99"/>
       <path d="M 28.21875 42.390625 
Q 22.359375 42.390625 19.578125 37.40625 
L 19.578125 0 
L 5.421875 0 
L 5.421875 52.828125 
L 18.703125 52.828125 
L 19.1875 47.015625 
Q 24.703125 53.8125 34.328125 53.8125 
Q 44.53125 53.8125 48.34375 45.75 
Q 53.765625 53.8125 64.203125 53.8125 
Q 71.828125 53.8125 76.46875 49.3125 
Q 81.109375 44.828125 81.15625 33.890625 
L 81.15625 0 
L 67 0 
L 67 33.6875 
Q 67 38.96875 64.875 40.671875 
Q 62.75 42.390625 59.078125 42.390625 
Q 52.828125 42.390625 50.34375 36.46875 
L 50.34375 0 
L 36.234375 0 
L 36.234375 33.59375 
Q 36.234375 38.8125 34.078125 40.59375 
Q 31.9375 42.390625 28.21875 42.390625 
z
" id="Roboto-Bold-109"/>
       <path d="M 31.890625 0.34375 
Q 27.9375 -0.984375 23.390625 -0.984375 
Q 16.453125 -0.984375 12.34375 2.625 
Q 8.25 6.25 8.25 14.65625 
L 8.25 42.53125 
L 0.484375 42.53125 
L 0.484375 52.828125 
L 8.25 52.828125 
L 8.25 65.875 
L 22.359375 65.875 
L 22.359375 52.828125 
L 31.34375 52.828125 
L 31.34375 42.53125 
L 22.359375 42.53125 
L 22.359375 16.109375 
Q 22.359375 12.796875 23.71875 11.71875 
Q 25.09375 10.640625 27.78125 10.640625 
Q 29.9375 10.640625 31.890625 11.03125 
z
" id="Roboto-Bold-116"/>
       <path d="M 5.328125 66.5 
Q 5.328125 69.671875 7.46875 71.75 
Q 9.625 73.828125 13.234375 73.828125 
Q 16.84375 73.828125 18.984375 71.75 
Q 21.140625 69.671875 21.140625 66.5 
Q 21.140625 63.375 18.984375 61.296875 
Q 16.84375 59.234375 13.234375 59.234375 
Q 9.625 59.234375 7.46875 61.296875 
Q 5.328125 63.375 5.328125 66.5 
z
M 20.359375 52.828125 
L 20.359375 0 
L 6.203125 0 
L 6.203125 52.828125 
z
" id="Roboto-Bold-105"/>
       <path d="M 33.9375 42.53125 
L 23.4375 42.53125 
L 23.4375 0 
L 9.28125 0 
L 9.28125 42.53125 
L 1.421875 42.53125 
L 1.421875 52.828125 
L 9.28125 52.828125 
L 9.28125 57.421875 
Q 9.28125 66.453125 14.5 71.234375 
Q 19.734375 76.03125 28.65625 76.03125 
Q 32.078125 76.03125 35.890625 75.046875 
L 35.75 64.109375 
Q 33.890625 64.546875 31.390625 64.546875 
Q 23.578125 64.546875 23.4375 57.671875 
L 23.4375 52.828125 
L 33.9375 52.828125 
z
" id="Roboto-Bold-102"/>
       <path d="M 30.03125 40.046875 
Q 22.078125 40.046875 19.578125 34.625 
L 19.578125 0 
L 5.421875 0 
L 5.421875 52.828125 
L 18.75 52.828125 
L 19.1875 46.53125 
Q 23.34375 53.8125 30.953125 53.8125 
Q 33.640625 53.8125 35.296875 53.171875 
L 35.15625 39.65625 
z
" id="Roboto-Bold-114"/>
       <path d="M 36.03125 0 
Q 35.15625 1.859375 34.625 4.734375 
Q 29.5 -0.984375 21.296875 -0.984375 
Q 13.71875 -0.984375 8.546875 3.484375 
Q 3.375 7.953125 3.375 14.84375 
Q 3.375 23.140625 9.515625 27.703125 
Q 15.671875 32.28125 27.734375 32.28125 
L 34.03125 32.28125 
L 34.03125 35.359375 
Q 34.03125 39.015625 32.15625 41.1875 
Q 30.28125 43.359375 26.21875 43.359375 
Q 18.65625 43.359375 18.65625 37.015625 
L 4.546875 37.015625 
Q 4.546875 43.890625 10.640625 48.84375 
Q 16.75 53.8125 27 53.8125 
Q 36.140625 53.8125 42.15625 49.171875 
Q 48.1875 44.53125 48.1875 35.25 
L 48.1875 11.71875 
Q 48.296875 4.6875 50.296875 0.828125 
L 50.296875 0 
z
M 24.359375 9.8125 
Q 27.9375 9.8125 30.4375 11.390625 
Q 32.953125 12.984375 34.03125 14.890625 
L 34.03125 24.078125 
L 28.265625 24.078125 
Q 22.65625 24.078125 20.0625 21.703125 
Q 17.484375 19.34375 17.484375 15.875 
Q 17.484375 13.234375 19.3125 11.515625 
Q 21.140625 9.8125 24.359375 9.8125 
z
" id="Roboto-Bold-97"/>
      </defs>
      <use xlink:href="#Roboto-Bold-108"/>
      <use x="26.513672" xlink:href="#Roboto-Bold-111"/>
      <use x="83.056641" xlink:href="#Roboto-Bold-99"/>
      <use x="135.253906" xlink:href="#Roboto-Bold-111"/>
      <use x="191.796875" xlink:href="#Roboto-Bold-109"/>
      <use x="278.369141" xlink:href="#Roboto-Bold-111"/>
      <use x="334.912109" xlink:href="#Roboto-Bold-116"/>
      <use x="368.701172" xlink:href="#Roboto-Bold-105"/>
      <use x="395.214844" xlink:href="#Roboto-Bold-111"/>
      <use x="451.757812" xlink:href="#Roboto-Bold-110"/>
      <use x="507.763672" xlink:href="#Roboto-Bold-32"/>
      <use x="532.666016" xlink:href="#Roboto-Bold-102"/>
      <use x="568.505859" xlink:href="#Roboto-Bold-114"/>
      <use x="605.029297" xlink:href="#Roboto-Bold-97"/>
      <use x="658.642578" xlink:href="#Roboto-Bold-99"/>
      <use x="710.839844" xlink:href="#Roboto-Bold-116"/>
      <use x="744.628906" xlink:href="#Roboto-Bold-105"/>
      <use x="771.142578" xlink:href="#Roboto-Bold-111"/>
      <use x="827.685547" xlink:href="#Roboto-Bold-110"/>
     </g>
    </g>
   </g>
   <g id="matplotlib.axis_6">
    <g id="ytick_9">
     <g id="line2d_29">
      <path clip-path="url(#p2403a85651)" d="M 68.4075 474.58968 
L 281.704091 474.58968 
" style="fill:none;stroke:#eeeeee;stroke-linecap:square;stroke-width:0.8;"/>
     </g>
     <g id="line2d_30">
      <g>
       <use style="fill:#555555;stroke:#555555;stroke-width:0.8;" x="68.4075" xlink:href="#m4be147475e" y="474.58968"/>
      </g>
     </g>
     <g id="text_17">
      <!-- −0.5 -->
      <g style="fill:#555555;" transform="translate(29.5 480.58968)scale(0.16 -0.16)">
       <use xlink:href="#Roboto-Bold-8722"/>
       <use x="55.566406" xlink:href="#Roboto-Bold-48"/>
       <use x="112.939453" xlink:href="#Roboto-Bold-46"/>
       <use x="142.041016" xlink:href="#Roboto-Bold-53"/>
      </g>
     </g>
    </g>
    <g id="ytick_10">
     <g id="line2d_31">
      <path clip-path="url(#p2403a85651)" d="M 68.4075 430.645766 
L 281.704091 430.645766 
" style="fill:none;stroke:#eeeeee;stroke-linecap:square;stroke-width:0.8;"/>
     </g>
     <g id="line2d_32">
      <g>
       <use style="fill:#555555;stroke:#555555;stroke-width:0.8;" x="68.4075" xlink:href="#m4be147475e" y="430.645766"/>
      </g>
     </g>
     <g id="text_18">
      <!-- 0.0 -->
      <g style="fill:#555555;" transform="translate(38.39 436.645766)scale(0.16 -0.16)">
       <use xlink:href="#Roboto-Bold-48"/>
       <use x="57.373047" xlink:href="#Roboto-Bold-46"/>
       <use x="86.474609" xlink:href="#Roboto-Bold-48"/>
      </g>
     </g>
    </g>
    <g id="ytick_11">
     <g id="line2d_33">
      <path clip-path="url(#p2403a85651)" d="M 68.4075 386.701852 
L 281.704091 386.701852 
" style="fill:none;stroke:#eeeeee;stroke-linecap:square;stroke-width:0.8;"/>
     </g>
     <g id="line2d_34">
      <g>
       <use style="fill:#555555;stroke:#555555;stroke-width:0.8;" x="68.4075" xlink:href="#m4be147475e" y="386.701852"/>
      </g>
     </g>
     <g id="text_19">
      <!-- 0.5 -->
      <g style="fill:#555555;" transform="translate(38.39 392.701852)scale(0.16 -0.16)">
       <use xlink:href="#Roboto-Bold-48"/>
       <use x="57.373047" xlink:href="#Roboto-Bold-46"/>
       <use x="86.474609" xlink:href="#Roboto-Bold-53"/>
      </g>
     </g>
    </g>
    <g id="ytick_12">
     <g id="line2d_35">
      <path clip-path="url(#p2403a85651)" d="M 68.4075 342.757938 
L 281.704091 342.757938 
" style="fill:none;stroke:#eeeeee;stroke-linecap:square;stroke-width:0.8;"/>
     </g>
     <g id="line2d_36">
      <g>
       <use style="fill:#555555;stroke:#555555;stroke-width:0.8;" x="68.4075" xlink:href="#m4be147475e" y="342.757938"/>
      </g>
     </g>
     <g id="text_20">
      <!-- 1.0 -->
      <g style="fill:#555555;" transform="translate(38.39 348.757938)scale(0.16 -0.16)">
       <use xlink:href="#Roboto-Bold-49"/>
       <use x="57.373047" xlink:href="#Roboto-Bold-46"/>
       <use x="86.474609" xlink:href="#Roboto-Bold-48"/>
      </g>
     </g>
    </g>
   </g>
   <g id="PathCollection_19">
    <path clip-path="url(#p2403a85651)" d="M 100.128858 376.924132 
C 101.454874 376.924132 102.726758 376.3973 103.664392 375.459666 
C 104.602027 374.522031 105.128858 373.250147 105.128858 371.924132 
C 105.128858 370.598116 104.602027 369.326233 103.664392 368.388598 
C 102.726758 367.450963 101.454874 366.924132 100.128858 366.924132 
C 98.802843 366.924132 97.530959 367.450963 96.593324 368.388598 
C 95.65569 369.326233 95.128858 370.598116 95.128858 371.924132 
C 95.128858 373.250147 95.65569 374.522031 96.593324 375.459666 
C 97.530959 376.3973 98.802843 376.924132 100.128858 376.924132 
z
" style="fill:#9367bc;fill-opacity:0.75;stroke:#9367bc;stroke-opacity:0.75;stroke-width:0.8;"/>
    <path clip-path="url(#p2403a85651)" d="M 152.887146 420.547247 
C 154.213162 420.547247 155.485046 420.020416 156.42268 419.082781 
C 157.360315 418.145147 157.887146 416.873263 157.887146 415.547247 
C 157.887146 414.221232 157.360315 412.949348 156.42268 412.011713 
C 155.485046 411.074079 154.213162 410.547247 152.887146 410.547247 
C 151.561131 410.547247 150.289247 411.074079 149.351612 412.011713 
C 148.413978 412.949348 147.887146 414.221232 147.887146 415.547247 
C 147.887146 416.873263 148.413978 418.145147 149.351612 419.082781 
C 150.289247 420.020416 151.561131 420.547247 152.887146 420.547247 
z
" style="fill:#2ba02b;fill-opacity:0.75;stroke:#2ba02b;stroke-opacity:0.75;stroke-width:0.8;"/>
    <path clip-path="url(#p2403a85651)" d="M 73.44631 494.832203 
C 74.772325 494.832203 76.044209 494.305371 76.981844 493.367737 
C 77.919478 492.430102 78.44631 491.158218 78.44631 489.832203 
C 78.44631 488.506187 77.919478 487.234303 76.981844 486.296669 
C 76.044209 485.359034 74.772325 484.832203 73.44631 484.832203 
C 72.120294 484.832203 70.84841 485.359034 69.910776 486.296669 
C 68.973141 487.234303 68.44631 488.506187 68.44631 489.832203 
C 68.44631 491.158218 68.973141 492.430102 69.910776 493.367737 
C 70.84841 494.305371 72.120294 494.832203 73.44631 494.832203 
z
" style="fill:#9367bc;fill-opacity:0.75;stroke:#9367bc;stroke-opacity:0.75;stroke-width:0.8;"/>
    <path clip-path="url(#p2403a85651)" d="M 109.931775 359.82718 
C 111.25779 359.82718 112.529674 359.300349 113.467309 358.362714 
C 114.404943 357.425079 114.931775 356.153196 114.931775 354.82718 
C 114.931775 353.501165 114.404943 352.229281 113.467309 351.291646 
C 112.529674 350.354012 111.25779 349.82718 109.931775 349.82718 
C 108.605759 349.82718 107.333875 350.354012 106.396241 351.291646 
C 105.458606 352.229281 104.931775 353.501165 104.931775 354.82718 
C 104.931775 356.153196 105.458606 357.425079 106.396241 358.362714 
C 107.333875 359.300349 108.605759 359.82718 109.931775 359.82718 
z
" style="fill:#1f77b3;fill-opacity:0.75;stroke:#1f77b3;stroke-opacity:0.75;stroke-width:0.8;"/>
    <path clip-path="url(#p2403a85651)" d="M 104.116772 382.880063 
C 105.442788 382.880063 106.714671 382.353231 107.652306 381.415597 
C 108.589941 380.477962 109.116772 379.206078 109.116772 377.880063 
C 109.116772 376.554047 108.589941 375.282163 107.652306 374.344529 
C 106.714671 373.406894 105.442788 372.880063 104.116772 372.880063 
C 102.790757 372.880063 101.518873 373.406894 100.581238 374.344529 
C 99.643604 375.282163 99.116772 376.554047 99.116772 377.880063 
C 99.116772 379.206078 99.643604 380.477962 100.581238 381.415597 
C 101.518873 382.353231 102.790757 382.880063 104.116772 382.880063 
z
" style="fill:#1f77b3;fill-opacity:0.75;stroke:#1f77b3;stroke-opacity:0.75;stroke-width:0.8;"/>
    <path clip-path="url(#p2403a85651)" d="M 95.889768 506.686939 
C 97.215783 506.686939 98.487667 506.160108 99.425302 505.222473 
C 100.362936 504.284838 100.889768 503.012955 100.889768 501.686939 
C 100.889768 500.360924 100.362936 499.08904 99.425302 498.151405 
C 98.487667 497.213771 97.215783 496.686939 95.889768 496.686939 
C 94.563752 496.686939 93.291869 497.213771 92.354234 498.151405 
C 91.4166 499.08904 90.889768 500.360924 90.889768 501.686939 
C 90.889768 503.012955 91.4166 504.284838 92.354234 505.222473 
C 93.291869 506.160108 94.563752 506.686939 95.889768 506.686939 
z
" style="fill:#ff7e0e;fill-opacity:0.75;stroke:#ff7e0e;stroke-opacity:0.75;stroke-width:0.8;"/>
    <path clip-path="url(#p2403a85651)" d="M 99.965225 410.884681 
C 101.29124 410.884681 102.563124 410.35785 103.500758 409.420215 
C 104.438393 408.482581 104.965225 407.210697 104.965225 405.884681 
C 104.965225 404.558666 104.438393 403.286782 103.500758 402.349147 
C 102.563124 401.411513 101.29124 400.884681 99.965225 400.884681 
C 98.639209 400.884681 97.367325 401.411513 96.429691 402.349147 
C 95.492056 403.286782 94.965225 404.558666 94.965225 405.884681 
C 94.965225 407.210697 95.492056 408.482581 96.429691 409.420215 
C 97.367325 410.35785 98.639209 410.884681 99.965225 410.884681 
z
" style="fill:#ff7e0e;fill-opacity:0.75;stroke:#ff7e0e;stroke-opacity:0.75;stroke-width:0.8;"/>
    <path clip-path="url(#p2403a85651)" d="M 149.964614 411.852487 
C 151.29063 411.852487 152.562514 411.325655 153.500148 410.388021 
C 154.437783 409.450386 154.964614 408.178502 154.964614 406.852487 
C 154.964614 405.526471 154.437783 404.254587 153.500148 403.316953 
C 152.562514 402.379318 151.29063 401.852487 149.964614 401.852487 
C 148.638599 401.852487 147.366715 402.379318 146.42908 403.316953 
C 145.491446 404.254587 144.964614 405.526471 144.964614 406.852487 
C 144.964614 408.178502 145.491446 409.450386 146.42908 410.388021 
C 147.366715 411.325655 148.638599 411.852487 149.964614 411.852487 
z
" style="fill:#ff7e0e;fill-opacity:0.75;stroke:#ff7e0e;stroke-opacity:0.75;stroke-width:0.8;"/>
    <path clip-path="url(#p2403a85651)" d="M 110.250546 366.192375 
C 111.576562 366.192375 112.848446 365.665544 113.78608 364.727909 
C 114.723715 363.790275 115.250546 362.518391 115.250546 361.192375 
C 115.250546 359.86636 114.723715 358.594476 113.78608 357.656841 
C 112.848446 356.719207 111.576562 356.192375 110.250546 356.192375 
C 108.924531 356.192375 107.652647 356.719207 106.715012 357.656841 
C 105.777378 358.594476 105.250546 359.86636 105.250546 361.192375 
C 105.250546 362.518391 105.777378 363.790275 106.715012 364.727909 
C 107.652647 365.665544 108.924531 366.192375 110.250546 366.192375 
z
" style="fill:#d62628;fill-opacity:0.75;stroke:#d62628;stroke-opacity:0.75;stroke-width:0.8;"/>
    <path clip-path="url(#p2403a85651)" d="M 92.060662 385.509011 
C 93.386678 385.509011 94.658562 384.982179 95.596196 384.044544 
C 96.533831 383.10691 97.060662 381.835026 97.060662 380.509011 
C 97.060662 379.182995 96.533831 377.911111 95.596196 376.973477 
C 94.658562 376.035842 93.386678 375.509011 92.060662 375.509011 
C 90.734647 375.509011 89.462763 376.035842 88.525128 376.973477 
C 87.587494 377.911111 87.060662 379.182995 87.060662 380.509011 
C 87.060662 381.835026 87.587494 383.10691 88.525128 384.044544 
C 89.462763 384.982179 90.734647 385.509011 92.060662 385.509011 
z
" style="fill:#d62628;fill-opacity:0.75;stroke:#d62628;stroke-opacity:0.75;stroke-width:0.8;"/>
    <path clip-path="url(#p2403a85651)" d="M 116.689694 364.839492 
C 118.015709 364.839492 119.287593 364.312661 120.225228 363.375026 
C 121.162862 362.437392 121.689694 361.165508 121.689694 359.839492 
C 121.689694 358.513477 121.162862 357.241593 120.225228 356.303958 
C 119.287593 355.366324 118.015709 354.839492 116.689694 354.839492 
C 115.363678 354.839492 114.091794 355.366324 113.15416 356.303958 
C 112.216525 357.241593 111.689694 358.513477 111.689694 359.839492 
C 111.689694 361.165508 112.216525 362.437392 113.15416 363.375026 
C 114.091794 364.312661 115.363678 364.839492 116.689694 364.839492 
z
" style="fill:#d62628;fill-opacity:0.75;stroke:#d62628;stroke-opacity:0.75;stroke-width:0.8;"/>
    <path clip-path="url(#p2403a85651)" d="M 90.788834 474.64094 
C 92.11485 474.64094 93.386733 474.114109 94.324368 473.176474 
C 95.262003 472.23884 95.788834 470.966956 95.788834 469.64094 
C 95.788834 468.314925 95.262003 467.043041 94.324368 466.105406 
C 93.386733 465.167772 92.11485 464.64094 90.788834 464.64094 
C 89.462819 464.64094 88.190935 465.167772 87.2533 466.105406 
C 86.315666 467.043041 85.788834 468.314925 85.788834 469.64094 
C 85.788834 470.966956 86.315666 472.23884 87.2533 473.176474 
C 88.190935 474.114109 89.462819 474.64094 90.788834 474.64094 
z
" style="fill:#2ba02b;fill-opacity:0.75;stroke:#2ba02b;stroke-opacity:0.75;stroke-width:0.8;"/>
    <path clip-path="url(#p2403a85651)" d="M 100.272791 355.32073 
C 101.598806 355.32073 102.87069 354.793899 103.808324 353.856264 
C 104.745959 352.91863 105.272791 351.646746 105.272791 350.32073 
C 105.272791 348.994715 104.745959 347.722831 103.808324 346.785196 
C 102.87069 345.847562 101.598806 345.32073 100.272791 345.32073 
C 98.946775 345.32073 97.674891 345.847562 96.737257 346.785196 
C 95.799622 347.722831 95.272791 348.994715 95.272791 350.32073 
C 95.272791 351.646746 95.799622 352.91863 96.737257 353.856264 
C 97.674891 354.793899 98.946775 355.32073 100.272791 355.32073 
z
" style="fill:#2ba02b;fill-opacity:0.75;stroke:#2ba02b;stroke-opacity:0.75;stroke-width:0.8;"/>
    <path clip-path="url(#p2403a85651)" d="M 194.794775 410.864864 
C 196.120791 410.864864 197.392674 410.338033 198.330309 409.400398 
C 199.267944 408.462764 199.794775 407.19088 199.794775 405.864864 
C 199.794775 404.538849 199.267944 403.266965 198.330309 402.32933 
C 197.392674 401.391696 196.120791 400.864864 194.794775 400.864864 
C 193.46876 400.864864 192.196876 401.391696 191.259241 402.32933 
C 190.321607 403.266965 189.794775 404.538849 189.794775 405.864864 
C 189.794775 407.19088 190.321607 408.462764 191.259241 409.400398 
C 192.196876 410.338033 193.46876 410.864864 194.794775 410.864864 
z
" style="fill:#9367bc;fill-opacity:0.75;stroke:#9367bc;stroke-opacity:0.75;stroke-width:0.8;"/>
    <path clip-path="url(#p2403a85651)" d="M 191.041058 446.90657 
L 201.041058 446.90657 
L 201.041058 436.90657 
L 191.041058 436.90657 
z
" style="fill:#2ba02b;fill-opacity:0.75;stroke:#2ba02b;stroke-opacity:0.75;stroke-width:0.8;"/>
    <path clip-path="url(#p2403a85651)" d="M 126.128029 325.112208 
C 127.454045 325.112208 128.725929 324.585376 129.663563 323.647742 
C 130.601198 322.710107 131.128029 321.438223 131.128029 320.112208 
C 131.128029 318.786192 130.601198 317.514308 129.663563 316.576674 
C 128.725929 315.639039 127.454045 315.112208 126.128029 315.112208 
C 124.802014 315.112208 123.53013 315.639039 122.592495 316.576674 
C 121.654861 317.514308 121.128029 318.786192 121.128029 320.112208 
C 121.128029 321.438223 121.654861 322.710107 122.592495 323.647742 
C 123.53013 324.585376 124.802014 325.112208 126.128029 325.112208 
z
" style="fill:#1f77b3;fill-opacity:0.75;stroke:#1f77b3;stroke-opacity:0.75;stroke-width:0.8;"/>
    <path clip-path="url(#p2403a85651)" d="M 241.210572 431.878597 
L 251.210572 431.878597 
L 251.210572 421.878597 
L 241.210572 421.878597 
z
" style="fill:#9367bc;fill-opacity:0.75;stroke:#9367bc;stroke-opacity:0.75;stroke-width:0.8;"/>
    <path clip-path="url(#p2403a85651)" d="M 174.503829 434.633295 
L 184.503829 434.633295 
L 184.503829 424.633295 
L 174.503829 424.633295 
z
" style="fill:#1f77b3;fill-opacity:0.75;stroke:#1f77b3;stroke-opacity:0.75;stroke-width:0.8;"/>
    <path clip-path="url(#p2403a85651)" d="M 177.511255 452.483882 
L 187.511255 452.483882 
L 187.511255 442.483882 
L 177.511255 442.483882 
z
" style="fill:#ff7e0e;fill-opacity:0.75;stroke:#ff7e0e;stroke-opacity:0.75;stroke-width:0.8;"/>
    <path clip-path="url(#p2403a85651)" d="M 180.136695 395.163757 
L 190.136695 395.163757 
L 190.136695 385.163757 
L 180.136695 385.163757 
z
" style="fill:#d62628;fill-opacity:0.75;stroke:#d62628;stroke-opacity:0.75;stroke-width:0.8;"/>
    <path clip-path="url(#p2403a85651)" d="M 163.969792 470.878854 
L 173.969792 470.878854 
L 173.969792 460.878854 
L 163.969792 460.878854 
z
" style="fill:#2ba02b;fill-opacity:0.75;stroke:#2ba02b;stroke-opacity:0.75;stroke-width:0.8;"/>
    <path clip-path="url(#p2403a85651)" d="M 262.553953 388.853527 
L 272.553953 388.853527 
L 272.553953 378.853527 
L 262.553953 378.853527 
z
" style="fill:#9367bc;fill-opacity:0.75;stroke:#9367bc;stroke-opacity:0.75;stroke-width:0.8;"/>
    <path clip-path="url(#p2403a85651)" d="M 73.771748 457.906728 
L 83.771748 457.906728 
L 83.771748 447.906728 
L 73.771748 447.906728 
z
" style="fill:#ff7e0e;fill-opacity:0.75;stroke:#ff7e0e;stroke-opacity:0.75;stroke-width:0.8;"/>
    <path clip-path="url(#p2403a85651)" d="M 112.268204 411.864701 
L 122.268204 411.864701 
L 122.268204 401.864701 
L 112.268204 401.864701 
z
" style="fill:#2ba02b;fill-opacity:0.75;stroke:#2ba02b;stroke-opacity:0.75;stroke-width:0.8;"/>
    <path clip-path="url(#p2403a85651)" d="M 98.357277 436.497199 
L 108.357277 436.497199 
L 108.357277 426.497199 
L 98.357277 426.497199 
z
" style="fill:#ff7e0e;fill-opacity:0.75;stroke:#ff7e0e;stroke-opacity:0.75;stroke-width:0.8;"/>
    <path clip-path="url(#p2403a85651)" d="M 101.26425 497.960692 
L 111.26425 497.960692 
L 111.26425 487.960692 
L 101.26425 487.960692 
z
" style="fill:#d62628;fill-opacity:0.75;stroke:#d62628;stroke-opacity:0.75;stroke-width:0.8;"/>
    <path clip-path="url(#p2403a85651)" d="M 195.368808 412.992015 
L 205.368808 412.992015 
L 205.368808 402.992015 
L 195.368808 402.992015 
z
" style="fill:#d62628;fill-opacity:0.75;stroke:#d62628;stroke-opacity:0.75;stroke-width:0.8;"/>
    <path clip-path="url(#p2403a85651)" d="M 112.227985 455.101216 
L 122.227985 455.101216 
L 122.227985 445.101216 
L 112.227985 445.101216 
z
" style="fill:#1f77b3;fill-opacity:0.75;stroke:#1f77b3;stroke-opacity:0.75;stroke-width:0.8;"/>
    <path clip-path="url(#p2403a85651)" d="M 231.000866 417.285078 
L 241.000866 417.285078 
L 241.000866 407.285078 
L 231.000866 407.285078 
z
" style="fill:#1f77b3;fill-opacity:0.75;stroke:#1f77b3;stroke-opacity:0.75;stroke-width:0.8;"/>
    <path clip-path="url(#p2403a85651)" d="M 214.545924 482.86845 
L 224.545924 482.86845 
L 224.545924 472.86845 
L 214.545924 472.86845 
z
" style="fill:#9367bc;fill-opacity:0.75;stroke:#9367bc;stroke-opacity:0.75;stroke-width:0.8;"/>
    <path clip-path="url(#p2403a85651)" d="M 223.867771 462.073399 
L 218.867771 472.073399 
L 228.867771 472.073399 
z
" style="fill:#d62628;fill-opacity:0.75;stroke:#d62628;stroke-opacity:0.75;stroke-width:0.8;"/>
    <path clip-path="url(#p2403a85651)" d="M 116.422134 430.274167 
L 111.422134 440.274167 
L 121.422134 440.274167 
z
" style="fill:#9367bc;fill-opacity:0.75;stroke:#9367bc;stroke-opacity:0.75;stroke-width:0.8;"/>
    <path clip-path="url(#p2403a85651)" d="M 138.130594 416.051832 
L 133.130594 426.051832 
L 143.130594 426.051832 
z
" style="fill:#ff7e0e;fill-opacity:0.75;stroke:#ff7e0e;stroke-opacity:0.75;stroke-width:0.8;"/>
    <path clip-path="url(#p2403a85651)" d="M 134.885291 399.33805 
L 129.885291 409.33805 
L 139.885291 409.33805 
z
" style="fill:#2ba02b;fill-opacity:0.75;stroke:#2ba02b;stroke-opacity:0.75;stroke-width:0.8;"/>
    <path clip-path="url(#p2403a85651)" d="M 128.645507 395.951812 
L 123.645507 405.951812 
L 133.645507 405.951812 
z
" style="fill:#1f77b3;fill-opacity:0.75;stroke:#1f77b3;stroke-opacity:0.75;stroke-width:0.8;"/>
    <path clip-path="url(#p2403a85651)" d="M 161.546343 453.777071 
L 156.546343 463.777071 
L 166.546343 463.777071 
z
" style="fill:#9367bc;fill-opacity:0.75;stroke:#9367bc;stroke-opacity:0.75;stroke-width:0.8;"/>
    <path clip-path="url(#p2403a85651)" d="M 137.759717 424.280607 
L 132.759717 434.280607 
L 142.759717 434.280607 
z
" style="fill:#d62628;fill-opacity:0.75;stroke:#d62628;stroke-opacity:0.75;stroke-width:0.8;"/>
    <path clip-path="url(#p2403a85651)" d="M 210.847093 414.268168 
L 205.847093 424.268168 
L 215.847093 424.268168 
z
" style="fill:#1f77b3;fill-opacity:0.75;stroke:#1f77b3;stroke-opacity:0.75;stroke-width:0.8;"/>
    <path clip-path="url(#p2403a85651)" d="M 85.546971 446.533434 
L 80.546971 456.533434 
L 90.546971 456.533434 
z
" style="fill:#9367bc;fill-opacity:0.75;stroke:#9367bc;stroke-opacity:0.75;stroke-width:0.8;"/>
    <path clip-path="url(#p2403a85651)" d="M 145.750881 418.761857 
L 140.750881 428.761857 
L 150.750881 428.761857 
z
" style="fill:#ff7e0e;fill-opacity:0.75;stroke:#ff7e0e;stroke-opacity:0.75;stroke-width:0.8;"/>
    <path clip-path="url(#p2403a85651)" d="M 131.922135 414.793606 
L 126.922135 424.793606 
L 136.922135 424.793606 
z
" style="fill:#2ba02b;fill-opacity:0.75;stroke:#2ba02b;stroke-opacity:0.75;stroke-width:0.8;"/>
    <path clip-path="url(#p2403a85651)" d="M 181.276495 428.022436 
L 176.276495 438.022436 
L 186.276495 438.022436 
z
" style="fill:#2ba02b;fill-opacity:0.75;stroke:#2ba02b;stroke-opacity:0.75;stroke-width:0.8;"/>
    <path clip-path="url(#p2403a85651)" d="M 134.829588 499.691058 
L 129.829588 509.691058 
L 139.829588 509.691058 
z
" style="fill:#ff7e0e;fill-opacity:0.75;stroke:#ff7e0e;stroke-opacity:0.75;stroke-width:0.8;"/>
    <path clip-path="url(#p2403a85651)" d="M 207.113646 422.66952 
L 202.113646 432.66952 
L 212.113646 432.66952 
z
" style="fill:#d62628;fill-opacity:0.75;stroke:#d62628;stroke-opacity:0.75;stroke-width:0.8;"/>
   </g>
   <g id="PathCollection_20"/>
   <g id="PathCollection_21"/>
   <g id="PathCollection_22"/>
   <g id="PathCollection_23"/>
   <g id="PathCollection_24"/>
   <g id="PathCollection_25"/>
   <g id="PathCollection_26"/>
   <g id="PathCollection_27"/>
   <g id="patch_9">
    <path d="M 68.4075 513.92 
L 68.4075 310.883265 
" style="fill:none;stroke:#555555;stroke-linecap:square;stroke-linejoin:miter;"/>
   </g>
   <g id="patch_10">
    <path d="M 68.4075 513.92 
L 281.704091 513.92 
" style="fill:none;stroke:#555555;stroke-linecap:square;stroke-linejoin:miter;"/>
   </g>
  </g>
  <g id="axes_4">
   <g id="patch_11">
    <path d="M 324.363409 513.92 
L 537.66 513.92 
L 537.66 310.883265 
L 324.363409 310.883265 
z
" style="fill:#ffffff;"/>
   </g>
   <g id="matplotlib.axis_7">
    <g id="xtick_11">
     <g id="line2d_37">
      <g>
       <use style="fill:#555555;stroke:#555555;stroke-width:0.8;" x="354.834351" xlink:href="#m102c4c6406" y="513.92"/>
      </g>
     </g>
     <g id="text_21">
      <!-- 0.4 -->
      <g style="fill:#555555;" transform="translate(343.325601 532.92)scale(0.16 -0.16)">
       <use xlink:href="#Roboto-Bold-48"/>
       <use x="57.373047" xlink:href="#Roboto-Bold-46"/>
       <use x="86.474609" xlink:href="#Roboto-Bold-52"/>
      </g>
     </g>
    </g>
    <g id="xtick_12">
     <g id="line2d_38">
      <g>
       <use style="fill:#555555;stroke:#555555;stroke-width:0.8;" x="415.776234" xlink:href="#m102c4c6406" y="513.92"/>
      </g>
     </g>
     <g id="text_22">
      <!-- 0.5 -->
      <g style="fill:#555555;" transform="translate(404.267484 532.92)scale(0.16 -0.16)">
       <use xlink:href="#Roboto-Bold-48"/>
       <use x="57.373047" xlink:href="#Roboto-Bold-46"/>
       <use x="86.474609" xlink:href="#Roboto-Bold-53"/>
      </g>
     </g>
    </g>
    <g id="xtick_13">
     <g id="line2d_39">
      <g>
       <use style="fill:#555555;stroke:#555555;stroke-width:0.8;" x="476.718117" xlink:href="#m102c4c6406" y="513.92"/>
      </g>
     </g>
     <g id="text_23">
      <!-- 0.6 -->
      <g style="fill:#555555;" transform="translate(465.209367 532.92)scale(0.16 -0.16)">
       <use xlink:href="#Roboto-Bold-48"/>
       <use x="57.373047" xlink:href="#Roboto-Bold-46"/>
       <use x="86.474609" xlink:href="#Roboto-Bold-54"/>
      </g>
     </g>
    </g>
    <g id="xtick_14">
     <g id="line2d_40">
      <g>
       <use style="fill:#555555;stroke:#555555;stroke-width:0.8;" x="537.66" xlink:href="#m102c4c6406" y="513.92"/>
      </g>
     </g>
     <g id="text_24">
      <!-- 0.7 -->
      <g style="fill:#555555;" transform="translate(526.15125 532.92)scale(0.16 -0.16)">
       <defs>
        <path d="M 53.21875 71.09375 
L 53.21875 63.234375 
L 25.734375 0 
L 10.84375 0 
L 38.328125 59.71875 
L 2.984375 59.71875 
L 2.984375 71.09375 
z
" id="Roboto-Bold-55"/>
       </defs>
       <use xlink:href="#Roboto-Bold-48"/>
       <use x="57.373047" xlink:href="#Roboto-Bold-46"/>
       <use x="86.474609" xlink:href="#Roboto-Bold-55"/>
      </g>
     </g>
    </g>
    <g id="text_25">
     <!-- pupil diameter -->
     <g style="fill:#555555;" transform="translate(368.799205 554.57)scale(0.192 -0.192)">
      <defs>
       <path d="M 32.515625 -0.984375 
Q 24.609375 -0.984375 19.578125 4.640625 
L 19.578125 -20.3125 
L 5.421875 -20.3125 
L 5.421875 52.828125 
L 18.5625 52.828125 
L 19.09375 47.703125 
Q 24.125 53.8125 32.375 53.8125 
Q 42.4375 53.8125 47.734375 46.4375 
Q 53.03125 39.0625 53.03125 27 
L 53.03125 25.984375 
Q 53.03125 14.453125 47.734375 6.734375 
Q 42.4375 -0.984375 32.515625 -0.984375 
z
M 28.71875 42.390625 
Q 22.125 42.390625 19.578125 37.25 
L 19.578125 15.625 
Q 22.21875 10.40625 28.8125 10.40625 
Q 34.328125 10.40625 36.625 14.96875 
Q 38.921875 19.53125 38.921875 27 
Q 38.921875 33.546875 36.546875 37.96875 
Q 34.1875 42.390625 28.71875 42.390625 
z
" id="Roboto-Bold-112"/>
       <path d="M 37.5 0 
L 37.109375 5.421875 
Q 31.9375 -0.984375 22.65625 -0.984375 
Q 14.890625 -0.984375 10.03125 3.5625 
Q 5.171875 8.109375 5.125 18.453125 
L 5.125 52.828125 
L 19.234375 52.828125 
L 19.234375 18.5625 
Q 19.234375 14.15625 21.328125 12.328125 
Q 23.4375 10.5 26.703125 10.5 
Q 33.890625 10.5 36.625 15.53125 
L 36.625 52.828125 
L 50.78125 52.828125 
L 50.78125 0 
z
" id="Roboto-Bold-117"/>
      </defs>
      <use xlink:href="#Roboto-Bold-112"/>
      <use x="56.298828" xlink:href="#Roboto-Bold-117"/>
      <use x="112.304688" xlink:href="#Roboto-Bold-112"/>
      <use x="168.603516" xlink:href="#Roboto-Bold-105"/>
      <use x="195.117188" xlink:href="#Roboto-Bold-108"/>
      <use x="221.630859" xlink:href="#Roboto-Bold-32"/>
      <use x="246.533203" xlink:href="#Roboto-Bold-100"/>
      <use x="302.929688" xlink:href="#Roboto-Bold-105"/>
      <use x="329.443359" xlink:href="#Roboto-Bold-97"/>
      <use x="383.056641" xlink:href="#Roboto-Bold-109"/>
      <use x="469.628906" xlink:href="#Roboto-Bold-101"/>
      <use x="523.681641" xlink:href="#Roboto-Bold-116"/>
      <use x="557.470703" xlink:href="#Roboto-Bold-101"/>
      <use x="611.523438" xlink:href="#Roboto-Bold-114"/>
     </g>
    </g>
   </g>
   <g id="matplotlib.axis_8">
    <g id="ytick_13">
     <g id="line2d_41">
      <path clip-path="url(#pae4d351e79)" d="M 324.363409 474.58968 
L 537.66 474.58968 
" style="fill:none;stroke:#eeeeee;stroke-linecap:square;stroke-width:0.8;"/>
     </g>
     <g id="line2d_42">
      <g>
       <use style="fill:#555555;stroke:#555555;stroke-width:0.8;" x="324.363409" xlink:href="#m4be147475e" y="474.58968"/>
      </g>
     </g>
    </g>
    <g id="ytick_14">
     <g id="line2d_43">
      <path clip-path="url(#pae4d351e79)" d="M 324.363409 430.645766 
L 537.66 430.645766 
" style="fill:none;stroke:#eeeeee;stroke-linecap:square;stroke-width:0.8;"/>
     </g>
     <g id="line2d_44">
      <g>
       <use style="fill:#555555;stroke:#555555;stroke-width:0.8;" x="324.363409" xlink:href="#m4be147475e" y="430.645766"/>
      </g>
     </g>
    </g>
    <g id="ytick_15">
     <g id="line2d_45">
      <path clip-path="url(#pae4d351e79)" d="M 324.363409 386.701852 
L 537.66 386.701852 
" style="fill:none;stroke:#eeeeee;stroke-linecap:square;stroke-width:0.8;"/>
     </g>
     <g id="line2d_46">
      <g>
       <use style="fill:#555555;stroke:#555555;stroke-width:0.8;" x="324.363409" xlink:href="#m4be147475e" y="386.701852"/>
      </g>
     </g>
    </g>
    <g id="ytick_16">
     <g id="line2d_47">
      <path clip-path="url(#pae4d351e79)" d="M 324.363409 342.757938 
L 537.66 342.757938 
" style="fill:none;stroke:#eeeeee;stroke-linecap:square;stroke-width:0.8;"/>
     </g>
     <g id="line2d_48">
      <g>
       <use style="fill:#555555;stroke:#555555;stroke-width:0.8;" x="324.363409" xlink:href="#m4be147475e" y="342.757938"/>
      </g>
     </g>
    </g>
   </g>
   <g id="PathCollection_28">
    <path clip-path="url(#pae4d351e79)" d="M 430.251775 376.924132 
C 431.57779 376.924132 432.849674 376.3973 433.787308 375.459666 
C 434.724943 374.522031 435.251775 373.250147 435.251775 371.924132 
C 435.251775 370.598116 434.724943 369.326233 433.787308 368.388598 
C 432.849674 367.450963 431.57779 366.924132 430.251775 366.924132 
C 428.925759 366.924132 427.653875 367.450963 426.716241 368.388598 
C 425.778606 369.326233 425.251775 370.598116 425.251775 371.924132 
C 425.251775 373.250147 425.778606 374.522031 426.716241 375.459666 
C 427.653875 376.3973 428.925759 376.924132 430.251775 376.924132 
z
" style="fill:#9367bc;fill-opacity:0.75;stroke:#9367bc;stroke-opacity:0.75;stroke-width:0.8;"/>
    <path clip-path="url(#pae4d351e79)" d="M 450.804065 420.547247 
C 452.130081 420.547247 453.401965 420.020416 454.339599 419.082781 
C 455.277234 418.145147 455.804065 416.873263 455.804065 415.547247 
C 455.804065 414.221232 455.277234 412.949348 454.339599 412.011713 
C 453.401965 411.074079 452.130081 410.547247 450.804065 410.547247 
C 449.47805 410.547247 448.206166 411.074079 447.268532 412.011713 
C 446.330897 412.949348 445.804065 414.221232 445.804065 415.547247 
C 445.804065 416.873263 446.330897 418.145147 447.268532 419.082781 
C 448.206166 420.020416 449.47805 420.547247 450.804065 420.547247 
z
" style="fill:#2ba02b;fill-opacity:0.75;stroke:#2ba02b;stroke-opacity:0.75;stroke-width:0.8;"/>
    <path clip-path="url(#pae4d351e79)" d="M 429.666513 494.832203 
C 430.992528 494.832203 432.264412 494.305371 433.202046 493.367737 
C 434.139681 492.430102 434.666513 491.158218 434.666513 489.832203 
C 434.666513 488.506187 434.139681 487.234303 433.202046 486.296669 
C 432.264412 485.359034 430.992528 484.832203 429.666513 484.832203 
C 428.340497 484.832203 427.068613 485.359034 426.130979 486.296669 
C 425.193344 487.234303 424.666513 488.506187 424.666513 489.832203 
C 424.666513 491.158218 425.193344 492.430102 426.130979 493.367737 
C 427.068613 494.305371 428.340497 494.832203 429.666513 494.832203 
z
" style="fill:#9367bc;fill-opacity:0.75;stroke:#9367bc;stroke-opacity:0.75;stroke-width:0.8;"/>
    <path clip-path="url(#pae4d351e79)" d="M 389.103084 359.82718 
C 390.4291 359.82718 391.700984 359.300349 392.638618 358.362714 
C 393.576253 357.425079 394.103084 356.153196 394.103084 354.82718 
C 394.103084 353.501165 393.576253 352.229281 392.638618 351.291646 
C 391.700984 350.354012 390.4291 349.82718 389.103084 349.82718 
C 387.777069 349.82718 386.505185 350.354012 385.56755 351.291646 
C 384.629916 352.229281 384.103084 353.501165 384.103084 354.82718 
C 384.103084 356.153196 384.629916 357.425079 385.56755 358.362714 
C 386.505185 359.300349 387.777069 359.82718 389.103084 359.82718 
z
" style="fill:#1f77b3;fill-opacity:0.75;stroke:#1f77b3;stroke-opacity:0.75;stroke-width:0.8;"/>
    <path clip-path="url(#pae4d351e79)" d="M 397.333118 382.880063 
C 398.659133 382.880063 399.931017 382.353231 400.868652 381.415597 
C 401.806286 380.477962 402.333118 379.206078 402.333118 377.880063 
C 402.333118 376.554047 401.806286 375.282163 400.868652 374.344529 
C 399.931017 373.406894 398.659133 372.880063 397.333118 372.880063 
C 396.007102 372.880063 394.735218 373.406894 393.797584 374.344529 
C 392.859949 375.282163 392.333118 376.554047 392.333118 377.880063 
C 392.333118 379.206078 392.859949 380.477962 393.797584 381.415597 
C 394.735218 382.353231 396.007102 382.880063 397.333118 382.880063 
z
" style="fill:#1f77b3;fill-opacity:0.75;stroke:#1f77b3;stroke-opacity:0.75;stroke-width:0.8;"/>
    <path clip-path="url(#pae4d351e79)" d="M 374.692997 506.686939 
C 376.019012 506.686939 377.290896 506.160108 378.228531 505.222473 
C 379.166165 504.284838 379.692997 503.012955 379.692997 501.686939 
C 379.692997 500.360924 379.166165 499.08904 378.228531 498.151405 
C 377.290896 497.213771 376.019012 496.686939 374.692997 496.686939 
C 373.366981 496.686939 372.095098 497.213771 371.157463 498.151405 
C 370.219828 499.08904 369.692997 500.360924 369.692997 501.686939 
C 369.692997 503.012955 370.219828 504.284838 371.157463 505.222473 
C 372.095098 506.160108 373.366981 506.686939 374.692997 506.686939 
z
" style="fill:#ff7e0e;fill-opacity:0.75;stroke:#ff7e0e;stroke-opacity:0.75;stroke-width:0.8;"/>
    <path clip-path="url(#pae4d351e79)" d="M 451.04663 410.884681 
C 452.372645 410.884681 453.644529 410.35785 454.582163 409.420215 
C 455.519798 408.482581 456.04663 407.210697 456.04663 405.884681 
C 456.04663 404.558666 455.519798 403.286782 454.582163 402.349147 
C 453.644529 401.411513 452.372645 400.884681 451.04663 400.884681 
C 449.720614 400.884681 448.44873 401.411513 447.511096 402.349147 
C 446.573461 403.286782 446.04663 404.558666 446.04663 405.884681 
C 446.04663 407.210697 446.573461 408.482581 447.511096 409.420215 
C 448.44873 410.35785 449.720614 410.884681 451.04663 410.884681 
z
" style="fill:#ff7e0e;fill-opacity:0.75;stroke:#ff7e0e;stroke-opacity:0.75;stroke-width:0.8;"/>
    <path clip-path="url(#pae4d351e79)" d="M 457.159403 411.852487 
C 458.485419 411.852487 459.757303 411.325655 460.694937 410.388021 
C 461.632572 409.450386 462.159403 408.178502 462.159403 406.852487 
C 462.159403 405.526471 461.632572 404.254587 460.694937 403.316953 
C 459.757303 402.379318 458.485419 401.852487 457.159403 401.852487 
C 455.833388 401.852487 454.561504 402.379318 453.623869 403.316953 
C 452.686235 404.254587 452.159403 405.526471 452.159403 406.852487 
C 452.159403 408.178502 452.686235 409.450386 453.623869 410.388021 
C 454.561504 411.325655 455.833388 411.852487 457.159403 411.852487 
z
" style="fill:#ff7e0e;fill-opacity:0.75;stroke:#ff7e0e;stroke-opacity:0.75;stroke-width:0.8;"/>
    <path clip-path="url(#pae4d351e79)" d="M 414.27081 366.192375 
C 415.596825 366.192375 416.868709 365.665544 417.806344 364.727909 
C 418.743978 363.790275 419.27081 362.518391 419.27081 361.192375 
C 419.27081 359.86636 418.743978 358.594476 417.806344 357.656841 
C 416.868709 356.719207 415.596825 356.192375 414.27081 356.192375 
C 412.944794 356.192375 411.67291 356.719207 410.735276 357.656841 
C 409.797641 358.594476 409.27081 359.86636 409.27081 361.192375 
C 409.27081 362.518391 409.797641 363.790275 410.735276 364.727909 
C 411.67291 365.665544 412.944794 366.192375 414.27081 366.192375 
z
" style="fill:#d62628;fill-opacity:0.75;stroke:#d62628;stroke-opacity:0.75;stroke-width:0.8;"/>
    <path clip-path="url(#pae4d351e79)" d="M 349.891709 385.509011 
C 351.217724 385.509011 352.489608 384.982179 353.427242 384.044544 
C 354.364877 383.10691 354.891709 381.835026 354.891709 380.509011 
C 354.891709 379.182995 354.364877 377.911111 353.427242 376.973477 
C 352.489608 376.035842 351.217724 375.509011 349.891709 375.509011 
C 348.565693 375.509011 347.293809 376.035842 346.356175 376.973477 
C 345.41854 377.911111 344.891709 379.182995 344.891709 380.509011 
C 344.891709 381.835026 345.41854 383.10691 346.356175 384.044544 
C 347.293809 384.982179 348.565693 385.509011 349.891709 385.509011 
z
" style="fill:#d62628;fill-opacity:0.75;stroke:#d62628;stroke-opacity:0.75;stroke-width:0.8;"/>
    <path clip-path="url(#pae4d351e79)" d="M 421.59027 364.839492 
C 422.916285 364.839492 424.188169 364.312661 425.125803 363.375026 
C 426.063438 362.437392 426.59027 361.165508 426.59027 359.839492 
C 426.59027 358.513477 426.063438 357.241593 425.125803 356.303958 
C 424.188169 355.366324 422.916285 354.839492 421.59027 354.839492 
C 420.264254 354.839492 418.99237 355.366324 418.054736 356.303958 
C 417.117101 357.241593 416.59027 358.513477 416.59027 359.839492 
C 416.59027 361.165508 417.117101 362.437392 418.054736 363.375026 
C 418.99237 364.312661 420.264254 364.839492 421.59027 364.839492 
z
" style="fill:#d62628;fill-opacity:0.75;stroke:#d62628;stroke-opacity:0.75;stroke-width:0.8;"/>
    <path clip-path="url(#pae4d351e79)" d="M 376.300622 474.64094 
C 377.626637 474.64094 378.898521 474.114109 379.836156 473.176474 
C 380.77379 472.23884 381.300622 470.966956 381.300622 469.64094 
C 381.300622 468.314925 380.77379 467.043041 379.836156 466.105406 
C 378.898521 465.167772 377.626637 464.64094 376.300622 464.64094 
C 374.974606 464.64094 373.702722 465.167772 372.765088 466.105406 
C 371.827453 467.043041 371.300622 468.314925 371.300622 469.64094 
C 371.300622 470.966956 371.827453 472.23884 372.765088 473.176474 
C 373.702722 474.114109 374.974606 474.64094 376.300622 474.64094 
z
" style="fill:#2ba02b;fill-opacity:0.75;stroke:#2ba02b;stroke-opacity:0.75;stroke-width:0.8;"/>
    <path clip-path="url(#pae4d351e79)" d="M 435.353892 355.32073 
C 436.679907 355.32073 437.951791 354.793899 438.889426 353.856264 
C 439.82706 352.91863 440.353892 351.646746 440.353892 350.32073 
C 440.353892 348.994715 439.82706 347.722831 438.889426 346.785196 
C 437.951791 345.847562 436.679907 345.32073 435.353892 345.32073 
C 434.027876 345.32073 432.755993 345.847562 431.818358 346.785196 
C 430.880723 347.722831 430.353892 348.994715 430.353892 350.32073 
C 430.353892 351.646746 430.880723 352.91863 431.818358 353.856264 
C 432.755993 354.793899 434.027876 355.32073 435.353892 355.32073 
z
" style="fill:#2ba02b;fill-opacity:0.75;stroke:#2ba02b;stroke-opacity:0.75;stroke-width:0.8;"/>
    <path clip-path="url(#pae4d351e79)" d="M 496.376406 410.864864 
C 497.702421 410.864864 498.974305 410.338033 499.91194 409.400398 
C 500.849574 408.462764 501.376406 407.19088 501.376406 405.864864 
C 501.376406 404.538849 500.849574 403.266965 499.91194 402.32933 
C 498.974305 401.391696 497.702421 400.864864 496.376406 400.864864 
C 495.05039 400.864864 493.778506 401.391696 492.840872 402.32933 
C 491.903237 403.266965 491.376406 404.538849 491.376406 405.864864 
C 491.376406 407.19088 491.903237 408.462764 492.840872 409.400398 
C 493.778506 410.338033 495.05039 410.864864 496.376406 410.864864 
z
" style="fill:#9367bc;fill-opacity:0.75;stroke:#9367bc;stroke-opacity:0.75;stroke-width:0.8;"/>
    <path clip-path="url(#pae4d351e79)" d="M 476.486599 446.90657 
L 486.486599 446.90657 
L 486.486599 436.90657 
L 476.486599 436.90657 
z
" style="fill:#2ba02b;fill-opacity:0.75;stroke:#2ba02b;stroke-opacity:0.75;stroke-width:0.8;"/>
    <path clip-path="url(#pae4d351e79)" d="M 432.394065 325.112208 
C 433.720081 325.112208 434.991965 324.585376 435.929599 323.647742 
C 436.867234 322.710107 437.394065 321.438223 437.394065 320.112208 
C 437.394065 318.786192 436.867234 317.514308 435.929599 316.576674 
C 434.991965 315.639039 433.720081 315.112208 432.394065 315.112208 
C 431.06805 315.112208 429.796166 315.639039 428.858531 316.576674 
C 427.920897 317.514308 427.394065 318.786192 427.394065 320.112208 
C 427.394065 321.438223 427.920897 322.710107 428.858531 323.647742 
C 429.796166 324.585376 431.06805 325.112208 432.394065 325.112208 
z
" style="fill:#1f77b3;fill-opacity:0.75;stroke:#1f77b3;stroke-opacity:0.75;stroke-width:0.8;"/>
    <path clip-path="url(#pae4d351e79)" d="M 506.080898 431.878597 
L 516.080898 431.878597 
L 516.080898 421.878597 
L 506.080898 421.878597 
z
" style="fill:#9367bc;fill-opacity:0.75;stroke:#9367bc;stroke-opacity:0.75;stroke-width:0.8;"/>
    <path clip-path="url(#pae4d351e79)" d="M 472.72634 434.633295 
L 482.72634 434.633295 
L 482.72634 424.633295 
L 472.72634 424.633295 
z
" style="fill:#1f77b3;fill-opacity:0.75;stroke:#1f77b3;stroke-opacity:0.75;stroke-width:0.8;"/>
    <path clip-path="url(#pae4d351e79)" d="M 417.997823 452.483882 
L 427.997823 452.483882 
L 427.997823 442.483882 
L 417.997823 442.483882 
z
" style="fill:#ff7e0e;fill-opacity:0.75;stroke:#ff7e0e;stroke-opacity:0.75;stroke-width:0.8;"/>
    <path clip-path="url(#pae4d351e79)" d="M 432.928232 395.163757 
L 442.928232 395.163757 
L 442.928232 385.163757 
L 432.928232 385.163757 
z
" style="fill:#d62628;fill-opacity:0.75;stroke:#d62628;stroke-opacity:0.75;stroke-width:0.8;"/>
    <path clip-path="url(#pae4d351e79)" d="M 440.698238 470.878854 
L 450.698238 470.878854 
L 450.698238 460.878854 
L 440.698238 460.878854 
z
" style="fill:#2ba02b;fill-opacity:0.75;stroke:#2ba02b;stroke-opacity:0.75;stroke-width:0.8;"/>
    <path clip-path="url(#pae4d351e79)" d="M 483.231401 388.853527 
L 493.231401 388.853527 
L 493.231401 378.853527 
L 483.231401 378.853527 
z
" style="fill:#9367bc;fill-opacity:0.75;stroke:#9367bc;stroke-opacity:0.75;stroke-width:0.8;"/>
    <path clip-path="url(#pae4d351e79)" d="M 388.914777 457.906728 
L 398.914777 457.906728 
L 398.914777 447.906728 
L 388.914777 447.906728 
z
" style="fill:#ff7e0e;fill-opacity:0.75;stroke:#ff7e0e;stroke-opacity:0.75;stroke-width:0.8;"/>
    <path clip-path="url(#pae4d351e79)" d="M 391.999305 411.864701 
L 401.999305 411.864701 
L 401.999305 401.864701 
L 391.999305 401.864701 
z
" style="fill:#2ba02b;fill-opacity:0.75;stroke:#2ba02b;stroke-opacity:0.75;stroke-width:0.8;"/>
    <path clip-path="url(#pae4d351e79)" d="M 427.540559 436.497199 
L 437.540559 436.497199 
L 437.540559 426.497199 
L 427.540559 426.497199 
z
" style="fill:#ff7e0e;fill-opacity:0.75;stroke:#ff7e0e;stroke-opacity:0.75;stroke-width:0.8;"/>
    <path clip-path="url(#pae4d351e79)" d="M 431.666715 497.960692 
L 441.666715 497.960692 
L 441.666715 487.960692 
L 431.666715 487.960692 
z
" style="fill:#d62628;fill-opacity:0.75;stroke:#d62628;stroke-opacity:0.75;stroke-width:0.8;"/>
    <path clip-path="url(#pae4d351e79)" d="M 484.810556 412.992015 
L 494.810556 412.992015 
L 494.810556 402.992015 
L 484.810556 402.992015 
z
" style="fill:#d62628;fill-opacity:0.75;stroke:#d62628;stroke-opacity:0.75;stroke-width:0.8;"/>
    <path clip-path="url(#pae4d351e79)" d="M 457.177371 455.101216 
L 467.177371 455.101216 
L 467.177371 445.101216 
L 457.177371 445.101216 
z
" style="fill:#1f77b3;fill-opacity:0.75;stroke:#1f77b3;stroke-opacity:0.75;stroke-width:0.8;"/>
    <path clip-path="url(#pae4d351e79)" d="M 437.942269 417.285078 
L 447.942269 417.285078 
L 447.942269 407.285078 
L 437.942269 407.285078 
z
" style="fill:#1f77b3;fill-opacity:0.75;stroke:#1f77b3;stroke-opacity:0.75;stroke-width:0.8;"/>
    <path clip-path="url(#pae4d351e79)" d="M 464.427552 482.86845 
L 474.427552 482.86845 
L 474.427552 472.86845 
L 464.427552 472.86845 
z
" style="fill:#9367bc;fill-opacity:0.75;stroke:#9367bc;stroke-opacity:0.75;stroke-width:0.8;"/>
    <path clip-path="url(#pae4d351e79)" d="M 380.697546 462.073399 
L 375.697546 472.073399 
L 385.697546 472.073399 
z
" style="fill:#d62628;fill-opacity:0.75;stroke:#d62628;stroke-opacity:0.75;stroke-width:0.8;"/>
    <path clip-path="url(#pae4d351e79)" d="M 435.269733 430.274167 
L 430.269733 440.274167 
L 440.269733 440.274167 
z
" style="fill:#9367bc;fill-opacity:0.75;stroke:#9367bc;stroke-opacity:0.75;stroke-width:0.8;"/>
    <path clip-path="url(#pae4d351e79)" d="M 433.700043 416.051832 
L 428.700043 426.051832 
L 438.700043 426.051832 
z
" style="fill:#ff7e0e;fill-opacity:0.75;stroke:#ff7e0e;stroke-opacity:0.75;stroke-width:0.8;"/>
    <path clip-path="url(#pae4d351e79)" d="M 406.856688 399.33805 
L 401.856688 409.33805 
L 411.856688 409.33805 
z
" style="fill:#2ba02b;fill-opacity:0.75;stroke:#2ba02b;stroke-opacity:0.75;stroke-width:0.8;"/>
    <path clip-path="url(#pae4d351e79)" d="M 416.751395 395.951812 
L 411.751395 405.951812 
L 421.751395 405.951812 
z
" style="fill:#1f77b3;fill-opacity:0.75;stroke:#1f77b3;stroke-opacity:0.75;stroke-width:0.8;"/>
    <path clip-path="url(#pae4d351e79)" d="M 411.538771 453.777071 
L 406.538771 463.777071 
L 416.538771 463.777071 
z
" style="fill:#9367bc;fill-opacity:0.75;stroke:#9367bc;stroke-opacity:0.75;stroke-width:0.8;"/>
    <path clip-path="url(#pae4d351e79)" d="M 421.360792 424.280607 
L 416.360792 434.280607 
L 426.360792 434.280607 
z
" style="fill:#d62628;fill-opacity:0.75;stroke:#d62628;stroke-opacity:0.75;stroke-width:0.8;"/>
    <path clip-path="url(#pae4d351e79)" d="M 441.338005 414.268168 
L 436.338005 424.268168 
L 446.338005 424.268168 
z
" style="fill:#1f77b3;fill-opacity:0.75;stroke:#1f77b3;stroke-opacity:0.75;stroke-width:0.8;"/>
    <path clip-path="url(#pae4d351e79)" d="M 409.622688 446.533434 
L 404.622688 456.533434 
L 414.622688 456.533434 
z
" style="fill:#9367bc;fill-opacity:0.75;stroke:#9367bc;stroke-opacity:0.75;stroke-width:0.8;"/>
    <path clip-path="url(#pae4d351e79)" d="M 409.971543 418.761857 
L 404.971543 428.761857 
L 414.971543 428.761857 
z
" style="fill:#ff7e0e;fill-opacity:0.75;stroke:#ff7e0e;stroke-opacity:0.75;stroke-width:0.8;"/>
    <path clip-path="url(#pae4d351e79)" d="M 444.313394 414.793606 
L 439.313394 424.793606 
L 449.313394 424.793606 
z
" style="fill:#2ba02b;fill-opacity:0.75;stroke:#2ba02b;stroke-opacity:0.75;stroke-width:0.8;"/>
    <path clip-path="url(#pae4d351e79)" d="M 452.900859 428.022436 
L 447.900859 438.022436 
L 457.900859 438.022436 
z
" style="fill:#2ba02b;fill-opacity:0.75;stroke:#2ba02b;stroke-opacity:0.75;stroke-width:0.8;"/>
    <path clip-path="url(#pae4d351e79)" d="M 410.736919 499.691058 
L 405.736919 509.691058 
L 415.736919 509.691058 
z
" style="fill:#ff7e0e;fill-opacity:0.75;stroke:#ff7e0e;stroke-opacity:0.75;stroke-width:0.8;"/>
    <path clip-path="url(#pae4d351e79)" d="M 452.654931 422.66952 
L 447.654931 432.66952 
L 457.654931 432.66952 
z
" style="fill:#d62628;fill-opacity:0.75;stroke:#d62628;stroke-opacity:0.75;stroke-width:0.8;"/>
   </g>
   <g id="PathCollection_29"/>
   <g id="PathCollection_30"/>
   <g id="PathCollection_31"/>
   <g id="PathCollection_32"/>
   <g id="PathCollection_33"/>
   <g id="PathCollection_34"/>
   <g id="PathCollection_35"/>
   <g id="PathCollection_36"/>
   <g id="patch_12">
    <path d="M 324.363409 513.92 
L 324.363409 310.883265 
" style="fill:none;stroke:#555555;stroke-linecap:square;stroke-linejoin:miter;"/>
   </g>
   <g id="patch_13">
    <path d="M 324.363409 513.92 
L 537.66 513.92 
" style="fill:none;stroke:#555555;stroke-linecap:square;stroke-linejoin:miter;"/>
   </g>
  </g>
  <g id="legend_1">
   <g id="PathCollection_37">
    <defs>
     <path d="M 0 4.5 
C 1.193414 4.5 2.338109 4.025852 3.181981 3.181981 
C 4.025852 2.338109 4.5 1.193414 4.5 0 
C 4.5 -1.193414 4.025852 -2.338109 3.181981 -3.181981 
C 2.338109 -4.025852 1.193414 -4.5 0 -4.5 
C -1.193414 -4.5 -2.338109 -4.025852 -3.181981 -3.181981 
C -4.025852 -2.338109 -4.5 -1.193414 -4.5 0 
C -4.5 1.193414 -4.025852 2.338109 -3.181981 3.181981 
C -2.338109 4.025852 -1.193414 4.5 0 4.5 
z
" id="m9c5b29f7b4" style="stroke:#2ba02b;"/>
    </defs>
    <g>
     <use style="fill:#2ba02b;stroke:#2ba02b;" x="622.1675" xlink:href="#m9c5b29f7b4" y="40.65"/>
    </g>
   </g>
   <g id="text_26">
    <!-- V1 -->
    <g style="fill:#555555;" transform="translate(634.1675 44.85)scale(0.16 -0.16)">
     <defs>
      <path d="M 65.09375 71.09375 
L 40.28125 0 
L 25.046875 0 
L 0.390625 71.09375 
L 16.609375 71.09375 
L 32.671875 17.671875 
L 48.78125 71.09375 
z
" id="Roboto-Bold-86"/>
     </defs>
     <use xlink:href="#Roboto-Bold-86"/>
     <use x="65.380859" xlink:href="#Roboto-Bold-49"/>
    </g>
   </g>
   <g id="PathCollection_38">
    <defs>
     <path d="M 0 4.5 
C 1.193414 4.5 2.338109 4.025852 3.181981 3.181981 
C 4.025852 2.338109 4.5 1.193414 4.5 0 
C 4.5 -1.193414 4.025852 -2.338109 3.181981 -3.181981 
C 2.338109 -4.025852 1.193414 -4.5 0 -4.5 
C -1.193414 -4.5 -2.338109 -4.025852 -3.181981 -3.181981 
C -4.025852 -2.338109 -4.5 -1.193414 -4.5 0 
C -4.5 1.193414 -4.025852 2.338109 -3.181981 3.181981 
C -2.338109 4.025852 -1.193414 4.5 0 4.5 
z
" id="mbcffab5e54" style="stroke:#9367bc;"/>
    </defs>
    <g>
     <use style="fill:#9367bc;stroke:#9367bc;" x="622.1675" xlink:href="#mbcffab5e54" y="59.9"/>
    </g>
   </g>
   <g id="text_27">
    <!-- LM -->
    <g style="fill:#555555;" transform="translate(634.1675 64.1)scale(0.16 -0.16)">
     <defs>
      <path d="M 52.09375 11.8125 
L 52.09375 0 
L 6.34375 0 
L 6.34375 71.09375 
L 21.046875 71.09375 
L 21.046875 11.8125 
z
" id="Roboto-Bold-76"/>
      <path d="M 43.75 19.53125 
L 61.96875 71.09375 
L 81.15625 71.09375 
L 81.15625 0 
L 66.453125 0 
L 66.453125 19.4375 
L 67.921875 52.828125 
L 48.78125 0 
L 38.71875 0 
L 19.578125 52.828125 
L 21.046875 19.4375 
L 21.046875 0 
L 6.34375 0 
L 6.34375 71.09375 
L 25.53125 71.09375 
z
" id="Roboto-Bold-77"/>
     </defs>
     <use xlink:href="#Roboto-Bold-76"/>
     <use x="54.150391" xlink:href="#Roboto-Bold-77"/>
    </g>
   </g>
   <g id="PathCollection_39">
    <defs>
     <path d="M 0 4.5 
C 1.193414 4.5 2.338109 4.025852 3.181981 3.181981 
C 4.025852 2.338109 4.5 1.193414 4.5 0 
C 4.5 -1.193414 4.025852 -2.338109 3.181981 -3.181981 
C 2.338109 -4.025852 1.193414 -4.5 0 -4.5 
C -1.193414 -4.5 -2.338109 -4.025852 -3.181981 -3.181981 
C -4.025852 -2.338109 -4.5 -1.193414 -4.5 0 
C -4.5 1.193414 -4.025852 2.338109 -3.181981 3.181981 
C -2.338109 4.025852 -1.193414 4.5 0 4.5 
z
" id="m0bc91493a7" style="stroke:#1f77b3;"/>
    </defs>
    <g>
     <use style="fill:#1f77b3;stroke:#1f77b3;" x="622.1675" xlink:href="#m0bc91493a7" y="79.15"/>
    </g>
   </g>
   <g id="text_28">
    <!-- AL -->
    <g style="fill:#555555;" transform="translate(634.1675 83.35)scale(0.16 -0.16)">
     <defs>
      <path d="M 0.390625 0 
L 26.859375 71.09375 
L 40.4375 71.09375 
L 67.046875 0 
L 51.421875 0 
L 46.53125 14.65625 
L 20.796875 14.65625 
L 15.921875 0 
z
M 24.75 26.515625 
L 42.578125 26.515625 
L 33.6875 53.21875 
z
" id="Roboto-Bold-65"/>
     </defs>
     <use xlink:href="#Roboto-Bold-65"/>
     <use x="67.333984" xlink:href="#Roboto-Bold-76"/>
    </g>
   </g>
   <g id="PathCollection_40">
    <defs>
     <path d="M 0 4.5 
C 1.193414 4.5 2.338109 4.025852 3.181981 3.181981 
C 4.025852 2.338109 4.5 1.193414 4.5 0 
C 4.5 -1.193414 4.025852 -2.338109 3.181981 -3.181981 
C 2.338109 -4.025852 1.193414 -4.5 0 -4.5 
C -1.193414 -4.5 -2.338109 -4.025852 -3.181981 -3.181981 
C -4.025852 -2.338109 -4.5 -1.193414 -4.5 0 
C -4.5 1.193414 -4.025852 2.338109 -3.181981 3.181981 
C -2.338109 4.025852 -1.193414 4.5 0 4.5 
z
" id="me0d244427e" style="stroke:#ff7e0e;"/>
    </defs>
    <g>
     <use style="fill:#ff7e0e;stroke:#ff7e0e;" x="622.1675" xlink:href="#me0d244427e" y="98.4"/>
    </g>
   </g>
   <g id="text_29">
    <!-- PM -->
    <g style="fill:#555555;" transform="translate(634.1675 102.6)scale(0.16 -0.16)">
     <defs>
      <path d="M 21.046875 25.09375 
L 21.046875 0 
L 6.34375 0 
L 6.34375 71.09375 
L 34.125 71.09375 
Q 46.734375 71.09375 53.78125 64.453125 
Q 60.84375 57.8125 60.84375 47.609375 
Q 60.84375 37.3125 53.78125 31.203125 
Q 46.734375 25.09375 34.125 25.09375 
z
M 21.046875 59.234375 
L 21.046875 36.921875 
L 34.125 36.921875 
Q 40.4375 36.921875 43.21875 39.890625 
Q 46 42.875 46 47.515625 
Q 46 52.15625 43.21875 55.6875 
Q 40.4375 59.234375 34.125 59.234375 
z
" id="Roboto-Bold-80"/>
     </defs>
     <use xlink:href="#Roboto-Bold-80"/>
     <use x="64.550781" xlink:href="#Roboto-Bold-77"/>
    </g>
   </g>
   <g id="PathCollection_41">
    <defs>
     <path d="M 0 4.5 
C 1.193414 4.5 2.338109 4.025852 3.181981 3.181981 
C 4.025852 2.338109 4.5 1.193414 4.5 0 
C 4.5 -1.193414 4.025852 -2.338109 3.181981 -3.181981 
C 2.338109 -4.025852 1.193414 -4.5 0 -4.5 
C -1.193414 -4.5 -2.338109 -4.025852 -3.181981 -3.181981 
C -4.025852 -2.338109 -4.5 -1.193414 -4.5 0 
C -4.5 1.193414 -4.025852 2.338109 -3.181981 3.181981 
C -2.338109 4.025852 -1.193414 4.5 0 4.5 
z
" id="m33c560431c" style="stroke:#d62628;"/>
    </defs>
    <g>
     <use style="fill:#d62628;stroke:#d62628;" x="622.1675" xlink:href="#m33c560431c" y="117.65"/>
    </g>
   </g>
   <g id="text_30">
    <!-- AM -->
    <g style="fill:#555555;" transform="translate(634.1675 121.85)scale(0.16 -0.16)">
     <use xlink:href="#Roboto-Bold-65"/>
     <use x="67.333984" xlink:href="#Roboto-Bold-77"/>
    </g>
   </g>
   <g id="PathCollection_42">
    <defs>
     <path d="M 0 4.5 
C 1.193414 4.5 2.338109 4.025852 3.181981 3.181981 
C 4.025852 2.338109 4.5 1.193414 4.5 0 
C 4.5 -1.193414 4.025852 -2.338109 3.181981 -3.181981 
C 2.338109 -4.025852 1.193414 -4.5 0 -4.5 
C -1.193414 -4.5 -2.338109 -4.025852 -3.181981 -3.181981 
C -4.025852 -2.338109 -4.5 -1.193414 -4.5 0 
C -4.5 1.193414 -4.025852 2.338109 -3.181981 3.181981 
C -2.338109 4.025852 -1.193414 4.5 0 4.5 
z
" id="m1ce5401bb2" style="stroke:#333333;"/>
    </defs>
    <g>
     <use style="fill:#333333;stroke:#333333;" x="622.1675" xlink:href="#m1ce5401bb2" y="156.15"/>
    </g>
   </g>
   <g id="text_31">
    <!-- L2/3 -->
    <g style="fill:#555555;" transform="translate(634.1675 160.35)scale(0.16 -0.16)">
     <defs>
      <path d="M 36.03125 71.09375 
L 9.859375 -6.109375 
L -0.640625 -6.109375 
L 25.53125 71.09375 
z
" id="Roboto-Bold-47"/>
      <path d="M 19.234375 30.765625 
L 19.234375 41.84375 
L 26.765625 41.84375 
Q 32.078125 41.84375 34.6875 44.5 
Q 37.3125 47.171875 37.3125 51.65625 
Q 37.3125 55.609375 34.9375 58.171875 
Q 32.5625 60.75 27.6875 60.75 
Q 23.828125 60.75 20.96875 58.59375 
Q 18.109375 56.453125 18.109375 52.6875 
L 4 52.6875 
Q 4 61.46875 10.78125 66.796875 
Q 17.578125 72.125 27.296875 72.125 
Q 38.09375 72.125 44.75 66.96875 
Q 51.421875 61.8125 51.421875 51.859375 
Q 51.421875 47.265625 48.578125 43.09375 
Q 45.75 38.921875 40.578125 36.53125 
Q 46.53125 34.421875 49.5 30.09375 
Q 52.484375 25.78125 52.484375 19.96875 
Q 52.484375 9.96875 45.28125 4.484375 
Q 38.09375 -0.984375 27.296875 -0.984375 
Q 21.296875 -0.984375 15.75 1.21875 
Q 10.203125 3.421875 6.65625 7.9375 
Q 3.125 12.453125 3.125 19.484375 
L 17.28125 19.484375 
Q 17.28125 15.53125 20.234375 12.96875 
Q 23.1875 10.40625 27.6875 10.40625 
Q 32.71875 10.40625 35.546875 13.078125 
Q 38.375 15.765625 38.375 20.171875 
Q 38.375 30.765625 26.65625 30.765625 
z
" id="Roboto-Bold-51"/>
     </defs>
     <use xlink:href="#Roboto-Bold-76"/>
     <use x="54.150391" xlink:href="#Roboto-Bold-50"/>
     <use x="111.523438" xlink:href="#Roboto-Bold-47"/>
     <use x="148.925781" xlink:href="#Roboto-Bold-51"/>
    </g>
   </g>
   <g id="PathCollection_43">
    <defs>
     <path d="M -4.5 4.5 
L 4.5 4.5 
L 4.5 -4.5 
L -4.5 -4.5 
z
" id="mea569e6a9e" style="stroke:#333333;"/>
    </defs>
    <g>
     <use style="fill:#333333;stroke:#333333;" x="622.1675" xlink:href="#mea569e6a9e" y="175.4"/>
    </g>
   </g>
   <g id="text_32">
    <!-- L4 -->
    <g style="fill:#555555;" transform="translate(634.1675 179.6)scale(0.16 -0.16)">
     <use xlink:href="#Roboto-Bold-76"/>
     <use x="54.150391" xlink:href="#Roboto-Bold-52"/>
    </g>
   </g>
   <g id="PathCollection_44">
    <defs>
     <path d="M 0 -4.5 
L -4.5 4.5 
L 4.5 4.5 
z
" id="me7bdedac89" style="stroke:#333333;"/>
    </defs>
    <g>
     <use style="fill:#333333;stroke:#333333;" x="622.1675" xlink:href="#me7bdedac89" y="194.65"/>
    </g>
   </g>
   <g id="text_33">
    <!-- L5 -->
    <g style="fill:#555555;" transform="translate(634.1675 198.85)scale(0.16 -0.16)">
     <use xlink:href="#Roboto-Bold-76"/>
     <use x="54.150391" xlink:href="#Roboto-Bold-53"/>
    </g>
   </g>
  </g>
 </g>
 <defs>
  <clipPath id="p516c533d54">
   <rect height="203.036735" width="213.296591" x="68.4075" y="16.48"/>
  </clipPath>
  <clipPath id="p7bb53de9df">
   <rect height="203.036735" width="213.296591" x="324.363409" y="16.48"/>
  </clipPath>
  <clipPath id="p2403a85651">
   <rect height="203.036735" width="213.296591" x="68.4075" y="310.883265"/>
  </clipPath>
  <clipPath id="pae4d351e79">
   <rect height="203.036735" width="213.296591" x="324.363409" y="310.883265"/>
  </clipPath>
 </defs>
</svg>
