<?xml version="1.0" encoding="utf-8" standalone="no"?>
<!DOCTYPE svg PUBLIC "-//W3C//DTD SVG 1.1//EN"
  "http://www.w3.org/Graphics/SVG/1.1/DTD/svg11.dtd">
<!-- Created with matplotlib (https://matplotlib.org/) -->
<svg height="628.49pt" version="1.1" viewBox="0 0 575.043215 628.49" width="575.043215pt" xmlns="http://www.w3.org/2000/svg" xmlns:xlink="http://www.w3.org/1999/xlink">
 <metadata>
  <rdf:RDF xmlns:cc="http://creativecommons.org/ns#" xmlns:dc="http://purl.org/dc/elements/1.1/" xmlns:rdf="http://www.w3.org/1999/02/22-rdf-syntax-ns#">
   <cc:Work>
    <dc:type rdf:resource="http://purl.org/dc/dcmitype/StillImage"/>
    <dc:date>2021-12-14T14:45:57.341812</dc:date>
    <dc:format>image/svg+xml</dc:format>
    <dc:creator>
     <cc:Agent>
      <dc:title>Matplotlib v3.3.4, https://matplotlib.org/</dc:title>
     </cc:Agent>
    </dc:creator>
   </cc:Work>
  </rdf:RDF>
 </metadata>
 <defs>
  <style type="text/css">*{stroke-linecap:butt;stroke-linejoin:round;}</style>
 </defs>
 <g id="figure_1">
  <g id="patch_1">
   <path d="M 0 628.49 
L 575.043215 628.49 
L 575.043215 0 
L 0 0 
z
" style="fill:none;"/>
  </g>
  <g id="axes_1">
   <g id="patch_2">
    <path d="M 68.8955 197.44 
L 164.642057 197.44 
L 164.642057 31.6 
L 68.8955 31.6 
z
" style="fill:#ffffff;"/>
   </g>
   <g id="matplotlib.axis_1"/>
   <g id="matplotlib.axis_2">
    <g id="ytick_1">
     <g id="line2d_1">
      <path clip-path="url(#pa5a8ddf6c1)" d="M 68.8955 197.44 
L 164.642057 197.44 
" style="fill:none;stroke:#eeeeee;stroke-linecap:square;stroke-width:0.8;"/>
     </g>
     <g id="line2d_2">
      <defs>
       <path d="M 0 0 
L -3.5 0 
" id="m9ad2a19bc7" style="stroke:#555555;stroke-width:0.8;"/>
      </defs>
      <g>
       <use style="fill:#555555;stroke:#555555;stroke-width:0.8;" x="68.8955" xlink:href="#m9ad2a19bc7" y="197.44"/>
      </g>
     </g>
     <g id="text_1">
      <!-- 0.50 -->
      <g style="fill:#555555;" transform="translate(29.698 203.44)scale(0.16 -0.16)">
       <defs>
        <path d="M 52.6875 29.4375 
Q 52.6875 13.375 46.09375 6.1875 
Q 39.5 -0.984375 28.75 -0.984375 
Q 18.015625 -0.984375 11.34375 6.1875 
Q 4.6875 13.375 4.6875 29.4375 
L 4.6875 41.796875 
Q 4.6875 57.8125 11.296875 64.9375 
Q 17.921875 72.078125 28.65625 72.078125 
Q 39.359375 72.078125 46 64.984375 
Q 52.640625 57.90625 52.6875 42.046875 
z
M 38.578125 43.75 
Q 38.578125 53.21875 35.984375 56.953125 
Q 33.40625 60.6875 28.65625 60.6875 
Q 24.03125 60.6875 21.4375 57.03125 
Q 18.84375 53.375 18.796875 44.140625 
L 18.796875 27.546875 
Q 18.796875 18.015625 21.40625 14.203125 
Q 24.03125 10.40625 28.765625 10.40625 
Q 33.40625 10.40625 35.96875 14.140625 
Q 38.53125 17.875 38.578125 27.15625 
z
" id="Roboto-Bold-48"/>
        <path d="M 6.15625 6.984375 
Q 6.15625 10.203125 8.328125 12.375 
Q 10.5 14.546875 14.15625 14.546875 
Q 17.828125 14.546875 19.96875 12.375 
Q 22.125 10.203125 22.125 6.984375 
Q 22.125 3.8125 19.96875 1.640625 
Q 17.828125 -0.53125 14.15625 -0.53125 
Q 10.5 -0.53125 8.328125 1.640625 
Q 6.15625 3.8125 6.15625 6.984375 
z
" id="Roboto-Bold-46"/>
        <path d="M 18.21875 32.234375 
L 6.984375 34.96875 
L 11.03125 71.09375 
L 50.875 71.09375 
L 50.875 59.375 
L 22.65625 59.375 
L 20.90625 44.046875 
Q 25.78125 46.734375 31.546875 46.734375 
Q 41.890625 46.734375 47.546875 40.421875 
Q 53.21875 34.125 53.21875 22.859375 
Q 53.21875 13.375 47.359375 6.1875 
Q 41.5 -0.984375 29.25 -0.984375 
Q 20.015625 -0.984375 12.71875 4.484375 
Q 5.421875 9.96875 5.171875 19.828125 
L 19.140625 19.828125 
Q 20.0625 10.40625 29.15625 10.40625 
Q 34.46875 10.40625 36.78125 14.234375 
Q 39.109375 18.0625 39.109375 23.640625 
Q 39.109375 29.25 36.328125 32.6875 
Q 33.546875 36.140625 27.6875 36.140625 
Q 23.828125 36.140625 21.71875 34.890625 
Q 19.625 33.640625 18.21875 32.234375 
z
" id="Roboto-Bold-53"/>
       </defs>
       <use xlink:href="#Roboto-Bold-48"/>
       <use x="57.373047" xlink:href="#Roboto-Bold-46"/>
       <use x="86.474609" xlink:href="#Roboto-Bold-53"/>
       <use x="143.847656" xlink:href="#Roboto-Bold-48"/>
      </g>
     </g>
    </g>
    <g id="ytick_2">
     <g id="line2d_3">
      <path clip-path="url(#pa5a8ddf6c1)" d="M 68.8955 117.709231 
L 164.642057 117.709231 
" style="fill:none;stroke:#eeeeee;stroke-linecap:square;stroke-width:0.8;"/>
     </g>
     <g id="line2d_4">
      <g>
       <use style="fill:#555555;stroke:#555555;stroke-width:0.8;" x="68.8955" xlink:href="#m9ad2a19bc7" y="117.709231"/>
      </g>
     </g>
     <g id="text_2">
      <!-- 0.75 -->
      <g style="fill:#555555;" transform="translate(29.698 123.709231)scale(0.16 -0.16)">
       <defs>
        <path d="M 53.21875 71.09375 
L 53.21875 63.234375 
L 25.734375 0 
L 10.84375 0 
L 38.328125 59.71875 
L 2.984375 59.71875 
L 2.984375 71.09375 
z
" id="Roboto-Bold-55"/>
       </defs>
       <use xlink:href="#Roboto-Bold-48"/>
       <use x="57.373047" xlink:href="#Roboto-Bold-46"/>
       <use x="86.474609" xlink:href="#Roboto-Bold-55"/>
       <use x="143.847656" xlink:href="#Roboto-Bold-53"/>
      </g>
     </g>
    </g>
    <g id="ytick_3">
     <g id="line2d_5">
      <path clip-path="url(#pa5a8ddf6c1)" d="M 68.8955 37.978462 
L 164.642057 37.978462 
" style="fill:none;stroke:#eeeeee;stroke-linecap:square;stroke-width:0.8;"/>
     </g>
     <g id="line2d_6">
      <g>
       <use style="fill:#555555;stroke:#555555;stroke-width:0.8;" x="68.8955" xlink:href="#m9ad2a19bc7" y="37.978462"/>
      </g>
     </g>
     <g id="text_3">
      <!-- 1.00 -->
      <g style="fill:#555555;" transform="translate(29.698 43.978462)scale(0.16 -0.16)">
       <defs>
        <path d="M 39.109375 71.1875 
L 39.109375 0 
L 25 0 
L 25 54.4375 
L 8.203125 49.21875 
L 8.203125 60.640625 
L 37.59375 71.1875 
z
" id="Roboto-Bold-49"/>
       </defs>
       <use xlink:href="#Roboto-Bold-49"/>
       <use x="57.373047" xlink:href="#Roboto-Bold-46"/>
       <use x="86.474609" xlink:href="#Roboto-Bold-48"/>
       <use x="143.847656" xlink:href="#Roboto-Bold-48"/>
      </g>
     </g>
    </g>
    <g id="text_4">
     <!-- performance -->
     <g style="fill:#555555;" transform="translate(21.798 170.0305)rotate(-90)scale(0.192 -0.192)">
      <defs>
       <path d="M 32.515625 -0.984375 
Q 24.609375 -0.984375 19.578125 4.640625 
L 19.578125 -20.3125 
L 5.421875 -20.3125 
L 5.421875 52.828125 
L 18.5625 52.828125 
L 19.09375 47.703125 
Q 24.125 53.8125 32.375 53.8125 
Q 42.4375 53.8125 47.734375 46.4375 
Q 53.03125 39.0625 53.03125 27 
L 53.03125 25.984375 
Q 53.03125 14.453125 47.734375 6.734375 
Q 42.4375 -0.984375 32.515625 -0.984375 
z
M 28.71875 42.390625 
Q 22.125 42.390625 19.578125 37.25 
L 19.578125 15.625 
Q 22.21875 10.40625 28.8125 10.40625 
Q 34.328125 10.40625 36.625 14.96875 
Q 38.921875 19.53125 38.921875 27 
Q 38.921875 33.546875 36.546875 37.96875 
Q 34.1875 42.390625 28.71875 42.390625 
z
" id="Roboto-Bold-112"/>
       <path d="M 50.390625 8.59375 
Q 47.859375 4.984375 42.671875 2 
Q 37.5 -0.984375 29.78125 -0.984375 
Q 17.484375 -0.984375 10.546875 6.46875 
Q 3.609375 13.921875 3.5625 24.46875 
L 3.5625 26.515625 
Q 3.5625 38.484375 10.21875 46.140625 
Q 16.890625 53.8125 28.21875 53.8125 
Q 39.59375 53.8125 45.546875 46.671875 
Q 51.515625 39.546875 51.515625 27.828125 
L 51.515625 21.828125 
L 17.875 21.828125 
Q 18.609375 16.703125 21.921875 13.546875 
Q 25.25 10.40625 30.671875 10.40625 
Q 38.71875 10.40625 43.40625 16.3125 
z
M 28.125 42.4375 
Q 23.640625 42.4375 21.1875 39.40625 
Q 18.75 36.375 18.015625 31.5 
L 37.640625 31.5 
L 37.640625 32.5625 
Q 37.546875 36.8125 35.28125 39.625 
Q 33.015625 42.4375 28.125 42.4375 
z
" id="Roboto-Bold-101"/>
       <path d="M 30.03125 40.046875 
Q 22.078125 40.046875 19.578125 34.625 
L 19.578125 0 
L 5.421875 0 
L 5.421875 52.828125 
L 18.75 52.828125 
L 19.1875 46.53125 
Q 23.34375 53.8125 30.953125 53.8125 
Q 33.640625 53.8125 35.296875 53.171875 
L 35.15625 39.65625 
z
" id="Roboto-Bold-114"/>
       <path d="M 33.9375 42.53125 
L 23.4375 42.53125 
L 23.4375 0 
L 9.28125 0 
L 9.28125 42.53125 
L 1.421875 42.53125 
L 1.421875 52.828125 
L 9.28125 52.828125 
L 9.28125 57.421875 
Q 9.28125 66.453125 14.5 71.234375 
Q 19.734375 76.03125 28.65625 76.03125 
Q 32.078125 76.03125 35.890625 75.046875 
L 35.75 64.109375 
Q 33.890625 64.546875 31.390625 64.546875 
Q 23.578125 64.546875 23.4375 57.671875 
L 23.4375 52.828125 
L 33.9375 52.828125 
z
" id="Roboto-Bold-102"/>
       <path d="M 3.21875 26.90625 
Q 3.21875 38.421875 9.765625 46.109375 
Q 16.3125 53.8125 28.21875 53.8125 
Q 40.28125 53.8125 46.765625 46.109375 
Q 53.265625 38.421875 53.265625 26.90625 
L 53.265625 25.875 
Q 53.265625 14.359375 46.765625 6.6875 
Q 40.28125 -0.984375 28.328125 -0.984375 
Q 16.453125 -0.984375 9.9375 6.484375 
Q 3.421875 13.96875 3.21875 25.25 
z
M 17.390625 25.875 
Q 17.390625 19.4375 19.84375 14.921875 
Q 22.3125 10.40625 28.328125 10.40625 
Q 34.234375 10.40625 36.6875 14.890625 
Q 39.15625 19.390625 39.15625 26.90625 
Q 39.15625 33.203125 36.6875 37.8125 
Q 34.234375 42.4375 28.21875 42.4375 
Q 22.265625 42.4375 19.828125 37.84375 
Q 17.390625 33.25 17.390625 25.875 
z
" id="Roboto-Bold-111"/>
       <path d="M 28.21875 42.390625 
Q 22.359375 42.390625 19.578125 37.40625 
L 19.578125 0 
L 5.421875 0 
L 5.421875 52.828125 
L 18.703125 52.828125 
L 19.1875 47.015625 
Q 24.703125 53.8125 34.328125 53.8125 
Q 44.53125 53.8125 48.34375 45.75 
Q 53.765625 53.8125 64.203125 53.8125 
Q 71.828125 53.8125 76.46875 49.3125 
Q 81.109375 44.828125 81.15625 33.890625 
L 81.15625 0 
L 67 0 
L 67 33.6875 
Q 67 38.96875 64.875 40.671875 
Q 62.75 42.390625 59.078125 42.390625 
Q 52.828125 42.390625 50.34375 36.46875 
L 50.34375 0 
L 36.234375 0 
L 36.234375 33.59375 
Q 36.234375 38.8125 34.078125 40.59375 
Q 31.9375 42.390625 28.21875 42.390625 
z
" id="Roboto-Bold-109"/>
       <path d="M 36.03125 0 
Q 35.15625 1.859375 34.625 4.734375 
Q 29.5 -0.984375 21.296875 -0.984375 
Q 13.71875 -0.984375 8.546875 3.484375 
Q 3.375 7.953125 3.375 14.84375 
Q 3.375 23.140625 9.515625 27.703125 
Q 15.671875 32.28125 27.734375 32.28125 
L 34.03125 32.28125 
L 34.03125 35.359375 
Q 34.03125 39.015625 32.15625 41.1875 
Q 30.28125 43.359375 26.21875 43.359375 
Q 18.65625 43.359375 18.65625 37.015625 
L 4.546875 37.015625 
Q 4.546875 43.890625 10.640625 48.84375 
Q 16.75 53.8125 27 53.8125 
Q 36.140625 53.8125 42.15625 49.171875 
Q 48.1875 44.53125 48.1875 35.25 
L 48.1875 11.71875 
Q 48.296875 4.6875 50.296875 0.828125 
L 50.296875 0 
z
M 24.359375 9.8125 
Q 27.9375 9.8125 30.4375 11.390625 
Q 32.953125 12.984375 34.03125 14.890625 
L 34.03125 24.078125 
L 28.265625 24.078125 
Q 22.65625 24.078125 20.0625 21.703125 
Q 17.484375 19.34375 17.484375 15.875 
Q 17.484375 13.234375 19.3125 11.515625 
Q 21.140625 9.8125 24.359375 9.8125 
z
" id="Roboto-Bold-97"/>
       <path d="M 28.21875 42.390625 
Q 22.21875 42.390625 19.28125 37.3125 
L 19.28125 0 
L 5.171875 0 
L 5.171875 52.828125 
L 18.40625 52.828125 
L 18.890625 46.78125 
Q 24.5625 53.8125 34.078125 53.8125 
Q 41.546875 53.8125 46.140625 49.359375 
Q 50.734375 44.921875 50.78125 33.890625 
L 50.78125 0 
L 36.625 0 
L 36.625 33.6875 
Q 36.625 38.765625 34.453125 40.578125 
Q 32.28125 42.390625 28.21875 42.390625 
z
" id="Roboto-Bold-110"/>
       <path d="M 27.390625 10.40625 
Q 31.25 10.40625 33.734375 12.53125 
Q 36.234375 14.65625 36.28125 18.265625 
L 49.5625 18.265625 
Q 49.46875 9.859375 43.140625 4.4375 
Q 36.8125 -0.984375 27.640625 -0.984375 
Q 15.375 -0.984375 9.296875 6.75 
Q 3.21875 14.5 3.21875 25.734375 
L 3.21875 27.09375 
Q 3.21875 38.28125 9.265625 46.046875 
Q 15.328125 53.8125 27.59375 53.8125 
Q 37.3125 53.8125 43.390625 48.234375 
Q 49.46875 42.671875 49.5625 33.15625 
L 36.28125 33.15625 
Q 36.234375 37.015625 33.9375 39.71875 
Q 31.640625 42.4375 27.34375 42.4375 
Q 21.1875 42.4375 19.28125 37.8125 
Q 17.390625 33.203125 17.390625 25.734375 
Q 17.390625 19.625 19.265625 15.015625 
Q 21.140625 10.40625 27.390625 10.40625 
z
" id="Roboto-Bold-99"/>
      </defs>
      <use xlink:href="#Roboto-Bold-112"/>
      <use x="56.298828" xlink:href="#Roboto-Bold-101"/>
      <use x="110.351562" xlink:href="#Roboto-Bold-114"/>
      <use x="146.875" xlink:href="#Roboto-Bold-102"/>
      <use x="182.714844" xlink:href="#Roboto-Bold-111"/>
      <use x="239.257812" xlink:href="#Roboto-Bold-114"/>
      <use x="275.78125" xlink:href="#Roboto-Bold-109"/>
      <use x="362.353516" xlink:href="#Roboto-Bold-97"/>
      <use x="415.966797" xlink:href="#Roboto-Bold-110"/>
      <use x="471.972656" xlink:href="#Roboto-Bold-99"/>
      <use x="524.169922" xlink:href="#Roboto-Bold-101"/>
     </g>
    </g>
   </g>
   <g id="patch_3">
    <path clip-path="url(#pa5a8ddf6c1)" d="M 78.470156 356.901538 
L 155.067401 356.901538 
L 155.067401 51.266923 
L 78.470156 51.266923 
z
" style="fill:#d3d3d3;"/>
   </g>
   <g id="patch_4">
    <path d="M 68.8955 197.44 
L 68.8955 31.6 
" style="fill:none;stroke:#555555;stroke-linecap:square;stroke-linejoin:miter;"/>
   </g>
   <g id="patch_5">
    <path d="M 68.8955 197.44 
L 164.642057 197.44 
" style="fill:none;stroke:#555555;stroke-linecap:square;stroke-linejoin:miter;"/>
   </g>
   <g id="PathCollection_1">
    <defs>
     <path d="M 0 4 
C 1.060812 4 2.078319 3.578535 2.828427 2.828427 
C 3.578535 2.078319 4 1.060812 4 -0 
C 4 -1.060812 3.578535 -2.078319 2.828427 -2.828427 
C 2.078319 -3.578535 1.060812 -4 0 -4 
C -1.060812 -4 -2.078319 -3.578535 -2.828427 -2.828427 
C -3.578535 -2.078319 -4 -1.060812 -4 0 
C -4 1.060812 -3.578535 2.078319 -2.828427 2.828427 
C -2.078319 3.578535 -1.060812 4 0 4 
z
" id="C0_0_c7778ac246"/>
    </defs>
    <g clip-path="url(#pa5a8ddf6c1)">
     <use x="116.768778" xlink:href="#C0_0_c7778ac246" y="61.897692"/>
    </g>
    <g clip-path="url(#pa5a8ddf6c1)">
     <use x="116.768778" xlink:href="#C0_0_c7778ac246" y="53.924615"/>
    </g>
    <g clip-path="url(#pa5a8ddf6c1)">
     <use x="116.768778" xlink:href="#C0_0_c7778ac246" y="37.978462"/>
    </g>
   </g>
   <g id="text_5">
    <!-- V1 -->
    <g style="fill:#555555;" transform="translate(104.984778 21.6)scale(0.192 -0.192)">
     <defs>
      <path d="M 65.09375 71.09375 
L 40.28125 0 
L 25.046875 0 
L 0.390625 71.09375 
L 16.609375 71.09375 
L 32.671875 17.671875 
L 48.78125 71.09375 
z
" id="Roboto-Bold-86"/>
     </defs>
     <use xlink:href="#Roboto-Bold-86"/>
     <use x="65.380859" xlink:href="#Roboto-Bold-49"/>
    </g>
   </g>
  </g>
  <g id="axes_2">
   <g id="patch_6">
    <path d="M 164.642057 197.44 
L 260.388614 197.44 
L 260.388614 31.6 
L 164.642057 31.6 
z
" style="fill:#ffffff;"/>
   </g>
   <g id="matplotlib.axis_3"/>
   <g id="matplotlib.axis_4">
    <g id="ytick_4">
     <g id="line2d_7">
      <path clip-path="url(#pc5f1bf2153)" d="M 164.642057 197.44 
L 260.388614 197.44 
" style="fill:none;stroke:#eeeeee;stroke-linecap:square;stroke-width:0.8;"/>
     </g>
    </g>
    <g id="ytick_5">
     <g id="line2d_8">
      <path clip-path="url(#pc5f1bf2153)" d="M 164.642057 117.709231 
L 260.388614 117.709231 
" style="fill:none;stroke:#eeeeee;stroke-linecap:square;stroke-width:0.8;"/>
     </g>
    </g>
    <g id="ytick_6">
     <g id="line2d_9">
      <path clip-path="url(#pc5f1bf2153)" d="M 164.642057 37.978462 
L 260.388614 37.978462 
" style="fill:none;stroke:#eeeeee;stroke-linecap:square;stroke-width:0.8;"/>
     </g>
    </g>
   </g>
   <g id="patch_7">
    <path clip-path="url(#pc5f1bf2153)" d="M 174.216713 356.901538 
L 250.813958 356.901538 
L 250.813958 45.951538 
L 174.216713 45.951538 
z
" style="fill:#d3d3d3;"/>
   </g>
   <g id="patch_8">
    <path d="M 164.642057 197.44 
L 260.388614 197.44 
" style="fill:none;stroke:#555555;stroke-linecap:square;stroke-linejoin:miter;"/>
   </g>
   <g id="PathCollection_2">
    <defs>
     <path d="M 0 4 
C 1.060812 4 2.078319 3.578535 2.828427 2.828427 
C 3.578535 2.078319 4 1.060812 4 -0 
C 4 -1.060812 3.578535 -2.078319 2.828427 -2.828427 
C 2.078319 -3.578535 1.060812 -4 0 -4 
C -1.060812 -4 -2.078319 -3.578535 -2.828427 -2.828427 
C -3.578535 -2.078319 -4 -1.060812 -4 0 
C -4 1.060812 -3.578535 2.078319 -2.828427 2.828427 
C -2.078319 3.578535 -1.060812 4 0 4 
z
" id="C1_0_8bda3f30a4"/>
    </defs>
    <g clip-path="url(#pc5f1bf2153)">
     <use x="212.515335" xlink:href="#C1_0_8bda3f30a4" y="61.897692"/>
    </g>
    <g clip-path="url(#pc5f1bf2153)">
     <use x="212.515335" xlink:href="#C1_0_8bda3f30a4" y="37.978462"/>
    </g>
    <g clip-path="url(#pc5f1bf2153)">
     <use x="202.713308" xlink:href="#C1_0_8bda3f30a4" y="37.978462"/>
    </g>
   </g>
   <g id="text_6">
    <!-- LM -->
    <g style="fill:#555555;" transform="translate(198.907335 21.6)scale(0.192 -0.192)">
     <defs>
      <path d="M 52.09375 11.8125 
L 52.09375 0 
L 6.34375 0 
L 6.34375 71.09375 
L 21.046875 71.09375 
L 21.046875 11.8125 
z
" id="Roboto-Bold-76"/>
      <path d="M 43.75 19.53125 
L 61.96875 71.09375 
L 81.15625 71.09375 
L 81.15625 0 
L 66.453125 0 
L 66.453125 19.4375 
L 67.921875 52.828125 
L 48.78125 0 
L 38.71875 0 
L 19.578125 52.828125 
L 21.046875 19.4375 
L 21.046875 0 
L 6.34375 0 
L 6.34375 71.09375 
L 25.53125 71.09375 
z
" id="Roboto-Bold-77"/>
     </defs>
     <use xlink:href="#Roboto-Bold-76"/>
     <use x="54.150391" xlink:href="#Roboto-Bold-77"/>
    </g>
   </g>
  </g>
  <g id="axes_3">
   <g id="patch_9">
    <path d="M 260.388614 197.44 
L 356.13517 197.44 
L 356.13517 31.6 
L 260.388614 31.6 
z
" style="fill:#ffffff;"/>
   </g>
   <g id="matplotlib.axis_5"/>
   <g id="matplotlib.axis_6">
    <g id="ytick_7">
     <g id="line2d_10">
      <path clip-path="url(#p292be4c590)" d="M 260.388614 197.44 
L 356.13517 197.44 
" style="fill:none;stroke:#eeeeee;stroke-linecap:square;stroke-width:0.8;"/>
     </g>
    </g>
    <g id="ytick_8">
     <g id="line2d_11">
      <path clip-path="url(#p292be4c590)" d="M 260.388614 117.709231 
L 356.13517 117.709231 
" style="fill:none;stroke:#eeeeee;stroke-linecap:square;stroke-width:0.8;"/>
     </g>
    </g>
    <g id="ytick_9">
     <g id="line2d_12">
      <path clip-path="url(#p292be4c590)" d="M 260.388614 37.978462 
L 356.13517 37.978462 
" style="fill:none;stroke:#eeeeee;stroke-linecap:square;stroke-width:0.8;"/>
     </g>
    </g>
   </g>
   <g id="patch_10">
    <path clip-path="url(#p292be4c590)" d="M 269.963269 356.901538 
L 346.560515 356.901538 
L 346.560515 61.011795 
L 269.963269 61.011795 
z
" style="fill:#d3d3d3;"/>
   </g>
   <g id="patch_11">
    <path d="M 260.388614 197.44 
L 356.13517 197.44 
" style="fill:none;stroke:#555555;stroke-linecap:square;stroke-linejoin:miter;"/>
   </g>
   <g id="PathCollection_3">
    <defs>
     <path d="M 0 4 
C 1.060812 4 2.078319 3.578535 2.828427 2.828427 
C 3.578535 2.078319 4 1.060812 4 -0 
C 4 -1.060812 3.578535 -2.078319 2.828427 -2.828427 
C 2.078319 -3.578535 1.060812 -4 0 -4 
C -1.060812 -4 -2.078319 -3.578535 -2.828427 -2.828427 
C -3.578535 -2.078319 -4 -1.060812 -4 0 
C -4 1.060812 -3.578535 2.078319 -2.828427 2.828427 
C -2.078319 3.578535 -1.060812 4 0 4 
z
" id="C2_0_28f5711933"/>
    </defs>
    <g clip-path="url(#p292be4c590)">
     <use x="308.261892" xlink:href="#C2_0_28f5711933" y="107.078462"/>
    </g>
    <g clip-path="url(#p292be4c590)">
     <use x="308.261892" xlink:href="#C2_0_28f5711933" y="37.978462"/>
    </g>
    <g clip-path="url(#p292be4c590)">
     <use x="298.459864" xlink:href="#C2_0_28f5711933" y="37.978462"/>
    </g>
   </g>
   <g id="text_7">
    <!-- AL -->
    <g style="fill:#555555;" transform="translate(296.599392 21.6)scale(0.192 -0.192)">
     <defs>
      <path d="M 0.390625 0 
L 26.859375 71.09375 
L 40.4375 71.09375 
L 67.046875 0 
L 51.421875 0 
L 46.53125 14.65625 
L 20.796875 14.65625 
L 15.921875 0 
z
M 24.75 26.515625 
L 42.578125 26.515625 
L 33.6875 53.21875 
z
" id="Roboto-Bold-65"/>
     </defs>
     <use xlink:href="#Roboto-Bold-65"/>
     <use x="67.333984" xlink:href="#Roboto-Bold-76"/>
    </g>
   </g>
  </g>
  <g id="axes_4">
   <g id="patch_12">
    <path d="M 356.13517 197.44 
L 451.881727 197.44 
L 451.881727 31.6 
L 356.13517 31.6 
z
" style="fill:#ffffff;"/>
   </g>
   <g id="matplotlib.axis_7"/>
   <g id="matplotlib.axis_8">
    <g id="ytick_10">
     <g id="line2d_13">
      <path clip-path="url(#p60280f4e20)" d="M 356.13517 197.44 
L 451.881727 197.44 
" style="fill:none;stroke:#eeeeee;stroke-linecap:square;stroke-width:0.8;"/>
     </g>
    </g>
    <g id="ytick_11">
     <g id="line2d_14">
      <path clip-path="url(#p60280f4e20)" d="M 356.13517 117.709231 
L 451.881727 117.709231 
" style="fill:none;stroke:#eeeeee;stroke-linecap:square;stroke-width:0.8;"/>
     </g>
    </g>
    <g id="ytick_12">
     <g id="line2d_15">
      <path clip-path="url(#p60280f4e20)" d="M 356.13517 37.978462 
L 451.881727 37.978462 
" style="fill:none;stroke:#eeeeee;stroke-linecap:square;stroke-width:0.8;"/>
     </g>
    </g>
   </g>
   <g id="patch_13">
    <path clip-path="url(#p60280f4e20)" d="M 365.709826 356.901538 
L 442.307072 356.901538 
L 442.307072 48.609231 
L 365.709826 48.609231 
z
" style="fill:#d3d3d3;"/>
   </g>
   <g id="patch_14">
    <path d="M 356.13517 197.44 
L 451.881727 197.44 
" style="fill:none;stroke:#555555;stroke-linecap:square;stroke-linejoin:miter;"/>
   </g>
   <g id="PathCollection_4">
    <defs>
     <path d="M 0 4 
C 1.060812 4 2.078319 3.578535 2.828427 2.828427 
C 3.578535 2.078319 4 1.060812 4 -0 
C 4 -1.060812 3.578535 -2.078319 2.828427 -2.828427 
C 2.078319 -3.578535 1.060812 -4 0 -4 
C -1.060812 -4 -2.078319 -3.578535 -2.828427 -2.828427 
C -3.578535 -2.078319 -4 -1.060812 -4 0 
C -4 1.060812 -3.578535 2.078319 -2.828427 2.828427 
C -2.078319 3.578535 -1.060812 4 0 4 
z
" id="C3_0_a11cc95ae9"/>
    </defs>
    <g clip-path="url(#p60280f4e20)">
     <use x="404.008449" xlink:href="#C3_0_a11cc95ae9" y="61.897692"/>
    </g>
    <g clip-path="url(#p60280f4e20)">
     <use x="404.008449" xlink:href="#C3_0_a11cc95ae9" y="45.951538"/>
    </g>
    <g clip-path="url(#p60280f4e20)">
     <use x="404.008449" xlink:href="#C3_0_a11cc95ae9" y="37.978462"/>
    </g>
   </g>
   <g id="text_8">
    <!-- PM -->
    <g style="fill:#555555;" transform="translate(389.402949 21.6)scale(0.192 -0.192)">
     <defs>
      <path d="M 21.046875 25.09375 
L 21.046875 0 
L 6.34375 0 
L 6.34375 71.09375 
L 34.125 71.09375 
Q 46.734375 71.09375 53.78125 64.453125 
Q 60.84375 57.8125 60.84375 47.609375 
Q 60.84375 37.3125 53.78125 31.203125 
Q 46.734375 25.09375 34.125 25.09375 
z
M 21.046875 59.234375 
L 21.046875 36.921875 
L 34.125 36.921875 
Q 40.4375 36.921875 43.21875 39.890625 
Q 46 42.875 46 47.515625 
Q 46 52.15625 43.21875 55.6875 
Q 40.4375 59.234375 34.125 59.234375 
z
" id="Roboto-Bold-80"/>
     </defs>
     <use xlink:href="#Roboto-Bold-80"/>
     <use x="64.550781" xlink:href="#Roboto-Bold-77"/>
    </g>
   </g>
  </g>
  <g id="axes_5">
   <g id="patch_15">
    <path d="M 451.881727 197.44 
L 547.628284 197.44 
L 547.628284 31.6 
L 451.881727 31.6 
z
" style="fill:#ffffff;"/>
   </g>
   <g id="matplotlib.axis_9"/>
   <g id="matplotlib.axis_10">
    <g id="ytick_13">
     <g id="line2d_16">
      <path clip-path="url(#pa4d98f0380)" d="M 451.881727 197.44 
L 547.628284 197.44 
" style="fill:none;stroke:#eeeeee;stroke-linecap:square;stroke-width:0.8;"/>
     </g>
    </g>
    <g id="ytick_14">
     <g id="line2d_17">
      <path clip-path="url(#pa4d98f0380)" d="M 451.881727 117.709231 
L 547.628284 117.709231 
" style="fill:none;stroke:#eeeeee;stroke-linecap:square;stroke-width:0.8;"/>
     </g>
    </g>
    <g id="ytick_15">
     <g id="line2d_18">
      <path clip-path="url(#pa4d98f0380)" d="M 451.881727 37.978462 
L 547.628284 37.978462 
" style="fill:none;stroke:#eeeeee;stroke-linecap:square;stroke-width:0.8;"/>
     </g>
    </g>
   </g>
   <g id="patch_16">
    <path clip-path="url(#pa4d98f0380)" d="M 461.456383 356.901538 
L 538.053628 356.901538 
L 538.053628 63.669487 
L 461.456383 63.669487 
z
" style="fill:#d3d3d3;"/>
   </g>
   <g id="patch_17">
    <path d="M 451.881727 197.44 
L 547.628284 197.44 
" style="fill:none;stroke:#555555;stroke-linecap:square;stroke-linejoin:miter;"/>
   </g>
   <g id="PathCollection_5">
    <defs>
     <path d="M 0 4 
C 1.060812 4 2.078319 3.578535 2.828427 2.828427 
C 3.578535 2.078319 4 1.060812 4 -0 
C 4 -1.060812 3.578535 -2.078319 2.828427 -2.828427 
C 2.078319 -3.578535 1.060812 -4 0 -4 
C -1.060812 -4 -2.078319 -3.578535 -2.828427 -2.828427 
C -3.578535 -2.078319 -4 -1.060812 -4 0 
C -4 1.060812 -3.578535 2.078319 -2.828427 2.828427 
C -2.078319 3.578535 -1.060812 4 0 4 
z
" id="C4_0_bfe15deb7f"/>
    </defs>
    <g clip-path="url(#pa4d98f0380)">
     <use x="499.755006" xlink:href="#C4_0_bfe15deb7f" y="77.843846"/>
    </g>
    <g clip-path="url(#pa4d98f0380)">
     <use x="499.755006" xlink:href="#C4_0_bfe15deb7f" y="67.213077"/>
    </g>
    <g clip-path="url(#pa4d98f0380)">
     <use x="499.755006" xlink:href="#C4_0_bfe15deb7f" y="45.951538"/>
    </g>
   </g>
   <g id="text_9">
    <!-- L2/3 -->
    <g style="fill:#555555;" transform="translate(553.443215 94.714)rotate(-270)scale(0.192 -0.192)">
     <defs>
      <path d="M 53.5625 11.375 
L 53.5625 0 
L 4.890625 0 
L 4.890625 9.671875 
L 27.875 34.1875 
Q 33.0625 39.890625 35.078125 43.625 
Q 37.109375 47.359375 37.109375 50.53125 
Q 37.109375 55.28125 34.734375 58.015625 
Q 32.375 60.75 27.9375 60.75 
Q 22.90625 60.75 20.234375 57.328125 
Q 17.578125 53.90625 17.578125 48.734375 
L 3.46875 48.734375 
Q 3.46875 58.34375 10.078125 65.234375 
Q 16.703125 72.125 28.171875 72.125 
Q 39.359375 72.125 45.3125 66.71875 
Q 51.265625 61.328125 51.265625 51.953125 
Q 51.265625 44.921875 47.09375 38.59375 
Q 42.921875 32.28125 35.6875 24.703125 
L 23 11.375 
z
" id="Roboto-Bold-50"/>
      <path d="M 36.03125 71.09375 
L 9.859375 -6.109375 
L -0.640625 -6.109375 
L 25.53125 71.09375 
z
" id="Roboto-Bold-47"/>
      <path d="M 19.234375 30.765625 
L 19.234375 41.84375 
L 26.765625 41.84375 
Q 32.078125 41.84375 34.6875 44.5 
Q 37.3125 47.171875 37.3125 51.65625 
Q 37.3125 55.609375 34.9375 58.171875 
Q 32.5625 60.75 27.6875 60.75 
Q 23.828125 60.75 20.96875 58.59375 
Q 18.109375 56.453125 18.109375 52.6875 
L 4 52.6875 
Q 4 61.46875 10.78125 66.796875 
Q 17.578125 72.125 27.296875 72.125 
Q 38.09375 72.125 44.75 66.96875 
Q 51.421875 61.8125 51.421875 51.859375 
Q 51.421875 47.265625 48.578125 43.09375 
Q 45.75 38.921875 40.578125 36.53125 
Q 46.53125 34.421875 49.5 30.09375 
Q 52.484375 25.78125 52.484375 19.96875 
Q 52.484375 9.96875 45.28125 4.484375 
Q 38.09375 -0.984375 27.296875 -0.984375 
Q 21.296875 -0.984375 15.75 1.21875 
Q 10.203125 3.421875 6.65625 7.9375 
Q 3.125 12.453125 3.125 19.484375 
L 17.28125 19.484375 
Q 17.28125 15.53125 20.234375 12.96875 
Q 23.1875 10.40625 27.6875 10.40625 
Q 32.71875 10.40625 35.546875 13.078125 
Q 38.375 15.765625 38.375 20.171875 
Q 38.375 30.765625 26.65625 30.765625 
z
" id="Roboto-Bold-51"/>
     </defs>
     <use xlink:href="#Roboto-Bold-76"/>
     <use x="54.150391" xlink:href="#Roboto-Bold-50"/>
     <use x="111.523438" xlink:href="#Roboto-Bold-47"/>
     <use x="148.925781" xlink:href="#Roboto-Bold-51"/>
    </g>
   </g>
   <g id="text_10">
    <!-- AM -->
    <g style="fill:#555555;" transform="translate(484.882506 21.6)scale(0.192 -0.192)">
     <use xlink:href="#Roboto-Bold-65"/>
     <use x="67.333984" xlink:href="#Roboto-Bold-77"/>
    </g>
   </g>
  </g>
  <g id="axes_6">
   <g id="patch_18">
    <path d="M 68.8955 404.74 
L 164.642057 404.74 
L 164.642057 238.9 
L 68.8955 238.9 
z
" style="fill:#ffffff;"/>
   </g>
   <g id="matplotlib.axis_11"/>
   <g id="matplotlib.axis_12">
    <g id="ytick_16">
     <g id="line2d_19">
      <path clip-path="url(#p364bd1d417)" d="M 68.8955 404.74 
L 164.642057 404.74 
" style="fill:none;stroke:#eeeeee;stroke-linecap:square;stroke-width:0.8;"/>
     </g>
     <g id="line2d_20">
      <g>
       <use style="fill:#555555;stroke:#555555;stroke-width:0.8;" x="68.8955" xlink:href="#m9ad2a19bc7" y="404.74"/>
      </g>
     </g>
     <g id="text_11">
      <!-- 0.50 -->
      <g style="fill:#555555;" transform="translate(29.698 410.74)scale(0.16 -0.16)">
       <use xlink:href="#Roboto-Bold-48"/>
       <use x="57.373047" xlink:href="#Roboto-Bold-46"/>
       <use x="86.474609" xlink:href="#Roboto-Bold-53"/>
       <use x="143.847656" xlink:href="#Roboto-Bold-48"/>
      </g>
     </g>
    </g>
    <g id="ytick_17">
     <g id="line2d_21">
      <path clip-path="url(#p364bd1d417)" d="M 68.8955 325.009231 
L 164.642057 325.009231 
" style="fill:none;stroke:#eeeeee;stroke-linecap:square;stroke-width:0.8;"/>
     </g>
     <g id="line2d_22">
      <g>
       <use style="fill:#555555;stroke:#555555;stroke-width:0.8;" x="68.8955" xlink:href="#m9ad2a19bc7" y="325.009231"/>
      </g>
     </g>
     <g id="text_12">
      <!-- 0.75 -->
      <g style="fill:#555555;" transform="translate(29.698 331.009231)scale(0.16 -0.16)">
       <use xlink:href="#Roboto-Bold-48"/>
       <use x="57.373047" xlink:href="#Roboto-Bold-46"/>
       <use x="86.474609" xlink:href="#Roboto-Bold-55"/>
       <use x="143.847656" xlink:href="#Roboto-Bold-53"/>
      </g>
     </g>
    </g>
    <g id="ytick_18">
     <g id="line2d_23">
      <path clip-path="url(#p364bd1d417)" d="M 68.8955 245.278462 
L 164.642057 245.278462 
" style="fill:none;stroke:#eeeeee;stroke-linecap:square;stroke-width:0.8;"/>
     </g>
     <g id="line2d_24">
      <g>
       <use style="fill:#555555;stroke:#555555;stroke-width:0.8;" x="68.8955" xlink:href="#m9ad2a19bc7" y="245.278462"/>
      </g>
     </g>
     <g id="text_13">
      <!-- 1.00 -->
      <g style="fill:#555555;" transform="translate(29.698 251.278462)scale(0.16 -0.16)">
       <use xlink:href="#Roboto-Bold-49"/>
       <use x="57.373047" xlink:href="#Roboto-Bold-46"/>
       <use x="86.474609" xlink:href="#Roboto-Bold-48"/>
       <use x="143.847656" xlink:href="#Roboto-Bold-48"/>
      </g>
     </g>
    </g>
   </g>
   <g id="patch_19">
    <path clip-path="url(#p364bd1d417)" d="M 78.470156 564.201538 
L 155.067401 564.201538 
L 155.067401 247.936154 
L 78.470156 247.936154 
z
" style="fill:#d3d3d3;"/>
   </g>
   <g id="patch_20">
    <path d="M 68.8955 404.74 
L 68.8955 238.9 
" style="fill:none;stroke:#555555;stroke-linecap:square;stroke-linejoin:miter;"/>
   </g>
   <g id="patch_21">
    <path d="M 68.8955 404.74 
L 164.642057 404.74 
" style="fill:none;stroke:#555555;stroke-linecap:square;stroke-linejoin:miter;"/>
   </g>
   <g id="PathCollection_6">
    <defs>
     <path d="M 0 4 
C 1.060812 4 2.078319 3.578535 2.828427 2.828427 
C 3.578535 2.078319 4 1.060812 4 -0 
C 4 -1.060812 3.578535 -2.078319 2.828427 -2.828427 
C 2.078319 -3.578535 1.060812 -4 0 -4 
C -1.060812 -4 -2.078319 -3.578535 -2.828427 -2.828427 
C -3.578535 -2.078319 -4 -1.060812 -4 0 
C -4 1.060812 -3.578535 2.078319 -2.828427 2.828427 
C -2.078319 3.578535 -1.060812 4 0 4 
z
" id="C5_0_4a34ea81a0"/>
    </defs>
    <g clip-path="url(#p364bd1d417)">
     <use x="116.768778" xlink:href="#C5_0_4a34ea81a0" y="253.251538"/>
    </g>
    <g clip-path="url(#p364bd1d417)">
     <use x="116.768778" xlink:href="#C5_0_4a34ea81a0" y="245.278462"/>
    </g>
    <g clip-path="url(#p364bd1d417)">
     <use x="106.966751" xlink:href="#C5_0_4a34ea81a0" y="245.278462"/>
    </g>
   </g>
  </g>
  <g id="axes_7">
   <g id="patch_22">
    <path d="M 164.642057 404.74 
L 260.388614 404.74 
L 260.388614 238.9 
L 164.642057 238.9 
z
" style="fill:#ffffff;"/>
   </g>
   <g id="matplotlib.axis_13"/>
   <g id="matplotlib.axis_14">
    <g id="ytick_19">
     <g id="line2d_25">
      <path clip-path="url(#p41f82b9f5c)" d="M 164.642057 404.74 
L 260.388614 404.74 
" style="fill:none;stroke:#eeeeee;stroke-linecap:square;stroke-width:0.8;"/>
     </g>
    </g>
    <g id="ytick_20">
     <g id="line2d_26">
      <path clip-path="url(#p41f82b9f5c)" d="M 164.642057 325.009231 
L 260.388614 325.009231 
" style="fill:none;stroke:#eeeeee;stroke-linecap:square;stroke-width:0.8;"/>
     </g>
    </g>
    <g id="ytick_21">
     <g id="line2d_27">
      <path clip-path="url(#p41f82b9f5c)" d="M 164.642057 245.278462 
L 260.388614 245.278462 
" style="fill:none;stroke:#eeeeee;stroke-linecap:square;stroke-width:0.8;"/>
     </g>
    </g>
   </g>
   <g id="patch_23">
    <path clip-path="url(#p41f82b9f5c)" d="M 174.216713 564.201538 
L 250.813958 564.201538 
L 250.813958 258.566923 
L 174.216713 258.566923 
z
" style="fill:#d3d3d3;"/>
   </g>
   <g id="patch_24">
    <path d="M 164.642057 404.74 
L 260.388614 404.74 
" style="fill:none;stroke:#555555;stroke-linecap:square;stroke-linejoin:miter;"/>
   </g>
   <g id="PathCollection_7">
    <defs>
     <path d="M 0 4 
C 1.060812 4 2.078319 3.578535 2.828427 2.828427 
C 3.578535 2.078319 4 1.060812 4 -0 
C 4 -1.060812 3.578535 -2.078319 2.828427 -2.828427 
C 2.078319 -3.578535 1.060812 -4 0 -4 
C -1.060812 -4 -2.078319 -3.578535 -2.828427 -2.828427 
C -3.578535 -2.078319 -4 -1.060812 -4 0 
C -4 1.060812 -3.578535 2.078319 -2.828427 2.828427 
C -2.078319 3.578535 -1.060812 4 0 4 
z
" id="C6_0_1648af1e48"/>
    </defs>
    <g clip-path="url(#p41f82b9f5c)">
     <use x="212.515335" xlink:href="#C6_0_1648af1e48" y="261.224615"/>
    </g>
    <g clip-path="url(#p41f82b9f5c)">
     <use x="202.713308" xlink:href="#C6_0_1648af1e48" y="261.224615"/>
    </g>
    <g clip-path="url(#p41f82b9f5c)">
     <use x="212.515335" xlink:href="#C6_0_1648af1e48" y="253.251538"/>
    </g>
   </g>
  </g>
  <g id="axes_8">
   <g id="patch_25">
    <path d="M 260.388614 404.74 
L 356.13517 404.74 
L 356.13517 238.9 
L 260.388614 238.9 
z
" style="fill:#ffffff;"/>
   </g>
   <g id="matplotlib.axis_15"/>
   <g id="matplotlib.axis_16">
    <g id="ytick_22">
     <g id="line2d_28">
      <path clip-path="url(#pc348add760)" d="M 260.388614 404.74 
L 356.13517 404.74 
" style="fill:none;stroke:#eeeeee;stroke-linecap:square;stroke-width:0.8;"/>
     </g>
    </g>
    <g id="ytick_23">
     <g id="line2d_29">
      <path clip-path="url(#pc348add760)" d="M 260.388614 325.009231 
L 356.13517 325.009231 
" style="fill:none;stroke:#eeeeee;stroke-linecap:square;stroke-width:0.8;"/>
     </g>
    </g>
    <g id="ytick_24">
     <g id="line2d_30">
      <path clip-path="url(#pc348add760)" d="M 260.388614 245.278462 
L 356.13517 245.278462 
" style="fill:none;stroke:#eeeeee;stroke-linecap:square;stroke-width:0.8;"/>
     </g>
    </g>
   </g>
   <g id="patch_26">
    <path clip-path="url(#pc348add760)" d="M 269.963269 564.201538 
L 346.560515 564.201538 
L 346.560515 265.654103 
L 269.963269 265.654103 
z
" style="fill:#d3d3d3;"/>
   </g>
   <g id="patch_27">
    <path d="M 260.388614 404.74 
L 356.13517 404.74 
" style="fill:none;stroke:#555555;stroke-linecap:square;stroke-linejoin:miter;"/>
   </g>
   <g id="PathCollection_8">
    <defs>
     <path d="M 0 4 
C 1.060812 4 2.078319 3.578535 2.828427 2.828427 
C 3.578535 2.078319 4 1.060812 4 -0 
C 4 -1.060812 3.578535 -2.078319 2.828427 -2.828427 
C 2.078319 -3.578535 1.060812 -4 0 -4 
C -1.060812 -4 -2.078319 -3.578535 -2.828427 -2.828427 
C -3.578535 -2.078319 -4 -1.060812 -4 0 
C -4 1.060812 -3.578535 2.078319 -2.828427 2.828427 
C -2.078319 3.578535 -1.060812 4 0 4 
z
" id="C7_0_fd49d92547"/>
    </defs>
    <g clip-path="url(#pc348add760)">
     <use x="308.261892" xlink:href="#C7_0_fd49d92547" y="274.513077"/>
    </g>
    <g clip-path="url(#pc348add760)">
     <use x="308.261892" xlink:href="#C7_0_fd49d92547" y="261.224615"/>
    </g>
    <g clip-path="url(#pc348add760)">
     <use x="298.459864" xlink:href="#C7_0_fd49d92547" y="261.224615"/>
    </g>
   </g>
  </g>
  <g id="axes_9">
   <g id="patch_28">
    <path d="M 356.13517 404.74 
L 451.881727 404.74 
L 451.881727 238.9 
L 356.13517 238.9 
z
" style="fill:#ffffff;"/>
   </g>
   <g id="matplotlib.axis_17"/>
   <g id="matplotlib.axis_18">
    <g id="ytick_25">
     <g id="line2d_31">
      <path clip-path="url(#pd53e4d068f)" d="M 356.13517 404.74 
L 451.881727 404.74 
" style="fill:none;stroke:#eeeeee;stroke-linecap:square;stroke-width:0.8;"/>
     </g>
    </g>
    <g id="ytick_26">
     <g id="line2d_32">
      <path clip-path="url(#pd53e4d068f)" d="M 356.13517 325.009231 
L 451.881727 325.009231 
" style="fill:none;stroke:#eeeeee;stroke-linecap:square;stroke-width:0.8;"/>
     </g>
    </g>
    <g id="ytick_27">
     <g id="line2d_33">
      <path clip-path="url(#pd53e4d068f)" d="M 356.13517 245.278462 
L 451.881727 245.278462 
" style="fill:none;stroke:#eeeeee;stroke-linecap:square;stroke-width:0.8;"/>
     </g>
    </g>
   </g>
   <g id="patch_29">
    <path clip-path="url(#pd53e4d068f)" d="M 365.709826 564.201538 
L 442.307072 564.201538 
L 442.307072 315.264359 
L 365.709826 315.264359 
z
" style="fill:#d3d3d3;"/>
   </g>
   <g id="patch_30">
    <path d="M 356.13517 404.74 
L 451.881727 404.74 
" style="fill:none;stroke:#555555;stroke-linecap:square;stroke-linejoin:miter;"/>
   </g>
   <g id="PathCollection_9">
    <defs>
     <path d="M 0 4 
C 1.060812 4 2.078319 3.578535 2.828427 2.828427 
C 3.578535 2.078319 4 1.060812 4 -0 
C 4 -1.060812 3.578535 -2.078319 2.828427 -2.828427 
C 2.078319 -3.578535 1.060812 -4 0 -4 
C -1.060812 -4 -2.078319 -3.578535 -2.828427 -2.828427 
C -3.578535 -2.078319 -4 -1.060812 -4 0 
C -4 1.060812 -3.578535 2.078319 -2.828427 2.828427 
C -2.078319 3.578535 -1.060812 4 0 4 
z
" id="C8_0_ba4444f970"/>
    </defs>
    <g clip-path="url(#pd53e4d068f)">
     <use x="404.008449" xlink:href="#C8_0_ba4444f970" y="356.901538"/>
    </g>
    <g clip-path="url(#pd53e4d068f)">
     <use x="404.008449" xlink:href="#C8_0_ba4444f970" y="322.351538"/>
    </g>
    <g clip-path="url(#pd53e4d068f)">
     <use x="404.008449" xlink:href="#C8_0_ba4444f970" y="266.54"/>
    </g>
   </g>
  </g>
  <g id="axes_10">
   <g id="patch_31">
    <path d="M 451.881727 404.74 
L 547.628284 404.74 
L 547.628284 238.9 
L 451.881727 238.9 
z
" style="fill:#ffffff;"/>
   </g>
   <g id="matplotlib.axis_19"/>
   <g id="matplotlib.axis_20">
    <g id="ytick_28">
     <g id="line2d_34">
      <path clip-path="url(#p5258f43c64)" d="M 451.881727 404.74 
L 547.628284 404.74 
" style="fill:none;stroke:#eeeeee;stroke-linecap:square;stroke-width:0.8;"/>
     </g>
    </g>
    <g id="ytick_29">
     <g id="line2d_35">
      <path clip-path="url(#p5258f43c64)" d="M 451.881727 325.009231 
L 547.628284 325.009231 
" style="fill:none;stroke:#eeeeee;stroke-linecap:square;stroke-width:0.8;"/>
     </g>
    </g>
    <g id="ytick_30">
     <g id="line2d_36">
      <path clip-path="url(#p5258f43c64)" d="M 451.881727 245.278462 
L 547.628284 245.278462 
" style="fill:none;stroke:#eeeeee;stroke-linecap:square;stroke-width:0.8;"/>
     </g>
    </g>
   </g>
   <g id="patch_32">
    <path clip-path="url(#p5258f43c64)" d="M 461.456383 564.201538 
L 538.053628 564.201538 
L 538.053628 355.129744 
L 461.456383 355.129744 
z
" style="fill:#d3d3d3;"/>
   </g>
   <g id="patch_33">
    <path d="M 451.881727 404.74 
L 547.628284 404.74 
" style="fill:none;stroke:#555555;stroke-linecap:square;stroke-linejoin:miter;"/>
   </g>
   <g id="PathCollection_10">
    <defs>
     <path d="M 0 4 
C 1.060812 4 2.078319 3.578535 2.828427 2.828427 
C 3.578535 2.078319 4 1.060812 4 -0 
C 4 -1.060812 3.578535 -2.078319 2.828427 -2.828427 
C 2.078319 -3.578535 1.060812 -4 0 -4 
C -1.060812 -4 -2.078319 -3.578535 -2.828427 -2.828427 
C -3.578535 -2.078319 -4 -1.060812 -4 0 
C -4 1.060812 -3.578535 2.078319 -2.828427 2.828427 
C -2.078319 3.578535 -1.060812 4 0 4 
z
" id="C9_0_ae85aa0933"/>
    </defs>
    <g clip-path="url(#p5258f43c64)">
     <use x="499.755006" xlink:href="#C9_0_ae85aa0933" y="380.820769"/>
    </g>
    <g clip-path="url(#p5258f43c64)">
     <use x="499.755006" xlink:href="#C9_0_ae85aa0933" y="343.613077"/>
    </g>
    <g clip-path="url(#p5258f43c64)">
     <use x="490.716215" xlink:href="#C9_0_ae85aa0933" y="340.955385"/>
    </g>
   </g>
   <g id="text_14">
    <!-- L4 -->
    <g style="fill:#555555;" transform="translate(553.443215 311.113)rotate(-270)scale(0.192 -0.192)">
     <defs>
      <path d="M 2.734375 24.265625 
L 32.375 71.09375 
L 46.625 71.09375 
L 46.625 26.765625 
L 54.6875 26.765625 
L 54.6875 15.375 
L 46.625 15.375 
L 46.625 0 
L 32.515625 0 
L 32.515625 15.375 
L 3.375 15.375 
z
M 16.75 26.765625 
L 32.515625 26.765625 
L 32.515625 52 
L 31.546875 50.296875 
z
" id="Roboto-Bold-52"/>
     </defs>
     <use xlink:href="#Roboto-Bold-76"/>
     <use x="54.150391" xlink:href="#Roboto-Bold-52"/>
    </g>
   </g>
  </g>
  <g id="axes_11">
   <g id="patch_34">
    <path d="M 68.8955 612.04 
L 164.642057 612.04 
L 164.642057 446.2 
L 68.8955 446.2 
z
" style="fill:#ffffff;"/>
   </g>
   <g id="matplotlib.axis_21"/>
   <g id="matplotlib.axis_22">
    <g id="ytick_31">
     <g id="line2d_37">
      <path clip-path="url(#pc420571b9e)" d="M 68.8955 612.04 
L 164.642057 612.04 
" style="fill:none;stroke:#eeeeee;stroke-linecap:square;stroke-width:0.8;"/>
     </g>
     <g id="line2d_38">
      <g>
       <use style="fill:#555555;stroke:#555555;stroke-width:0.8;" x="68.8955" xlink:href="#m9ad2a19bc7" y="612.04"/>
      </g>
     </g>
     <g id="text_15">
      <!-- 0.50 -->
      <g style="fill:#555555;" transform="translate(29.698 618.04)scale(0.16 -0.16)">
       <use xlink:href="#Roboto-Bold-48"/>
       <use x="57.373047" xlink:href="#Roboto-Bold-46"/>
       <use x="86.474609" xlink:href="#Roboto-Bold-53"/>
       <use x="143.847656" xlink:href="#Roboto-Bold-48"/>
      </g>
     </g>
    </g>
    <g id="ytick_32">
     <g id="line2d_39">
      <path clip-path="url(#pc420571b9e)" d="M 68.8955 532.309231 
L 164.642057 532.309231 
" style="fill:none;stroke:#eeeeee;stroke-linecap:square;stroke-width:0.8;"/>
     </g>
     <g id="line2d_40">
      <g>
       <use style="fill:#555555;stroke:#555555;stroke-width:0.8;" x="68.8955" xlink:href="#m9ad2a19bc7" y="532.309231"/>
      </g>
     </g>
     <g id="text_16">
      <!-- 0.75 -->
      <g style="fill:#555555;" transform="translate(29.698 538.309231)scale(0.16 -0.16)">
       <use xlink:href="#Roboto-Bold-48"/>
       <use x="57.373047" xlink:href="#Roboto-Bold-46"/>
       <use x="86.474609" xlink:href="#Roboto-Bold-55"/>
       <use x="143.847656" xlink:href="#Roboto-Bold-53"/>
      </g>
     </g>
    </g>
    <g id="ytick_33">
     <g id="line2d_41">
      <path clip-path="url(#pc420571b9e)" d="M 68.8955 452.578462 
L 164.642057 452.578462 
" style="fill:none;stroke:#eeeeee;stroke-linecap:square;stroke-width:0.8;"/>
     </g>
     <g id="line2d_42">
      <g>
       <use style="fill:#555555;stroke:#555555;stroke-width:0.8;" x="68.8955" xlink:href="#m9ad2a19bc7" y="452.578462"/>
      </g>
     </g>
     <g id="text_17">
      <!-- 1.00 -->
      <g style="fill:#555555;" transform="translate(29.698 458.578462)scale(0.16 -0.16)">
       <use xlink:href="#Roboto-Bold-49"/>
       <use x="57.373047" xlink:href="#Roboto-Bold-46"/>
       <use x="86.474609" xlink:href="#Roboto-Bold-48"/>
       <use x="143.847656" xlink:href="#Roboto-Bold-48"/>
      </g>
     </g>
    </g>
   </g>
   <g id="patch_35">
    <path clip-path="url(#pc420571b9e)" d="M 78.470156 771.501538 
L 155.067401 771.501538 
L 155.067401 479.155385 
L 78.470156 479.155385 
z
" style="fill:#d3d3d3;"/>
   </g>
   <g id="patch_36">
    <path d="M 68.8955 612.04 
L 68.8955 446.2 
" style="fill:none;stroke:#555555;stroke-linecap:square;stroke-linejoin:miter;"/>
   </g>
   <g id="patch_37">
    <path d="M 68.8955 612.04 
L 164.642057 612.04 
" style="fill:none;stroke:#555555;stroke-linecap:square;stroke-linejoin:miter;"/>
   </g>
   <g id="PathCollection_11">
    <defs>
     <path d="M 0 4 
C 1.060812 4 2.078319 3.578535 2.828427 2.828427 
C 3.578535 2.078319 4 1.060812 4 -0 
C 4 -1.060812 3.578535 -2.078319 2.828427 -2.828427 
C 2.078319 -3.578535 1.060812 -4 0 -4 
C -1.060812 -4 -2.078319 -3.578535 -2.828427 -2.828427 
C -3.578535 -2.078319 -4 -1.060812 -4 0 
C -4 1.060812 -3.578535 2.078319 -2.828427 2.828427 
C -2.078319 3.578535 -1.060812 4 0 4 
z
" id="Ca_0_f0e3be387e"/>
    </defs>
    <g clip-path="url(#pc420571b9e)">
     <use x="116.768778" xlink:href="#Ca_0_f0e3be387e" y="500.416923"/>
    </g>
    <g clip-path="url(#pc420571b9e)">
     <use x="116.768778" xlink:href="#Ca_0_f0e3be387e" y="468.524615"/>
    </g>
    <g clip-path="url(#pc420571b9e)">
     <use x="106.966751" xlink:href="#Ca_0_f0e3be387e" y="468.524615"/>
    </g>
   </g>
  </g>
  <g id="axes_12">
   <g id="patch_38">
    <path d="M 164.642057 612.04 
L 260.388614 612.04 
L 260.388614 446.2 
L 164.642057 446.2 
z
" style="fill:#ffffff;"/>
   </g>
   <g id="matplotlib.axis_23"/>
   <g id="matplotlib.axis_24">
    <g id="ytick_34">
     <g id="line2d_43">
      <path clip-path="url(#pe5e989d25a)" d="M 164.642057 612.04 
L 260.388614 612.04 
" style="fill:none;stroke:#eeeeee;stroke-linecap:square;stroke-width:0.8;"/>
     </g>
    </g>
    <g id="ytick_35">
     <g id="line2d_44">
      <path clip-path="url(#pe5e989d25a)" d="M 164.642057 532.309231 
L 260.388614 532.309231 
" style="fill:none;stroke:#eeeeee;stroke-linecap:square;stroke-width:0.8;"/>
     </g>
    </g>
    <g id="ytick_36">
     <g id="line2d_45">
      <path clip-path="url(#pe5e989d25a)" d="M 164.642057 452.578462 
L 260.388614 452.578462 
" style="fill:none;stroke:#eeeeee;stroke-linecap:square;stroke-width:0.8;"/>
     </g>
    </g>
   </g>
   <g id="patch_39">
    <path clip-path="url(#pe5e989d25a)" d="M 174.216713 771.501538 
L 250.813958 771.501538 
L 250.813958 465.866923 
L 174.216713 465.866923 
z
" style="fill:#d3d3d3;"/>
   </g>
   <g id="patch_40">
    <path d="M 164.642057 612.04 
L 260.388614 612.04 
" style="fill:none;stroke:#555555;stroke-linecap:square;stroke-linejoin:miter;"/>
   </g>
   <g id="PathCollection_12">
    <defs>
     <path d="M 0 4 
C 1.060812 4 2.078319 3.578535 2.828427 2.828427 
C 3.578535 2.078319 4 1.060812 4 -0 
C 4 -1.060812 3.578535 -2.078319 2.828427 -2.828427 
C 2.078319 -3.578535 1.060812 -4 0 -4 
C -1.060812 -4 -2.078319 -3.578535 -2.828427 -2.828427 
C -3.578535 -2.078319 -4 -1.060812 -4 0 
C -4 1.060812 -3.578535 2.078319 -2.828427 2.828427 
C -2.078319 3.578535 -1.060812 4 0 4 
z
" id="Cb_0_683119198e"/>
    </defs>
    <g clip-path="url(#pe5e989d25a)">
     <use x="212.515335" xlink:href="#Cb_0_683119198e" y="484.470769"/>
    </g>
    <g clip-path="url(#pe5e989d25a)">
     <use x="212.515335" xlink:href="#Cb_0_683119198e" y="460.551538"/>
    </g>
    <g clip-path="url(#pe5e989d25a)">
     <use x="212.515335" xlink:href="#Cb_0_683119198e" y="452.578462"/>
    </g>
   </g>
  </g>
  <g id="axes_13">
   <g id="patch_41">
    <path d="M 260.388614 612.04 
L 356.13517 612.04 
L 356.13517 446.2 
L 260.388614 446.2 
z
" style="fill:#ffffff;"/>
   </g>
   <g id="matplotlib.axis_25"/>
   <g id="matplotlib.axis_26">
    <g id="ytick_37">
     <g id="line2d_46">
      <path clip-path="url(#pffc3944a44)" d="M 260.388614 612.04 
L 356.13517 612.04 
" style="fill:none;stroke:#eeeeee;stroke-linecap:square;stroke-width:0.8;"/>
     </g>
    </g>
    <g id="ytick_38">
     <g id="line2d_47">
      <path clip-path="url(#pffc3944a44)" d="M 260.388614 532.309231 
L 356.13517 532.309231 
" style="fill:none;stroke:#eeeeee;stroke-linecap:square;stroke-width:0.8;"/>
     </g>
    </g>
    <g id="ytick_39">
     <g id="line2d_48">
      <path clip-path="url(#pffc3944a44)" d="M 260.388614 452.578462 
L 356.13517 452.578462 
" style="fill:none;stroke:#eeeeee;stroke-linecap:square;stroke-width:0.8;"/>
     </g>
    </g>
   </g>
   <g id="patch_42">
    <path clip-path="url(#pffc3944a44)" d="M 269.963269 771.501538 
L 346.560515 771.501538 
L 346.560515 476.497692 
L 269.963269 476.497692 
z
" style="fill:#d3d3d3;"/>
   </g>
   <g id="patch_43">
    <path d="M 260.388614 612.04 
L 356.13517 612.04 
" style="fill:none;stroke:#555555;stroke-linecap:square;stroke-linejoin:miter;"/>
   </g>
   <g id="PathCollection_13">
    <defs>
     <path d="M 0 4 
C 1.060812 4 2.078319 3.578535 2.828427 2.828427 
C 3.578535 2.078319 4 1.060812 4 -0 
C 4 -1.060812 3.578535 -2.078319 2.828427 -2.828427 
C 2.078319 -3.578535 1.060812 -4 0 -4 
C -1.060812 -4 -2.078319 -3.578535 -2.828427 -2.828427 
C -3.578535 -2.078319 -4 -1.060812 -4 0 
C -4 1.060812 -3.578535 2.078319 -2.828427 2.828427 
C -2.078319 3.578535 -1.060812 4 0 4 
z
" id="Cc_0_8b157d14ac"/>
    </defs>
    <g clip-path="url(#pffc3944a44)">
     <use x="308.261892" xlink:href="#Cc_0_8b157d14ac" y="484.470769"/>
    </g>
    <g clip-path="url(#pffc3944a44)">
     <use x="308.261892" xlink:href="#Cc_0_8b157d14ac" y="468.524615"/>
    </g>
   </g>
  </g>
  <g id="axes_14">
   <g id="patch_44">
    <path d="M 356.13517 612.04 
L 451.881727 612.04 
L 451.881727 446.2 
L 356.13517 446.2 
z
" style="fill:#ffffff;"/>
   </g>
   <g id="matplotlib.axis_27"/>
   <g id="matplotlib.axis_28">
    <g id="ytick_40">
     <g id="line2d_49">
      <path clip-path="url(#p6b06dfd1dc)" d="M 356.13517 612.04 
L 451.881727 612.04 
" style="fill:none;stroke:#eeeeee;stroke-linecap:square;stroke-width:0.8;"/>
     </g>
    </g>
    <g id="ytick_41">
     <g id="line2d_50">
      <path clip-path="url(#p6b06dfd1dc)" d="M 356.13517 532.309231 
L 451.881727 532.309231 
" style="fill:none;stroke:#eeeeee;stroke-linecap:square;stroke-width:0.8;"/>
     </g>
    </g>
    <g id="ytick_42">
     <g id="line2d_51">
      <path clip-path="url(#p6b06dfd1dc)" d="M 356.13517 452.578462 
L 451.881727 452.578462 
" style="fill:none;stroke:#eeeeee;stroke-linecap:square;stroke-width:0.8;"/>
     </g>
    </g>
   </g>
   <g id="patch_45">
    <path clip-path="url(#p6b06dfd1dc)" d="M 365.709826 771.501538 
L 442.307072 771.501538 
L 442.307072 485.356667 
L 365.709826 485.356667 
z
" style="fill:#d3d3d3;"/>
   </g>
   <g id="patch_46">
    <path d="M 356.13517 612.04 
L 451.881727 612.04 
" style="fill:none;stroke:#555555;stroke-linecap:square;stroke-linejoin:miter;"/>
   </g>
   <g id="PathCollection_14">
    <defs>
     <path d="M 0 4 
C 1.060812 4 2.078319 3.578535 2.828427 2.828427 
C 3.578535 2.078319 4 1.060812 4 -0 
C 4 -1.060812 3.578535 -2.078319 2.828427 -2.828427 
C 2.078319 -3.578535 1.060812 -4 0 -4 
C -1.060812 -4 -2.078319 -3.578535 -2.828427 -2.828427 
C -3.578535 -2.078319 -4 -1.060812 -4 0 
C -4 1.060812 -3.578535 2.078319 -2.828427 2.828427 
C -2.078319 3.578535 -1.060812 4 0 4 
z
" id="Cd_0_501fb0effa"/>
    </defs>
    <g clip-path="url(#p6b06dfd1dc)">
     <use x="404.008449" xlink:href="#Cd_0_501fb0effa" y="508.39"/>
    </g>
    <g clip-path="url(#p6b06dfd1dc)">
     <use x="404.008449" xlink:href="#Cd_0_501fb0effa" y="476.497692"/>
    </g>
    <g clip-path="url(#p6b06dfd1dc)">
     <use x="397.798801" xlink:href="#Cd_0_501fb0effa" y="471.182308"/>
    </g>
   </g>
  </g>
  <g id="axes_15">
   <g id="patch_47">
    <path d="M 451.881727 612.04 
L 547.628284 612.04 
L 547.628284 446.2 
L 451.881727 446.2 
z
" style="fill:#ffffff;"/>
   </g>
   <g id="matplotlib.axis_29"/>
   <g id="matplotlib.axis_30">
    <g id="ytick_43">
     <g id="line2d_52">
      <path clip-path="url(#p38aca8b032)" d="M 451.881727 612.04 
L 547.628284 612.04 
" style="fill:none;stroke:#eeeeee;stroke-linecap:square;stroke-width:0.8;"/>
     </g>
    </g>
    <g id="ytick_44">
     <g id="line2d_53">
      <path clip-path="url(#p38aca8b032)" d="M 451.881727 532.309231 
L 547.628284 532.309231 
" style="fill:none;stroke:#eeeeee;stroke-linecap:square;stroke-width:0.8;"/>
     </g>
    </g>
    <g id="ytick_45">
     <g id="line2d_54">
      <path clip-path="url(#p38aca8b032)" d="M 451.881727 452.578462 
L 547.628284 452.578462 
" style="fill:none;stroke:#eeeeee;stroke-linecap:square;stroke-width:0.8;"/>
     </g>
    </g>
   </g>
   <g id="patch_48">
    <path clip-path="url(#p38aca8b032)" d="M 461.456383 771.501538 
L 538.053628 771.501538 
L 538.053628 481.813077 
L 461.456383 481.813077 
z
" style="fill:#d3d3d3;"/>
   </g>
   <g id="patch_49">
    <path d="M 451.881727 612.04 
L 547.628284 612.04 
" style="fill:none;stroke:#555555;stroke-linecap:square;stroke-linejoin:miter;"/>
   </g>
   <g id="PathCollection_15">
    <defs>
     <path d="M 0 4 
C 1.060812 4 2.078319 3.578535 2.828427 2.828427 
C 3.578535 2.078319 4 1.060812 4 -0 
C 4 -1.060812 3.578535 -2.078319 2.828427 -2.828427 
C 2.078319 -3.578535 1.060812 -4 0 -4 
C -1.060812 -4 -2.078319 -3.578535 -2.828427 -2.828427 
C -3.578535 -2.078319 -4 -1.060812 -4 0 
C -4 1.060812 -3.578535 2.078319 -2.828427 2.828427 
C -2.078319 3.578535 -1.060812 4 0 4 
z
" id="Ce_0_200f2193ba"/>
    </defs>
    <g clip-path="url(#p38aca8b032)">
     <use x="499.755006" xlink:href="#Ce_0_200f2193ba" y="492.443846"/>
    </g>
    <g clip-path="url(#p38aca8b032)">
     <use x="489.952978" xlink:href="#Ce_0_200f2193ba" y="492.443846"/>
    </g>
    <g clip-path="url(#p38aca8b032)">
     <use x="499.755006" xlink:href="#Ce_0_200f2193ba" y="460.551538"/>
    </g>
   </g>
   <g id="text_18">
    <!-- L5 -->
    <g style="fill:#555555;" transform="translate(553.443215 518.413)rotate(-270)scale(0.192 -0.192)">
     <use xlink:href="#Roboto-Bold-76"/>
     <use x="54.150391" xlink:href="#Roboto-Bold-53"/>
    </g>
   </g>
  </g>
 </g>
 <defs>
  <clipPath id="pa5a8ddf6c1">
   <rect height="165.84" width="95.746557" x="68.8955" y="31.6"/>
  </clipPath>
  <clipPath id="pc5f1bf2153">
   <rect height="165.84" width="95.746557" x="164.642057" y="31.6"/>
  </clipPath>
  <clipPath id="p292be4c590">
   <rect height="165.84" width="95.746557" x="260.388614" y="31.6"/>
  </clipPath>
  <clipPath id="p60280f4e20">
   <rect height="165.84" width="95.746557" x="356.13517" y="31.6"/>
  </clipPath>
  <clipPath id="pa4d98f0380">
   <rect height="165.84" width="95.746557" x="451.881727" y="31.6"/>
  </clipPath>
  <clipPath id="p364bd1d417">
   <rect height="165.84" width="95.746557" x="68.8955" y="238.9"/>
  </clipPath>
  <clipPath id="p41f82b9f5c">
   <rect height="165.84" width="95.746557" x="164.642057" y="238.9"/>
  </clipPath>
  <clipPath id="pc348add760">
   <rect height="165.84" width="95.746557" x="260.388614" y="238.9"/>
  </clipPath>
  <clipPath id="pd53e4d068f">
   <rect height="165.84" width="95.746557" x="356.13517" y="238.9"/>
  </clipPath>
  <clipPath id="p5258f43c64">
   <rect height="165.84" width="95.746557" x="451.881727" y="238.9"/>
  </clipPath>
  <clipPath id="pc420571b9e">
   <rect height="165.84" width="95.746557" x="68.8955" y="446.2"/>
  </clipPath>
  <clipPath id="pe5e989d25a">
   <rect height="165.84" width="95.746557" x="164.642057" y="446.2"/>
  </clipPath>
  <clipPath id="pffc3944a44">
   <rect height="165.84" width="95.746557" x="260.388614" y="446.2"/>
  </clipPath>
  <clipPath id="p6b06dfd1dc">
   <rect height="165.84" width="95.746557" x="356.13517" y="446.2"/>
  </clipPath>
  <clipPath id="p38aca8b032">
   <rect height="165.84" width="95.746557" x="451.881727" y="446.2"/>
  </clipPath>
 </defs>
</svg>
