<?xml version="1.0" encoding="utf-8" standalone="no"?>
<!DOCTYPE svg PUBLIC "-//W3C//DTD SVG 1.1//EN"
  "http://www.w3.org/Graphics/SVG/1.1/DTD/svg11.dtd">
<!-- Created with matplotlib (https://matplotlib.org/) -->
<svg height="489.975pt" version="1.1" viewBox="0 0 889.88 489.975" width="889.88pt" xmlns="http://www.w3.org/2000/svg" xmlns:xlink="http://www.w3.org/1999/xlink">
 <metadata>
  <rdf:RDF xmlns:cc="http://creativecommons.org/ns#" xmlns:dc="http://purl.org/dc/elements/1.1/" xmlns:rdf="http://www.w3.org/1999/02/22-rdf-syntax-ns#">
   <cc:Work>
    <dc:type rdf:resource="http://purl.org/dc/dcmitype/StillImage"/>
    <dc:date>2021-12-14T13:25:47.728575</dc:date>
    <dc:format>image/svg+xml</dc:format>
    <dc:creator>
     <cc:Agent>
      <dc:title>Matplotlib v3.3.4, https://matplotlib.org/</dc:title>
     </cc:Agent>
    </dc:creator>
   </cc:Work>
  </rdf:RDF>
 </metadata>
 <defs>
  <style type="text/css">*{stroke-linecap:butt;stroke-linejoin:round;}</style>
 </defs>
 <g id="figure_1">
  <g id="patch_1">
   <path d="M 0 489.975 
L 889.88 489.975 
L 889.88 0 
L 0 0 
z
" style="fill:none;"/>
  </g>
  <g id="axes_1">
   <g id="patch_2">
    <path d="M 45.68 127.767568 
L 882.68 127.767568 
L 882.68 13.2 
L 45.68 13.2 
z
" style="fill:#ffffff;"/>
   </g>
   <g id="matplotlib.axis_1">
    <g id="xtick_1">
     <g id="line2d_1">
      <defs>
       <path d="M 0 0 
L 0 3.5 
" id="m8beec3dbb0" style="stroke:#555555;stroke-width:0.8;"/>
      </defs>
      <g>
       <use style="fill:#555555;stroke:#555555;stroke-width:0.8;" x="83.725455" xlink:href="#m8beec3dbb0" y="127.767568"/>
      </g>
     </g>
    </g>
    <g id="xtick_2">
     <g id="line2d_2">
      <g>
       <use style="fill:#555555;stroke:#555555;stroke-width:0.8;" x="210.684702" xlink:href="#m8beec3dbb0" y="127.767568"/>
      </g>
     </g>
    </g>
    <g id="xtick_3">
     <g id="line2d_3">
      <g>
       <use style="fill:#555555;stroke:#555555;stroke-width:0.8;" x="337.64395" xlink:href="#m8beec3dbb0" y="127.767568"/>
      </g>
     </g>
    </g>
    <g id="xtick_4">
     <g id="line2d_4">
      <g>
       <use style="fill:#555555;stroke:#555555;stroke-width:0.8;" x="464.603197" xlink:href="#m8beec3dbb0" y="127.767568"/>
      </g>
     </g>
    </g>
    <g id="xtick_5">
     <g id="line2d_5">
      <g>
       <use style="fill:#555555;stroke:#555555;stroke-width:0.8;" x="591.562445" xlink:href="#m8beec3dbb0" y="127.767568"/>
      </g>
     </g>
    </g>
    <g id="xtick_6">
     <g id="line2d_6">
      <g>
       <use style="fill:#555555;stroke:#555555;stroke-width:0.8;" x="718.521693" xlink:href="#m8beec3dbb0" y="127.767568"/>
      </g>
     </g>
    </g>
    <g id="xtick_7">
     <g id="line2d_7">
      <g>
       <use style="fill:#555555;stroke:#555555;stroke-width:0.8;" x="845.48094" xlink:href="#m8beec3dbb0" y="127.767568"/>
      </g>
     </g>
    </g>
   </g>
   <g id="matplotlib.axis_2">
    <g id="ytick_1">
     <g id="line2d_8">
      <path clip-path="url(#p9bc97b315f)" d="M 45.68 127.767568 
L 882.68 127.767568 
" style="fill:none;stroke:#eeeeee;stroke-linecap:square;stroke-width:0.8;"/>
     </g>
     <g id="line2d_9">
      <defs>
       <path d="M 0 0 
L -3.5 0 
" id="m0366c2bb20" style="stroke:#555555;stroke-width:0.8;"/>
      </defs>
      <g>
       <use style="fill:#555555;stroke:#555555;stroke-width:0.8;" x="45.68" xlink:href="#m0366c2bb20" y="127.767568"/>
      </g>
     </g>
     <g id="text_1">
      <!-- 0 -->
      <g style="fill:#555555;" transform="translate(29.5 133.767568)scale(0.16 -0.16)">
       <defs>
        <path d="M 52.6875 29.4375 
Q 52.6875 13.375 46.09375 6.1875 
Q 39.5 -0.984375 28.75 -0.984375 
Q 18.015625 -0.984375 11.34375 6.1875 
Q 4.6875 13.375 4.6875 29.4375 
L 4.6875 41.796875 
Q 4.6875 57.8125 11.296875 64.9375 
Q 17.921875 72.078125 28.65625 72.078125 
Q 39.359375 72.078125 46 64.984375 
Q 52.640625 57.90625 52.6875 42.046875 
z
M 38.578125 43.75 
Q 38.578125 53.21875 35.984375 56.953125 
Q 33.40625 60.6875 28.65625 60.6875 
Q 24.03125 60.6875 21.4375 57.03125 
Q 18.84375 53.375 18.796875 44.140625 
L 18.796875 27.546875 
Q 18.796875 18.015625 21.40625 14.203125 
Q 24.03125 10.40625 28.765625 10.40625 
Q 33.40625 10.40625 35.96875 14.140625 
Q 38.53125 17.875 38.578125 27.15625 
z
" id="Roboto-Bold-48"/>
       </defs>
       <use xlink:href="#Roboto-Bold-48"/>
      </g>
     </g>
    </g>
    <g id="ytick_2">
     <g id="line2d_10">
      <path clip-path="url(#p9bc97b315f)" d="M 45.68 89.578378 
L 882.68 89.578378 
" style="fill:none;stroke:#eeeeee;stroke-linecap:square;stroke-width:0.8;"/>
     </g>
     <g id="line2d_11">
      <g>
       <use style="fill:#555555;stroke:#555555;stroke-width:0.8;" x="45.68" xlink:href="#m0366c2bb20" y="89.578378"/>
      </g>
     </g>
     <g id="text_2">
      <!-- 2 -->
      <g style="fill:#555555;" transform="translate(29.5 95.578378)scale(0.16 -0.16)">
       <defs>
        <path d="M 53.5625 11.375 
L 53.5625 0 
L 4.890625 0 
L 4.890625 9.671875 
L 27.875 34.1875 
Q 33.0625 39.890625 35.078125 43.625 
Q 37.109375 47.359375 37.109375 50.53125 
Q 37.109375 55.28125 34.734375 58.015625 
Q 32.375 60.75 27.9375 60.75 
Q 22.90625 60.75 20.234375 57.328125 
Q 17.578125 53.90625 17.578125 48.734375 
L 3.46875 48.734375 
Q 3.46875 58.34375 10.078125 65.234375 
Q 16.703125 72.125 28.171875 72.125 
Q 39.359375 72.125 45.3125 66.71875 
Q 51.265625 61.328125 51.265625 51.953125 
Q 51.265625 44.921875 47.09375 38.59375 
Q 42.921875 32.28125 35.6875 24.703125 
L 23 11.375 
z
" id="Roboto-Bold-50"/>
       </defs>
       <use xlink:href="#Roboto-Bold-50"/>
      </g>
     </g>
    </g>
    <g id="ytick_3">
     <g id="line2d_12">
      <path clip-path="url(#p9bc97b315f)" d="M 45.68 51.389189 
L 882.68 51.389189 
" style="fill:none;stroke:#eeeeee;stroke-linecap:square;stroke-width:0.8;"/>
     </g>
     <g id="line2d_13">
      <g>
       <use style="fill:#555555;stroke:#555555;stroke-width:0.8;" x="45.68" xlink:href="#m0366c2bb20" y="51.389189"/>
      </g>
     </g>
     <g id="text_3">
      <!-- 4 -->
      <g style="fill:#555555;" transform="translate(29.5 57.389189)scale(0.16 -0.16)">
       <defs>
        <path d="M 2.734375 24.265625 
L 32.375 71.09375 
L 46.625 71.09375 
L 46.625 26.765625 
L 54.6875 26.765625 
L 54.6875 15.375 
L 46.625 15.375 
L 46.625 0 
L 32.515625 0 
L 32.515625 15.375 
L 3.375 15.375 
z
M 16.75 26.765625 
L 32.515625 26.765625 
L 32.515625 52 
L 31.546875 50.296875 
z
" id="Roboto-Bold-52"/>
       </defs>
       <use xlink:href="#Roboto-Bold-52"/>
      </g>
     </g>
    </g>
    <g id="ytick_4">
     <g id="line2d_14">
      <path clip-path="url(#p9bc97b315f)" d="M 45.68 13.2 
L 882.68 13.2 
" style="fill:none;stroke:#eeeeee;stroke-linecap:square;stroke-width:0.8;"/>
     </g>
     <g id="line2d_15">
      <g>
       <use style="fill:#555555;stroke:#555555;stroke-width:0.8;" x="45.68" xlink:href="#m0366c2bb20" y="13.2"/>
      </g>
     </g>
     <g id="text_4">
      <!-- 6 -->
      <g style="fill:#555555;" transform="translate(29.5 19.2)scale(0.16 -0.16)">
       <defs>
        <path d="M 53.90625 23.4375 
Q 53.90625 13.09375 47.390625 6.046875 
Q 40.875 -0.984375 29.9375 -0.984375 
Q 18.5625 -0.984375 11.75 6.921875 
Q 4.9375 14.84375 4.9375 27.34375 
L 4.9375 32.765625 
Q 4.9375 50 14.453125 60.90625 
Q 23.96875 71.828125 41.15625 71.828125 
L 43.171875 71.828125 
L 43.171875 60.203125 
L 41.75 60.203125 
Q 32.03125 60.0625 26.375 55.28125 
Q 20.515625 50.296875 19.34375 41.796875 
Q 25.046875 47.609375 33.6875 47.609375 
Q 43.75 47.609375 48.828125 40.453125 
Q 53.90625 33.296875 53.90625 23.4375 
z
M 19.046875 25.484375 
Q 19.046875 17.96875 22 14.203125 
Q 24.953125 10.453125 29.6875 10.453125 
Q 34.28125 10.453125 37.03125 14.078125 
Q 39.796875 17.71875 39.796875 23.296875 
Q 39.796875 28.953125 37.03125 32.609375 
Q 34.28125 36.28125 29.390625 36.28125 
Q 25.640625 36.28125 22.953125 34.34375 
Q 20.265625 32.421875 19.046875 29.734375 
z
" id="Roboto-Bold-54"/>
       </defs>
       <use xlink:href="#Roboto-Bold-54"/>
      </g>
     </g>
    </g>
    <g id="text_5">
     <!-- A.U. -->
     <g style="fill:#555555;" transform="translate(21.6 88.855784)rotate(-90)scale(0.192 -0.192)">
      <defs>
       <path d="M 0.390625 0 
L 26.859375 71.09375 
L 40.4375 71.09375 
L 67.046875 0 
L 51.421875 0 
L 46.53125 14.65625 
L 20.796875 14.65625 
L 15.921875 0 
z
M 24.75 26.515625 
L 42.578125 26.515625 
L 33.6875 53.21875 
z
" id="Roboto-Bold-65"/>
       <path d="M 6.15625 6.984375 
Q 6.15625 10.203125 8.328125 12.375 
Q 10.5 14.546875 14.15625 14.546875 
Q 17.828125 14.546875 19.96875 12.375 
Q 22.125 10.203125 22.125 6.984375 
Q 22.125 3.8125 19.96875 1.640625 
Q 17.828125 -0.53125 14.15625 -0.53125 
Q 10.5 -0.53125 8.328125 1.640625 
Q 6.15625 3.8125 6.15625 6.984375 
z
" id="Roboto-Bold-46"/>
       <path d="M 45.515625 71.09375 
L 60.203125 71.09375 
L 60.203125 24.21875 
Q 60.203125 11.8125 52.484375 5.40625 
Q 44.78125 -0.984375 32.953125 -0.984375 
Q 21 -0.984375 13.328125 5.40625 
Q 5.671875 11.8125 5.671875 24.21875 
L 5.671875 71.09375 
L 20.359375 71.09375 
L 20.359375 24.21875 
Q 20.359375 17.1875 23.703125 14.015625 
Q 27.046875 10.84375 32.953125 10.84375 
Q 45.21875 10.84375 45.515625 23.578125 
z
" id="Roboto-Bold-85"/>
      </defs>
      <use xlink:href="#Roboto-Bold-65"/>
      <use x="67.333984" xlink:href="#Roboto-Bold-46"/>
      <use x="96.435547" xlink:href="#Roboto-Bold-85"/>
      <use x="162.255859" xlink:href="#Roboto-Bold-46"/>
     </g>
    </g>
   </g>
   <g id="line2d_16">
    <path clip-path="url(#p9bc97b315f)" d="M 83.725455 112.301843 
L 84.57185 101.139061 
L 85.418245 84.805066 
L 86.264639 74.014537 
L 87.111034 70.074098 
L 87.957429 69.754592 
L 88.803824 71.107891 
L 90.496614 75.765367 
L 93.882194 85.696275 
L 95.574984 90.116742 
L 98.114169 95.889564 
L 100.653354 100.782436 
L 103.192539 104.925014 
L 105.731724 108.431745 
L 108.270909 111.400145 
L 109.117304 112.276045 
L 109.963699 101.139061 
L 110.810094 84.805066 
L 111.656489 74.014537 
L 112.502884 70.074098 
L 113.349279 69.754592 
L 114.195674 71.107891 
L 115.888464 75.765367 
L 119.274044 85.696275 
L 120.966834 90.116742 
L 123.506019 95.889564 
L 126.045204 100.782436 
L 128.584389 104.925014 
L 131.123574 108.431745 
L 133.662759 111.400145 
L 134.509154 112.276045 
L 135.355549 101.139061 
L 136.201944 84.805066 
L 137.048339 74.014537 
L 137.894734 70.074098 
L 138.741129 69.754592 
L 139.587524 71.107891 
L 141.280313 75.765367 
L 144.665893 85.696275 
L 146.358683 90.116742 
L 148.897868 95.889564 
L 151.437053 100.782436 
L 153.976238 104.925014 
L 156.515423 108.431745 
L 159.054608 111.400145 
L 159.901003 112.276045 
L 160.747398 101.139061 
L 161.593793 84.805066 
L 162.440188 74.014537 
L 163.286583 70.074098 
L 164.132978 69.754592 
L 164.979373 71.107891 
L 166.672163 75.765367 
L 170.057743 85.696275 
L 171.750533 90.116742 
L 174.289718 95.889564 
L 176.828903 100.782436 
L 179.368088 104.925014 
L 181.907273 108.431745 
L 184.446458 111.400145 
L 185.292853 112.276045 
L 186.139248 101.139061 
L 186.985643 84.805066 
L 187.832038 74.014537 
L 188.678433 70.074098 
L 189.524828 69.754592 
L 190.371223 71.107891 
L 192.064013 75.765367 
L 195.449592 85.696275 
L 197.142382 90.116742 
L 199.681567 95.889564 
L 202.220752 100.782436 
L 204.759937 104.925014 
L 207.299122 108.431745 
L 209.838307 111.400145 
L 210.684702 112.276045 
L 211.531097 101.139061 
L 212.377492 84.805066 
L 213.223887 74.014537 
L 214.070282 70.074098 
L 214.916677 69.754592 
L 215.763072 71.107891 
L 217.455862 75.765367 
L 220.841442 85.696275 
L 222.534232 90.116742 
L 225.073417 95.889564 
L 227.612602 100.782436 
L 230.151787 104.925014 
L 232.690972 108.431745 
L 235.230157 111.400145 
L 236.076552 112.276045 
L 236.922947 101.139061 
L 237.769342 84.805066 
L 238.615737 74.014537 
L 239.462132 70.074098 
L 240.308527 69.754592 
L 241.154922 71.107891 
L 242.847712 75.765367 
L 246.233292 85.696275 
L 247.926082 90.116742 
L 250.465266 95.889564 
L 253.004451 100.782436 
L 255.543636 104.925014 
L 258.082821 108.431745 
L 260.622006 111.400145 
L 261.468401 112.276045 
L 262.314796 101.139061 
L 263.161191 84.805066 
L 264.007586 74.014537 
L 264.853981 70.074098 
L 265.700376 69.754592 
L 266.546771 71.107891 
L 268.239561 75.765367 
L 271.625141 85.696275 
L 273.317931 90.116742 
L 275.857116 95.889564 
L 278.396301 100.782436 
L 280.935486 104.925014 
L 283.474671 108.431745 
L 286.013856 111.400145 
L 286.860251 112.276045 
L 287.706646 101.139061 
L 288.553041 84.805066 
L 289.399436 74.014537 
L 290.245831 70.074098 
L 291.092226 69.754592 
L 291.938621 71.107891 
L 293.631411 75.765367 
L 297.016991 85.696275 
L 298.709781 90.116742 
L 301.248966 95.889564 
L 303.78815 100.782436 
L 306.327335 104.925014 
L 308.86652 108.431745 
L 311.405705 111.400145 
L 312.2521 112.276045 
L 313.098495 101.139061 
L 313.94489 84.805066 
L 314.791285 74.014537 
L 315.63768 70.074098 
L 316.484075 69.754592 
L 317.33047 71.107891 
L 319.02326 75.765367 
L 322.40884 85.696275 
L 324.10163 90.116742 
L 326.640815 95.889564 
L 329.18 100.782436 
L 331.719185 104.925014 
L 334.25837 108.431745 
L 336.797555 111.400145 
L 337.64395 112.276045 
L 338.490345 101.139061 
L 339.33674 84.805066 
L 340.183135 74.014537 
L 341.02953 70.074098 
L 341.875925 69.754592 
L 342.72232 71.107891 
L 344.41511 75.765367 
L 347.80069 85.696275 
L 349.49348 90.116742 
L 352.032665 95.889564 
L 354.57185 100.782436 
L 357.111034 104.925014 
L 359.650219 108.431745 
L 362.189404 111.400145 
L 363.035799 112.276045 
L 363.882194 101.139061 
L 364.728589 84.805066 
L 365.574984 74.014537 
L 366.421379 70.074098 
L 367.267774 69.754592 
L 368.114169 71.107891 
L 369.806959 75.765367 
L 373.192539 85.696275 
L 374.885329 90.116742 
L 377.424514 95.889564 
L 379.963699 100.782436 
L 382.502884 104.925014 
L 385.042069 108.431745 
L 387.581254 111.400145 
L 388.427649 112.276045 
L 389.274044 101.139061 
L 390.120439 84.805066 
L 390.966834 74.014537 
L 391.813229 70.074098 
L 392.659624 69.754592 
L 393.506019 71.107891 
L 395.198809 75.765367 
L 398.584389 85.696275 
L 400.277179 90.116742 
L 402.816364 95.889564 
L 405.355549 100.782436 
L 407.894734 104.925014 
L 410.433918 108.431745 
L 412.973103 111.400145 
L 413.819498 112.276045 
L 414.665893 101.139061 
L 415.512288 84.805066 
L 416.358683 74.014537 
L 417.205078 70.074098 
L 418.051473 69.754592 
L 418.897868 71.107891 
L 420.590658 75.765367 
L 423.976238 85.696275 
L 425.669028 90.116742 
L 428.208213 95.889564 
L 430.747398 100.782436 
L 433.286583 104.925014 
L 435.825768 108.431745 
L 438.364953 111.400145 
L 439.211348 112.276045 
L 440.057743 101.139061 
L 440.904138 84.805066 
L 441.750533 74.014537 
L 442.596928 70.074098 
L 443.443323 69.754592 
L 444.289718 71.107891 
L 445.982508 75.765367 
L 449.368088 85.696275 
L 451.060878 90.116742 
L 453.600063 95.889564 
L 456.139248 100.782436 
L 458.678433 104.925014 
L 461.217618 108.431745 
L 463.756803 111.400145 
L 464.603197 112.276045 
L 465.449592 101.139061 
L 466.295987 84.805066 
L 467.142382 74.014537 
L 467.988777 70.074098 
L 468.835172 69.754592 
L 469.681567 71.107891 
L 471.374357 75.765367 
L 474.759937 85.696275 
L 476.452727 90.116742 
L 478.991912 95.889564 
L 481.531097 100.782436 
L 484.070282 104.925014 
L 486.609467 108.431745 
L 489.148652 111.400145 
L 489.995047 112.276045 
L 490.841442 101.139061 
L 491.687837 84.805066 
L 492.534232 74.014537 
L 493.380627 70.074098 
L 494.227022 69.754592 
L 495.073417 71.107891 
L 496.766207 75.765367 
L 500.151787 85.696275 
L 501.844577 90.116742 
L 504.383762 95.889564 
L 506.922947 100.782436 
L 509.462132 104.925014 
L 512.001317 108.431745 
L 514.540502 111.400145 
L 515.386897 112.276045 
L 516.233292 101.139061 
L 517.079687 84.805066 
L 517.926082 74.014537 
L 518.772476 70.074098 
L 519.618871 69.754592 
L 520.465266 71.107891 
L 522.158056 75.765367 
L 525.543636 85.696275 
L 527.236426 90.116742 
L 529.775611 95.889564 
L 532.314796 100.782436 
L 534.853981 104.925014 
L 537.393166 108.431745 
L 539.932351 111.400145 
L 540.778746 112.276045 
L 541.625141 101.139061 
L 542.471536 84.805066 
L 543.317931 74.014537 
L 544.164326 70.074098 
L 545.010721 69.754592 
L 545.857116 71.107891 
L 547.549906 75.765367 
L 550.935486 85.696275 
L 552.628276 90.116742 
L 555.167461 95.889564 
L 557.706646 100.782436 
L 560.245831 104.925014 
L 562.785016 108.431745 
L 565.324201 111.400145 
L 566.170596 112.276045 
L 567.016991 101.139061 
L 567.863386 84.805066 
L 568.709781 74.014537 
L 569.556176 70.074098 
L 570.402571 69.754592 
L 571.248966 71.107891 
L 572.941755 75.765367 
L 576.327335 85.696275 
L 578.020125 90.116742 
L 580.55931 95.889564 
L 583.098495 100.782436 
L 585.63768 104.925014 
L 588.176865 108.431745 
L 590.71605 111.400145 
L 591.562445 112.276045 
L 592.40884 101.139061 
L 593.255235 84.805066 
L 594.10163 74.014537 
L 594.948025 70.074098 
L 595.79442 69.754592 
L 596.640815 71.107891 
L 598.333605 75.765367 
L 601.719185 85.696275 
L 603.411975 90.116742 
L 605.95116 95.889564 
L 608.490345 100.782436 
L 611.02953 104.925014 
L 613.568715 108.431745 
L 616.1079 111.400145 
L 616.954295 112.276045 
L 617.80069 101.139061 
L 618.647085 84.805066 
L 619.49348 74.014537 
L 620.339875 70.074098 
L 621.18627 69.754592 
L 622.032665 71.107891 
L 623.725455 75.765367 
L 627.111034 85.696275 
L 628.803824 90.116742 
L 631.343009 95.889564 
L 633.882194 100.782436 
L 636.421379 104.925014 
L 638.960564 108.431745 
L 641.499749 111.400145 
L 642.346144 112.276045 
L 643.192539 101.139061 
L 644.038934 84.805066 
L 644.885329 74.014537 
L 645.731724 70.074098 
L 646.578119 69.754592 
L 647.424514 71.107891 
L 649.117304 75.765367 
L 652.502884 85.696275 
L 654.195674 90.116742 
L 656.734859 95.889564 
L 659.274044 100.782436 
L 661.813229 104.925014 
L 664.352414 108.431745 
L 666.891599 111.400145 
L 667.737994 112.276045 
L 668.584389 101.139061 
L 669.430784 84.805066 
L 670.277179 74.014537 
L 671.123574 70.074098 
L 671.969969 69.754592 
L 672.816364 71.107891 
L 674.509154 75.765367 
L 677.894734 85.696275 
L 679.587524 90.116742 
L 682.126708 95.889564 
L 684.665893 100.782436 
L 687.205078 104.925014 
L 689.744263 108.431745 
L 692.283448 111.400145 
L 693.129843 112.276045 
L 693.976238 101.139061 
L 694.822633 84.805066 
L 695.669028 74.014537 
L 696.515423 70.074098 
L 697.361818 69.754592 
L 698.208213 71.107891 
L 699.901003 75.765367 
L 703.286583 85.696275 
L 704.979373 90.116742 
L 707.518558 95.889564 
L 710.057743 100.782436 
L 712.596928 104.925014 
L 715.136113 108.431745 
L 717.675298 111.400145 
L 718.521693 112.276045 
L 719.368088 101.139061 
L 720.214483 84.805066 
L 721.060878 74.014537 
L 721.907273 70.074098 
L 722.753668 69.754592 
L 723.600063 71.107891 
L 725.292853 75.765367 
L 728.678433 85.696275 
L 730.371223 90.116742 
L 732.910408 95.889564 
L 735.449592 100.782436 
L 737.988777 104.925014 
L 740.527962 108.431745 
L 743.067147 111.400145 
L 743.913542 112.276045 
L 744.759937 101.139061 
L 745.606332 84.805066 
L 746.452727 74.014537 
L 747.299122 70.074098 
L 748.145517 69.754592 
L 748.991912 71.107891 
L 750.684702 75.765367 
L 754.070282 85.696275 
L 755.763072 90.116742 
L 758.302257 95.889564 
L 760.841442 100.782436 
L 763.380627 104.925014 
L 765.919812 108.431745 
L 768.458997 111.400145 
L 769.305392 112.276045 
L 770.151787 101.139061 
L 770.998182 84.805066 
L 771.844577 74.014537 
L 772.690972 70.074098 
L 773.537367 69.754592 
L 774.383762 71.107891 
L 776.076552 75.765367 
L 779.462132 85.696275 
L 781.154922 90.116742 
L 783.694107 95.889564 
L 786.233292 100.782436 
L 788.772476 104.925014 
L 791.311661 108.431745 
L 793.850846 111.400145 
L 794.697241 112.276045 
L 795.543636 101.139061 
L 796.390031 84.805066 
L 797.236426 74.014537 
L 798.082821 70.074098 
L 798.929216 69.754592 
L 799.775611 71.107891 
L 801.468401 75.765367 
L 804.853981 85.696275 
L 806.546771 90.116742 
L 809.085956 95.889564 
L 811.625141 100.782436 
L 814.164326 104.925014 
L 816.703511 108.431745 
L 819.242696 111.400145 
L 820.089091 112.276045 
L 820.935486 101.139061 
L 821.781881 84.805066 
L 822.628276 74.014537 
L 823.474671 70.074098 
L 824.321066 69.754592 
L 825.167461 71.107891 
L 826.860251 75.765367 
L 830.245831 85.696275 
L 831.938621 90.116742 
L 834.477806 95.889564 
L 837.016991 100.782436 
L 839.556176 104.925014 
L 842.095361 108.431745 
L 844.634545 111.400145 
L 844.634545 111.400145 
" style="fill:none;stroke:#1f77b4;stroke-linecap:square;stroke-width:1.5;"/>
   </g>
   <g id="patch_3">
    <path d="M 45.68 127.767568 
L 45.68 13.2 
" style="fill:none;stroke:#555555;stroke-linecap:square;stroke-linejoin:miter;"/>
   </g>
   <g id="patch_4">
    <path d="M 45.68 127.767568 
L 882.68 127.767568 
" style="fill:none;stroke:#555555;stroke-linecap:square;stroke-linejoin:miter;"/>
   </g>
  </g>
  <g id="axes_2">
   <g id="patch_5">
    <path d="M 45.68 282.433784 
L 882.68 282.433784 
L 882.68 167.866216 
L 45.68 167.866216 
z
" style="fill:#ffffff;"/>
   </g>
   <g id="matplotlib.axis_3">
    <g id="xtick_8">
     <g id="line2d_17">
      <g>
       <use style="fill:#555555;stroke:#555555;stroke-width:0.8;" x="83.725455" xlink:href="#m8beec3dbb0" y="282.433784"/>
      </g>
     </g>
    </g>
    <g id="xtick_9">
     <g id="line2d_18">
      <g>
       <use style="fill:#555555;stroke:#555555;stroke-width:0.8;" x="210.684702" xlink:href="#m8beec3dbb0" y="282.433784"/>
      </g>
     </g>
    </g>
    <g id="xtick_10">
     <g id="line2d_19">
      <g>
       <use style="fill:#555555;stroke:#555555;stroke-width:0.8;" x="337.64395" xlink:href="#m8beec3dbb0" y="282.433784"/>
      </g>
     </g>
    </g>
    <g id="xtick_11">
     <g id="line2d_20">
      <g>
       <use style="fill:#555555;stroke:#555555;stroke-width:0.8;" x="464.603197" xlink:href="#m8beec3dbb0" y="282.433784"/>
      </g>
     </g>
    </g>
    <g id="xtick_12">
     <g id="line2d_21">
      <g>
       <use style="fill:#555555;stroke:#555555;stroke-width:0.8;" x="591.562445" xlink:href="#m8beec3dbb0" y="282.433784"/>
      </g>
     </g>
    </g>
    <g id="xtick_13">
     <g id="line2d_22">
      <g>
       <use style="fill:#555555;stroke:#555555;stroke-width:0.8;" x="718.521693" xlink:href="#m8beec3dbb0" y="282.433784"/>
      </g>
     </g>
    </g>
    <g id="xtick_14">
     <g id="line2d_23">
      <g>
       <use style="fill:#555555;stroke:#555555;stroke-width:0.8;" x="845.48094" xlink:href="#m8beec3dbb0" y="282.433784"/>
      </g>
     </g>
    </g>
   </g>
   <g id="matplotlib.axis_4">
    <g id="ytick_5">
     <g id="line2d_24">
      <path clip-path="url(#pf961e15ade)" d="M 45.68 282.433784 
L 882.68 282.433784 
" style="fill:none;stroke:#eeeeee;stroke-linecap:square;stroke-width:0.8;"/>
     </g>
     <g id="line2d_25">
      <g>
       <use style="fill:#555555;stroke:#555555;stroke-width:0.8;" x="45.68" xlink:href="#m0366c2bb20" y="282.433784"/>
      </g>
     </g>
     <g id="text_6">
      <!-- 0 -->
      <g style="fill:#555555;" transform="translate(29.5 288.433784)scale(0.16 -0.16)">
       <use xlink:href="#Roboto-Bold-48"/>
      </g>
     </g>
    </g>
    <g id="ytick_6">
     <g id="line2d_26">
      <path clip-path="url(#pf961e15ade)" d="M 45.68 244.244595 
L 882.68 244.244595 
" style="fill:none;stroke:#eeeeee;stroke-linecap:square;stroke-width:0.8;"/>
     </g>
     <g id="line2d_27">
      <g>
       <use style="fill:#555555;stroke:#555555;stroke-width:0.8;" x="45.68" xlink:href="#m0366c2bb20" y="244.244595"/>
      </g>
     </g>
     <g id="text_7">
      <!-- 2 -->
      <g style="fill:#555555;" transform="translate(29.5 250.244595)scale(0.16 -0.16)">
       <use xlink:href="#Roboto-Bold-50"/>
      </g>
     </g>
    </g>
    <g id="ytick_7">
     <g id="line2d_28">
      <path clip-path="url(#pf961e15ade)" d="M 45.68 206.055405 
L 882.68 206.055405 
" style="fill:none;stroke:#eeeeee;stroke-linecap:square;stroke-width:0.8;"/>
     </g>
     <g id="line2d_29">
      <g>
       <use style="fill:#555555;stroke:#555555;stroke-width:0.8;" x="45.68" xlink:href="#m0366c2bb20" y="206.055405"/>
      </g>
     </g>
     <g id="text_8">
      <!-- 4 -->
      <g style="fill:#555555;" transform="translate(29.5 212.055405)scale(0.16 -0.16)">
       <use xlink:href="#Roboto-Bold-52"/>
      </g>
     </g>
    </g>
    <g id="ytick_8">
     <g id="line2d_30">
      <path clip-path="url(#pf961e15ade)" d="M 45.68 167.866216 
L 882.68 167.866216 
" style="fill:none;stroke:#eeeeee;stroke-linecap:square;stroke-width:0.8;"/>
     </g>
     <g id="line2d_31">
      <g>
       <use style="fill:#555555;stroke:#555555;stroke-width:0.8;" x="45.68" xlink:href="#m0366c2bb20" y="167.866216"/>
      </g>
     </g>
     <g id="text_9">
      <!-- 6 -->
      <g style="fill:#555555;" transform="translate(29.5 173.866216)scale(0.16 -0.16)">
       <use xlink:href="#Roboto-Bold-54"/>
      </g>
     </g>
    </g>
   </g>
   <g id="line2d_32">
    <path clip-path="url(#pf961e15ade)" d="M 83.725455 216.371636 
L 84.57185 218.41047 
L 86.264639 223.947692 
L 87.957429 219.062681 
L 88.803824 219.500244 
L 89.650219 221.409911 
L 90.496614 216.77513 
L 91.343009 215.108416 
L 92.189404 210.644621 
L 93.035799 207.519752 
L 93.882194 207.928041 
L 94.728589 210.134094 
L 95.574984 213.07858 
L 96.421379 213.157152 
L 97.267774 204.423418 
L 98.114169 199.457602 
L 98.960564 199.173766 
L 99.806959 201.269679 
L 100.653354 204.376128 
L 102.346144 211.699967 
L 103.192539 208.19082 
L 104.038934 207.29671 
L 104.885329 208.869767 
L 105.731724 211.532077 
L 108.270909 221.344683 
L 110.810094 230.575419 
L 113.349279 238.516656 
L 115.888464 245.256035 
L 118.427649 250.963133 
L 120.966834 255.794403 
L 123.506019 259.884029 
L 126.045204 263.345827 
L 128.584389 266.294697 
L 131.123574 268.772342 
L 133.662759 270.869623 
L 136.201944 272.661971 
L 138.741129 274.162123 
L 142.126708 275.824204 
L 144.665893 276.838895 
L 148.051473 277.958722 
L 151.437053 278.848443 
L 155.669028 279.719522 
L 159.054608 280.275131 
L 164.979373 280.999939 
L 170.057743 281.437817 
L 170.904138 281.146386 
L 171.750533 273.192903 
L 172.596928 269.531302 
L 173.443323 268.050724 
L 174.289718 267.750905 
L 175.982508 268.127908 
L 176.828903 260.723827 
L 177.675298 257.653385 
L 178.521693 256.787037 
L 179.368088 257.051323 
L 181.060878 258.543652 
L 181.907273 251.649774 
L 182.753668 249.063534 
L 183.600063 248.669674 
L 184.446458 249.367995 
L 186.139248 251.671849 
L 186.985643 245.145665 
L 187.832038 240.046299 
L 188.678433 233.158811 
L 189.524828 231.215699 
L 190.371223 231.589419 
L 191.217618 232.796036 
L 192.064013 226.810172 
L 192.910408 225.310369 
L 193.756803 226.097049 
L 194.603197 221.007046 
L 195.449592 218.829815 
L 196.295987 219.442771 
L 197.142382 221.396866 
L 198.835172 226.753449 
L 199.681567 229.53887 
L 200.527962 229.40794 
L 201.374357 225.285853 
L 202.220752 224.883287 
L 203.067147 226.155259 
L 204.759937 230.725943 
L 208.145517 240.608569 
L 209.838307 245.00253 
L 212.377492 250.741494 
L 214.916677 255.605836 
L 217.455862 259.72428 
L 219.995047 263.210586 
L 222.534232 266.161695 
L 225.073417 268.659758 
L 227.612602 270.774323 
L 230.151787 272.564263 
L 232.690972 274.079415 
L 235.230157 275.361963 
L 238.615737 276.767966 
L 242.001317 277.901989 
L 245.386897 278.80299 
L 249.618871 279.685112 
L 254.697241 280.464274 
L 260.622006 281.098089 
L 267.393166 281.577838 
L 276.703511 281.987102 
L 290.245831 282.275609 
L 316.484075 282.433784 
L 319.02326 282.433784 
L 319.869655 280.775153 
L 320.71605 273.293937 
L 321.562445 270.022437 
L 322.40884 268.742948 
L 323.255235 268.472351 
L 324.10163 268.710551 
L 325.79442 269.773262 
L 326.640815 264.272385 
L 327.48721 259.925218 
L 328.333605 258.360667 
L 329.18 258.25616 
L 330.026395 258.830164 
L 331.719185 260.776331 
L 332.56558 260.179274 
L 333.411975 253.781338 
L 334.25837 251.528542 
L 335.104765 251.225567 
L 335.95116 251.913068 
L 336.797555 253.033983 
L 338.490345 255.750417 
L 339.33674 252.886201 
L 340.183135 248.231383 
L 341.02953 246.827563 
L 341.875925 247.100141 
L 342.72232 248.147058 
L 343.568715 249.590957 
L 344.41511 246.904722 
L 345.261505 242.491627 
L 346.1079 241.36269 
L 346.954295 241.907198 
L 347.80069 243.221407 
L 348.647085 244.931073 
L 349.49348 242.491433 
L 350.339875 238.313079 
L 351.18627 237.413586 
L 352.032665 238.169053 
L 352.87906 239.683115 
L 353.725455 241.587606 
L 355.418245 223.968513 
L 356.264639 221.235694 
L 357.111034 221.554025 
L 357.957429 223.283834 
L 358.803824 225.736715 
L 359.650219 224.14788 
L 360.496614 218.289667 
L 361.343009 211.313619 
L 362.189404 209.900336 
L 363.035799 211.084367 
L 363.882194 213.59273 
L 364.728589 212.34757 
L 365.574984 209.532935 
L 366.421379 210.087455 
L 367.267774 205.506089 
L 368.114169 203.758562 
L 368.960564 205.000807 
L 369.806959 203.386251 
L 370.653354 200.622611 
L 371.499749 201.44204 
L 372.346144 203.94499 
L 374.038934 210.844496 
L 374.885329 210.204917 
L 375.731724 207.741927 
L 376.578119 208.520068 
L 377.424514 210.81851 
L 379.117304 217.124378 
L 379.963699 216.172317 
L 380.810094 213.402172 
L 381.656489 213.874912 
L 382.502884 215.889982 
L 384.195674 221.662439 
L 385.042069 220.467957 
L 385.888464 217.468155 
L 386.734859 217.717013 
L 387.581254 219.526532 
L 388.427649 222.038241 
L 389.274044 217.597824 
L 390.120439 216.157676 
L 390.966834 217.166778 
L 391.813229 219.424381 
L 393.506019 225.015462 
L 394.352414 227.997614 
L 395.198809 227.396885 
L 396.045204 223.712088 
L 396.891599 223.451297 
L 397.737994 224.871676 
L 398.584389 227.054819 
L 401.123574 234.788864 
L 401.969969 230.032662 
L 402.816364 228.119085 
L 403.662759 228.587319 
L 404.509154 230.268082 
L 406.201944 234.767646 
L 408.741129 241.802948 
L 410.433918 246.061925 
L 412.973103 251.635666 
L 415.512288 256.362386 
L 418.051473 260.364639 
L 420.590658 263.752631 
L 421.437053 264.752348 
L 422.283448 257.357427 
L 423.129843 254.543259 
L 423.976238 253.887717 
L 424.822633 254.327726 
L 425.669028 255.287591 
L 427.361818 257.727813 
L 428.208213 254.00362 
L 429.054608 249.646573 
L 429.901003 248.353323 
L 430.747398 241.904002 
L 431.593793 238.320364 
L 432.440188 237.707573 
L 433.286583 238.589886 
L 434.132978 240.155118 
L 434.979373 233.703454 
L 435.825768 225.216729 
L 436.672163 221.0491 
L 437.518558 220.618919 
L 438.364953 222.052139 
L 439.211348 224.305035 
L 440.057743 226.991519 
L 440.904138 222.968432 
L 441.750533 221.042511 
L 442.596928 221.731233 
L 443.443323 223.642161 
L 445.136113 228.854175 
L 445.982508 224.806584 
L 446.828903 222.821149 
L 447.675298 223.43237 
L 448.521693 225.262436 
L 450.214483 230.310997 
L 451.060878 226.186821 
L 451.907273 224.128235 
L 452.753668 224.667823 
L 453.600063 226.43196 
L 454.446458 228.742924 
L 455.292853 224.424389 
L 456.139248 215.738001 
L 456.985643 211.717777 
L 457.832038 211.611932 
L 458.678433 213.414692 
L 459.524828 216.099794 
L 460.371223 219.230607 
L 461.217618 212.748925 
L 462.064013 204.511017 
L 462.910408 202.494011 
L 463.756803 203.638447 
L 464.603197 206.235599 
L 465.449592 209.597461 
L 466.295987 206.355485 
L 467.142382 205.231834 
L 467.988777 199.813125 
L 468.835172 197.997019 
L 469.681567 199.291759 
L 470.527962 202.190264 
L 471.374357 198.906448 
L 472.220752 197.982985 
L 473.067147 199.781848 
L 473.913542 202.787822 
L 475.606332 210.142711 
L 476.452727 207.085692 
L 477.299122 206.043022 
L 478.145517 207.575633 
L 478.991912 210.252812 
L 480.684702 216.886146 
L 483.223887 226.651229 
L 485.763072 235.192557 
L 488.302257 242.439496 
L 490.841442 248.596585 
L 493.380627 253.791113 
L 495.073417 256.792277 
L 496.766207 259.501496 
L 499.305392 263.02202 
L 501.844577 266.019176 
L 504.383762 268.539118 
L 506.922947 270.690785 
L 509.462132 272.49355 
L 512.001317 274.019557 
L 514.540502 275.311295 
L 517.926082 276.727371 
L 521.311661 277.86952 
L 524.697241 278.776976 
L 528.929216 279.681871 
L 534.007586 280.479834 
L 540.778746 281.229024 
L 548.396301 281.718868 
L 558.553041 282.093868 
L 577.17373 282.409157 
L 597.48721 282.433784 
L 598.333605 274.2301 
L 599.18 270.429034 
L 600.026395 268.854731 
L 600.87279 268.471164 
L 601.719185 268.644538 
L 603.411975 269.664851 
L 607.64395 272.636698 
L 610.183135 274.136174 
L 612.72232 275.409392 
L 616.1079 276.805879 
L 616.954295 274.245885 
L 617.80069 267.70658 
L 618.647085 257.706235 
L 619.49348 252.549264 
L 620.339875 250.778803 
L 621.18627 250.775987 
L 622.032665 248.731974 
L 622.87906 243.13584 
L 623.725455 241.537735 
L 624.57185 238.389402 
L 625.418245 233.090939 
L 626.264639 231.895252 
L 627.111034 229.75587 
L 627.957429 224.622113 
L 628.803824 223.725227 
L 629.650219 224.804424 
L 630.496614 226.891751 
L 632.189404 217.41442 
L 633.035799 211.388055 
L 633.882194 210.418463 
L 634.728589 211.806148 
L 635.574984 214.396748 
L 636.421379 217.391975 
L 637.267774 217.677746 
L 638.114169 214.078856 
L 638.960564 214.177977 
L 639.806959 215.991263 
L 641.499749 221.611823 
L 642.346144 221.756597 
L 643.192539 217.977725 
L 644.038934 217.89041 
L 644.885329 219.516506 
L 646.578119 224.773332 
L 647.424514 224.750472 
L 648.270909 220.807484 
L 649.117304 220.569142 
L 649.963699 222.052096 
L 650.810094 217.097906 
L 651.656489 215.429746 
L 652.502884 213.48496 
L 653.349279 208.885587 
L 654.195674 208.651068 
L 655.042069 210.444041 
L 655.888464 213.273506 
L 656.734859 212.986255 
L 658.427649 200.508305 
L 659.274044 199.620773 
L 660.120439 201.327781 
L 660.966834 204.359339 
L 661.813229 207.824026 
L 662.659624 208.586839 
L 663.506019 198.153349 
L 664.352414 194.409542 
L 665.198809 194.854023 
L 666.045204 197.429495 
L 667.737994 204.649397 
L 670.277179 216.096786 
L 671.969969 223.046345 
L 674.509154 232.145899 
L 677.048339 239.863639 
L 679.587524 246.398614 
L 682.126708 251.930627 
L 682.973103 252.221808 
L 683.819498 246.160646 
L 684.665893 244.265209 
L 685.512288 244.324849 
L 686.358683 245.378767 
L 688.051473 248.478833 
L 688.897868 250.207947 
L 689.744263 245.970437 
L 690.590658 242.495244 
L 691.437053 241.834271 
L 692.283448 242.586037 
L 693.129843 243.984083 
L 694.822633 247.487787 
L 695.669028 247.917338 
L 696.515423 242.040911 
L 697.361818 240.339917 
L 698.208213 240.596168 
L 699.054608 241.848411 
L 700.747398 245.311065 
L 703.286583 250.797363 
L 704.979373 254.112172 
L 707.518558 258.451866 
L 710.057743 262.13242 
L 711.750533 253.41246 
L 712.596928 252.123294 
L 713.443323 252.276341 
L 714.289718 253.163182 
L 715.136113 254.344939 
L 715.982508 250.20795 
L 716.828903 238.120775 
L 717.675298 233.272168 
L 718.521693 232.171372 
L 719.368088 232.972791 
L 720.214483 234.642566 
L 721.907273 228.083765 
L 723.600063 219.112943 
L 724.446458 218.586324 
L 725.292853 220.009212 
L 726.139248 216.877955 
L 726.985643 214.222875 
L 727.832038 214.779236 
L 728.678433 216.791287 
L 729.524828 211.525043 
L 730.371223 210.590865 
L 731.217618 206.540731 
L 732.064013 203.704892 
L 732.910408 204.451541 
L 733.756803 206.823709 
L 735.449592 213.44209 
L 737.142382 209.525493 
L 737.988777 210.539255 
L 738.835172 212.884691 
L 740.527962 219.090229 
L 742.220752 214.618888 
L 743.067147 215.370675 
L 743.913542 217.463035 
L 745.606332 223.189003 
L 747.299122 218.285686 
L 748.145517 218.841439 
L 748.991912 212.544479 
L 749.838307 211.28021 
L 750.684702 212.548055 
L 751.531097 214.975215 
L 757.455862 235.736237 
L 759.148652 240.608467 
L 760.841442 245.025157 
L 763.380627 250.802554 
L 765.919812 255.658428 
L 768.458997 259.805625 
L 770.998182 263.279459 
L 773.537367 266.219998 
L 776.076552 268.70911 
L 778.615737 270.816098 
L 781.154922 272.599625 
L 783.694107 274.109348 
L 786.233292 275.387301 
L 789.618871 276.805563 
L 793.004451 277.932061 
L 797.236426 279.036008 
L 801.468401 279.879791 
L 806.546771 280.603768 
L 812.471536 281.192692 
L 819.242696 281.653549 
L 821.781881 281.80961 
L 822.628276 278.981846 
L 823.474671 272.181634 
L 824.321066 268.573621 
L 825.167461 259.63909 
L 826.013856 255.811732 
L 826.860251 254.702721 
L 827.706646 254.877206 
L 828.553041 255.722792 
L 829.399436 249.191457 
L 830.245831 238.033918 
L 831.092226 233.677792 
L 831.938621 232.899596 
L 832.785016 233.799646 
L 833.631411 235.555829 
L 834.477806 236.939357 
L 835.324201 231.255032 
L 836.170596 229.812495 
L 837.016991 230.502602 
L 837.863386 232.182911 
L 838.709781 234.371932 
L 839.556176 235.971076 
L 840.402571 230.426805 
L 841.248966 229.07642 
L 842.095361 229.829023 
L 842.941755 231.55732 
L 843.78815 233.787101 
L 844.634545 235.42067 
L 844.634545 235.42067 
" style="fill:none;stroke:#1f77b4;stroke-linecap:square;stroke-width:1.5;"/>
   </g>
   <g id="patch_6">
    <path d="M 45.68 282.433784 
L 45.68 167.866216 
" style="fill:none;stroke:#555555;stroke-linecap:square;stroke-linejoin:miter;"/>
   </g>
   <g id="patch_7">
    <path d="M 45.68 282.433784 
L 882.68 282.433784 
" style="fill:none;stroke:#555555;stroke-linecap:square;stroke-linejoin:miter;"/>
   </g>
  </g>
  <g id="axes_3">
   <g id="patch_8">
    <path d="M 45.68 437.1 
L 882.68 437.1 
L 882.68 322.532432 
L 45.68 322.532432 
z
" style="fill:#ffffff;"/>
   </g>
   <g id="matplotlib.axis_5">
    <g id="xtick_15">
     <g id="line2d_33">
      <g>
       <use style="fill:#555555;stroke:#555555;stroke-width:0.8;" x="83.725455" xlink:href="#m8beec3dbb0" y="437.1"/>
      </g>
     </g>
     <g id="text_10">
      <!-- 0 -->
      <g style="fill:#555555;" transform="translate(79.135455 456.1)scale(0.16 -0.16)">
       <use xlink:href="#Roboto-Bold-48"/>
      </g>
     </g>
    </g>
    <g id="xtick_16">
     <g id="line2d_34">
      <g>
       <use style="fill:#555555;stroke:#555555;stroke-width:0.8;" x="210.684702" xlink:href="#m8beec3dbb0" y="437.1"/>
      </g>
     </g>
     <g id="text_11">
      <!-- 5 -->
      <g style="fill:#555555;" transform="translate(206.094702 456.1)scale(0.16 -0.16)">
       <defs>
        <path d="M 18.21875 32.234375 
L 6.984375 34.96875 
L 11.03125 71.09375 
L 50.875 71.09375 
L 50.875 59.375 
L 22.65625 59.375 
L 20.90625 44.046875 
Q 25.78125 46.734375 31.546875 46.734375 
Q 41.890625 46.734375 47.546875 40.421875 
Q 53.21875 34.125 53.21875 22.859375 
Q 53.21875 13.375 47.359375 6.1875 
Q 41.5 -0.984375 29.25 -0.984375 
Q 20.015625 -0.984375 12.71875 4.484375 
Q 5.421875 9.96875 5.171875 19.828125 
L 19.140625 19.828125 
Q 20.0625 10.40625 29.15625 10.40625 
Q 34.46875 10.40625 36.78125 14.234375 
Q 39.109375 18.0625 39.109375 23.640625 
Q 39.109375 29.25 36.328125 32.6875 
Q 33.546875 36.140625 27.6875 36.140625 
Q 23.828125 36.140625 21.71875 34.890625 
Q 19.625 33.640625 18.21875 32.234375 
z
" id="Roboto-Bold-53"/>
       </defs>
       <use xlink:href="#Roboto-Bold-53"/>
      </g>
     </g>
    </g>
    <g id="xtick_17">
     <g id="line2d_35">
      <g>
       <use style="fill:#555555;stroke:#555555;stroke-width:0.8;" x="337.64395" xlink:href="#m8beec3dbb0" y="437.1"/>
      </g>
     </g>
     <g id="text_12">
      <!-- 10 -->
      <g style="fill:#555555;" transform="translate(328.46395 456.1)scale(0.16 -0.16)">
       <defs>
        <path d="M 39.109375 71.1875 
L 39.109375 0 
L 25 0 
L 25 54.4375 
L 8.203125 49.21875 
L 8.203125 60.640625 
L 37.59375 71.1875 
z
" id="Roboto-Bold-49"/>
       </defs>
       <use xlink:href="#Roboto-Bold-49"/>
       <use x="57.373047" xlink:href="#Roboto-Bold-48"/>
      </g>
     </g>
    </g>
    <g id="xtick_18">
     <g id="line2d_36">
      <g>
       <use style="fill:#555555;stroke:#555555;stroke-width:0.8;" x="464.603197" xlink:href="#m8beec3dbb0" y="437.1"/>
      </g>
     </g>
     <g id="text_13">
      <!-- 15 -->
      <g style="fill:#555555;" transform="translate(455.423197 456.1)scale(0.16 -0.16)">
       <use xlink:href="#Roboto-Bold-49"/>
       <use x="57.373047" xlink:href="#Roboto-Bold-53"/>
      </g>
     </g>
    </g>
    <g id="xtick_19">
     <g id="line2d_37">
      <g>
       <use style="fill:#555555;stroke:#555555;stroke-width:0.8;" x="591.562445" xlink:href="#m8beec3dbb0" y="437.1"/>
      </g>
     </g>
     <g id="text_14">
      <!-- 20 -->
      <g style="fill:#555555;" transform="translate(582.382445 456.1)scale(0.16 -0.16)">
       <use xlink:href="#Roboto-Bold-50"/>
       <use x="57.373047" xlink:href="#Roboto-Bold-48"/>
      </g>
     </g>
    </g>
    <g id="xtick_20">
     <g id="line2d_38">
      <g>
       <use style="fill:#555555;stroke:#555555;stroke-width:0.8;" x="718.521693" xlink:href="#m8beec3dbb0" y="437.1"/>
      </g>
     </g>
     <g id="text_15">
      <!-- 25 -->
      <g style="fill:#555555;" transform="translate(709.341693 456.1)scale(0.16 -0.16)">
       <use xlink:href="#Roboto-Bold-50"/>
       <use x="57.373047" xlink:href="#Roboto-Bold-53"/>
      </g>
     </g>
    </g>
    <g id="xtick_21">
     <g id="line2d_39">
      <g>
       <use style="fill:#555555;stroke:#555555;stroke-width:0.8;" x="845.48094" xlink:href="#m8beec3dbb0" y="437.1"/>
      </g>
     </g>
     <g id="text_16">
      <!-- 30 -->
      <g style="fill:#555555;" transform="translate(836.30094 456.1)scale(0.16 -0.16)">
       <defs>
        <path d="M 19.234375 30.765625 
L 19.234375 41.84375 
L 26.765625 41.84375 
Q 32.078125 41.84375 34.6875 44.5 
Q 37.3125 47.171875 37.3125 51.65625 
Q 37.3125 55.609375 34.9375 58.171875 
Q 32.5625 60.75 27.6875 60.75 
Q 23.828125 60.75 20.96875 58.59375 
Q 18.109375 56.453125 18.109375 52.6875 
L 4 52.6875 
Q 4 61.46875 10.78125 66.796875 
Q 17.578125 72.125 27.296875 72.125 
Q 38.09375 72.125 44.75 66.96875 
Q 51.421875 61.8125 51.421875 51.859375 
Q 51.421875 47.265625 48.578125 43.09375 
Q 45.75 38.921875 40.578125 36.53125 
Q 46.53125 34.421875 49.5 30.09375 
Q 52.484375 25.78125 52.484375 19.96875 
Q 52.484375 9.96875 45.28125 4.484375 
Q 38.09375 -0.984375 27.296875 -0.984375 
Q 21.296875 -0.984375 15.75 1.21875 
Q 10.203125 3.421875 6.65625 7.9375 
Q 3.125 12.453125 3.125 19.484375 
L 17.28125 19.484375 
Q 17.28125 15.53125 20.234375 12.96875 
Q 23.1875 10.40625 27.6875 10.40625 
Q 32.71875 10.40625 35.546875 13.078125 
Q 38.375 15.765625 38.375 20.171875 
Q 38.375 30.765625 26.65625 30.765625 
z
" id="Roboto-Bold-51"/>
       </defs>
       <use xlink:href="#Roboto-Bold-51"/>
       <use x="57.373047" xlink:href="#Roboto-Bold-48"/>
      </g>
     </g>
    </g>
    <g id="text_17">
     <!-- time (s) -->
     <g style="fill:#555555;" transform="translate(430.8035 478.509)scale(0.192 -0.192)">
      <defs>
       <path d="M 31.890625 0.34375 
Q 27.9375 -0.984375 23.390625 -0.984375 
Q 16.453125 -0.984375 12.34375 2.625 
Q 8.25 6.25 8.25 14.65625 
L 8.25 42.53125 
L 0.484375 42.53125 
L 0.484375 52.828125 
L 8.25 52.828125 
L 8.25 65.875 
L 22.359375 65.875 
L 22.359375 52.828125 
L 31.34375 52.828125 
L 31.34375 42.53125 
L 22.359375 42.53125 
L 22.359375 16.109375 
Q 22.359375 12.796875 23.71875 11.71875 
Q 25.09375 10.640625 27.78125 10.640625 
Q 29.9375 10.640625 31.890625 11.03125 
z
" id="Roboto-Bold-116"/>
       <path d="M 5.328125 66.5 
Q 5.328125 69.671875 7.46875 71.75 
Q 9.625 73.828125 13.234375 73.828125 
Q 16.84375 73.828125 18.984375 71.75 
Q 21.140625 69.671875 21.140625 66.5 
Q 21.140625 63.375 18.984375 61.296875 
Q 16.84375 59.234375 13.234375 59.234375 
Q 9.625 59.234375 7.46875 61.296875 
Q 5.328125 63.375 5.328125 66.5 
z
M 20.359375 52.828125 
L 20.359375 0 
L 6.203125 0 
L 6.203125 52.828125 
z
" id="Roboto-Bold-105"/>
       <path d="M 28.21875 42.390625 
Q 22.359375 42.390625 19.578125 37.40625 
L 19.578125 0 
L 5.421875 0 
L 5.421875 52.828125 
L 18.703125 52.828125 
L 19.1875 47.015625 
Q 24.703125 53.8125 34.328125 53.8125 
Q 44.53125 53.8125 48.34375 45.75 
Q 53.765625 53.8125 64.203125 53.8125 
Q 71.828125 53.8125 76.46875 49.3125 
Q 81.109375 44.828125 81.15625 33.890625 
L 81.15625 0 
L 67 0 
L 67 33.6875 
Q 67 38.96875 64.875 40.671875 
Q 62.75 42.390625 59.078125 42.390625 
Q 52.828125 42.390625 50.34375 36.46875 
L 50.34375 0 
L 36.234375 0 
L 36.234375 33.59375 
Q 36.234375 38.8125 34.078125 40.59375 
Q 31.9375 42.390625 28.21875 42.390625 
z
" id="Roboto-Bold-109"/>
       <path d="M 50.390625 8.59375 
Q 47.859375 4.984375 42.671875 2 
Q 37.5 -0.984375 29.78125 -0.984375 
Q 17.484375 -0.984375 10.546875 6.46875 
Q 3.609375 13.921875 3.5625 24.46875 
L 3.5625 26.515625 
Q 3.5625 38.484375 10.21875 46.140625 
Q 16.890625 53.8125 28.21875 53.8125 
Q 39.59375 53.8125 45.546875 46.671875 
Q 51.515625 39.546875 51.515625 27.828125 
L 51.515625 21.828125 
L 17.875 21.828125 
Q 18.609375 16.703125 21.921875 13.546875 
Q 25.25 10.40625 30.671875 10.40625 
Q 38.71875 10.40625 43.40625 16.3125 
z
M 28.125 42.4375 
Q 23.640625 42.4375 21.1875 39.40625 
Q 18.75 36.375 18.015625 31.5 
L 37.640625 31.5 
L 37.640625 32.5625 
Q 37.546875 36.8125 35.28125 39.625 
Q 33.015625 42.4375 28.125 42.4375 
z
" id="Roboto-Bold-101"/>
       <path id="Roboto-Bold-32"/>
       <path d="M 6.109375 28.90625 
Q 6.109375 42.671875 9.890625 53 
Q 13.671875 63.328125 19.28125 69.890625 
Q 24.90625 76.46875 30.421875 78.953125 
L 33.15625 71.34375 
Q 27.6875 67.234375 22.890625 57.203125 
Q 18.109375 47.171875 18.015625 29.78125 
L 18.015625 27.6875 
Q 18.015625 9.8125 22.828125 -0.359375 
Q 27.640625 -10.546875 33.15625 -14.75 
L 30.421875 -22.21875 
Q 24.90625 -19.78125 19.28125 -13.203125 
Q 13.671875 -6.640625 9.890625 3.703125 
Q 6.109375 14.0625 6.109375 27.78125 
z
" id="Roboto-Bold-40"/>
       <path d="M 34.03125 14.65625 
Q 34.03125 16.890625 31.953125 18.421875 
Q 29.890625 19.96875 23.046875 21.4375 
Q 14.890625 23.1875 9.65625 26.890625 
Q 4.4375 30.609375 4.4375 37.40625 
Q 4.4375 44 10.03125 48.90625 
Q 15.625 53.8125 25.484375 53.8125 
Q 35.796875 53.8125 41.703125 48.96875 
Q 47.609375 44.140625 47.609375 36.765625 
L 33.5 36.765625 
Q 33.5 39.796875 31.546875 41.796875 
Q 29.59375 43.796875 25.4375 43.796875 
Q 21.921875 43.796875 19.9375 42.15625 
Q 17.96875 40.53125 17.96875 38.09375 
Q 17.96875 35.84375 20.0625 34.375 
Q 22.171875 32.90625 27.828125 31.78125 
Q 36.421875 30.078125 42.078125 26.5625 
Q 47.75 23.046875 47.75 15.1875 
Q 47.75 8.203125 41.75 3.609375 
Q 35.75 -0.984375 25.53125 -0.984375 
Q 14.453125 -0.984375 8.59375 4.703125 
Q 2.734375 10.40625 2.734375 16.84375 
L 16.15625 16.84375 
Q 16.359375 12.703125 19.21875 10.890625 
Q 22.078125 9.078125 25.828125 9.078125 
Q 34.03125 9.078125 34.03125 14.65625 
z
" id="Roboto-Bold-115"/>
       <path d="M 29.78125 27.78125 
Q 29.78125 14.5 25.875 4.125 
Q 21.96875 -6.25 16.15625 -13.015625 
Q 10.359375 -19.78125 4.6875 -22.21875 
L 1.953125 -14.75 
Q 7.375 -10.6875 12.1875 -0.578125 
Q 17 9.515625 17.09375 26.90625 
L 17.09375 29 
Q 17.09375 46.875 12.1875 57.125 
Q 7.28125 67.390625 1.953125 71.4375 
L 4.6875 78.953125 
Q 10.359375 76.46875 16.15625 69.703125 
Q 21.96875 62.9375 25.875 52.5625 
Q 29.78125 42.1875 29.78125 28.859375 
z
" id="Roboto-Bold-41"/>
      </defs>
      <use xlink:href="#Roboto-Bold-116"/>
      <use x="33.789062" xlink:href="#Roboto-Bold-105"/>
      <use x="60.302734" xlink:href="#Roboto-Bold-109"/>
      <use x="146.875" xlink:href="#Roboto-Bold-101"/>
      <use x="200.927734" xlink:href="#Roboto-Bold-32"/>
      <use x="225.830078" xlink:href="#Roboto-Bold-40"/>
      <use x="260.9375" xlink:href="#Roboto-Bold-115"/>
      <use x="312.402344" xlink:href="#Roboto-Bold-41"/>
     </g>
    </g>
   </g>
   <g id="matplotlib.axis_6">
    <g id="ytick_9">
     <g id="line2d_40">
      <path clip-path="url(#p7e93db9cea)" d="M 45.68 437.1 
L 882.68 437.1 
" style="fill:none;stroke:#eeeeee;stroke-linecap:square;stroke-width:0.8;"/>
     </g>
     <g id="line2d_41">
      <g>
       <use style="fill:#555555;stroke:#555555;stroke-width:0.8;" x="45.68" xlink:href="#m0366c2bb20" y="437.1"/>
      </g>
     </g>
     <g id="text_18">
      <!-- 0 -->
      <g style="fill:#555555;" transform="translate(29.5 443.1)scale(0.16 -0.16)">
       <use xlink:href="#Roboto-Bold-48"/>
      </g>
     </g>
    </g>
    <g id="ytick_10">
     <g id="line2d_42">
      <path clip-path="url(#p7e93db9cea)" d="M 45.68 398.910811 
L 882.68 398.910811 
" style="fill:none;stroke:#eeeeee;stroke-linecap:square;stroke-width:0.8;"/>
     </g>
     <g id="line2d_43">
      <g>
       <use style="fill:#555555;stroke:#555555;stroke-width:0.8;" x="45.68" xlink:href="#m0366c2bb20" y="398.910811"/>
      </g>
     </g>
     <g id="text_19">
      <!-- 2 -->
      <g style="fill:#555555;" transform="translate(29.5 404.910811)scale(0.16 -0.16)">
       <use xlink:href="#Roboto-Bold-50"/>
      </g>
     </g>
    </g>
    <g id="ytick_11">
     <g id="line2d_44">
      <path clip-path="url(#p7e93db9cea)" d="M 45.68 360.721622 
L 882.68 360.721622 
" style="fill:none;stroke:#eeeeee;stroke-linecap:square;stroke-width:0.8;"/>
     </g>
     <g id="line2d_45">
      <g>
       <use style="fill:#555555;stroke:#555555;stroke-width:0.8;" x="45.68" xlink:href="#m0366c2bb20" y="360.721622"/>
      </g>
     </g>
     <g id="text_20">
      <!-- 4 -->
      <g style="fill:#555555;" transform="translate(29.5 366.721622)scale(0.16 -0.16)">
       <use xlink:href="#Roboto-Bold-52"/>
      </g>
     </g>
    </g>
    <g id="ytick_12">
     <g id="line2d_46">
      <path clip-path="url(#p7e93db9cea)" d="M 45.68 322.532432 
L 882.68 322.532432 
" style="fill:none;stroke:#eeeeee;stroke-linecap:square;stroke-width:0.8;"/>
     </g>
     <g id="line2d_47">
      <g>
       <use style="fill:#555555;stroke:#555555;stroke-width:0.8;" x="45.68" xlink:href="#m0366c2bb20" y="322.532432"/>
      </g>
     </g>
     <g id="text_21">
      <!-- 6 -->
      <g style="fill:#555555;" transform="translate(29.5 328.532432)scale(0.16 -0.16)">
       <use xlink:href="#Roboto-Bold-54"/>
      </g>
     </g>
    </g>
   </g>
   <g id="line2d_48">
    <path clip-path="url(#p7e93db9cea)" d="M 83.725455 382.498094 
L 84.57185 394.947443 
L 86.264639 405.088576 
L 87.111034 400.920147 
L 87.957429 415.91095 
L 88.803824 392.881266 
L 90.496614 418.549934 
L 91.343009 413.824419 
L 92.189404 411.128475 
L 93.035799 395.548492 
L 93.882194 395.653711 
L 94.728589 380.821714 
L 95.574984 415.954465 
L 96.421379 392.959218 
L 97.267774 403.888743 
L 98.114169 410.760029 
L 98.960564 402.486444 
L 99.806959 416.516912 
L 100.653354 397.851758 
L 101.499749 391.862993 
L 102.346144 393.664605 
L 103.192539 399.830001 
L 104.038934 408.761084 
L 104.885329 411.980357 
L 105.731724 410.280348 
L 106.578119 389.586157 
L 107.424514 417.375084 
L 108.270909 413.02977 
L 109.117304 418.019453 
L 109.963699 386.281502 
L 110.810094 400.456765 
L 111.656489 391.684331 
L 112.502884 407.528743 
L 113.349279 386.938489 
L 114.195674 390.059867 
L 115.042069 419.729625 
L 115.888464 413.472667 
L 116.734859 394.811599 
L 118.427649 388.195286 
L 119.274044 418.707225 
L 120.120439 381.334505 
L 120.966834 404.330659 
L 121.813229 392.484142 
L 122.659624 397.761389 
L 123.506019 408.412579 
L 124.352414 394.6238 
L 125.198809 398.394825 
L 126.045204 397.481221 
L 126.891599 400.186694 
L 127.737994 399.450712 
L 128.584389 393.313618 
L 129.430784 405.035575 
L 130.277179 411.130605 
L 131.123574 391.96388 
L 131.969969 397.224859 
L 132.816364 400.441693 
L 133.662759 415.962244 
L 135.355549 396.507409 
L 136.201944 424.933166 
L 137.894734 384.884577 
L 138.741129 406.823547 
L 139.587524 401.899119 
L 140.433918 398.227483 
L 141.280313 389.24296 
L 142.126708 398.542934 
L 142.973103 391.408225 
L 143.819498 404.748672 
L 144.665893 385.18381 
L 145.512288 391.416065 
L 146.358683 413.006234 
L 148.051473 399.471696 
L 148.897868 393.891996 
L 149.744263 403.394012 
L 150.590658 390.079556 
L 151.437053 399.165191 
L 152.283448 403.567988 
L 153.129843 410.108613 
L 153.976238 396.436154 
L 154.822633 403.325795 
L 155.669028 406.892271 
L 156.515423 405.678205 
L 157.361818 386.34534 
L 158.208213 404.275256 
L 159.054608 403.357376 
L 159.901003 388.851913 
L 160.747398 409.583891 
L 161.593793 402.9516 
L 162.440188 411.23531 
L 163.286583 387.295994 
L 164.132978 398.15067 
L 164.979373 411.470598 
L 165.825768 390.262746 
L 166.672163 413.501464 
L 167.518558 392.072674 
L 168.364953 395.874298 
L 169.211348 390.261748 
L 170.057743 395.509055 
L 170.904138 404.893586 
L 171.750533 396.979115 
L 172.596928 394.377684 
L 173.443323 392.521002 
L 174.289718 403.646196 
L 175.136113 404.482152 
L 175.982508 403.052843 
L 176.828903 404.167207 
L 177.675298 404.486876 
L 178.521693 390.021219 
L 179.368088 408.317905 
L 180.214483 394.483352 
L 181.060878 409.472184 
L 181.907273 410.653825 
L 182.753668 394.145808 
L 183.600063 400.48643 
L 184.446458 420.933575 
L 185.292853 391.06588 
L 186.139248 406.855837 
L 186.985643 410.400611 
L 187.832038 394.110479 
L 188.678433 386.439548 
L 189.524828 399.934175 
L 190.371223 401.677315 
L 191.217618 398.53861 
L 192.064013 409.430858 
L 192.910408 403.184717 
L 193.756803 430.631557 
L 194.603197 399.837323 
L 195.449592 409.976847 
L 196.295987 401.076525 
L 197.142382 402.265893 
L 197.988777 393.580932 
L 198.835172 395.926351 
L 199.681567 425.821131 
L 201.374357 398.34662 
L 202.220752 396.595942 
L 203.067147 410.812743 
L 203.913542 386.476612 
L 204.759937 428.668061 
L 205.606332 413.747464 
L 206.452727 379.455967 
L 207.299122 406.823782 
L 208.145517 382.946275 
L 208.991912 408.775394 
L 209.838307 397.20928 
L 210.684702 387.650909 
L 211.531097 403.682459 
L 212.377492 412.146888 
L 213.223887 394.649981 
L 214.070282 409.00589 
L 214.916677 382.232246 
L 215.763072 392.309881 
L 216.609467 409.122116 
L 217.455862 395.554501 
L 218.302257 402.070736 
L 219.148652 387.091839 
L 219.995047 382.742727 
L 220.841442 391.613727 
L 221.687837 392.233409 
L 222.534232 424.182126 
L 223.380627 389.678688 
L 224.227022 400.680093 
L 225.073417 403.868469 
L 225.919812 382.223459 
L 226.766207 412.165293 
L 227.612602 411.285278 
L 228.458997 395.642103 
L 229.305392 392.437443 
L 230.151787 411.843091 
L 230.998182 382.571575 
L 231.844577 403.532835 
L 232.690972 402.131875 
L 233.537367 390.66482 
L 234.383762 397.200267 
L 235.230157 377.264479 
L 236.076552 396.044476 
L 236.922947 387.502386 
L 237.769342 392.628229 
L 238.615737 389.586578 
L 239.462132 389.754382 
L 240.308527 405.606061 
L 241.154922 409.328493 
L 242.001317 395.830586 
L 242.847712 408.814925 
L 243.694107 382.927802 
L 244.540502 418.13382 
L 245.386897 405.587763 
L 246.233292 406.484188 
L 247.079687 407.698643 
L 247.926082 394.032231 
L 248.772476 406.089657 
L 249.618871 393.748304 
L 250.465266 409.930277 
L 251.311661 415.470298 
L 252.158056 397.274809 
L 253.004451 386.453341 
L 253.850846 404.873772 
L 254.697241 404.445422 
L 255.543636 396.781459 
L 256.390031 413.182693 
L 257.236426 384.631533 
L 258.082821 400.721755 
L 258.929216 408.676907 
L 259.775611 404.805958 
L 260.622006 406.498882 
L 261.468401 384.377038 
L 262.314796 400.073907 
L 263.161191 393.057174 
L 264.007586 416.665107 
L 264.853981 419.590911 
L 265.700376 391.493574 
L 266.546771 404.708549 
L 267.393166 408.306888 
L 268.239561 408.669026 
L 269.085956 389.050828 
L 269.932351 397.222318 
L 270.778746 422.029582 
L 271.625141 410.691268 
L 272.471536 412.242838 
L 273.317931 403.261535 
L 274.164326 399.741859 
L 275.010721 398.873339 
L 275.857116 406.060204 
L 276.703511 386.865912 
L 277.549906 399.970141 
L 278.396301 385.422457 
L 279.242696 414.832101 
L 280.089091 418.842992 
L 280.935486 382.242524 
L 281.781881 389.492608 
L 282.628276 403.110379 
L 283.474671 401.583027 
L 284.321066 404.210573 
L 285.167461 403.805142 
L 286.013856 392.511573 
L 286.860251 404.973117 
L 287.706646 403.21049 
L 288.553041 394.985806 
L 289.399436 407.331967 
L 290.245831 406.607805 
L 291.092226 398.036472 
L 291.938621 375.286349 
L 292.785016 406.350483 
L 293.631411 405.029284 
L 294.477806 405.680412 
L 295.324201 392.85226 
L 296.170596 398.593919 
L 297.016991 399.292597 
L 297.863386 383.051866 
L 298.709781 385.512925 
L 299.556176 424.005507 
L 300.402571 382.206532 
L 301.248966 406.637476 
L 302.095361 402.653204 
L 302.941755 414.530629 
L 303.78815 389.17003 
L 304.634545 425.047291 
L 305.48094 400.862832 
L 306.327335 391.585457 
L 307.17373 394.395784 
L 308.020125 398.29888 
L 308.86652 423.64307 
L 309.712915 393.363921 
L 310.55931 403.411354 
L 311.405705 385.959936 
L 312.2521 411.664636 
L 313.098495 386.577948 
L 313.94489 416.13974 
L 314.791285 394.382597 
L 315.63768 416.421141 
L 316.484075 404.365992 
L 317.33047 384.656313 
L 318.176865 388.280128 
L 319.02326 393.918034 
L 319.869655 394.431552 
L 320.71605 395.151859 
L 321.562445 416.922364 
L 322.40884 394.346704 
L 323.255235 413.73613 
L 324.10163 399.941896 
L 324.948025 391.609536 
L 325.79442 420.249587 
L 326.640815 404.891003 
L 327.48721 408.023455 
L 328.333605 407.30741 
L 330.026395 399.930109 
L 330.87279 400.5766 
L 331.719185 400.832391 
L 332.56558 417.936656 
L 333.411975 402.058249 
L 334.25837 406.230089 
L 335.104765 406.414882 
L 335.95116 396.842482 
L 336.797555 391.984123 
L 337.64395 410.687667 
L 338.490345 403.806247 
L 339.33674 414.757418 
L 340.183135 397.110504 
L 341.02953 398.117485 
L 341.875925 394.019871 
L 342.72232 422.595312 
L 343.568715 377.268705 
L 344.41511 408.881943 
L 345.261505 399.19251 
L 346.1079 391.478145 
L 346.954295 399.040635 
L 347.80069 404.126424 
L 348.647085 394.406444 
L 349.49348 408.646724 
L 350.339875 406.234934 
L 351.18627 411.876598 
L 352.032665 404.534118 
L 352.87906 393.836951 
L 353.725455 395.533986 
L 354.57185 402.036854 
L 355.418245 410.292805 
L 356.264639 386.176331 
L 357.111034 406.17088 
L 357.957429 422.315606 
L 358.803824 382.932073 
L 359.650219 388.259024 
L 360.496614 415.758725 
L 361.343009 420.119399 
L 362.189404 414.458884 
L 363.035799 400.860288 
L 363.882194 401.470476 
L 364.728589 397.923651 
L 365.574984 378.128599 
L 366.421379 414.399509 
L 367.267774 393.931683 
L 368.114169 387.099267 
L 368.960564 419.70762 
L 369.806959 416.504551 
L 370.653354 398.18871 
L 371.499749 402.736783 
L 372.346144 423.124431 
L 373.192539 391.62828 
L 374.038934 399.292142 
L 374.885329 408.824511 
L 375.731724 412.419559 
L 376.578119 410.573138 
L 377.424514 392.353916 
L 378.270909 400.91199 
L 379.117304 395.197086 
L 379.963699 400.696105 
L 380.810094 408.611124 
L 381.656489 403.48124 
L 382.502884 406.219367 
L 383.349279 402.604204 
L 384.195674 396.450134 
L 385.042069 415.701206 
L 385.888464 397.586792 
L 386.734859 402.268244 
L 387.581254 395.164958 
L 388.427649 405.011606 
L 389.274044 399.771957 
L 390.120439 397.519886 
L 390.966834 411.35977 
L 391.813229 411.474342 
L 392.659624 412.176304 
L 393.506019 409.293056 
L 394.352414 408.624684 
L 395.198809 416.96271 
L 396.045204 421.613166 
L 396.891599 401.89184 
L 397.737994 408.816132 
L 398.584389 396.513157 
L 399.430784 391.547649 
L 400.277179 407.099521 
L 401.123574 379.886003 
L 401.969969 412.456423 
L 402.816364 391.60306 
L 403.662759 403.304957 
L 404.509154 385.810118 
L 405.355549 394.090243 
L 406.201944 413.452677 
L 407.048339 397.586548 
L 407.894734 405.092251 
L 408.741129 403.106266 
L 409.587524 416.491983 
L 410.433918 419.261652 
L 411.280313 388.540167 
L 412.126708 418.676518 
L 412.973103 387.92714 
L 414.665893 407.154109 
L 415.512288 412.036035 
L 416.358683 385.418315 
L 417.205078 408.981277 
L 418.051473 411.386837 
L 418.897868 386.289697 
L 419.744263 392.313686 
L 420.590658 407.747238 
L 421.437053 391.585725 
L 422.283448 391.594568 
L 423.129843 399.333605 
L 423.976238 414.598592 
L 425.669028 384.909257 
L 426.515423 405.225777 
L 427.361818 413.790962 
L 428.208213 420.673005 
L 429.054608 393.675851 
L 429.901003 405.175337 
L 430.747398 403.407441 
L 431.593793 393.481533 
L 432.440188 400.109911 
L 433.286583 390.273555 
L 434.132978 395.649434 
L 434.979373 420.101462 
L 435.825768 398.593895 
L 436.672163 396.610358 
L 437.518558 398.143579 
L 438.364953 390.163594 
L 439.211348 391.81303 
L 440.057743 394.308609 
L 440.904138 411.105621 
L 441.750533 385.682979 
L 442.596928 391.385959 
L 443.443323 403.791645 
L 444.289718 401.490903 
L 445.136113 410.513022 
L 445.982508 406.951246 
L 446.828903 398.90213 
L 447.675298 372.585462 
L 448.521693 411.96603 
L 449.368088 400.740083 
L 450.214483 404.338818 
L 451.060878 381.24499 
L 451.907273 405.541006 
L 452.753668 401.980641 
L 453.600063 417.826123 
L 454.446458 390.5282 
L 455.292853 402.758952 
L 456.139248 403.067311 
L 456.985643 421.745878 
L 457.832038 396.286918 
L 458.678433 386.875896 
L 459.524828 404.785867 
L 460.371223 407.139981 
L 461.217618 400.807324 
L 462.064013 386.375294 
L 462.910408 420.276244 
L 463.756803 413.955917 
L 464.603197 384.600594 
L 465.449592 398.957326 
L 466.295987 415.627329 
L 467.142382 402.611803 
L 467.988777 418.462057 
L 469.681567 384.26849 
L 470.527962 397.992274 
L 471.374357 378.20234 
L 472.220752 399.551103 
L 473.067147 425.33772 
L 473.913542 384.742568 
L 474.759937 383.523472 
L 475.606332 390.697184 
L 476.452727 383.224997 
L 477.299122 381.717089 
L 478.145517 409.717131 
L 478.991912 394.152573 
L 479.838307 414.508857 
L 480.684702 406.466749 
L 481.531097 404.925177 
L 482.377492 407.624925 
L 483.223887 409.572356 
L 484.070282 389.052399 
L 484.916677 413.636689 
L 485.763072 395.704298 
L 486.609467 400.526293 
L 487.455862 408.189205 
L 488.302257 411.434697 
L 489.148652 403.19379 
L 489.995047 429.740278 
L 490.841442 409.46138 
L 491.687837 399.180101 
L 492.534232 404.088372 
L 493.380627 393.853433 
L 494.227022 413.097736 
L 495.073417 387.121549 
L 496.766207 418.193162 
L 497.612602 404.298612 
L 498.458997 406.350616 
L 499.305392 414.372174 
L 500.151787 401.493905 
L 500.998182 361.77878 
L 501.844577 412.854049 
L 502.690972 413.04902 
L 503.537367 404.700939 
L 504.383762 379.287258 
L 505.230157 401.379008 
L 506.076552 418.034989 
L 506.922947 380.311816 
L 507.769342 395.655004 
L 508.615737 416.017211 
L 509.462132 394.615855 
L 510.308527 403.406864 
L 511.154922 403.039556 
L 512.001317 409.200453 
L 512.847712 398.42691 
L 513.694107 404.791596 
L 514.540502 393.77279 
L 515.386897 400.918088 
L 516.233292 391.719148 
L 517.079687 394.066309 
L 517.926082 410.964208 
L 518.772476 395.710595 
L 519.618871 405.889629 
L 520.465266 407.741957 
L 521.311661 385.471145 
L 522.158056 397.131544 
L 523.004451 417.758965 
L 523.850846 393.039161 
L 524.697241 394.093199 
L 525.543636 407.524096 
L 526.390031 423.654867 
L 527.236426 403.001749 
L 528.082821 404.997654 
L 528.929216 400.669201 
L 529.775611 401.485827 
L 530.622006 393.050378 
L 531.468401 403.330056 
L 532.314796 393.034551 
L 533.161191 391.095518 
L 534.007586 397.530144 
L 534.853981 387.833454 
L 535.700376 387.321447 
L 536.546771 396.778413 
L 537.393166 400.383471 
L 538.239561 407.709881 
L 539.085956 388.930679 
L 539.932351 393.709317 
L 540.778746 388.313939 
L 541.625141 405.222437 
L 542.471536 395.279495 
L 543.317931 410.827661 
L 544.164326 415.635654 
L 545.857116 399.581392 
L 546.703511 403.410998 
L 547.549906 412.24429 
L 548.396301 397.452608 
L 550.089091 416.004981 
L 550.935486 391.570748 
L 551.781881 387.936477 
L 552.628276 394.348028 
L 554.321066 401.006979 
L 555.167461 401.919797 
L 556.013856 400.153234 
L 556.860251 395.152964 
L 557.706646 400.572631 
L 558.553041 407.592276 
L 559.399436 400.293952 
L 560.245831 398.153969 
L 561.092226 397.660415 
L 561.938621 407.206876 
L 562.785016 393.18394 
L 563.631411 416.853165 
L 564.477806 428.489246 
L 565.324201 399.076996 
L 566.170596 425.307688 
L 567.016991 399.684052 
L 567.863386 395.21148 
L 568.709781 389.920949 
L 569.556176 398.074695 
L 570.402571 392.735858 
L 571.248966 402.150763 
L 572.095361 404.777277 
L 572.941755 393.063076 
L 573.78815 421.67621 
L 574.634545 404.424468 
L 575.48094 406.5842 
L 576.327335 390.310246 
L 577.17373 414.563437 
L 578.020125 417.384088 
L 578.86652 414.326351 
L 579.712915 391.286966 
L 580.55931 386.766418 
L 581.405705 421.291558 
L 582.2521 402.750756 
L 583.098495 405.70461 
L 583.94489 401.54287 
L 584.791285 413.3549 
L 585.63768 399.619367 
L 586.484075 406.980532 
L 587.33047 405.358953 
L 588.176865 413.725974 
L 589.02326 396.81055 
L 589.869655 397.58079 
L 590.71605 410.731302 
L 592.40884 396.804408 
L 593.255235 416.773215 
L 594.10163 420.23145 
L 594.948025 406.795009 
L 595.79442 398.730115 
L 596.640815 387.241947 
L 597.48721 406.533757 
L 598.333605 378.282656 
L 600.026395 393.70533 
L 600.87279 399.311803 
L 601.719185 418.626859 
L 602.56558 404.591906 
L 603.411975 395.901128 
L 604.25837 392.118978 
L 605.104765 398.745702 
L 605.95116 401.952156 
L 606.797555 397.210037 
L 607.64395 385.411771 
L 608.490345 400.72275 
L 609.33674 390.796286 
L 610.183135 400.013146 
L 611.02953 403.834549 
L 611.875925 422.956625 
L 612.72232 394.310438 
L 613.568715 396.511982 
L 614.41511 402.935155 
L 615.261505 397.149102 
L 616.1079 405.862189 
L 616.954295 421.711258 
L 617.80069 388.510787 
L 618.647085 409.336985 
L 619.49348 403.80273 
L 620.339875 391.663388 
L 621.18627 398.576883 
L 622.032665 403.252269 
L 622.87906 397.174015 
L 623.725455 408.677093 
L 624.57185 401.097837 
L 625.418245 390.354629 
L 626.264639 407.384139 
L 627.111034 390.115404 
L 627.957429 406.947429 
L 628.803824 402.629764 
L 629.650219 381.791775 
L 630.496614 386.983915 
L 631.343009 402.286433 
L 632.189404 406.887206 
L 633.035799 408.643945 
L 633.882194 389.513252 
L 634.728589 404.197313 
L 635.574984 390.182732 
L 636.421379 393.613613 
L 637.267774 402.124958 
L 638.114169 414.0974 
L 638.960564 390.999827 
L 639.806959 404.252382 
L 640.653354 403.357934 
L 641.499749 397.757579 
L 642.346144 403.352595 
L 644.038934 425.14501 
L 645.731724 402.748984 
L 646.578119 402.388122 
L 647.424514 410.425392 
L 648.270909 411.53036 
L 649.117304 411.802293 
L 649.963699 381.814819 
L 650.810094 406.050963 
L 651.656489 418.274763 
L 652.502884 396.229538 
L 653.349279 403.999532 
L 654.195674 387.987935 
L 655.042069 412.318104 
L 655.888464 409.851073 
L 656.734859 399.46596 
L 657.581254 400.408047 
L 658.427649 402.96531 
L 659.274044 403.041272 
L 660.120439 407.455981 
L 660.966834 393.919483 
L 661.813229 414.043265 
L 662.659624 385.002424 
L 663.506019 384.644224 
L 664.352414 417.621416 
L 665.198809 397.906095 
L 666.045204 394.27602 
L 666.891599 408.537719 
L 667.737994 397.007905 
L 668.584389 406.770037 
L 669.430784 396.167513 
L 670.277179 387.59561 
L 671.123574 415.179232 
L 671.969969 398.287614 
L 672.816364 407.888482 
L 673.662759 407.715631 
L 674.509154 418.812364 
L 675.355549 423.201722 
L 676.201944 400.206418 
L 677.048339 406.042488 
L 677.894734 384.082904 
L 678.741129 405.00211 
L 679.587524 403.679954 
L 680.433918 397.847836 
L 681.280313 404.629141 
L 682.126708 404.377871 
L 682.973103 385.033987 
L 683.819498 418.923278 
L 684.665893 416.576779 
L 685.512288 410.190904 
L 686.358683 382.586895 
L 687.205078 386.103882 
L 688.051473 409.244532 
L 688.897868 398.583853 
L 689.744263 385.92796 
L 690.590658 396.08255 
L 691.437053 424.212885 
L 692.283448 417.249438 
L 693.129843 397.503161 
L 693.976238 421.446039 
L 694.822633 391.144538 
L 695.669028 413.898583 
L 696.515423 396.829599 
L 697.361818 413.449551 
L 698.208213 413.064156 
L 699.054608 404.830318 
L 699.901003 384.467697 
L 700.747398 411.956914 
L 701.593793 404.497094 
L 702.440188 391.45843 
L 703.286583 401.307903 
L 704.132978 374.508912 
L 704.979373 405.732138 
L 705.825768 402.358564 
L 706.672163 402.445597 
L 707.518558 403.097781 
L 708.364953 388.565065 
L 709.211348 407.024627 
L 710.057743 395.517938 
L 710.904138 396.558731 
L 711.750533 413.861844 
L 712.596928 402.141452 
L 713.443323 396.846915 
L 714.289718 394.985674 
L 715.136113 393.568352 
L 715.982508 396.1279 
L 716.828903 416.262912 
L 717.675298 405.651738 
L 718.521693 405.970781 
L 719.368088 391.683943 
L 720.214483 406.338141 
L 721.060878 396.154002 
L 721.907273 399.629184 
L 722.753668 395.144931 
L 723.600063 387.427394 
L 724.446458 400.596285 
L 725.292853 404.944297 
L 726.139248 413.096133 
L 726.985643 391.394933 
L 727.832038 400.59312 
L 728.678433 406.252714 
L 729.524828 406.095765 
L 730.371223 400.201768 
L 731.217618 417.393149 
L 732.064013 414.08018 
L 732.910408 390.193113 
L 733.756803 372.736692 
L 734.603197 399.835969 
L 735.449592 403.209867 
L 736.295987 416.76883 
L 737.142382 371.222179 
L 737.988777 400.03155 
L 738.835172 391.134988 
L 739.681567 400.963866 
L 740.527962 377.636465 
L 741.374357 383.575433 
L 742.220752 395.893227 
L 743.067147 415.791753 
L 743.913542 393.149346 
L 744.759937 400.707022 
L 745.606332 416.621162 
L 747.299122 394.986122 
L 748.145517 420.419643 
L 748.991912 412.334225 
L 749.838307 405.837327 
L 750.684702 402.131023 
L 751.531097 397.387916 
L 752.377492 397.929582 
L 753.223887 408.201499 
L 754.070282 393.604965 
L 754.916677 399.497345 
L 755.763072 391.04218 
L 756.609467 405.329199 
L 757.455862 403.574241 
L 758.302257 397.620079 
L 759.148652 393.993965 
L 759.995047 379.251958 
L 760.841442 388.612575 
L 761.687837 417.922588 
L 762.534232 382.820087 
L 763.380627 422.785508 
L 765.073417 378.727359 
L 765.919812 411.464115 
L 766.766207 402.170475 
L 767.612602 412.562032 
L 768.458997 393.436427 
L 769.305392 405.437548 
L 770.151787 391.070517 
L 770.998182 408.089588 
L 771.844577 398.2396 
L 772.690972 427.893781 
L 773.537367 391.939312 
L 774.383762 413.182337 
L 775.230157 394.498157 
L 776.076552 397.331318 
L 776.922947 404.196598 
L 777.769342 394.155575 
L 779.462132 408.275158 
L 780.308527 403.046577 
L 781.154922 390.651498 
L 782.001317 416.628013 
L 782.847712 393.078595 
L 783.694107 386.324992 
L 784.540502 416.843081 
L 785.386897 395.28771 
L 786.233292 412.04542 
L 787.079687 404.596501 
L 787.926082 391.432361 
L 788.772476 412.415393 
L 789.618871 399.08414 
L 790.465266 400.746361 
L 791.311661 411.530953 
L 792.158056 414.577922 
L 793.004451 408.5573 
L 793.850846 421.836851 
L 794.697241 402.366586 
L 795.543636 392.228222 
L 796.390031 418.572354 
L 797.236426 401.521047 
L 798.082821 412.901159 
L 798.929216 403.593022 
L 799.775611 410.010068 
L 800.622006 389.161243 
L 801.468401 402.72809 
L 802.314796 410.067682 
L 803.161191 393.314654 
L 804.007586 411.581602 
L 804.853981 390.252758 
L 805.700376 393.846603 
L 806.546771 425.982367 
L 807.393166 399.973253 
L 808.239561 398.26112 
L 809.085956 412.590317 
L 809.932351 400.135812 
L 810.778746 394.048123 
L 811.625141 406.530187 
L 812.471536 408.324911 
L 813.317931 400.493302 
L 814.164326 427.931543 
L 815.857116 400.683284 
L 817.549906 432.409678 
L 818.396301 386.673067 
L 819.242696 390.76217 
L 820.089091 386.850344 
L 820.935486 400.019877 
L 821.781881 417.928656 
L 822.628276 397.912872 
L 823.474671 401.250596 
L 824.321066 395.200762 
L 825.167461 430.227118 
L 826.013856 411.653091 
L 826.860251 407.92953 
L 827.706646 394.582354 
L 828.553041 398.081909 
L 829.399436 410.329088 
L 830.245831 416.318067 
L 831.092226 408.803567 
L 831.938621 395.049 
L 832.785016 403.543044 
L 833.631411 407.365605 
L 834.477806 403.225586 
L 835.324201 405.73808 
L 836.170596 380.04027 
L 837.016991 424.991915 
L 837.863386 386.059785 
L 838.709781 397.040942 
L 839.556176 400.05458 
L 840.402571 382.507124 
L 841.248966 413.913099 
L 842.095361 397.464121 
L 842.941755 397.523206 
L 843.78815 407.727468 
L 844.634545 390.141147 
L 844.634545 390.141147 
" style="fill:none;stroke:#1f77b4;stroke-linecap:square;stroke-width:1.5;"/>
   </g>
   <g id="patch_9">
    <path d="M 45.68 437.1 
L 45.68 322.532432 
" style="fill:none;stroke:#555555;stroke-linecap:square;stroke-linejoin:miter;"/>
   </g>
   <g id="patch_10">
    <path d="M 45.68 437.1 
L 882.68 437.1 
" style="fill:none;stroke:#555555;stroke-linecap:square;stroke-linejoin:miter;"/>
   </g>
  </g>
 </g>
 <defs>
  <clipPath id="p9bc97b315f">
   <rect height="114.567568" width="837" x="45.68" y="13.2"/>
  </clipPath>
  <clipPath id="pf961e15ade">
   <rect height="114.567568" width="837" x="45.68" y="167.866216"/>
  </clipPath>
  <clipPath id="p7e93db9cea">
   <rect height="114.567568" width="837" x="45.68" y="322.532432"/>
  </clipPath>
 </defs>
</svg>
