<?xml version="1.0" encoding="utf-8" standalone="no"?>
<!DOCTYPE svg PUBLIC "-//W3C//DTD SVG 1.1//EN"
  "http://www.w3.org/Graphics/SVG/1.1/DTD/svg11.dtd">
<!-- Created with matplotlib (https://matplotlib.org/) -->
<svg height="540.93pt" version="1.1" viewBox="0 0 753.504294 540.93" width="753.504294pt" xmlns="http://www.w3.org/2000/svg" xmlns:xlink="http://www.w3.org/1999/xlink">
 <metadata>
  <rdf:RDF xmlns:cc="http://creativecommons.org/ns#" xmlns:dc="http://purl.org/dc/elements/1.1/" xmlns:rdf="http://www.w3.org/1999/02/22-rdf-syntax-ns#">
   <cc:Work>
    <dc:type rdf:resource="http://purl.org/dc/dcmitype/StillImage"/>
    <dc:date>2021-05-03T17:13:38.099354</dc:date>
    <dc:format>image/svg+xml</dc:format>
    <dc:creator>
     <cc:Agent>
      <dc:title>Matplotlib v3.3.4, https://matplotlib.org/</dc:title>
     </cc:Agent>
    </dc:creator>
   </cc:Work>
  </rdf:RDF>
 </metadata>
 <defs>
  <style type="text/css">*{stroke-linecap:butt;stroke-linejoin:round;}</style>
 </defs>
 <g id="figure_1">
  <g id="patch_1">
   <path d="M 0 540.93 
L 753.504294 540.93 
L 753.504294 0 
L 0 0 
z
" style="fill:#ffffff;"/>
  </g>
  <g id="axes_1">
   <g id="patch_2">
    <path d="M 81.0935 468 
L 527.4935 468 
L 527.4935 7.2 
L 81.0935 7.2 
z
" style="fill:#ffffff;"/>
   </g>
   <g id="matplotlib.axis_1">
    <g id="xtick_1">
     <g id="line2d_1">
      <defs>
       <path d="M 0 0 
L 0 3.5 
" id="mba6a7a4ee0" style="stroke:#555555;stroke-width:0.8;"/>
      </defs>
      <g>
       <use style="fill:#555555;stroke:#555555;stroke-width:0.8;" x="103.466485" xlink:href="#mba6a7a4ee0" y="468"/>
      </g>
     </g>
     <g id="text_1">
      <!-- 8.7 -->
      <g style="fill:#555555;" transform="translate(91.957735 487)scale(0.16 -0.16)">
       <defs>
        <path d="M 52.640625 19.484375 
Q 52.640625 9.421875 45.828125 4.21875 
Q 39.015625 -0.984375 28.703125 -0.984375 
Q 18.40625 -0.984375 11.5 4.21875 
Q 4.59375 9.421875 4.59375 19.484375 
Q 4.59375 25.390625 7.640625 29.8125 
Q 10.6875 34.234375 15.828125 36.671875 
Q 11.328125 39.015625 8.734375 43.046875 
Q 6.15625 47.078125 6.15625 52.203125 
Q 6.15625 61.859375 12.5 66.984375 
Q 18.84375 72.125 28.609375 72.125 
Q 38.53125 72.125 44.84375 66.984375 
Q 51.171875 61.859375 51.171875 52.203125 
Q 51.171875 47.015625 48.5625 43.015625 
Q 45.953125 39.015625 41.453125 36.625 
Q 46.578125 34.1875 49.609375 29.78125 
Q 52.640625 25.390625 52.640625 19.484375 
z
M 37.0625 51.515625 
Q 37.0625 55.671875 34.84375 58.203125 
Q 32.625 60.75 28.609375 60.75 
Q 24.703125 60.75 22.484375 58.28125 
Q 20.265625 55.8125 20.265625 51.515625 
Q 20.265625 47.3125 22.484375 44.71875 
Q 24.703125 42.140625 28.703125 42.140625 
Q 32.71875 42.140625 34.890625 44.71875 
Q 37.0625 47.3125 37.0625 51.515625 
z
M 38.53125 20.515625 
Q 38.53125 25.296875 35.796875 28.03125 
Q 33.0625 30.765625 28.609375 30.765625 
Q 24.171875 30.765625 21.453125 28.03125 
Q 18.75 25.296875 18.75 20.515625 
Q 18.75 15.765625 21.453125 13.078125 
Q 24.171875 10.40625 28.71875 10.40625 
Q 33.203125 10.40625 35.859375 13.078125 
Q 38.53125 15.765625 38.53125 20.515625 
z
" id="Roboto-Bold-56"/>
        <path d="M 6.15625 6.984375 
Q 6.15625 10.203125 8.328125 12.375 
Q 10.5 14.546875 14.15625 14.546875 
Q 17.828125 14.546875 19.96875 12.375 
Q 22.125 10.203125 22.125 6.984375 
Q 22.125 3.8125 19.96875 1.640625 
Q 17.828125 -0.53125 14.15625 -0.53125 
Q 10.5 -0.53125 8.328125 1.640625 
Q 6.15625 3.8125 6.15625 6.984375 
z
" id="Roboto-Bold-46"/>
        <path d="M 53.21875 71.09375 
L 53.21875 63.234375 
L 25.734375 0 
L 10.84375 0 
L 38.328125 59.71875 
L 2.984375 59.71875 
L 2.984375 71.09375 
z
" id="Roboto-Bold-55"/>
       </defs>
       <use xlink:href="#Roboto-Bold-56"/>
       <use x="57.373047" xlink:href="#Roboto-Bold-46"/>
       <use x="86.474609" xlink:href="#Roboto-Bold-55"/>
      </g>
     </g>
    </g>
    <g id="xtick_2">
     <g id="line2d_2">
      <g>
       <use style="fill:#555555;stroke:#555555;stroke-width:0.8;" x="155.235672" xlink:href="#mba6a7a4ee0" y="468"/>
      </g>
     </g>
     <g id="text_2">
      <!-- 8.8 -->
      <g style="fill:#555555;" transform="translate(143.726922 487)scale(0.16 -0.16)">
       <use xlink:href="#Roboto-Bold-56"/>
       <use x="57.373047" xlink:href="#Roboto-Bold-46"/>
       <use x="86.474609" xlink:href="#Roboto-Bold-56"/>
      </g>
     </g>
    </g>
    <g id="xtick_3">
     <g id="line2d_3">
      <g>
       <use style="fill:#555555;stroke:#555555;stroke-width:0.8;" x="207.004859" xlink:href="#mba6a7a4ee0" y="468"/>
      </g>
     </g>
     <g id="text_3">
      <!-- 8.9 -->
      <g style="fill:#555555;" transform="translate(195.496109 487)scale(0.16 -0.16)">
       <defs>
        <path d="M 52.203125 38.1875 
Q 52.203125 20.84375 43.328125 10.15625 
Q 34.46875 -0.53125 16.609375 -0.734375 
L 14.84375 -0.734375 
L 14.84375 11.078125 
L 16.015625 11.078125 
Q 26.609375 11.140625 31.859375 15.59375 
Q 37.109375 20.0625 37.9375 28.46875 
Q 32.28125 23 24.953125 23 
Q 14.9375 23 9.59375 29.859375 
Q 4.25 36.71875 4.25 46.96875 
Q 4.25 57.328125 10.71875 64.71875 
Q 17.1875 72.125 28.078125 72.125 
Q 39.0625 72.125 45.625 64.140625 
Q 52.203125 56.15625 52.203125 43.0625 
z
M 18.3125 47.125 
Q 18.3125 41.65625 20.796875 37.75 
Q 23.296875 33.84375 28.421875 33.84375 
Q 31.890625 33.84375 34.375 35.625 
Q 36.859375 37.40625 38.09375 39.9375 
L 38.09375 45.65625 
Q 38.09375 53.21875 35.203125 56.953125 
Q 32.328125 60.6875 28.03125 60.6875 
Q 23.390625 60.6875 20.84375 56.515625 
Q 18.3125 52.34375 18.3125 47.125 
z
" id="Roboto-Bold-57"/>
       </defs>
       <use xlink:href="#Roboto-Bold-56"/>
       <use x="57.373047" xlink:href="#Roboto-Bold-46"/>
       <use x="86.474609" xlink:href="#Roboto-Bold-57"/>
      </g>
     </g>
    </g>
    <g id="xtick_4">
     <g id="line2d_4">
      <g>
       <use style="fill:#555555;stroke:#555555;stroke-width:0.8;" x="258.774047" xlink:href="#mba6a7a4ee0" y="468"/>
      </g>
     </g>
     <g id="text_4">
      <!-- 9.0 -->
      <g style="fill:#555555;" transform="translate(247.265297 487)scale(0.16 -0.16)">
       <defs>
        <path d="M 52.6875 29.4375 
Q 52.6875 13.375 46.09375 6.1875 
Q 39.5 -0.984375 28.75 -0.984375 
Q 18.015625 -0.984375 11.34375 6.1875 
Q 4.6875 13.375 4.6875 29.4375 
L 4.6875 41.796875 
Q 4.6875 57.8125 11.296875 64.9375 
Q 17.921875 72.078125 28.65625 72.078125 
Q 39.359375 72.078125 46 64.984375 
Q 52.640625 57.90625 52.6875 42.046875 
z
M 38.578125 43.75 
Q 38.578125 53.21875 35.984375 56.953125 
Q 33.40625 60.6875 28.65625 60.6875 
Q 24.03125 60.6875 21.4375 57.03125 
Q 18.84375 53.375 18.796875 44.140625 
L 18.796875 27.546875 
Q 18.796875 18.015625 21.40625 14.203125 
Q 24.03125 10.40625 28.765625 10.40625 
Q 33.40625 10.40625 35.96875 14.140625 
Q 38.53125 17.875 38.578125 27.15625 
z
" id="Roboto-Bold-48"/>
       </defs>
       <use xlink:href="#Roboto-Bold-57"/>
       <use x="57.373047" xlink:href="#Roboto-Bold-46"/>
       <use x="86.474609" xlink:href="#Roboto-Bold-48"/>
      </g>
     </g>
    </g>
    <g id="xtick_5">
     <g id="line2d_5">
      <g>
       <use style="fill:#555555;stroke:#555555;stroke-width:0.8;" x="310.543234" xlink:href="#mba6a7a4ee0" y="468"/>
      </g>
     </g>
     <g id="text_5">
      <!-- 9.1 -->
      <g style="fill:#555555;" transform="translate(299.034484 487)scale(0.16 -0.16)">
       <defs>
        <path d="M 39.109375 71.1875 
L 39.109375 0 
L 25 0 
L 25 54.4375 
L 8.203125 49.21875 
L 8.203125 60.640625 
L 37.59375 71.1875 
z
" id="Roboto-Bold-49"/>
       </defs>
       <use xlink:href="#Roboto-Bold-57"/>
       <use x="57.373047" xlink:href="#Roboto-Bold-46"/>
       <use x="86.474609" xlink:href="#Roboto-Bold-49"/>
      </g>
     </g>
    </g>
    <g id="xtick_6">
     <g id="line2d_6">
      <g>
       <use style="fill:#555555;stroke:#555555;stroke-width:0.8;" x="362.312421" xlink:href="#mba6a7a4ee0" y="468"/>
      </g>
     </g>
     <g id="text_6">
      <!-- 9.2 -->
      <g style="fill:#555555;" transform="translate(350.803671 487)scale(0.16 -0.16)">
       <defs>
        <path d="M 53.5625 11.375 
L 53.5625 0 
L 4.890625 0 
L 4.890625 9.671875 
L 27.875 34.1875 
Q 33.0625 39.890625 35.078125 43.625 
Q 37.109375 47.359375 37.109375 50.53125 
Q 37.109375 55.28125 34.734375 58.015625 
Q 32.375 60.75 27.9375 60.75 
Q 22.90625 60.75 20.234375 57.328125 
Q 17.578125 53.90625 17.578125 48.734375 
L 3.46875 48.734375 
Q 3.46875 58.34375 10.078125 65.234375 
Q 16.703125 72.125 28.171875 72.125 
Q 39.359375 72.125 45.3125 66.71875 
Q 51.265625 61.328125 51.265625 51.953125 
Q 51.265625 44.921875 47.09375 38.59375 
Q 42.921875 32.28125 35.6875 24.703125 
L 23 11.375 
z
" id="Roboto-Bold-50"/>
       </defs>
       <use xlink:href="#Roboto-Bold-57"/>
       <use x="57.373047" xlink:href="#Roboto-Bold-46"/>
       <use x="86.474609" xlink:href="#Roboto-Bold-50"/>
      </g>
     </g>
    </g>
    <g id="xtick_7">
     <g id="line2d_7">
      <g>
       <use style="fill:#555555;stroke:#555555;stroke-width:0.8;" x="414.081609" xlink:href="#mba6a7a4ee0" y="468"/>
      </g>
     </g>
     <g id="text_7">
      <!-- 9.3 -->
      <g style="fill:#555555;" transform="translate(402.572859 487)scale(0.16 -0.16)">
       <defs>
        <path d="M 19.234375 30.765625 
L 19.234375 41.84375 
L 26.765625 41.84375 
Q 32.078125 41.84375 34.6875 44.5 
Q 37.3125 47.171875 37.3125 51.65625 
Q 37.3125 55.609375 34.9375 58.171875 
Q 32.5625 60.75 27.6875 60.75 
Q 23.828125 60.75 20.96875 58.59375 
Q 18.109375 56.453125 18.109375 52.6875 
L 4 52.6875 
Q 4 61.46875 10.78125 66.796875 
Q 17.578125 72.125 27.296875 72.125 
Q 38.09375 72.125 44.75 66.96875 
Q 51.421875 61.8125 51.421875 51.859375 
Q 51.421875 47.265625 48.578125 43.09375 
Q 45.75 38.921875 40.578125 36.53125 
Q 46.53125 34.421875 49.5 30.09375 
Q 52.484375 25.78125 52.484375 19.96875 
Q 52.484375 9.96875 45.28125 4.484375 
Q 38.09375 -0.984375 27.296875 -0.984375 
Q 21.296875 -0.984375 15.75 1.21875 
Q 10.203125 3.421875 6.65625 7.9375 
Q 3.125 12.453125 3.125 19.484375 
L 17.28125 19.484375 
Q 17.28125 15.53125 20.234375 12.96875 
Q 23.1875 10.40625 27.6875 10.40625 
Q 32.71875 10.40625 35.546875 13.078125 
Q 38.375 15.765625 38.375 20.171875 
Q 38.375 30.765625 26.65625 30.765625 
z
" id="Roboto-Bold-51"/>
       </defs>
       <use xlink:href="#Roboto-Bold-57"/>
       <use x="57.373047" xlink:href="#Roboto-Bold-46"/>
       <use x="86.474609" xlink:href="#Roboto-Bold-51"/>
      </g>
     </g>
    </g>
    <g id="xtick_8">
     <g id="line2d_8">
      <g>
       <use style="fill:#555555;stroke:#555555;stroke-width:0.8;" x="465.850796" xlink:href="#mba6a7a4ee0" y="468"/>
      </g>
     </g>
     <g id="text_8">
      <!-- 9.4 -->
      <g style="fill:#555555;" transform="translate(454.342046 487)scale(0.16 -0.16)">
       <defs>
        <path d="M 2.734375 24.265625 
L 32.375 71.09375 
L 46.625 71.09375 
L 46.625 26.765625 
L 54.6875 26.765625 
L 54.6875 15.375 
L 46.625 15.375 
L 46.625 0 
L 32.515625 0 
L 32.515625 15.375 
L 3.375 15.375 
z
M 16.75 26.765625 
L 32.515625 26.765625 
L 32.515625 52 
L 31.546875 50.296875 
z
" id="Roboto-Bold-52"/>
       </defs>
       <use xlink:href="#Roboto-Bold-57"/>
       <use x="57.373047" xlink:href="#Roboto-Bold-46"/>
       <use x="86.474609" xlink:href="#Roboto-Bold-52"/>
      </g>
     </g>
    </g>
    <g id="xtick_9">
     <g id="line2d_9">
      <g>
       <use style="fill:#555555;stroke:#555555;stroke-width:0.8;" x="517.619984" xlink:href="#mba6a7a4ee0" y="468"/>
      </g>
     </g>
     <g id="text_9">
      <!-- 9.5 -->
      <g style="fill:#555555;" transform="translate(506.111234 487)scale(0.16 -0.16)">
       <defs>
        <path d="M 18.21875 32.234375 
L 6.984375 34.96875 
L 11.03125 71.09375 
L 50.875 71.09375 
L 50.875 59.375 
L 22.65625 59.375 
L 20.90625 44.046875 
Q 25.78125 46.734375 31.546875 46.734375 
Q 41.890625 46.734375 47.546875 40.421875 
Q 53.21875 34.125 53.21875 22.859375 
Q 53.21875 13.375 47.359375 6.1875 
Q 41.5 -0.984375 29.25 -0.984375 
Q 20.015625 -0.984375 12.71875 4.484375 
Q 5.421875 9.96875 5.171875 19.828125 
L 19.140625 19.828125 
Q 20.0625 10.40625 29.15625 10.40625 
Q 34.46875 10.40625 36.78125 14.234375 
Q 39.109375 18.0625 39.109375 23.640625 
Q 39.109375 29.25 36.328125 32.6875 
Q 33.546875 36.140625 27.6875 36.140625 
Q 23.828125 36.140625 21.71875 34.890625 
Q 19.625 33.640625 18.21875 32.234375 
z
" id="Roboto-Bold-53"/>
       </defs>
       <use xlink:href="#Roboto-Bold-57"/>
       <use x="57.373047" xlink:href="#Roboto-Bold-46"/>
       <use x="86.474609" xlink:href="#Roboto-Bold-53"/>
      </g>
     </g>
    </g>
    <g id="text_10">
     <!--  -->
     <g style="fill:#555555;" transform="translate(304.2935 508.65)scale(0.192 -0.192)"/>
     <!-- stimulus differentiation -->
     <g style="fill:#555555;" transform="translate(202.9895 529.83)scale(0.192 -0.192)">
      <defs>
       <path d="M 34.03125 14.65625 
Q 34.03125 16.890625 31.953125 18.421875 
Q 29.890625 19.96875 23.046875 21.4375 
Q 14.890625 23.1875 9.65625 26.890625 
Q 4.4375 30.609375 4.4375 37.40625 
Q 4.4375 44 10.03125 48.90625 
Q 15.625 53.8125 25.484375 53.8125 
Q 35.796875 53.8125 41.703125 48.96875 
Q 47.609375 44.140625 47.609375 36.765625 
L 33.5 36.765625 
Q 33.5 39.796875 31.546875 41.796875 
Q 29.59375 43.796875 25.4375 43.796875 
Q 21.921875 43.796875 19.9375 42.15625 
Q 17.96875 40.53125 17.96875 38.09375 
Q 17.96875 35.84375 20.0625 34.375 
Q 22.171875 32.90625 27.828125 31.78125 
Q 36.421875 30.078125 42.078125 26.5625 
Q 47.75 23.046875 47.75 15.1875 
Q 47.75 8.203125 41.75 3.609375 
Q 35.75 -0.984375 25.53125 -0.984375 
Q 14.453125 -0.984375 8.59375 4.703125 
Q 2.734375 10.40625 2.734375 16.84375 
L 16.15625 16.84375 
Q 16.359375 12.703125 19.21875 10.890625 
Q 22.078125 9.078125 25.828125 9.078125 
Q 34.03125 9.078125 34.03125 14.65625 
z
" id="Roboto-Bold-115"/>
       <path d="M 31.890625 0.34375 
Q 27.9375 -0.984375 23.390625 -0.984375 
Q 16.453125 -0.984375 12.34375 2.625 
Q 8.25 6.25 8.25 14.65625 
L 8.25 42.53125 
L 0.484375 42.53125 
L 0.484375 52.828125 
L 8.25 52.828125 
L 8.25 65.875 
L 22.359375 65.875 
L 22.359375 52.828125 
L 31.34375 52.828125 
L 31.34375 42.53125 
L 22.359375 42.53125 
L 22.359375 16.109375 
Q 22.359375 12.796875 23.71875 11.71875 
Q 25.09375 10.640625 27.78125 10.640625 
Q 29.9375 10.640625 31.890625 11.03125 
z
" id="Roboto-Bold-116"/>
       <path d="M 5.328125 66.5 
Q 5.328125 69.671875 7.46875 71.75 
Q 9.625 73.828125 13.234375 73.828125 
Q 16.84375 73.828125 18.984375 71.75 
Q 21.140625 69.671875 21.140625 66.5 
Q 21.140625 63.375 18.984375 61.296875 
Q 16.84375 59.234375 13.234375 59.234375 
Q 9.625 59.234375 7.46875 61.296875 
Q 5.328125 63.375 5.328125 66.5 
z
M 20.359375 52.828125 
L 20.359375 0 
L 6.203125 0 
L 6.203125 52.828125 
z
" id="Roboto-Bold-105"/>
       <path d="M 28.21875 42.390625 
Q 22.359375 42.390625 19.578125 37.40625 
L 19.578125 0 
L 5.421875 0 
L 5.421875 52.828125 
L 18.703125 52.828125 
L 19.1875 47.015625 
Q 24.703125 53.8125 34.328125 53.8125 
Q 44.53125 53.8125 48.34375 45.75 
Q 53.765625 53.8125 64.203125 53.8125 
Q 71.828125 53.8125 76.46875 49.3125 
Q 81.109375 44.828125 81.15625 33.890625 
L 81.15625 0 
L 67 0 
L 67 33.6875 
Q 67 38.96875 64.875 40.671875 
Q 62.75 42.390625 59.078125 42.390625 
Q 52.828125 42.390625 50.34375 36.46875 
L 50.34375 0 
L 36.234375 0 
L 36.234375 33.59375 
Q 36.234375 38.8125 34.078125 40.59375 
Q 31.9375 42.390625 28.21875 42.390625 
z
" id="Roboto-Bold-109"/>
       <path d="M 37.5 0 
L 37.109375 5.421875 
Q 31.9375 -0.984375 22.65625 -0.984375 
Q 14.890625 -0.984375 10.03125 3.5625 
Q 5.171875 8.109375 5.125 18.453125 
L 5.125 52.828125 
L 19.234375 52.828125 
L 19.234375 18.5625 
Q 19.234375 14.15625 21.328125 12.328125 
Q 23.4375 10.5 26.703125 10.5 
Q 33.890625 10.5 36.625 15.53125 
L 36.625 52.828125 
L 50.78125 52.828125 
L 50.78125 0 
z
" id="Roboto-Bold-117"/>
       <path d="M 20.359375 75 
L 20.359375 0 
L 6.203125 0 
L 6.203125 75 
z
" id="Roboto-Bold-108"/>
       <path id="Roboto-Bold-32"/>
       <path d="M 38.09375 0 
L 37.40625 5.609375 
Q 32.171875 -0.984375 23.875 -0.984375 
Q 14.0625 -0.984375 8.640625 6.640625 
Q 3.21875 14.265625 3.21875 25.78125 
L 3.21875 26.8125 
Q 3.21875 38.875 8.640625 46.34375 
Q 14.0625 53.8125 23.96875 53.8125 
Q 31.6875 53.8125 36.671875 48.09375 
L 36.671875 75 
L 50.828125 75 
L 50.828125 0 
z
M 17.390625 25.78125 
Q 17.390625 19.4375 19.625 14.96875 
Q 21.875 10.5 27.4375 10.5 
Q 33.890625 10.5 36.671875 15.96875 
L 36.671875 36.921875 
Q 33.984375 42.390625 27.546875 42.390625 
Q 22.015625 42.390625 19.703125 37.890625 
Q 17.390625 33.40625 17.390625 25.78125 
z
" id="Roboto-Bold-100"/>
       <path d="M 33.9375 42.53125 
L 23.4375 42.53125 
L 23.4375 0 
L 9.28125 0 
L 9.28125 42.53125 
L 1.421875 42.53125 
L 1.421875 52.828125 
L 9.28125 52.828125 
L 9.28125 57.421875 
Q 9.28125 66.453125 14.5 71.234375 
Q 19.734375 76.03125 28.65625 76.03125 
Q 32.078125 76.03125 35.890625 75.046875 
L 35.75 64.109375 
Q 33.890625 64.546875 31.390625 64.546875 
Q 23.578125 64.546875 23.4375 57.671875 
L 23.4375 52.828125 
L 33.9375 52.828125 
z
" id="Roboto-Bold-102"/>
       <path d="M 50.390625 8.59375 
Q 47.859375 4.984375 42.671875 2 
Q 37.5 -0.984375 29.78125 -0.984375 
Q 17.484375 -0.984375 10.546875 6.46875 
Q 3.609375 13.921875 3.5625 24.46875 
L 3.5625 26.515625 
Q 3.5625 38.484375 10.21875 46.140625 
Q 16.890625 53.8125 28.21875 53.8125 
Q 39.59375 53.8125 45.546875 46.671875 
Q 51.515625 39.546875 51.515625 27.828125 
L 51.515625 21.828125 
L 17.875 21.828125 
Q 18.609375 16.703125 21.921875 13.546875 
Q 25.25 10.40625 30.671875 10.40625 
Q 38.71875 10.40625 43.40625 16.3125 
z
M 28.125 42.4375 
Q 23.640625 42.4375 21.1875 39.40625 
Q 18.75 36.375 18.015625 31.5 
L 37.640625 31.5 
L 37.640625 32.5625 
Q 37.546875 36.8125 35.28125 39.625 
Q 33.015625 42.4375 28.125 42.4375 
z
" id="Roboto-Bold-101"/>
       <path d="M 30.03125 40.046875 
Q 22.078125 40.046875 19.578125 34.625 
L 19.578125 0 
L 5.421875 0 
L 5.421875 52.828125 
L 18.75 52.828125 
L 19.1875 46.53125 
Q 23.34375 53.8125 30.953125 53.8125 
Q 33.640625 53.8125 35.296875 53.171875 
L 35.15625 39.65625 
z
" id="Roboto-Bold-114"/>
       <path d="M 28.21875 42.390625 
Q 22.21875 42.390625 19.28125 37.3125 
L 19.28125 0 
L 5.171875 0 
L 5.171875 52.828125 
L 18.40625 52.828125 
L 18.890625 46.78125 
Q 24.5625 53.8125 34.078125 53.8125 
Q 41.546875 53.8125 46.140625 49.359375 
Q 50.734375 44.921875 50.78125 33.890625 
L 50.78125 0 
L 36.625 0 
L 36.625 33.6875 
Q 36.625 38.765625 34.453125 40.578125 
Q 32.28125 42.390625 28.21875 42.390625 
z
" id="Roboto-Bold-110"/>
       <path d="M 36.03125 0 
Q 35.15625 1.859375 34.625 4.734375 
Q 29.5 -0.984375 21.296875 -0.984375 
Q 13.71875 -0.984375 8.546875 3.484375 
Q 3.375 7.953125 3.375 14.84375 
Q 3.375 23.140625 9.515625 27.703125 
Q 15.671875 32.28125 27.734375 32.28125 
L 34.03125 32.28125 
L 34.03125 35.359375 
Q 34.03125 39.015625 32.15625 41.1875 
Q 30.28125 43.359375 26.21875 43.359375 
Q 18.65625 43.359375 18.65625 37.015625 
L 4.546875 37.015625 
Q 4.546875 43.890625 10.640625 48.84375 
Q 16.75 53.8125 27 53.8125 
Q 36.140625 53.8125 42.15625 49.171875 
Q 48.1875 44.53125 48.1875 35.25 
L 48.1875 11.71875 
Q 48.296875 4.6875 50.296875 0.828125 
L 50.296875 0 
z
M 24.359375 9.8125 
Q 27.9375 9.8125 30.4375 11.390625 
Q 32.953125 12.984375 34.03125 14.890625 
L 34.03125 24.078125 
L 28.265625 24.078125 
Q 22.65625 24.078125 20.0625 21.703125 
Q 17.484375 19.34375 17.484375 15.875 
Q 17.484375 13.234375 19.3125 11.515625 
Q 21.140625 9.8125 24.359375 9.8125 
z
" id="Roboto-Bold-97"/>
       <path d="M 3.21875 26.90625 
Q 3.21875 38.421875 9.765625 46.109375 
Q 16.3125 53.8125 28.21875 53.8125 
Q 40.28125 53.8125 46.765625 46.109375 
Q 53.265625 38.421875 53.265625 26.90625 
L 53.265625 25.875 
Q 53.265625 14.359375 46.765625 6.6875 
Q 40.28125 -0.984375 28.328125 -0.984375 
Q 16.453125 -0.984375 9.9375 6.484375 
Q 3.421875 13.96875 3.21875 25.25 
z
M 17.390625 25.875 
Q 17.390625 19.4375 19.84375 14.921875 
Q 22.3125 10.40625 28.328125 10.40625 
Q 34.234375 10.40625 36.6875 14.890625 
Q 39.15625 19.390625 39.15625 26.90625 
Q 39.15625 33.203125 36.6875 37.8125 
Q 34.234375 42.4375 28.21875 42.4375 
Q 22.265625 42.4375 19.828125 37.84375 
Q 17.390625 33.25 17.390625 25.875 
z
" id="Roboto-Bold-111"/>
      </defs>
      <use xlink:href="#Roboto-Bold-115"/>
      <use x="51.464844" xlink:href="#Roboto-Bold-116"/>
      <use x="85.253906" xlink:href="#Roboto-Bold-105"/>
      <use x="111.767578" xlink:href="#Roboto-Bold-109"/>
      <use x="198.339844" xlink:href="#Roboto-Bold-117"/>
      <use x="254.345703" xlink:href="#Roboto-Bold-108"/>
      <use x="280.859375" xlink:href="#Roboto-Bold-117"/>
      <use x="336.865234" xlink:href="#Roboto-Bold-115"/>
      <use x="388.330078" xlink:href="#Roboto-Bold-32"/>
      <use x="413.232422" xlink:href="#Roboto-Bold-100"/>
      <use x="469.628906" xlink:href="#Roboto-Bold-105"/>
      <use x="496.142578" xlink:href="#Roboto-Bold-102"/>
      <use x="531.982422" xlink:href="#Roboto-Bold-102"/>
      <use x="567.822266" xlink:href="#Roboto-Bold-101"/>
      <use x="621.875" xlink:href="#Roboto-Bold-114"/>
      <use x="658.398438" xlink:href="#Roboto-Bold-101"/>
      <use x="712.451172" xlink:href="#Roboto-Bold-110"/>
      <use x="768.457031" xlink:href="#Roboto-Bold-116"/>
      <use x="802.246094" xlink:href="#Roboto-Bold-105"/>
      <use x="828.759766" xlink:href="#Roboto-Bold-97"/>
      <use x="882.373047" xlink:href="#Roboto-Bold-116"/>
      <use x="916.162109" xlink:href="#Roboto-Bold-105"/>
      <use x="942.675781" xlink:href="#Roboto-Bold-111"/>
      <use x="999.21875" xlink:href="#Roboto-Bold-110"/>
     </g>
    </g>
   </g>
   <g id="matplotlib.axis_2">
    <g id="ytick_1">
     <g id="line2d_10">
      <path clip-path="url(#p8ee442bc51)" d="M 81.0935 465.109994 
L 527.4935 465.109994 
" style="fill:none;stroke:#eeeeee;stroke-linecap:square;stroke-width:0.8;"/>
     </g>
     <g id="line2d_11">
      <defs>
       <path d="M 0 0 
L -3.5 0 
" id="m0362b8467b" style="stroke:#555555;stroke-width:0.8;"/>
      </defs>
      <g>
       <use style="fill:#555555;stroke:#555555;stroke-width:0.8;" x="81.0935" xlink:href="#m0362b8467b" y="465.109994"/>
      </g>
     </g>
     <g id="text_11">
      <!-- 1.4 -->
      <g style="fill:#555555;" transform="translate(51.076 471.109994)scale(0.16 -0.16)">
       <use xlink:href="#Roboto-Bold-49"/>
       <use x="57.373047" xlink:href="#Roboto-Bold-46"/>
       <use x="86.474609" xlink:href="#Roboto-Bold-52"/>
      </g>
     </g>
    </g>
    <g id="ytick_2">
     <g id="line2d_12">
      <path clip-path="url(#p8ee442bc51)" d="M 81.0935 370.078317 
L 527.4935 370.078317 
" style="fill:none;stroke:#eeeeee;stroke-linecap:square;stroke-width:0.8;"/>
     </g>
     <g id="line2d_13">
      <g>
       <use style="fill:#555555;stroke:#555555;stroke-width:0.8;" x="81.0935" xlink:href="#m0362b8467b" y="370.078317"/>
      </g>
     </g>
     <g id="text_12">
      <!-- 1.6 -->
      <g style="fill:#555555;" transform="translate(51.076 376.078317)scale(0.16 -0.16)">
       <defs>
        <path d="M 53.90625 23.4375 
Q 53.90625 13.09375 47.390625 6.046875 
Q 40.875 -0.984375 29.9375 -0.984375 
Q 18.5625 -0.984375 11.75 6.921875 
Q 4.9375 14.84375 4.9375 27.34375 
L 4.9375 32.765625 
Q 4.9375 50 14.453125 60.90625 
Q 23.96875 71.828125 41.15625 71.828125 
L 43.171875 71.828125 
L 43.171875 60.203125 
L 41.75 60.203125 
Q 32.03125 60.0625 26.375 55.28125 
Q 20.515625 50.296875 19.34375 41.796875 
Q 25.046875 47.609375 33.6875 47.609375 
Q 43.75 47.609375 48.828125 40.453125 
Q 53.90625 33.296875 53.90625 23.4375 
z
M 19.046875 25.484375 
Q 19.046875 17.96875 22 14.203125 
Q 24.953125 10.453125 29.6875 10.453125 
Q 34.28125 10.453125 37.03125 14.078125 
Q 39.796875 17.71875 39.796875 23.296875 
Q 39.796875 28.953125 37.03125 32.609375 
Q 34.28125 36.28125 29.390625 36.28125 
Q 25.640625 36.28125 22.953125 34.34375 
Q 20.265625 32.421875 19.046875 29.734375 
z
" id="Roboto-Bold-54"/>
       </defs>
       <use xlink:href="#Roboto-Bold-49"/>
       <use x="57.373047" xlink:href="#Roboto-Bold-46"/>
       <use x="86.474609" xlink:href="#Roboto-Bold-54"/>
      </g>
     </g>
    </g>
    <g id="ytick_3">
     <g id="line2d_14">
      <path clip-path="url(#p8ee442bc51)" d="M 81.0935 275.046639 
L 527.4935 275.046639 
" style="fill:none;stroke:#eeeeee;stroke-linecap:square;stroke-width:0.8;"/>
     </g>
     <g id="line2d_15">
      <g>
       <use style="fill:#555555;stroke:#555555;stroke-width:0.8;" x="81.0935" xlink:href="#m0362b8467b" y="275.046639"/>
      </g>
     </g>
     <g id="text_13">
      <!-- 1.8 -->
      <g style="fill:#555555;" transform="translate(51.076 281.046639)scale(0.16 -0.16)">
       <use xlink:href="#Roboto-Bold-49"/>
       <use x="57.373047" xlink:href="#Roboto-Bold-46"/>
       <use x="86.474609" xlink:href="#Roboto-Bold-56"/>
      </g>
     </g>
    </g>
    <g id="ytick_4">
     <g id="line2d_16">
      <path clip-path="url(#p8ee442bc51)" d="M 81.0935 180.014962 
L 527.4935 180.014962 
" style="fill:none;stroke:#eeeeee;stroke-linecap:square;stroke-width:0.8;"/>
     </g>
     <g id="line2d_17">
      <g>
       <use style="fill:#555555;stroke:#555555;stroke-width:0.8;" x="81.0935" xlink:href="#m0362b8467b" y="180.014962"/>
      </g>
     </g>
     <g id="text_14">
      <!-- 2.0 -->
      <g style="fill:#555555;" transform="translate(51.076 186.014962)scale(0.16 -0.16)">
       <use xlink:href="#Roboto-Bold-50"/>
       <use x="57.373047" xlink:href="#Roboto-Bold-46"/>
       <use x="86.474609" xlink:href="#Roboto-Bold-48"/>
      </g>
     </g>
    </g>
    <g id="ytick_5">
     <g id="line2d_18">
      <path clip-path="url(#p8ee442bc51)" d="M 81.0935 84.983284 
L 527.4935 84.983284 
" style="fill:none;stroke:#eeeeee;stroke-linecap:square;stroke-width:0.8;"/>
     </g>
     <g id="line2d_19">
      <g>
       <use style="fill:#555555;stroke:#555555;stroke-width:0.8;" x="81.0935" xlink:href="#m0362b8467b" y="84.983284"/>
      </g>
     </g>
     <g id="text_15">
      <!-- 2.2 -->
      <g style="fill:#555555;" transform="translate(51.076 90.983284)scale(0.16 -0.16)">
       <use xlink:href="#Roboto-Bold-50"/>
       <use x="57.373047" xlink:href="#Roboto-Bold-46"/>
       <use x="86.474609" xlink:href="#Roboto-Bold-50"/>
      </g>
     </g>
    </g>
    <g id="text_16">
     <!-- neurophysiological differentiation -->
     <g style="fill:#555555;" transform="translate(21.798 383.7255)rotate(-90)scale(0.192 -0.192)">
      <defs>
       <path d="M 32.515625 -0.984375 
Q 24.609375 -0.984375 19.578125 4.640625 
L 19.578125 -20.3125 
L 5.421875 -20.3125 
L 5.421875 52.828125 
L 18.5625 52.828125 
L 19.09375 47.703125 
Q 24.125 53.8125 32.375 53.8125 
Q 42.4375 53.8125 47.734375 46.4375 
Q 53.03125 39.0625 53.03125 27 
L 53.03125 25.984375 
Q 53.03125 14.453125 47.734375 6.734375 
Q 42.4375 -0.984375 32.515625 -0.984375 
z
M 28.71875 42.390625 
Q 22.125 42.390625 19.578125 37.25 
L 19.578125 15.625 
Q 22.21875 10.40625 28.8125 10.40625 
Q 34.328125 10.40625 36.625 14.96875 
Q 38.921875 19.53125 38.921875 27 
Q 38.921875 33.546875 36.546875 37.96875 
Q 34.1875 42.390625 28.71875 42.390625 
z
" id="Roboto-Bold-112"/>
       <path d="M 28.171875 42.390625 
Q 22.015625 42.390625 19.234375 37.640625 
L 19.234375 0 
L 5.125 0 
L 5.125 75 
L 19.234375 75 
L 19.234375 47.125 
Q 24.75 53.8125 33.34375 53.8125 
Q 41.109375 53.8125 45.921875 49.21875 
Q 50.734375 44.625 50.78125 33.546875 
L 50.78125 0 
L 36.625 0 
L 36.625 33.40625 
Q 36.625 38.53125 34.421875 40.453125 
Q 32.234375 42.390625 28.171875 42.390625 
z
" id="Roboto-Bold-104"/>
       <path d="M 12.015625 -21.34375 
Q 9.28125 -21.34375 5.765625 -20.40625 
L 5.765625 -9.71875 
L 7.953125 -9.765625 
Q 12.109375 -9.765625 14.109375 -8.421875 
Q 16.109375 -7.078125 17.140625 -4.15625 
L 18.703125 -0.09375 
L 0.203125 52.828125 
L 15.375 52.828125 
L 25.203125 19.921875 
L 34.96875 52.828125 
L 50.046875 52.828125 
L 28.90625 -7.90625 
Q 27.984375 -10.546875 26.171875 -13.6875 
Q 24.359375 -16.84375 20.96875 -19.09375 
Q 17.578125 -21.34375 12.015625 -21.34375 
z
" id="Roboto-Bold-121"/>
       <path d="M 26.265625 -20.796875 
Q 21.484375 -20.796875 15.75 -18.796875 
Q 10.015625 -16.796875 6.59375 -12.546875 
L 12.84375 -3.953125 
Q 18.0625 -9.8125 25.6875 -9.8125 
Q 31.296875 -9.8125 34.421875 -6.8125 
Q 37.546875 -3.8125 37.546875 1.765625 
L 37.546875 4.59375 
Q 32.5625 -0.984375 24.703125 -0.984375 
Q 14.890625 -0.984375 9.171875 6.53125 
Q 3.46875 14.0625 3.375 25.390625 
L 3.375 26.8125 
Q 3.375 38.875 9.109375 46.34375 
Q 14.84375 53.8125 24.8125 53.8125 
Q 33.546875 53.8125 38.375 47.859375 
L 38.921875 52.828125 
L 51.703125 52.828125 
L 51.703125 1.8125 
Q 51.703125 -9.078125 44.640625 -14.9375 
Q 37.59375 -20.796875 26.265625 -20.796875 
z
M 17.484375 25.78125 
Q 17.484375 19.4375 20.09375 14.96875 
Q 22.703125 10.5 28.265625 10.5 
Q 34.71875 10.5 37.546875 15.375 
L 37.546875 37.546875 
Q 34.765625 42.390625 28.375 42.390625 
Q 22.859375 42.390625 20.171875 37.859375 
Q 17.484375 33.34375 17.484375 26.8125 
z
" id="Roboto-Bold-103"/>
       <path d="M 27.390625 10.40625 
Q 31.25 10.40625 33.734375 12.53125 
Q 36.234375 14.65625 36.28125 18.265625 
L 49.5625 18.265625 
Q 49.46875 9.859375 43.140625 4.4375 
Q 36.8125 -0.984375 27.640625 -0.984375 
Q 15.375 -0.984375 9.296875 6.75 
Q 3.21875 14.5 3.21875 25.734375 
L 3.21875 27.09375 
Q 3.21875 38.28125 9.265625 46.046875 
Q 15.328125 53.8125 27.59375 53.8125 
Q 37.3125 53.8125 43.390625 48.234375 
Q 49.46875 42.671875 49.5625 33.15625 
L 36.28125 33.15625 
Q 36.234375 37.015625 33.9375 39.71875 
Q 31.640625 42.4375 27.34375 42.4375 
Q 21.1875 42.4375 19.28125 37.8125 
Q 17.390625 33.203125 17.390625 25.734375 
Q 17.390625 19.625 19.265625 15.015625 
Q 21.140625 10.40625 27.390625 10.40625 
z
" id="Roboto-Bold-99"/>
      </defs>
      <use xlink:href="#Roboto-Bold-110"/>
      <use x="56.005859" xlink:href="#Roboto-Bold-101"/>
      <use x="110.058594" xlink:href="#Roboto-Bold-117"/>
      <use x="166.064453" xlink:href="#Roboto-Bold-114"/>
      <use x="202.587891" xlink:href="#Roboto-Bold-111"/>
      <use x="259.130859" xlink:href="#Roboto-Bold-112"/>
      <use x="315.429688" xlink:href="#Roboto-Bold-104"/>
      <use x="371.435547" xlink:href="#Roboto-Bold-121"/>
      <use x="421.679688" xlink:href="#Roboto-Bold-115"/>
      <use x="473.144531" xlink:href="#Roboto-Bold-105"/>
      <use x="499.658203" xlink:href="#Roboto-Bold-111"/>
      <use x="556.201172" xlink:href="#Roboto-Bold-108"/>
      <use x="582.714844" xlink:href="#Roboto-Bold-111"/>
      <use x="639.257812" xlink:href="#Roboto-Bold-103"/>
      <use x="696.386719" xlink:href="#Roboto-Bold-105"/>
      <use x="722.900391" xlink:href="#Roboto-Bold-99"/>
      <use x="775.097656" xlink:href="#Roboto-Bold-97"/>
      <use x="828.710938" xlink:href="#Roboto-Bold-108"/>
      <use x="855.224609" xlink:href="#Roboto-Bold-32"/>
      <use x="880.126953" xlink:href="#Roboto-Bold-100"/>
      <use x="936.523438" xlink:href="#Roboto-Bold-105"/>
      <use x="963.037109" xlink:href="#Roboto-Bold-102"/>
      <use x="998.876953" xlink:href="#Roboto-Bold-102"/>
      <use x="1034.716797" xlink:href="#Roboto-Bold-101"/>
      <use x="1088.769531" xlink:href="#Roboto-Bold-114"/>
      <use x="1125.292969" xlink:href="#Roboto-Bold-101"/>
      <use x="1179.345703" xlink:href="#Roboto-Bold-110"/>
      <use x="1235.351562" xlink:href="#Roboto-Bold-116"/>
      <use x="1269.140625" xlink:href="#Roboto-Bold-105"/>
      <use x="1295.654297" xlink:href="#Roboto-Bold-97"/>
      <use x="1349.267578" xlink:href="#Roboto-Bold-116"/>
      <use x="1383.056641" xlink:href="#Roboto-Bold-105"/>
      <use x="1409.570312" xlink:href="#Roboto-Bold-111"/>
      <use x="1466.113281" xlink:href="#Roboto-Bold-110"/>
     </g>
     <!--  -->
     <g style="fill:#555555;" transform="translate(43.176 237.6)rotate(-90)scale(0.192 -0.192)"/>
    </g>
   </g>
   <g id="PathCollection_1">
    <defs>
     <path d="M 0 4.609772 
C 1.222526 4.609772 2.395145 4.124058 3.259601 3.259601 
C 4.124058 2.395145 4.609772 1.222526 4.609772 0 
C 4.609772 -1.222526 4.124058 -2.395145 3.259601 -3.259601 
C 2.395145 -4.124058 1.222526 -4.609772 0 -4.609772 
C -1.222526 -4.609772 -2.395145 -4.124058 -3.259601 -3.259601 
C -4.124058 -2.395145 -4.609772 -1.222526 -4.609772 0 
C -4.609772 1.222526 -4.124058 2.395145 -3.259601 3.259601 
C -2.395145 4.124058 -1.222526 4.609772 0 4.609772 
z
" id="m8ba38fa5ab" style="stroke:#555555;stroke-width:0.737564;"/>
    </defs>
    <g clip-path="url(#p8ee442bc51)">
     <use style="fill:#555555;stroke:#555555;stroke-width:0.737564;" x="344.085117" xlink:href="#m8ba38fa5ab" y="216.596726"/>
     <use style="fill:#555555;stroke:#555555;stroke-width:0.737564;" x="101.384409" xlink:href="#m8ba38fa5ab" y="235.007819"/>
     <use style="fill:#555555;stroke:#555555;stroke-width:0.737564;" x="453.326622" xlink:href="#m8ba38fa5ab" y="197.570271"/>
     <use style="fill:#555555;stroke:#555555;stroke-width:0.737564;" x="192.672938" xlink:href="#m8ba38fa5ab" y="165.230688"/>
     <use style="fill:#555555;stroke:#555555;stroke-width:0.737564;" x="480.372199" xlink:href="#m8ba38fa5ab" y="85.145174"/>
     <use style="fill:#555555;stroke:#555555;stroke-width:0.737564;" x="463.033607" xlink:href="#m8ba38fa5ab" y="189.919399"/>
     <use style="fill:#555555;stroke:#555555;stroke-width:0.737564;" x="479.569364" xlink:href="#m8ba38fa5ab" y="202.786102"/>
     <use style="fill:#555555;stroke:#555555;stroke-width:0.737564;" x="468.132181" xlink:href="#m8ba38fa5ab" y="28.145455"/>
     <use style="fill:#555555;stroke:#555555;stroke-width:0.737564;" x="467.768909" xlink:href="#m8ba38fa5ab" y="115.755375"/>
     <use style="fill:#555555;stroke:#555555;stroke-width:0.737564;" x="507.202591" xlink:href="#m8ba38fa5ab" y="251.244226"/>
     <use style="fill:#555555;stroke:#555555;stroke-width:0.737564;" x="232.036582" xlink:href="#m8ba38fa5ab" y="447.054545"/>
     <use style="fill:#555555;stroke:#555555;stroke-width:0.737564;" x="420.249076" xlink:href="#m8ba38fa5ab" y="208.444572"/>
    </g>
   </g>
   <g id="patch_3">
    <path d="M 81.0935 468 
L 81.0935 7.2 
" style="fill:none;stroke:#555555;stroke-linecap:square;stroke-linejoin:miter;"/>
   </g>
   <g id="patch_4">
    <path d="M 81.0935 468 
L 527.4935 468 
" style="fill:none;stroke:#555555;stroke-linecap:square;stroke-linejoin:miter;"/>
   </g>
   <g id="text_17">
    <!-- conspecifics -->
    <g style="fill:#555555;" transform="translate(344.085117 216.596726)scale(0.13328 -0.13328)">
     <use xlink:href="#Roboto-Bold-99"/>
     <use x="52.197266" xlink:href="#Roboto-Bold-111"/>
     <use x="108.740234" xlink:href="#Roboto-Bold-110"/>
     <use x="164.746094" xlink:href="#Roboto-Bold-115"/>
     <use x="216.210938" xlink:href="#Roboto-Bold-112"/>
     <use x="272.509766" xlink:href="#Roboto-Bold-101"/>
     <use x="326.5625" xlink:href="#Roboto-Bold-99"/>
     <use x="378.759766" xlink:href="#Roboto-Bold-105"/>
     <use x="405.273438" xlink:href="#Roboto-Bold-102"/>
     <use x="441.113281" xlink:href="#Roboto-Bold-105"/>
     <use x="467.626953" xlink:href="#Roboto-Bold-99"/>
     <use x="519.824219" xlink:href="#Roboto-Bold-115"/>
    </g>
   </g>
   <g id="text_18">
    <!-- crickets (prey) -->
    <g style="fill:#555555;" transform="translate(101.384409 235.007819)scale(0.13328 -0.13328)">
     <defs>
      <path d="M 38.1875 0 
L 24.609375 21.1875 
L 19.578125 16.15625 
L 19.578125 0 
L 5.46875 0 
L 5.46875 75.046875 
L 19.578125 75.046875 
L 19.578125 33.5 
L 22.3125 37.015625 
L 35.796875 52.828125 
L 52.734375 52.828125 
L 33.6875 30.859375 
L 54.4375 0 
z
" id="Roboto-Bold-107"/>
      <path d="M 6.109375 28.90625 
Q 6.109375 42.671875 9.890625 53 
Q 13.671875 63.328125 19.28125 69.890625 
Q 24.90625 76.46875 30.421875 78.953125 
L 33.15625 71.34375 
Q 27.6875 67.234375 22.890625 57.203125 
Q 18.109375 47.171875 18.015625 29.78125 
L 18.015625 27.6875 
Q 18.015625 9.8125 22.828125 -0.359375 
Q 27.640625 -10.546875 33.15625 -14.75 
L 30.421875 -22.21875 
Q 24.90625 -19.78125 19.28125 -13.203125 
Q 13.671875 -6.640625 9.890625 3.703125 
Q 6.109375 14.0625 6.109375 27.78125 
z
" id="Roboto-Bold-40"/>
      <path d="M 29.78125 27.78125 
Q 29.78125 14.5 25.875 4.125 
Q 21.96875 -6.25 16.15625 -13.015625 
Q 10.359375 -19.78125 4.6875 -22.21875 
L 1.953125 -14.75 
Q 7.375 -10.6875 12.1875 -0.578125 
Q 17 9.515625 17.09375 26.90625 
L 17.09375 29 
Q 17.09375 46.875 12.1875 57.125 
Q 7.28125 67.390625 1.953125 71.4375 
L 4.6875 78.953125 
Q 10.359375 76.46875 16.15625 69.703125 
Q 21.96875 62.9375 25.875 52.5625 
Q 29.78125 42.1875 29.78125 28.859375 
z
" id="Roboto-Bold-41"/>
     </defs>
     <use xlink:href="#Roboto-Bold-99"/>
     <use x="52.197266" xlink:href="#Roboto-Bold-114"/>
     <use x="88.720703" xlink:href="#Roboto-Bold-105"/>
     <use x="115.234375" xlink:href="#Roboto-Bold-99"/>
     <use x="167.431641" xlink:href="#Roboto-Bold-107"/>
     <use x="220.849609" xlink:href="#Roboto-Bold-101"/>
     <use x="274.902344" xlink:href="#Roboto-Bold-116"/>
     <use x="308.691406" xlink:href="#Roboto-Bold-115"/>
     <use x="360.15625" xlink:href="#Roboto-Bold-32"/>
     <use x="385.058594" xlink:href="#Roboto-Bold-40"/>
     <use x="420.166016" xlink:href="#Roboto-Bold-112"/>
     <use x="476.464844" xlink:href="#Roboto-Bold-114"/>
     <use x="512.988281" xlink:href="#Roboto-Bold-101"/>
     <use x="567.041016" xlink:href="#Roboto-Bold-121"/>
     <use x="617.285156" xlink:href="#Roboto-Bold-41"/>
    </g>
   </g>
   <g id="text_19">
    <!-- human montage -->
    <g style="fill:#555555;" transform="translate(453.326622 197.570271)scale(0.13328 -0.13328)">
     <use xlink:href="#Roboto-Bold-104"/>
     <use x="56.005859" xlink:href="#Roboto-Bold-117"/>
     <use x="112.011719" xlink:href="#Roboto-Bold-109"/>
     <use x="198.583984" xlink:href="#Roboto-Bold-97"/>
     <use x="252.197266" xlink:href="#Roboto-Bold-110"/>
     <use x="308.203125" xlink:href="#Roboto-Bold-32"/>
     <use x="333.105469" xlink:href="#Roboto-Bold-109"/>
     <use x="419.677734" xlink:href="#Roboto-Bold-111"/>
     <use x="476.220703" xlink:href="#Roboto-Bold-110"/>
     <use x="532.226562" xlink:href="#Roboto-Bold-116"/>
     <use x="566.015625" xlink:href="#Roboto-Bold-97"/>
     <use x="619.628906" xlink:href="#Roboto-Bold-103"/>
     <use x="676.757812" xlink:href="#Roboto-Bold-101"/>
    </g>
   </g>
   <g id="text_20">
    <!-- man writing -->
    <g style="fill:#555555;" transform="translate(192.672938 165.230688)scale(0.13328 -0.13328)">
     <defs>
      <path d="M 71.921875 52.828125 
L 58.5 0 
L 46.6875 0 
L 36.625 33.25 
L 26.609375 0 
L 14.84375 0 
L 1.375 52.828125 
L 14.984375 52.828125 
L 21.96875 19.234375 
L 31.546875 52.828125 
L 41.75 52.828125 
L 51.421875 19.28125 
L 58.296875 52.828125 
z
" id="Roboto-Bold-119"/>
     </defs>
     <use xlink:href="#Roboto-Bold-109"/>
     <use x="86.572266" xlink:href="#Roboto-Bold-97"/>
     <use x="140.185547" xlink:href="#Roboto-Bold-110"/>
     <use x="196.191406" xlink:href="#Roboto-Bold-32"/>
     <use x="221.09375" xlink:href="#Roboto-Bold-119"/>
     <use x="294.580078" xlink:href="#Roboto-Bold-114"/>
     <use x="331.103516" xlink:href="#Roboto-Bold-105"/>
     <use x="357.617188" xlink:href="#Roboto-Bold-116"/>
     <use x="391.40625" xlink:href="#Roboto-Bold-105"/>
     <use x="417.919922" xlink:href="#Roboto-Bold-110"/>
     <use x="473.925781" xlink:href="#Roboto-Bold-103"/>
    </g>
   </g>
   <g id="text_21">
    <!-- mouse montage 1 -->
    <g style="fill:#555555;" transform="translate(480.372199 85.145174)scale(0.13328 -0.13328)">
     <use xlink:href="#Roboto-Bold-109"/>
     <use x="86.572266" xlink:href="#Roboto-Bold-111"/>
     <use x="143.115234" xlink:href="#Roboto-Bold-117"/>
     <use x="199.121094" xlink:href="#Roboto-Bold-115"/>
     <use x="250.585938" xlink:href="#Roboto-Bold-101"/>
     <use x="304.638672" xlink:href="#Roboto-Bold-32"/>
     <use x="329.541016" xlink:href="#Roboto-Bold-109"/>
     <use x="416.113281" xlink:href="#Roboto-Bold-111"/>
     <use x="472.65625" xlink:href="#Roboto-Bold-110"/>
     <use x="528.662109" xlink:href="#Roboto-Bold-116"/>
     <use x="562.451172" xlink:href="#Roboto-Bold-97"/>
     <use x="616.064453" xlink:href="#Roboto-Bold-103"/>
     <use x="673.193359" xlink:href="#Roboto-Bold-101"/>
     <use x="727.246094" xlink:href="#Roboto-Bold-32"/>
     <use x="752.148438" xlink:href="#Roboto-Bold-49"/>
    </g>
   </g>
   <g id="text_22">
    <!-- mouse montage 1, spatial phase scramble -->
    <g style="fill:#555555;" transform="translate(463.033607 189.919399)scale(0.13328 -0.13328)">
     <defs>
      <path d="M 18.75 12.015625 
L 18.703125 2.25 
Q 18.65625 -3.265625 15.96875 -8.765625 
Q 13.28125 -14.265625 9.078125 -17.875 
L 1.765625 -14.015625 
Q 3.65625 -10.5 5.21875 -7.078125 
Q 6.78125 -3.65625 6.84375 1.375 
L 6.84375 12.015625 
z
" id="Roboto-Bold-44"/>
      <path d="M 53.03125 25.921875 
Q 53.03125 14.0625 47.921875 6.53125 
Q 42.828125 -0.984375 32.515625 -0.984375 
Q 23.921875 -0.984375 18.796875 5.609375 
L 18.171875 0 
L 5.421875 0 
L 5.421875 75 
L 19.578125 75 
L 19.578125 48.140625 
Q 24.515625 53.8125 32.421875 53.8125 
Q 42.828125 53.8125 47.921875 46.234375 
Q 53.03125 38.671875 53.03125 26.953125 
z
M 28.859375 42.390625 
Q 22.171875 42.390625 19.578125 36.859375 
L 19.578125 15.96875 
Q 22.171875 10.453125 28.953125 10.453125 
Q 34.859375 10.453125 36.890625 14.765625 
Q 38.921875 19.09375 38.921875 26.953125 
Q 38.921875 33.203125 36.890625 37.796875 
Q 34.859375 42.390625 28.859375 42.390625 
z
" id="Roboto-Bold-98"/>
     </defs>
     <use xlink:href="#Roboto-Bold-109"/>
     <use x="86.572266" xlink:href="#Roboto-Bold-111"/>
     <use x="143.115234" xlink:href="#Roboto-Bold-117"/>
     <use x="199.121094" xlink:href="#Roboto-Bold-115"/>
     <use x="250.585938" xlink:href="#Roboto-Bold-101"/>
     <use x="304.638672" xlink:href="#Roboto-Bold-32"/>
     <use x="329.541016" xlink:href="#Roboto-Bold-109"/>
     <use x="416.113281" xlink:href="#Roboto-Bold-111"/>
     <use x="472.65625" xlink:href="#Roboto-Bold-110"/>
     <use x="528.662109" xlink:href="#Roboto-Bold-116"/>
     <use x="562.451172" xlink:href="#Roboto-Bold-97"/>
     <use x="616.064453" xlink:href="#Roboto-Bold-103"/>
     <use x="673.193359" xlink:href="#Roboto-Bold-101"/>
     <use x="727.246094" xlink:href="#Roboto-Bold-32"/>
     <use x="752.148438" xlink:href="#Roboto-Bold-49"/>
     <use x="809.521484" xlink:href="#Roboto-Bold-44"/>
     <use x="833.984375" xlink:href="#Roboto-Bold-32"/>
     <use x="858.886719" xlink:href="#Roboto-Bold-115"/>
     <use x="910.351562" xlink:href="#Roboto-Bold-112"/>
     <use x="966.650391" xlink:href="#Roboto-Bold-97"/>
     <use x="1020.263672" xlink:href="#Roboto-Bold-116"/>
     <use x="1054.052734" xlink:href="#Roboto-Bold-105"/>
     <use x="1080.566406" xlink:href="#Roboto-Bold-97"/>
     <use x="1134.179688" xlink:href="#Roboto-Bold-108"/>
     <use x="1160.693359" xlink:href="#Roboto-Bold-32"/>
     <use x="1185.595703" xlink:href="#Roboto-Bold-112"/>
     <use x="1241.894531" xlink:href="#Roboto-Bold-104"/>
     <use x="1297.900391" xlink:href="#Roboto-Bold-97"/>
     <use x="1351.513672" xlink:href="#Roboto-Bold-115"/>
     <use x="1402.978516" xlink:href="#Roboto-Bold-101"/>
     <use x="1457.03125" xlink:href="#Roboto-Bold-32"/>
     <use x="1481.933594" xlink:href="#Roboto-Bold-115"/>
     <use x="1533.398438" xlink:href="#Roboto-Bold-99"/>
     <use x="1585.595703" xlink:href="#Roboto-Bold-114"/>
     <use x="1622.119141" xlink:href="#Roboto-Bold-97"/>
     <use x="1675.732422" xlink:href="#Roboto-Bold-109"/>
     <use x="1762.304688" xlink:href="#Roboto-Bold-98"/>
     <use x="1818.603516" xlink:href="#Roboto-Bold-108"/>
     <use x="1845.117188" xlink:href="#Roboto-Bold-101"/>
    </g>
   </g>
   <g id="text_23">
    <!-- mouse montage 1, temporal phase scramble -->
    <g style="fill:#555555;" transform="translate(479.569364 202.786102)scale(0.13328 -0.13328)">
     <use xlink:href="#Roboto-Bold-109"/>
     <use x="86.572266" xlink:href="#Roboto-Bold-111"/>
     <use x="143.115234" xlink:href="#Roboto-Bold-117"/>
     <use x="199.121094" xlink:href="#Roboto-Bold-115"/>
     <use x="250.585938" xlink:href="#Roboto-Bold-101"/>
     <use x="304.638672" xlink:href="#Roboto-Bold-32"/>
     <use x="329.541016" xlink:href="#Roboto-Bold-109"/>
     <use x="416.113281" xlink:href="#Roboto-Bold-111"/>
     <use x="472.65625" xlink:href="#Roboto-Bold-110"/>
     <use x="528.662109" xlink:href="#Roboto-Bold-116"/>
     <use x="562.451172" xlink:href="#Roboto-Bold-97"/>
     <use x="616.064453" xlink:href="#Roboto-Bold-103"/>
     <use x="673.193359" xlink:href="#Roboto-Bold-101"/>
     <use x="727.246094" xlink:href="#Roboto-Bold-32"/>
     <use x="752.148438" xlink:href="#Roboto-Bold-49"/>
     <use x="809.521484" xlink:href="#Roboto-Bold-44"/>
     <use x="833.984375" xlink:href="#Roboto-Bold-32"/>
     <use x="858.886719" xlink:href="#Roboto-Bold-116"/>
     <use x="892.675781" xlink:href="#Roboto-Bold-101"/>
     <use x="946.728516" xlink:href="#Roboto-Bold-109"/>
     <use x="1033.300781" xlink:href="#Roboto-Bold-112"/>
     <use x="1089.599609" xlink:href="#Roboto-Bold-111"/>
     <use x="1146.142578" xlink:href="#Roboto-Bold-114"/>
     <use x="1182.666016" xlink:href="#Roboto-Bold-97"/>
     <use x="1236.279297" xlink:href="#Roboto-Bold-108"/>
     <use x="1262.792969" xlink:href="#Roboto-Bold-32"/>
     <use x="1287.695312" xlink:href="#Roboto-Bold-112"/>
     <use x="1343.994141" xlink:href="#Roboto-Bold-104"/>
     <use x="1400" xlink:href="#Roboto-Bold-97"/>
     <use x="1453.613281" xlink:href="#Roboto-Bold-115"/>
     <use x="1505.078125" xlink:href="#Roboto-Bold-101"/>
     <use x="1559.130859" xlink:href="#Roboto-Bold-32"/>
     <use x="1584.033203" xlink:href="#Roboto-Bold-115"/>
     <use x="1635.498047" xlink:href="#Roboto-Bold-99"/>
     <use x="1687.695312" xlink:href="#Roboto-Bold-114"/>
     <use x="1724.21875" xlink:href="#Roboto-Bold-97"/>
     <use x="1777.832031" xlink:href="#Roboto-Bold-109"/>
     <use x="1864.404297" xlink:href="#Roboto-Bold-98"/>
     <use x="1920.703125" xlink:href="#Roboto-Bold-108"/>
     <use x="1947.216797" xlink:href="#Roboto-Bold-101"/>
    </g>
   </g>
   <g id="text_24">
    <!-- mouse montage 2 -->
    <g style="fill:#555555;" transform="translate(468.132181 28.145455)scale(0.13328 -0.13328)">
     <use xlink:href="#Roboto-Bold-109"/>
     <use x="86.572266" xlink:href="#Roboto-Bold-111"/>
     <use x="143.115234" xlink:href="#Roboto-Bold-117"/>
     <use x="199.121094" xlink:href="#Roboto-Bold-115"/>
     <use x="250.585938" xlink:href="#Roboto-Bold-101"/>
     <use x="304.638672" xlink:href="#Roboto-Bold-32"/>
     <use x="329.541016" xlink:href="#Roboto-Bold-109"/>
     <use x="416.113281" xlink:href="#Roboto-Bold-111"/>
     <use x="472.65625" xlink:href="#Roboto-Bold-110"/>
     <use x="528.662109" xlink:href="#Roboto-Bold-116"/>
     <use x="562.451172" xlink:href="#Roboto-Bold-97"/>
     <use x="616.064453" xlink:href="#Roboto-Bold-103"/>
     <use x="673.193359" xlink:href="#Roboto-Bold-101"/>
     <use x="727.246094" xlink:href="#Roboto-Bold-32"/>
     <use x="752.148438" xlink:href="#Roboto-Bold-50"/>
    </g>
   </g>
   <g id="text_25">
    <!-- mousecam -->
    <g style="fill:#555555;" transform="translate(467.768909 115.755375)scale(0.13328 -0.13328)">
     <use xlink:href="#Roboto-Bold-109"/>
     <use x="86.572266" xlink:href="#Roboto-Bold-111"/>
     <use x="143.115234" xlink:href="#Roboto-Bold-117"/>
     <use x="199.121094" xlink:href="#Roboto-Bold-115"/>
     <use x="250.585938" xlink:href="#Roboto-Bold-101"/>
     <use x="304.638672" xlink:href="#Roboto-Bold-99"/>
     <use x="356.835938" xlink:href="#Roboto-Bold-97"/>
     <use x="410.449219" xlink:href="#Roboto-Bold-109"/>
    </g>
   </g>
   <g id="text_26">
    <!-- mousecam, spatial phase scramble -->
    <g style="fill:#555555;" transform="translate(507.202591 251.244226)scale(0.13328 -0.13328)">
     <use xlink:href="#Roboto-Bold-109"/>
     <use x="86.572266" xlink:href="#Roboto-Bold-111"/>
     <use x="143.115234" xlink:href="#Roboto-Bold-117"/>
     <use x="199.121094" xlink:href="#Roboto-Bold-115"/>
     <use x="250.585938" xlink:href="#Roboto-Bold-101"/>
     <use x="304.638672" xlink:href="#Roboto-Bold-99"/>
     <use x="356.835938" xlink:href="#Roboto-Bold-97"/>
     <use x="410.449219" xlink:href="#Roboto-Bold-109"/>
     <use x="497.021484" xlink:href="#Roboto-Bold-44"/>
     <use x="521.484375" xlink:href="#Roboto-Bold-32"/>
     <use x="546.386719" xlink:href="#Roboto-Bold-115"/>
     <use x="597.851562" xlink:href="#Roboto-Bold-112"/>
     <use x="654.150391" xlink:href="#Roboto-Bold-97"/>
     <use x="707.763672" xlink:href="#Roboto-Bold-116"/>
     <use x="741.552734" xlink:href="#Roboto-Bold-105"/>
     <use x="768.066406" xlink:href="#Roboto-Bold-97"/>
     <use x="821.679688" xlink:href="#Roboto-Bold-108"/>
     <use x="848.193359" xlink:href="#Roboto-Bold-32"/>
     <use x="873.095703" xlink:href="#Roboto-Bold-112"/>
     <use x="929.394531" xlink:href="#Roboto-Bold-104"/>
     <use x="985.400391" xlink:href="#Roboto-Bold-97"/>
     <use x="1039.013672" xlink:href="#Roboto-Bold-115"/>
     <use x="1090.478516" xlink:href="#Roboto-Bold-101"/>
     <use x="1144.53125" xlink:href="#Roboto-Bold-32"/>
     <use x="1169.433594" xlink:href="#Roboto-Bold-115"/>
     <use x="1220.898438" xlink:href="#Roboto-Bold-99"/>
     <use x="1273.095703" xlink:href="#Roboto-Bold-114"/>
     <use x="1309.619141" xlink:href="#Roboto-Bold-97"/>
     <use x="1363.232422" xlink:href="#Roboto-Bold-109"/>
     <use x="1449.804688" xlink:href="#Roboto-Bold-98"/>
     <use x="1506.103516" xlink:href="#Roboto-Bold-108"/>
     <use x="1532.617188" xlink:href="#Roboto-Bold-101"/>
    </g>
   </g>
   <g id="text_27">
    <!-- noise -->
    <g style="fill:#555555;" transform="translate(232.036582 447.054545)scale(0.13328 -0.13328)">
     <use xlink:href="#Roboto-Bold-110"/>
     <use x="56.005859" xlink:href="#Roboto-Bold-111"/>
     <use x="112.548828" xlink:href="#Roboto-Bold-105"/>
     <use x="139.0625" xlink:href="#Roboto-Bold-115"/>
     <use x="190.527344" xlink:href="#Roboto-Bold-101"/>
    </g>
   </g>
   <g id="text_28">
    <!-- snake (predator) -->
    <g style="fill:#555555;" transform="translate(420.249076 208.444572)scale(0.13328 -0.13328)">
     <use xlink:href="#Roboto-Bold-115"/>
     <use x="51.464844" xlink:href="#Roboto-Bold-110"/>
     <use x="107.470703" xlink:href="#Roboto-Bold-97"/>
     <use x="161.083984" xlink:href="#Roboto-Bold-107"/>
     <use x="214.501953" xlink:href="#Roboto-Bold-101"/>
     <use x="268.554688" xlink:href="#Roboto-Bold-32"/>
     <use x="293.457031" xlink:href="#Roboto-Bold-40"/>
     <use x="328.564453" xlink:href="#Roboto-Bold-112"/>
     <use x="384.863281" xlink:href="#Roboto-Bold-114"/>
     <use x="421.386719" xlink:href="#Roboto-Bold-101"/>
     <use x="475.439453" xlink:href="#Roboto-Bold-100"/>
     <use x="531.835938" xlink:href="#Roboto-Bold-97"/>
     <use x="585.449219" xlink:href="#Roboto-Bold-116"/>
     <use x="619.238281" xlink:href="#Roboto-Bold-111"/>
     <use x="675.78125" xlink:href="#Roboto-Bold-114"/>
     <use x="712.304688" xlink:href="#Roboto-Bold-41"/>
    </g>
   </g>
  </g>
 </g>
 <defs>
  <clipPath id="p8ee442bc51">
   <rect height="460.8" width="446.4" x="81.0935" y="7.2"/>
  </clipPath>
 </defs>
</svg>
