<?xml version="1.0" encoding="utf-8" standalone="no"?>
<!DOCTYPE svg PUBLIC "-//W3C//DTD SVG 1.1//EN"
  "http://www.w3.org/Graphics/SVG/1.1/DTD/svg11.dtd">
<!-- Created with matplotlib (https://matplotlib.org/) -->
<svg height="340.43034pt" version="1.1" viewBox="0 0 340.3525 340.43034" width="340.3525pt" xmlns="http://www.w3.org/2000/svg" xmlns:xlink="http://www.w3.org/1999/xlink">
 <metadata>
  <rdf:RDF xmlns:cc="http://creativecommons.org/ns#" xmlns:dc="http://purl.org/dc/elements/1.1/" xmlns:rdf="http://www.w3.org/1999/02/22-rdf-syntax-ns#">
   <cc:Work>
    <dc:type rdf:resource="http://purl.org/dc/dcmitype/StillImage"/>
    <dc:date>2021-12-14T13:26:06.200548</dc:date>
    <dc:format>image/svg+xml</dc:format>
    <dc:creator>
     <cc:Agent>
      <dc:title>Matplotlib v3.3.4, https://matplotlib.org/</dc:title>
     </cc:Agent>
    </dc:creator>
   </cc:Work>
  </rdf:RDF>
 </metadata>
 <defs>
  <style type="text/css">*{stroke-linecap:butt;stroke-linejoin:round;}</style>
 </defs>
 <g id="figure_1">
  <g id="patch_1">
   <path d="M 0 340.43034 
L 340.3525 340.43034 
L 340.3525 0 
L 0 0 
z
" style="fill:none;"/>
  </g>
  <g id="axes_1">
   <g id="patch_2">
    <path d="M 77.5875 288.68034 
L 333.1525 288.68034 
L 333.1525 8.470305 
L 77.5875 8.470305 
z
" style="fill:#ffffff;"/>
   </g>
   <g id="matplotlib.axis_1">
    <g id="xtick_1">
     <g id="line2d_1">
      <defs>
       <path d="M 0 0 
L 0 3.5 
" id="m4b9ea84435" style="stroke:#555555;stroke-width:0.8;"/>
      </defs>
      <g>
       <use style="fill:#555555;stroke:#555555;stroke-width:0.8;" x="103.144" xlink:href="#m4b9ea84435" y="288.68034"/>
      </g>
     </g>
     <g id="text_1">
      <!-- V1 -->
      <g style="fill:#555555;" transform="translate(93.324 307.68034)scale(0.16 -0.16)">
       <defs>
        <path d="M 65.09375 71.09375 
L 40.28125 0 
L 25.046875 0 
L 0.390625 71.09375 
L 16.609375 71.09375 
L 32.671875 17.671875 
L 48.78125 71.09375 
z
" id="Roboto-Bold-86"/>
        <path d="M 39.109375 71.1875 
L 39.109375 0 
L 25 0 
L 25 54.4375 
L 8.203125 49.21875 
L 8.203125 60.640625 
L 37.59375 71.1875 
z
" id="Roboto-Bold-49"/>
       </defs>
       <use xlink:href="#Roboto-Bold-86"/>
       <use x="65.380859" xlink:href="#Roboto-Bold-49"/>
      </g>
     </g>
    </g>
    <g id="xtick_2">
     <g id="line2d_2">
      <g>
       <use style="fill:#555555;stroke:#555555;stroke-width:0.8;" x="154.257" xlink:href="#m4b9ea84435" y="288.68034"/>
      </g>
     </g>
     <g id="text_2">
      <!-- LM -->
      <g style="fill:#555555;" transform="translate(142.917 307.68034)scale(0.16 -0.16)">
       <defs>
        <path d="M 52.09375 11.8125 
L 52.09375 0 
L 6.34375 0 
L 6.34375 71.09375 
L 21.046875 71.09375 
L 21.046875 11.8125 
z
" id="Roboto-Bold-76"/>
        <path d="M 43.75 19.53125 
L 61.96875 71.09375 
L 81.15625 71.09375 
L 81.15625 0 
L 66.453125 0 
L 66.453125 19.4375 
L 67.921875 52.828125 
L 48.78125 0 
L 38.71875 0 
L 19.578125 52.828125 
L 21.046875 19.4375 
L 21.046875 0 
L 6.34375 0 
L 6.34375 71.09375 
L 25.53125 71.09375 
z
" id="Roboto-Bold-77"/>
       </defs>
       <use xlink:href="#Roboto-Bold-76"/>
       <use x="54.150391" xlink:href="#Roboto-Bold-77"/>
      </g>
     </g>
    </g>
    <g id="xtick_3">
     <g id="line2d_3">
      <g>
       <use style="fill:#555555;stroke:#555555;stroke-width:0.8;" x="205.37" xlink:href="#m4b9ea84435" y="288.68034"/>
      </g>
     </g>
     <g id="text_3">
      <!-- AL -->
      <g style="fill:#555555;" transform="translate(195.65125 307.68034)scale(0.16 -0.16)">
       <defs>
        <path d="M 0.390625 0 
L 26.859375 71.09375 
L 40.4375 71.09375 
L 67.046875 0 
L 51.421875 0 
L 46.53125 14.65625 
L 20.796875 14.65625 
L 15.921875 0 
z
M 24.75 26.515625 
L 42.578125 26.515625 
L 33.6875 53.21875 
z
" id="Roboto-Bold-65"/>
       </defs>
       <use xlink:href="#Roboto-Bold-65"/>
       <use x="67.333984" xlink:href="#Roboto-Bold-76"/>
      </g>
     </g>
    </g>
    <g id="xtick_4">
     <g id="line2d_4">
      <g>
       <use style="fill:#555555;stroke:#555555;stroke-width:0.8;" x="256.483" xlink:href="#m4b9ea84435" y="288.68034"/>
      </g>
     </g>
     <g id="text_4">
      <!-- PM -->
      <g style="fill:#555555;" transform="translate(244.31175 307.68034)scale(0.16 -0.16)">
       <defs>
        <path d="M 21.046875 25.09375 
L 21.046875 0 
L 6.34375 0 
L 6.34375 71.09375 
L 34.125 71.09375 
Q 46.734375 71.09375 53.78125 64.453125 
Q 60.84375 57.8125 60.84375 47.609375 
Q 60.84375 37.3125 53.78125 31.203125 
Q 46.734375 25.09375 34.125 25.09375 
z
M 21.046875 59.234375 
L 21.046875 36.921875 
L 34.125 36.921875 
Q 40.4375 36.921875 43.21875 39.890625 
Q 46 42.875 46 47.515625 
Q 46 52.15625 43.21875 55.6875 
Q 40.4375 59.234375 34.125 59.234375 
z
" id="Roboto-Bold-80"/>
       </defs>
       <use xlink:href="#Roboto-Bold-80"/>
       <use x="64.550781" xlink:href="#Roboto-Bold-77"/>
      </g>
     </g>
    </g>
    <g id="xtick_5">
     <g id="line2d_5">
      <g>
       <use style="fill:#555555;stroke:#555555;stroke-width:0.8;" x="307.596" xlink:href="#m4b9ea84435" y="288.68034"/>
      </g>
     </g>
     <g id="text_5">
      <!-- AM -->
      <g style="fill:#555555;" transform="translate(295.20225 307.68034)scale(0.16 -0.16)">
       <use xlink:href="#Roboto-Bold-65"/>
       <use x="67.333984" xlink:href="#Roboto-Bold-77"/>
      </g>
     </g>
    </g>
    <g id="text_6">
     <!-- area -->
     <g style="fill:#555555;" transform="translate(186.3815 329.33034)scale(0.192 -0.192)">
      <defs>
       <path d="M 36.03125 0 
Q 35.15625 1.859375 34.625 4.734375 
Q 29.5 -0.984375 21.296875 -0.984375 
Q 13.71875 -0.984375 8.546875 3.484375 
Q 3.375 7.953125 3.375 14.84375 
Q 3.375 23.140625 9.515625 27.703125 
Q 15.671875 32.28125 27.734375 32.28125 
L 34.03125 32.28125 
L 34.03125 35.359375 
Q 34.03125 39.015625 32.15625 41.1875 
Q 30.28125 43.359375 26.21875 43.359375 
Q 18.65625 43.359375 18.65625 37.015625 
L 4.546875 37.015625 
Q 4.546875 43.890625 10.640625 48.84375 
Q 16.75 53.8125 27 53.8125 
Q 36.140625 53.8125 42.15625 49.171875 
Q 48.1875 44.53125 48.1875 35.25 
L 48.1875 11.71875 
Q 48.296875 4.6875 50.296875 0.828125 
L 50.296875 0 
z
M 24.359375 9.8125 
Q 27.9375 9.8125 30.4375 11.390625 
Q 32.953125 12.984375 34.03125 14.890625 
L 34.03125 24.078125 
L 28.265625 24.078125 
Q 22.65625 24.078125 20.0625 21.703125 
Q 17.484375 19.34375 17.484375 15.875 
Q 17.484375 13.234375 19.3125 11.515625 
Q 21.140625 9.8125 24.359375 9.8125 
z
" id="Roboto-Bold-97"/>
       <path d="M 30.03125 40.046875 
Q 22.078125 40.046875 19.578125 34.625 
L 19.578125 0 
L 5.421875 0 
L 5.421875 52.828125 
L 18.75 52.828125 
L 19.1875 46.53125 
Q 23.34375 53.8125 30.953125 53.8125 
Q 33.640625 53.8125 35.296875 53.171875 
L 35.15625 39.65625 
z
" id="Roboto-Bold-114"/>
       <path d="M 50.390625 8.59375 
Q 47.859375 4.984375 42.671875 2 
Q 37.5 -0.984375 29.78125 -0.984375 
Q 17.484375 -0.984375 10.546875 6.46875 
Q 3.609375 13.921875 3.5625 24.46875 
L 3.5625 26.515625 
Q 3.5625 38.484375 10.21875 46.140625 
Q 16.890625 53.8125 28.21875 53.8125 
Q 39.59375 53.8125 45.546875 46.671875 
Q 51.515625 39.546875 51.515625 27.828125 
L 51.515625 21.828125 
L 17.875 21.828125 
Q 18.609375 16.703125 21.921875 13.546875 
Q 25.25 10.40625 30.671875 10.40625 
Q 38.71875 10.40625 43.40625 16.3125 
z
M 28.125 42.4375 
Q 23.640625 42.4375 21.1875 39.40625 
Q 18.75 36.375 18.015625 31.5 
L 37.640625 31.5 
L 37.640625 32.5625 
Q 37.546875 36.8125 35.28125 39.625 
Q 33.015625 42.4375 28.125 42.4375 
z
" id="Roboto-Bold-101"/>
      </defs>
      <use xlink:href="#Roboto-Bold-97"/>
      <use x="53.613281" xlink:href="#Roboto-Bold-114"/>
      <use x="90.136719" xlink:href="#Roboto-Bold-101"/>
      <use x="144.189453" xlink:href="#Roboto-Bold-97"/>
     </g>
    </g>
   </g>
   <g id="matplotlib.axis_2">
    <g id="ytick_1">
     <g id="line2d_6">
      <path clip-path="url(#pf588f1e92a)" d="M 77.5875 286.19617 
L 333.1525 286.19617 
" style="fill:none;stroke:#eeeeee;stroke-linecap:square;stroke-width:0.8;"/>
     </g>
     <g id="line2d_7">
      <defs>
       <path d="M 0 0 
L -3.5 0 
" id="m7566e75e97" style="stroke:#555555;stroke-width:0.8;"/>
      </defs>
      <g>
       <use style="fill:#555555;stroke:#555555;stroke-width:0.8;" x="77.5875" xlink:href="#m7566e75e97" y="286.19617"/>
      </g>
     </g>
     <g id="text_7">
      <!-- −0.10 -->
      <g style="fill:#555555;" transform="translate(29.5 292.19617)scale(0.16 -0.16)">
       <defs>
        <path d="M 49.359375 40.625 
L 49.359375 29.109375 
L 7.171875 29.109375 
L 7.171875 40.625 
z
" id="Roboto-Bold-8722"/>
        <path d="M 52.6875 29.4375 
Q 52.6875 13.375 46.09375 6.1875 
Q 39.5 -0.984375 28.75 -0.984375 
Q 18.015625 -0.984375 11.34375 6.1875 
Q 4.6875 13.375 4.6875 29.4375 
L 4.6875 41.796875 
Q 4.6875 57.8125 11.296875 64.9375 
Q 17.921875 72.078125 28.65625 72.078125 
Q 39.359375 72.078125 46 64.984375 
Q 52.640625 57.90625 52.6875 42.046875 
z
M 38.578125 43.75 
Q 38.578125 53.21875 35.984375 56.953125 
Q 33.40625 60.6875 28.65625 60.6875 
Q 24.03125 60.6875 21.4375 57.03125 
Q 18.84375 53.375 18.796875 44.140625 
L 18.796875 27.546875 
Q 18.796875 18.015625 21.40625 14.203125 
Q 24.03125 10.40625 28.765625 10.40625 
Q 33.40625 10.40625 35.96875 14.140625 
Q 38.53125 17.875 38.578125 27.15625 
z
" id="Roboto-Bold-48"/>
        <path d="M 6.15625 6.984375 
Q 6.15625 10.203125 8.328125 12.375 
Q 10.5 14.546875 14.15625 14.546875 
Q 17.828125 14.546875 19.96875 12.375 
Q 22.125 10.203125 22.125 6.984375 
Q 22.125 3.8125 19.96875 1.640625 
Q 17.828125 -0.53125 14.15625 -0.53125 
Q 10.5 -0.53125 8.328125 1.640625 
Q 6.15625 3.8125 6.15625 6.984375 
z
" id="Roboto-Bold-46"/>
       </defs>
       <use xlink:href="#Roboto-Bold-8722"/>
       <use x="55.566406" xlink:href="#Roboto-Bold-48"/>
       <use x="112.939453" xlink:href="#Roboto-Bold-46"/>
       <use x="142.041016" xlink:href="#Roboto-Bold-49"/>
       <use x="199.414062" xlink:href="#Roboto-Bold-48"/>
      </g>
     </g>
    </g>
    <g id="ytick_2">
     <g id="line2d_8">
      <path clip-path="url(#pf588f1e92a)" d="M 77.5875 217.947127 
L 333.1525 217.947127 
" style="fill:none;stroke:#eeeeee;stroke-linecap:square;stroke-width:0.8;"/>
     </g>
     <g id="line2d_9">
      <g>
       <use style="fill:#555555;stroke:#555555;stroke-width:0.8;" x="77.5875" xlink:href="#m7566e75e97" y="217.947127"/>
      </g>
     </g>
     <g id="text_8">
      <!-- −0.05 -->
      <g style="fill:#555555;" transform="translate(29.5 223.947127)scale(0.16 -0.16)">
       <defs>
        <path d="M 18.21875 32.234375 
L 6.984375 34.96875 
L 11.03125 71.09375 
L 50.875 71.09375 
L 50.875 59.375 
L 22.65625 59.375 
L 20.90625 44.046875 
Q 25.78125 46.734375 31.546875 46.734375 
Q 41.890625 46.734375 47.546875 40.421875 
Q 53.21875 34.125 53.21875 22.859375 
Q 53.21875 13.375 47.359375 6.1875 
Q 41.5 -0.984375 29.25 -0.984375 
Q 20.015625 -0.984375 12.71875 4.484375 
Q 5.421875 9.96875 5.171875 19.828125 
L 19.140625 19.828125 
Q 20.0625 10.40625 29.15625 10.40625 
Q 34.46875 10.40625 36.78125 14.234375 
Q 39.109375 18.0625 39.109375 23.640625 
Q 39.109375 29.25 36.328125 32.6875 
Q 33.546875 36.140625 27.6875 36.140625 
Q 23.828125 36.140625 21.71875 34.890625 
Q 19.625 33.640625 18.21875 32.234375 
z
" id="Roboto-Bold-53"/>
       </defs>
       <use xlink:href="#Roboto-Bold-8722"/>
       <use x="55.566406" xlink:href="#Roboto-Bold-48"/>
       <use x="112.939453" xlink:href="#Roboto-Bold-46"/>
       <use x="142.041016" xlink:href="#Roboto-Bold-48"/>
       <use x="199.414062" xlink:href="#Roboto-Bold-53"/>
      </g>
     </g>
    </g>
    <g id="ytick_3">
     <g id="line2d_10">
      <path clip-path="url(#pf588f1e92a)" d="M 77.5875 149.698085 
L 333.1525 149.698085 
" style="fill:none;stroke:#eeeeee;stroke-linecap:square;stroke-width:0.8;"/>
     </g>
     <g id="line2d_11">
      <g>
       <use style="fill:#555555;stroke:#555555;stroke-width:0.8;" x="77.5875" xlink:href="#m7566e75e97" y="149.698085"/>
      </g>
     </g>
     <g id="text_9">
      <!-- 0.00 -->
      <g style="fill:#555555;" transform="translate(38.39 155.698085)scale(0.16 -0.16)">
       <use xlink:href="#Roboto-Bold-48"/>
       <use x="57.373047" xlink:href="#Roboto-Bold-46"/>
       <use x="86.474609" xlink:href="#Roboto-Bold-48"/>
       <use x="143.847656" xlink:href="#Roboto-Bold-48"/>
      </g>
     </g>
    </g>
    <g id="ytick_4">
     <g id="line2d_12">
      <path clip-path="url(#pf588f1e92a)" d="M 77.5875 81.449042 
L 333.1525 81.449042 
" style="fill:none;stroke:#eeeeee;stroke-linecap:square;stroke-width:0.8;"/>
     </g>
     <g id="line2d_13">
      <g>
       <use style="fill:#555555;stroke:#555555;stroke-width:0.8;" x="77.5875" xlink:href="#m7566e75e97" y="81.449042"/>
      </g>
     </g>
     <g id="text_10">
      <!-- 0.05 -->
      <g style="fill:#555555;" transform="translate(38.39 87.449042)scale(0.16 -0.16)">
       <use xlink:href="#Roboto-Bold-48"/>
       <use x="57.373047" xlink:href="#Roboto-Bold-46"/>
       <use x="86.474609" xlink:href="#Roboto-Bold-48"/>
       <use x="143.847656" xlink:href="#Roboto-Bold-53"/>
      </g>
     </g>
    </g>
    <g id="ytick_5">
     <g id="line2d_14">
      <path clip-path="url(#pf588f1e92a)" d="M 77.5875 13.2 
L 333.1525 13.2 
" style="fill:none;stroke:#eeeeee;stroke-linecap:square;stroke-width:0.8;"/>
     </g>
     <g id="line2d_15">
      <g>
       <use style="fill:#555555;stroke:#555555;stroke-width:0.8;" x="77.5875" xlink:href="#m7566e75e97" y="13.2"/>
      </g>
     </g>
     <g id="text_11">
      <!-- 0.10 -->
      <g style="fill:#555555;" transform="translate(38.39 19.2)scale(0.16 -0.16)">
       <use xlink:href="#Roboto-Bold-48"/>
       <use x="57.373047" xlink:href="#Roboto-Bold-46"/>
       <use x="86.474609" xlink:href="#Roboto-Bold-49"/>
       <use x="143.847656" xlink:href="#Roboto-Bold-48"/>
      </g>
     </g>
    </g>
    <g id="text_12">
     <!-- difference -->
     <g style="fill:#555555;" transform="translate(21.6 192.876323)rotate(-90)scale(0.192 -0.192)">
      <defs>
       <path d="M 38.09375 0 
L 37.40625 5.609375 
Q 32.171875 -0.984375 23.875 -0.984375 
Q 14.0625 -0.984375 8.640625 6.640625 
Q 3.21875 14.265625 3.21875 25.78125 
L 3.21875 26.8125 
Q 3.21875 38.875 8.640625 46.34375 
Q 14.0625 53.8125 23.96875 53.8125 
Q 31.6875 53.8125 36.671875 48.09375 
L 36.671875 75 
L 50.828125 75 
L 50.828125 0 
z
M 17.390625 25.78125 
Q 17.390625 19.4375 19.625 14.96875 
Q 21.875 10.5 27.4375 10.5 
Q 33.890625 10.5 36.671875 15.96875 
L 36.671875 36.921875 
Q 33.984375 42.390625 27.546875 42.390625 
Q 22.015625 42.390625 19.703125 37.890625 
Q 17.390625 33.40625 17.390625 25.78125 
z
" id="Roboto-Bold-100"/>
       <path d="M 5.328125 66.5 
Q 5.328125 69.671875 7.46875 71.75 
Q 9.625 73.828125 13.234375 73.828125 
Q 16.84375 73.828125 18.984375 71.75 
Q 21.140625 69.671875 21.140625 66.5 
Q 21.140625 63.375 18.984375 61.296875 
Q 16.84375 59.234375 13.234375 59.234375 
Q 9.625 59.234375 7.46875 61.296875 
Q 5.328125 63.375 5.328125 66.5 
z
M 20.359375 52.828125 
L 20.359375 0 
L 6.203125 0 
L 6.203125 52.828125 
z
" id="Roboto-Bold-105"/>
       <path d="M 33.9375 42.53125 
L 23.4375 42.53125 
L 23.4375 0 
L 9.28125 0 
L 9.28125 42.53125 
L 1.421875 42.53125 
L 1.421875 52.828125 
L 9.28125 52.828125 
L 9.28125 57.421875 
Q 9.28125 66.453125 14.5 71.234375 
Q 19.734375 76.03125 28.65625 76.03125 
Q 32.078125 76.03125 35.890625 75.046875 
L 35.75 64.109375 
Q 33.890625 64.546875 31.390625 64.546875 
Q 23.578125 64.546875 23.4375 57.671875 
L 23.4375 52.828125 
L 33.9375 52.828125 
z
" id="Roboto-Bold-102"/>
       <path d="M 28.21875 42.390625 
Q 22.21875 42.390625 19.28125 37.3125 
L 19.28125 0 
L 5.171875 0 
L 5.171875 52.828125 
L 18.40625 52.828125 
L 18.890625 46.78125 
Q 24.5625 53.8125 34.078125 53.8125 
Q 41.546875 53.8125 46.140625 49.359375 
Q 50.734375 44.921875 50.78125 33.890625 
L 50.78125 0 
L 36.625 0 
L 36.625 33.6875 
Q 36.625 38.765625 34.453125 40.578125 
Q 32.28125 42.390625 28.21875 42.390625 
z
" id="Roboto-Bold-110"/>
       <path d="M 27.390625 10.40625 
Q 31.25 10.40625 33.734375 12.53125 
Q 36.234375 14.65625 36.28125 18.265625 
L 49.5625 18.265625 
Q 49.46875 9.859375 43.140625 4.4375 
Q 36.8125 -0.984375 27.640625 -0.984375 
Q 15.375 -0.984375 9.296875 6.75 
Q 3.21875 14.5 3.21875 25.734375 
L 3.21875 27.09375 
Q 3.21875 38.28125 9.265625 46.046875 
Q 15.328125 53.8125 27.59375 53.8125 
Q 37.3125 53.8125 43.390625 48.234375 
Q 49.46875 42.671875 49.5625 33.15625 
L 36.28125 33.15625 
Q 36.234375 37.015625 33.9375 39.71875 
Q 31.640625 42.4375 27.34375 42.4375 
Q 21.1875 42.4375 19.28125 37.8125 
Q 17.390625 33.203125 17.390625 25.734375 
Q 17.390625 19.625 19.265625 15.015625 
Q 21.140625 10.40625 27.390625 10.40625 
z
" id="Roboto-Bold-99"/>
      </defs>
      <use xlink:href="#Roboto-Bold-100"/>
      <use x="56.396484" xlink:href="#Roboto-Bold-105"/>
      <use x="82.910156" xlink:href="#Roboto-Bold-102"/>
      <use x="118.75" xlink:href="#Roboto-Bold-102"/>
      <use x="154.589844" xlink:href="#Roboto-Bold-101"/>
      <use x="208.642578" xlink:href="#Roboto-Bold-114"/>
      <use x="245.166016" xlink:href="#Roboto-Bold-101"/>
      <use x="299.21875" xlink:href="#Roboto-Bold-110"/>
      <use x="355.224609" xlink:href="#Roboto-Bold-99"/>
      <use x="407.421875" xlink:href="#Roboto-Bold-101"/>
     </g>
    </g>
   </g>
   <g id="patch_3">
    <path clip-path="url(#pf588f1e92a)" d="M 92.9214 142.682259 
L 113.3666 142.682259 
L 113.3666 121.928557 
L 92.9214 121.928557 
L 92.9214 142.682259 
z
" style="fill:#d3d3d3;stroke:#7f7f7f;stroke-linejoin:miter;stroke-width:1.5;"/>
   </g>
   <g id="patch_4">
    <path clip-path="url(#pf588f1e92a)" d="M 144.0344 189.342404 
L 164.4796 189.342404 
L 164.4796 140.248599 
L 144.0344 140.248599 
L 144.0344 189.342404 
z
" style="fill:#d3d3d3;stroke:#7f7f7f;stroke-linejoin:miter;stroke-width:1.5;"/>
   </g>
   <g id="patch_5">
    <path clip-path="url(#pf588f1e92a)" d="M 195.1474 138.847054 
L 215.5926 138.847054 
L 215.5926 117.526638 
L 195.1474 117.526638 
L 195.1474 138.847054 
z
" style="fill:#d3d3d3;stroke:#7f7f7f;stroke-linejoin:miter;stroke-width:1.5;"/>
   </g>
   <g id="patch_6">
    <path clip-path="url(#pf588f1e92a)" d="M 246.2604 174.526352 
L 266.7056 174.526352 
L 266.7056 112.910022 
L 246.2604 112.910022 
L 246.2604 174.526352 
z
" style="fill:#d3d3d3;stroke:#7f7f7f;stroke-linejoin:miter;stroke-width:1.5;"/>
   </g>
   <g id="patch_7">
    <path clip-path="url(#pf588f1e92a)" d="M 297.3734 132.671079 
L 317.8186 132.671079 
L 317.8186 94.017893 
L 297.3734 94.017893 
L 297.3734 132.671079 
z
" style="fill:#d3d3d3;stroke:#7f7f7f;stroke-linejoin:miter;stroke-width:1.5;"/>
   </g>
   <g id="line2d_16">
    <path clip-path="url(#pf588f1e92a)" d="M 77.5875 149.698085 
L 333.1525 149.698085 
" style="fill:none;stroke:#999999;stroke-linecap:square;stroke-width:1.5;"/>
   </g>
   <g id="line2d_17">
    <path clip-path="url(#pf588f1e92a)" d="M 103.144 142.682259 
L 103.144 154.403053 
" style="fill:none;stroke:#7f7f7f;stroke-linecap:square;stroke-width:1.5;"/>
   </g>
   <g id="line2d_18">
    <path clip-path="url(#pf588f1e92a)" d="M 103.144 121.928557 
L 103.144 117.288248 
" style="fill:none;stroke:#7f7f7f;stroke-linecap:square;stroke-width:1.5;"/>
   </g>
   <g id="line2d_19">
    <path clip-path="url(#pf588f1e92a)" d="M 98.0327 154.403053 
L 108.2553 154.403053 
" style="fill:none;stroke:#7f7f7f;stroke-linecap:square;stroke-width:1.5;"/>
   </g>
   <g id="line2d_20">
    <path clip-path="url(#pf588f1e92a)" d="M 98.0327 117.288248 
L 108.2553 117.288248 
" style="fill:none;stroke:#7f7f7f;stroke-linecap:square;stroke-width:1.5;"/>
   </g>
   <g id="line2d_21">
    <defs>
     <path d="M -0 5.656854 
L 3.394113 0 
L 0 -5.656854 
L -3.394113 -0 
z
" id="m8457606424" style="stroke:#7f7f7f;stroke-linejoin:miter;"/>
    </defs>
    <g clip-path="url(#pf588f1e92a)">
     <use style="fill:#7f7f7f;stroke:#7f7f7f;stroke-linejoin:miter;" x="103.144" xlink:href="#m8457606424" y="21.207124"/>
    </g>
   </g>
   <g id="line2d_22">
    <path clip-path="url(#pf588f1e92a)" d="M 154.257 189.342404 
L 154.257 212.85932 
" style="fill:none;stroke:#7f7f7f;stroke-linecap:square;stroke-width:1.5;"/>
   </g>
   <g id="line2d_23">
    <path clip-path="url(#pf588f1e92a)" d="M 154.257 140.248599 
L 154.257 123.959917 
" style="fill:none;stroke:#7f7f7f;stroke-linecap:square;stroke-width:1.5;"/>
   </g>
   <g id="line2d_24">
    <path clip-path="url(#pf588f1e92a)" d="M 149.1457 212.85932 
L 159.3683 212.85932 
" style="fill:none;stroke:#7f7f7f;stroke-linecap:square;stroke-width:1.5;"/>
   </g>
   <g id="line2d_25">
    <path clip-path="url(#pf588f1e92a)" d="M 149.1457 123.959917 
L 159.3683 123.959917 
" style="fill:none;stroke:#7f7f7f;stroke-linecap:square;stroke-width:1.5;"/>
   </g>
   <g id="line2d_26">
    <g clip-path="url(#pf588f1e92a)">
     <use style="fill:#7f7f7f;stroke:#7f7f7f;stroke-linejoin:miter;" x="154.257" xlink:href="#m8457606424" y="45.200077"/>
    </g>
   </g>
   <g id="line2d_27">
    <path clip-path="url(#pf588f1e92a)" d="M 205.37 138.847054 
L 205.37 167.024093 
" style="fill:none;stroke:#7f7f7f;stroke-linecap:square;stroke-width:1.5;"/>
   </g>
   <g id="line2d_28">
    <path clip-path="url(#pf588f1e92a)" d="M 205.37 117.526638 
L 205.37 108.977966 
" style="fill:none;stroke:#7f7f7f;stroke-linecap:square;stroke-width:1.5;"/>
   </g>
   <g id="line2d_29">
    <path clip-path="url(#pf588f1e92a)" d="M 200.2587 167.024093 
L 210.4813 167.024093 
" style="fill:none;stroke:#7f7f7f;stroke-linecap:square;stroke-width:1.5;"/>
   </g>
   <g id="line2d_30">
    <path clip-path="url(#pf588f1e92a)" d="M 200.2587 108.977966 
L 210.4813 108.977966 
" style="fill:none;stroke:#7f7f7f;stroke-linecap:square;stroke-width:1.5;"/>
   </g>
   <g id="line2d_31">
    <g clip-path="url(#pf588f1e92a)">
     <use style="fill:#7f7f7f;stroke:#7f7f7f;stroke-linejoin:miter;" x="205.37" xlink:href="#m8457606424" y="63.545925"/>
    </g>
   </g>
   <g id="line2d_32">
    <path clip-path="url(#pf588f1e92a)" d="M 256.483 174.526352 
L 256.483 212.966241 
" style="fill:none;stroke:#7f7f7f;stroke-linecap:square;stroke-width:1.5;"/>
   </g>
   <g id="line2d_33">
    <path clip-path="url(#pf588f1e92a)" d="M 256.483 112.910022 
L 256.483 69.833652 
" style="fill:none;stroke:#7f7f7f;stroke-linecap:square;stroke-width:1.5;"/>
   </g>
   <g id="line2d_34">
    <path clip-path="url(#pf588f1e92a)" d="M 251.3717 212.966241 
L 261.5943 212.966241 
" style="fill:none;stroke:#7f7f7f;stroke-linecap:square;stroke-width:1.5;"/>
   </g>
   <g id="line2d_35">
    <path clip-path="url(#pf588f1e92a)" d="M 251.3717 69.833652 
L 261.5943 69.833652 
" style="fill:none;stroke:#7f7f7f;stroke-linecap:square;stroke-width:1.5;"/>
   </g>
   <g id="line2d_36">
    <g clip-path="url(#pf588f1e92a)">
     <use style="fill:#7f7f7f;stroke:#7f7f7f;stroke-linejoin:miter;" x="256.483" xlink:href="#m8457606424" y="275.943521"/>
    </g>
   </g>
   <g id="line2d_37">
    <path clip-path="url(#pf588f1e92a)" d="M 307.596 132.671079 
L 307.596 177.85965 
" style="fill:none;stroke:#7f7f7f;stroke-linecap:square;stroke-width:1.5;"/>
   </g>
   <g id="line2d_38">
    <path clip-path="url(#pf588f1e92a)" d="M 307.596 94.017893 
L 307.596 38.145881 
" style="fill:none;stroke:#7f7f7f;stroke-linecap:square;stroke-width:1.5;"/>
   </g>
   <g id="line2d_39">
    <path clip-path="url(#pf588f1e92a)" d="M 302.4847 177.85965 
L 312.7073 177.85965 
" style="fill:none;stroke:#7f7f7f;stroke-linecap:square;stroke-width:1.5;"/>
   </g>
   <g id="line2d_40">
    <path clip-path="url(#pf588f1e92a)" d="M 302.4847 38.145881 
L 312.7073 38.145881 
" style="fill:none;stroke:#7f7f7f;stroke-linecap:square;stroke-width:1.5;"/>
   </g>
   <g id="line2d_41"/>
   <g id="line2d_42">
    <path clip-path="url(#pf588f1e92a)" d="M 92.9214 128.138023 
L 113.3666 128.138023 
" style="fill:none;stroke:#7f7f7f;stroke-linecap:square;stroke-width:1.5;"/>
   </g>
   <g id="line2d_43">
    <path clip-path="url(#pf588f1e92a)" d="M 144.0344 159.401615 
L 164.4796 159.401615 
" style="fill:none;stroke:#7f7f7f;stroke-linecap:square;stroke-width:1.5;"/>
   </g>
   <g id="line2d_44">
    <path clip-path="url(#pf588f1e92a)" d="M 195.1474 123.967653 
L 215.5926 123.967653 
" style="fill:none;stroke:#7f7f7f;stroke-linecap:square;stroke-width:1.5;"/>
   </g>
   <g id="line2d_45">
    <path clip-path="url(#pf588f1e92a)" d="M 246.2604 144.534526 
L 266.7056 144.534526 
" style="fill:none;stroke:#7f7f7f;stroke-linecap:square;stroke-width:1.5;"/>
   </g>
   <g id="line2d_46">
    <path clip-path="url(#pf588f1e92a)" d="M 297.3734 99.257249 
L 317.8186 99.257249 
" style="fill:none;stroke:#7f7f7f;stroke-linecap:square;stroke-width:1.5;"/>
   </g>
   <g id="patch_8">
    <path d="M 77.5875 288.68034 
L 77.5875 8.470305 
" style="fill:none;stroke:#555555;stroke-linecap:square;stroke-linejoin:miter;"/>
   </g>
   <g id="patch_9">
    <path d="M 77.5875 288.68034 
L 333.1525 288.68034 
" style="fill:none;stroke:#555555;stroke-linecap:square;stroke-linejoin:miter;"/>
   </g>
   <g id="PathCollection_1">
    <defs>
     <path d="M 0 3 
C 0.795609 3 1.55874 2.683901 2.12132 2.12132 
C 2.683901 1.55874 3 0.795609 3 -0 
C 3 -0.795609 2.683901 -1.55874 2.12132 -2.12132 
C 1.55874 -2.683901 0.795609 -3 0 -3 
C -0.795609 -3 -1.55874 -2.683901 -2.12132 -2.12132 
C -2.683901 -1.55874 -3 -0.795609 -3 0 
C -3 0.795609 -2.683901 1.55874 -2.12132 2.12132 
C -1.55874 2.683901 -0.795609 3 0 3 
z
" id="C0_0_6dd717a35b"/>
    </defs>
    <g clip-path="url(#pf588f1e92a)">
     <use style="fill:#333333;" x="103.144" xlink:href="#C0_0_6dd717a35b" y="154.403053"/>
    </g>
    <g clip-path="url(#pf588f1e92a)">
     <use style="fill:#333333;" x="99.956434" xlink:href="#C0_0_6dd717a35b" y="149.443714"/>
    </g>
    <g clip-path="url(#pf588f1e92a)">
     <use style="fill:#333333;" x="103.144" xlink:href="#C0_0_6dd717a35b" y="142.682259"/>
    </g>
    <g clip-path="url(#pf588f1e92a)">
     <use style="fill:#333333;" x="97.41628" xlink:href="#C0_0_6dd717a35b" y="141.956492"/>
    </g>
    <g clip-path="url(#pf588f1e92a)">
     <use style="fill:#333333;" x="103.144" xlink:href="#C0_0_6dd717a35b" y="128.138023"/>
    </g>
    <g clip-path="url(#pf588f1e92a)">
     <use style="fill:#333333;" x="97.757728" xlink:href="#C0_0_6dd717a35b" y="126.002633"/>
    </g>
    <g clip-path="url(#pf588f1e92a)">
     <use style="fill:#333333;" x="103.144" xlink:href="#C0_0_6dd717a35b" y="121.928557"/>
    </g>
    <g clip-path="url(#pf588f1e92a)">
     <use style="fill:#333333;" x="99.532603" xlink:href="#C0_0_6dd717a35b" y="117.288248"/>
    </g>
    <g clip-path="url(#pf588f1e92a)">
     <use style="fill:#333333;" x="103.144" xlink:href="#C0_0_6dd717a35b" y="21.207124"/>
    </g>
   </g>
   <g id="PathCollection_2">
    <defs>
     <path d="M 0 3 
C 0.795609 3 1.55874 2.683901 2.12132 2.12132 
C 2.683901 1.55874 3 0.795609 3 -0 
C 3 -0.795609 2.683901 -1.55874 2.12132 -2.12132 
C 1.55874 -2.683901 0.795609 -3 0 -3 
C -0.795609 -3 -1.55874 -2.683901 -2.12132 -2.12132 
C -2.683901 -1.55874 -3 -0.795609 -3 0 
C -3 0.795609 -2.683901 1.55874 -2.12132 2.12132 
C -1.55874 2.683901 -0.795609 3 0 3 
z
" id="C1_0_c8b961c2a7"/>
    </defs>
    <g clip-path="url(#pf588f1e92a)">
     <use style="fill:#333333;" x="154.257" xlink:href="#C1_0_c8b961c2a7" y="212.85932"/>
    </g>
    <g clip-path="url(#pf588f1e92a)">
     <use style="fill:#333333;" x="148.991658" xlink:href="#C1_0_c8b961c2a7" y="210.42439"/>
    </g>
    <g clip-path="url(#pf588f1e92a)">
     <use style="fill:#333333;" x="154.257" xlink:href="#C1_0_c8b961c2a7" y="189.342404"/>
    </g>
    <g clip-path="url(#pf588f1e92a)">
     <use style="fill:#333333;" x="154.257" xlink:href="#C1_0_c8b961c2a7" y="183.28778"/>
    </g>
    <g clip-path="url(#pf588f1e92a)">
     <use style="fill:#333333;" x="154.257" xlink:href="#C1_0_c8b961c2a7" y="159.401615"/>
    </g>
    <g clip-path="url(#pf588f1e92a)">
     <use style="fill:#333333;" x="154.257" xlink:href="#C1_0_c8b961c2a7" y="144.809998"/>
    </g>
    <g clip-path="url(#pf588f1e92a)">
     <use style="fill:#333333;" x="157.961781" xlink:href="#C1_0_c8b961c2a7" y="140.248599"/>
    </g>
    <g clip-path="url(#pf588f1e92a)">
     <use style="fill:#333333;" x="154.257" xlink:href="#C1_0_c8b961c2a7" y="123.959917"/>
    </g>
    <g clip-path="url(#pf588f1e92a)">
     <use style="fill:#333333;" x="154.257" xlink:href="#C1_0_c8b961c2a7" y="45.200077"/>
    </g>
   </g>
   <g id="PathCollection_3">
    <defs>
     <path d="M 0 3 
C 0.795609 3 1.55874 2.683901 2.12132 2.12132 
C 2.683901 1.55874 3 0.795609 3 -0 
C 3 -0.795609 2.683901 -1.55874 2.12132 -2.12132 
C 1.55874 -2.683901 0.795609 -3 0 -3 
C -0.795609 -3 -1.55874 -2.683901 -2.12132 -2.12132 
C -2.683901 -1.55874 -3 -0.795609 -3 0 
C -3 0.795609 -2.683901 1.55874 -2.12132 2.12132 
C -1.55874 2.683901 -0.795609 3 0 3 
z
" id="C2_0_1078b55a89"/>
    </defs>
    <g clip-path="url(#pf588f1e92a)">
     <use style="fill:#333333;" x="205.37" xlink:href="#C2_0_1078b55a89" y="167.024093"/>
    </g>
    <g clip-path="url(#pf588f1e92a)">
     <use style="fill:#333333;" x="205.37" xlink:href="#C2_0_1078b55a89" y="152.773006"/>
    </g>
    <g clip-path="url(#pf588f1e92a)">
     <use style="fill:#333333;" x="205.37" xlink:href="#C2_0_1078b55a89" y="134.205069"/>
    </g>
    <g clip-path="url(#pf588f1e92a)">
     <use style="fill:#333333;" x="205.37" xlink:href="#C2_0_1078b55a89" y="127.474096"/>
    </g>
    <g clip-path="url(#pf588f1e92a)">
     <use style="fill:#333333;" x="205.37" xlink:href="#C2_0_1078b55a89" y="120.461211"/>
    </g>
    <g clip-path="url(#pf588f1e92a)">
     <use style="fill:#333333;" x="199.599767" xlink:href="#C2_0_1078b55a89" y="120.376195"/>
    </g>
    <g clip-path="url(#pf588f1e92a)">
     <use style="fill:#333333;" x="205.37" xlink:href="#C2_0_1078b55a89" y="108.977966"/>
    </g>
    <g clip-path="url(#pf588f1e92a)">
     <use style="fill:#333333;" x="205.37" xlink:href="#C2_0_1078b55a89" y="63.545925"/>
    </g>
   </g>
   <g id="PathCollection_4">
    <defs>
     <path d="M 0 3 
C 0.795609 3 1.55874 2.683901 2.12132 2.12132 
C 2.683901 1.55874 3 0.795609 3 -0 
C 3 -0.795609 2.683901 -1.55874 2.12132 -2.12132 
C 1.55874 -2.683901 0.795609 -3 0 -3 
C -0.795609 -3 -1.55874 -2.683901 -2.12132 -2.12132 
C -2.683901 -1.55874 -3 -0.795609 -3 0 
C -3 0.795609 -2.683901 1.55874 -2.12132 2.12132 
C -1.55874 2.683901 -0.795609 3 0 3 
z
" id="C3_0_9860b23e94"/>
    </defs>
    <g clip-path="url(#pf588f1e92a)">
     <use style="fill:#333333;" x="256.483" xlink:href="#C3_0_9860b23e94" y="275.943521"/>
    </g>
    <g clip-path="url(#pf588f1e92a)">
     <use style="fill:#333333;" x="256.483" xlink:href="#C3_0_9860b23e94" y="212.966241"/>
    </g>
    <g clip-path="url(#pf588f1e92a)">
     <use style="fill:#333333;" x="256.483" xlink:href="#C3_0_9860b23e94" y="174.526352"/>
    </g>
    <g clip-path="url(#pf588f1e92a)">
     <use style="fill:#333333;" x="256.483" xlink:href="#C3_0_9860b23e94" y="164.066478"/>
    </g>
    <g clip-path="url(#pf588f1e92a)">
     <use style="fill:#333333;" x="256.483" xlink:href="#C3_0_9860b23e94" y="144.534526"/>
    </g>
    <g clip-path="url(#pf588f1e92a)">
     <use style="fill:#333333;" x="256.483" xlink:href="#C3_0_9860b23e94" y="126.379687"/>
    </g>
    <g clip-path="url(#pf588f1e92a)">
     <use style="fill:#333333;" x="256.483" xlink:href="#C3_0_9860b23e94" y="112.910022"/>
    </g>
    <g clip-path="url(#pf588f1e92a)">
     <use style="fill:#333333;" x="256.483" xlink:href="#C3_0_9860b23e94" y="94.687259"/>
    </g>
    <g clip-path="url(#pf588f1e92a)">
     <use style="fill:#333333;" x="256.483" xlink:href="#C3_0_9860b23e94" y="69.833652"/>
    </g>
   </g>
   <g id="PathCollection_5">
    <defs>
     <path d="M 0 3 
C 0.795609 3 1.55874 2.683901 2.12132 2.12132 
C 2.683901 1.55874 3 0.795609 3 -0 
C 3 -0.795609 2.683901 -1.55874 2.12132 -2.12132 
C 1.55874 -2.683901 0.795609 -3 0 -3 
C -0.795609 -3 -1.55874 -2.683901 -2.12132 -2.12132 
C -2.683901 -1.55874 -3 -0.795609 -3 0 
C -3 0.795609 -2.683901 1.55874 -2.12132 2.12132 
C -1.55874 2.683901 -0.795609 3 0 3 
z
" id="C4_0_2220fcbf89"/>
    </defs>
    <g clip-path="url(#pf588f1e92a)">
     <use style="fill:#333333;" x="307.596" xlink:href="#C4_0_2220fcbf89" y="177.85965"/>
    </g>
    <g clip-path="url(#pf588f1e92a)">
     <use style="fill:#333333;" x="303.101832" xlink:href="#C4_0_2220fcbf89" y="174.127656"/>
    </g>
    <g clip-path="url(#pf588f1e92a)">
     <use style="fill:#333333;" x="307.596" xlink:href="#C4_0_2220fcbf89" y="132.671079"/>
    </g>
    <g clip-path="url(#pf588f1e92a)">
     <use style="fill:#333333;" x="307.596" xlink:href="#C4_0_2220fcbf89" y="125.447772"/>
    </g>
    <g clip-path="url(#pf588f1e92a)">
     <use style="fill:#333333;" x="307.596" xlink:href="#C4_0_2220fcbf89" y="99.257249"/>
    </g>
    <g clip-path="url(#pf588f1e92a)">
     <use style="fill:#333333;" x="302.506409" xlink:href="#C4_0_2220fcbf89" y="96.453135"/>
    </g>
    <g clip-path="url(#pf588f1e92a)">
     <use style="fill:#333333;" x="310.329771" xlink:href="#C4_0_2220fcbf89" y="94.017893"/>
    </g>
    <g clip-path="url(#pf588f1e92a)">
     <use style="fill:#333333;" x="307.596" xlink:href="#C4_0_2220fcbf89" y="68.316087"/>
    </g>
    <g clip-path="url(#pf588f1e92a)">
     <use style="fill:#333333;" x="307.596" xlink:href="#C4_0_2220fcbf89" y="38.145881"/>
    </g>
   </g>
  </g>
 </g>
 <defs>
  <clipPath id="pf588f1e92a">
   <rect height="280.210036" width="255.565" x="77.5875" y="8.470305"/>
  </clipPath>
 </defs>
</svg>
