<?xml version="1.0" encoding="utf-8" standalone="no"?>
<!DOCTYPE svg PUBLIC "-//W3C//DTD SVG 1.1//EN"
  "http://www.w3.org/Graphics/SVG/1.1/DTD/svg11.dtd">
<!-- Created with matplotlib (https://matplotlib.org/) -->
<svg height="496.71pt" version="1.1" viewBox="0 0 250.145 496.71" width="250.145pt" xmlns="http://www.w3.org/2000/svg" xmlns:xlink="http://www.w3.org/1999/xlink">
 <metadata>
  <rdf:RDF xmlns:cc="http://creativecommons.org/ns#" xmlns:dc="http://purl.org/dc/elements/1.1/" xmlns:rdf="http://www.w3.org/1999/02/22-rdf-syntax-ns#">
   <cc:Work>
    <dc:type rdf:resource="http://purl.org/dc/dcmitype/StillImage"/>
    <dc:date>2021-06-21T13:57:29.403973</dc:date>
    <dc:format>image/svg+xml</dc:format>
    <dc:creator>
     <cc:Agent>
      <dc:title>Matplotlib v3.3.4, https://matplotlib.org/</dc:title>
     </cc:Agent>
    </dc:creator>
   </cc:Work>
  </rdf:RDF>
 </metadata>
 <defs>
  <style type="text/css">*{stroke-linecap:butt;stroke-linejoin:round;}</style>
 </defs>
 <g id="figure_1">
  <g id="patch_1">
   <path d="M -0 496.71 
L 250.145 496.71 
L 250.145 0 
L -0 0 
z
" style="fill:#ffffff;"/>
  </g>
  <g id="axes_1">
   <g id="patch_2">
    <path d="M 75.545 444.96 
L 242.945 444.96 
L 242.945 7.2 
L 75.545 7.2 
z
" style="fill:#ffffff;"/>
   </g>
   <g id="matplotlib.axis_1">
    <g id="xtick_1">
     <g id="line2d_1">
      <defs>
       <path d="M 0 0 
L 0 3.5 
" id="ma2434a7f04" style="stroke:#555555;stroke-width:0.8;"/>
      </defs>
      <g>
       <use style="fill:#555555;stroke:#555555;stroke-width:0.8;" x="75.545" xlink:href="#ma2434a7f04" y="444.96"/>
      </g>
     </g>
     <g id="text_1">
      <!-- 0 -->
      <g style="fill:#555555;" transform="translate(70.955 463.96)scale(0.16 -0.16)">
       <defs>
        <path d="M 52.6875 29.4375 
Q 52.6875 13.375 46.09375 6.1875 
Q 39.5 -0.984375 28.75 -0.984375 
Q 18.015625 -0.984375 11.34375 6.1875 
Q 4.6875 13.375 4.6875 29.4375 
L 4.6875 41.796875 
Q 4.6875 57.8125 11.296875 64.9375 
Q 17.921875 72.078125 28.65625 72.078125 
Q 39.359375 72.078125 46 64.984375 
Q 52.640625 57.90625 52.6875 42.046875 
z
M 38.578125 43.75 
Q 38.578125 53.21875 35.984375 56.953125 
Q 33.40625 60.6875 28.65625 60.6875 
Q 24.03125 60.6875 21.4375 57.03125 
Q 18.84375 53.375 18.796875 44.140625 
L 18.796875 27.546875 
Q 18.796875 18.015625 21.40625 14.203125 
Q 24.03125 10.40625 28.765625 10.40625 
Q 33.40625 10.40625 35.96875 14.140625 
Q 38.53125 17.875 38.578125 27.15625 
z
" id="Roboto-Bold-48"/>
       </defs>
       <use xlink:href="#Roboto-Bold-48"/>
      </g>
     </g>
    </g>
    <g id="xtick_2">
     <g id="line2d_2">
      <g>
       <use style="fill:#555555;stroke:#555555;stroke-width:0.8;" x="147.534847" xlink:href="#ma2434a7f04" y="444.96"/>
      </g>
     </g>
     <g id="text_2">
      <!-- 2000 -->
      <g style="fill:#555555;" transform="translate(129.174847 463.96)scale(0.16 -0.16)">
       <defs>
        <path d="M 53.5625 11.375 
L 53.5625 0 
L 4.890625 0 
L 4.890625 9.671875 
L 27.875 34.1875 
Q 33.0625 39.890625 35.078125 43.625 
Q 37.109375 47.359375 37.109375 50.53125 
Q 37.109375 55.28125 34.734375 58.015625 
Q 32.375 60.75 27.9375 60.75 
Q 22.90625 60.75 20.234375 57.328125 
Q 17.578125 53.90625 17.578125 48.734375 
L 3.46875 48.734375 
Q 3.46875 58.34375 10.078125 65.234375 
Q 16.703125 72.125 28.171875 72.125 
Q 39.359375 72.125 45.3125 66.71875 
Q 51.265625 61.328125 51.265625 51.953125 
Q 51.265625 44.921875 47.09375 38.59375 
Q 42.921875 32.28125 35.6875 24.703125 
L 23 11.375 
z
" id="Roboto-Bold-50"/>
       </defs>
       <use xlink:href="#Roboto-Bold-50"/>
       <use x="57.373047" xlink:href="#Roboto-Bold-48"/>
       <use x="114.746094" xlink:href="#Roboto-Bold-48"/>
       <use x="172.119141" xlink:href="#Roboto-Bold-48"/>
      </g>
     </g>
    </g>
    <g id="xtick_3">
     <g id="line2d_3">
      <g>
       <use style="fill:#555555;stroke:#555555;stroke-width:0.8;" x="219.524694" xlink:href="#ma2434a7f04" y="444.96"/>
      </g>
     </g>
     <g id="text_3">
      <!-- 4000 -->
      <g style="fill:#555555;" transform="translate(201.164694 463.96)scale(0.16 -0.16)">
       <defs>
        <path d="M 2.734375 24.265625 
L 32.375 71.09375 
L 46.625 71.09375 
L 46.625 26.765625 
L 54.6875 26.765625 
L 54.6875 15.375 
L 46.625 15.375 
L 46.625 0 
L 32.515625 0 
L 32.515625 15.375 
L 3.375 15.375 
z
M 16.75 26.765625 
L 32.515625 26.765625 
L 32.515625 52 
L 31.546875 50.296875 
z
" id="Roboto-Bold-52"/>
       </defs>
       <use xlink:href="#Roboto-Bold-52"/>
       <use x="57.373047" xlink:href="#Roboto-Bold-48"/>
       <use x="114.746094" xlink:href="#Roboto-Bold-48"/>
       <use x="172.119141" xlink:href="#Roboto-Bold-48"/>
      </g>
     </g>
    </g>
    <g id="text_4">
     <!-- differentiation -->
     <g style="fill:#555555;" transform="translate(97.613 485.61)scale(0.192 -0.192)">
      <defs>
       <path d="M 38.09375 0 
L 37.40625 5.609375 
Q 32.171875 -0.984375 23.875 -0.984375 
Q 14.0625 -0.984375 8.640625 6.640625 
Q 3.21875 14.265625 3.21875 25.78125 
L 3.21875 26.8125 
Q 3.21875 38.875 8.640625 46.34375 
Q 14.0625 53.8125 23.96875 53.8125 
Q 31.6875 53.8125 36.671875 48.09375 
L 36.671875 75 
L 50.828125 75 
L 50.828125 0 
z
M 17.390625 25.78125 
Q 17.390625 19.4375 19.625 14.96875 
Q 21.875 10.5 27.4375 10.5 
Q 33.890625 10.5 36.671875 15.96875 
L 36.671875 36.921875 
Q 33.984375 42.390625 27.546875 42.390625 
Q 22.015625 42.390625 19.703125 37.890625 
Q 17.390625 33.40625 17.390625 25.78125 
z
" id="Roboto-Bold-100"/>
       <path d="M 5.328125 66.5 
Q 5.328125 69.671875 7.46875 71.75 
Q 9.625 73.828125 13.234375 73.828125 
Q 16.84375 73.828125 18.984375 71.75 
Q 21.140625 69.671875 21.140625 66.5 
Q 21.140625 63.375 18.984375 61.296875 
Q 16.84375 59.234375 13.234375 59.234375 
Q 9.625 59.234375 7.46875 61.296875 
Q 5.328125 63.375 5.328125 66.5 
z
M 20.359375 52.828125 
L 20.359375 0 
L 6.203125 0 
L 6.203125 52.828125 
z
" id="Roboto-Bold-105"/>
       <path d="M 33.9375 42.53125 
L 23.4375 42.53125 
L 23.4375 0 
L 9.28125 0 
L 9.28125 42.53125 
L 1.421875 42.53125 
L 1.421875 52.828125 
L 9.28125 52.828125 
L 9.28125 57.421875 
Q 9.28125 66.453125 14.5 71.234375 
Q 19.734375 76.03125 28.65625 76.03125 
Q 32.078125 76.03125 35.890625 75.046875 
L 35.75 64.109375 
Q 33.890625 64.546875 31.390625 64.546875 
Q 23.578125 64.546875 23.4375 57.671875 
L 23.4375 52.828125 
L 33.9375 52.828125 
z
" id="Roboto-Bold-102"/>
       <path d="M 50.390625 8.59375 
Q 47.859375 4.984375 42.671875 2 
Q 37.5 -0.984375 29.78125 -0.984375 
Q 17.484375 -0.984375 10.546875 6.46875 
Q 3.609375 13.921875 3.5625 24.46875 
L 3.5625 26.515625 
Q 3.5625 38.484375 10.21875 46.140625 
Q 16.890625 53.8125 28.21875 53.8125 
Q 39.59375 53.8125 45.546875 46.671875 
Q 51.515625 39.546875 51.515625 27.828125 
L 51.515625 21.828125 
L 17.875 21.828125 
Q 18.609375 16.703125 21.921875 13.546875 
Q 25.25 10.40625 30.671875 10.40625 
Q 38.71875 10.40625 43.40625 16.3125 
z
M 28.125 42.4375 
Q 23.640625 42.4375 21.1875 39.40625 
Q 18.75 36.375 18.015625 31.5 
L 37.640625 31.5 
L 37.640625 32.5625 
Q 37.546875 36.8125 35.28125 39.625 
Q 33.015625 42.4375 28.125 42.4375 
z
" id="Roboto-Bold-101"/>
       <path d="M 30.03125 40.046875 
Q 22.078125 40.046875 19.578125 34.625 
L 19.578125 0 
L 5.421875 0 
L 5.421875 52.828125 
L 18.75 52.828125 
L 19.1875 46.53125 
Q 23.34375 53.8125 30.953125 53.8125 
Q 33.640625 53.8125 35.296875 53.171875 
L 35.15625 39.65625 
z
" id="Roboto-Bold-114"/>
       <path d="M 28.21875 42.390625 
Q 22.21875 42.390625 19.28125 37.3125 
L 19.28125 0 
L 5.171875 0 
L 5.171875 52.828125 
L 18.40625 52.828125 
L 18.890625 46.78125 
Q 24.5625 53.8125 34.078125 53.8125 
Q 41.546875 53.8125 46.140625 49.359375 
Q 50.734375 44.921875 50.78125 33.890625 
L 50.78125 0 
L 36.625 0 
L 36.625 33.6875 
Q 36.625 38.765625 34.453125 40.578125 
Q 32.28125 42.390625 28.21875 42.390625 
z
" id="Roboto-Bold-110"/>
       <path d="M 31.890625 0.34375 
Q 27.9375 -0.984375 23.390625 -0.984375 
Q 16.453125 -0.984375 12.34375 2.625 
Q 8.25 6.25 8.25 14.65625 
L 8.25 42.53125 
L 0.484375 42.53125 
L 0.484375 52.828125 
L 8.25 52.828125 
L 8.25 65.875 
L 22.359375 65.875 
L 22.359375 52.828125 
L 31.34375 52.828125 
L 31.34375 42.53125 
L 22.359375 42.53125 
L 22.359375 16.109375 
Q 22.359375 12.796875 23.71875 11.71875 
Q 25.09375 10.640625 27.78125 10.640625 
Q 29.9375 10.640625 31.890625 11.03125 
z
" id="Roboto-Bold-116"/>
       <path d="M 36.03125 0 
Q 35.15625 1.859375 34.625 4.734375 
Q 29.5 -0.984375 21.296875 -0.984375 
Q 13.71875 -0.984375 8.546875 3.484375 
Q 3.375 7.953125 3.375 14.84375 
Q 3.375 23.140625 9.515625 27.703125 
Q 15.671875 32.28125 27.734375 32.28125 
L 34.03125 32.28125 
L 34.03125 35.359375 
Q 34.03125 39.015625 32.15625 41.1875 
Q 30.28125 43.359375 26.21875 43.359375 
Q 18.65625 43.359375 18.65625 37.015625 
L 4.546875 37.015625 
Q 4.546875 43.890625 10.640625 48.84375 
Q 16.75 53.8125 27 53.8125 
Q 36.140625 53.8125 42.15625 49.171875 
Q 48.1875 44.53125 48.1875 35.25 
L 48.1875 11.71875 
Q 48.296875 4.6875 50.296875 0.828125 
L 50.296875 0 
z
M 24.359375 9.8125 
Q 27.9375 9.8125 30.4375 11.390625 
Q 32.953125 12.984375 34.03125 14.890625 
L 34.03125 24.078125 
L 28.265625 24.078125 
Q 22.65625 24.078125 20.0625 21.703125 
Q 17.484375 19.34375 17.484375 15.875 
Q 17.484375 13.234375 19.3125 11.515625 
Q 21.140625 9.8125 24.359375 9.8125 
z
" id="Roboto-Bold-97"/>
       <path d="M 3.21875 26.90625 
Q 3.21875 38.421875 9.765625 46.109375 
Q 16.3125 53.8125 28.21875 53.8125 
Q 40.28125 53.8125 46.765625 46.109375 
Q 53.265625 38.421875 53.265625 26.90625 
L 53.265625 25.875 
Q 53.265625 14.359375 46.765625 6.6875 
Q 40.28125 -0.984375 28.328125 -0.984375 
Q 16.453125 -0.984375 9.9375 6.484375 
Q 3.421875 13.96875 3.21875 25.25 
z
M 17.390625 25.875 
Q 17.390625 19.4375 19.84375 14.921875 
Q 22.3125 10.40625 28.328125 10.40625 
Q 34.234375 10.40625 36.6875 14.890625 
Q 39.15625 19.390625 39.15625 26.90625 
Q 39.15625 33.203125 36.6875 37.8125 
Q 34.234375 42.4375 28.21875 42.4375 
Q 22.265625 42.4375 19.828125 37.84375 
Q 17.390625 33.25 17.390625 25.875 
z
" id="Roboto-Bold-111"/>
      </defs>
      <use xlink:href="#Roboto-Bold-100"/>
      <use x="56.396484" xlink:href="#Roboto-Bold-105"/>
      <use x="82.910156" xlink:href="#Roboto-Bold-102"/>
      <use x="118.75" xlink:href="#Roboto-Bold-102"/>
      <use x="154.589844" xlink:href="#Roboto-Bold-101"/>
      <use x="208.642578" xlink:href="#Roboto-Bold-114"/>
      <use x="245.166016" xlink:href="#Roboto-Bold-101"/>
      <use x="299.21875" xlink:href="#Roboto-Bold-110"/>
      <use x="355.224609" xlink:href="#Roboto-Bold-116"/>
      <use x="389.013672" xlink:href="#Roboto-Bold-105"/>
      <use x="415.527344" xlink:href="#Roboto-Bold-97"/>
      <use x="469.140625" xlink:href="#Roboto-Bold-116"/>
      <use x="502.929688" xlink:href="#Roboto-Bold-105"/>
      <use x="529.443359" xlink:href="#Roboto-Bold-111"/>
      <use x="585.986328" xlink:href="#Roboto-Bold-110"/>
     </g>
    </g>
   </g>
   <g id="matplotlib.axis_2">
    <g id="ytick_1">
     <g id="line2d_4">
      <defs>
       <path d="M 0 0 
L -3.5 0 
" id="ma02e3d064c" style="stroke:#555555;stroke-width:0.8;"/>
      </defs>
      <g>
       <use style="fill:#555555;stroke:#555555;stroke-width:0.8;" x="75.545" xlink:href="#ma02e3d064c" y="80.16"/>
      </g>
     </g>
     <g id="text_5">
      <!-- periodic -->
      <g style="fill:#555555;" transform="translate(10.1375 86.16)scale(0.16 -0.16)">
       <defs>
        <path d="M 32.515625 -0.984375 
Q 24.609375 -0.984375 19.578125 4.640625 
L 19.578125 -20.3125 
L 5.421875 -20.3125 
L 5.421875 52.828125 
L 18.5625 52.828125 
L 19.09375 47.703125 
Q 24.125 53.8125 32.375 53.8125 
Q 42.4375 53.8125 47.734375 46.4375 
Q 53.03125 39.0625 53.03125 27 
L 53.03125 25.984375 
Q 53.03125 14.453125 47.734375 6.734375 
Q 42.4375 -0.984375 32.515625 -0.984375 
z
M 28.71875 42.390625 
Q 22.125 42.390625 19.578125 37.25 
L 19.578125 15.625 
Q 22.21875 10.40625 28.8125 10.40625 
Q 34.328125 10.40625 36.625 14.96875 
Q 38.921875 19.53125 38.921875 27 
Q 38.921875 33.546875 36.546875 37.96875 
Q 34.1875 42.390625 28.71875 42.390625 
z
" id="Roboto-Bold-112"/>
        <path d="M 27.390625 10.40625 
Q 31.25 10.40625 33.734375 12.53125 
Q 36.234375 14.65625 36.28125 18.265625 
L 49.5625 18.265625 
Q 49.46875 9.859375 43.140625 4.4375 
Q 36.8125 -0.984375 27.640625 -0.984375 
Q 15.375 -0.984375 9.296875 6.75 
Q 3.21875 14.5 3.21875 25.734375 
L 3.21875 27.09375 
Q 3.21875 38.28125 9.265625 46.046875 
Q 15.328125 53.8125 27.59375 53.8125 
Q 37.3125 53.8125 43.390625 48.234375 
Q 49.46875 42.671875 49.5625 33.15625 
L 36.28125 33.15625 
Q 36.234375 37.015625 33.9375 39.71875 
Q 31.640625 42.4375 27.34375 42.4375 
Q 21.1875 42.4375 19.28125 37.8125 
Q 17.390625 33.203125 17.390625 25.734375 
Q 17.390625 19.625 19.265625 15.015625 
Q 21.140625 10.40625 27.390625 10.40625 
z
" id="Roboto-Bold-99"/>
       </defs>
       <use xlink:href="#Roboto-Bold-112"/>
       <use x="56.298828" xlink:href="#Roboto-Bold-101"/>
       <use x="110.351562" xlink:href="#Roboto-Bold-114"/>
       <use x="146.875" xlink:href="#Roboto-Bold-105"/>
       <use x="173.388672" xlink:href="#Roboto-Bold-111"/>
       <use x="229.931641" xlink:href="#Roboto-Bold-100"/>
       <use x="286.328125" xlink:href="#Roboto-Bold-105"/>
       <use x="312.841797" xlink:href="#Roboto-Bold-99"/>
      </g>
     </g>
    </g>
    <g id="ytick_2">
     <g id="line2d_5">
      <g>
       <use style="fill:#555555;stroke:#555555;stroke-width:0.8;" x="75.545" xlink:href="#ma02e3d064c" y="226.08"/>
      </g>
     </g>
     <g id="text_6">
      <!-- irregular -->
      <g style="fill:#555555;" transform="translate(7.2 232.08)scale(0.16 -0.16)">
       <defs>
        <path d="M 26.265625 -20.796875 
Q 21.484375 -20.796875 15.75 -18.796875 
Q 10.015625 -16.796875 6.59375 -12.546875 
L 12.84375 -3.953125 
Q 18.0625 -9.8125 25.6875 -9.8125 
Q 31.296875 -9.8125 34.421875 -6.8125 
Q 37.546875 -3.8125 37.546875 1.765625 
L 37.546875 4.59375 
Q 32.5625 -0.984375 24.703125 -0.984375 
Q 14.890625 -0.984375 9.171875 6.53125 
Q 3.46875 14.0625 3.375 25.390625 
L 3.375 26.8125 
Q 3.375 38.875 9.109375 46.34375 
Q 14.84375 53.8125 24.8125 53.8125 
Q 33.546875 53.8125 38.375 47.859375 
L 38.921875 52.828125 
L 51.703125 52.828125 
L 51.703125 1.8125 
Q 51.703125 -9.078125 44.640625 -14.9375 
Q 37.59375 -20.796875 26.265625 -20.796875 
z
M 17.484375 25.78125 
Q 17.484375 19.4375 20.09375 14.96875 
Q 22.703125 10.5 28.265625 10.5 
Q 34.71875 10.5 37.546875 15.375 
L 37.546875 37.546875 
Q 34.765625 42.390625 28.375 42.390625 
Q 22.859375 42.390625 20.171875 37.859375 
Q 17.484375 33.34375 17.484375 26.8125 
z
" id="Roboto-Bold-103"/>
        <path d="M 37.5 0 
L 37.109375 5.421875 
Q 31.9375 -0.984375 22.65625 -0.984375 
Q 14.890625 -0.984375 10.03125 3.5625 
Q 5.171875 8.109375 5.125 18.453125 
L 5.125 52.828125 
L 19.234375 52.828125 
L 19.234375 18.5625 
Q 19.234375 14.15625 21.328125 12.328125 
Q 23.4375 10.5 26.703125 10.5 
Q 33.890625 10.5 36.625 15.53125 
L 36.625 52.828125 
L 50.78125 52.828125 
L 50.78125 0 
z
" id="Roboto-Bold-117"/>
        <path d="M 20.359375 75 
L 20.359375 0 
L 6.203125 0 
L 6.203125 75 
z
" id="Roboto-Bold-108"/>
       </defs>
       <use xlink:href="#Roboto-Bold-105"/>
       <use x="26.513672" xlink:href="#Roboto-Bold-114"/>
       <use x="63.037109" xlink:href="#Roboto-Bold-114"/>
       <use x="99.560547" xlink:href="#Roboto-Bold-101"/>
       <use x="153.613281" xlink:href="#Roboto-Bold-103"/>
       <use x="210.742188" xlink:href="#Roboto-Bold-117"/>
       <use x="266.748047" xlink:href="#Roboto-Bold-108"/>
       <use x="293.261719" xlink:href="#Roboto-Bold-97"/>
       <use x="346.875" xlink:href="#Roboto-Bold-114"/>
      </g>
     </g>
    </g>
    <g id="ytick_3">
     <g id="line2d_6">
      <g>
       <use style="fill:#555555;stroke:#555555;stroke-width:0.8;" x="75.545" xlink:href="#ma02e3d064c" y="372"/>
      </g>
     </g>
     <g id="text_7">
      <!-- noise -->
      <g style="fill:#555555;" transform="translate(29.4125 378)scale(0.16 -0.16)">
       <defs>
        <path d="M 34.03125 14.65625 
Q 34.03125 16.890625 31.953125 18.421875 
Q 29.890625 19.96875 23.046875 21.4375 
Q 14.890625 23.1875 9.65625 26.890625 
Q 4.4375 30.609375 4.4375 37.40625 
Q 4.4375 44 10.03125 48.90625 
Q 15.625 53.8125 25.484375 53.8125 
Q 35.796875 53.8125 41.703125 48.96875 
Q 47.609375 44.140625 47.609375 36.765625 
L 33.5 36.765625 
Q 33.5 39.796875 31.546875 41.796875 
Q 29.59375 43.796875 25.4375 43.796875 
Q 21.921875 43.796875 19.9375 42.15625 
Q 17.96875 40.53125 17.96875 38.09375 
Q 17.96875 35.84375 20.0625 34.375 
Q 22.171875 32.90625 27.828125 31.78125 
Q 36.421875 30.078125 42.078125 26.5625 
Q 47.75 23.046875 47.75 15.1875 
Q 47.75 8.203125 41.75 3.609375 
Q 35.75 -0.984375 25.53125 -0.984375 
Q 14.453125 -0.984375 8.59375 4.703125 
Q 2.734375 10.40625 2.734375 16.84375 
L 16.15625 16.84375 
Q 16.359375 12.703125 19.21875 10.890625 
Q 22.078125 9.078125 25.828125 9.078125 
Q 34.03125 9.078125 34.03125 14.65625 
z
" id="Roboto-Bold-115"/>
       </defs>
       <use xlink:href="#Roboto-Bold-110"/>
       <use x="56.005859" xlink:href="#Roboto-Bold-111"/>
       <use x="112.548828" xlink:href="#Roboto-Bold-105"/>
       <use x="139.0625" xlink:href="#Roboto-Bold-115"/>
       <use x="190.527344" xlink:href="#Roboto-Bold-101"/>
      </g>
     </g>
    </g>
   </g>
   <g id="patch_3">
    <path clip-path="url(#p7a47348a57)" d="M 75.545 58.272 
L 75.545 58.272 
L 75.545 102.048 
L 75.545 102.048 
z
" style="fill:#555555;"/>
   </g>
   <g id="patch_4">
    <path clip-path="url(#p7a47348a57)" d="M 75.545 204.192 
L 234.973571 204.192 
L 234.973571 247.968 
L 75.545 247.968 
z
" style="fill:#555555;"/>
   </g>
   <g id="patch_5">
    <path clip-path="url(#p7a47348a57)" d="M 75.545 350.112 
L 86.975541 350.112 
L 86.975541 393.888 
L 75.545 393.888 
z
" style="fill:#555555;"/>
   </g>
   <g id="line2d_7">
    <path clip-path="url(#p7a47348a57)" d="M 0 0 
" style="fill:none;stroke:#424242;stroke-linecap:square;stroke-width:2.7;"/>
   </g>
   <g id="line2d_8">
    <path clip-path="url(#p7a47348a57)" d="M 0 0 
" style="fill:none;stroke:#424242;stroke-linecap:square;stroke-width:2.7;"/>
   </g>
   <g id="line2d_9">
    <path clip-path="url(#p7a47348a57)" d="M 0 0 
" style="fill:none;stroke:#424242;stroke-linecap:square;stroke-width:2.7;"/>
   </g>
   <g id="patch_6">
    <path d="M 75.545 444.96 
L 75.545 7.2 
" style="fill:none;stroke:#555555;stroke-linecap:square;stroke-linejoin:miter;"/>
   </g>
   <g id="patch_7">
    <path d="M 75.545 444.96 
L 242.945 444.96 
" style="fill:none;stroke:#555555;stroke-linecap:square;stroke-linejoin:miter;"/>
   </g>
  </g>
 </g>
 <defs>
  <clipPath id="p7a47348a57">
   <rect height="437.76" width="167.4" x="75.545" y="7.2"/>
  </clipPath>
 </defs>
</svg>
