<?xml version="1.0" encoding="utf-8" standalone="no"?>
<!DOCTYPE svg PUBLIC "-//W3C//DTD SVG 1.1//EN"
  "http://www.w3.org/Graphics/SVG/1.1/DTD/svg11.dtd">
<!-- Created with matplotlib (https://matplotlib.org/) -->
<svg height="498.075pt" version="1.1" viewBox="0 0 889.88 498.075" width="889.88pt" xmlns="http://www.w3.org/2000/svg" xmlns:xlink="http://www.w3.org/1999/xlink">
 <metadata>
  <rdf:RDF xmlns:cc="http://creativecommons.org/ns#" xmlns:dc="http://purl.org/dc/elements/1.1/" xmlns:rdf="http://www.w3.org/1999/02/22-rdf-syntax-ns#">
   <cc:Work>
    <dc:type rdf:resource="http://purl.org/dc/dcmitype/StillImage"/>
    <dc:date>2021-06-21T13:57:29.060080</dc:date>
    <dc:format>image/svg+xml</dc:format>
    <dc:creator>
     <cc:Agent>
      <dc:title>Matplotlib v3.3.4, https://matplotlib.org/</dc:title>
     </cc:Agent>
    </dc:creator>
   </cc:Work>
  </rdf:RDF>
 </metadata>
 <defs>
  <style type="text/css">*{stroke-linecap:butt;stroke-linejoin:round;}</style>
 </defs>
 <g id="figure_1">
  <g id="patch_1">
   <path d="M 0 498.075 
L 889.88 498.075 
L 889.88 0 
L 0 0 
z
" style="fill:#ffffff;"/>
  </g>
  <g id="axes_1">
   <g id="patch_2">
    <path d="M 45.68 129.956757 
L 882.68 129.956757 
L 882.68 13.2 
L 45.68 13.2 
z
" style="fill:#ffffff;"/>
   </g>
   <g id="matplotlib.axis_1">
    <g id="xtick_1">
     <g id="line2d_1">
      <defs>
       <path d="M 0 0 
L 0 3.5 
" id="mfcc0566e34" style="stroke:#555555;stroke-width:0.8;"/>
      </defs>
      <g>
       <use style="fill:#555555;stroke:#555555;stroke-width:0.8;" x="83.725455" xlink:href="#mfcc0566e34" y="129.956757"/>
      </g>
     </g>
    </g>
    <g id="xtick_2">
     <g id="line2d_2">
      <g>
       <use style="fill:#555555;stroke:#555555;stroke-width:0.8;" x="210.684702" xlink:href="#mfcc0566e34" y="129.956757"/>
      </g>
     </g>
    </g>
    <g id="xtick_3">
     <g id="line2d_3">
      <g>
       <use style="fill:#555555;stroke:#555555;stroke-width:0.8;" x="337.64395" xlink:href="#mfcc0566e34" y="129.956757"/>
      </g>
     </g>
    </g>
    <g id="xtick_4">
     <g id="line2d_4">
      <g>
       <use style="fill:#555555;stroke:#555555;stroke-width:0.8;" x="464.603197" xlink:href="#mfcc0566e34" y="129.956757"/>
      </g>
     </g>
    </g>
    <g id="xtick_5">
     <g id="line2d_5">
      <g>
       <use style="fill:#555555;stroke:#555555;stroke-width:0.8;" x="591.562445" xlink:href="#mfcc0566e34" y="129.956757"/>
      </g>
     </g>
    </g>
    <g id="xtick_6">
     <g id="line2d_6">
      <g>
       <use style="fill:#555555;stroke:#555555;stroke-width:0.8;" x="718.521693" xlink:href="#mfcc0566e34" y="129.956757"/>
      </g>
     </g>
    </g>
    <g id="xtick_7">
     <g id="line2d_7">
      <g>
       <use style="fill:#555555;stroke:#555555;stroke-width:0.8;" x="845.48094" xlink:href="#mfcc0566e34" y="129.956757"/>
      </g>
     </g>
    </g>
   </g>
   <g id="matplotlib.axis_2">
    <g id="ytick_1">
     <g id="line2d_8">
      <path clip-path="url(#p1307683373)" d="M 45.68 129.956757 
L 882.68 129.956757 
" style="fill:none;stroke:#eeeeee;stroke-linecap:square;stroke-width:0.8;"/>
     </g>
     <g id="line2d_9">
      <defs>
       <path d="M 0 0 
L -3.5 0 
" id="m650f84ea8d" style="stroke:#555555;stroke-width:0.8;"/>
      </defs>
      <g>
       <use style="fill:#555555;stroke:#555555;stroke-width:0.8;" x="45.68" xlink:href="#m650f84ea8d" y="129.956757"/>
      </g>
     </g>
     <g id="text_1">
      <!-- 0 -->
      <g style="fill:#555555;" transform="translate(29.5 135.956757)scale(0.16 -0.16)">
       <defs>
        <path d="M 52.6875 29.4375 
Q 52.6875 13.375 46.09375 6.1875 
Q 39.5 -0.984375 28.75 -0.984375 
Q 18.015625 -0.984375 11.34375 6.1875 
Q 4.6875 13.375 4.6875 29.4375 
L 4.6875 41.796875 
Q 4.6875 57.8125 11.296875 64.9375 
Q 17.921875 72.078125 28.65625 72.078125 
Q 39.359375 72.078125 46 64.984375 
Q 52.640625 57.90625 52.6875 42.046875 
z
M 38.578125 43.75 
Q 38.578125 53.21875 35.984375 56.953125 
Q 33.40625 60.6875 28.65625 60.6875 
Q 24.03125 60.6875 21.4375 57.03125 
Q 18.84375 53.375 18.796875 44.140625 
L 18.796875 27.546875 
Q 18.796875 18.015625 21.40625 14.203125 
Q 24.03125 10.40625 28.765625 10.40625 
Q 33.40625 10.40625 35.96875 14.140625 
Q 38.53125 17.875 38.578125 27.15625 
z
" id="Roboto-Bold-48"/>
       </defs>
       <use xlink:href="#Roboto-Bold-48"/>
      </g>
     </g>
    </g>
    <g id="ytick_2">
     <g id="line2d_10">
      <path clip-path="url(#p1307683373)" d="M 45.68 91.037838 
L 882.68 91.037838 
" style="fill:none;stroke:#eeeeee;stroke-linecap:square;stroke-width:0.8;"/>
     </g>
     <g id="line2d_11">
      <g>
       <use style="fill:#555555;stroke:#555555;stroke-width:0.8;" x="45.68" xlink:href="#m650f84ea8d" y="91.037838"/>
      </g>
     </g>
     <g id="text_2">
      <!-- 2 -->
      <g style="fill:#555555;" transform="translate(29.5 97.037838)scale(0.16 -0.16)">
       <defs>
        <path d="M 53.5625 11.375 
L 53.5625 0 
L 4.890625 0 
L 4.890625 9.671875 
L 27.875 34.1875 
Q 33.0625 39.890625 35.078125 43.625 
Q 37.109375 47.359375 37.109375 50.53125 
Q 37.109375 55.28125 34.734375 58.015625 
Q 32.375 60.75 27.9375 60.75 
Q 22.90625 60.75 20.234375 57.328125 
Q 17.578125 53.90625 17.578125 48.734375 
L 3.46875 48.734375 
Q 3.46875 58.34375 10.078125 65.234375 
Q 16.703125 72.125 28.171875 72.125 
Q 39.359375 72.125 45.3125 66.71875 
Q 51.265625 61.328125 51.265625 51.953125 
Q 51.265625 44.921875 47.09375 38.59375 
Q 42.921875 32.28125 35.6875 24.703125 
L 23 11.375 
z
" id="Roboto-Bold-50"/>
       </defs>
       <use xlink:href="#Roboto-Bold-50"/>
      </g>
     </g>
    </g>
    <g id="ytick_3">
     <g id="line2d_12">
      <path clip-path="url(#p1307683373)" d="M 45.68 52.118919 
L 882.68 52.118919 
" style="fill:none;stroke:#eeeeee;stroke-linecap:square;stroke-width:0.8;"/>
     </g>
     <g id="line2d_13">
      <g>
       <use style="fill:#555555;stroke:#555555;stroke-width:0.8;" x="45.68" xlink:href="#m650f84ea8d" y="52.118919"/>
      </g>
     </g>
     <g id="text_3">
      <!-- 4 -->
      <g style="fill:#555555;" transform="translate(29.5 58.118919)scale(0.16 -0.16)">
       <defs>
        <path d="M 2.734375 24.265625 
L 32.375 71.09375 
L 46.625 71.09375 
L 46.625 26.765625 
L 54.6875 26.765625 
L 54.6875 15.375 
L 46.625 15.375 
L 46.625 0 
L 32.515625 0 
L 32.515625 15.375 
L 3.375 15.375 
z
M 16.75 26.765625 
L 32.515625 26.765625 
L 32.515625 52 
L 31.546875 50.296875 
z
" id="Roboto-Bold-52"/>
       </defs>
       <use xlink:href="#Roboto-Bold-52"/>
      </g>
     </g>
    </g>
    <g id="ytick_4">
     <g id="line2d_14">
      <path clip-path="url(#p1307683373)" d="M 45.68 13.2 
L 882.68 13.2 
" style="fill:none;stroke:#eeeeee;stroke-linecap:square;stroke-width:0.8;"/>
     </g>
     <g id="line2d_15">
      <g>
       <use style="fill:#555555;stroke:#555555;stroke-width:0.8;" x="45.68" xlink:href="#m650f84ea8d" y="13.2"/>
      </g>
     </g>
     <g id="text_4">
      <!-- 6 -->
      <g style="fill:#555555;" transform="translate(29.5 19.2)scale(0.16 -0.16)">
       <defs>
        <path d="M 53.90625 23.4375 
Q 53.90625 13.09375 47.390625 6.046875 
Q 40.875 -0.984375 29.9375 -0.984375 
Q 18.5625 -0.984375 11.75 6.921875 
Q 4.9375 14.84375 4.9375 27.34375 
L 4.9375 32.765625 
Q 4.9375 50 14.453125 60.90625 
Q 23.96875 71.828125 41.15625 71.828125 
L 43.171875 71.828125 
L 43.171875 60.203125 
L 41.75 60.203125 
Q 32.03125 60.0625 26.375 55.28125 
Q 20.515625 50.296875 19.34375 41.796875 
Q 25.046875 47.609375 33.6875 47.609375 
Q 43.75 47.609375 48.828125 40.453125 
Q 53.90625 33.296875 53.90625 23.4375 
z
M 19.046875 25.484375 
Q 19.046875 17.96875 22 14.203125 
Q 24.953125 10.453125 29.6875 10.453125 
Q 34.28125 10.453125 37.03125 14.078125 
Q 39.796875 17.71875 39.796875 23.296875 
Q 39.796875 28.953125 37.03125 32.609375 
Q 34.28125 36.28125 29.390625 36.28125 
Q 25.640625 36.28125 22.953125 34.34375 
Q 20.265625 32.421875 19.046875 29.734375 
z
" id="Roboto-Bold-54"/>
       </defs>
       <use xlink:href="#Roboto-Bold-54"/>
      </g>
     </g>
    </g>
    <g id="text_5">
     <!-- A.U. -->
     <g style="fill:#555555;" transform="translate(21.6 89.950378)rotate(-90)scale(0.192 -0.192)">
      <defs>
       <path d="M 0.390625 0 
L 26.859375 71.09375 
L 40.4375 71.09375 
L 67.046875 0 
L 51.421875 0 
L 46.53125 14.65625 
L 20.796875 14.65625 
L 15.921875 0 
z
M 24.75 26.515625 
L 42.578125 26.515625 
L 33.6875 53.21875 
z
" id="Roboto-Bold-65"/>
       <path d="M 6.15625 6.984375 
Q 6.15625 10.203125 8.328125 12.375 
Q 10.5 14.546875 14.15625 14.546875 
Q 17.828125 14.546875 19.96875 12.375 
Q 22.125 10.203125 22.125 6.984375 
Q 22.125 3.8125 19.96875 1.640625 
Q 17.828125 -0.53125 14.15625 -0.53125 
Q 10.5 -0.53125 8.328125 1.640625 
Q 6.15625 3.8125 6.15625 6.984375 
z
" id="Roboto-Bold-46"/>
       <path d="M 45.515625 71.09375 
L 60.203125 71.09375 
L 60.203125 24.21875 
Q 60.203125 11.8125 52.484375 5.40625 
Q 44.78125 -0.984375 32.953125 -0.984375 
Q 21 -0.984375 13.328125 5.40625 
Q 5.671875 11.8125 5.671875 24.21875 
L 5.671875 71.09375 
L 20.359375 71.09375 
L 20.359375 24.21875 
Q 20.359375 17.1875 23.703125 14.015625 
Q 27.046875 10.84375 32.953125 10.84375 
Q 45.21875 10.84375 45.515625 23.578125 
z
" id="Roboto-Bold-85"/>
      </defs>
      <use xlink:href="#Roboto-Bold-65"/>
      <use x="67.333984" xlink:href="#Roboto-Bold-46"/>
      <use x="96.435547" xlink:href="#Roboto-Bold-85"/>
      <use x="162.255859" xlink:href="#Roboto-Bold-46"/>
     </g>
    </g>
   </g>
   <g id="line2d_16">
    <path clip-path="url(#p1307683373)" d="M 83.725455 114.195508 
L 84.57185 102.819426 
L 85.418245 86.173315 
L 86.264639 75.176598 
L 87.111034 71.160864 
L 87.957429 70.835253 
L 88.803824 72.214412 
L 90.496614 76.960883 
L 93.882194 87.081554 
L 95.574984 91.586489 
L 98.114169 97.469619 
L 100.653354 102.455986 
L 103.192539 106.677721 
L 105.731724 110.25146 
L 108.270909 113.276581 
L 109.117304 114.169218 
L 109.963699 102.819426 
L 110.810094 86.173315 
L 111.656489 75.176598 
L 112.502884 71.160864 
L 113.349279 70.835253 
L 114.195674 72.214412 
L 115.888464 76.960883 
L 119.274044 87.081554 
L 120.966834 91.586489 
L 123.506019 97.469619 
L 126.045204 102.455986 
L 128.584389 106.677721 
L 131.123574 110.25146 
L 133.662759 113.276581 
L 134.509154 114.169218 
L 135.355549 102.819426 
L 136.201944 86.173315 
L 137.048339 75.176598 
L 137.894734 71.160864 
L 138.741129 70.835253 
L 139.587524 72.214412 
L 141.280313 76.960883 
L 144.665893 87.081554 
L 146.358683 91.586489 
L 148.897868 97.469619 
L 151.437053 102.455986 
L 153.976238 106.677721 
L 156.515423 110.25146 
L 159.054608 113.276581 
L 159.901003 114.169218 
L 160.747398 102.819426 
L 161.593793 86.173315 
L 162.440188 75.176598 
L 163.286583 71.160864 
L 164.132978 70.835253 
L 164.979373 72.214412 
L 166.672163 76.960883 
L 170.057743 87.081554 
L 171.750533 91.586489 
L 174.289718 97.469619 
L 176.828903 102.455986 
L 179.368088 106.677721 
L 181.907273 110.25146 
L 184.446458 113.276581 
L 185.292853 114.169218 
L 186.139248 102.819426 
L 186.985643 86.173315 
L 187.832038 75.176598 
L 188.678433 71.160864 
L 189.524828 70.835253 
L 190.371223 72.214412 
L 192.064013 76.960883 
L 195.449592 87.081554 
L 197.142382 91.586489 
L 199.681567 97.469619 
L 202.220752 102.455986 
L 204.759937 106.677721 
L 207.299122 110.25146 
L 209.838307 113.276581 
L 210.684702 114.169218 
L 211.531097 102.819426 
L 212.377492 86.173315 
L 213.223887 75.176598 
L 214.070282 71.160864 
L 214.916677 70.835253 
L 215.763072 72.214412 
L 217.455862 76.960883 
L 220.841442 87.081554 
L 222.534232 91.586489 
L 225.073417 97.469619 
L 227.612602 102.455986 
L 230.151787 106.677721 
L 232.690972 110.25146 
L 235.230157 113.276581 
L 236.076552 114.169218 
L 236.922947 102.819426 
L 237.769342 86.173315 
L 238.615737 75.176598 
L 239.462132 71.160864 
L 240.308527 70.835253 
L 241.154922 72.214412 
L 242.847712 76.960883 
L 246.233292 87.081554 
L 247.926082 91.586489 
L 250.465266 97.469619 
L 253.004451 102.455986 
L 255.543636 106.677721 
L 258.082821 110.25146 
L 260.622006 113.276581 
L 261.468401 114.169218 
L 262.314796 102.819426 
L 263.161191 86.173315 
L 264.007586 75.176598 
L 264.853981 71.160864 
L 265.700376 70.835253 
L 266.546771 72.214412 
L 268.239561 76.960883 
L 271.625141 87.081554 
L 273.317931 91.586489 
L 275.857116 97.469619 
L 278.396301 102.455986 
L 280.935486 106.677721 
L 283.474671 110.25146 
L 286.013856 113.276581 
L 286.860251 114.169218 
L 287.706646 102.819426 
L 288.553041 86.173315 
L 289.399436 75.176598 
L 290.245831 71.160864 
L 291.092226 70.835253 
L 291.938621 72.214412 
L 293.631411 76.960883 
L 297.016991 87.081554 
L 298.709781 91.586489 
L 301.248966 97.469619 
L 303.78815 102.455986 
L 306.327335 106.677721 
L 308.86652 110.25146 
L 311.405705 113.276581 
L 312.2521 114.169218 
L 313.098495 102.819426 
L 313.94489 86.173315 
L 314.791285 75.176598 
L 315.63768 71.160864 
L 316.484075 70.835253 
L 317.33047 72.214412 
L 319.02326 76.960883 
L 322.40884 87.081554 
L 324.10163 91.586489 
L 326.640815 97.469619 
L 329.18 102.455986 
L 331.719185 106.677721 
L 334.25837 110.25146 
L 336.797555 113.276581 
L 337.64395 114.169218 
L 338.490345 102.819426 
L 339.33674 86.173315 
L 340.183135 75.176598 
L 341.02953 71.160864 
L 341.875925 70.835253 
L 342.72232 72.214412 
L 344.41511 76.960883 
L 347.80069 87.081554 
L 349.49348 91.586489 
L 352.032665 97.469619 
L 354.57185 102.455986 
L 357.111034 106.677721 
L 359.650219 110.25146 
L 362.189404 113.276581 
L 363.035799 114.169218 
L 363.882194 102.819426 
L 364.728589 86.173315 
L 365.574984 75.176598 
L 366.421379 71.160864 
L 367.267774 70.835253 
L 368.114169 72.214412 
L 369.806959 76.960883 
L 373.192539 87.081554 
L 374.885329 91.586489 
L 377.424514 97.469619 
L 379.963699 102.455986 
L 382.502884 106.677721 
L 385.042069 110.25146 
L 387.581254 113.276581 
L 388.427649 114.169218 
L 389.274044 102.819426 
L 390.120439 86.173315 
L 390.966834 75.176598 
L 391.813229 71.160864 
L 392.659624 70.835253 
L 393.506019 72.214412 
L 395.198809 76.960883 
L 398.584389 87.081554 
L 400.277179 91.586489 
L 402.816364 97.469619 
L 405.355549 102.455986 
L 407.894734 106.677721 
L 410.433918 110.25146 
L 412.973103 113.276581 
L 413.819498 114.169218 
L 414.665893 102.819426 
L 415.512288 86.173315 
L 416.358683 75.176598 
L 417.205078 71.160864 
L 418.051473 70.835253 
L 418.897868 72.214412 
L 420.590658 76.960883 
L 423.976238 87.081554 
L 425.669028 91.586489 
L 428.208213 97.469619 
L 430.747398 102.455986 
L 433.286583 106.677721 
L 435.825768 110.25146 
L 438.364953 113.276581 
L 439.211348 114.169218 
L 440.057743 102.819426 
L 440.904138 86.173315 
L 441.750533 75.176598 
L 442.596928 71.160864 
L 443.443323 70.835253 
L 444.289718 72.214412 
L 445.982508 76.960883 
L 449.368088 87.081554 
L 451.060878 91.586489 
L 453.600063 97.469619 
L 456.139248 102.455986 
L 458.678433 106.677721 
L 461.217618 110.25146 
L 463.756803 113.276581 
L 464.603197 114.169218 
L 465.449592 102.819426 
L 466.295987 86.173315 
L 467.142382 75.176598 
L 467.988777 71.160864 
L 468.835172 70.835253 
L 469.681567 72.214412 
L 471.374357 76.960883 
L 474.759937 87.081554 
L 476.452727 91.586489 
L 478.991912 97.469619 
L 481.531097 102.455986 
L 484.070282 106.677721 
L 486.609467 110.25146 
L 489.148652 113.276581 
L 489.995047 114.169218 
L 490.841442 102.819426 
L 491.687837 86.173315 
L 492.534232 75.176598 
L 493.380627 71.160864 
L 494.227022 70.835253 
L 495.073417 72.214412 
L 496.766207 76.960883 
L 500.151787 87.081554 
L 501.844577 91.586489 
L 504.383762 97.469619 
L 506.922947 102.455986 
L 509.462132 106.677721 
L 512.001317 110.25146 
L 514.540502 113.276581 
L 515.386897 114.169218 
L 516.233292 102.819426 
L 517.079687 86.173315 
L 517.926082 75.176598 
L 518.772476 71.160864 
L 519.618871 70.835253 
L 520.465266 72.214412 
L 522.158056 76.960883 
L 525.543636 87.081554 
L 527.236426 91.586489 
L 529.775611 97.469619 
L 532.314796 102.455986 
L 534.853981 106.677721 
L 537.393166 110.25146 
L 539.932351 113.276581 
L 540.778746 114.169218 
L 541.625141 102.819426 
L 542.471536 86.173315 
L 543.317931 75.176598 
L 544.164326 71.160864 
L 545.010721 70.835253 
L 545.857116 72.214412 
L 547.549906 76.960883 
L 550.935486 87.081554 
L 552.628276 91.586489 
L 555.167461 97.469619 
L 557.706646 102.455986 
L 560.245831 106.677721 
L 562.785016 110.25146 
L 565.324201 113.276581 
L 566.170596 114.169218 
L 567.016991 102.819426 
L 567.863386 86.173315 
L 568.709781 75.176598 
L 569.556176 71.160864 
L 570.402571 70.835253 
L 571.248966 72.214412 
L 572.941755 76.960883 
L 576.327335 87.081554 
L 578.020125 91.586489 
L 580.55931 97.469619 
L 583.098495 102.455986 
L 585.63768 106.677721 
L 588.176865 110.25146 
L 590.71605 113.276581 
L 591.562445 114.169218 
L 592.40884 102.819426 
L 593.255235 86.173315 
L 594.10163 75.176598 
L 594.948025 71.160864 
L 595.79442 70.835253 
L 596.640815 72.214412 
L 598.333605 76.960883 
L 601.719185 87.081554 
L 603.411975 91.586489 
L 605.95116 97.469619 
L 608.490345 102.455986 
L 611.02953 106.677721 
L 613.568715 110.25146 
L 616.1079 113.276581 
L 616.954295 114.169218 
L 617.80069 102.819426 
L 618.647085 86.173315 
L 619.49348 75.176598 
L 620.339875 71.160864 
L 621.18627 70.835253 
L 622.032665 72.214412 
L 623.725455 76.960883 
L 627.111034 87.081554 
L 628.803824 91.586489 
L 631.343009 97.469619 
L 633.882194 102.455986 
L 636.421379 106.677721 
L 638.960564 110.25146 
L 641.499749 113.276581 
L 642.346144 114.169218 
L 643.192539 102.819426 
L 644.038934 86.173315 
L 644.885329 75.176598 
L 645.731724 71.160864 
L 646.578119 70.835253 
L 647.424514 72.214412 
L 649.117304 76.960883 
L 652.502884 87.081554 
L 654.195674 91.586489 
L 656.734859 97.469619 
L 659.274044 102.455986 
L 661.813229 106.677721 
L 664.352414 110.25146 
L 666.891599 113.276581 
L 667.737994 114.169218 
L 668.584389 102.819426 
L 669.430784 86.173315 
L 670.277179 75.176598 
L 671.123574 71.160864 
L 671.969969 70.835253 
L 672.816364 72.214412 
L 674.509154 76.960883 
L 677.894734 87.081554 
L 679.587524 91.586489 
L 682.126708 97.469619 
L 684.665893 102.455986 
L 687.205078 106.677721 
L 689.744263 110.25146 
L 692.283448 113.276581 
L 693.129843 114.169218 
L 693.976238 102.819426 
L 694.822633 86.173315 
L 695.669028 75.176598 
L 696.515423 71.160864 
L 697.361818 70.835253 
L 698.208213 72.214412 
L 699.901003 76.960883 
L 703.286583 87.081554 
L 704.979373 91.586489 
L 707.518558 97.469619 
L 710.057743 102.455986 
L 712.596928 106.677721 
L 715.136113 110.25146 
L 717.675298 113.276581 
L 718.521693 114.169218 
L 719.368088 102.819426 
L 720.214483 86.173315 
L 721.060878 75.176598 
L 721.907273 71.160864 
L 722.753668 70.835253 
L 723.600063 72.214412 
L 725.292853 76.960883 
L 728.678433 87.081554 
L 730.371223 91.586489 
L 732.910408 97.469619 
L 735.449592 102.455986 
L 737.988777 106.677721 
L 740.527962 110.25146 
L 743.067147 113.276581 
L 743.913542 114.169218 
L 744.759937 102.819426 
L 745.606332 86.173315 
L 746.452727 75.176598 
L 747.299122 71.160864 
L 748.145517 70.835253 
L 748.991912 72.214412 
L 750.684702 76.960883 
L 754.070282 87.081554 
L 755.763072 91.586489 
L 758.302257 97.469619 
L 760.841442 102.455986 
L 763.380627 106.677721 
L 765.919812 110.25146 
L 768.458997 113.276581 
L 769.305392 114.169218 
L 770.151787 102.819426 
L 770.998182 86.173315 
L 771.844577 75.176598 
L 772.690972 71.160864 
L 773.537367 70.835253 
L 774.383762 72.214412 
L 776.076552 76.960883 
L 779.462132 87.081554 
L 781.154922 91.586489 
L 783.694107 97.469619 
L 786.233292 102.455986 
L 788.772476 106.677721 
L 791.311661 110.25146 
L 793.850846 113.276581 
L 794.697241 114.169218 
L 795.543636 102.819426 
L 796.390031 86.173315 
L 797.236426 75.176598 
L 798.082821 71.160864 
L 798.929216 70.835253 
L 799.775611 72.214412 
L 801.468401 76.960883 
L 804.853981 87.081554 
L 806.546771 91.586489 
L 809.085956 97.469619 
L 811.625141 102.455986 
L 814.164326 106.677721 
L 816.703511 110.25146 
L 819.242696 113.276581 
L 820.089091 114.169218 
L 820.935486 102.819426 
L 821.781881 86.173315 
L 822.628276 75.176598 
L 823.474671 71.160864 
L 824.321066 70.835253 
L 825.167461 72.214412 
L 826.860251 76.960883 
L 830.245831 87.081554 
L 831.938621 91.586489 
L 834.477806 97.469619 
L 837.016991 102.455986 
L 839.556176 106.677721 
L 842.095361 110.25146 
L 844.634545 113.276581 
L 844.634545 113.276581 
" style="fill:none;stroke:#1f77b4;stroke-linecap:square;stroke-width:1.5;"/>
   </g>
   <g id="patch_3">
    <path d="M 45.68 129.956757 
L 45.68 13.2 
" style="fill:none;stroke:#555555;stroke-linecap:square;stroke-linejoin:miter;"/>
   </g>
   <g id="patch_4">
    <path d="M 45.68 129.956757 
L 882.68 129.956757 
" style="fill:none;stroke:#555555;stroke-linecap:square;stroke-linejoin:miter;"/>
   </g>
  </g>
  <g id="axes_2">
   <g id="patch_5">
    <path d="M 45.68 287.578378 
L 882.68 287.578378 
L 882.68 170.821622 
L 45.68 170.821622 
z
" style="fill:#ffffff;"/>
   </g>
   <g id="matplotlib.axis_3">
    <g id="xtick_8">
     <g id="line2d_17">
      <g>
       <use style="fill:#555555;stroke:#555555;stroke-width:0.8;" x="83.725455" xlink:href="#mfcc0566e34" y="287.578378"/>
      </g>
     </g>
    </g>
    <g id="xtick_9">
     <g id="line2d_18">
      <g>
       <use style="fill:#555555;stroke:#555555;stroke-width:0.8;" x="210.684702" xlink:href="#mfcc0566e34" y="287.578378"/>
      </g>
     </g>
    </g>
    <g id="xtick_10">
     <g id="line2d_19">
      <g>
       <use style="fill:#555555;stroke:#555555;stroke-width:0.8;" x="337.64395" xlink:href="#mfcc0566e34" y="287.578378"/>
      </g>
     </g>
    </g>
    <g id="xtick_11">
     <g id="line2d_20">
      <g>
       <use style="fill:#555555;stroke:#555555;stroke-width:0.8;" x="464.603197" xlink:href="#mfcc0566e34" y="287.578378"/>
      </g>
     </g>
    </g>
    <g id="xtick_12">
     <g id="line2d_21">
      <g>
       <use style="fill:#555555;stroke:#555555;stroke-width:0.8;" x="591.562445" xlink:href="#mfcc0566e34" y="287.578378"/>
      </g>
     </g>
    </g>
    <g id="xtick_13">
     <g id="line2d_22">
      <g>
       <use style="fill:#555555;stroke:#555555;stroke-width:0.8;" x="718.521693" xlink:href="#mfcc0566e34" y="287.578378"/>
      </g>
     </g>
    </g>
    <g id="xtick_14">
     <g id="line2d_23">
      <g>
       <use style="fill:#555555;stroke:#555555;stroke-width:0.8;" x="845.48094" xlink:href="#mfcc0566e34" y="287.578378"/>
      </g>
     </g>
    </g>
   </g>
   <g id="matplotlib.axis_4">
    <g id="ytick_5">
     <g id="line2d_24">
      <path clip-path="url(#p98ce39513f)" d="M 45.68 287.578378 
L 882.68 287.578378 
" style="fill:none;stroke:#eeeeee;stroke-linecap:square;stroke-width:0.8;"/>
     </g>
     <g id="line2d_25">
      <g>
       <use style="fill:#555555;stroke:#555555;stroke-width:0.8;" x="45.68" xlink:href="#m650f84ea8d" y="287.578378"/>
      </g>
     </g>
     <g id="text_6">
      <!-- 0 -->
      <g style="fill:#555555;" transform="translate(29.5 293.578378)scale(0.16 -0.16)">
       <use xlink:href="#Roboto-Bold-48"/>
      </g>
     </g>
    </g>
    <g id="ytick_6">
     <g id="line2d_26">
      <path clip-path="url(#p98ce39513f)" d="M 45.68 248.659459 
L 882.68 248.659459 
" style="fill:none;stroke:#eeeeee;stroke-linecap:square;stroke-width:0.8;"/>
     </g>
     <g id="line2d_27">
      <g>
       <use style="fill:#555555;stroke:#555555;stroke-width:0.8;" x="45.68" xlink:href="#m650f84ea8d" y="248.659459"/>
      </g>
     </g>
     <g id="text_7">
      <!-- 2 -->
      <g style="fill:#555555;" transform="translate(29.5 254.659459)scale(0.16 -0.16)">
       <use xlink:href="#Roboto-Bold-50"/>
      </g>
     </g>
    </g>
    <g id="ytick_7">
     <g id="line2d_28">
      <path clip-path="url(#p98ce39513f)" d="M 45.68 209.740541 
L 882.68 209.740541 
" style="fill:none;stroke:#eeeeee;stroke-linecap:square;stroke-width:0.8;"/>
     </g>
     <g id="line2d_29">
      <g>
       <use style="fill:#555555;stroke:#555555;stroke-width:0.8;" x="45.68" xlink:href="#m650f84ea8d" y="209.740541"/>
      </g>
     </g>
     <g id="text_8">
      <!-- 4 -->
      <g style="fill:#555555;" transform="translate(29.5 215.740541)scale(0.16 -0.16)">
       <use xlink:href="#Roboto-Bold-52"/>
      </g>
     </g>
    </g>
    <g id="ytick_8">
     <g id="line2d_30">
      <path clip-path="url(#p98ce39513f)" d="M 45.68 170.821622 
L 882.68 170.821622 
" style="fill:none;stroke:#eeeeee;stroke-linecap:square;stroke-width:0.8;"/>
     </g>
     <g id="line2d_31">
      <g>
       <use style="fill:#555555;stroke:#555555;stroke-width:0.8;" x="45.68" xlink:href="#m650f84ea8d" y="170.821622"/>
      </g>
     </g>
     <g id="text_9">
      <!-- 6 -->
      <g style="fill:#555555;" transform="translate(29.5 176.821622)scale(0.16 -0.16)">
       <use xlink:href="#Roboto-Bold-54"/>
      </g>
     </g>
    </g>
   </g>
   <g id="line2d_32">
    <path clip-path="url(#p98ce39513f)" d="M 83.725455 220.253897 
L 84.57185 222.33169 
L 86.264639 227.974718 
L 87.957429 222.996363 
L 88.803824 223.442287 
L 89.650219 225.388444 
L 90.496614 220.6651 
L 91.343009 218.966539 
L 92.189404 214.417448 
L 93.035799 211.232869 
L 93.882194 211.648959 
L 94.728589 213.897166 
L 95.574984 216.897916 
L 96.421379 216.977989 
L 97.267774 208.077369 
L 98.114169 203.016665 
L 98.960564 202.727404 
L 99.806959 204.863367 
L 100.653354 208.029175 
L 102.346144 215.49296 
L 103.192539 211.916759 
L 104.038934 211.005564 
L 104.885329 212.60868 
L 105.731724 215.321862 
L 108.270909 225.32197 
L 110.810094 234.729089 
L 113.349279 242.822069 
L 115.888464 249.690227 
L 118.427649 255.506378 
L 120.966834 260.429965 
L 123.506019 264.597736 
L 126.045204 268.125684 
L 128.584389 271.130901 
L 131.123574 273.655889 
L 133.662759 275.793246 
L 136.201944 277.619844 
L 138.741129 279.148661 
L 142.126708 280.8425 
L 144.665893 281.876581 
L 148.051473 283.017806 
L 151.437053 283.924528 
L 155.669028 284.812251 
L 159.054608 285.378478 
L 164.979373 286.117135 
L 170.057743 286.563381 
L 170.904138 286.26638 
L 171.750533 278.16092 
L 172.596928 274.429352 
L 173.443323 272.920484 
L 174.289718 272.614935 
L 175.982508 272.999142 
L 176.828903 265.453582 
L 177.675298 262.324468 
L 178.521693 261.441566 
L 179.368088 261.710902 
L 181.060878 263.231748 
L 181.907273 256.206139 
L 182.753668 253.57048 
L 183.600063 253.169095 
L 184.446458 253.880759 
L 186.139248 256.228636 
L 186.985643 249.577748 
L 187.832038 244.380941 
L 188.678433 237.361846 
L 189.524828 235.381604 
L 190.371223 235.762466 
L 191.217618 236.992138 
L 192.064013 230.891895 
L 192.910408 229.363433 
L 193.756803 230.165145 
L 194.603197 224.977881 
L 195.449592 222.759047 
L 196.295987 223.383716 
L 197.142382 225.37515 
L 198.835172 230.834088 
L 199.681567 233.672734 
L 200.527962 233.539302 
L 201.374357 229.338449 
L 202.220752 228.928191 
L 203.067147 230.224468 
L 204.759937 234.88249 
L 208.145517 244.953956 
L 209.838307 249.431877 
L 212.377492 255.280503 
L 214.916677 260.237794 
L 217.455862 264.434935 
L 219.995047 267.987858 
L 222.534232 270.995358 
L 225.073417 273.541155 
L 227.612602 275.696125 
L 230.151787 277.520268 
L 232.690972 279.064372 
L 235.230157 280.371427 
L 238.615737 281.804296 
L 242.001317 282.959989 
L 245.386897 283.878206 
L 249.618871 284.777184 
L 254.697241 285.571235 
L 260.622006 286.217161 
L 267.393166 286.706077 
L 276.703511 287.123161 
L 290.245831 287.417181 
L 316.484075 287.578378 
L 319.02326 287.578378 
L 319.869655 285.888054 
L 320.71605 278.263885 
L 321.562445 274.929872 
L 322.40884 273.625934 
L 323.255235 273.350167 
L 324.10163 273.592918 
L 325.79442 274.675936 
L 326.640815 269.069946 
L 327.48721 264.639713 
L 328.333605 263.045266 
L 329.18 262.938762 
L 330.026395 263.523734 
L 331.719185 265.507089 
L 332.56558 264.898623 
L 333.411975 258.378434 
L 334.25837 256.082591 
L 335.104765 255.773826 
L 335.95116 256.474464 
L 336.797555 257.616798 
L 338.490345 260.385139 
L 339.33674 257.466192 
L 340.183135 252.722429 
L 341.02953 251.291784 
L 341.875925 251.569571 
L 342.72232 252.636492 
L 343.568715 254.107982 
L 344.41511 251.370417 
L 345.261505 246.872995 
L 346.1079 245.722487 
L 346.954295 246.277399 
L 347.80069 247.616721 
L 348.647085 249.359055 
L 349.49348 246.872798 
L 350.339875 242.614602 
L 351.18627 241.697922 
L 352.032665 242.467825 
L 352.87906 244.010818 
L 353.725455 245.9517 
L 355.418245 227.995936 
L 356.264639 225.210898 
L 357.111034 225.535312 
L 357.957429 227.298175 
L 358.803824 229.797926 
L 359.650219 228.178731 
L 360.496614 222.208578 
L 361.343009 215.09923 
L 362.189404 213.658941 
L 363.035799 214.865597 
L 363.882194 217.421891 
L 364.728589 216.152938 
L 365.574984 213.284519 
L 366.421379 213.849636 
L 367.267774 209.180727 
L 368.114169 207.399808 
L 368.960564 208.66579 
L 369.806959 207.020384 
L 370.653354 204.203935 
L 371.499749 205.039022 
L 372.346144 207.589799 
L 374.038934 214.621142 
L 374.885329 213.969342 
L 375.731724 211.459288 
L 376.578119 212.252299 
L 377.424514 214.59466 
L 379.117304 221.021022 
L 379.963699 220.050769 
L 380.810094 217.227692 
L 381.656489 217.709465 
L 382.502884 219.763039 
L 384.195674 225.645798 
L 385.042069 224.428491 
L 385.888464 221.371368 
L 386.734859 221.624982 
L 387.581254 223.469077 
L 388.427649 226.028781 
L 389.274044 221.503515 
L 390.120439 220.035848 
L 390.966834 221.064232 
L 391.813229 223.364975 
L 393.506019 229.062891 
L 394.352414 232.102027 
L 395.198809 231.489819 
L 396.045204 227.734611 
L 396.891599 227.468838 
L 397.737994 228.916358 
L 398.584389 231.141217 
L 401.123574 239.023046 
L 401.969969 234.175961 
L 402.816364 232.225819 
L 403.662759 232.703 
L 404.509154 234.41588 
L 406.201944 239.001423 
L 408.741129 246.171157 
L 410.433918 250.511516 
L 412.973103 256.191761 
L 415.512288 261.008801 
L 418.051473 265.08753 
L 420.590658 268.540261 
L 421.437053 269.559081 
L 422.283448 262.022856 
L 423.129843 259.154913 
L 423.976238 258.486845 
L 424.822633 258.935263 
L 425.669028 259.913469 
L 427.361818 262.400319 
L 428.208213 258.604963 
L 429.054608 254.164661 
L 429.901003 252.846699 
L 430.747398 246.274142 
L 431.593793 242.622027 
L 432.440188 241.997527 
L 433.286583 242.896699 
L 434.132978 244.49184 
L 434.979373 237.916895 
L 435.825768 229.268004 
L 436.672163 225.020739 
L 437.518558 224.582338 
L 438.364953 226.042944 
L 439.211348 228.33889 
L 440.057743 231.076707 
L 440.904138 226.976746 
L 441.750533 225.014024 
L 442.596928 225.715906 
L 443.443323 227.663348 
L 445.136113 232.974955 
L 445.982508 228.850022 
L 446.828903 226.826649 
L 447.675298 227.44955 
L 448.521693 229.314585 
L 450.214483 234.459615 
L 451.060878 230.256633 
L 451.907273 228.158711 
L 452.753668 228.708609 
L 453.600063 230.506456 
L 454.446458 232.861579 
L 455.292853 228.460524 
L 456.139248 219.608154 
L 456.985643 215.511111 
L 457.832038 215.403243 
L 458.678433 217.24045 
L 459.524828 219.97686 
L 460.371223 223.167497 
L 461.217618 216.561962 
L 462.064013 208.166641 
L 462.910408 206.111094 
L 463.756803 207.277398 
L 464.603197 209.924177 
L 465.449592 213.350279 
L 466.295987 210.046354 
L 467.142382 208.901232 
L 467.988777 203.378981 
L 468.835172 201.528172 
L 469.681567 202.847653 
L 470.527962 205.801543 
L 471.374357 202.454979 
L 472.220752 201.51387 
L 473.067147 203.347106 
L 473.913542 206.410519 
L 475.606332 213.905947 
L 476.452727 210.790514 
L 477.299122 209.727921 
L 478.145517 211.289817 
L 478.991912 214.018152 
L 480.684702 220.778238 
L 483.223887 230.729915 
L 485.763072 239.434453 
L 488.302257 246.819869 
L 490.841442 253.094609 
L 493.380627 258.388396 
L 495.073417 261.446906 
L 496.766207 264.207894 
L 499.305392 267.795689 
L 501.844577 270.850116 
L 504.383762 273.41821 
L 506.922947 275.610991 
L 509.462132 277.448204 
L 512.001317 279.003371 
L 514.540502 280.319791 
L 517.926082 281.762926 
L 521.311661 282.926899 
L 524.697241 283.851695 
L 528.929216 284.773881 
L 534.007586 285.587092 
L 540.778746 286.350598 
L 548.396301 286.849802 
L 558.553041 287.231967 
L 577.17373 287.553281 
L 597.48721 287.578378 
L 598.333605 279.217937 
L 599.18 275.344239 
L 600.026395 273.739853 
L 600.87279 273.348957 
L 601.719185 273.525644 
L 603.411975 274.565453 
L 607.64395 277.594087 
L 610.183135 279.122216 
L 612.72232 280.419763 
L 616.1079 281.842934 
L 616.954295 279.234023 
L 617.80069 272.569763 
L 618.647085 262.378329 
L 619.49348 257.122817 
L 620.339875 255.318526 
L 621.18627 255.315655 
L 622.032665 253.232585 
L 622.87906 247.529518 
L 623.725455 245.900877 
L 624.57185 242.692385 
L 625.418245 237.292677 
L 626.264639 236.074142 
L 627.111034 233.89388 
L 627.957429 228.662026 
L 628.803824 227.748002 
L 629.650219 228.84782 
L 630.496614 230.975033 
L 632.189404 221.316607 
L 633.035799 215.175088 
L 633.882194 214.186969 
L 634.728589 215.60117 
L 635.574984 218.241272 
L 636.421379 221.293732 
L 637.267774 221.584964 
L 638.114169 217.917305 
L 638.960564 218.018321 
L 639.806959 219.866256 
L 641.499749 225.594215 
L 642.346144 225.741755 
L 643.192539 221.890675 
L 644.038934 221.801692 
L 644.885329 223.45886 
L 646.578119 228.816135 
L 647.424514 228.792838 
L 648.270909 224.774506 
L 649.117304 224.53161 
L 649.963699 226.042901 
L 650.810094 220.994044 
L 651.656489 219.294009 
L 652.502884 217.312061 
L 653.349279 212.624803 
L 654.195674 212.385802 
L 655.042069 214.213036 
L 655.888464 217.096567 
L 656.734859 216.803827 
L 658.427649 204.087444 
L 659.274044 203.182953 
L 660.120439 204.92258 
L 660.966834 208.012066 
L 661.813229 211.542957 
L 662.659624 212.320346 
L 663.506019 201.687489 
L 664.352414 197.872145 
L 665.198809 198.325119 
L 666.045204 200.949804 
L 667.737994 208.307666 
L 670.277179 219.973794 
L 671.969969 227.056148 
L 674.509154 236.329578 
L 677.048339 244.194791 
L 679.587524 250.854638 
L 682.126708 256.492359 
L 682.973103 256.789103 
L 683.819498 250.612123 
L 684.665893 248.680468 
L 685.512288 248.741248 
L 686.358683 249.815304 
L 688.051473 252.974607 
L 688.897868 254.736761 
L 689.744263 250.418279 
L 690.590658 246.876682 
L 691.437053 246.203079 
L 692.283448 246.969209 
L 693.129843 248.39397 
L 694.822633 251.964624 
L 695.669028 252.402383 
L 696.515423 246.413667 
L 697.361818 244.680171 
L 698.208213 244.941318 
L 699.054608 246.217488 
L 700.747398 249.746308 
L 703.286583 255.33744 
L 704.979373 258.715589 
L 707.518558 263.138207 
L 710.057743 266.88909 
L 711.750533 258.002507 
L 712.596928 256.688707 
L 713.443323 256.844679 
L 714.289718 257.748466 
L 715.136113 258.952804 
L 715.982508 254.736765 
L 716.828903 242.418625 
L 717.675298 237.477369 
L 718.521693 236.355539 
L 719.368088 237.172271 
L 720.214483 238.873953 
L 721.907273 232.189824 
L 723.600063 223.047585 
L 724.446458 222.510904 
L 725.292853 223.960981 
L 726.139248 220.76989 
L 726.985643 218.064077 
L 727.832038 218.631068 
L 728.678433 220.681567 
L 729.524828 215.314694 
L 730.371223 214.362665 
L 731.217618 210.23514 
L 732.064013 207.345113 
L 732.910408 208.106029 
L 733.756803 210.523525 
L 735.449592 217.268372 
L 737.142382 213.276936 
L 737.988777 214.310069 
L 738.835172 216.700322 
L 740.527962 223.024437 
L 742.220752 218.467656 
L 743.067147 219.233809 
L 743.913542 221.36615 
L 745.606332 227.201532 
L 747.299122 222.204521 
L 748.145517 222.770894 
L 748.991912 216.353609 
L 749.838307 215.065182 
L 750.684702 216.357254 
L 751.531097 218.830792 
L 757.455862 239.988522 
L 759.148652 244.953852 
L 760.841442 249.454937 
L 763.380627 255.342731 
L 765.919812 260.291391 
L 768.458997 264.517834 
L 770.998182 268.058047 
L 773.537367 271.054775 
L 776.076552 273.59145 
L 778.615737 275.738699 
L 781.154922 277.556306 
L 783.694107 279.094877 
L 786.233292 280.39725 
L 789.618871 281.842611 
L 793.004451 282.990636 
L 797.236426 284.115677 
L 801.468401 284.975583 
L 806.546771 285.713394 
L 812.471536 286.313572 
L 819.242696 286.783235 
L 821.781881 286.942278 
L 822.628276 284.06048 
L 823.474671 277.130327 
L 824.321066 273.453372 
L 825.167461 264.348117 
L 826.013856 260.447625 
L 826.860251 259.317423 
L 827.706646 259.495242 
L 828.553041 260.356985 
L 829.399436 253.700848 
L 830.245831 242.330107 
L 831.092226 237.890743 
L 831.938621 237.097677 
L 832.785016 238.014926 
L 833.631411 239.804667 
L 834.477806 241.214631 
L 835.324201 235.421688 
L 836.170596 233.951587 
L 837.016991 234.654881 
L 837.863386 236.367298 
L 838.709781 238.598147 
L 839.556176 240.227849 
L 840.402571 234.577636 
L 841.248966 233.201447 
L 842.095361 233.968431 
L 842.941755 235.729753 
L 843.78815 238.002141 
L 844.634545 239.666925 
L 844.634545 239.666925 
" style="fill:none;stroke:#1f77b4;stroke-linecap:square;stroke-width:1.5;"/>
   </g>
   <g id="patch_6">
    <path d="M 45.68 287.578378 
L 45.68 170.821622 
" style="fill:none;stroke:#555555;stroke-linecap:square;stroke-linejoin:miter;"/>
   </g>
   <g id="patch_7">
    <path d="M 45.68 287.578378 
L 882.68 287.578378 
" style="fill:none;stroke:#555555;stroke-linecap:square;stroke-linejoin:miter;"/>
   </g>
  </g>
  <g id="axes_3">
   <g id="patch_8">
    <path d="M 45.68 445.2 
L 882.68 445.2 
L 882.68 328.443243 
L 45.68 328.443243 
z
" style="fill:#ffffff;"/>
   </g>
   <g id="matplotlib.axis_5">
    <g id="xtick_15">
     <g id="line2d_33">
      <g>
       <use style="fill:#555555;stroke:#555555;stroke-width:0.8;" x="83.725455" xlink:href="#mfcc0566e34" y="445.2"/>
      </g>
     </g>
     <g id="text_10">
      <!-- 0 -->
      <g style="fill:#555555;" transform="translate(79.135455 464.2)scale(0.16 -0.16)">
       <use xlink:href="#Roboto-Bold-48"/>
      </g>
     </g>
    </g>
    <g id="xtick_16">
     <g id="line2d_34">
      <g>
       <use style="fill:#555555;stroke:#555555;stroke-width:0.8;" x="210.684702" xlink:href="#mfcc0566e34" y="445.2"/>
      </g>
     </g>
     <g id="text_11">
      <!-- 5 -->
      <g style="fill:#555555;" transform="translate(206.094702 464.2)scale(0.16 -0.16)">
       <defs>
        <path d="M 18.21875 32.234375 
L 6.984375 34.96875 
L 11.03125 71.09375 
L 50.875 71.09375 
L 50.875 59.375 
L 22.65625 59.375 
L 20.90625 44.046875 
Q 25.78125 46.734375 31.546875 46.734375 
Q 41.890625 46.734375 47.546875 40.421875 
Q 53.21875 34.125 53.21875 22.859375 
Q 53.21875 13.375 47.359375 6.1875 
Q 41.5 -0.984375 29.25 -0.984375 
Q 20.015625 -0.984375 12.71875 4.484375 
Q 5.421875 9.96875 5.171875 19.828125 
L 19.140625 19.828125 
Q 20.0625 10.40625 29.15625 10.40625 
Q 34.46875 10.40625 36.78125 14.234375 
Q 39.109375 18.0625 39.109375 23.640625 
Q 39.109375 29.25 36.328125 32.6875 
Q 33.546875 36.140625 27.6875 36.140625 
Q 23.828125 36.140625 21.71875 34.890625 
Q 19.625 33.640625 18.21875 32.234375 
z
" id="Roboto-Bold-53"/>
       </defs>
       <use xlink:href="#Roboto-Bold-53"/>
      </g>
     </g>
    </g>
    <g id="xtick_17">
     <g id="line2d_35">
      <g>
       <use style="fill:#555555;stroke:#555555;stroke-width:0.8;" x="337.64395" xlink:href="#mfcc0566e34" y="445.2"/>
      </g>
     </g>
     <g id="text_12">
      <!-- 10 -->
      <g style="fill:#555555;" transform="translate(328.46395 464.2)scale(0.16 -0.16)">
       <defs>
        <path d="M 39.109375 71.1875 
L 39.109375 0 
L 25 0 
L 25 54.4375 
L 8.203125 49.21875 
L 8.203125 60.640625 
L 37.59375 71.1875 
z
" id="Roboto-Bold-49"/>
       </defs>
       <use xlink:href="#Roboto-Bold-49"/>
       <use x="57.373047" xlink:href="#Roboto-Bold-48"/>
      </g>
     </g>
    </g>
    <g id="xtick_18">
     <g id="line2d_36">
      <g>
       <use style="fill:#555555;stroke:#555555;stroke-width:0.8;" x="464.603197" xlink:href="#mfcc0566e34" y="445.2"/>
      </g>
     </g>
     <g id="text_13">
      <!-- 15 -->
      <g style="fill:#555555;" transform="translate(455.423197 464.2)scale(0.16 -0.16)">
       <use xlink:href="#Roboto-Bold-49"/>
       <use x="57.373047" xlink:href="#Roboto-Bold-53"/>
      </g>
     </g>
    </g>
    <g id="xtick_19">
     <g id="line2d_37">
      <g>
       <use style="fill:#555555;stroke:#555555;stroke-width:0.8;" x="591.562445" xlink:href="#mfcc0566e34" y="445.2"/>
      </g>
     </g>
     <g id="text_14">
      <!-- 20 -->
      <g style="fill:#555555;" transform="translate(582.382445 464.2)scale(0.16 -0.16)">
       <use xlink:href="#Roboto-Bold-50"/>
       <use x="57.373047" xlink:href="#Roboto-Bold-48"/>
      </g>
     </g>
    </g>
    <g id="xtick_20">
     <g id="line2d_38">
      <g>
       <use style="fill:#555555;stroke:#555555;stroke-width:0.8;" x="718.521693" xlink:href="#mfcc0566e34" y="445.2"/>
      </g>
     </g>
     <g id="text_15">
      <!-- 25 -->
      <g style="fill:#555555;" transform="translate(709.341693 464.2)scale(0.16 -0.16)">
       <use xlink:href="#Roboto-Bold-50"/>
       <use x="57.373047" xlink:href="#Roboto-Bold-53"/>
      </g>
     </g>
    </g>
    <g id="xtick_21">
     <g id="line2d_39">
      <g>
       <use style="fill:#555555;stroke:#555555;stroke-width:0.8;" x="845.48094" xlink:href="#mfcc0566e34" y="445.2"/>
      </g>
     </g>
     <g id="text_16">
      <!-- 30 -->
      <g style="fill:#555555;" transform="translate(836.30094 464.2)scale(0.16 -0.16)">
       <defs>
        <path d="M 19.234375 30.765625 
L 19.234375 41.84375 
L 26.765625 41.84375 
Q 32.078125 41.84375 34.6875 44.5 
Q 37.3125 47.171875 37.3125 51.65625 
Q 37.3125 55.609375 34.9375 58.171875 
Q 32.5625 60.75 27.6875 60.75 
Q 23.828125 60.75 20.96875 58.59375 
Q 18.109375 56.453125 18.109375 52.6875 
L 4 52.6875 
Q 4 61.46875 10.78125 66.796875 
Q 17.578125 72.125 27.296875 72.125 
Q 38.09375 72.125 44.75 66.96875 
Q 51.421875 61.8125 51.421875 51.859375 
Q 51.421875 47.265625 48.578125 43.09375 
Q 45.75 38.921875 40.578125 36.53125 
Q 46.53125 34.421875 49.5 30.09375 
Q 52.484375 25.78125 52.484375 19.96875 
Q 52.484375 9.96875 45.28125 4.484375 
Q 38.09375 -0.984375 27.296875 -0.984375 
Q 21.296875 -0.984375 15.75 1.21875 
Q 10.203125 3.421875 6.65625 7.9375 
Q 3.125 12.453125 3.125 19.484375 
L 17.28125 19.484375 
Q 17.28125 15.53125 20.234375 12.96875 
Q 23.1875 10.40625 27.6875 10.40625 
Q 32.71875 10.40625 35.546875 13.078125 
Q 38.375 15.765625 38.375 20.171875 
Q 38.375 30.765625 26.65625 30.765625 
z
" id="Roboto-Bold-51"/>
       </defs>
       <use xlink:href="#Roboto-Bold-51"/>
       <use x="57.373047" xlink:href="#Roboto-Bold-48"/>
      </g>
     </g>
    </g>
    <g id="text_17">
     <!-- time (s) -->
     <g style="fill:#555555;" transform="translate(430.8035 486.609)scale(0.192 -0.192)">
      <defs>
       <path d="M 31.890625 0.34375 
Q 27.9375 -0.984375 23.390625 -0.984375 
Q 16.453125 -0.984375 12.34375 2.625 
Q 8.25 6.25 8.25 14.65625 
L 8.25 42.53125 
L 0.484375 42.53125 
L 0.484375 52.828125 
L 8.25 52.828125 
L 8.25 65.875 
L 22.359375 65.875 
L 22.359375 52.828125 
L 31.34375 52.828125 
L 31.34375 42.53125 
L 22.359375 42.53125 
L 22.359375 16.109375 
Q 22.359375 12.796875 23.71875 11.71875 
Q 25.09375 10.640625 27.78125 10.640625 
Q 29.9375 10.640625 31.890625 11.03125 
z
" id="Roboto-Bold-116"/>
       <path d="M 5.328125 66.5 
Q 5.328125 69.671875 7.46875 71.75 
Q 9.625 73.828125 13.234375 73.828125 
Q 16.84375 73.828125 18.984375 71.75 
Q 21.140625 69.671875 21.140625 66.5 
Q 21.140625 63.375 18.984375 61.296875 
Q 16.84375 59.234375 13.234375 59.234375 
Q 9.625 59.234375 7.46875 61.296875 
Q 5.328125 63.375 5.328125 66.5 
z
M 20.359375 52.828125 
L 20.359375 0 
L 6.203125 0 
L 6.203125 52.828125 
z
" id="Roboto-Bold-105"/>
       <path d="M 28.21875 42.390625 
Q 22.359375 42.390625 19.578125 37.40625 
L 19.578125 0 
L 5.421875 0 
L 5.421875 52.828125 
L 18.703125 52.828125 
L 19.1875 47.015625 
Q 24.703125 53.8125 34.328125 53.8125 
Q 44.53125 53.8125 48.34375 45.75 
Q 53.765625 53.8125 64.203125 53.8125 
Q 71.828125 53.8125 76.46875 49.3125 
Q 81.109375 44.828125 81.15625 33.890625 
L 81.15625 0 
L 67 0 
L 67 33.6875 
Q 67 38.96875 64.875 40.671875 
Q 62.75 42.390625 59.078125 42.390625 
Q 52.828125 42.390625 50.34375 36.46875 
L 50.34375 0 
L 36.234375 0 
L 36.234375 33.59375 
Q 36.234375 38.8125 34.078125 40.59375 
Q 31.9375 42.390625 28.21875 42.390625 
z
" id="Roboto-Bold-109"/>
       <path d="M 50.390625 8.59375 
Q 47.859375 4.984375 42.671875 2 
Q 37.5 -0.984375 29.78125 -0.984375 
Q 17.484375 -0.984375 10.546875 6.46875 
Q 3.609375 13.921875 3.5625 24.46875 
L 3.5625 26.515625 
Q 3.5625 38.484375 10.21875 46.140625 
Q 16.890625 53.8125 28.21875 53.8125 
Q 39.59375 53.8125 45.546875 46.671875 
Q 51.515625 39.546875 51.515625 27.828125 
L 51.515625 21.828125 
L 17.875 21.828125 
Q 18.609375 16.703125 21.921875 13.546875 
Q 25.25 10.40625 30.671875 10.40625 
Q 38.71875 10.40625 43.40625 16.3125 
z
M 28.125 42.4375 
Q 23.640625 42.4375 21.1875 39.40625 
Q 18.75 36.375 18.015625 31.5 
L 37.640625 31.5 
L 37.640625 32.5625 
Q 37.546875 36.8125 35.28125 39.625 
Q 33.015625 42.4375 28.125 42.4375 
z
" id="Roboto-Bold-101"/>
       <path id="Roboto-Bold-32"/>
       <path d="M 6.109375 28.90625 
Q 6.109375 42.671875 9.890625 53 
Q 13.671875 63.328125 19.28125 69.890625 
Q 24.90625 76.46875 30.421875 78.953125 
L 33.15625 71.34375 
Q 27.6875 67.234375 22.890625 57.203125 
Q 18.109375 47.171875 18.015625 29.78125 
L 18.015625 27.6875 
Q 18.015625 9.8125 22.828125 -0.359375 
Q 27.640625 -10.546875 33.15625 -14.75 
L 30.421875 -22.21875 
Q 24.90625 -19.78125 19.28125 -13.203125 
Q 13.671875 -6.640625 9.890625 3.703125 
Q 6.109375 14.0625 6.109375 27.78125 
z
" id="Roboto-Bold-40"/>
       <path d="M 34.03125 14.65625 
Q 34.03125 16.890625 31.953125 18.421875 
Q 29.890625 19.96875 23.046875 21.4375 
Q 14.890625 23.1875 9.65625 26.890625 
Q 4.4375 30.609375 4.4375 37.40625 
Q 4.4375 44 10.03125 48.90625 
Q 15.625 53.8125 25.484375 53.8125 
Q 35.796875 53.8125 41.703125 48.96875 
Q 47.609375 44.140625 47.609375 36.765625 
L 33.5 36.765625 
Q 33.5 39.796875 31.546875 41.796875 
Q 29.59375 43.796875 25.4375 43.796875 
Q 21.921875 43.796875 19.9375 42.15625 
Q 17.96875 40.53125 17.96875 38.09375 
Q 17.96875 35.84375 20.0625 34.375 
Q 22.171875 32.90625 27.828125 31.78125 
Q 36.421875 30.078125 42.078125 26.5625 
Q 47.75 23.046875 47.75 15.1875 
Q 47.75 8.203125 41.75 3.609375 
Q 35.75 -0.984375 25.53125 -0.984375 
Q 14.453125 -0.984375 8.59375 4.703125 
Q 2.734375 10.40625 2.734375 16.84375 
L 16.15625 16.84375 
Q 16.359375 12.703125 19.21875 10.890625 
Q 22.078125 9.078125 25.828125 9.078125 
Q 34.03125 9.078125 34.03125 14.65625 
z
" id="Roboto-Bold-115"/>
       <path d="M 29.78125 27.78125 
Q 29.78125 14.5 25.875 4.125 
Q 21.96875 -6.25 16.15625 -13.015625 
Q 10.359375 -19.78125 4.6875 -22.21875 
L 1.953125 -14.75 
Q 7.375 -10.6875 12.1875 -0.578125 
Q 17 9.515625 17.09375 26.90625 
L 17.09375 29 
Q 17.09375 46.875 12.1875 57.125 
Q 7.28125 67.390625 1.953125 71.4375 
L 4.6875 78.953125 
Q 10.359375 76.46875 16.15625 69.703125 
Q 21.96875 62.9375 25.875 52.5625 
Q 29.78125 42.1875 29.78125 28.859375 
z
" id="Roboto-Bold-41"/>
      </defs>
      <use xlink:href="#Roboto-Bold-116"/>
      <use x="33.789062" xlink:href="#Roboto-Bold-105"/>
      <use x="60.302734" xlink:href="#Roboto-Bold-109"/>
      <use x="146.875" xlink:href="#Roboto-Bold-101"/>
      <use x="200.927734" xlink:href="#Roboto-Bold-32"/>
      <use x="225.830078" xlink:href="#Roboto-Bold-40"/>
      <use x="260.9375" xlink:href="#Roboto-Bold-115"/>
      <use x="312.402344" xlink:href="#Roboto-Bold-41"/>
     </g>
    </g>
   </g>
   <g id="matplotlib.axis_6">
    <g id="ytick_9">
     <g id="line2d_40">
      <path clip-path="url(#p7f4c381dd1)" d="M 45.68 445.2 
L 882.68 445.2 
" style="fill:none;stroke:#eeeeee;stroke-linecap:square;stroke-width:0.8;"/>
     </g>
     <g id="line2d_41">
      <g>
       <use style="fill:#555555;stroke:#555555;stroke-width:0.8;" x="45.68" xlink:href="#m650f84ea8d" y="445.2"/>
      </g>
     </g>
     <g id="text_18">
      <!-- 0 -->
      <g style="fill:#555555;" transform="translate(29.5 451.2)scale(0.16 -0.16)">
       <use xlink:href="#Roboto-Bold-48"/>
      </g>
     </g>
    </g>
    <g id="ytick_10">
     <g id="line2d_42">
      <path clip-path="url(#p7f4c381dd1)" d="M 45.68 406.281081 
L 882.68 406.281081 
" style="fill:none;stroke:#eeeeee;stroke-linecap:square;stroke-width:0.8;"/>
     </g>
     <g id="line2d_43">
      <g>
       <use style="fill:#555555;stroke:#555555;stroke-width:0.8;" x="45.68" xlink:href="#m650f84ea8d" y="406.281081"/>
      </g>
     </g>
     <g id="text_19">
      <!-- 2 -->
      <g style="fill:#555555;" transform="translate(29.5 412.281081)scale(0.16 -0.16)">
       <use xlink:href="#Roboto-Bold-50"/>
      </g>
     </g>
    </g>
    <g id="ytick_11">
     <g id="line2d_44">
      <path clip-path="url(#p7f4c381dd1)" d="M 45.68 367.362162 
L 882.68 367.362162 
" style="fill:none;stroke:#eeeeee;stroke-linecap:square;stroke-width:0.8;"/>
     </g>
     <g id="line2d_45">
      <g>
       <use style="fill:#555555;stroke:#555555;stroke-width:0.8;" x="45.68" xlink:href="#m650f84ea8d" y="367.362162"/>
      </g>
     </g>
     <g id="text_20">
      <!-- 4 -->
      <g style="fill:#555555;" transform="translate(29.5 373.362162)scale(0.16 -0.16)">
       <use xlink:href="#Roboto-Bold-52"/>
      </g>
     </g>
    </g>
    <g id="ytick_12">
     <g id="line2d_46">
      <path clip-path="url(#p7f4c381dd1)" d="M 45.68 328.443243 
L 882.68 328.443243 
" style="fill:none;stroke:#eeeeee;stroke-linecap:square;stroke-width:0.8;"/>
     </g>
     <g id="line2d_47">
      <g>
       <use style="fill:#555555;stroke:#555555;stroke-width:0.8;" x="45.68" xlink:href="#m650f84ea8d" y="328.443243"/>
      </g>
     </g>
     <g id="text_21">
      <!-- 6 -->
      <g style="fill:#555555;" transform="translate(29.5 334.443243)scale(0.16 -0.16)">
       <use xlink:href="#Roboto-Bold-54"/>
      </g>
     </g>
    </g>
   </g>
   <g id="line2d_48">
    <path clip-path="url(#p7f4c381dd1)" d="M 83.725455 389.554745 
L 84.57185 402.24198 
L 86.264639 412.576892 
L 87.111034 408.328813 
L 87.957429 423.606064 
L 88.803824 400.136322 
L 90.496614 426.295474 
L 91.343009 421.479663 
L 92.189404 418.732204 
L 93.035799 402.854514 
L 93.882194 402.961744 
L 94.728589 387.846333 
L 95.574984 423.650411 
L 96.421379 400.215764 
L 97.267774 411.354133 
L 98.114169 418.356717 
L 98.960564 409.925038 
L 99.806959 424.223605 
L 100.653354 405.201792 
L 101.499749 399.098591 
L 102.346144 400.934629 
L 103.192539 407.217835 
L 104.038934 416.319576 
L 104.885329 419.600364 
L 105.731724 417.867871 
L 106.578119 396.778249 
L 107.424514 425.098175 
L 108.270909 420.669829 
L 109.117304 425.754856 
L 109.963699 393.410448 
L 110.810094 407.856575 
L 111.656489 398.916515 
L 112.502884 415.063687 
L 113.349279 394.079989 
L 114.195674 397.261011 
L 115.042069 427.497707 
L 115.888464 421.121189 
L 116.734859 402.103541 
L 118.427649 395.360801 
L 119.274044 426.455771 
L 120.120439 388.368922 
L 120.966834 411.804493 
L 121.813229 399.73161 
L 122.659624 405.109696 
L 123.506019 415.964411 
L 124.352414 401.912153 
L 125.198809 405.755236 
L 126.045204 404.824174 
L 126.891599 407.581344 
L 127.737994 406.831299 
L 128.584389 400.576935 
L 129.430784 412.522879 
L 130.277179 418.734375 
L 131.123574 399.201407 
L 131.969969 404.562914 
L 132.816364 407.841216 
L 133.662759 423.658338 
L 135.355549 403.831755 
L 136.201944 432.800679 
L 137.894734 391.98683 
L 138.741129 414.345016 
L 139.587524 409.32649 
L 140.433918 405.584696 
L 141.280313 396.428494 
L 142.126708 405.906175 
L 142.973103 398.635134 
L 143.819498 412.230494 
L 144.665893 392.291781 
L 145.512288 398.643123 
L 146.358683 420.645844 
L 148.051473 406.852684 
L 148.897868 401.166365 
L 149.744263 410.849948 
L 150.590658 397.281076 
L 151.437053 406.540322 
L 152.283448 411.027249 
L 153.129843 417.692854 
L 153.976238 403.759138 
L 154.822633 410.780428 
L 155.669028 414.415054 
L 156.515423 413.177788 
L 157.361818 393.475505 
L 158.208213 411.748031 
L 159.054608 410.812613 
L 159.901003 396.029975 
L 160.747398 417.158106 
L 161.593793 410.399083 
L 162.440188 418.84108 
L 163.286583 394.444325 
L 164.132978 405.506415 
L 164.979373 419.080864 
L 165.825768 397.467767 
L 166.672163 421.150537 
L 167.518558 399.31228 
L 168.364953 403.186546 
L 169.211348 397.466749 
L 170.057743 402.814324 
L 170.904138 412.378177 
L 171.750533 404.312474 
L 172.596928 401.661334 
L 173.443323 399.769174 
L 174.289718 411.106951 
L 175.136113 411.958881 
L 175.982508 410.50226 
L 176.828903 411.637918 
L 177.675298 411.963695 
L 178.521693 397.221625 
L 179.368088 415.867929 
L 180.214483 401.769021 
L 181.060878 417.044264 
L 181.907273 418.248484 
L 182.753668 401.425027 
L 183.600063 407.886808 
L 184.446458 428.724663 
L 185.292853 398.286247 
L 186.139248 414.377923 
L 186.985643 417.990432 
L 187.832038 401.389023 
L 188.678433 393.571514 
L 189.524828 407.324 
L 190.371223 409.100449 
L 191.217618 405.901768 
L 192.064013 417.002148 
L 192.910408 410.636654 
L 193.756803 438.607956 
L 194.603197 407.225297 
L 195.449592 417.55857 
L 196.295987 408.488178 
L 197.142382 409.700273 
L 197.988777 400.849357 
L 198.835172 403.239594 
L 199.681567 433.705611 
L 201.374357 405.70611 
L 202.220752 403.921979 
L 203.067147 418.410439 
L 203.913542 393.609286 
L 204.759937 436.606941 
L 205.606332 421.401237 
L 206.452727 386.454488 
L 207.299122 414.345255 
L 208.145517 390.01149 
L 208.991912 416.334159 
L 209.838307 404.547037 
L 210.684702 394.806022 
L 211.531097 411.143908 
L 212.377492 419.770077 
L 213.223887 401.938834 
L 214.070282 416.56906 
L 214.916677 389.283818 
L 215.763072 399.554019 
L 216.609467 416.687507 
L 217.455862 402.860638 
L 218.302257 409.501387 
L 219.148652 394.23627 
L 219.995047 389.804053 
L 220.841442 398.844563 
L 221.687837 399.476086 
L 222.534232 432.035288 
L 223.380627 396.872548 
L 224.227022 408.084171 
L 225.073417 411.333471 
L 225.919812 389.274863 
L 226.766207 419.788834 
L 227.612602 418.892003 
L 228.458997 402.949914 
L 229.305392 399.684018 
L 230.151787 419.460475 
L 230.998182 389.629631 
L 231.844577 410.991425 
L 232.690972 409.563694 
L 233.537367 397.877523 
L 234.383762 404.537852 
L 235.230157 384.221125 
L 236.076552 403.359976 
L 236.922947 394.65466 
L 237.769342 399.87845 
L 238.615737 396.778679 
L 239.462132 396.949689 
L 240.308527 413.104266 
L 241.154922 416.897828 
L 242.001317 403.141998 
L 242.847712 416.374446 
L 243.694107 389.992664 
L 244.540502 425.871409 
L 245.386897 413.085618 
L 246.233292 413.999172 
L 247.079687 415.236834 
L 247.926082 401.30928 
L 248.772476 413.597103 
L 249.618871 401.019928 
L 250.465266 417.51111 
L 251.311661 423.156992 
L 252.158056 404.613818 
L 253.004451 393.58557 
L 253.850846 412.357984 
L 254.697241 411.921449 
L 255.543636 404.111041 
L 256.390031 420.825675 
L 257.236426 391.72895 
L 258.082821 408.126629 
L 258.929216 416.233791 
L 259.775611 412.288874 
L 260.622006 414.014147 
L 261.468401 391.469593 
L 262.314796 407.466402 
L 263.161191 400.315591 
L 264.007586 424.374631 
L 264.853981 427.356343 
L 265.700376 398.722113 
L 266.546771 412.189604 
L 267.393166 415.856701 
L 268.239561 416.225759 
L 269.085956 396.232691 
L 269.932351 404.560324 
L 270.778746 429.841612 
L 271.625141 418.286642 
L 272.471536 419.86786 
L 273.317931 410.714941 
L 274.164326 407.12801 
L 275.010721 406.242893 
L 275.857116 413.567087 
L 276.703511 394.006025 
L 277.549906 407.360653 
L 278.396301 392.534988 
L 279.242696 422.506599 
L 280.089091 426.594132 
L 280.935486 389.294292 
L 281.781881 396.682913 
L 282.628276 410.560896 
L 283.474671 409.004359 
L 284.321066 411.682113 
L 285.167461 411.268934 
L 286.013856 399.759565 
L 286.860251 412.459227 
L 287.706646 410.66292 
L 288.553041 402.281076 
L 289.399436 414.863151 
L 290.245831 414.125152 
L 291.092226 405.390035 
L 291.938621 382.205196 
L 292.785016 413.862913 
L 293.631411 412.516468 
L 294.477806 413.180038 
L 295.324201 400.106762 
L 296.170596 405.958134 
L 297.016991 406.670162 
L 297.863386 390.119099 
L 298.709781 392.627185 
L 299.556176 431.855294 
L 300.402571 389.257612 
L 301.248966 414.15539 
L 302.095361 410.094984 
L 302.941755 422.199367 
L 303.78815 396.35417 
L 304.634545 432.916984 
L 305.48094 408.270402 
L 306.327335 398.815752 
L 307.17373 401.67978 
L 308.020125 405.657457 
L 308.86652 431.485932 
L 309.712915 400.6282 
L 310.55931 410.867622 
L 311.405705 393.082737 
L 312.2521 419.27861 
L 313.098495 393.712558 
L 313.94489 423.839225 
L 314.791285 401.66634 
L 315.63768 424.126003 
L 316.484075 411.840501 
L 317.33047 391.754205 
L 318.176865 395.447264 
L 319.02326 401.1929 
L 319.869655 401.716232 
L 320.71605 402.450302 
L 321.562445 424.636804 
L 322.40884 401.629762 
L 323.255235 421.389687 
L 324.10163 407.331869 
L 324.948025 398.840292 
L 325.79442 428.027605 
L 326.640815 412.375544 
L 327.48721 415.567852 
L 328.333605 414.838125 
L 330.026395 407.319856 
L 330.87279 407.978701 
L 331.719185 408.239379 
L 332.56558 425.670478 
L 333.411975 409.488662 
L 334.25837 413.740218 
L 335.104765 413.928542 
L 335.95116 404.17323 
L 336.797555 399.222036 
L 337.64395 418.282973 
L 338.490345 411.27006 
L 339.33674 422.43049 
L 340.183135 404.446373 
L 341.02953 405.472596 
L 341.875925 401.296683 
L 342.72232 430.418153 
L 343.568715 384.225432 
L 344.41511 416.442744 
L 345.261505 406.568163 
L 346.1079 398.70639 
L 346.954295 406.413386 
L 347.80069 411.596356 
L 348.647085 401.690644 
L 349.49348 416.203031 
L 350.339875 413.745156 
L 351.18627 419.494622 
L 352.032665 412.01184 
L 352.87906 401.110269 
L 353.725455 402.839731 
L 354.57185 409.466857 
L 355.418245 417.880566 
L 356.264639 393.303267 
L 357.111034 413.679877 
L 357.957429 430.133102 
L 358.803824 389.997018 
L 359.650219 395.425757 
L 360.496614 423.45093 
L 361.343009 427.894929 
L 362.189404 422.126251 
L 363.035799 408.26781 
L 363.882194 408.889657 
L 364.728589 405.275059 
L 365.574984 385.101756 
L 366.421379 422.065742 
L 367.267774 401.206811 
L 368.114169 394.243839 
L 368.960564 427.475282 
L 369.806959 424.211007 
L 370.653354 405.545182 
L 371.499749 410.180161 
L 372.346144 430.957381 
L 373.192539 398.859394 
L 374.038934 406.669699 
L 374.885329 416.384215 
L 375.731724 420.047959 
L 376.578119 418.166256 
L 377.424514 399.598895 
L 378.270909 408.3205 
L 379.117304 402.496394 
L 379.963699 408.100489 
L 380.810094 416.16675 
L 381.656489 410.938843 
L 382.502884 413.729291 
L 383.349279 410.045049 
L 384.195674 403.773385 
L 385.042069 423.392312 
L 385.888464 404.931763 
L 386.734859 409.702669 
L 387.581254 402.463652 
L 388.427649 412.498452 
L 389.274044 407.158683 
L 390.120439 404.863578 
L 390.966834 418.967919 
L 391.813229 419.08468 
L 392.659624 419.800055 
L 393.506019 416.861713 
L 394.352414 416.180569 
L 395.198809 424.677921 
L 396.045204 429.417239 
L 396.891599 409.319073 
L 397.737994 416.375676 
L 398.584389 403.837613 
L 399.430784 398.777222 
L 400.277179 414.626263 
L 401.123574 386.892742 
L 401.969969 420.085527 
L 402.816364 398.833692 
L 403.662759 410.759192 
L 404.509154 392.930056 
L 405.355549 401.3684 
L 406.201944 421.100817 
L 407.048339 404.931514 
L 407.894734 412.580638 
L 408.741129 410.556705 
L 409.587524 424.198199 
L 410.433918 427.020792 
L 411.280313 395.712272 
L 412.126708 426.424477 
L 412.973103 395.087532 
L 414.665893 414.681895 
L 415.512288 419.657106 
L 416.358683 392.530767 
L 417.205078 416.543977 
L 418.051473 418.995503 
L 418.897868 393.418799 
L 419.744263 399.557897 
L 420.590658 415.286357 
L 421.437053 398.816025 
L 422.283448 398.825037 
L 423.129843 406.711954 
L 423.976238 422.268629 
L 425.669028 392.011982 
L 426.515423 412.716716 
L 427.361818 421.445566 
L 428.208213 428.459113 
L 429.054608 400.94609 
L 429.901003 412.665311 
L 430.747398 410.863634 
L 431.593793 400.748059 
L 432.440188 407.503094 
L 433.286583 397.478782 
L 434.132978 402.957385 
L 434.979373 427.876649 
L 435.825768 405.95811 
L 436.672163 403.936671 
L 437.518558 405.499189 
L 438.364953 397.36672 
L 439.211348 399.047674 
L 440.057743 401.590939 
L 440.904138 418.708914 
L 441.750533 392.800488 
L 442.596928 398.612442 
L 443.443323 411.25518 
L 444.289718 408.910475 
L 445.136113 418.104991 
L 445.982508 414.475155 
L 446.828903 406.272234 
L 447.675298 379.4527 
L 448.521693 419.585763 
L 449.368088 408.145308 
L 450.214483 411.812808 
L 451.060878 388.277696 
L 451.907273 413.037968 
L 452.753668 409.40957 
L 453.600063 425.557832 
L 454.446458 397.738293 
L 455.292853 410.202754 
L 456.139248 410.517005 
L 456.985643 429.552487 
L 457.832038 403.60705 
L 458.678433 394.0162 
L 459.524828 412.2684 
L 460.371223 414.667496 
L 461.217618 408.213834 
L 462.064013 393.506033 
L 462.910408 428.054771 
L 463.756803 421.613674 
L 464.603197 391.69742 
L 465.449592 406.328485 
L 466.295987 423.317023 
L 467.142382 410.052793 
L 467.988777 426.205918 
L 469.681567 391.358971 
L 470.527962 405.344992 
L 471.374357 385.176907 
L 472.220752 406.933608 
L 473.067147 433.212963 
L 473.913542 391.842108 
L 474.759937 390.599717 
L 475.606332 397.910506 
L 476.452727 390.295539 
L 477.299122 388.758817 
L 478.145517 417.293891 
L 478.991912 401.431921 
L 479.838307 422.177179 
L 480.684702 413.981401 
L 481.531097 412.410372 
L 482.377492 415.161707 
L 483.223887 417.14635 
L 484.070282 396.234292 
L 484.916677 421.288346 
L 485.763072 403.013297 
L 486.609467 407.927432 
L 487.455862 415.73677 
L 488.302257 419.044277 
L 489.148652 410.645901 
L 489.995047 437.699646 
L 490.841442 417.033254 
L 491.687837 406.555517 
L 492.534232 411.557577 
L 493.380627 401.127065 
L 494.227022 420.739094 
L 495.073417 394.266547 
L 496.766207 425.931885 
L 497.612602 411.771834 
L 498.458997 413.863048 
L 499.305392 422.037884 
L 500.151787 408.913534 
L 500.998182 368.439521 
L 501.844577 420.49075 
L 502.690972 420.689447 
L 503.537367 412.181848 
L 504.383762 386.282556 
L 505.230157 408.796441 
L 506.076552 425.77069 
L 506.922947 387.326691 
L 507.769342 402.963062 
L 508.615737 423.714355 
L 509.462132 401.904056 
L 510.308527 410.863046 
L 511.154922 410.488719 
L 512.001317 416.767341 
L 512.847712 405.787933 
L 513.694107 412.274238 
L 514.540502 401.044882 
L 515.386897 408.326714 
L 516.233292 398.951998 
L 517.079687 401.344009 
L 517.926082 418.564798 
L 518.772476 403.019714 
L 519.618871 413.393253 
L 520.465266 415.280976 
L 521.311661 392.584606 
L 522.158056 404.467816 
L 523.004451 425.489391 
L 523.850846 400.297234 
L 524.697241 401.371413 
L 525.543636 415.058952 
L 526.390031 431.497954 
L 527.236426 410.45019 
L 528.082821 412.484233 
L 528.929216 408.073071 
L 529.775611 408.905301 
L 530.622006 400.308666 
L 531.468401 410.78477 
L 532.314796 400.292536 
L 533.161191 398.316452 
L 534.007586 404.874032 
L 534.853981 394.992056 
L 535.700376 394.470265 
L 536.546771 404.107937 
L 537.393166 407.781881 
L 538.239561 415.248287 
L 539.085956 396.110246 
L 539.932351 400.980196 
L 540.778746 395.481721 
L 541.625141 412.713312 
L 542.471536 402.580377 
L 543.317931 418.425642 
L 544.164326 423.325507 
L 545.857116 406.964476 
L 546.703511 410.867259 
L 547.549906 419.86934 
L 548.396301 404.795014 
L 550.089091 423.701891 
L 550.935486 398.800762 
L 551.781881 395.097047 
L 552.628276 401.631111 
L 554.321066 408.417304 
L 555.167461 409.347563 
L 556.013856 407.547245 
L 556.860251 402.451428 
L 557.706646 407.974656 
L 558.553041 415.128434 
L 559.399436 407.690652 
L 560.245831 405.509778 
L 561.092226 405.006793 
L 561.938621 414.73567 
L 562.785016 400.44478 
L 563.631411 424.566283 
L 564.477806 436.424709 
L 565.324201 406.450442 
L 566.170596 433.182357 
L 567.016991 407.069098 
L 567.863386 402.511063 
L 568.709781 397.119438 
L 569.556176 405.428989 
L 570.402571 399.988136 
L 571.248966 409.582943 
L 572.095361 412.259645 
L 572.941755 400.321606 
L 573.78815 429.481488 
L 574.634545 411.900095 
L 575.48094 414.101096 
L 576.327335 397.516174 
L 577.17373 422.232802 
L 578.020125 425.107351 
L 578.86652 421.991186 
L 579.712915 398.511557 
L 580.55931 393.90463 
L 581.405705 429.089486 
L 582.2521 410.194401 
L 583.098495 413.204698 
L 583.94489 408.963434 
L 584.791285 421.001171 
L 585.63768 407.003177 
L 586.484075 414.505001 
L 587.33047 412.852436 
L 588.176865 421.379336 
L 589.02326 404.140688 
L 589.869655 404.925646 
L 590.71605 418.327441 
L 592.40884 404.134429 
L 593.255235 424.484805 
L 594.10163 428.009121 
L 594.948025 414.315933 
L 595.79442 406.096932 
L 596.640815 394.389246 
L 597.48721 414.049689 
L 598.333605 385.258757 
L 600.026395 400.976132 
L 600.87279 406.689736 
L 601.719185 426.373869 
L 602.56558 412.070732 
L 603.411975 403.213889 
L 604.25837 399.359468 
L 605.104765 406.112818 
L 605.95116 409.380541 
L 606.797555 404.547809 
L 607.64395 392.524098 
L 608.490345 408.127643 
L 609.33674 398.011502 
L 610.183135 407.40448 
L 611.02953 411.298904 
L 611.875925 430.78637 
L 612.72232 401.592804 
L 613.568715 403.836414 
L 614.41511 410.382324 
L 615.261505 404.485709 
L 616.1079 413.365288 
L 616.954295 429.517206 
L 617.80069 395.682331 
L 618.647085 416.906481 
L 619.49348 411.266477 
L 620.339875 398.895173 
L 621.18627 405.940773 
L 622.032665 410.705497 
L 622.87906 404.511098 
L 623.725455 416.23398 
L 624.57185 408.509898 
L 625.418245 397.561406 
L 626.264639 414.91632 
L 627.111034 397.317609 
L 627.957429 414.471265 
L 628.803824 410.071097 
L 629.650219 388.83493 
L 630.496614 394.126282 
L 631.343009 409.721205 
L 632.189404 414.409891 
L 633.035799 416.200199 
L 633.882194 396.703951 
L 634.728589 411.668599 
L 635.574984 397.386223 
L 636.421379 400.882663 
L 637.267774 409.556645 
L 638.114169 421.75786 
L 638.960564 398.218932 
L 639.806959 411.724721 
L 640.653354 410.813181 
L 641.499749 405.105813 
L 642.346144 410.80774 
L 644.038934 433.01657 
L 645.731724 410.192595 
L 646.578119 409.824838 
L 647.424514 418.015686 
L 648.270909 419.141769 
L 649.117304 419.418898 
L 649.963699 388.858414 
L 650.810094 413.557669 
L 651.656489 426.015045 
L 652.502884 403.548573 
L 653.349279 411.467039 
L 654.195674 395.149488 
L 655.042069 419.944564 
L 655.888464 417.430393 
L 656.734859 406.846838 
L 657.581254 407.806926 
L 658.427649 410.413055 
L 659.274044 410.490469 
L 660.120439 414.989534 
L 660.966834 401.194378 
L 661.813229 421.70269 
L 662.659624 392.106929 
L 663.506019 391.741884 
L 664.352414 425.349214 
L 665.198809 405.257167 
L 666.045204 401.557728 
L 666.891599 416.091943 
L 667.737994 404.341814 
L 668.584389 414.290484 
L 669.430784 403.485363 
L 670.277179 394.749666 
L 671.123574 422.860363 
L 671.969969 405.645976 
L 672.816364 415.4303 
L 673.662759 415.254146 
L 674.509154 426.562918 
L 675.355549 431.036149 
L 676.201944 407.601445 
L 677.048339 413.549033 
L 677.894734 391.169839 
L 678.741129 412.488775 
L 679.587524 411.141354 
L 680.433918 405.197794 
L 681.280313 412.108679 
L 682.126708 411.852607 
L 682.973103 392.139095 
L 683.819498 426.675952 
L 684.665893 424.284615 
L 685.512288 417.776717 
L 686.358683 389.645243 
L 687.205078 393.229434 
L 688.051473 416.812262 
L 688.897868 405.947875 
L 689.744263 393.050151 
L 690.590658 403.398777 
L 691.437053 432.066634 
L 692.283448 424.970128 
L 693.129843 404.846533 
L 693.976238 429.246919 
L 694.822633 398.366408 
L 695.669028 421.555244 
L 696.515423 404.160101 
L 697.361818 421.097631 
L 698.208213 420.704872 
L 699.054608 412.3137 
L 699.901003 391.561985 
L 700.747398 419.576473 
L 701.593793 411.974109 
L 702.440188 398.686298 
L 703.286583 408.723978 
L 704.132978 381.412904 
L 704.979373 413.232752 
L 705.825768 409.794715 
L 706.672163 409.883411 
L 707.518558 410.548057 
L 708.364953 395.737646 
L 709.211348 414.549938 
L 710.057743 402.823377 
L 710.904138 403.884057 
L 711.750533 421.517802 
L 712.596928 409.573454 
L 713.443323 404.177747 
L 714.289718 402.280941 
L 715.136113 400.836537 
L 715.982508 403.444994 
L 716.828903 423.964751 
L 717.675298 413.150816 
L 718.521693 413.475955 
L 719.368088 398.91612 
L 720.214483 413.850335 
L 721.060878 403.471594 
L 721.907273 407.013181 
L 722.753668 402.443241 
L 723.600063 394.578236 
L 724.446458 407.998762 
L 725.292853 412.429857 
L 726.139248 420.737461 
L 726.985643 398.621588 
L 727.832038 407.995536 
L 728.678433 413.763276 
L 729.524828 413.603327 
L 730.371223 407.596706 
L 731.217618 425.116585 
L 732.064013 421.740311 
L 732.910408 397.396803 
L 733.756803 379.60682 
L 734.603197 407.223918 
L 735.449592 410.662284 
L 736.295987 424.480336 
L 737.142382 378.063367 
L 737.988777 407.423236 
L 738.835172 398.356676 
L 739.681567 408.373367 
L 740.527962 384.600219 
L 741.374357 390.65267 
L 742.220752 403.205836 
L 743.067147 423.484589 
L 743.913542 400.409524 
L 744.759937 408.111615 
L 745.606332 424.329847 
L 747.299122 402.281398 
L 748.145517 428.20091 
L 748.991912 419.960993 
L 749.838307 413.339951 
L 750.684702 409.562826 
L 751.531097 404.729087 
L 752.377492 405.281102 
L 753.223887 415.749299 
L 754.070282 400.873849 
L 754.916677 406.878823 
L 755.763072 398.262095 
L 756.609467 412.822113 
L 757.455862 411.033621 
L 758.302257 404.965685 
L 759.148652 401.270283 
L 759.995047 386.246582 
L 760.841442 395.786064 
L 761.687837 425.656141 
L 762.534232 389.882891 
L 763.380627 430.611982 
L 765.073417 385.711958 
L 765.919812 419.074258 
L 766.766207 409.603032 
L 767.612602 420.193153 
L 768.458997 400.702091 
L 769.305392 412.932533 
L 770.151787 398.290973 
L 770.998182 415.635249 
L 771.844577 405.597045 
L 772.690972 435.817866 
L 773.537367 399.176369 
L 774.383762 420.825312 
L 775.230157 401.78411 
L 776.076552 404.671406 
L 776.922947 411.66787 
L 777.769342 401.434981 
L 779.462132 415.824365 
L 780.308527 410.495875 
L 781.154922 397.863947 
L 782.001317 424.336829 
L 782.847712 400.337422 
L 783.694107 393.454769 
L 784.540502 424.556007 
L 785.386897 402.588749 
L 786.233292 419.66667 
L 787.079687 412.075415 
L 787.926082 398.659731 
L 788.772476 420.043712 
L 789.618871 406.457722 
L 790.465266 408.151706 
L 791.311661 419.142373 
L 792.158056 422.247564 
L 793.004451 416.111898 
L 793.850846 429.645199 
L 794.697241 409.80289 
L 795.543636 399.4708 
L 796.390031 426.318323 
L 797.236426 408.941195 
L 798.082821 420.538761 
L 798.929216 411.052762 
L 799.775611 417.592426 
L 800.622006 396.345216 
L 801.468401 410.171302 
L 802.314796 417.651141 
L 803.161191 400.577992 
L 804.007586 419.19399 
L 804.853981 397.457587 
L 805.700376 401.120105 
L 806.546771 433.869928 
L 807.393166 407.363824 
L 808.239561 405.618976 
L 809.085956 420.221979 
L 809.932351 407.52949 
L 810.778746 401.325476 
L 811.625141 414.04605 
L 812.471536 415.875068 
L 813.317931 407.893811 
L 814.164326 435.85635 
L 815.857116 408.087423 
L 817.549906 440.420054 
L 818.396301 393.809495 
L 819.242696 397.976734 
L 820.089091 393.990159 
L 820.935486 407.41134 
L 821.781881 425.662325 
L 822.628276 405.264073 
L 823.474671 408.665576 
L 824.321066 402.500139 
L 825.167461 438.195789 
L 826.013856 419.266844 
L 826.860251 415.472132 
L 827.706646 401.869915 
L 828.553041 405.43634 
L 829.399436 417.917542 
L 830.245831 424.02096 
L 831.092226 416.362871 
L 831.938621 402.345478 
L 832.785016 411.001828 
L 833.631411 414.897432 
L 834.477806 410.678304 
L 835.324201 413.238808 
L 836.170596 387.049957 
L 837.016991 432.86055 
L 837.863386 393.184494 
L 838.709781 404.375482 
L 839.556176 407.446706 
L 840.402571 389.563948 
L 841.248966 421.570037 
L 842.095361 404.806748 
L 842.941755 404.866962 
L 843.78815 415.266209 
L 844.634545 397.343844 
L 844.634545 397.343844 
" style="fill:none;stroke:#1f77b4;stroke-linecap:square;stroke-width:1.5;"/>
   </g>
   <g id="patch_9">
    <path d="M 45.68 445.2 
L 45.68 328.443243 
" style="fill:none;stroke:#555555;stroke-linecap:square;stroke-linejoin:miter;"/>
   </g>
   <g id="patch_10">
    <path d="M 45.68 445.2 
L 882.68 445.2 
" style="fill:none;stroke:#555555;stroke-linecap:square;stroke-linejoin:miter;"/>
   </g>
  </g>
 </g>
 <defs>
  <clipPath id="p1307683373">
   <rect height="116.756757" width="837" x="45.68" y="13.2"/>
  </clipPath>
  <clipPath id="p98ce39513f">
   <rect height="116.756757" width="837" x="45.68" y="170.821622"/>
  </clipPath>
  <clipPath id="p7f4c381dd1">
   <rect height="116.756757" width="837" x="45.68" y="328.443243"/>
  </clipPath>
 </defs>
</svg>
